<?xml version="1.0" encoding="UTF-8"?><svg id="c" xmlns="http://www.w3.org/2000/svg" viewBox="0 0 375.65 353.19"><g><path d="m308.3,139.93v19.85h-24.47v-4.87h-.01v144.78c0,7.23-4.47,13.41-10.8,15.93-1.96.78-4.1,1.21-6.34,1.21h-137.67c-9.77,0-17.69-7.92-17.69-17.69v-9.52h27.08v-147.75c0-7.83,6.35-14.18,14.18-14.18h143.42c.21,0,.42.01.64.02,6.52.32,11.66,5.67,11.66,12.22Z" style="fill:#8786a3; fill-rule:evenodd;"/><path d="m273.02,315.62v1.21h-6.34c2.24,0,4.38-.43,6.34-1.21Z" style="fill:#8786a3; fill-rule:evenodd;"/><path d="m259.34,248.62h24.48v56.33c0,6.56-5.31,11.88-11.87,11.88h-.31c-6.82,0-12.3-5.48-12.3-12.24v-55.97Z" style="fill:#8786a3; fill-rule:evenodd;"/><rect x="153.92" y="196.38" width="17.98" height="17.98" style="fill:#ebecf7;"/><polyline points="148.62 206.07 157.73 215.18 177.35 195.56" style="fill:#ebecf7; fill-rule:evenodd; stroke:#fff; stroke-miterlimit:10; stroke-width:4px;"/><rect x="153.92" y="226.13" width="17.98" height="17.98" style="fill:#ebecf7;"/><polyline points="148.62 235.82 157.73 244.93 177.35 225.31" style="fill:#ebecf7; fill-rule:evenodd; stroke:#fff; stroke-miterlimit:10; stroke-width:4px;"/><rect x="153.92" y="255.88" width="17.98" height="17.98" style="fill:#ebecf7;"/><polyline points="148.62 265.57 157.73 274.68 177.35 255.06" style="fill:#ebecf7; fill-rule:evenodd; stroke:#fff; stroke-miterlimit:10; stroke-width:4px;"/><line x1="252.27" y1="51.7" x2="345.18" y2="51.7" style="fill:#ebecf7; stroke:#fff; stroke-miterlimit:10; stroke-width:4px;"/><line x1="252.27" y1="67.39" x2="302.62" y2="67.39" style="fill:#ebecf7; stroke:#fff; stroke-miterlimit:10; stroke-width:4px;"/><line x1="252.27" y1="83.09" x2="325.33" y2="83.09" style="fill:#ebecf7; stroke:#fff; stroke-miterlimit:10; stroke-width:4px;"/><line x1="29.48" y1="255.29" x2="72.76" y2="255.29" style="fill:#ebecf7; stroke:#fff; stroke-miterlimit:10; stroke-width:4px;"/><line x1="186.9" y1="208.6" x2="270.13" y2="208.6" style="fill:#ebecf7; stroke:#fff; stroke-miterlimit:10; stroke-width:4px;"/><line x1="29.48" y1="270.98" x2="92.29" y2="270.98" style="fill:#ebecf7; stroke:#fff; stroke-miterlimit:10; stroke-width:4px;"/><line x1="186.9" y1="238.35" x2="270.13" y2="238.35" style="fill:#ebecf7; stroke:#fff; stroke-miterlimit:10; stroke-width:4px;"/><line x1="186.9" y1="268.11" x2="270.13" y2="268.11" style="fill:#ebecf7; stroke:#fff; stroke-miterlimit:10; stroke-width:4px;"/></g><line x1="175.21" y1="124.84" x2="294.75" y2="124.84" style="fill:none; stroke:#32406d; stroke-miterlimit:10;"/><line x1="137" y1="286.76" x2="137" y2="186.5" style="fill:none; stroke:#32406d; stroke-miterlimit:10;"/><line x1="265.28" y1="313.98" x2="151.18" y2="313.98" style="fill:none; stroke:#32406d; stroke-miterlimit:10;"/><line x1="282.42" y1="152.05" x2="282.42" y2="296.83" style="fill:none; stroke:#32406d; stroke-miterlimit:10;"/><path d="m257.95,286.76H109.92v9.52c0,9.77,7.92,17.7,17.7,17.7h144" style="fill:none; fill-rule:evenodd; stroke:#32406d; stroke-miterlimit:10;"/><path d="m306.9,156.92h-24.48v-20.21c0-6.56,5.31-11.88,11.87-11.88h.31c6.82,0,12.3,5.48,12.3,12.24v19.84Z" style="fill:#32406d; fill-rule:evenodd; stroke:#32406d; stroke-miterlimit:10;"/><path d="m282.41,245.77v56.33c0,6.56-5.31,11.88-11.87,11.88h-.31c-6.82,0-12.3-5.48-12.3-12.24v-15.48" style="fill:none; fill-rule:evenodd; stroke:#32406d; stroke-miterlimit:10;"/><polygon points="355.47 37.48 355.47 97.6 310.48 97.6 283.82 119 283.82 97.6 243.18 97.6 243.18 37.48 355.47 37.48" style="fill:#ebecf7; fill-rule:evenodd;"/><polygon points="353.47 34.48 353.47 94.6 308.48 94.6 281.82 116 281.82 94.6 241.18 94.6 241.18 34.48 353.47 34.48" style="fill:none; fill-rule:evenodd; stroke:#32406d; stroke-miterlimit:10;"/><polygon points="105.14 244.43 105.14 287.7 72.97 287.7 72.97 303.11 53.78 287.7 24.32 287.7 24.32 244.43 105.14 244.43" style="fill:#ebecf7; fill-rule:evenodd;"/><polygon points="103.14 241.43 103.14 284.7 70.97 284.7 70.97 300.11 51.78 284.7 22.32 284.7 22.32 241.43 103.14 241.43" style="fill:none; fill-rule:evenodd; stroke:#32406d; stroke-miterlimit:10;"/><g><circle cx="132.29" cy="141.61" r="46.16" transform="translate(-28.68 249.51) rotate(-80.78)" style="fill:#fff;"/><path d="m132.29,96.96c24.62,0,44.66,20.03,44.66,44.66s-20.03,44.66-44.66,44.66-44.66-20.03-44.66-44.66,20.03-44.66,44.66-44.66m0-3c-26.32,0-47.66,21.34-47.66,47.66s21.34,47.66,47.66,47.66,47.66-21.34,47.66-47.66-21.34-47.66-47.66-47.66h0Z" style="fill:#32406d;"/></g><polygon points="138.13 129.29 123.81 133.12 119.97 147.45 116.13 161.77 130.46 157.94 144.78 154.1 148.62 139.77 152.46 125.45 138.13 129.29" style="fill:#ebecf7; stroke:#32406d; stroke-miterlimit:10;"/><polygon points="136.13 127.29 121.81 131.12 117.97 145.45 114.13 159.77 128.46 155.94 142.78 152.1 146.62 137.77 150.46 123.45 136.13 127.29" style="fill:#32406d; stroke:#32406d; stroke-miterlimit:10;"/><g><rect x="123.71" y="85.51" width="17.16" height="4.65" style="fill:#32406d;"/><path d="m140.38,86.01v3.65h-16.16v-3.65h16.16m1-1h-18.16v5.65h18.16v-5.65h0Z" style="fill:#32406d;"/></g><path d="m136.05,91.66v3.65h-7.5v-3.65h7.5m1-1h-9.5v5.65h9.5v-5.65h0Z" style="fill:#32406d;"/><path d="m136.05,91.66v.07h-7.5v-.07h7.5m1-1h-9.5v2.07h9.5v-2.07h0Z" style="fill:#32406d;"/><rect x="152.52" y="193.52" width="17.98" height="17.98" style="fill:#fff; stroke:#32406d; stroke-miterlimit:10;"/><g><path d="m146.52,204.62l2.12-2.12,7.34,7.35c.09.09.22.15.35.15s.26-.05.35-.15l17.85-17.85,2.12,2.12-20.33,20.33-9.82-9.82Z" style="fill:#fff;"/><path d="m174.54,192.7l1.41,1.41-19.62,19.62-9.11-9.11,1.41-1.41,6.99,6.99c.19.19.44.29.71.29s.52-.11.71-.29l17.5-17.5m0-1.41l-18.21,18.21-7.7-7.7-2.83,2.83,10.53,10.53,21.04-21.04-2.83-2.83h0Z" style="fill:#32406d;"/></g><rect x="152.52" y="223.27" width="17.98" height="17.98" style="fill:#fff; stroke:#32406d; stroke-miterlimit:10;"/><g><path d="m146.52,234.38l2.12-2.12,7.34,7.34c.1.1.23.15.35.15s.26-.05.35-.15l17.85-17.85,2.12,2.12-20.33,20.33-9.82-9.82Z" style="fill:#fff;"/><path d="m174.54,222.45l1.41,1.41-19.62,19.62-9.11-9.11,1.41-1.41,6.99,6.99c.2.2.45.29.71.29s.51-.1.71-.29l17.5-17.5m0-1.41l-18.21,18.21-7.7-7.7-2.83,2.83,10.53,10.53,21.04-21.04-2.83-2.83h0Z" style="fill:#32406d;"/></g><rect x="152.52" y="253.03" width="17.98" height="17.98" style="fill:#fff; stroke:#32406d; stroke-miterlimit:10;"/><g><path d="m146.52,264.13l2.12-2.12,7.34,7.34c.1.1.23.15.35.15s.26-.05.35-.15l17.85-17.85,2.12,2.12-20.33,20.33-9.82-9.82Z" style="fill:#fff;"/><path d="m174.54,252.2l1.41,1.41-19.62,19.62-9.11-9.11,1.41-1.41,6.99,6.99c.2.2.45.29.71.29s.51-.1.71-.29l17.5-17.5m0-1.41l-18.21,18.21-7.7-7.7-2.83,2.83,10.53,10.53,21.04-21.04-2.83-2.83h0Z" style="fill:#32406d;"/></g><line x1="251.87" y1="50.85" x2="344.78" y2="50.85" style="fill:#ebecf7; stroke:#ebecf7; stroke-miterlimit:10; stroke-width:3px;"/><line x1="251.87" y1="66.54" x2="302.22" y2="66.54" style="fill:#ebecf7; stroke:#ebecf7; stroke-miterlimit:10; stroke-width:3px;"/><line x1="251.87" y1="82.23" x2="324.93" y2="82.23" style="fill:#ebecf7; stroke:#ebecf7; stroke-miterlimit:10; stroke-width:3px;"/><line x1="250.87" y1="48.85" x2="343.78" y2="48.85" style="fill:none; stroke:#32406d; stroke-miterlimit:10; stroke-width:3px;"/><line x1="250.87" y1="64.54" x2="301.22" y2="64.54" style="fill:none; stroke:#32406d; stroke-miterlimit:10; stroke-width:3px;"/><line x1="250.87" y1="80.23" x2="323.93" y2="80.23" style="fill:none; stroke:#32406d; stroke-miterlimit:10; stroke-width:3px;"/><line x1="29.08" y1="254.43" x2="72.36" y2="254.43" style="fill:none; stroke:#ebecf7; stroke-miterlimit:10; stroke-width:3px;"/><line x1="29.08" y1="270.13" x2="91.89" y2="270.13" style="fill:none; stroke:#ebecf7; stroke-miterlimit:10; stroke-width:3px;"/><line x1="28.08" y1="252.43" x2="71.36" y2="252.43" style="fill:none; stroke:#32406d; stroke-miterlimit:10; stroke-width:3px;"/><line x1="185.51" y1="205.75" x2="268.74" y2="205.75" style="fill:none; stroke:#32406d; stroke-miterlimit:10; stroke-width:3px;"/><line x1="28.08" y1="268.13" x2="90.89" y2="268.13" style="fill:none; stroke:#32406d; stroke-miterlimit:10; stroke-width:3px;"/><line x1="185.51" y1="235.5" x2="268.74" y2="235.5" style="fill:none; stroke:#32406d; stroke-miterlimit:10; stroke-width:3px;"/><line x1="185.51" y1="265.25" x2="268.74" y2="265.25" style="fill:none; stroke:#32406d; stroke-miterlimit:10; stroke-width:3px;"/><circle cx="132.29" cy="141.61" r="2.54" style="fill:#fff; stroke:#32406d; stroke-miterlimit:10; stroke-width:3px;"/><g><g><rect x="294.66" y="174" width="32.03" height="123.46" rx="2.83" ry="2.83" style="fill:none; stroke:#32406d; stroke-miterlimit:10;"/><rect x="295.66" y="193.47" width="9.65" height="2.86" style="fill:#ebecf7;"/><rect x="295.66" y="200.61" width="4.75" height="2.86" style="fill:#ebecf7;"/><rect x="295.66" y="207.75" width="9.65" height="2.86" style="fill:#ebecf7;"/><rect x="295.66" y="214.88" width="4.75" height="2.86" style="fill:#ebecf7;"/><rect x="295.66" y="222.02" width="9.65" height="2.86" style="fill:#ebecf7;"/><rect x="295.66" y="229.16" width="4.75" height="2.86" style="fill:#ebecf7;"/><rect x="295.66" y="236.3" width="9.65" height="2.86" style="fill:#ebecf7;"/><rect x="295.66" y="243.43" width="4.75" height="2.86" style="fill:#ebecf7;"/><rect x="295.66" y="250.57" width="9.65" height="2.86" style="fill:#ebecf7;"/><rect x="295.66" y="257.71" width="4.75" height="2.86" style="fill:#ebecf7;"/><rect x="295.66" y="264.84" width="9.65" height="2.86" style="fill:#ebecf7;"/><rect x="295.66" y="271.98" width="4.75" height="2.86" style="fill:#ebecf7;"/><rect x="295.66" y="279.12" width="9.65" height="2.86" style="fill:#ebecf7;"/><rect x="295.66" y="186.34" width="4.75" height="2.86" style="fill:#ebecf7;"/><rect x="295.66" y="286.25" width="4.75" height="2.86" style="fill:#ebecf7;"/><rect x="294.66" y="191.47" width="9.65" height="2.86" style="fill:none; stroke:#32406d; stroke-miterlimit:10;"/><rect x="294.66" y="198.61" width="4.75" height="2.86" style="fill:none; stroke:#32406d; stroke-miterlimit:10;"/><rect x="294.66" y="205.75" width="9.65" height="2.86" style="fill:none; stroke:#32406d; stroke-miterlimit:10;"/><rect x="294.66" y="212.88" width="4.75" height="2.86" style="fill:none; stroke:#32406d; stroke-miterlimit:10;"/><rect x="294.66" y="220.02" width="9.65" height="2.86" style="fill:none; stroke:#32406d; stroke-miterlimit:10;"/><rect x="294.66" y="227.16" width="4.75" height="2.86" style="fill:none; stroke:#32406d; stroke-miterlimit:10;"/><rect x="294.66" y="234.3" width="9.65" height="2.86" style="fill:none; stroke:#32406d; stroke-miterlimit:10;"/><rect x="294.66" y="241.43" width="4.75" height="2.86" style="fill:none; stroke:#32406d; stroke-miterlimit:10;"/><rect x="294.66" y="248.57" width="9.65" height="2.86" style="fill:none; stroke:#32406d; stroke-miterlimit:10;"/><rect x="294.66" y="255.71" width="4.75" height="2.86" style="fill:none; stroke:#32406d; stroke-miterlimit:10;"/><rect x="294.66" y="262.84" width="9.65" height="2.86" style="fill:none; stroke:#32406d; stroke-miterlimit:10;"/><rect x="294.66" y="269.98" width="4.75" height="2.86" style="fill:none; stroke:#32406d; stroke-miterlimit:10;"/><rect x="294.66" y="277.12" width="9.65" height="2.86" style="fill:none; stroke:#32406d; stroke-miterlimit:10;"/><rect x="294.66" y="184.34" width="4.75" height="2.86" style="fill:none; stroke:#32406d; stroke-miterlimit:10;"/><rect x="294.66" y="284.25" width="4.75" height="2.86" style="fill:none; stroke:#32406d; stroke-miterlimit:10;"/></g><path d="m326.69,176.84v117.74c0,1.59-1.29,2.88-2.88,2.88h-4.08l-.05-.05v-123.42l4.19.02c1.56,0,2.83,1.28,2.83,2.84Z" style="fill:#32406d; stroke:#32406d; stroke-miterlimit:10;"/><rect x="294.66" y="191.47" width="9.65" height="2.86" style="fill:none; stroke:#32406d; stroke-miterlimit:10;"/><rect x="294.66" y="198.61" width="4.75" height="2.86" style="fill:none; stroke:#32406d; stroke-miterlimit:10;"/><rect x="294.66" y="205.75" width="9.65" height="2.86" style="fill:none; stroke:#32406d; stroke-miterlimit:10;"/><rect x="294.66" y="212.88" width="4.75" height="2.86" style="fill:none; stroke:#32406d; stroke-miterlimit:10;"/><rect x="294.66" y="220.02" width="9.65" height="2.86" style="fill:none; stroke:#32406d; stroke-miterlimit:10;"/><rect x="294.66" y="227.16" width="4.75" height="2.86" style="fill:none; stroke:#32406d; stroke-miterlimit:10;"/><rect x="294.66" y="234.3" width="9.65" height="2.86" style="fill:none; stroke:#32406d; stroke-miterlimit:10;"/><rect x="294.66" y="241.43" width="4.75" height="2.86" style="fill:none; stroke:#32406d; stroke-miterlimit:10;"/><rect x="294.66" y="248.57" width="9.65" height="2.86" style="fill:none; stroke:#32406d; stroke-miterlimit:10;"/><rect x="294.66" y="255.71" width="4.75" height="2.86" style="fill:none; stroke:#32406d; stroke-miterlimit:10;"/><rect x="294.66" y="262.84" width="9.65" height="2.86" style="fill:none; stroke:#32406d; stroke-miterlimit:10;"/><rect x="294.66" y="269.98" width="4.75" height="2.86" style="fill:none; stroke:#32406d; stroke-miterlimit:10;"/><rect x="294.66" y="277.12" width="9.65" height="2.86" style="fill:none; stroke:#32406d; stroke-miterlimit:10;"/><rect x="294.66" y="184.34" width="4.75" height="2.86" style="fill:none; stroke:#32406d; stroke-miterlimit:10;"/><rect x="294.66" y="284.25" width="4.75" height="2.86" style="fill:none; stroke:#32406d; stroke-miterlimit:10;"/></g></svg>