<?xml version="1.0" encoding="UTF-8"?><svg id="g" xmlns="http://www.w3.org/2000/svg" viewBox="0 0 419.53 595.28"><g><polygon points="266.71 455.6 71.51 455.6 71.51 260.39 266.71 260.39 266.71 425.07 266.71 455.6" style="fill:#fff; fill-rule:evenodd;"/><rect x="73.68" y="263.7" width="195.21" height="195.21" style="fill:#dedce4;"/><polygon points="266.71 455.6 71.51 455.6 71.51 260.39 266.71 260.39 266.71 425.07 266.71 455.6" style="fill:none; fill-rule:evenodd; stroke:#32406d; stroke-miterlimit:10;"/><g><line x1="168.97" y1="269.08" x2="168.97" y2="443.89" style="fill:none; stroke:#32406d; stroke-miterlimit:10;"/><polygon points="165.98 269.95 168.97 264.77 171.96 269.95 165.98 269.95" style="fill:#32406d;"/><polygon points="165.98 443.01 168.97 448.2 171.96 443.01 165.98 443.01" style="fill:#32406d;"/></g><g><line x1="260.24" y1="356.48" x2="77.7" y2="356.48" style="fill:none; stroke:#32406d; stroke-miterlimit:10;"/><polygon points="259.36 353.49 264.54 356.48 259.36 359.48 259.36 353.49" style="fill:#32406d;"/><polygon points="78.58 353.49 73.4 356.48 78.58 359.48 78.58 353.49" style="fill:#32406d;"/></g><circle cx="258.23" cy="251.31" r="73.92" style="fill:#dedce4;"/><circle cx="258.23" cy="245.3" r="73.92" style="fill:none; stroke:#32406d; stroke-miterlimit:10; stroke-width:3px;"/></g><g><path d="m158.72,41.11c-21.05-.04-38.15,16.99-38.19,38.04,0,.05,0,.1,0,.15,0,21.04,38.19,60.55,38.19,60.55,0,0,38.04-39.51,38.04-60.55.04-21.05-16.99-38.15-38.04-38.19h0Z" style="fill:#fff;"/><path d="m162.16,43.58c-21.05-.04-38.15,16.99-38.19,38.04,0,.05,0,.1,0,.15,0,21.04,38.19,60.55,38.19,60.55,0,0,38.04-39.51,38.04-60.55.04-21.05-16.99-38.15-38.04-38.19h0Zm0,49.41c-6.19,0-11.22-5.02-11.22-11.22s5.02-11.22,11.22-11.22,11.22,5.02,11.22,11.22h0c0,6.19-5.02,11.22-11.22,11.22Z" style="fill:#8786a3;"/><path d="m117.96,252.64l-.19-3.79c5.17-.25,10.71-.58,16.28-1.26l.46,3.77c-5.7.69-11.57,1.03-16.55,1.28Zm33-4.57l-1.1-3.64c4.96-1.49,9.3-3.39,13.26-5.78.4-.24.8-.49,1.2-.75l2.08,3.18c-.43.28-.87.55-1.31.82-4.24,2.56-8.86,4.58-14.13,6.17Zm25.37-21.47l-3.79-.21c0-.17.01-.34.01-.5,0-1.12-.21-2.18-.61-3.13-1.05-2.47-3.42-4.33-5.83-5.97-.63-.43-1.27-.85-1.91-1.27l2.06-3.19c.67.43,1.33.87,1.99,1.32,2.88,1.97,5.75,4.25,7.19,7.62.61,1.42.91,2.98.91,4.62,0,.24,0,.47-.02.71Zm-26.28-19.29c-4.15-2.35-8.56-4.97-12.71-8.17-.44-.34-.88-.69-1.31-1.04l2.42-2.93c.4.33.8.65,1.21.96,3.97,3.05,8.24,5.59,12.27,7.87l-1.88,3.31Zm-23.85-23.59c-.18-.91-.29-1.83-.32-2.74,0-.19,0-.38,0-.57,0-4.43,1.81-8.97,5.37-13.48l2.98,2.36c-3.02,3.82-4.55,7.56-4.55,11.12,0,.15,0,.29,0,.44.02.7.11,1.41.25,2.11l-3.72.76Zm19.8-25.03l-2.15-3.13c4.67-3.21,9.72-5.82,15-7.77l1.31,3.56c-4.99,1.84-9.75,4.31-14.16,7.34Z" style="fill:#32406d;"/><path d="m158.72,41.11c-21.05-.04-38.15,16.99-38.19,38.04,0,.05,0,.1,0,.15,0,21.04,38.19,60.55,38.19,60.55,0,0,38.04-39.51,38.04-60.55.04-21.05-16.99-38.15-38.04-38.19h0Z" style="fill:none; stroke:#32406d; stroke-miterlimit:10;"/><path d="m116.67,251.24l-.19-3.79c5.17-.25,10.71-.58,16.28-1.26l.46,3.77c-5.7.69-11.57,1.03-16.55,1.28Zm33-4.57l-1.1-3.64c4.96-1.49,9.3-3.38,13.26-5.78.4-.24.8-.49,1.2-.75l2.08,3.18c-.43.28-.87.56-1.31.82-4.24,2.56-8.86,4.58-14.13,6.17Zm25.37-21.47l-3.79-.21c0-.17.01-.34.01-.5,0-1.12-.21-2.18-.61-3.13-1.05-2.47-3.42-4.33-5.83-5.97-.63-.43-1.27-.85-1.91-1.27l2.06-3.19c.67.43,1.34.87,2,1.32,2.88,1.96,5.75,4.25,7.18,7.62.61,1.42.91,2.98.91,4.62,0,.24,0,.47-.02.71Zm-26.28-19.29c-4.15-2.36-8.56-4.97-12.71-8.17-.44-.34-.88-.69-1.31-1.04l2.42-2.93c.4.33.8.65,1.21.96,3.97,3.05,8.24,5.59,12.27,7.87l-1.88,3.31Zm-23.85-23.59c-.18-.91-.29-1.83-.32-2.74,0-.19,0-.38,0-.57,0-4.43,1.81-8.97,5.37-13.48l2.98,2.36c-3.02,3.82-4.55,7.56-4.55,11.12,0,.15,0,.29,0,.44.02.7.11,1.41.25,2.11l-3.72.76Zm19.8-25.03l-2.15-3.13c4.67-3.21,9.72-5.82,15-7.77l1.31,3.56c-4.99,1.84-9.75,4.31-14.16,7.34Z" style="fill:none; stroke:#32406d; stroke-miterlimit:10;"/><path d="m158.72,90.51c-6.19,0-11.22-4.88-11.22-10.9s5.02-10.9,11.22-10.9,11.22,4.88,11.22,10.9h0c0,6.02-5.02,10.9-11.22,10.9Z" style="fill:none; stroke:#32406d; stroke-miterlimit:10;"/></g><g><path d="m280.37,546.07c34.86-7.15,95.89-66.33,8.83-173.92" style="fill:none; stroke:#dedce4; stroke-dasharray:0 12; stroke-miterlimit:10; stroke-width:4px;"/><path d="m278.82,547.47l-.8-3.92c3.51-.72,7.18-1.96,10.91-3.69l1.68,3.63c-4.01,1.86-7.98,3.19-11.79,3.98Zm22.47-10.16l-2.3-3.28c3.16-2.21,6.18-4.72,8.97-7.46l2.8,2.86c-2.95,2.89-6.13,5.53-9.47,7.87Zm17.54-17.17l-3.22-2.37c2.3-3.13,4.36-6.46,6.13-9.92l3.56,1.82c-1.86,3.65-4.04,7.17-6.47,10.47Zm11.16-21.84l-3.81-1.23c1.18-3.66,2.09-7.48,2.7-11.36l3.95.63c-.65,4.08-1.61,8.1-2.85,11.95Zm3.9-24.17l-4-.06c.06-3.81-.13-7.76-.57-11.72l3.98-.44c.46,4.13.66,8.24.59,12.22Zm-6.52-23.38c-.83-3.73-1.89-7.56-3.13-11.38l3.8-1.24c1.28,3.95,2.37,7.9,3.23,11.75l-3.9.87Zm-7.26-22.47c-1.48-3.54-3.15-7.17-4.95-10.77l3.57-1.79c1.85,3.69,3.56,7.4,5.07,11.02l-3.69,1.54Zm-10.6-21.22c-1.93-3.33-4.03-6.74-6.23-10.13l3.35-2.18c2.24,3.45,4.37,6.92,6.34,10.31l-3.46,2Zm-12.95-19.96c-2.25-3.14-4.66-6.35-7.14-9.54l3.16-2.46c2.52,3.23,4.95,6.48,7.24,9.67l-3.25,2.33Z" style="fill:none; stroke:#32406d; stroke-miterlimit:10;"/></g><polygon points="285.98 169.67 285.98 176.18 320.43 176.18 203.29 293.31 207.89 297.91 325.03 180.78 325.03 215.22 331.53 215.22 331.53 169.67 285.98 169.67" style="fill:#fff; stroke:#32406d; stroke-miterlimit:10;"/><g><g><path d="m290.85,484.74v-23.15s4.61-.11,4.61-.11c4.73,0,8.57,3.25,8.57,7.27v21.05" style="fill:none; fill-rule:evenodd; stroke:#32406d; stroke-miterlimit:10;"/><path d="m211,494.22h87.27c3.18,0,5.75-2.18,5.75-4.88v-.13c0-2.8-2.65-5.05-5.92-5.05h-7.84" style="fill:none; fill-rule:evenodd; stroke:#32406d; stroke-miterlimit:10;"/></g><path d="m71.48,462.52h77.42v38.08c0,21.71-17.63,39.34-39.34,39.34h-38.08v-77.42h0Z" style="fill:#aeadc1;"/><path d="m110.19,518.23c9.71,0,17.94-6.4,20.68-15.22.37-1.16.63-2.35.79-3.58.13-.93.19-1.89.19-2.85,0-.97-.06-1.92-.19-2.85-.16-1.23-.42-2.42-.79-3.58-2.74-8.83-10.96-15.23-20.68-15.23s-17.95,6.4-20.69,15.23c-.37,1.16-.63,2.35-.79,3.58-.13.93-.19,1.89-.19,2.85s.06,1.92.19,2.85c.16,1.23.42,2.42.79,3.58,2.74,8.81,10.96,15.22,20.69,15.22Z" style="fill:#32406d;"/><path d="m69.04,464.77h77.42v38.08c0,21.71-17.63,39.34-39.34,39.34h-38.08v-77.42h0Z" style="fill:none; stroke:#32406d; stroke-miterlimit:10;"/><g><rect x="162.84" y="467.12" width="5.68" height="3.42" transform="translate(634.51 303.15) rotate(90)" style="fill:#ebecf7;"/><rect x="168.44" y="470.04" width="11.52" height="3.42" transform="translate(645.95 297.55) rotate(90)" style="fill:#ebecf7;"/><rect x="179.89" y="467.12" width="5.68" height="3.42" transform="translate(651.55 286.11) rotate(90)" style="fill:#ebecf7;"/><rect x="185.49" y="470.04" width="11.52" height="3.42" transform="translate(663 280.5) rotate(90)" style="fill:#ebecf7;"/><rect x="196.94" y="467.12" width="5.68" height="3.42" transform="translate(668.6 269.06) rotate(90)" style="fill:#ebecf7;"/><rect x="202.54" y="470.04" width="11.52" height="3.42" transform="translate(680.05 263.46) rotate(90)" style="fill:#ebecf7;"/><rect x="160.45" y="465.92" width="5.68" height="3.42" transform="translate(630.92 304.35) rotate(90)" style="fill:none; stroke:#32406d; stroke-miterlimit:10;"/><rect x="166.05" y="468.85" width="11.52" height="3.42" transform="translate(642.37 298.75) rotate(90)" style="fill:none; stroke:#32406d; stroke-miterlimit:10;"/><rect x="177.5" y="465.92" width="5.68" height="3.42" transform="translate(647.97 287.3) rotate(90)" style="fill:none; stroke:#32406d; stroke-miterlimit:10;"/><rect x="183.1" y="468.85" width="11.52" height="3.42" transform="translate(659.42 281.7) rotate(90)" style="fill:none; stroke:#32406d; stroke-miterlimit:10;"/><rect x="194.55" y="465.92" width="5.68" height="3.42" transform="translate(665.02 270.25) rotate(90)" style="fill:none; stroke:#32406d; stroke-miterlimit:10;"/><rect x="200.15" y="468.85" width="11.52" height="3.42" transform="translate(676.47 264.65) rotate(90)" style="fill:none; stroke:#32406d; stroke-miterlimit:10;"/><rect x="211.6" y="465.92" width="5.68" height="3.42" transform="translate(682.07 253.2) rotate(90)" style="fill:none; stroke:#32406d; stroke-miterlimit:10;"/></g><circle cx="81.24" cy="474.45" r="3.95" style="fill:#fff;"/><circle cx="80.33" cy="473.38" r="3.95" style="fill:none; stroke:#32406d; stroke-miterlimit:10;"/><g><path d="m89.51,503.01h41.36c.37-1.16.63-2.35.79-3.58h-42.94c.16,1.23.42,2.42.79,3.58Z" style="fill:#dedce4;"/><path d="m88.72,493.72h42.94c-.16-1.23-.42-2.42-.79-3.58h-41.36c-.37,1.16-.63,2.35-.79,3.58Z" style="fill:#dedce4;"/></g><path d="m110.19,518.23c9.71,0,17.94-6.4,20.68-15.22.37-1.16.63-2.35.79-3.58.13-.93.19-1.89.19-2.85,0-.97-.06-1.92-.19-2.85-.16-1.23-.42-2.42-.79-3.58-2.74-8.83-10.96-15.23-20.68-15.23s-17.95,6.4-20.69,15.23c-.37,1.16-.63,2.35-.79,3.58-.13.93-.19,1.89-.19,2.85s.06,1.92.19,2.85c.16,1.23.42,2.42.79,3.58,2.74,8.81,10.96,15.22,20.69,15.22Z" style="fill:none;"/><g><path d="m89.51,503.01h41.36c.37-1.16.63-2.35.79-3.58h-42.94c.16,1.23.42,2.42.79,3.58Z" style="fill:#fff;"/><path d="m88.72,493.72h42.94c-.16-1.23-.42-2.42-.79-3.58h-41.36c-.37,1.16-.63,2.35-.79,3.58Z" style="fill:#fff;"/></g><g><path d="m88.39,501.9h41.36c.37-1.16.63-2.35.79-3.58h-42.94c.16,1.23.42,2.42.79,3.58Z" style="fill:none; stroke:#32406d; stroke-miterlimit:10;"/><path d="m87.6,492.6h42.94c-.16-1.23-.42-2.42-.79-3.58h-41.36c-.37,1.16-.63,2.35-.79,3.58Z" style="fill:none; stroke:#32406d; stroke-miterlimit:10;"/></g><g><line x1="290.66" y1="464.77" x2="133.5" y2="464.77" style="fill:none; stroke:#32406d; stroke-miterlimit:10;"/><line x1="146.46" y1="494.19" x2="290.15" y2="494.19" style="fill:none; stroke:#32406d; stroke-miterlimit:10;"/></g><g><rect x="219.8" y="470.65" width="11.52" height="3.42" transform="translate(697.92 246.79) rotate(90)" style="fill:#ebecf7;"/><rect x="231.25" y="467.72" width="5.68" height="3.42" transform="translate(703.52 235.35) rotate(90)" style="fill:#ebecf7;"/><rect x="236.85" y="470.65" width="11.52" height="3.42" transform="translate(714.97 229.74) rotate(90)" style="fill:#ebecf7;"/><rect x="248.3" y="467.72" width="5.68" height="3.42" transform="translate(720.57 218.3) rotate(90)" style="fill:#ebecf7;"/><rect x="253.9" y="470.65" width="11.52" height="3.42" transform="translate(732.02 212.7) rotate(90)" style="fill:#ebecf7;"/><rect x="265.35" y="467.72" width="5.68" height="3.42" transform="translate(737.62 201.25) rotate(90)" style="fill:#ebecf7;"/><rect x="217.41" y="469.45" width="11.52" height="3.42" transform="translate(694.34 247.99) rotate(90)" style="fill:none; stroke:#32406d; stroke-miterlimit:10;"/><rect x="228.86" y="466.53" width="5.68" height="3.42" transform="translate(699.94 236.54) rotate(90)" style="fill:none; stroke:#32406d; stroke-miterlimit:10;"/><rect x="234.46" y="469.45" width="11.52" height="3.42" transform="translate(711.39 230.94) rotate(90)" style="fill:none; stroke:#32406d; stroke-miterlimit:10;"/><rect x="245.91" y="466.53" width="5.68" height="3.42" transform="translate(716.99 219.49) rotate(90)" style="fill:none; stroke:#32406d; stroke-miterlimit:10;"/><rect x="251.51" y="469.45" width="11.52" height="3.42" transform="translate(728.44 213.89) rotate(90)" style="fill:none; stroke:#32406d; stroke-miterlimit:10;"/><rect x="262.96" y="466.53" width="5.68" height="3.42" transform="translate(734.04 202.44) rotate(90)" style="fill:none; stroke:#32406d; stroke-miterlimit:10;"/></g></g><g><path d="m376.21,289.01h0s6.77-6.67,6.77-6.67c4.73-4.65,4.79-12.26.13-16.99l-1.21-1.23c-4.65-4.73-12.26-4.79-16.99-.13l-6.77,6.67h0l-70.29,69.2,18.07,18.35,70.29-69.2Z" style="fill:#fff; fill-rule:evenodd;"/><g><polygon points="318.96 347.92 305.96 360.71 281.82 365.62 283.13 359.99 287.9 342.36 300.89 329.57 325.61 323.3 318.96 347.92" style="fill:#fff; fill-rule:evenodd;"/><path d="m366,260.67h1.73c6.63,0,12.01,5.38,12.01,12.01v32.02h-25.75v-32.02c0-6.63,5.38-12.01,12.01-12.01Z" transform="translate(310.92 -177.06) rotate(45.45)" style="fill:#fff;"/><rect x="282.76" y="304.06" width="98.63" height="25.75" transform="translate(-126.91 324.06) rotate(-44.55)" style="fill:#8786a3;"/></g><polyline points="318.91 345.42 305.48 358.64 281.2 364.49 283.09 357.49 287.53 340.18 300.85 327.07" style="fill:none; fill-rule:evenodd; stroke:#32406d; stroke-miterlimit:10;"/><path d="m376.21,289.01h0s6.77-6.67,6.77-6.67c4.73-4.65,4.79-12.26.13-16.99l-1.21-1.23c-4.65-4.73-12.26-4.79-16.99-.13l-6.77,6.67h0l-70.29,69.2,18.07,18.35,70.29-69.2Z" style="fill:none; fill-rule:evenodd; stroke:#32406d; stroke-miterlimit:10;"/><line x1="358.14" y1="270.67" x2="376.21" y2="289.01" style="fill:none; stroke:#32406d; stroke-miterlimit:10; stroke-width:3px;"/><g><polygon points="283.34 358.46 287.25 362.43 281.9 363.79 283.34 358.46" style="fill:#32406d;"/><path d="m283.6,359.43l2.69,2.73-3.68.93.99-3.66m-.51-1.94l-1.89,7,7.03-1.78-5.13-5.21h0Z" style="fill:#32406d;"/></g></g></svg>