<svg width="670" height="670" viewBox="0 0 670 670" fill="none" xmlns="http://www.w3.org/2000/svg">
<path d="M101.5 100.5L570 570M101.5 570L570 100.5" stroke="#E7E6ED" stroke-width="3"/>
<path d="M300.09 96.1647H292.746L293.664 90.9807H300.171L300.495 89.1447H293.988L294.906 83.9337H302.25L302.574 82.0977H293.07L290.289 98.0007H299.793L300.09 96.1647Z" fill="#363C65"/>
<path d="M308.905 95.9757C308.041 96.4617 307.528 96.5967 306.772 96.5967C306.043 96.5967 305.476 96.0837 305.719 94.7607L307.069 87.1737H310.309L310.606 85.5267H307.339L307.852 82.6107L305.773 82.9077L305.314 85.5267H303.559L303.262 87.1737H304.99L303.694 94.5447C303.208 97.1907 304.342 98.3247 306.448 98.3247C307.177 98.3247 308.149 98.1357 308.905 97.7037V95.9757Z" fill="#363C65"/>
<path d="M319.806 92.7897C319.401 95.1657 318.051 96.6237 316.161 96.6237C314.325 96.6237 313.407 95.0847 313.407 92.9787C313.407 89.4147 315.243 86.8497 317.727 86.8497C319.725 86.8497 320.508 88.7937 320.184 90.6837L319.806 92.7897ZM323.154 85.5267H321.453L320.778 87.6327C320.454 85.9857 319.266 85.2297 317.538 85.2297C313.866 85.2297 311.409 88.9557 311.409 93.2217C311.409 96.5157 313.191 98.3247 315.594 98.3247C317.16 98.3247 318.645 97.6227 319.401 95.9217C319.293 97.3527 319.995 98.1357 321.345 98.1357C321.804 98.1357 322.263 98.0547 322.641 97.9197L322.911 96.4347C322.587 96.5157 322.344 96.5427 322.128 96.5427C321.345 96.5427 321.318 95.9487 321.426 95.3277L323.154 85.5267Z" fill="#363C65"/>
<path d="M328.889 90.7917C329.294 88.4697 330.941 86.9037 332.804 86.9037C334.505 86.9037 335.423 88.2537 335.423 90.3597C335.423 93.7887 333.857 96.6237 331.211 96.6237C329.105 96.6237 328.133 94.7337 328.457 93.2217L328.889 90.7917ZM327.998 95.9487C328.268 97.2717 329.51 98.3247 331.373 98.3247C335.18 98.3247 337.556 94.8147 337.556 90.3597C337.556 87.0657 336.098 85.2297 333.479 85.2297C331.67 85.2297 330.239 86.1207 329.375 87.9297L329.591 85.5267H327.809L324.65 103.482H326.675L327.998 95.9487Z" fill="#363C65"/>
<path d="M343.022 90.7917C343.427 88.4697 345.074 86.9037 346.937 86.9037C348.638 86.9037 349.556 88.2537 349.556 90.3597C349.556 93.7887 347.99 96.6237 345.344 96.6237C343.238 96.6237 342.266 94.7337 342.59 93.2217L343.022 90.7917ZM342.131 95.9487C342.401 97.2717 343.643 98.3247 345.506 98.3247C349.313 98.3247 351.689 94.8147 351.689 90.3597C351.689 87.0657 350.231 85.2297 347.612 85.2297C345.803 85.2297 344.372 86.1207 343.508 87.9297L343.724 85.5267H341.942L338.783 103.482H340.808L342.131 95.9487Z" fill="#363C65"/>
<path d="M358.801 96.7317C356.425 96.7317 355.588 94.4097 355.777 92.2227H363.823C364.201 91.4127 364.363 90.5487 364.363 89.6847C364.363 87.3897 363.121 85.2297 359.935 85.2297C356.938 85.2297 353.86 87.9567 353.86 93.0327C353.86 96.2187 355.615 98.3247 358.612 98.3247C361.042 98.3247 362.824 97.5957 363.742 95.0577L361.879 94.5987C361.42 95.9487 360.664 96.7317 358.801 96.7317ZM356.02 90.5757C356.506 88.6047 357.748 86.8497 359.827 86.8497C361.582 86.8497 362.392 88.1457 362.392 89.6307C362.392 89.9547 362.365 90.2787 362.257 90.5757H356.02Z" fill="#363C65"/>
<path d="M376.583 98.0007L378.905 84.7977L372.776 86.0397L372.452 87.7677L376.394 87.0387L374.477 98.0007H376.583Z" fill="#363C65"/>
<path d="M269.125 117.098V133.001H272.797V117.098H269.125Z" fill="#363C65"/>
<path d="M275.363 130.112C275.849 132.461 277.631 133.325 280.709 133.325C283.76 133.325 286.055 132.245 286.055 129.464C286.055 127.331 284.867 125.981 282.329 125.441L280.574 125.063C279.737 124.901 279.359 124.55 279.359 123.929C279.359 123.281 279.926 122.903 280.763 122.903C281.789 122.903 282.356 123.227 282.491 124.226L285.866 123.74C285.677 121.31 283.895 120.23 280.925 120.23C278.36 120.23 275.849 121.121 275.849 124.28C275.849 126.17 276.848 127.412 279.035 127.979L280.871 128.411C281.978 128.681 282.464 129.005 282.464 129.707C282.464 130.436 281.762 130.787 280.763 130.787C279.575 130.787 278.603 130.274 278.333 128.924L275.363 130.112Z" fill="#363C65"/>
<path d="M296.296 129.464C295.567 129.977 294.892 130.247 294.109 130.247C293.11 130.247 292.597 129.815 292.597 128.492V123.308H296.323V120.527H292.624V117.449L289.006 117.881V120.527H287.17V123.308H288.979V129.302C288.979 132.164 290.599 133.325 293.083 133.325C294.568 133.325 295.864 133.055 296.917 132.515L296.296 129.464Z" fill="#363C65"/>
<path d="M298.146 127.547H304.842V124.496H298.146V127.547Z" fill="#363C65"/>
<path d="M318.341 119.663V117.098H306.434V120.284H311.591C312.995 120.284 313.751 120.149 313.751 120.149V120.257C313.751 120.257 313.022 120.905 312.05 122.228L306.245 130.355V133.001H318.584V129.815H312.806C311.429 129.815 310.646 129.95 310.646 129.95V129.842C310.646 129.842 311.375 129.194 312.347 127.871L318.341 119.663Z" fill="#363C65"/>
<path d="M328.704 133.001H331.836V120.527H328.218V127.223C328.218 129.626 327.219 130.598 325.977 130.598C324.735 130.598 324.276 129.761 324.276 128.276V120.527H320.658V129.302C320.658 132.191 322.197 133.325 324.411 133.325C326.706 133.325 327.84 132.38 328.272 130.679L328.704 133.001Z" fill="#363C65"/>
<path d="M334.03 130.112C334.516 132.461 336.298 133.325 339.376 133.325C342.427 133.325 344.722 132.245 344.722 129.464C344.722 127.331 343.534 125.981 340.996 125.441L339.241 125.063C338.404 124.901 338.026 124.55 338.026 123.929C338.026 123.281 338.593 122.903 339.43 122.903C340.456 122.903 341.023 123.227 341.158 124.226L344.533 123.74C344.344 121.31 342.562 120.23 339.592 120.23C337.027 120.23 334.516 121.121 334.516 124.28C334.516 126.17 335.515 127.412 337.702 127.979L339.538 128.411C340.645 128.681 341.131 129.005 341.131 129.707C341.131 130.436 340.429 130.787 339.43 130.787C338.242 130.787 337.27 130.274 337 128.924L334.03 130.112Z" fill="#363C65"/>
<path d="M354.963 129.464C354.234 129.977 353.559 130.247 352.776 130.247C351.777 130.247 351.264 129.815 351.264 128.492V123.308H354.99V120.527H351.291V117.449L347.673 117.881V120.527H345.837V123.308H347.646V129.302C347.646 132.164 349.266 133.325 351.75 133.325C353.235 133.325 354.531 133.055 355.584 132.515L354.963 129.464Z" fill="#363C65"/>
<path d="M363.786 129.086C363.786 130.301 362.679 130.76 361.734 130.76C360.87 130.76 360.357 130.247 360.357 129.518C360.357 128.411 361.248 127.736 363.786 127.817V129.086ZM367.35 124.361C367.35 121.58 365.568 120.23 362.463 120.23C359.601 120.23 357.36 121.472 357.171 124.118L360.762 124.793C360.816 123.632 361.329 122.957 362.328 122.957C363.327 122.957 363.786 123.605 363.786 124.685V125.873C358.98 125.603 356.739 127.115 356.739 129.896C356.739 132.029 358.197 133.325 360.411 133.325C362.112 133.325 363.462 132.812 364.029 131.273C364.434 132.623 365.406 133.244 366.999 133.244C367.863 133.244 368.538 133.109 369.051 132.785V130.166C368.808 130.274 368.565 130.355 368.268 130.355C367.701 130.355 367.35 130.058 367.35 129.221V124.361Z" fill="#363C65"/>
<path d="M374.288 120.527H371.21V133.001H374.828V126.143C374.828 123.902 375.935 123.254 377.096 123.254C378.392 123.254 378.77 124.145 378.77 125.522V133.001H382.388V124.172C382.388 121.364 380.633 120.23 378.716 120.23C376.799 120.23 375.395 121.067 374.72 122.93L374.288 120.527Z" fill="#363C65"/>
<path d="M393.705 127.817C393.705 129.626 392.463 130.544 391.221 130.544C389.52 130.544 388.467 129.221 388.467 126.872C388.467 123.929 389.844 122.903 391.275 122.903C392.517 122.903 393.705 123.659 393.705 125.495V127.817ZM393.678 122.174C393.354 120.986 392.004 120.23 390.411 120.23C386.847 120.23 384.849 122.768 384.849 127.034C384.849 131.138 387.063 133.325 389.817 133.325C391.68 133.325 393.246 132.731 393.705 130.841L394.164 133.001H397.296V114.965H393.678V122.174Z" fill="#363C65"/>
<path d="M277.414 160.062C277.414 158.172 278.71 157.119 280.033 157.119C281.626 157.119 282.625 158.199 282.625 160.791C282.625 163.437 281.329 164.733 279.79 164.733C278.737 164.733 277.414 164.031 277.414 161.898V160.062ZM277.252 165.192C277.63 166.38 278.818 167.325 280.951 167.325C284.326 167.325 286.27 164.571 286.27 160.467C286.27 156.498 284.515 154.23 281.464 154.23C279.682 154.23 278.116 154.959 277.441 156.849V148.965H273.823V167.001H276.361L277.252 165.192Z" fill="#363C65"/>
<path d="M294.144 164.544C292.497 164.544 291.606 163.302 291.525 161.385H299.22C299.328 160.872 299.382 160.305 299.382 159.765C299.382 156.552 297.654 154.23 294.117 154.23C290.364 154.23 288.042 156.66 288.042 160.953C288.042 164.976 290.499 167.325 294.063 167.325C296.52 167.325 298.761 166.434 299.409 163.896L296.331 162.843C295.926 164.166 295.116 164.544 294.144 164.544ZM291.633 159.387C291.768 157.929 292.632 156.903 293.982 156.903C295.278 156.903 295.953 157.794 295.953 158.955C295.953 159.117 295.953 159.225 295.926 159.387H291.633Z" fill="#363C65"/>
<path d="M309.731 163.464C309.002 163.977 308.327 164.247 307.544 164.247C306.545 164.247 306.032 163.815 306.032 162.492V157.308H309.758V154.527H306.059V151.449L302.441 151.881V154.527H300.605V157.308H302.414V163.302C302.414 166.164 304.034 167.325 306.518 167.325C308.003 167.325 309.299 167.055 310.352 166.515L309.731 163.464Z" fill="#363C65"/>
<path d="M321.064 154.257C317.77 154.068 316.555 155.796 316.015 157.956L315.583 154.527H312.451V167.001H316.069V161.304C316.069 158.739 317.824 158.037 319.255 158.037C319.822 158.037 320.2 158.091 320.659 158.253L321.064 154.257Z" fill="#363C65"/>
<path d="M329.099 163.086C329.099 164.301 327.992 164.76 327.047 164.76C326.183 164.76 325.67 164.247 325.67 163.518C325.67 162.411 326.561 161.736 329.099 161.817V163.086ZM332.663 158.361C332.663 155.58 330.881 154.23 327.776 154.23C324.914 154.23 322.673 155.472 322.484 158.118L326.075 158.793C326.129 157.632 326.642 156.957 327.641 156.957C328.64 156.957 329.099 157.605 329.099 158.685V159.873C324.293 159.603 322.052 161.115 322.052 163.896C322.052 166.029 323.51 167.325 325.724 167.325C327.425 167.325 328.775 166.812 329.342 165.273C329.747 166.623 330.719 167.244 332.312 167.244C333.176 167.244 333.851 167.109 334.364 166.785V164.166C334.121 164.274 333.878 164.355 333.581 164.355C333.014 164.355 332.663 164.058 332.663 163.221V158.361Z" fill="#363C65"/>
<path d="M343.814 162.627C343.49 164.058 342.761 164.544 341.789 164.544C340.169 164.544 339.224 163.14 339.224 160.764C339.224 158.496 340.115 157.065 341.735 157.065C342.95 157.065 343.571 157.848 343.76 159.171L346.811 158.334C346.622 155.823 344.732 154.23 341.762 154.23C338.117 154.23 335.714 156.66 335.714 160.818C335.714 164.976 338.117 167.325 341.735 167.325C344.381 167.325 346.541 166.164 347 163.653L343.814 162.627Z" fill="#363C65"/>
<path d="M352.824 148.965H349.206V167.001H352.824V160.116C352.824 157.902 353.931 157.254 355.092 157.254C356.388 157.254 356.766 158.145 356.766 159.522V167.001H360.384V158.172C360.384 155.364 358.629 154.23 356.712 154.23C354.795 154.23 353.472 155.067 352.824 156.903V148.965Z" fill="#363C65"/>
<path d="M371.351 163.464C370.622 163.977 369.947 164.247 369.164 164.247C368.165 164.247 367.652 163.815 367.652 162.492V157.308H371.378V154.527H367.679V151.449L364.061 151.881V154.527H362.225V157.308H364.034V163.302C364.034 166.164 365.654 167.325 368.138 167.325C369.623 167.325 370.919 167.055 371.972 166.515L371.351 163.464Z" fill="#363C65"/>
<path d="M379.231 164.544C377.584 164.544 376.693 163.302 376.612 161.385H384.307C384.415 160.872 384.469 160.305 384.469 159.765C384.469 156.552 382.741 154.23 379.204 154.23C375.451 154.23 373.129 156.66 373.129 160.953C373.129 164.976 375.586 167.325 379.15 167.325C381.607 167.325 383.848 166.434 384.496 163.896L381.418 162.843C381.013 164.166 380.203 164.544 379.231 164.544ZM376.72 159.387C376.855 157.929 377.719 156.903 379.069 156.903C380.365 156.903 381.04 157.794 381.04 158.955C381.04 159.117 381.04 159.225 381.013 159.387H376.72Z" fill="#363C65"/>
<path d="M390.2 154.527H387.122V167.001H390.74V160.143C390.74 157.902 391.847 157.254 393.008 157.254C394.304 157.254 394.682 158.145 394.682 159.522V167.001H398.3V158.172C398.3 155.364 396.545 154.23 394.628 154.23C392.711 154.23 391.307 155.067 390.632 156.93L390.2 154.527Z" fill="#363C65"/>
<path d="M77.2073 306.165H69.8633L70.7813 300.981H77.2883L77.6123 299.145H71.1052L72.0233 293.934H79.3673L79.6913 292.098H70.1873L67.4062 308.001H76.9103L77.2073 306.165Z" fill="#363C65"/>
<path d="M86.0219 305.976C85.1579 306.462 84.6449 306.597 83.8889 306.597C83.1599 306.597 82.5929 306.084 82.8359 304.761L84.1859 297.174H87.4259L87.7229 295.527H84.4559L84.9689 292.611L82.8899 292.908L82.4309 295.527H80.6759L80.3789 297.174H82.1069L80.8109 304.545C80.3249 307.191 81.4589 308.325 83.5649 308.325C84.2939 308.325 85.2659 308.136 86.0219 307.704V305.976Z" fill="#363C65"/>
<path d="M96.9234 302.79C96.5184 305.166 95.1684 306.624 93.2784 306.624C91.4424 306.624 90.5244 305.085 90.5244 302.979C90.5244 299.415 92.3604 296.85 94.8444 296.85C96.8424 296.85 97.6254 298.794 97.3014 300.684L96.9234 302.79ZM100.271 295.527H98.5704L97.8954 297.633C97.5714 295.986 96.3834 295.23 94.6554 295.23C90.9834 295.23 88.5264 298.956 88.5264 303.222C88.5264 306.516 90.3084 308.325 92.7114 308.325C94.2774 308.325 95.7624 307.623 96.5184 305.922C96.4104 307.353 97.1124 308.136 98.4624 308.136C98.9214 308.136 99.3804 308.055 99.7584 307.92L100.028 306.435C99.7044 306.516 99.4614 306.543 99.2454 306.543C98.4624 306.543 98.4354 305.949 98.5434 305.328L100.271 295.527Z" fill="#363C65"/>
<path d="M106.006 300.792C106.411 298.47 108.058 296.904 109.921 296.904C111.622 296.904 112.54 298.254 112.54 300.36C112.54 303.789 110.974 306.624 108.328 306.624C106.222 306.624 105.25 304.734 105.574 303.222L106.006 300.792ZM105.115 305.949C105.385 307.272 106.627 308.325 108.49 308.325C112.297 308.325 114.673 304.815 114.673 300.36C114.673 297.066 113.215 295.23 110.596 295.23C108.787 295.23 107.356 296.121 106.492 297.93L106.708 295.527H104.926L101.767 313.482H103.792L105.115 305.949Z" fill="#363C65"/>
<path d="M120.139 300.792C120.544 298.47 122.191 296.904 124.054 296.904C125.755 296.904 126.673 298.254 126.673 300.36C126.673 303.789 125.107 306.624 122.461 306.624C120.355 306.624 119.383 304.734 119.707 303.222L120.139 300.792ZM119.248 305.949C119.518 307.272 120.76 308.325 122.623 308.325C126.43 308.325 128.806 304.815 128.806 300.36C128.806 297.066 127.348 295.23 124.729 295.23C122.92 295.23 121.489 296.121 120.625 297.93L120.841 295.527H119.059L115.9 313.482H117.925L119.248 305.949Z" fill="#363C65"/>
<path d="M135.919 306.732C133.543 306.732 132.706 304.41 132.895 302.223H140.941C141.319 301.413 141.481 300.549 141.481 299.685C141.481 297.39 140.239 295.23 137.053 295.23C134.056 295.23 130.978 297.957 130.978 303.033C130.978 306.219 132.733 308.325 135.73 308.325C138.16 308.325 139.942 307.596 140.86 305.058L138.997 304.599C138.538 305.949 137.782 306.732 135.919 306.732ZM133.138 300.576C133.624 298.605 134.866 296.85 136.945 296.85C138.7 296.85 139.51 298.146 139.51 299.631C139.51 299.955 139.483 300.279 139.375 300.576H133.138Z" fill="#363C65"/>
<path d="M155.402 311.538H157.508L158.399 306.543H161.018L161.315 304.896H158.669L160.397 295.014H158.237L148.868 305.193L148.625 306.543H156.293L155.402 311.538ZM153.458 304.896C151.73 304.896 151.271 304.977 151.271 304.977V304.869C151.271 304.869 151.946 304.356 153.026 303.114L155.591 300.225C157.157 298.443 157.886 297.444 157.886 297.444H157.994C157.994 297.444 157.643 298.632 157.292 300.684L156.563 304.896H153.458Z" fill="#363C65"/>
<path d="M46.4312 343H50.3732L44.5683 327.097H40.0322L34.2812 343H38.1153L39.2492 339.679H45.2703L46.4312 343ZM40.8963 334.819C41.7873 332.254 42.1922 330.31 42.1922 330.31H42.3003C42.3003 330.31 42.6242 332.227 43.5422 334.846L44.1903 336.628H40.2753L40.8963 334.819Z" fill="#363C65"/>
<path d="M60.9629 330.256C57.6689 330.067 56.4539 331.795 55.9139 333.955L55.4819 330.526H52.3499V343H55.9679V337.303C55.9679 334.738 57.7229 334.036 59.1539 334.036C59.7209 334.036 60.0989 334.09 60.5579 334.252L60.9629 330.256Z" fill="#363C65"/>
<path d="M66.5669 336.061C66.5669 334.171 67.8629 333.118 69.1859 333.118C70.7789 333.118 71.7779 334.198 71.7779 336.79C71.7779 339.436 70.4819 340.732 68.9429 340.732C67.8899 340.732 66.5669 340.03 66.5669 337.897V336.061ZM66.4049 341.191C66.7829 342.379 67.9709 343.324 70.1039 343.324C73.4789 343.324 75.4229 340.57 75.4229 336.466C75.4229 332.497 73.6679 330.229 70.6169 330.229C68.8349 330.229 67.2689 330.958 66.5939 332.848V324.964H62.9759V343H65.5139L66.4049 341.191Z" fill="#363C65"/>
<path d="M83.2972 340.543C81.6502 340.543 80.7592 339.301 80.6782 337.384H88.3732C88.4812 336.871 88.5352 336.304 88.5352 335.764C88.5352 332.551 86.8072 330.229 83.2702 330.229C79.5172 330.229 77.1952 332.659 77.1952 336.952C77.1952 340.975 79.6522 343.324 83.2162 343.324C85.6732 343.324 87.9142 342.433 88.5622 339.895L85.4842 338.842C85.0792 340.165 84.2692 340.543 83.2972 340.543ZM80.7862 335.386C80.9212 333.928 81.7852 332.902 83.1352 332.902C84.4312 332.902 85.1062 333.793 85.1062 334.954C85.1062 335.116 85.1062 335.224 85.0792 335.386H80.7862Z" fill="#363C65"/>
<path d="M90.8108 326.719C90.8108 328.042 91.7828 328.771 92.9978 328.771C94.2668 328.771 95.2388 328.042 95.2388 326.719C95.2388 325.342 94.2668 324.613 92.9978 324.613C91.7828 324.613 90.8108 325.342 90.8108 326.719ZM91.1888 330.526V343H94.8068V330.526H91.1888Z" fill="#363C65"/>
<path d="M105.897 339.463C105.168 339.976 104.493 340.246 103.71 340.246C102.711 340.246 102.198 339.814 102.198 338.491V333.307H105.924V330.526H102.225V327.448L98.6075 327.88V330.526H96.7715V333.307H98.5805V339.301C98.5805 342.163 100.2 343.324 102.684 343.324C104.169 343.324 105.465 343.054 106.518 342.514L105.897 339.463Z" fill="#363C65"/>
<path d="M107.403 340.111C107.889 342.46 109.671 343.324 112.749 343.324C115.8 343.324 118.095 342.244 118.095 339.463C118.095 337.33 116.907 335.98 114.369 335.44L112.614 335.062C111.777 334.9 111.399 334.549 111.399 333.928C111.399 333.28 111.966 332.902 112.803 332.902C113.829 332.902 114.396 333.226 114.531 334.225L117.906 333.739C117.717 331.309 115.935 330.229 112.965 330.229C110.4 330.229 107.889 331.12 107.889 334.279C107.889 336.169 108.888 337.411 111.075 337.978L112.911 338.41C114.018 338.68 114.504 339.004 114.504 339.706C114.504 340.435 113.802 340.786 112.803 340.786C111.615 340.786 110.643 340.273 110.373 338.923L107.403 340.111Z" fill="#363C65"/>
<path d="M125.42 330.229C122.099 330.229 119.885 331.741 119.885 334.63C119.885 336.628 120.776 337.708 122.477 338.383C121.019 338.788 120.371 339.868 120.371 340.84C120.371 341.947 121.154 342.973 122.396 343.054C120.155 343.216 119.102 344.107 119.102 345.565C119.102 347.968 121.856 348.697 124.934 348.697C128.498 348.697 132.17 347.779 132.17 344.215C132.17 342.055 130.577 340.543 127.769 340.543H124.205C123.557 340.543 123.206 340.219 123.206 339.787C123.206 339.382 123.368 339.031 123.8 338.761C124.097 338.869 124.718 338.923 125.312 338.923C128.498 338.923 131.036 337.519 131.036 334.63C131.036 333.766 130.847 333.01 130.469 332.416C131.495 332.119 132.602 331.282 132.737 330.067L129.902 329.122C129.632 330.121 129.497 330.472 128.957 331.012C128.039 330.499 126.824 330.229 125.42 330.229ZM122.423 344.863C122.423 344.134 123.152 343.783 124.178 343.783H127.256C128.336 343.783 128.795 344.08 128.795 344.836C128.795 345.835 127.85 346.294 125.339 346.294C123.422 346.294 122.423 345.835 122.423 344.863ZM123.53 334.63C123.53 333.388 124.151 332.713 125.42 332.686C126.662 332.686 127.337 333.307 127.337 334.63C127.337 335.872 126.662 336.547 125.42 336.547C124.151 336.547 123.53 335.737 123.53 334.63Z" fill="#363C65"/>
<path d="M142.807 330.256C139.513 330.067 138.298 331.795 137.758 333.955L137.326 330.526H134.194V343H137.812V337.303C137.812 334.738 139.567 334.036 140.998 334.036C141.565 334.036 141.943 334.09 142.402 334.252L142.807 330.256Z" fill="#363C65"/>
<path d="M152.623 343H155.755V330.526H152.137V337.222C152.137 339.625 151.138 340.597 149.896 340.597C148.654 340.597 148.195 339.76 148.195 338.275V330.526H144.577V339.301C144.577 342.19 146.116 343.324 148.33 343.324C150.625 343.324 151.759 342.379 152.191 340.678L152.623 343Z" fill="#363C65"/>
<path d="M162.241 330.526H159.163V343H162.781V336.142C162.781 333.901 163.888 333.253 165.049 333.253C166.345 333.253 166.723 334.144 166.723 335.521V343H170.341V334.171C170.341 331.363 168.586 330.229 166.669 330.229C164.752 330.229 163.348 331.066 162.673 332.929L162.241 330.526Z" fill="#363C65"/>
<path d="M181.659 337.816C181.659 339.625 180.417 340.543 179.175 340.543C177.474 340.543 176.421 339.22 176.421 336.871C176.421 333.928 177.798 332.902 179.229 332.902C180.471 332.902 181.659 333.658 181.659 335.494V337.816ZM181.632 332.173C181.308 330.985 179.958 330.229 178.365 330.229C174.801 330.229 172.803 332.767 172.803 337.033C172.803 341.137 175.017 343.324 177.771 343.324C179.634 343.324 181.2 342.73 181.659 340.84L182.118 343H185.25V324.964H181.632V332.173Z" fill="#363C65"/>
<path d="M188.615 337.546H195.311V334.495H188.615V337.546Z" fill="#363C65"/>
<path d="M40.5209 373.895C40.1969 374.03 39.8729 374.084 39.5489 374.084C38.9009 374.084 38.4149 373.787 38.4149 373.004V358.964H34.7969V374.057C34.7969 376.406 36.4439 377.243 38.2529 377.243C38.9549 377.243 39.6299 377.108 40.3319 376.919L40.5209 373.895Z" fill="#363C65"/>
<path d="M48.9466 373.085C48.9466 374.3 47.8396 374.759 46.8946 374.759C46.0306 374.759 45.5176 374.246 45.5176 373.517C45.5176 372.41 46.4086 371.735 48.9466 371.816V373.085ZM52.5106 368.36C52.5106 365.579 50.7286 364.229 47.6236 364.229C44.7616 364.229 42.5206 365.471 42.3316 368.117L45.9226 368.792C45.9766 367.631 46.4896 366.956 47.4886 366.956C48.4876 366.956 48.9466 367.604 48.9466 368.684V369.872C44.1406 369.602 41.8996 371.114 41.8996 373.895C41.8996 376.028 43.3576 377.324 45.5716 377.324C47.2726 377.324 48.6226 376.811 49.1896 375.272C49.5946 376.622 50.5666 377.243 52.1596 377.243C53.0236 377.243 53.6986 377.108 54.2116 376.784V374.165C53.9686 374.273 53.7256 374.354 53.4286 374.354C52.8616 374.354 52.5106 374.057 52.5106 373.22V368.36Z" fill="#363C65"/>
<path d="M61.1499 364.229C57.8289 364.229 55.6149 365.741 55.6149 368.63C55.6149 370.628 56.5059 371.708 58.2069 372.383C56.7489 372.788 56.1009 373.868 56.1009 374.84C56.1009 375.947 56.8839 376.973 58.1259 377.054C55.8849 377.216 54.8319 378.107 54.8319 379.565C54.8319 381.968 57.5859 382.697 60.6639 382.697C64.2279 382.697 67.8999 381.779 67.8999 378.215C67.8999 376.055 66.3069 374.543 63.4989 374.543H59.9349C59.2869 374.543 58.9359 374.219 58.9359 373.787C58.9359 373.382 59.0979 373.031 59.5299 372.761C59.8269 372.869 60.4479 372.923 61.0419 372.923C64.2279 372.923 66.7659 371.519 66.7659 368.63C66.7659 367.766 66.5769 367.01 66.1989 366.416C67.2249 366.119 68.3319 365.282 68.4669 364.067L65.6319 363.122C65.3619 364.121 65.2269 364.472 64.6869 365.012C63.7689 364.499 62.5539 364.229 61.1499 364.229ZM58.1529 378.863C58.1529 378.134 58.8819 377.783 59.9079 377.783H62.9859C64.0659 377.783 64.5249 378.08 64.5249 378.836C64.5249 379.835 63.5799 380.294 61.0689 380.294C59.1519 380.294 58.1529 379.835 58.1529 378.863ZM59.2599 368.63C59.2599 367.388 59.8809 366.713 61.1499 366.686C62.3919 366.686 63.0669 367.307 63.0669 368.63C63.0669 369.872 62.3919 370.547 61.1499 370.547C59.8809 370.547 59.2599 369.737 59.2599 368.63Z" fill="#363C65"/>
<path d="M74.6883 374.543C73.0413 374.543 72.1503 373.301 72.0693 371.384H79.7643C79.8723 370.871 79.9263 370.304 79.9263 369.764C79.9263 366.551 78.1983 364.229 74.6613 364.229C70.9083 364.229 68.5863 366.659 68.5863 370.952C68.5863 374.975 71.0433 377.324 74.6073 377.324C77.0643 377.324 79.3053 376.433 79.9533 373.895L76.8753 372.842C76.4703 374.165 75.6603 374.543 74.6883 374.543ZM72.1773 369.386C72.3123 367.928 73.1763 366.902 74.5263 366.902C75.8223 366.902 76.4973 367.793 76.4973 368.954C76.4973 369.116 76.4973 369.224 76.4703 369.386H72.1773Z" fill="#363C65"/>
<path d="M85.6579 364.526H82.5799V377H86.1979V370.142C86.1979 367.901 87.3049 367.253 88.4659 367.253C89.7619 367.253 90.1399 368.144 90.1399 369.521V377H93.7579V368.171C93.7579 365.363 92.0029 364.229 90.0859 364.229C88.1689 364.229 86.7649 365.066 86.0899 366.929L85.6579 364.526Z" fill="#363C65"/>
<path d="M101.773 374.111C102.259 376.46 104.041 377.324 107.119 377.324C110.17 377.324 112.465 376.244 112.465 373.463C112.465 371.33 111.277 369.98 108.739 369.44L106.984 369.062C106.147 368.9 105.769 368.549 105.769 367.928C105.769 367.28 106.336 366.902 107.173 366.902C108.199 366.902 108.766 367.226 108.901 368.225L112.276 367.739C112.087 365.309 110.305 364.229 107.335 364.229C104.77 364.229 102.259 365.12 102.259 368.279C102.259 370.169 103.258 371.411 105.445 371.978L107.281 372.41C108.388 372.68 108.874 373.004 108.874 373.706C108.874 374.435 108.172 374.786 107.173 374.786C105.985 374.786 105.013 374.273 104.743 372.923L101.773 374.111Z" fill="#363C65"/>
<path d="M122.302 372.626C121.978 374.057 121.249 374.543 120.277 374.543C118.657 374.543 117.712 373.139 117.712 370.763C117.712 368.495 118.603 367.064 120.223 367.064C121.438 367.064 122.059 367.847 122.248 369.17L125.299 368.333C125.11 365.822 123.22 364.229 120.25 364.229C116.605 364.229 114.202 366.659 114.202 370.817C114.202 374.975 116.605 377.324 120.223 377.324C122.869 377.324 125.029 376.163 125.488 373.652L122.302 372.626Z" fill="#363C65"/>
<path d="M131.312 358.964H127.694V377H131.312V370.115C131.312 367.901 132.419 367.253 133.58 367.253C134.876 367.253 135.254 368.144 135.254 369.521V377H138.872V368.171C138.872 365.363 137.117 364.229 135.2 364.229C133.283 364.229 131.96 365.066 131.312 366.902V358.964Z" fill="#363C65"/>
<path d="M148.245 373.085C148.245 374.3 147.138 374.759 146.193 374.759C145.329 374.759 144.816 374.246 144.816 373.517C144.816 372.41 145.707 371.735 148.245 371.816V373.085ZM151.809 368.36C151.809 365.579 150.027 364.229 146.922 364.229C144.06 364.229 141.819 365.471 141.63 368.117L145.221 368.792C145.275 367.631 145.788 366.956 146.787 366.956C147.786 366.956 148.245 367.604 148.245 368.684V369.872C143.439 369.602 141.198 371.114 141.198 373.895C141.198 376.028 142.656 377.324 144.87 377.324C146.571 377.324 147.921 376.811 148.488 375.272C148.893 376.622 149.865 377.243 151.458 377.243C152.322 377.243 152.997 377.108 153.51 376.784V374.165C153.267 374.273 153.024 374.354 152.727 374.354C152.16 374.354 151.809 374.057 151.809 373.22V368.36Z" fill="#363C65"/>
<path d="M163.527 367.307V377H167.145V367.307H170.331V364.526H167.145V363.824C167.145 362.312 167.955 361.88 169.008 361.88C169.791 361.88 170.412 362.15 171.033 362.582L171.6 359.234C170.628 358.937 169.575 358.748 168.522 358.748C165.957 358.775 163.527 360.017 163.527 363.608V364.526H159.693V363.743C159.693 362.528 160.233 362.042 161.205 362.042C161.718 362.042 162.15 362.177 162.663 362.528L163.203 359.504C162.339 359.126 161.88 359.018 160.665 359.018C158.478 359.018 156.102 360.152 156.102 363.662V364.526H154.266V367.307H156.102V377H159.693V367.307H163.527Z" fill="#363C65"/>
<path d="M177.019 374.543C175.372 374.543 174.481 373.301 174.4 371.384H182.095C182.203 370.871 182.257 370.304 182.257 369.764C182.257 366.551 180.529 364.229 176.992 364.229C173.239 364.229 170.917 366.659 170.917 370.952C170.917 374.975 173.374 377.324 176.938 377.324C179.395 377.324 181.636 376.433 182.284 373.895L179.206 372.842C178.801 374.165 177.991 374.543 177.019 374.543ZM174.508 369.386C174.643 367.928 175.507 366.902 176.857 366.902C178.153 366.902 178.828 367.793 178.828 368.954C178.828 369.116 178.828 369.224 178.801 369.386H174.508Z" fill="#363C65"/>
<path d="M187.989 364.526H184.911V377H188.529V370.142C188.529 367.901 189.636 367.253 190.797 367.253C192.093 367.253 192.471 368.144 192.471 369.521V377H196.089V368.171C196.089 365.363 194.334 364.229 192.417 364.229C190.5 364.229 189.096 365.066 188.421 366.929L187.989 364.526Z" fill="#363C65"/>
<path d="M298.895 517.165H291.551L292.469 511.981H298.976L299.3 510.145H292.793L293.711 504.934H301.055L301.379 503.098H291.875L289.094 519.001H298.598L298.895 517.165Z" fill="#363C65"/>
<path d="M307.709 516.976C306.845 517.462 306.332 517.597 305.576 517.597C304.847 517.597 304.28 517.084 304.523 515.761L305.873 508.174H309.113L309.41 506.527H306.143L306.656 503.611L304.577 503.908L304.118 506.527H302.363L302.066 508.174H303.794L302.498 515.545C302.012 518.191 303.146 519.325 305.252 519.325C305.981 519.325 306.953 519.136 307.709 518.704V516.976Z" fill="#363C65"/>
<path d="M318.611 513.79C318.206 516.166 316.856 517.624 314.966 517.624C313.13 517.624 312.212 516.085 312.212 513.979C312.212 510.415 314.048 507.85 316.532 507.85C318.53 507.85 319.313 509.794 318.989 511.684L318.611 513.79ZM321.959 506.527H320.258L319.583 508.633C319.259 506.986 318.071 506.23 316.343 506.23C312.671 506.23 310.214 509.956 310.214 514.222C310.214 517.516 311.996 519.325 314.399 519.325C315.965 519.325 317.45 518.623 318.206 516.922C318.098 518.353 318.8 519.136 320.15 519.136C320.609 519.136 321.068 519.055 321.446 518.92L321.716 517.435C321.392 517.516 321.149 517.543 320.933 517.543C320.15 517.543 320.123 516.949 320.231 516.328L321.959 506.527Z" fill="#363C65"/>
<path d="M327.693 511.792C328.098 509.47 329.745 507.904 331.608 507.904C333.309 507.904 334.227 509.254 334.227 511.36C334.227 514.789 332.661 517.624 330.015 517.624C327.909 517.624 326.937 515.734 327.261 514.222L327.693 511.792ZM326.802 516.949C327.072 518.272 328.314 519.325 330.177 519.325C333.984 519.325 336.36 515.815 336.36 511.36C336.36 508.066 334.902 506.23 332.283 506.23C330.474 506.23 329.043 507.121 328.179 508.93L328.395 506.527H326.613L323.454 524.482H325.479L326.802 516.949Z" fill="#363C65"/>
<path d="M341.826 511.792C342.231 509.47 343.878 507.904 345.741 507.904C347.442 507.904 348.36 509.254 348.36 511.36C348.36 514.789 346.794 517.624 344.148 517.624C342.042 517.624 341.07 515.734 341.394 514.222L341.826 511.792ZM340.935 516.949C341.205 518.272 342.447 519.325 344.31 519.325C348.117 519.325 350.493 515.815 350.493 511.36C350.493 508.066 349.035 506.23 346.416 506.23C344.607 506.23 343.176 507.121 342.312 508.93L342.528 506.527H340.746L337.587 524.482H339.612L340.935 516.949Z" fill="#363C65"/>
<path d="M357.606 517.732C355.23 517.732 354.393 515.41 354.582 513.223H362.628C363.006 512.413 363.168 511.549 363.168 510.685C363.168 508.39 361.926 506.23 358.74 506.23C355.743 506.23 352.665 508.957 352.665 514.033C352.665 517.219 354.42 519.325 357.417 519.325C359.847 519.325 361.629 518.596 362.547 516.058L360.684 515.599C360.225 516.949 359.469 517.732 357.606 517.732ZM354.825 511.576C355.311 509.605 356.553 507.85 358.632 507.85C360.387 507.85 361.197 509.146 361.197 510.631C361.197 510.955 361.17 511.279 361.062 511.576H354.825Z" fill="#363C65"/>
<path d="M375.469 513.925C378.682 513.898 380.896 512.305 380.896 509.308C380.896 506.824 379.006 505.69 376.549 505.69C373.579 505.69 372.094 507.256 371.662 509.47L373.579 509.902C373.876 508.336 374.74 507.364 376.387 507.364C377.818 507.364 378.79 508.093 378.79 509.497C378.79 511.603 377.278 512.737 373.579 513.115L373.336 514.762C376.738 515.113 377.521 516.436 377.521 518.083C377.521 520.081 376.117 521.134 374.308 521.134C372.445 521.134 371.338 520.27 371.338 518.542L369.367 518.947C369.367 521.134 370.933 522.727 374.065 522.727C376.981 522.727 379.627 521.269 379.627 517.921C379.627 515.68 378.304 514.249 375.469 514.006V513.925Z" fill="#363C65"/>
<path d="M291.28 545.792C293.008 545.36 294.142 544.118 294.142 542.093C294.142 539.582 292.414 538.097 289.201 538.097H282.667V554H289.174C293.062 554 294.79 552.272 294.79 549.653C294.79 547.655 293.575 546.197 291.28 545.9V545.792ZM286.339 544.739V541.202H288.364C289.714 541.202 290.497 541.661 290.497 542.984C290.497 544.253 289.687 544.739 288.445 544.739H286.339ZM286.339 547.412H288.931C290.362 547.412 291.091 548.006 291.091 549.113C291.091 550.463 290.308 550.895 288.931 550.895H286.339V547.412Z" fill="#363C65"/>
<path d="M302.9 551.543C301.253 551.543 300.362 550.301 300.281 548.384H307.976C308.084 547.871 308.138 547.304 308.138 546.764C308.138 543.551 306.41 541.229 302.873 541.229C299.12 541.229 296.798 543.659 296.798 547.952C296.798 551.975 299.255 554.324 302.819 554.324C305.276 554.324 307.517 553.433 308.165 550.895L305.087 549.842C304.682 551.165 303.872 551.543 302.9 551.543ZM300.389 546.386C300.524 544.928 301.388 543.902 302.738 543.902C304.034 543.902 304.709 544.793 304.709 545.954C304.709 546.116 304.709 546.224 304.682 546.386H300.389Z" fill="#363C65"/>
<path d="M318.487 550.463C317.758 550.976 317.083 551.246 316.3 551.246C315.301 551.246 314.788 550.814 314.788 549.491V544.307H318.514V541.526H314.815V538.448L311.197 538.88V541.526H309.361V544.307H311.17V550.301C311.17 553.163 312.79 554.324 315.274 554.324C316.759 554.324 318.055 554.054 319.108 553.514L318.487 550.463Z" fill="#363C65"/>
<path d="M326.367 551.543C324.72 551.543 323.829 550.301 323.748 548.384H331.443C331.551 547.871 331.605 547.304 331.605 546.764C331.605 543.551 329.877 541.229 326.34 541.229C322.587 541.229 320.265 543.659 320.265 547.952C320.265 551.975 322.722 554.324 326.286 554.324C328.743 554.324 330.984 553.433 331.632 550.895L328.554 549.842C328.149 551.165 327.339 551.543 326.367 551.543ZM323.856 546.386C323.991 544.928 324.855 543.902 326.205 543.902C327.501 543.902 328.176 544.793 328.176 545.954C328.176 546.116 328.176 546.224 328.149 546.386H323.856Z" fill="#363C65"/>
<path d="M333.88 537.719C333.88 539.042 334.852 539.771 336.067 539.771C337.336 539.771 338.308 539.042 338.308 537.719C338.308 536.342 337.336 535.613 336.067 535.613C334.852 535.613 333.88 536.342 333.88 537.719ZM334.258 541.526V554H337.876V541.526H334.258Z" fill="#363C65"/>
<path d="M346.753 550.895C346.429 551.03 346.105 551.084 345.781 551.084C345.133 551.084 344.647 550.787 344.647 550.004V535.964H341.029V551.057C341.029 553.406 342.676 554.243 344.485 554.243C345.187 554.243 345.862 554.108 346.564 553.919L346.753 550.895Z" fill="#363C65"/>
<path d="M348.699 537.719C348.699 539.042 349.671 539.771 350.886 539.771C352.155 539.771 353.127 539.042 353.127 537.719C353.127 536.342 352.155 535.613 350.886 535.613C349.671 535.613 348.699 536.342 348.699 537.719ZM349.077 541.526V554H352.695V541.526H349.077Z" fill="#363C65"/>
<path d="M360.869 541.229C357.548 541.229 355.334 542.741 355.334 545.63C355.334 547.628 356.225 548.708 357.926 549.383C356.468 549.788 355.82 550.868 355.82 551.84C355.82 552.947 356.603 553.973 357.845 554.054C355.604 554.216 354.551 555.107 354.551 556.565C354.551 558.968 357.305 559.697 360.383 559.697C363.947 559.697 367.619 558.779 367.619 555.215C367.619 553.055 366.026 551.543 363.218 551.543H359.654C359.006 551.543 358.655 551.219 358.655 550.787C358.655 550.382 358.817 550.031 359.249 549.761C359.546 549.869 360.167 549.923 360.761 549.923C363.947 549.923 366.485 548.519 366.485 545.63C366.485 544.766 366.296 544.01 365.918 543.416C366.944 543.119 368.051 542.282 368.186 541.067L365.351 540.122C365.081 541.121 364.946 541.472 364.406 542.012C363.488 541.499 362.273 541.229 360.869 541.229ZM357.872 555.863C357.872 555.134 358.601 554.783 359.627 554.783H362.705C363.785 554.783 364.244 555.08 364.244 555.836C364.244 556.835 363.299 557.294 360.788 557.294C358.871 557.294 357.872 556.835 357.872 555.863ZM358.979 545.63C358.979 544.388 359.6 543.713 360.869 543.686C362.111 543.686 362.786 544.307 362.786 545.63C362.786 546.872 362.111 547.547 360.869 547.547C359.6 547.547 358.979 546.737 358.979 545.63Z" fill="#363C65"/>
<path d="M377.338 550.463C376.609 550.976 375.934 551.246 375.151 551.246C374.152 551.246 373.639 550.814 373.639 549.491V544.307H377.365V541.526H373.666V538.448L370.048 538.88V541.526H368.212V544.307H370.021V550.301C370.021 553.163 371.641 554.324 374.125 554.324C375.61 554.324 376.906 554.054 377.959 553.514L377.338 550.463Z" fill="#363C65"/>
<path d="M385.218 551.543C383.571 551.543 382.68 550.301 382.599 548.384H390.294C390.402 547.871 390.456 547.304 390.456 546.764C390.456 543.551 388.728 541.229 385.191 541.229C381.438 541.229 379.116 543.659 379.116 547.952C379.116 551.975 381.573 554.324 385.137 554.324C387.594 554.324 389.835 553.433 390.483 550.895L387.405 549.842C387 551.165 386.19 551.543 385.218 551.543ZM382.707 546.386C382.842 544.928 383.706 543.902 385.056 543.902C386.352 543.902 387.027 544.793 387.027 545.954C387.027 546.116 387.027 546.224 387 546.386H382.707Z" fill="#363C65"/>
<path d="M261.516 571.719C261.516 573.042 262.488 573.771 263.703 573.771C264.972 573.771 265.944 573.042 265.944 571.719C265.944 570.342 264.972 569.613 263.703 569.613C262.488 569.613 261.516 570.342 261.516 571.719ZM261.894 575.526V588H265.512V575.526H261.894Z" fill="#363C65"/>
<path d="M276.953 582.816C276.953 584.625 275.711 585.543 274.469 585.543C272.768 585.543 271.715 584.22 271.715 581.871C271.715 578.928 273.092 577.902 274.523 577.902C275.765 577.902 276.953 578.658 276.953 580.494V582.816ZM276.926 577.173C276.602 575.985 275.252 575.229 273.659 575.229C270.095 575.229 268.097 577.767 268.097 582.033C268.097 586.137 270.311 588.324 273.065 588.324C274.928 588.324 276.494 587.73 276.953 585.84L277.412 588H280.544V569.964H276.926V577.173Z" fill="#363C65"/>
<path d="M289.229 585.543C287.582 585.543 286.691 584.301 286.61 582.384H294.305C294.413 581.871 294.467 581.304 294.467 580.764C294.467 577.551 292.739 575.229 289.202 575.229C285.449 575.229 283.127 577.659 283.127 581.952C283.127 585.975 285.584 588.324 289.148 588.324C291.605 588.324 293.846 587.433 294.494 584.895L291.416 583.842C291.011 585.165 290.201 585.543 289.229 585.543ZM286.718 580.386C286.853 578.928 287.717 577.902 289.067 577.902C290.363 577.902 291.038 578.793 291.038 579.954C291.038 580.116 291.038 580.224 291.011 580.386H286.718Z" fill="#363C65"/>
<path d="M300.198 575.526H297.12V588H300.738V581.142C300.738 578.901 301.845 578.253 303.006 578.253C304.302 578.253 304.68 579.144 304.68 580.521V588H308.298V579.171C308.298 576.363 306.543 575.229 304.626 575.229C302.709 575.229 301.305 576.066 300.63 577.929L300.198 575.526Z" fill="#363C65"/>
<path d="M319.264 584.463C318.535 584.976 317.86 585.246 317.077 585.246C316.078 585.246 315.565 584.814 315.565 583.491V578.307H319.291V575.526H315.592V572.448L311.974 572.88V575.526H310.138V578.307H311.947V584.301C311.947 587.163 313.567 588.324 316.051 588.324C317.536 588.324 318.832 588.054 319.885 587.514L319.264 584.463Z" fill="#363C65"/>
<path d="M321.606 571.719C321.606 573.042 322.578 573.771 323.793 573.771C325.062 573.771 326.034 573.042 326.034 571.719C326.034 570.342 325.062 569.613 323.793 569.613C322.578 569.613 321.606 570.342 321.606 571.719ZM321.984 575.526V588H325.602V575.526H321.984Z" fill="#363C65"/>
<path d="M329.43 578.307V588H333.021V578.307H336.855V588H340.473V575.526H333.021V574.824C333.021 573.231 334.101 572.799 335.181 572.799C336.045 572.799 336.936 573.123 337.557 573.582L338.799 570.666C337.773 570.099 336.504 569.748 334.938 569.748C332.346 569.748 329.43 570.909 329.43 574.716V575.526H327.594V578.307H329.43Z" fill="#363C65"/>
<path d="M352.698 577.794V575.526H343.14V578.388H346.326C347.73 578.388 348.486 578.253 348.486 578.253V578.361C348.486 578.361 347.757 579.009 346.785 580.332L342.924 585.813V588H352.941V585.192H349.134C347.757 585.192 346.974 585.327 346.974 585.327V585.219C346.974 585.219 347.703 584.571 348.675 583.248L352.698 577.794Z" fill="#363C65"/>
<path d="M355.014 571.719C355.014 573.042 355.986 573.771 357.201 573.771C358.47 573.771 359.442 573.042 359.442 571.719C359.442 570.342 358.47 569.613 357.201 569.613C355.986 569.613 355.014 570.342 355.014 571.719ZM355.392 575.526V588H359.01V575.526H355.392Z" fill="#363C65"/>
<path d="M367.697 585.543C366.05 585.543 365.159 584.301 365.078 582.384H372.773C372.881 581.871 372.935 581.304 372.935 580.764C372.935 577.551 371.207 575.229 367.67 575.229C363.917 575.229 361.595 577.659 361.595 581.952C361.595 585.975 364.052 588.324 367.616 588.324C370.073 588.324 372.314 587.433 372.962 584.895L369.884 583.842C369.479 585.165 368.669 585.543 367.697 585.543ZM365.186 580.386C365.321 578.928 366.185 577.902 367.535 577.902C368.831 577.902 369.506 578.793 369.506 579.954C369.506 580.116 369.506 580.224 369.479 580.386H365.186Z" fill="#363C65"/>
<path d="M384.202 575.256C380.908 575.067 379.693 576.795 379.153 578.955L378.721 575.526H375.589V588H379.207V582.303C379.207 579.738 380.962 579.036 382.393 579.036C382.96 579.036 383.338 579.09 383.797 579.252L384.202 575.256Z" fill="#363C65"/>
<path d="M391.164 585.543C389.517 585.543 388.626 584.301 388.545 582.384H396.24C396.348 581.871 396.402 581.304 396.402 580.764C396.402 577.551 394.674 575.229 391.137 575.229C387.384 575.229 385.062 577.659 385.062 581.952C385.062 585.975 387.519 588.324 391.083 588.324C393.54 588.324 395.781 587.433 396.429 584.895L393.351 583.842C392.946 585.165 392.136 585.543 391.164 585.543ZM388.653 580.386C388.788 578.928 389.652 577.902 391.002 577.902C392.298 577.902 392.973 578.793 392.973 579.954C392.973 580.116 392.973 580.224 392.946 580.386H388.653Z" fill="#363C65"/>
<path d="M402.134 575.526H399.056V588H402.674V581.142C402.674 578.901 403.781 578.253 404.942 578.253C406.238 578.253 406.616 579.144 406.616 580.521V588H410.234V579.171C410.234 576.363 408.479 575.229 406.562 575.229C404.645 575.229 403.241 576.066 402.566 577.929L402.134 575.526Z" fill="#363C65"/>
<path d="M519.301 306.165H511.957L512.875 300.981H519.382L519.706 299.145H513.199L514.117 293.934H521.461L521.785 292.098H512.281L509.5 308.001H519.004L519.301 306.165Z" fill="#363C65"/>
<path d="M528.116 305.976C527.252 306.462 526.739 306.597 525.983 306.597C525.254 306.597 524.687 306.084 524.93 304.761L526.28 297.174H529.52L529.817 295.527H526.55L527.063 292.611L524.984 292.908L524.525 295.527H522.77L522.473 297.174H524.201L522.905 304.545C522.419 307.191 523.553 308.325 525.659 308.325C526.388 308.325 527.36 308.136 528.116 307.704V305.976Z" fill="#363C65"/>
<path d="M539.017 302.79C538.612 305.166 537.262 306.624 535.372 306.624C533.536 306.624 532.618 305.085 532.618 302.979C532.618 299.415 534.454 296.85 536.938 296.85C538.936 296.85 539.719 298.794 539.395 300.684L539.017 302.79ZM542.365 295.527H540.664L539.989 297.633C539.665 295.986 538.477 295.23 536.749 295.23C533.077 295.23 530.62 298.956 530.62 303.222C530.62 306.516 532.402 308.325 534.805 308.325C536.371 308.325 537.856 307.623 538.612 305.922C538.504 307.353 539.206 308.136 540.556 308.136C541.015 308.136 541.474 308.055 541.852 307.92L542.122 306.435C541.798 306.516 541.555 306.543 541.339 306.543C540.556 306.543 540.529 305.949 540.637 305.328L542.365 295.527Z" fill="#363C65"/>
<path d="M548.1 300.792C548.505 298.47 550.152 296.904 552.015 296.904C553.716 296.904 554.634 298.254 554.634 300.36C554.634 303.789 553.068 306.624 550.422 306.624C548.316 306.624 547.344 304.734 547.668 303.222L548.1 300.792ZM547.209 305.949C547.479 307.272 548.721 308.325 550.584 308.325C554.391 308.325 556.767 304.815 556.767 300.36C556.767 297.066 555.309 295.23 552.69 295.23C550.881 295.23 549.45 296.121 548.586 297.93L548.802 295.527H547.02L543.861 313.482H545.886L547.209 305.949Z" fill="#363C65"/>
<path d="M562.232 300.792C562.637 298.47 564.284 296.904 566.147 296.904C567.848 296.904 568.766 298.254 568.766 300.36C568.766 303.789 567.2 306.624 564.554 306.624C562.448 306.624 561.476 304.734 561.8 303.222L562.232 300.792ZM561.341 305.949C561.611 307.272 562.853 308.325 564.716 308.325C568.523 308.325 570.899 304.815 570.899 300.36C570.899 297.066 569.441 295.23 566.822 295.23C565.013 295.23 563.582 296.121 562.718 297.93L562.934 295.527H561.152L557.993 313.482H560.018L561.341 305.949Z" fill="#363C65"/>
<path d="M578.012 306.732C575.636 306.732 574.799 304.41 574.988 302.223H583.034C583.412 301.413 583.574 300.549 583.574 299.685C583.574 297.39 582.332 295.23 579.146 295.23C576.149 295.23 573.071 297.957 573.071 303.033C573.071 306.219 574.826 308.325 577.823 308.325C580.253 308.325 582.035 307.596 582.953 305.058L581.09 304.599C580.631 305.949 579.875 306.732 578.012 306.732ZM575.231 300.576C575.717 298.605 576.959 296.85 579.038 296.85C580.793 296.85 581.603 298.146 581.603 299.631C581.603 299.955 581.576 300.279 581.468 300.576H575.231Z" fill="#363C65"/>
<path d="M600.546 306.273H593.445V306.165C596.577 305.328 601.221 302.628 601.221 298.659C601.221 296.04 599.601 294.69 596.955 294.69C595.2 294.69 592.473 295.446 592.203 298.875L594.12 299.28C594.12 297.147 595.389 296.445 596.739 296.445C598.224 296.445 599.061 297.282 599.061 298.713C599.061 301.737 596.037 303.951 590.988 306.381L590.718 308.001H600.249L600.546 306.273Z" fill="#363C65"/>
<path d="M518.899 330.176H520.789C522.328 330.176 523.03 330.959 523.03 332.606C523.03 334.091 522.382 334.874 520.789 334.874H518.899V330.176ZM518.899 343.001V337.871H521.248C524.677 337.871 526.675 335.846 526.675 332.471C526.675 328.961 524.974 327.098 520.897 327.098H515.227V343.001H518.899Z" fill="#363C65"/>
<path d="M537.805 330.257C534.511 330.068 533.296 331.796 532.756 333.956L532.324 330.527H529.192V343.001H532.81V337.304C532.81 334.739 534.565 334.037 535.996 334.037C536.563 334.037 536.941 334.091 537.4 334.253L537.805 330.257Z" fill="#363C65"/>
<path d="M544.714 343.325C548.332 343.325 550.735 340.949 550.735 336.737C550.735 332.498 548.332 330.23 544.714 330.23C541.069 330.23 538.666 332.498 538.666 336.737C538.666 340.949 541.069 343.325 544.714 343.325ZM544.714 333.119C546.361 333.119 547.171 334.28 547.171 336.737C547.171 339.329 546.388 340.517 544.714 340.517C543.013 340.517 542.23 339.329 542.23 336.737C542.23 334.28 543.04 333.119 544.714 333.119Z" fill="#363C65"/>
<path d="M561.884 332.795V330.527H552.326V333.389H555.512C556.916 333.389 557.672 333.254 557.672 333.254V333.362C557.672 333.362 556.943 334.01 555.971 335.333L552.11 340.814V343.001H562.127V340.193H558.32C556.943 340.193 556.16 340.328 556.16 340.328V340.22C556.16 340.22 556.889 339.572 557.861 338.249L561.884 332.795Z" fill="#363C65"/>
<path d="M569.605 340.544C567.958 340.544 567.067 339.302 566.986 337.385H574.681C574.789 336.872 574.843 336.305 574.843 335.765C574.843 332.552 573.115 330.23 569.578 330.23C565.825 330.23 563.503 332.66 563.503 336.953C563.503 340.976 565.96 343.325 569.524 343.325C571.981 343.325 574.222 342.434 574.87 339.896L571.792 338.843C571.387 340.166 570.577 340.544 569.605 340.544ZM567.094 335.387C567.229 333.929 568.093 332.903 569.443 332.903C570.739 332.903 571.414 333.794 571.414 334.955C571.414 335.117 571.414 335.225 571.387 335.387H567.094Z" fill="#363C65"/>
<path d="M576.282 340.112C576.768 342.461 578.55 343.325 581.628 343.325C584.679 343.325 586.974 342.245 586.974 339.464C586.974 337.331 585.786 335.981 583.248 335.441L581.493 335.063C580.656 334.901 580.278 334.55 580.278 333.929C580.278 333.281 580.845 332.903 581.682 332.903C582.708 332.903 583.275 333.227 583.41 334.226L586.785 333.74C586.596 331.31 584.814 330.23 581.844 330.23C579.279 330.23 576.768 331.121 576.768 334.28C576.768 336.17 577.767 337.412 579.954 337.979L581.79 338.411C582.897 338.681 583.383 339.005 583.383 339.707C583.383 340.436 582.681 340.787 581.682 340.787C580.494 340.787 579.522 340.274 579.252 338.924L576.282 340.112Z" fill="#363C65"/>
<path d="M588.305 340.112C588.791 342.461 590.573 343.325 593.651 343.325C596.702 343.325 598.997 342.245 598.997 339.464C598.997 337.331 597.809 335.981 595.271 335.441L593.516 335.063C592.679 334.901 592.301 334.55 592.301 333.929C592.301 333.281 592.868 332.903 593.705 332.903C594.731 332.903 595.298 333.227 595.433 334.226L598.808 333.74C598.619 331.31 596.837 330.23 593.867 330.23C591.302 330.23 588.791 331.121 588.791 334.28C588.791 336.17 589.79 337.412 591.977 337.979L593.813 338.411C594.92 338.681 595.406 339.005 595.406 339.707C595.406 340.436 594.704 340.787 593.705 340.787C592.517 340.787 591.545 340.274 591.275 338.924L588.305 340.112Z" fill="#363C65"/>
<path d="M522.566 370.17C522.566 368.172 523.862 367.119 525.185 367.119C526.778 367.119 527.777 368.199 527.777 370.791C527.777 373.437 526.481 374.733 524.942 374.733C523.889 374.733 522.566 374.031 522.566 371.898V370.17ZM522.593 375.354C522.944 376.407 524.159 377.325 526.076 377.325C529.451 377.325 531.422 374.571 531.422 370.467C531.422 366.498 529.667 364.23 526.616 364.23C524.888 364.23 523.268 364.932 522.512 366.93L522.053 364.527H518.975V382.482H522.593V375.354Z" fill="#363C65"/>
<path d="M539.485 373.896C539.161 374.031 538.837 374.085 538.513 374.085C537.865 374.085 537.379 373.788 537.379 373.005V358.965H533.761V374.058C533.761 376.407 535.408 377.244 537.217 377.244C537.919 377.244 538.594 377.109 539.296 376.92L539.485 373.896Z" fill="#363C65"/>
<path d="M547.911 373.086C547.911 374.301 546.804 374.76 545.859 374.76C544.995 374.76 544.482 374.247 544.482 373.518C544.482 372.411 545.373 371.736 547.911 371.817V373.086ZM551.475 368.361C551.475 365.58 549.693 364.23 546.588 364.23C543.726 364.23 541.485 365.472 541.296 368.118L544.887 368.793C544.941 367.632 545.454 366.957 546.453 366.957C547.452 366.957 547.911 367.605 547.911 368.685V369.873C543.105 369.603 540.864 371.115 540.864 373.896C540.864 376.029 542.322 377.325 544.536 377.325C546.237 377.325 547.587 376.812 548.154 375.273C548.559 376.623 549.531 377.244 551.124 377.244C551.988 377.244 552.663 377.109 553.176 376.785V374.166C552.933 374.274 552.69 374.355 552.393 374.355C551.826 374.355 551.475 374.058 551.475 373.221V368.361Z" fill="#363C65"/>
<path d="M558.413 364.527H555.335V377.001H558.953V370.143C558.953 367.902 560.06 367.254 561.221 367.254C562.517 367.254 562.895 368.145 562.895 369.522V377.001H566.513V368.172C566.513 365.364 564.758 364.23 562.841 364.23C560.924 364.23 559.52 365.067 558.845 366.93L558.413 364.527Z" fill="#363C65"/>
<path d="M575.077 374.544C573.43 374.544 572.539 373.302 572.458 371.385H580.153C580.261 370.872 580.315 370.305 580.315 369.765C580.315 366.552 578.587 364.23 575.05 364.23C571.297 364.23 568.975 366.66 568.975 370.953C568.975 374.976 571.432 377.325 574.996 377.325C577.453 377.325 579.694 376.434 580.342 373.896L577.264 372.843C576.859 374.166 576.049 374.544 575.077 374.544ZM572.566 369.387C572.701 367.929 573.565 366.903 574.915 366.903C576.211 366.903 576.886 367.794 576.886 368.955C576.886 369.117 576.886 369.225 576.859 369.387H572.566Z" fill="#363C65"/>
<path d="M586.046 364.527H582.968V377.001H586.586V370.143C586.586 367.902 587.693 367.254 588.854 367.254C590.15 367.254 590.528 368.145 590.528 369.522V377.001H594.146V368.172C594.146 365.364 592.391 364.23 590.474 364.23C588.557 364.23 587.153 365.067 586.478 366.93L586.046 364.527Z" fill="#363C65"/>
<circle cx="335" cy="335" r="123" fill="#363C65"/>
<path d="M298.301 307.165H290.957L291.875 301.981H298.382L298.706 300.145H292.199L293.117 294.934H300.461L300.785 293.098H291.281L288.5 309.001H298.004L298.301 307.165Z" fill="white"/>
<path d="M307.116 306.976C306.252 307.462 305.739 307.597 304.983 307.597C304.254 307.597 303.687 307.084 303.93 305.761L305.28 298.174H308.52L308.817 296.527H305.55L306.063 293.611L303.984 293.908L303.525 296.527H301.77L301.473 298.174H303.201L301.905 305.545C301.419 308.191 302.553 309.325 304.659 309.325C305.388 309.325 306.36 309.136 307.116 308.704V306.976Z" fill="white"/>
<path d="M318.017 303.79C317.612 306.166 316.262 307.624 314.372 307.624C312.536 307.624 311.618 306.085 311.618 303.979C311.618 300.415 313.454 297.85 315.938 297.85C317.936 297.85 318.719 299.794 318.395 301.684L318.017 303.79ZM321.365 296.527H319.664L318.989 298.633C318.665 296.986 317.477 296.23 315.749 296.23C312.077 296.23 309.62 299.956 309.62 304.222C309.62 307.516 311.402 309.325 313.805 309.325C315.371 309.325 316.856 308.623 317.612 306.922C317.504 308.353 318.206 309.136 319.556 309.136C320.015 309.136 320.474 309.055 320.852 308.92L321.122 307.435C320.798 307.516 320.555 307.543 320.339 307.543C319.556 307.543 319.529 306.949 319.637 306.328L321.365 296.527Z" fill="white"/>
<path d="M327.1 301.792C327.505 299.47 329.152 297.904 331.015 297.904C332.716 297.904 333.634 299.254 333.634 301.36C333.634 304.789 332.068 307.624 329.422 307.624C327.316 307.624 326.344 305.734 326.668 304.222L327.1 301.792ZM326.209 306.949C326.479 308.272 327.721 309.325 329.584 309.325C333.391 309.325 335.767 305.815 335.767 301.36C335.767 298.066 334.309 296.23 331.69 296.23C329.881 296.23 328.45 297.121 327.586 298.93L327.802 296.527H326.02L322.861 314.482H324.886L326.209 306.949Z" fill="white"/>
<path d="M341.232 301.792C341.637 299.47 343.284 297.904 345.147 297.904C346.848 297.904 347.766 299.254 347.766 301.36C347.766 304.789 346.2 307.624 343.554 307.624C341.448 307.624 340.476 305.734 340.8 304.222L341.232 301.792ZM340.341 306.949C340.611 308.272 341.853 309.325 343.716 309.325C347.523 309.325 349.899 305.815 349.899 301.36C349.899 298.066 348.441 296.23 345.822 296.23C344.013 296.23 342.582 297.121 341.718 298.93L341.934 296.527H340.152L336.993 314.482H339.018L340.341 306.949Z" fill="white"/>
<path d="M357.012 307.732C354.636 307.732 353.799 305.41 353.988 303.223H362.034C362.412 302.413 362.574 301.549 362.574 300.685C362.574 298.39 361.332 296.23 358.146 296.23C355.149 296.23 352.071 298.957 352.071 304.033C352.071 307.219 353.826 309.325 356.823 309.325C359.253 309.325 361.035 308.596 361.953 306.058L360.09 305.599C359.631 306.949 358.875 307.732 357.012 307.732ZM354.231 301.576C354.717 299.605 355.959 297.85 358.038 297.85C359.793 297.85 360.603 299.146 360.603 300.631C360.603 300.955 360.576 301.279 360.468 301.576H354.231Z" fill="white"/>
<path d="M371.338 304.681H372.985C373.444 304.357 374.038 304.141 374.794 304.141C376.576 304.141 377.548 305.383 377.548 307.219C377.548 310 375.712 311.134 373.957 311.134C372.229 311.134 371.149 310.351 371.149 308.515L369.178 308.947C369.178 311.161 370.69 312.727 373.687 312.727C376.981 312.727 379.6 310.729 379.627 306.922C379.654 304.654 378.277 302.656 375.658 302.656C374.713 302.656 373.957 302.953 373.471 303.385L374.713 297.769H380.734L381.031 296.014H373.174L371.338 304.681Z" fill="white"/>
<path d="M261.165 328.098V337.629C261.165 339.924 260.57 341.274 258.248 341.274C255.953 341.274 255.36 339.924 255.36 337.656V328.098H251.688V338.682C251.688 342.975 254.738 344.325 258.248 344.325C261.786 344.325 264.81 342.975 264.81 338.682V328.098H261.165Z" fill="white"/>
<path d="M271.246 331.527H268.168V344.001H271.786V337.143C271.786 334.902 272.893 334.254 274.054 334.254C275.35 334.254 275.728 335.145 275.728 336.522V344.001H279.346V335.172C279.346 332.364 277.591 331.23 275.674 331.23C273.757 331.23 272.353 332.067 271.678 333.93L271.246 331.527Z" fill="white"/>
<path d="M290.312 340.464C289.583 340.977 288.908 341.247 288.125 341.247C287.126 341.247 286.613 340.815 286.613 339.492V334.308H290.339V331.527H286.64V328.449L283.022 328.881V331.527H281.186V334.308H282.995V340.302C282.995 343.164 284.615 344.325 287.099 344.325C288.584 344.325 289.88 344.055 290.933 343.515L290.312 340.464Z" fill="white"/>
<path d="M298.193 341.544C296.546 341.544 295.655 340.302 295.574 338.385H303.269C303.377 337.872 303.431 337.305 303.431 336.765C303.431 333.552 301.703 331.23 298.166 331.23C294.413 331.23 292.091 333.66 292.091 337.953C292.091 341.976 294.548 344.325 298.112 344.325C300.569 344.325 302.81 343.434 303.458 340.896L300.38 339.843C299.975 341.166 299.165 341.544 298.193 341.544ZM295.682 336.387C295.817 334.929 296.681 333.903 298.031 333.903C299.327 333.903 300.002 334.794 300.002 335.955C300.002 336.117 300.002 336.225 299.975 336.387H295.682Z" fill="white"/>
<path d="M314.697 331.257C311.403 331.068 310.188 332.796 309.648 334.956L309.216 331.527H306.084V344.001H309.702V338.304C309.702 335.739 311.457 335.037 312.888 335.037C313.455 335.037 313.833 335.091 314.292 335.253L314.697 331.257Z" fill="white"/>
<path d="M319.788 331.527H316.71V344.001H320.328V337.143C320.328 334.902 321.435 334.254 322.596 334.254C323.892 334.254 324.27 335.145 324.27 336.522V344.001H327.888V335.172C327.888 332.364 326.133 331.23 324.216 331.23C322.299 331.23 320.895 332.067 320.22 333.93L319.788 331.527Z" fill="white"/>
<path d="M336.451 341.544C334.804 341.544 333.913 340.302 333.832 338.385H341.527C341.635 337.872 341.689 337.305 341.689 336.765C341.689 333.552 339.961 331.23 336.424 331.23C332.671 331.23 330.349 333.66 330.349 337.953C330.349 341.976 332.806 344.325 336.37 344.325C338.827 344.325 341.068 343.434 341.716 340.896L338.638 339.843C338.233 341.166 337.423 341.544 336.451 341.544ZM333.94 336.387C334.075 334.929 334.939 333.903 336.289 333.903C337.585 333.903 338.26 334.794 338.26 335.955C338.26 336.117 338.26 336.225 338.233 336.387H333.94Z" fill="white"/>
<path d="M347.961 325.965H344.343V344.001H347.961V337.116C347.961 334.902 349.068 334.254 350.229 334.254C351.525 334.254 351.903 335.145 351.903 336.522V344.001H355.521V335.172C355.521 332.364 353.766 331.23 351.849 331.23C349.932 331.23 348.609 332.067 347.961 333.903V325.965Z" fill="white"/>
<path d="M369.43 333.957C369.106 331.878 367.729 331.23 366.136 331.23C364.3 331.23 362.977 332.04 362.302 333.93L361.87 331.527H358.792V344.001H362.41V337.143C362.41 334.956 363.328 334.254 364.462 334.254C365.758 334.254 366.109 335.145 366.109 336.522V344.001H369.727V337.116C369.727 334.956 370.672 334.254 371.779 334.254C373.048 334.254 373.426 335.145 373.426 336.522V344.001H377.044V335.145C377.044 332.364 375.505 331.23 373.48 331.23C371.617 331.23 370.105 332.094 369.43 333.957Z" fill="white"/>
<path d="M388.111 344.001H391.243V331.527H387.625V338.223C387.625 340.626 386.626 341.598 385.384 341.598C384.142 341.598 383.683 340.761 383.683 339.276V331.527H380.065V340.302C380.065 343.191 381.604 344.325 383.818 344.325C386.113 344.325 387.247 343.38 387.679 341.679L388.111 344.001Z" fill="white"/>
<path d="M397.73 331.527H394.652V344.001H398.27V337.143C398.27 334.902 399.377 334.254 400.538 334.254C401.834 334.254 402.212 335.145 402.212 336.522V344.001H405.83V335.172C405.83 332.364 404.075 331.23 402.158 331.23C400.241 331.23 398.837 332.067 398.162 333.93L397.73 331.527Z" fill="white"/>
<path d="M413.88 331.23C410.559 331.23 408.345 332.742 408.345 335.631C408.345 337.629 409.236 338.709 410.937 339.384C409.479 339.789 408.831 340.869 408.831 341.841C408.831 342.948 409.614 343.974 410.856 344.055C408.615 344.217 407.562 345.108 407.562 346.566C407.562 348.969 410.316 349.698 413.394 349.698C416.958 349.698 420.63 348.78 420.63 345.216C420.63 343.056 419.037 341.544 416.229 341.544H412.665C412.017 341.544 411.666 341.22 411.666 340.788C411.666 340.383 411.828 340.032 412.26 339.762C412.557 339.87 413.178 339.924 413.772 339.924C416.958 339.924 419.496 338.52 419.496 335.631C419.496 334.767 419.307 334.011 418.929 333.417C419.955 333.12 421.062 332.283 421.197 331.068L418.362 330.123C418.092 331.122 417.957 331.473 417.417 332.013C416.499 331.5 415.284 331.23 413.88 331.23ZM410.883 345.864C410.883 345.135 411.612 344.784 412.638 344.784H415.716C416.796 344.784 417.255 345.081 417.255 345.837C417.255 346.836 416.31 347.295 413.799 347.295C411.882 347.295 410.883 346.836 410.883 345.864ZM411.99 335.631C411.99 334.389 412.611 333.714 413.88 333.687C415.122 333.687 415.797 334.308 415.797 335.631C415.797 336.873 415.122 337.548 413.88 337.548C412.611 337.548 411.99 336.738 411.99 335.631Z" fill="white"/>
<path d="M288.199 371.062C288.199 369.172 289.495 368.119 290.818 368.119C292.411 368.119 293.41 369.199 293.41 371.791C293.41 374.437 292.114 375.733 290.575 375.733C289.522 375.733 288.199 375.031 288.199 372.898V371.062ZM288.037 376.192C288.415 377.38 289.603 378.325 291.736 378.325C295.111 378.325 297.055 375.571 297.055 371.467C297.055 367.498 295.3 365.23 292.249 365.23C290.467 365.23 288.901 365.959 288.226 367.849V359.965H284.608V378.001H287.146L288.037 376.192Z" fill="white"/>
<path d="M304.929 375.544C303.282 375.544 302.391 374.302 302.31 372.385H310.005C310.113 371.872 310.167 371.305 310.167 370.765C310.167 367.552 308.439 365.23 304.902 365.23C301.149 365.23 298.827 367.66 298.827 371.953C298.827 375.976 301.284 378.325 304.848 378.325C307.305 378.325 309.546 377.434 310.194 374.896L307.116 373.843C306.711 375.166 305.901 375.544 304.929 375.544ZM302.418 370.387C302.553 368.929 303.417 367.903 304.767 367.903C306.063 367.903 306.738 368.794 306.738 369.955C306.738 370.117 306.738 370.225 306.711 370.387H302.418Z" fill="white"/>
<path d="M317.468 365.23C314.147 365.23 311.933 366.742 311.933 369.631C311.933 371.629 312.824 372.709 314.525 373.384C313.067 373.789 312.419 374.869 312.419 375.841C312.419 376.948 313.202 377.974 314.444 378.055C312.203 378.217 311.15 379.108 311.15 380.566C311.15 382.969 313.904 383.698 316.982 383.698C320.546 383.698 324.218 382.78 324.218 379.216C324.218 377.056 322.625 375.544 319.817 375.544H316.253C315.605 375.544 315.254 375.22 315.254 374.788C315.254 374.383 315.416 374.032 315.848 373.762C316.145 373.87 316.766 373.924 317.36 373.924C320.546 373.924 323.084 372.52 323.084 369.631C323.084 368.767 322.895 368.011 322.517 367.417C323.543 367.12 324.65 366.283 324.785 365.068L321.95 364.123C321.68 365.122 321.545 365.473 321.005 366.013C320.087 365.5 318.872 365.23 317.468 365.23ZM314.471 379.864C314.471 379.135 315.2 378.784 316.226 378.784H319.304C320.384 378.784 320.843 379.081 320.843 379.837C320.843 380.836 319.898 381.295 317.387 381.295C315.47 381.295 314.471 380.836 314.471 379.864ZM315.578 369.631C315.578 368.389 316.199 367.714 317.468 367.687C318.71 367.687 319.385 368.308 319.385 369.631C319.385 370.873 318.71 371.548 317.468 371.548C316.199 371.548 315.578 370.738 315.578 369.631Z" fill="white"/>
<path d="M325.864 361.72C325.864 363.043 326.836 363.772 328.051 363.772C329.32 363.772 330.292 363.043 330.292 361.72C330.292 360.343 329.32 359.614 328.051 359.614C326.836 359.614 325.864 360.343 325.864 361.72ZM326.242 365.527V378.001H329.86V365.527H326.242Z" fill="white"/>
<path d="M336.334 365.527H333.256V378.001H336.874V371.143C336.874 368.902 337.981 368.254 339.142 368.254C340.438 368.254 340.816 369.145 340.816 370.522V378.001H344.434V369.172C344.434 366.364 342.679 365.23 340.762 365.23C338.845 365.23 337.441 366.067 336.766 367.93L336.334 365.527Z" fill="white"/>
<path d="M350.783 365.527H347.705V378.001H351.323V371.143C351.323 368.902 352.43 368.254 353.591 368.254C354.887 368.254 355.265 369.145 355.265 370.522V378.001H358.883V369.172C358.883 366.364 357.128 365.23 355.211 365.23C353.294 365.23 351.89 366.067 351.215 367.93L350.783 365.527Z" fill="white"/>
<path d="M367.446 375.544C365.799 375.544 364.908 374.302 364.827 372.385H372.522C372.63 371.872 372.684 371.305 372.684 370.765C372.684 367.552 370.956 365.23 367.419 365.23C363.666 365.23 361.344 367.66 361.344 371.953C361.344 375.976 363.801 378.325 367.365 378.325C369.822 378.325 372.063 377.434 372.711 374.896L369.633 373.843C369.228 375.166 368.418 375.544 367.446 375.544ZM364.935 370.387C365.07 368.929 365.934 367.903 367.284 367.903C368.58 367.903 369.255 368.794 369.255 369.955C369.255 370.117 369.255 370.225 369.228 370.387H364.935Z" fill="white"/>
<path d="M378.416 365.527H375.338V378.001H378.956V371.143C378.956 368.902 380.063 368.254 381.224 368.254C382.52 368.254 382.898 369.145 382.898 370.522V378.001H386.516V369.172C386.516 366.364 384.761 365.23 382.844 365.23C380.927 365.23 379.523 366.067 378.848 367.93L378.416 365.527Z" fill="white"/>
<circle cx="335" cy="335" r="331.5" stroke="#E7E6ED" stroke-width="7"/>
</svg>
