<?xml version="1.0" encoding="UTF-8"?><svg xmlns="http://www.w3.org/2000/svg" viewBox="0 0 419.53 595.28"><g id="f"><g><g><rect x="165.99" y="76.79" width="100.2" height="187.88" style="fill:#aeadc1;"/><polygon points="266.19 264.67 218.94 240.6 218.94 100.87 266.19 76.79 266.19 264.67" style="fill:#dedce4;"/><rect x="223.1" y="166.14" width="3.35" height="7.84" style="fill:#aeadc1;"/></g><g><rect x="164.33" y="74.67" width="100.2" height="187.88" style="fill:none; stroke:#32406d; stroke-miterlimit:10;"/><polygon points="264.53 262.55 217.28 238.48 217.28 98.75 264.53 74.67 264.53 262.55" style="fill:none; stroke:#32406d; stroke-miterlimit:10;"/><rect x="221.43" y="164.02" width="3.35" height="7.84" style="fill:none; stroke:#32406d; stroke-miterlimit:10;"/></g></g></g><g id="g"><g><g><path d="m131.87,443.14h51.75c4.05,0,7.34,3.29,7.34,7.34h0c0,4.05-3.29,7.34-7.34,7.34h-31.75" style="fill:#fff;"/><path d="m149.15,487.19h19.73c4.05,0,7.34,3.29,7.34,7.34h0c0,4.05-3.29,7.34-7.34,7.34h-31.75s-24.94,0-24.94,0c-5.86,0-11.59-1.71-16.49-4.91l-2-1.31c-2.76-1.81-5.99-2.77-9.29-2.77h-16.39s0-53.49,0-53.49h28.65c4.3,0,8.52-1.2,12.17-3.48l31.32-13.97c3.57-2.72,8.69-1.89,11.21,1.83h0c2.32,3.43,1.57,8.07-1.71,10.59l-21.58,10.55s-4.68,23.67-21.64,24.4" style="fill:#fff;"/><path d="m151.87,472.5h34.16c4.05,0,7.34,3.29,7.34,7.34h0c0,4.05-3.29,7.34-7.34,7.34h-31.75" style="fill:#fff;"/><path d="m150.66,457.82h43.77c4.05,0,7.34,3.29,7.34,7.34h0c0,4.05-3.29,7.34-7.34,7.34h-43.77" style="fill:#fff;"/></g><path d="m153.5,425.51c2.32,3.43,1.57,8.07-1.71,10.59l-17.94,8.77h51.93c4.06,0,7.34,3.29,7.34,7.34s-3.29,7.34-7.34,7.34h10.82c4.06,0,7.34,3.29,7.34,7.34s-3.29,7.34-7.34,7.34h-8.41c4.06,0,7.34,3.29,7.34,7.34s-3.29,7.34-7.34,7.34h-17.14c4.06,0,7.34,3.29,7.34,7.34s-3.29,7.34-7.34,7.34h-31.75s-24.94,0-24.94,0c-5.86,0-11.59-1.71-16.49-4.91l-2-1.31c-2.76-1.81-5.99-2.77-9.29-2.77h-16.39s0-53.49,0-53.49h28.65c4.3,0,8.52-1.2,12.17-3.48l31.31-13.97c3.57-2.72,8.69-1.89,11.21,1.83Z" style="fill:#8786a3;"/><g><path d="m131.87,443.14h51.75c4.05,0,7.34,3.29,7.34,7.34h0c0,4.05-3.29,7.34-7.34,7.34h-31.75" style="fill:none; stroke:#32406d; stroke-miterlimit:10;"/><path d="m149.15,487.19h19.73c4.05,0,7.34,3.29,7.34,7.34h0c0,4.05-3.29,7.34-7.34,7.34h-31.75s-24.94,0-24.94,0c-5.86,0-11.59-1.71-16.49-4.91l-2-1.31c-2.76-1.81-5.99-2.77-9.29-2.77h-16.39s0-53.49,0-53.49h28.65c4.3,0,8.52-1.2,12.17-3.48l31.32-13.97c3.57-2.72,8.69-1.89,11.21,1.83h0c2.32,3.43,1.57,8.07-1.71,10.59l-21.58,10.55s-4.68,23.67-21.64,24.4" style="fill:none; stroke:#32406d; stroke-miterlimit:10;"/><path d="m151.87,472.5h34.16c4.05,0,7.34,3.29,7.34,7.34h0c0,4.05-3.29,7.34-7.34,7.34h-31.75" style="fill:none; stroke:#32406d; stroke-miterlimit:10;"/><path d="m150.66,457.82h43.77c4.05,0,7.34,3.29,7.34,7.34h0c0,4.05-3.29,7.34-7.34,7.34h-43.77" style="fill:none; stroke:#32406d; stroke-miterlimit:10;"/></g></g><g><g><path d="m131.87,234.98h51.75c4.05,0,7.34,3.29,7.34,7.34h0c0,4.05-3.29,7.34-7.34,7.34h-31.75" style="fill:#fff;"/><path d="m149.15,279.04h19.73c4.05,0,7.34,3.29,7.34,7.34h0c0,4.05-3.29,7.34-7.34,7.34h-31.75s-24.94,0-24.94,0c-5.86,0-11.59-1.71-16.49-4.91l-2-1.31c-2.76-1.81-5.99-2.77-9.29-2.77h-16.39s0-53.49,0-53.49h28.65c4.3,0,8.52-1.2,12.17-3.48l31.32-13.97c3.57-2.72,8.69-1.89,11.21,1.83h0c2.32,3.43,1.57,8.07-1.71,10.59l-21.58,10.55s-4.68,23.67-21.64,24.4" style="fill:#fff;"/><path d="m151.87,264.35h34.16c4.05,0,7.34,3.29,7.34,7.34h0c0,4.05-3.29,7.34-7.34,7.34h-31.75" style="fill:#fff;"/><path d="m150.66,249.67h43.77c4.05,0,7.34,3.29,7.34,7.34h0c0,4.05-3.29,7.34-7.34,7.34h-43.77" style="fill:#fff;"/></g><path d="m153.5,217.36c2.32,3.43,1.57,8.07-1.71,10.59l-17.94,8.77h51.93c4.06,0,7.34,3.29,7.34,7.34s-3.29,7.34-7.34,7.34h10.82c4.06,0,7.34,3.29,7.34,7.34,0,4.06-3.29,7.34-7.34,7.34h-8.41c4.06,0,7.34,3.29,7.34,7.34,0,4.05-3.29,7.34-7.34,7.34h-17.14c4.06,0,7.34,3.29,7.34,7.34,0,4.05-3.29,7.34-7.34,7.34h-31.75s-24.94,0-24.94,0c-5.86,0-11.59-1.71-16.49-4.91l-2-1.31c-2.76-1.81-5.99-2.77-9.29-2.77h-16.39s0-53.49,0-53.49h28.65c4.3,0,8.52-1.2,12.17-3.48l31.31-13.97c3.57-2.72,8.69-1.89,11.21,1.83Z" style="fill:#aeadc1;"/><g><path d="m131.87,234.98h51.75c4.05,0,7.34,3.29,7.34,7.34h0c0,4.05-3.29,7.34-7.34,7.34h-31.75" style="fill:none; stroke:#32406d; stroke-miterlimit:10;"/><path d="m149.15,279.04h19.73c4.05,0,7.34,3.29,7.34,7.34h0c0,4.05-3.29,7.34-7.34,7.34h-31.75s-24.94,0-24.94,0c-5.86,0-11.59-1.71-16.49-4.91l-2-1.31c-2.76-1.81-5.99-2.77-9.29-2.77h-16.39s0-53.49,0-53.49h28.65c4.3,0,8.52-1.2,12.17-3.48l31.32-13.97c3.57-2.72,8.69-1.89,11.21,1.83h0c2.32,3.43,1.57,8.07-1.71,10.59l-21.58,10.55s-4.68,23.67-21.64,24.4" style="fill:none; stroke:#32406d; stroke-miterlimit:10;"/><path d="m151.87,264.35h34.16c4.05,0,7.34,3.29,7.34,7.34h0c0,4.05-3.29,7.34-7.34,7.34h-31.75" style="fill:none; stroke:#32406d; stroke-miterlimit:10;"/><path d="m150.66,249.67h43.77c4.05,0,7.34,3.29,7.34,7.34h0c0,4.05-3.29,7.34-7.34,7.34h-43.77" style="fill:none; stroke:#32406d; stroke-miterlimit:10;"/></g></g><g><g><path d="m294.28,439.77h-51.75c-4.05,0-7.34,3.29-7.34,7.34h0c0,4.05,3.29,7.34,7.34,7.34h31.75" style="fill:#fff;"/><path d="m277,483.82h-19.73c-4.05,0-7.34,3.29-7.34,7.34h0c0,4.05,3.29,7.34,7.34,7.34h31.75s24.94,0,24.94,0c5.86,0,11.59-1.71,16.49-4.91l2-1.31c2.76-1.81,5.99-2.77,9.29-2.77h16.39s0-53.49,0-53.49h-28.65c-4.3,0-8.52-1.2-12.17-3.48l-31.32-13.97c-3.57-2.72-8.69-1.89-11.21,1.83h0c-2.32,3.43-1.57,8.07,1.71,10.59l21.58,10.55s4.68,23.67,21.64,24.4" style="fill:#fff;"/><path d="m274.28,469.14h-34.16c-4.05,0-7.34,3.29-7.34,7.34h0c0,4.05,3.29,7.34,7.34,7.34h31.75" style="fill:#fff;"/><path d="m275.48,454.46h-43.77c-4.05,0-7.34,3.29-7.34,7.34h0c0,4.05,3.29,7.34,7.34,7.34h43.77" style="fill:#fff;"/></g><path d="m272.64,422.15c-2.32,3.43-1.57,8.07,1.71,10.59l17.94,8.77h-51.93c-4.06,0-7.34,3.29-7.34,7.34s3.29,7.34,7.34,7.34h-10.82c-4.06,0-7.34,3.29-7.34,7.34,0,4.06,3.29,7.34,7.34,7.34h8.41c-4.06,0-7.34,3.29-7.34,7.34,0,4.05,3.29,7.34,7.34,7.34h17.14c-4.06,0-7.34,3.29-7.34,7.34,0,4.05,3.29,7.34,7.34,7.34h31.75s24.94,0,24.94,0c5.86,0,11.59-1.71,16.49-4.91l2-1.31c2.76-1.81,5.99-2.77,9.29-2.77h16.39s0-53.49,0-53.49h-28.65c-4.3,0-8.52-1.2-12.17-3.48l-31.31-13.97c-3.57-2.72-8.69-1.89-11.21,1.83Z" style="fill:#aeadc1;"/><g><path d="m294.28,439.77h-51.75c-4.05,0-7.34,3.29-7.34,7.34h0c0,4.05,3.29,7.34,7.34,7.34h31.75" style="fill:none; stroke:#32406d; stroke-miterlimit:10;"/><path d="m277,483.82h-19.73c-4.05,0-7.34,3.29-7.34,7.34h0c0,4.05,3.29,7.34,7.34,7.34h31.75s24.94,0,24.94,0c5.86,0,11.59-1.71,16.49-4.91l2-1.31c2.76-1.81,5.99-2.77,9.29-2.77h16.39s0-53.49,0-53.49h-28.65c-4.3,0-8.52-1.2-12.17-3.48l-31.32-13.97c-3.57-2.72-8.69-1.89-11.21,1.83h0c-2.32,3.43-1.57,8.07,1.71,10.59l21.58,10.55s4.68,23.67,21.64,24.4" style="fill:none; stroke:#32406d; stroke-miterlimit:10;"/><path d="m274.28,469.14h-34.16c-4.05,0-7.34,3.29-7.34,7.34h0c0,4.05,3.29,7.34,7.34,7.34h31.75" style="fill:none; stroke:#32406d; stroke-miterlimit:10;"/><path d="m275.48,454.46h-43.77c-4.05,0-7.34,3.29-7.34,7.34h0c0,4.05,3.29,7.34,7.34,7.34h43.77" style="fill:none; stroke:#32406d; stroke-miterlimit:10;"/></g></g><g><g><path d="m294.28,235.85h-51.75c-4.05,0-7.34,3.29-7.34,7.34h0c0,4.05,3.29,7.34,7.34,7.34h31.75" style="fill:#fff;"/><path d="m277,279.91h-19.73c-4.05,0-7.34,3.29-7.34,7.34h0c0,4.05,3.29,7.34,7.34,7.34h31.75s24.94,0,24.94,0c5.86,0,11.59-1.71,16.49-4.91l2-1.31c2.76-1.81,5.99-2.77,9.29-2.77h16.39s0-53.49,0-53.49h-28.65c-4.3,0-8.52-1.2-12.17-3.48l-31.32-13.97c-3.57-2.72-8.69-1.89-11.21,1.83h0c-2.32,3.43-1.57,8.07,1.71,10.59l21.58,10.55s4.68,23.67,21.64,24.4" style="fill:#fff;"/><path d="m274.28,265.22h-34.16c-4.05,0-7.34,3.29-7.34,7.34h0c0,4.05,3.29,7.34,7.34,7.34h31.75" style="fill:#fff;"/><path d="m275.48,250.54h-43.77c-4.05,0-7.34,3.29-7.34,7.34h0c0,4.05,3.29,7.34,7.34,7.34h43.77" style="fill:#fff;"/></g><path d="m272.64,218.23c-2.32,3.43-1.57,8.07,1.71,10.59l17.94,8.77h-51.93c-4.06,0-7.34,3.29-7.34,7.34s3.29,7.34,7.34,7.34h-10.82c-4.06,0-7.34,3.29-7.34,7.34s3.29,7.34,7.34,7.34h8.41c-4.06,0-7.34,3.29-7.34,7.34,0,4.05,3.29,7.34,7.34,7.34h17.14c-4.06,0-7.34,3.29-7.34,7.34s3.29,7.34,7.34,7.34h31.75s24.94,0,24.94,0c5.86,0,11.59-1.71,16.49-4.91l2-1.31c2.76-1.81,5.99-2.77,9.29-2.77h16.39s0-53.49,0-53.49h-28.65c-4.3,0-8.52-1.2-12.17-3.48l-31.31-13.97c-3.57-2.72-8.69-1.89-11.21,1.83Z" style="fill:#dedce4;"/><g><path d="m294.28,235.85h-51.75c-4.05,0-7.34,3.29-7.34,7.34h0c0,4.05,3.29,7.34,7.34,7.34h31.75" style="fill:none; stroke:#32406d; stroke-miterlimit:10;"/><path d="m277,279.91h-19.73c-4.05,0-7.34,3.29-7.34,7.34h0c0,4.05,3.29,7.34,7.34,7.34h31.75s24.94,0,24.94,0c5.86,0,11.59-1.71,16.49-4.91l2-1.31c2.76-1.81,5.99-2.77,9.29-2.77h16.39s0-53.49,0-53.49h-28.65c-4.3,0-8.52-1.2-12.17-3.48l-31.32-13.97c-3.57-2.72-8.69-1.89-11.21,1.83h0c-2.32,3.43-1.57,8.07,1.71,10.59l21.58,10.55s4.68,23.67,21.64,24.4" style="fill:none; stroke:#32406d; stroke-miterlimit:10;"/><path d="m274.28,265.22h-34.16c-4.05,0-7.34,3.29-7.34,7.34h0c0,4.05,3.29,7.34,7.34,7.34h31.75" style="fill:none; stroke:#32406d; stroke-miterlimit:10;"/><path d="m275.48,250.54h-43.77c-4.05,0-7.34,3.29-7.34,7.34h0c0,4.05,3.29,7.34,7.34,7.34h43.77" style="fill:none; stroke:#32406d; stroke-miterlimit:10;"/></g></g><g><ellipse cx="210.65" cy="332.56" rx="72.36" ry="20.99" style="fill:#8786a3;"/><ellipse cx="210.65" cy="363.6" rx="72.36" ry="20.99" style="fill:#fff;"/><ellipse cx="210.65" cy="390.8" rx="72.36" ry="20.99" style="fill:#dedce4;"/><ellipse cx="207.12" cy="328.59" rx="72.36" ry="20.99" style="fill:none; stroke:#32406d; stroke-miterlimit:10;"/><ellipse cx="207.12" cy="357.71" rx="72.36" ry="20.99" style="fill:none; stroke:#32406d; stroke-miterlimit:10;"/><ellipse cx="207.12" cy="386.83" rx="72.36" ry="20.99" style="fill:none; stroke:#32406d; stroke-miterlimit:10;"/></g><g><line x1="304.68" y1="371.24" x2="377.26" y2="371.24" style="fill:#ebecf7; stroke:#fff; stroke-miterlimit:10; stroke-width:4px;"/><line x1="304.68" y1="383.5" x2="344.01" y2="383.5" style="fill:#ebecf7; stroke:#fff; stroke-miterlimit:10; stroke-width:4px;"/><line x1="304.68" y1="395.76" x2="361.76" y2="395.76" style="fill:#ebecf7; stroke:#fff; stroke-miterlimit:10; stroke-width:4px;"/><polygon points="385.3 360.13 385.3 407.09 350.16 407.09 329.33 423.81 329.33 407.09 297.58 407.09 297.58 360.13 385.3 360.13" style="fill:#ebecf7; fill-rule:evenodd;"/><polygon points="383.74 357.78 383.74 404.75 348.6 404.75 327.77 421.47 327.77 404.75 296.02 404.75 296.02 357.78 383.74 357.78" style="fill:none; fill-rule:evenodd; stroke:#32406d; stroke-miterlimit:10;"/><line x1="304.37" y1="370.57" x2="376.96" y2="370.57" style="fill:#ebecf7; stroke:#ebecf7; stroke-miterlimit:10; stroke-width:3px;"/><line x1="304.37" y1="382.83" x2="343.71" y2="382.83" style="fill:#ebecf7; stroke:#ebecf7; stroke-miterlimit:10; stroke-width:3px;"/><line x1="304.37" y1="395.09" x2="361.45" y2="395.09" style="fill:#ebecf7; stroke:#ebecf7; stroke-miterlimit:10; stroke-width:3px;"/><line x1="303.59" y1="369.01" x2="376.17" y2="369.01" style="fill:none; stroke:#32406d; stroke-miterlimit:10; stroke-width:3px;"/><line x1="303.59" y1="381.27" x2="342.92" y2="381.27" style="fill:none; stroke:#32406d; stroke-miterlimit:10; stroke-width:3px;"/><line x1="303.59" y1="393.53" x2="360.67" y2="393.53" style="fill:none; stroke:#32406d; stroke-miterlimit:10; stroke-width:3px;"/></g><g><polygon points="208.89 56.1 208.89 100.93 175.56 100.93 175.56 116.89 155.68 100.93 125.16 100.93 125.16 56.1 208.89 56.1" style="fill:#dedce4; fill-rule:evenodd;"/><polygon points="206.82 52.99 206.82 97.82 173.49 97.82 173.49 113.78 153.61 97.82 123.09 97.82 123.09 52.99 206.82 52.99" style="fill:none; fill-rule:evenodd; stroke:#32406d; stroke-miterlimit:10;"/><line x1="130.09" y1="66.47" x2="174.93" y2="66.47" style="fill:none; stroke:#fff; stroke-miterlimit:10; stroke-width:3px;"/><line x1="130.09" y1="82.73" x2="195.16" y2="82.73" style="fill:none; stroke:#fff; stroke-miterlimit:10; stroke-width:3px;"/><line x1="129.06" y1="64.4" x2="173.9" y2="64.4" style="fill:none; stroke:#32406d; stroke-miterlimit:10; stroke-width:3px;"/><line x1="129.06" y1="80.65" x2="194.13" y2="80.65" style="fill:none; stroke:#32406d; stroke-miterlimit:10; stroke-width:3px;"/></g></g></svg>