<?xml version="1.0" encoding="UTF-8"?><svg id="m" xmlns="http://www.w3.org/2000/svg" xmlns:xlink="http://www.w3.org/1999/xlink" viewBox="0 0 419.53 595.28"><defs><clipPath id="n"><path d="m381.58,370.66h0c-8.39,4.43-17.59,3.48-20.54-2.12l-40.83-96.4,15.69-8.28,55.53,88.65c2.95,5.6-1.46,13.72-9.85,18.15Z" style="clip-rule:evenodd; fill:none;"/></clipPath><clipPath id="o"><path d="m363.02,308.75l26.6,42.46c2.95,5.6-1.46,13.72-9.85,18.15h0c-8.39,4.43-17.59,3.48-20.54-2.12l-40.83-96.4,15.69-8.28,28.94,46.19" style="clip-rule:evenodd; fill:none; stroke:#32406d; stroke-miterlimit:10;"/></clipPath></defs><path d="m336.52,438.62h0c3.74,0,6.78,3.04,6.78,6.78v4.82h-13.55v-4.82c0-3.74,3.04-6.78,6.78-6.78Z" style="fill:#f6a7b5;"/><circle cx="336.52" cy="434.36" r="5.18" style="fill:#f6a7b5;"/><g><g><path d="m337.54,438.19c2.71.88,4.67,3.44,4.67,6.44v4.82h-13.55v-4.82c0-2.98,1.93-5.51,4.6-6.42" style="fill:none; stroke:#32406d; stroke-miterlimit:10;"/><circle cx="335.43" cy="433.61" r="5.18" style="fill:none; stroke:#32406d; stroke-miterlimit:10;"/></g><g><path d="m337.54,438.19c2.71.88,4.67,3.44,4.67,6.44v4.82h-13.55v-4.82c0-2.98,1.93-5.51,4.6-6.42" style="fill:none; stroke:#32406d; stroke-miterlimit:10;"/><circle cx="335.43" cy="433.61" r="5.18" style="fill:none; stroke:#32406d; stroke-miterlimit:10;"/></g></g><g><path d="m310.96,174.68c-.72-.54-.89-1.51-.41-2.26,12.62-19.23-1.58-44.22-25.9-45.64-.78-.05-1.45-.53-1.69-1.23-6.76-19.64-31.54-27.86-49.89-16.36-.63.39-1.47.44-2.09.02-2.89-1.88-6.59-3.34-10.34-4.38-.37-.1-.7-.31-.93-.59-22.29-26.76-69.28-12.68-69.82,21.16-.01,1.01-.94,1.77-2.03,1.67-22.37-2.06-40.22,16.3-35.86,36.62.17.78-.25,1.56-1.03,1.9-11.2,4.94-19.32,15.6-19.32,27.88s7.56,22.4,18.21,27.31c.72.34,1.13,1.04,1.05,1.78-3.12,25.82,27.52,42.77,50.19,29.56.72-.41,1.65-.36,2.28.16l25.39,21.42c.38.33.6.8.6,1.27v57.65h41.88l.07-50.95c.17-.38,10.49-18.49,10.49-18.49.6-.56,1.54-.64,2.28-.25,5.68,3.07,12.2,4.8,19.21,4.8,22.69,0,40.58-18.37,38.36-39.29-.08-.78.4-1.5,1.19-1.8,23.35-8.59,27.53-37.39,8.12-51.97Zm-129.84,76.2c-3.19-1.83-7.07-4.3-9.14-5.64-.8-.51-1.03-1.51-.52-2.28,1.37-2.03,2.42-4.23,3.26-6.59.36-1.02,1.56-1.63,2.6-1.15.39.19.71.49.87.87,0,0,3.39,7.64,5.63,12.68.69,1.55-1.17,2.99-2.7,2.11Zm26.91-8.45l-4.14,10.08s-.08.1-.11.14c-1.17,2.16-3.93,2.29-5.83.45-.15-.15-.27-.34-.36-.52l-4.06-9.17c-.51-1.14.41-2.4,1.77-2.38.71.01,1.45.02,2.22.02,2.82,0,5.63-.25,8.27-.88,1.48-.35,2.79.95,2.24,2.27Zm24.02,13.44c-2.42,2.17-7.77,6.93-8.24,7.22-4.26,2.47-9.44.31-9.33-3.62.01-.19.05-.38.13-.56l7.54-18.31c.64-1.58,3.08-1.43,3.53.22,1.32,4.72,3.61,9.02,6.55,12.78.56.71.49,1.67-.19,2.27Z" style="fill:#e3e5f3;"/><path d="m311.38,446.95c-2.07,1.58-5.15,1.3-7.05-.46l-11.64-10.78v26.59c-.01,2.6-2.29,4.72-5.1,4.73-2.84.02-5.16-2.09-5.18-4.73v-55.17l-30.84-28.57v43.68l19.06,17.65c.96.89,1.5,2.1,1.5,3.37v38.14c0,2-1.34,3.86-3.4,4.48-3.6,1.1-6.91-1.36-6.89-4.53v-36.12l-10.27-9.52v45.88c-.02,2.6-2.3,4.71-5.11,4.73-2.83.01-5.15-2.1-5.18-4.73v-112.55l-24.82-17.43h-15.36l-12.49,11.57v15.1l19.06,17.65c.96.89,1.5,2.11,1.5,3.37v38.1c-.02,2.6-2.3,4.72-5.11,4.73-2.83.02-5.15-2.09-5.18-4.73v-36.12l-10.27-9.53v64.7c-.02,2.6-2.3,4.72-5.11,4.74-2.84.01-5.15-2.1-5.18-4.74v-7.55l-10.29,9.53v17.12c0,2-1.34,3.86-3.4,4.49-3.6,1.09-6.9-1.37-6.87-4.53v-19.06c0-1.25.54-2.47,1.5-3.37l19.06-17.65v-62.72l-10.29,9.52v36.17c0,2-1.34,3.86-3.4,4.49-3.6,1.09-6.9-1.37-6.87-4.53v-7.55l-11.79,10.92c-2.12,1.97-5.64,1.85-7.6-.35-1.71-1.92-1.41-4.77.49-6.53l18.9-17.51v-17.08c0-1.26.54-2.47,1.5-3.37l20.56-19.04h.01s9.52-8.84,9.52-8.84v-16.4h41.88l-.02,17.31s.09.07.08.1l18.76,13.68,41.12,38.09c.97.89,1.5,2.1,1.5,3.37v17.08l19.06,17.65c2.12,1.96,2,5.23-.37,7.05Z" style="fill:#fdebec;"/><line x1="73.24" y1="335.19" x2="348.78" y2="335.19" style="fill:none; stroke:#fdebec; stroke-miterlimit:10; stroke-width:3px;"/><line x1="70.75" y1="332.62" x2="346.28" y2="332.62" style="fill:none; stroke:#32406d; stroke-miterlimit:10; stroke-width:3px;"/><path d="m300.36,224.02c23.34-8.58,27.53-37.39,8.12-51.97-.72-.54-.9-1.51-.42-2.25,12.62-19.23-1.58-44.23-25.9-45.65-.79-.05-1.45-.53-1.69-1.22-6.75-19.64-31.54-27.86-49.88-16.37-.64.4-1.47.44-2.1.03-2.89-1.88-6.59-3.34-10.34-4.38-.37-.1-.69-.31-.92-.59-22.29-26.76-69.28-12.68-69.81,21.16-.02,1.01-.94,1.76-2.03,1.66-22.37-2.06-40.23,16.3-35.85,36.62.17.78-.25,1.56-1.03,1.9-11.21,4.93-19.32,15.6-19.32,27.88s7.57,22.41,18.2,27.32c.72.33,1.14,1.03,1.05,1.77-3.11,25.83,27.52,42.78,50.2,29.56.72-.42,1.64-.37,2.27.16l25.38,21.42c.39.33.61.79.61,1.27v74.04l-9.53,8.83h-.01s-20.56,19.05-20.56,19.05c-.96.89-1.51,2.1-1.51,3.37v17.08l-18.9,17.51c-1.9,1.76-2.21,4.61-.5,6.53,1.96,2.2,5.48,2.32,7.61.35l11.79-10.92v7.55c-.02,3.16,3.28,5.62,6.88,4.53,2.06-.63,3.4-2.48,3.4-4.49v-.05s0-36.12,0-36.12l10.28-9.52v62.72l-19.06,17.65c-.96.89-1.51,2.1-1.51,3.37v19.05c-.02,3.16,3.28,5.62,6.88,4.53,2.06-.63,3.4-2.48,3.4-4.49v-.05s0-17.08,0-17.08l10.28-9.52v7.55c.02,2.63,2.34,4.75,5.18,4.73,2.81-.02,5.09-2.12,5.11-4.73v-64.7l10.28,9.52v36.12c.02,2.63,2.34,4.75,5.18,4.73,2.81-.02,5.09-2.12,5.11-4.73v-38.1c0-1.26-.54-2.47-1.51-3.37l-19.06-17.65v-15.1l12.49-11.57h15.36l24.82,17.43v112.55c.02,2.63,2.34,4.75,5.18,4.73,2.81-.02,5.09-2.12,5.11-4.73v-45.88l10.28,9.52v36.12c-.02,3.16,3.28,5.62,6.88,4.53,2.06-.63,3.4-2.48,3.4-4.49v-.05s0-38.1,0-38.1c0-1.26-.54-2.47-1.51-3.37l-19.06-17.65v-43.68l30.84,28.57v55.17c.02,2.63,2.34,4.75,5.18,4.73,2.81-.02,5.09-2.12,5.11-4.73v-26.6l11.63,10.77c1.9,1.76,4.98,2.04,7.05.46,2.37-1.82,2.5-5.08.37-7.05l-19.06-17.65v-17.08c0-1.26-.54-2.47-1.51-3.37l-41.12-38.1-18.76-13.69s-.08-.06-.08-.09l.09-68.26c.17-.38,10.49-18.49,10.49-18.49.61-.56,1.54-.65,2.28-.25,5.68,3.07,12.21,4.8,19.21,4.8,22.7,0,40.59-18.36,38.37-39.29-.08-.78.4-1.5,1.18-1.79Zm-121.72,24.23c-3.19-1.82-7.07-4.3-9.14-5.64-.8-.52-1.03-1.52-.52-2.28,1.37-2.03,2.42-4.22,3.25-6.58.36-1.02,1.56-1.64,2.6-1.16.4.19.71.5.87.87,0,0,3.39,7.64,5.63,12.68.69,1.55-1.16,2.99-2.7,2.11Zm14.17-9.86c.71.01,1.45.01,2.23.01,2.81,0,5.62-.24,8.27-.88,1.48-.35,2.79.94,2.24,2.27l-4.14,10.07s-.07.1-.11.15c-1.16,2.15-3.93,2.29-5.82.44-.16-.15-.27-.34-.36-.53l-4.07-9.17c-.51-1.15.42-2.4,1.76-2.37Zm36.76,14.85c-2.42,2.16-7.76,6.93-8.23,7.22-4.26,2.47-9.44.31-9.33-3.62,0-.19.05-.38.13-.56l7.54-18.31c.65-1.58,3.08-1.43,3.54.21,1.31,4.72,3.61,9.02,6.55,12.79.55.7.48,1.66-.19,2.26Z" style="fill:none; stroke:#32406d; stroke-miterlimit:10;"/></g><g><path d="m130.21,382.29h0c3.74,0,6.78,3.04,6.78,6.78v4.82h-13.55v-4.82c0-3.74,3.04-6.78,6.78-6.78Z" style="fill:#f6a7b5;"/><circle cx="130.21" cy="378.04" r="5.18" style="fill:#f6a7b5;"/><g><g><path d="m131.23,381.87c2.71.88,4.67,3.44,4.67,6.44v4.82h-13.55v-4.82c0-2.98,1.93-5.51,4.6-6.42" style="fill:none; stroke:#32406d; stroke-miterlimit:10;"/><circle cx="129.13" cy="377.28" r="5.18" style="fill:none; stroke:#32406d; stroke-miterlimit:10;"/></g><g><path d="m131.23,381.87c2.71.88,4.67,3.44,4.67,6.44v4.82h-13.55v-4.82c0-2.98,1.93-5.51,4.6-6.42" style="fill:none; stroke:#32406d; stroke-miterlimit:10;"/><circle cx="129.13" cy="377.28" r="5.18" style="fill:none; stroke:#32406d; stroke-miterlimit:10;"/></g></g></g><g><path d="m257.04,496.08h0c3.74,0,6.78,3.04,6.78,6.78v4.82h-13.55v-4.82c0-3.74,3.04-6.78,6.78-6.78Z" style="fill:#f6a7b5;"/><circle cx="257.04" cy="491.82" r="5.18" style="fill:#f6a7b5;"/><g><g><path d="m258.06,495.65c2.71.88,4.67,3.44,4.67,6.44v4.82h-13.55v-4.82c0-2.98,1.93-5.51,4.6-6.42" style="fill:none; stroke:#32406d; stroke-miterlimit:10;"/><circle cx="255.96" cy="491.06" r="5.18" style="fill:none; stroke:#32406d; stroke-miterlimit:10;"/></g><g><path d="m258.06,495.65c2.71.88,4.67,3.44,4.67,6.44v4.82h-13.55v-4.82c0-2.98,1.93-5.51,4.6-6.42" style="fill:none; stroke:#32406d; stroke-miterlimit:10;"/><circle cx="255.96" cy="491.06" r="5.18" style="fill:none; stroke:#32406d; stroke-miterlimit:10;"/></g></g></g><g><path d="m201.86,455.87h0c3.74,0,6.78,3.04,6.78,6.78v4.82h-13.55v-4.82c0-3.74,3.04-6.78,6.78-6.78Z" style="fill:#f6a7b5;"/><circle cx="201.86" cy="451.61" r="5.18" style="fill:#f6a7b5;"/><g><g><path d="m202.88,455.44c2.71.88,4.67,3.44,4.67,6.44v4.82h-13.55v-4.82c0-2.98,1.93-5.51,4.6-6.42" style="fill:none; stroke:#32406d; stroke-miterlimit:10;"/><circle cx="200.78" cy="450.85" r="5.18" style="fill:none; stroke:#32406d; stroke-miterlimit:10;"/></g><g><path d="m202.88,455.44c2.71.88,4.67,3.44,4.67,6.44v4.82h-13.55v-4.82c0-2.98,1.93-5.51,4.6-6.42" style="fill:none; stroke:#32406d; stroke-miterlimit:10;"/><circle cx="200.78" cy="450.85" r="5.18" style="fill:none; stroke:#32406d; stroke-miterlimit:10;"/></g></g></g><g><path d="m145.03,476.44h0c3.74,0,6.78,3.04,6.78,6.78v4.82h-13.55v-4.82c0-3.74,3.04-6.78,6.78-6.78Z" style="fill:#f6a7b5;"/><circle cx="145.03" cy="472.18" r="5.18" style="fill:#f6a7b5;"/><g><g><path d="m146.05,476.01c2.71.88,4.67,3.44,4.67,6.44v4.82h-13.55v-4.82c0-2.98,1.93-5.51,4.6-6.42" style="fill:none; stroke:#32406d; stroke-miterlimit:10;"/><circle cx="143.94" cy="471.42" r="5.18" style="fill:none; stroke:#32406d; stroke-miterlimit:10;"/></g><g><path d="m146.05,476.01c2.71.88,4.67,3.44,4.67,6.44v4.82h-13.55v-4.82c0-2.98,1.93-5.51,4.6-6.42" style="fill:none; stroke:#32406d; stroke-miterlimit:10;"/><circle cx="143.94" cy="471.42" r="5.18" style="fill:none; stroke:#32406d; stroke-miterlimit:10;"/></g></g></g><g><g><g><path d="m147.13,214.4c2.71.88,4.67,3.44,4.67,6.44v4.82h-13.55v-4.82c0-2.98,1.93-5.51,4.6-6.42" style="fill:#fff;"/><circle cx="145.03" cy="209.81" r="5.18" style="fill:#fff;"/></g><g><path d="m147.13,214.4c2.71.88,4.67,3.44,4.67,6.44v4.82h-13.55v-4.82c0-2.98,1.93-5.51,4.6-6.42" style="fill:none; stroke:#32406d; stroke-miterlimit:10;"/><circle cx="145.03" cy="209.81" r="5.18" style="fill:none; stroke:#32406d; stroke-miterlimit:10;"/></g></g><path d="m146.11,214.82h0c3.74,0,6.78,3.04,6.78,6.78v4.82h-13.55v-4.82c0-3.74,3.04-6.78,6.78-6.78Z" style="fill:#8e9ace;"/><circle cx="146.11" cy="210.57" r="5.18" style="fill:#8e9ace;"/><g><g><path d="m147.13,214.4c2.71.88,4.67,3.44,4.67,6.44v4.82h-13.55v-4.82c0-2.98,1.93-5.51,4.6-6.42" style="fill:none; stroke:#32406d; stroke-miterlimit:10;"/><circle cx="145.03" cy="209.81" r="5.18" style="fill:none; stroke:#32406d; stroke-miterlimit:10;"/></g><g><path d="m147.13,214.4c2.71.88,4.67,3.44,4.67,6.44v4.82h-13.55v-4.82c0-2.98,1.93-5.51,4.6-6.42" style="fill:none; stroke:#32406d; stroke-miterlimit:10;"/><circle cx="145.03" cy="209.81" r="5.18" style="fill:none; stroke:#32406d; stroke-miterlimit:10;"/></g></g></g><g><g><g><path d="m289.94,122.04c2.71.88,4.67,3.44,4.67,6.44v4.82h-13.55v-4.82c0-2.98,1.93-5.51,4.6-6.42" style="fill:#fff;"/><circle cx="287.84" cy="117.45" r="5.18" style="fill:#fff;"/></g><g><path d="m289.94,122.04c2.71.88,4.67,3.44,4.67,6.44v4.82h-13.55v-4.82c0-2.98,1.93-5.51,4.6-6.42" style="fill:none; stroke:#32406d; stroke-miterlimit:10;"/><circle cx="287.84" cy="117.45" r="5.18" style="fill:none; stroke:#32406d; stroke-miterlimit:10;"/></g></g><path d="m288.92,122.46h0c3.74,0,6.78,3.04,6.78,6.78v4.82h-13.55v-4.82c0-3.74,3.04-6.78,6.78-6.78Z" style="fill:#8e9ace;"/><circle cx="288.92" cy="118.21" r="5.18" style="fill:#8e9ace;"/><g><g><path d="m289.94,122.04c2.71.88,4.67,3.44,4.67,6.44v4.82h-13.55v-4.82c0-2.98,1.93-5.51,4.6-6.42" style="fill:none; stroke:#32406d; stroke-miterlimit:10;"/><circle cx="287.84" cy="117.45" r="5.18" style="fill:none; stroke:#32406d; stroke-miterlimit:10;"/></g><g><path d="m289.94,122.04c2.71.88,4.67,3.44,4.67,6.44v4.82h-13.55v-4.82c0-2.98,1.93-5.51,4.6-6.42" style="fill:none; stroke:#32406d; stroke-miterlimit:10;"/><circle cx="287.84" cy="117.45" r="5.18" style="fill:none; stroke:#32406d; stroke-miterlimit:10;"/></g></g></g><g><g><g><path d="m273.65,159.47c2.71.88,4.67,3.44,4.67,6.44v4.82h-13.55v-4.82c0-2.98,1.93-5.51,4.6-6.42" style="fill:#fff;"/><circle cx="271.55" cy="154.88" r="5.18" style="fill:#fff;"/></g><g><path d="m273.65,159.47c2.71.88,4.67,3.44,4.67,6.44v4.82h-13.55v-4.82c0-2.98,1.93-5.51,4.6-6.42" style="fill:none; stroke:#32406d; stroke-miterlimit:10;"/><circle cx="271.55" cy="154.88" r="5.18" style="fill:none; stroke:#32406d; stroke-miterlimit:10;"/></g></g><path d="m272.63,159.89h0c3.74,0,6.78,3.04,6.78,6.78v4.82h-13.55v-4.82c0-3.74,3.04-6.78,6.78-6.78Z" style="fill:#8e9ace;"/><circle cx="272.63" cy="155.64" r="5.18" style="fill:#8e9ace;"/><g><g><path d="m273.65,159.47c2.71.88,4.67,3.44,4.67,6.44v4.82h-13.55v-4.82c0-2.98,1.93-5.51,4.6-6.42" style="fill:none; stroke:#32406d; stroke-miterlimit:10;"/><circle cx="271.55" cy="154.88" r="5.18" style="fill:none; stroke:#32406d; stroke-miterlimit:10;"/></g><g><path d="m273.65,159.47c2.71.88,4.67,3.44,4.67,6.44v4.82h-13.55v-4.82c0-2.98,1.93-5.51,4.6-6.42" style="fill:none; stroke:#32406d; stroke-miterlimit:10;"/><circle cx="271.55" cy="154.88" r="5.18" style="fill:none; stroke:#32406d; stroke-miterlimit:10;"/></g></g></g><g><g><g><path d="m150.69,117.08c2.71.88,4.67,3.44,4.67,6.44v4.82h-13.55v-4.82c0-2.98,1.93-5.51,4.6-6.42" style="fill:#fff;"/><circle cx="148.59" cy="112.5" r="5.18" style="fill:#fff;"/></g><g><path d="m150.69,117.08c2.71.88,4.67,3.44,4.67,6.44v4.82h-13.55v-4.82c0-2.98,1.93-5.51,4.6-6.42" style="fill:none; stroke:#32406d; stroke-miterlimit:10;"/><circle cx="148.59" cy="112.5" r="5.18" style="fill:none; stroke:#32406d; stroke-miterlimit:10;"/></g></g><path d="m149.67,117.51h0c3.74,0,6.78,3.04,6.78,6.78v4.82h-13.55v-4.82c0-3.74,3.04-6.78,6.78-6.78Z" style="fill:#8e9ace;"/><circle cx="149.67" cy="113.26" r="5.18" style="fill:#8e9ace;"/><g><g><path d="m150.69,117.08c2.71.88,4.67,3.44,4.67,6.44v4.82h-13.55v-4.82c0-2.98,1.93-5.51,4.6-6.42" style="fill:none; stroke:#32406d; stroke-miterlimit:10;"/><circle cx="148.59" cy="112.5" r="5.18" style="fill:none; stroke:#32406d; stroke-miterlimit:10;"/></g><g><path d="m150.69,117.08c2.71.88,4.67,3.44,4.67,6.44v4.82h-13.55v-4.82c0-2.98,1.93-5.51,4.6-6.42" style="fill:none; stroke:#32406d; stroke-miterlimit:10;"/><circle cx="148.59" cy="112.5" r="5.18" style="fill:none; stroke:#32406d; stroke-miterlimit:10;"/></g></g></g><g><g><g><path d="m199.85,165.88c2.71.88,4.67,3.44,4.67,6.44v4.82h-13.55v-4.82c0-2.98,1.93-5.51,4.6-6.42" style="fill:#fff;"/><circle cx="197.75" cy="161.3" r="5.18" style="fill:#fff;"/></g><g><path d="m199.85,165.88c2.71.88,4.67,3.44,4.67,6.44v4.82h-13.55v-4.82c0-2.98,1.93-5.51,4.6-6.42" style="fill:none; stroke:#32406d; stroke-miterlimit:10;"/><circle cx="197.75" cy="161.3" r="5.18" style="fill:none; stroke:#32406d; stroke-miterlimit:10;"/></g></g><path d="m198.83,166.31h0c3.74,0,6.78,3.04,6.78,6.78v4.82h-13.55v-4.82c0-3.74,3.04-6.78,6.78-6.78Z" style="fill:#8e9ace;"/><circle cx="198.83" cy="162.05" r="5.18" style="fill:#8e9ace;"/><g><g><path d="m199.85,165.88c2.71.88,4.67,3.44,4.67,6.44v4.82h-13.55v-4.82c0-2.98,1.93-5.51,4.6-6.42" style="fill:none; stroke:#32406d; stroke-miterlimit:10;"/><circle cx="197.75" cy="161.3" r="5.18" style="fill:none; stroke:#32406d; stroke-miterlimit:10;"/></g><g><path d="m199.85,165.88c2.71.88,4.67,3.44,4.67,6.44v4.82h-13.55v-4.82c0-2.98,1.93-5.51,4.6-6.42" style="fill:none; stroke:#32406d; stroke-miterlimit:10;"/><circle cx="197.75" cy="161.3" r="5.18" style="fill:none; stroke:#32406d; stroke-miterlimit:10;"/></g></g></g><path d="m363.02,308.75l26.6,42.46c2.95,5.6-1.46,13.72-9.85,18.15h0c-8.39,4.43-17.59,3.48-20.54-2.12l-40.83-96.4,15.69-8.28,28.94,46.19" style="fill:#fff;"/><path d="m381.58,370.66h0c-8.39,4.43-17.59,3.48-20.54-2.12l-40.83-96.4,15.69-8.28,55.53,88.65c2.95,5.6-1.46,13.72-9.85,18.15Z" style="fill:#fdebec; fill-rule:evenodd;"/><g style="clip-path:url(#n);"><circle cx="305.84" cy="227.09" r="76.71" style="fill:#fff;"/></g><path d="m379.77,369.35h0c-8.39,4.43-17.59,3.48-20.54-2.12l-40.83-96.4,15.69-8.28,55.53,88.65c2.95,5.6-1.46,13.72-9.85,18.15Z" style="fill:none; fill-rule:evenodd; stroke:#32406d; stroke-miterlimit:10;"/><g><g style="clip-path:url(#o);"><circle cx="304.02" cy="225.78" r="76.71" style="fill:none; stroke:#32406d; stroke-miterlimit:10;"/></g><path d="m363.02,308.75l26.6,42.46c2.95,5.6-1.46,13.72-9.85,18.15h0c-8.39,4.43-17.59,3.48-20.54-2.12l-40.83-96.4,15.69-8.28,28.94,46.19" style="fill:none; fill-rule:evenodd; stroke:#32406d; stroke-miterlimit:10;"/></g><path d="m332.94,280.58c-7.64,4.03-15.85,5.94-23.93,5.94-18.44,0-36.26-9.96-45.47-27.4-13.23-25.1-3.63-56.16,21.46-69.4,7.64-4.03,15.85-5.94,23.92-5.94h0c18.45,0,36.26,9.96,45.47,27.41,13.24,25.09,3.63,56.16-21.46,69.4Z" style="fill:none; fill-rule:evenodd; stroke:#32406d; stroke-miterlimit:10;"/><path d="m356.75,209.94c-9.38-17.78-27.71-28.83-47.83-28.83-8.72,0-17.42,2.17-25.18,6.26-12.76,6.73-22.14,18.03-26.4,31.82-4.26,13.79-2.91,28.41,3.83,41.18,9.38,17.79,27.71,28.83,47.83,28.83,8.72,0,17.42-2.16,25.17-6.25,12.77-6.74,22.14-18.04,26.41-31.83,4.26-13.79,2.91-28.41-3.83-41.18Zm-23.82,70.64c-7.64,4.03-15.85,5.94-23.93,5.94-18.44,0-36.26-9.96-45.47-27.4-13.23-25.1-3.63-56.16,21.46-69.4,7.64-4.03,15.85-5.94,23.92-5.94h0c18.45,0,36.26,9.96,45.47,27.41,13.24,25.09,3.63,56.16-21.46,69.4Z" style="fill:#32406d;"/><path d="m332.94,280.58c-7.64,4.03-15.85,5.94-23.93,5.94-18.44,0-36.26-9.96-45.47-27.4-13.23-25.1-3.63-56.16,21.46-69.4,7.64-4.03,15.85-5.94,23.92-5.94h0c18.45,0,36.26,9.96,45.47,27.41,13.24,25.09,3.63,56.16-21.46,69.4Z" style="fill:#fff;"/><g><path d="m341.58,236.97c-.6.73-14.26,18.53-31.45,18.53s-30.85-17.79-31.45-18.53c-.33-.4-.33-.93,0-1.33.6-.73,14.26-18.53,31.45-18.53s30.85,17.79,31.45,18.53c.27.4.27.93,0,1.33Z" style="fill:#ef4d7f;"/><circle cx="310.1" cy="236.3" r="12.02" style="fill:#fff;"/><circle cx="310.1" cy="236.3" r="4.28" style="fill:#ef4d7f;"/></g><g><path d="m340.26,236.23c-.6.73-14.26,18.53-31.45,18.53s-30.85-17.79-31.45-18.53c-.33-.4-.33-.93,0-1.33.6-.73,14.26-18.53,31.45-18.53s30.85,17.79,31.45,18.53c.27.4.27.93,0,1.33Z" style="fill:none; stroke:#32406d; stroke-miterlimit:10;"/><circle cx="308.78" cy="235.57" r="12.02" style="fill:none; stroke:#32406d; stroke-miterlimit:10;"/><path d="m308.78,234.29c.71,0,1.28.57,1.28,1.28s-.57,1.28-1.28,1.28-1.28-.57-1.28-1.28.57-1.28,1.28-1.28m0-3c-2.36,0-4.28,1.92-4.28,4.28s1.92,4.28,4.28,4.28,4.28-1.92,4.28-4.28-1.92-4.28-4.28-4.28h0Z" style="fill:#32406d;"/></g><polygon points="94.43 244.44 37.51 244.44 37.51 187.52 94.43 187.52 94.43 235.53 94.43 244.44" style="fill:#fff;"/><rect x="38.69" y="189.89" width="56.92" height="56.92" style="fill:#f6a7b5;"/><polygon points="94.43 244.44 37.51 244.44 37.51 187.52 94.43 187.52 94.43 235.53 94.43 244.44" style="fill:none; fill-rule:evenodd; stroke:#32406d; stroke-miterlimit:10;"/><polygon points="132.36 196.03 66.56 196.03 66.56 130.23 132.36 130.23 132.36 185.73 132.36 196.03" style="fill:#fff;"/><rect x="67.93" y="132.97" width="65.8" height="65.8" style="fill:#fac9d0;"/><polygon points="132.36 196.03 66.56 196.03 66.56 130.23 132.36 130.23 132.36 185.73 132.36 196.03" style="fill:none; fill-rule:evenodd; stroke:#32406d; stroke-miterlimit:10;"/><polyline points="83.31 165.53 95.62 177.85 122.13 151.34" style="fill:none; fill-rule:evenodd; stroke:#fff; stroke-miterlimit:10; stroke-width:4px;"/><g><path d="m80.22,163.59l3.11-3.11,10.05,10.05c.1.1.23.15.35.15s.26-.05.35-.15l24.25-24.24,3.11,3.11-27.71,27.71-13.51-13.51Z" style="fill:#ef4d7f;"/><path d="m118.33,146.98l2.41,2.41-27,27-12.81-12.81,2.41-2.41,9.69,9.69c.2.2.45.29.71.29s.51-.1.71-.29l23.89-23.89m0-1.41l-24.6,24.6-10.4-10.4-3.82,3.82,14.22,14.22,28.42-28.42-3.82-3.82h0Z" style="fill:#ef4d7f;"/></g><rect x="26.67" y="91.95" width="65.8" height="65.8" style="fill:#fdebec;"/><line x1="34.67" y1="111.44" x2="83.58" y2="111.44" style="fill:#aeadc1; stroke:#fff; stroke-miterlimit:10; stroke-width:4px;"/><line x1="34.67" y1="122.94" x2="61.18" y2="122.94" style="fill:#aeadc1; stroke:#fff; stroke-miterlimit:10; stroke-width:4px;"/><line x1="33.99" y1="135.13" x2="73.13" y2="134.45" style="fill:#aeadc1; stroke:#fff; stroke-miterlimit:10; stroke-width:4px;"/><polygon points="91.1 155.01 25.3 155.01 25.3 89.21 91.1 89.21 91.1 144.72 91.1 155.01" style="fill:none; fill-rule:evenodd; stroke:#32406d; stroke-miterlimit:10;"/><line x1="33.99" y1="109.4" x2="82.89" y2="109.4" style="fill:none; stroke:#ef4d7f; stroke-miterlimit:10; stroke-width:3px;"/><line x1="33.99" y1="121.24" x2="60.49" y2="121.24" style="fill:none; stroke:#ef4d7f; stroke-miterlimit:10; stroke-width:3px;"/><line x1="33.99" y1="133.08" x2="72.45" y2="133.08" style="fill:none; stroke:#ef4d7f; stroke-miterlimit:10; stroke-width:3px;"/><line x1="81.65" y1="205.42" x2="53.29" y2="233.77" style="fill:none; stroke:#fff; stroke-linejoin:round; stroke-width:3px;"/><line x1="81.65" y1="233.77" x2="53.29" y2="205.42" style="fill:none; stroke:#fff; stroke-linejoin:round; stroke-width:3px;"/><g><polygon points="66.56 218.7 53.95 231.32 51.53 228.92 64.16 216.3 51.54 203.68 53.94 201.26 66.56 213.89 79.18 201.28 81.59 203.67 68.97 216.3 81.58 228.91 79.19 231.33 66.56 218.7" style="fill:#ef4d7f;"/><path d="m53.94,201.97l11.92,11.92.71.71.71-.71,11.91-11.91,1.7,1.69-11.92,11.92-.71.71.71.71,11.91,11.91-1.69,1.71-11.92-11.92-.71-.71-.71.71-11.91,11.91-1.71-1.69,11.92-11.92.71-.71-.71-.71-11.91-11.91,1.69-1.7m0-1.42l-3.1,3.13,12.61,12.61-12.63,12.63,3.13,3.1,12.61-12.61,12.63,12.63,3.1-3.13-12.61-12.61,12.63-12.63-3.13-3.1-12.61,12.61-12.63-12.63h0Z" style="fill:#ef4d7f;"/></g></svg>