<?xml version="1.0" encoding="UTF-8"?><svg xmlns="http://www.w3.org/2000/svg" xmlns:xlink="http://www.w3.org/1999/xlink" viewBox="0 0 419.53 595.28"><defs><clipPath id="g"><circle cx="210.9" cy="139.89" r="114.65" style="fill:none;"/></clipPath><clipPath id="k"><path d="m113.99,545.72h0c-10.01-5.3-15.25-15-11.72-21.67l67.57-105.05,18.71,9.9-50.04,114.32c-3.53,6.67-14.5,7.79-24.51,2.49Z" style="clip-rule:evenodd; fill:none;"/></clipPath><clipPath id="l"><path d="m162.53,485.81l-23.97,54.75c-3.53,6.67-14.5,7.79-24.51,2.49h0c-10.01-5.3-15.25-15-11.72-21.67l67.57-105.05,18.71,9.9-26.08,59.57" style="clip-rule:evenodd; fill:none; stroke:#32406d; stroke-miterlimit:10;"/></clipPath></defs><g id="f"><g><circle cx="210.9" cy="132.22" r="79.77" style="fill:#fac9d0;"/><g style="clip-path:url(#g);"><g><circle cx="210.57" cy="131.78" r="78.22" style="fill:none; stroke:#fff; stroke-miterlimit:10;"/><circle cx="210.57" cy="131.78" r="74.31" style="fill:none; stroke:#fff; stroke-miterlimit:10;"/><circle cx="210.57" cy="131.78" r="70.59" style="fill:none; stroke:#fff; stroke-miterlimit:10;"/><circle cx="210.57" cy="131.78" r="67.06" style="fill:none; stroke:#fff; stroke-miterlimit:10;"/><circle cx="210.57" cy="131.78" r="63.71" style="fill:none; stroke:#fff; stroke-miterlimit:10;"/><circle cx="210.57" cy="131.78" r="60.52" style="fill:none; stroke:#fff; stroke-miterlimit:10;"/><circle cx="210.57" cy="131.78" r="57.5" style="fill:none; stroke:#fff; stroke-miterlimit:10;"/><circle cx="210.57" cy="131.78" r="54.62" style="fill:none; stroke:#fff; stroke-miterlimit:10;"/><circle cx="210.57" cy="131.78" r="51.89" style="fill:none; stroke:#fff; stroke-miterlimit:10;"/><circle cx="210.57" cy="131.78" r="49.3" style="fill:none; stroke:#fff; stroke-miterlimit:10;"/><circle cx="210.57" cy="131.78" r="46.83" style="fill:none; stroke:#fff; stroke-miterlimit:10;"/><circle cx="210.57" cy="131.78" r="44.49" style="fill:none; stroke:#fff; stroke-miterlimit:10;"/><circle cx="210.57" cy="131.78" r="42.27" style="fill:none; stroke:#fff; stroke-miterlimit:10;"/><circle cx="210.57" cy="131.78" r="40.15" style="fill:none; stroke:#fff; stroke-miterlimit:10;"/><circle cx="210.57" cy="131.78" r="38.14" style="fill:none; stroke:#fff; stroke-miterlimit:10;"/><circle cx="210.57" cy="131.78" r="82.33" style="fill:none; stroke:#fff; stroke-miterlimit:10;"/></g></g></g><g><path d="m130.18,181.81c-28.21,0-51.07,22.87-51.07,51.07,0,28.21,22.87,51.07,51.07,51.07" style="fill:none; stroke:#32406d; stroke-miterlimit:10; stroke-width:3px;"/><line x1="129.73" y1="181.81" x2="231.44" y2="181.81" style="fill:none; stroke:#32406d; stroke-miterlimit:10; stroke-width:3px;"/></g><path d="m333.75,336.24l-1.58-2.55,10.2-6.32,1.58,2.55-10.2,6.32Zm20.41-12.63l-1.58-2.55,4.47-2.77c1.61-.99,3.17-2.09,4.65-3.25l1.86,2.36c-1.45,1.14-2.98,2.22-4.54,3.21h0s-.01,0-.01,0l-4.84,3Zm18.11-14.93l-2.36-1.86c2.4-3.04,4.44-6.38,6.06-9.91l2.73,1.25c-1.72,3.75-3.89,7.28-6.43,10.51Zm10.24-22.23l-2.94-.59c.64-3.21.97-6.49.97-9.76,0-.61-.01-1.21-.03-1.82l3-.11c.02.64.04,1.29.04,1.93,0,3.46-.35,6.95-1.03,10.35Zm-3.8-23.65c-1.04-3.73-2.53-7.34-4.43-10.74l2.62-1.46c2.01,3.61,3.59,7.44,4.7,11.39l-2.89.81Zm-11.22-20.17c-2.62-2.86-5.58-5.42-8.8-7.58l1.68-2.49c3.42,2.3,6.56,5.01,9.34,8.05l-2.21,2.03Zm-19.13-12.9c-3.64-1.36-7.43-2.29-11.29-2.77l.37-2.98c4.08.51,8.11,1.5,11.96,2.94l-1.05,2.81Z" style="fill:#fac9d0;"/><path d="m332.75,335.24l-1.58-2.55,10.2-6.32,1.58,2.55-10.2,6.32Zm20.41-12.63l-1.58-2.55,4.47-2.77s0,0,0,0h.01c1.6-1,3.16-2.09,4.63-3.25l1.86,2.36c-1.45,1.14-2.97,2.22-4.54,3.21h0s-.02.01-.02.01l-4.83,2.99Zm18.11-14.93l-2.36-1.86c2.4-3.05,4.44-6.38,6.06-9.91l2.73,1.25c-1.72,3.75-3.89,7.28-6.43,10.51Zm10.24-22.23l-2.94-.59c.64-3.21.97-6.5.97-9.76,0-.61-.01-1.21-.03-1.82l3-.11c.02.64.04,1.29.04,1.93,0,3.46-.35,6.95-1.03,10.35Zm-3.8-23.65c-1.04-3.73-2.53-7.34-4.43-10.74l2.62-1.46c2.01,3.61,3.59,7.44,4.7,11.39l-2.89.81Zm-11.22-20.17c-2.62-2.86-5.58-5.42-8.8-7.58l1.68-2.49c3.42,2.3,6.56,5.01,9.34,8.05l-2.21,2.03Zm-19.13-12.9c-3.64-1.36-7.43-2.29-11.29-2.77l.37-2.98c4.08.51,8.11,1.5,11.96,2.94l-1.05,2.81Z" style="fill:none; stroke:#32406d; stroke-miterlimit:10;"/></g><g id="j"><g><polygon points="225.54 216.55 197.97 216.55 194.58 191.56 228.93 191.56 225.54 216.55" style="fill:#fac9d0;"/><path d="m257.51,138.5c0,10.13-8.29,25.78-14.36,35.89-3.51,5.85-6.3,9.86-6.3,9.86,0,.86-.11,2.01-.32,3.31-1.1,6.8-4.87,18.06-9.37,18.06h-30.82c-4.49,0-8.26-11.26-9.37-18.06-.22-1.31-.32-2.45-.32-3.31,0,0-2.77-4.01-6.3-9.86-6.07-10.11-14.35-25.76-14.35-35.89,0-25.26,20.48-45.74,45.74-45.74s45.76,20.48,45.76,45.74Z" style="fill:#fff;"/><path d="m243.15,174.4c-3.51,5.85-6.3,9.86-6.3,9.86,0,.86-.11,2.01-.32,3.31h-49.55c-.22-1.31-.32-2.45-.32-3.31,0,0-2.77-4.01-6.3-9.86h62.79Z" style="fill:#fff;"/><polyline points="225.09 203.68 223.61 214.62 196.04 214.62 194.56 203.68" style="fill:none; stroke:#32406d; stroke-miterlimit:10;"/><path d="m253.62,121.68c-.34-1.01-.72-2-1.13-2.98-7.01-16.65-23.5-28.37-42.67-28.37s-35.57,11.66-42.6,28.25c-.57,1.36-1.08,2.75-1.54,4.17-1.36,4.37-2.1,9.01-2.1,13.82,0,10.04,7.84,25.2,14.42,36.15,3.14,5.23,5.72,9.03,6.22,9.77.02.88.13,1.99.33,3.23.98,6.03,4.68,18.48,9.86,18.48h30.82c5.18,0,8.88-12.45,9.86-18.48.2-1.23.32-2.35.33-3.23.5-.74,3.09-4.54,6.23-9.77,6.58-10.96,14.43-26.13,14.43-36.15,0-5.21-.87-10.21-2.46-14.89Zm-12.83,50.53c-3.46,5.77-6.25,9.79-6.28,9.83l-.09.13v.16c0,.86-.11,1.97-.31,3.23-1.21,7.4-4.96,17.64-8.88,17.64h-30.82c-3.87,0-7.7-10.43-8.87-17.64-.21-1.26-.32-2.38-.32-3.23v-.16l-.09-.13s-2.8-4.06-6.28-9.83c-5.33-8.88-14.27-25.31-14.27-35.64,0-5.07.84-9.95,2.38-14.5.27-.78.55-1.55.86-2.31,6.69-16.64,23-28.43,42-28.43s35.43,11.86,42.08,28.58c.15.37.29.75.43,1.12,1.78,4.85,2.75,10.08,2.75,15.54,0,9.79-7.77,24.78-14.29,35.64Z" style="fill:#32406d;"/><path d="m241.22,172.47c-3.51,5.85-6.3,9.86-6.3,9.86,0,.86-.11,2.01-.32,3.31h-49.55c-.22-1.31-.32-2.45-.32-3.31,0,0-2.77-4.01-6.3-9.86h62.79Z" style="fill:#32406d; stroke:#32406d; stroke-miterlimit:10;"/></g><g><path d="m110.92,335.5l5.14,10.94c10.31,16.47,29.72,24.74,48.64,20.91-1.39-4.41-1.51-10.25-1.51-12.08,0-2.99.45-5.94,1.32-8.76-7.21-1.34-12.5-7.63-12.5-15.09,0-4.75,2.14-9.15,5.87-12.08l1.26,1.59c-3.25,2.54-5.1,6.37-5.1,10.49,0,6.58,4.73,12.1,11.13,13.15,1.67-4.34,4.33-8.29,7.84-11.48l1.36,1.5c-5.82,5.29-9.15,12.82-9.15,20.67,0,3.83.45,8.96,1.69,12.27,0,.01,0,.03.02.03,5.31,9.6,14.7,16.28,25.55,18.13,11.08,1.88,22.41-1.52,30.63-9.18,3.16.95,6.39,1.6,9.66,1.96h.01c15.32-1.61,28.22-15.3,28.22-29.96h2.03c0,14.82-12.33,28.71-27.48,31.59,3.11,9.72,11.17,15.79,27.3,21.2,4.56,1.43,8.62,4.1,11.73,7.72,3.46,4.12,8.55,6.51,13.92,6.54,2.35,0,4.68-.47,6.84-1.4,6.53-2.79,10.77-9.2,10.77-16.3,0-1.86-.29-3.69-.88-5.45-1.09-3.44-2.49-6.78-4.16-9.98-4.72,2.63-11.56,4.32-17.65,4.32v-2.03c5.97,0,12.68-1.71,17.1-4.31.01,0,.03-.01.03-.02,9.09-6.68,15.56-16.31,18.31-27.23-4.39,2.19-9.9,3.52-15.13,3.62-2.9,2.86-6.73,4.41-10.75,4.41-.62,0-1.24-.03-1.87-.11l.24-2c4.09.49,8.11-.9,11.02-3.81,4.84-4.83,5.25-12.48.95-17.79l1.57-1.28c4.38,5.42,4.52,12.95.61,18.48,5.41-.39,10.93-2.12,14.86-4.7,2.19-3.09,3.55-6.72,4.07-10.5.99-7.15,2.4-21.68-1.3-28.3,0-.01-.01-.03-.03-.04-1.21,2.97-3.02,5.76-5.43,8.17l-1.43-1.43c8.88-8.88,8.88-23.32,0-32.19-8.88-8.88-23.32-8.88-32.19,0l-1.43-1.43c6.12-6.12,14.66-8.36,22.55-6.74-4.68-22.58-24.53-38.9-47.69-39.04-.2,0-.4,0-.59.03,2.18,3.63,3.43,7.88,3.43,12.41h-2.03c0-12.25-9.96-22.21-22.21-22.21s-22.21,9.96-22.21,22.21h-2.03c0-6.78,2.8-12.93,7.31-17.33-6.21-3.83-13.37-5.86-20.68-5.87-12.15.05-23.61,5.62-31.15,15.13,0,0,0,0,0,0-3.12,5.24-3.87,12.95-1.86,19.39l-1.94.61c-2.05-6.6-1.41-14.49,1.57-20.15-7.8-1.69-16-.05-22.58,4.58-6.82,4.79-11.2,12.21-12.04,20.45,3.15-1.37,6.64-2.13,10.29-2.13,6.51,0,12.73,2.43,17.52,6.83l-1.37,1.49c-4.41-4.06-10.15-6.3-16.15-6.3-13.17,0-23.88,10.71-23.88,23.88,0,8.43,4.31,16.08,11.54,20.45l-1.05,1.73c-6.16-3.73-10.37-9.65-11.89-16.46-7.12,11.48-8.71,25.32-4.57,38.26Zm81.49,2.39l1.1-1.7c9.26,6,21.06,5.77,30.01-.41-10.68-2.88-19.74-10.94-23.39-22.22l1.93-.62c5.38,16.65,23.31,25.83,39.97,20.44,16.65-5.38,25.83-23.32,20.44-39.97l1.93-.62c2.77,8.58,2.04,17.73-2.07,25.76-4.1,8.03-11.09,13.99-19.68,16.76-3.44,1.11-6.93,1.64-10.36,1.64-2.09,0-4.14-.2-6.16-.58-5.24,4.13-11.56,6.21-17.9,6.21-5.47,0-10.97-1.55-15.82-4.69Zm-7.07-59.5c6.08-4.6,14.09-6.08,21.42-3.95l-.57,1.94c-6.82-1.98-13.97-.66-19.63,3.62-7.44,5.64-10.58,15.42-7.79,24.33l-1.94.61c-3.03-9.73.38-20.39,8.51-26.55Z" style="fill:#f6a7b5;"/><g><path d="m320.13,307.43c2.48-6.43,2.02-13.64-1.27-19.71-3.28-6.07-9.06-10.39-15.81-11.83-4.31-23.09-24.4-39.87-47.89-40.01-.57,0-1.09.07-1.63.09-3.75-5.89-9.94-9.8-16.88-10.67-6.93-.86-13.89,1.42-18.97,6.21-6.41-4.17-13.88-6.38-21.51-6.39-12.3.05-23.9,5.76-31.44,15.48-8.38-2.44-17.4-.94-24.54,4.08-7.14,5.02-11.6,12.89-12.14,21.6-8.79,3.69-14.51,12.42-14.52,21.96.02,1.65.04,3.56.41,5.17-7.78,11.72-9.65,26.09-5.36,39.49l5.14,10.94c10.65,17.02,31.03,25.28,50.52,20.49,5.24,9.94,14.81,16.88,25.9,18.76,11.08,1.88,22.41-1.52,30.63-9.18,3.92,1.17,7.95,1.9,12.02,2.18,2.78,10.55,10.82,16.94,27.72,22.61,4.56,1.43,8.62,4.1,11.73,7.72,3.46,4.12,8.55,6.51,13.92,6.54,2.35,0,4.68-.47,6.84-1.4,6.53-2.79,10.77-9.2,10.77-16.3,0-1.86-.29-3.69-.88-5.45-1.3-4.07-3-7.99-5.09-11.72,9.8-7.04,16.62-17.48,19.14-29.28h0s.04-.05.06-.07c2.82-3.36,4.52-7.52,5.12-11.86.99-7.15,2.4-21.68-1.31-28.3-.22-.39-.45-.78-.68-1.16Z" style="fill:none; stroke:#32406d; stroke-miterlimit:10;"/><path d="m164.17,364.03c-1.49-3.49-2.31-7.32-2.31-11.35,0-8.49,3.66-16.13,9.48-21.42" style="fill:none; stroke:#32406d; stroke-miterlimit:10;"/><path d="m163.5,343.1c-7.21-.76-12.82-6.86-12.82-14.26,0-4.58,2.15-8.66,5.49-11.29" style="fill:none; stroke:#32406d; stroke-miterlimit:10;"/><path d="m301.78,334.25c4.56,5.63,4.22,13.91-1.02,19.15-3.24,3.24-7.64,4.61-11.86,4.1" style="fill:none; stroke:#32406d; stroke-miterlimit:10;"/><path d="m125.57,310.23c-7.21-4.36-12.03-12.27-12.03-21.31,0-13.75,11.14-24.89,24.89-24.89,6.49,0,12.41,2.49,16.84,6.56" style="fill:none; stroke:#32406d; stroke-miterlimit:10;"/><path d="m210.54,248.33c0-12.83,10.4-23.22,23.22-23.22s23.22,10.4,23.22,23.22" style="fill:none; stroke:#32406d; stroke-miterlimit:10;"/><path d="m281.02,282.38c9.29-9.29,24.34-9.29,33.63,0s9.29,24.34,0,33.63" style="fill:none; stroke:#32406d; stroke-miterlimit:10;"/><path d="m175.47,302.04c-2.84-9.08.13-19.36,8.15-25.44,6.09-4.61,13.71-5.76,20.52-3.79" style="fill:none; stroke:#32406d; stroke-miterlimit:10;"/><path d="m162.18,259.96c-2.03-6.5-1.09-13.61,2.55-19.35" style="fill:none; stroke:#32406d; stroke-miterlimit:10;"/><path d="m261.11,290.5c5.56,17.22-3.88,35.68-21.1,41.25-17.22,5.56-35.68-3.88-41.25-21.1" style="fill:none; stroke:#32406d; stroke-miterlimit:10;"/><path d="m223.53,332.71c-9.18,7.44-22.45,8.51-32.9,1.74" style="fill:none; stroke:#32406d; stroke-miterlimit:10;"/><path d="m259.69,345.92c0,15.64-11.95,28.63-27.18,30.17" style="fill:none; stroke:#32406d; stroke-miterlimit:10;"/><path d="m297.79,378.11c-4.79,3.18-10.53,5.03-16.71,5.03" style="fill:none; stroke:#32406d; stroke-miterlimit:10;"/><path d="m317.51,348.16c-4.79,3.18-10.53,5.03-16.71,5.03" style="fill:none; stroke:#32406d; stroke-miterlimit:10;"/></g></g><g><g><path d="m162.53,485.81l-23.97,54.75c-3.53,6.67-14.5,7.79-24.51,2.49h0c-10.01-5.3-15.25-15-11.72-21.67l67.57-105.05,18.71,9.9-26.08,59.57" style="fill:#fff;"/><path d="m113.99,545.72h0c-10.01-5.3-15.25-15-11.72-21.67l67.57-105.05,18.71,9.9-50.04,114.32c-3.53,6.67-14.5,7.79-24.51,2.49Z" style="fill:#fdebec; fill-rule:evenodd;"/><g style="clip-path:url(#k);"><circle cx="204.58" cy="374.55" r="91.51" style="fill:#fff;"/></g><path d="m114.06,543.06h0c-10.01-5.3-15.25-15-11.72-21.67l67.57-105.05,18.71,9.9-50.04,114.32c-3.53,6.67-14.5,7.79-24.51,2.49Z" style="fill:none; fill-rule:evenodd; stroke:#32406d; stroke-miterlimit:10;"/><g><g style="clip-path:url(#l);"><circle cx="204.64" cy="371.89" r="91.51" style="fill:none; stroke:#32406d; stroke-miterlimit:10;"/></g><path d="m162.53,485.81l-23.97,54.75c-3.53,6.67-14.5,7.79-24.51,2.49h0c-10.01-5.3-15.25-15-11.72-21.67l67.57-105.05,18.71,9.9-26.08,59.57" style="fill:none; fill-rule:evenodd; stroke:#32406d; stroke-miterlimit:10;"/></g><path d="m170.07,437.22c-9.11-4.82-16.51-11.62-21.94-19.59-12.39-18.17-14.57-42.44-3.56-63.24,15.84-29.91,52.92-41.33,82.83-25.5,9.11,4.82,16.51,11.62,21.94,19.58h0c12.4,18.19,14.56,42.45,3.55,63.24-15.83,29.92-52.91,41.33-82.82,25.5Z" style="fill:none; fill-rule:evenodd; stroke:#32406d; stroke-miterlimit:10;"/><path d="m255.71,413.21c11.22-21.2,9.79-46.69-3.74-66.52-5.86-8.59-13.84-15.71-23.09-20.61-15.21-8.05-32.65-9.7-49.11-4.63-16.46,5.06-29.96,16.24-38.01,31.46-11.23,21.2-9.79,46.69,3.74,66.52,5.86,8.59,13.84,15.72,23.08,20.61,15.22,8.06,32.67,9.7,49.12,4.63,16.46-5.06,29.95-16.23,38.01-31.46Zm-85.64,24.01c-9.11-4.82-16.51-11.62-21.94-19.59-12.39-18.17-14.57-42.44-3.56-63.24,15.84-29.91,52.92-41.33,82.83-25.5,9.11,4.82,16.51,11.62,21.94,19.58h0c12.4,18.19,14.56,42.45,3.55,63.24-15.83,29.92-52.91,41.33-82.82,25.5Z" style="fill:#32406d;"/><path d="m170.07,437.22c-9.11-4.82-16.51-11.62-21.94-19.59-12.39-18.17-14.57-42.44-3.56-63.24,15.84-29.91,52.92-41.33,82.83-25.5,9.11,4.82,16.51,11.62,21.94,19.58h0c12.4,18.19,14.56,42.45,3.55,63.24-15.83,29.92-52.91,41.33-82.82,25.5Z" style="fill:#fff;"/></g><path d="m173.24,362c6.46-15.09,17.61-21.36,36.7-17.75,17.84,3.37,28.38,16.34,25.46,31.81-3.5,18.54-18.12,20.25-29.69,18.06l-1.42,7.53-17.84-3.37,3.53-18.68,7.39,1.4c9.48,1.79,14.22.38,15.72-7.57,1.11-5.85-2.11-10.22-7.96-11.32-7.94-1.5-11.77,2.68-13.69,10.55l-18.2-10.66Zm21.18,42.98c7.25,1.37,11.84,6.86,10.5,13.97-1.32,6.97-7.6,10.4-14.84,9.03-6.97-1.32-11.56-6.81-10.24-13.77,1.34-7.11,7.62-10.54,14.59-9.22Z" style="fill:#ef4d7f;"/><path d="m171.02,358.76c6.46-15.09,17.61-21.36,36.7-17.75,17.84,3.37,28.38,16.34,25.46,31.81-3.5,18.54-18.12,20.25-29.69,18.06l-1.42,7.53-17.84-3.37,3.53-18.68,7.39,1.4c9.48,1.79,14.22.38,15.72-7.57,1.11-5.85-2.11-10.22-7.96-11.32-7.94-1.5-11.77,2.68-13.69,10.55l-18.2-10.66Zm21.18,42.98c7.25,1.37,11.84,6.86,10.5,13.97-1.32,6.97-7.6,10.4-14.84,9.03-6.97-1.32-11.56-6.81-10.24-13.77,1.34-7.11,7.62-10.54,14.59-9.22Z" style="fill:none; stroke:#32406d; stroke-miterlimit:10;"/></g><g><polygon points="97.89 154.14 80.02 154.14 77.82 137.94 100.08 137.94 97.89 154.14" style="fill:#fac9d0;"/><path d="m118.61,103.56c0,6.57-5.37,16.71-9.31,23.26-2.28,3.79-4.08,6.39-4.08,6.39,0,.56-.07,1.3-.21,2.15-.72,4.4-3.16,11.7-6.07,11.7h-19.97c-2.91,0-5.36-7.3-6.07-11.7-.14-.85-.21-1.59-.21-2.15,0,0-1.8-2.6-4.08-6.39-3.93-6.55-9.3-16.69-9.3-23.26,0-16.37,13.27-29.65,29.65-29.65s29.65,13.27,29.65,29.65Z" style="fill:#fff;"/><path d="m109.3,126.82c-2.28,3.79-4.08,6.39-4.08,6.39,0,.56-.07,1.3-.21,2.15h-32.11c-.14-.85-.21-1.59-.21-2.15,0,0-1.8-2.6-4.08-6.39h40.7Z" style="fill:#fff;"/><polyline points="97.6 145.8 96.64 152.89 78.77 152.89 77.81 145.8" style="fill:none; stroke:#32406d; stroke-miterlimit:10;"/><path d="m116.09,92.65c-.22-.65-.47-1.3-.73-1.93-4.54-10.79-15.23-18.39-27.65-18.39s-23.05,7.56-27.61,18.31c-.37.88-.7,1.78-1,2.7-.88,2.83-1.36,5.84-1.36,8.96,0,6.51,5.08,16.33,9.35,23.43,2.04,3.39,3.71,5.85,4.03,6.33.01.57.08,1.29.21,2.09.64,3.91,3.03,11.98,6.39,11.98h19.97c3.36,0,5.76-8.07,6.39-11.98.13-.8.21-1.52.21-2.09.32-.48,2-2.94,4.04-6.33,4.26-7.1,9.35-16.93,9.35-23.43,0-3.38-.56-6.62-1.59-9.65Zm-8.32,32.75c-2.24,3.74-4.05,6.34-4.07,6.37l-.06.08v.1c0,.56-.07,1.28-.2,2.09-.78,4.8-3.21,11.43-5.76,11.43h-19.97c-2.51,0-4.99-6.76-5.75-11.43-.14-.82-.21-1.54-.21-2.09v-.1l-.06-.08s-1.81-2.63-4.07-6.37c-3.45-5.76-9.25-16.4-9.25-23.1,0-3.29.54-6.45,1.54-9.4.17-.51.36-1,.56-1.5,4.34-10.78,14.91-18.43,27.22-18.43s22.96,7.69,27.27,18.52c.1.24.19.49.28.73,1.15,3.14,1.78,6.53,1.78,10.07,0,6.34-5.04,16.06-9.26,23.1Z" style="fill:#32406d;"/><path d="m108.05,125.57c-2.28,3.79-4.08,6.39-4.08,6.39,0,.56-.07,1.3-.21,2.15h-32.11c-.14-.85-.21-1.59-.21-2.15,0,0-1.8-2.6-4.08-6.39h40.7Z" style="fill:#f6a7b5; stroke:#32406d; stroke-miterlimit:10;"/></g><g><polygon points="331.32 226.16 313.46 226.16 311.26 209.96 333.52 209.96 331.32 226.16" style="fill:#fac9d0;"/><path d="m352.04,175.57c0,6.57-5.37,16.71-9.31,23.26-2.28,3.79-4.08,6.39-4.08,6.39,0,.56-.07,1.3-.21,2.15-.72,4.4-3.16,11.7-6.07,11.7h-19.97c-2.91,0-5.36-7.3-6.07-11.7-.14-.85-.21-1.59-.21-2.15,0,0-1.8-2.6-4.08-6.39-3.93-6.55-9.3-16.69-9.3-23.26,0-16.37,13.27-29.65,29.65-29.65s29.65,13.27,29.65,29.65Z" style="fill:#fff;"/><path d="m342.74,198.84c-2.28,3.79-4.08,6.39-4.08,6.39,0,.56-.07,1.3-.21,2.15h-32.11c-.14-.85-.21-1.59-.21-2.15,0,0-1.8-2.6-4.08-6.39h40.7Z" style="fill:#fff;"/><polyline points="331.03 217.82 330.07 224.91 312.21 224.91 311.24 217.82" style="fill:none; stroke:#32406d; stroke-miterlimit:10;"/><path d="m349.52,164.67c-.22-.65-.47-1.3-.73-1.93-4.54-10.79-15.23-18.39-27.65-18.39s-23.05,7.56-27.61,18.31c-.37.88-.7,1.78-1,2.7-.88,2.83-1.36,5.84-1.36,8.96,0,6.51,5.08,16.33,9.35,23.43,2.04,3.39,3.71,5.85,4.03,6.33.01.57.08,1.29.21,2.09.64,3.91,3.03,11.98,6.39,11.98h19.97c3.36,0,5.76-8.07,6.39-11.98.13-.8.21-1.52.21-2.09.32-.48,2-2.94,4.04-6.33,4.26-7.1,9.35-16.93,9.35-23.43,0-3.38-.56-6.62-1.59-9.65Zm-8.32,32.75c-2.24,3.74-4.05,6.34-4.07,6.37l-.06.08v.1c0,.56-.07,1.28-.2,2.09-.78,4.8-3.21,11.43-5.76,11.43h-19.97c-2.51,0-4.99-6.76-5.75-11.43-.14-.82-.21-1.54-.21-2.09v-.1l-.06-.08s-1.81-2.63-4.07-6.37c-3.45-5.76-9.25-16.4-9.25-23.1,0-3.29.54-6.45,1.54-9.4.17-.51.36-1,.56-1.5,4.34-10.78,14.91-18.43,27.22-18.43s22.96,7.69,27.27,18.52c.1.24.19.49.28.73,1.15,3.14,1.78,6.53,1.78,10.07,0,6.34-5.04,16.06-9.26,23.1Z" style="fill:#32406d;"/><path d="m341.49,197.59c-2.28,3.79-4.08,6.39-4.08,6.39,0,.56-.07,1.3-.21,2.15h-32.11c-.14-.85-.21-1.59-.21-2.15,0,0-1.8-2.6-4.08-6.39h40.7Z" style="fill:#f6a7b5; stroke:#32406d; stroke-miterlimit:10;"/></g></g></svg>