<?xml version="1.0" encoding="UTF-8"?><svg xmlns="http://www.w3.org/2000/svg" viewBox="0 0 419.53 595.28"><g id="c"><line x1="81.17" y1="228.8" x2="182.88" y2="228.8" style="fill:none; stroke:#fac9d0; stroke-miterlimit:10; stroke-width:3px;"/><path d="m93.79,227.21c-28.21,0-51.07,22.87-51.07,51.07,0,28.21,22.87,51.07,51.07,51.07" style="fill:none; stroke:#fac9d0; stroke-miterlimit:10; stroke-width:3px;"/><path d="m91.72,227.21c-28.21,0-51.07,22.87-51.07,51.07s22.87,51.07,51.07,51.07" style="fill:none; stroke:#32406d; stroke-miterlimit:10; stroke-width:3px;"/><line x1="91.27" y1="227.21" x2="192.98" y2="227.21" style="fill:none; stroke:#32406d; stroke-miterlimit:10; stroke-width:3px;"/></g><g id="f"><g><g><path d="m263.4,373.62h0c11.61,0,21.03,9.42,21.03,21.03v14.95h-42.06v-14.95c0-11.61,9.42-21.03,21.03-21.03Z" style="fill:#fac9d0; stroke:#fff; stroke-miterlimit:10;"/><circle cx="263.4" cy="360.42" r="16.09" style="fill:#fac9d0; stroke:#fff; stroke-miterlimit:10;"/></g><g><path d="m311.98,373.62h0c11.61,0,21.03,9.42,21.03,21.03v14.95h-42.06v-14.95c0-11.61,9.42-21.03,21.03-21.03Z" style="fill:#fac9d0; stroke:#fff; stroke-miterlimit:10;"/><circle cx="311.98" cy="360.42" r="16.09" style="fill:#fac9d0; stroke:#fff; stroke-miterlimit:10;"/></g><g><path d="m239.11,413.73h0c11.61,0,21.03,9.42,21.03,21.03v14.95h-42.06v-14.95c0-11.61,9.42-21.03,21.03-21.03Z" style="fill:#fac9d0; stroke:#fff; stroke-miterlimit:10;"/><circle cx="239.11" cy="400.53" r="16.09" style="fill:#fac9d0; stroke:#fff; stroke-miterlimit:10;"/></g><g><path d="m329.26,413.25h0c11.61,0,21.03,9.42,21.03,21.03v14.95h-42.06v-14.95c0-11.61,9.42-21.03,21.03-21.03Z" style="fill:#fac9d0; stroke:#fff; stroke-miterlimit:10;"/><circle cx="329.26" cy="400.05" r="16.09" style="fill:#fac9d0; stroke:#fff; stroke-miterlimit:10;"/></g><g><path d="m242.75,384.46c2.4-5.3,6.95-9.43,12.53-11.28" style="fill:none; stroke:#32406d; stroke-miterlimit:10;"/><line x1="273.73" y1="408.08" x2="250.15" y2="408.08" style="fill:none; stroke:#32406d; stroke-miterlimit:10;"/><path d="m268.68,373.22c4.97,1.69,9.11,5.19,11.62,9.71" style="fill:none; stroke:#32406d; stroke-miterlimit:10;"/><circle cx="261.91" cy="358.91" r="16.09" style="fill:none; stroke:#32406d; stroke-miterlimit:10;"/></g><g><line x1="314.3" y1="408.08" x2="297.26" y2="408.08" style="fill:none; stroke:#32406d; stroke-miterlimit:10;"/><path d="m317.26,373.22c5.12,1.74,9.36,5.4,11.85,10.13" style="fill:none; stroke:#32406d; stroke-miterlimit:10;"/><path d="m291.89,383.31c2.49-4.71,6.72-8.35,11.83-10.09" style="fill:none; stroke:#32406d; stroke-miterlimit:10;"/><circle cx="310.49" cy="358.91" r="16.09" style="fill:none; stroke:#32406d; stroke-miterlimit:10;"/></g><g><path d="m241.98,448.19h-25.38v-14.95c0-8.91,5.54-16.52,13.36-19.58" style="fill:none; stroke:#32406d; stroke-miterlimit:10;"/><path d="m230.53,413.46c-5.33-2.62-8.99-8.1-8.99-14.44,0-8.88,7.2-16.09,16.09-16.09s16.09,7.2,16.09,16.09-7.2,16.09-16.09,16.09c-2.55,0-4.96-.59-7.1-1.65" style="fill:none; stroke:#32406d; stroke-miterlimit:10;"/></g><g><path d="m335.98,413.68c7.79,3.08,13.31,10.68,13.31,19.57v14.95h-42.06v-14.95c0-8.81,5.42-16.6,13.11-19.73" style="fill:none; stroke:#32406d; stroke-miterlimit:10;"/><circle cx="328.26" cy="399.02" r="16.09" style="fill:none; stroke:#32406d; stroke-miterlimit:10;"/></g><g><path d="m269.08,418.02c3.84-4.15,10.38-7.2,16.48-7.2h0c4.78,0,9.18,1.59,12.72,4.28" style="fill:#fff; stroke:#32406d; stroke-miterlimit:10;"/><polyline points="306.59 431.85 306.59 446.8 272.64 446.8" style="fill:#fff; stroke:#32406d; stroke-miterlimit:10;"/><circle cx="285.56" cy="397.62" r="16.09" style="fill:#fff; stroke:#32406d; stroke-miterlimit:10;"/></g><g><path d="m259.41,442.11h0c11.61,0,21.03,9.42,21.03,21.03v14.95h-42.06v-14.95c0-11.61,9.42-21.03,21.03-21.03Z" style="fill:#fac9d0; stroke:#fff; stroke-miterlimit:10;"/><circle cx="259.41" cy="428.91" r="16.09" style="fill:#fac9d0; stroke:#fff; stroke-miterlimit:10;"/></g><g><path d="m307.99,441.86h0c11.61,0,21.03,9.42,21.03,21.03v14.95h-42.06v-14.95c0-11.61,9.42-21.03,21.03-21.03Z" style="fill:#fac9d0; stroke:#fff; stroke-miterlimit:10;"/><circle cx="307.99" cy="428.66" r="16.09" style="fill:#fac9d0; stroke:#fff; stroke-miterlimit:10;"/></g><g><path d="m265.35,441.93c8.33,2.8,14.33,10.67,14.33,19.94v14.95h-42.06v-14.95c0-9.15,5.85-16.94,14.01-19.83" style="fill:none; stroke:#32406d; stroke-miterlimit:10;"/><path d="m264.98,442.43c-1.94.83-4.08,1.29-6.33,1.29-8.88,0-16.09-7.2-16.09-16.09s7.2-16.09,16.09-16.09c4.96,0,9.39,2.24,12.34,5.77" style="fill:none; stroke:#32406d; stroke-miterlimit:10;"/><path d="m270.99,417.32c2.34,2.79,3.74,6.39,3.74,10.31,0,6.64-4.02,12.33-9.75,14.79" style="fill:none; stroke:#32406d; stroke-miterlimit:10;"/></g><g><path d="m314.24,441.87c8.42,2.75,14.5,10.66,14.5,20v14.95h-42.06v-14.95c0-9.25,5.97-17.11,14.27-19.92" style="fill:none; stroke:#32406d; stroke-miterlimit:10;"/><circle cx="307.71" cy="427.63" r="16.09" style="fill:none; stroke:#32406d; stroke-miterlimit:10;"/></g></g><g><g><polyline points="86.41 339.71 68.25 339.71 68.25 313.87 86.41 313.87" style="fill:#fff;"/><polygon points="182.36 280.25 182.36 326.79 182.36 373.32 86.41 339.71 86.41 313.87 182.36 280.25" style="fill:#fff;"/></g><g><path d="m219.57,374.82l-3.14-3.28c23.72-22.72,24.54-60.5,1.83-84.22l3.28-3.14c24.44,25.53,23.56,66.2-1.97,90.65Zm-21.35-22.36l-3.14-3.28c11.41-10.92,11.8-29.09.88-40.5l3.28-3.14c12.65,13.22,12.2,34.27-1.02,46.93Z" style="fill:#ef4d7f;"/><path d="m217.83,374.49l-3.14-3.28c23.72-22.72,24.54-60.5,1.83-84.22l3.28-3.14c24.44,25.53,23.56,66.2-1.97,90.65Zm-21.35-22.36l-3.14-3.28c11.41-10.92,11.8-29.09.88-40.5l3.28-3.14c12.65,13.22,12.2,34.27-1.02,46.93Z" style="fill:none; stroke:#32406d; stroke-miterlimit:10;"/></g><g><rect x="71.73" y="314.15" width="25.84" height="30.36" transform="translate(-244.68 413.98) rotate(-90)" style="fill:#fdebec;"/><polygon points="183.57 282.8 183.57 329.33 183.57 375.86 87.63 342.25 87.63 316.41 183.57 282.8" style="fill:#fac9d0;"/></g><g><polyline points="86.41 339.71 68.25 339.71 68.25 313.87 86.41 313.87" style="fill:none; stroke:#32406d; stroke-miterlimit:10;"/><polygon points="182.36 280.25 182.36 326.79 182.36 373.32 86.41 339.71 86.41 313.87 182.36 280.25" style="fill:none; stroke:#32406d; stroke-miterlimit:10;"/></g></g><g><rect x="170.25" y="115.55" width="121.78" height="152.38" style="fill:#fdebec;"/><rect x="167.87" y="112.26" width="121.78" height="152.38" style="fill:none; stroke:#32406d; stroke-miterlimit:10;"/><rect x="150.76" y="100.02" width="121.78" height="152.38" style="fill:#fdebec;"/><rect x="148.38" y="96.73" width="121.78" height="152.38" style="fill:none; stroke:#32406d; stroke-miterlimit:10;"/><g><polygon points="249.84 122.49 249.84 238.31 128.06 238.31 128.06 85.93 213.28 85.93 249.84 122.49" style="fill:#fff;"/><polygon points="252.27 125.6 252.27 241.42 130.5 241.42 130.5 89.04 215.72 89.04 252.27 125.6" style="fill:#fac9d0;"/><polygon points="252.27 125.6 252.27 125.61 215.71 125.61 215.71 89.04 215.72 89.04 252.27 125.6" style="fill:#f6a7b5;"/><g><line x1="143.27" y1="145.4" x2="211.3" y2="145.4" style="fill:#fdebec; stroke:#fff; stroke-miterlimit:10; stroke-width:4px;"/><line x1="142.13" y1="143.06" x2="210.16" y2="143.06" style="fill:none; stroke:#32406d; stroke-miterlimit:10; stroke-width:3px;"/></g><g><line x1="143.27" y1="160.86" x2="182.43" y2="160.86" style="fill:#fdebec; stroke:#fff; stroke-miterlimit:10; stroke-width:4px;"/><line x1="142.13" y1="158.53" x2="181.29" y2="158.53" style="fill:none; stroke:#32406d; stroke-miterlimit:10; stroke-width:3px;"/></g><g><line x1="143.27" y1="176.33" x2="196.91" y2="176.33" style="fill:#fdebec; stroke:#fff; stroke-miterlimit:10; stroke-width:4px;"/><line x1="142.13" y1="173.99" x2="195.77" y2="173.99" style="fill:none; stroke:#32406d; stroke-miterlimit:10; stroke-width:3px;"/></g><g><line x1="143.27" y1="191.79" x2="240.86" y2="191.79" style="fill:#fdebec; stroke:#fff; stroke-miterlimit:10; stroke-width:4px;"/><line x1="142.13" y1="189.46" x2="239.72" y2="189.46" style="fill:none; stroke:#32406d; stroke-miterlimit:10; stroke-width:3px;"/></g><g><line x1="143.27" y1="207.25" x2="240.86" y2="207.25" style="fill:#fdebec; stroke:#fff; stroke-miterlimit:10; stroke-width:4px;"/><line x1="142.13" y1="204.92" x2="239.72" y2="204.92" style="fill:none; stroke:#32406d; stroke-miterlimit:10; stroke-width:3px;"/></g><rect x="251.51" y="188.87" width="8.17" height="25.09" style="fill:#ef4d7f;"/><polygon points="249.84 122.49 249.84 238.31 128.06 238.31 128.06 85.93 213.28 85.93 249.84 122.49" style="fill:none; stroke:#32406d; stroke-miterlimit:10;"/><polygon points="249.84 122.49 249.84 122.5 213.27 122.5 213.27 85.93 213.28 85.93 249.84 122.49" style="fill:none; stroke:#32406d; stroke-miterlimit:10;"/><rect x="249.84" y="188.13" width="8.17" height="25.09" style="fill:none; stroke:#32406d; stroke-miterlimit:10;"/></g></g><g><polygon points="395.1 289 395.1 334.41 361.13 334.41 340.99 350.57 340.99 334.41 310.3 334.41 310.3 289 395.1 289" style="fill:#f6a7b5; fill-rule:evenodd;"/><polygon points="393.59 286.74 393.59 332.14 359.61 332.14 339.48 348.3 339.48 332.14 308.79 332.14 308.79 286.74 393.59 286.74" style="fill:none; fill-rule:evenodd; stroke:#32406d; stroke-miterlimit:10;"/><line x1="316.86" y1="299.1" x2="387.03" y2="299.1" style="fill:none; stroke:#fff; stroke-miterlimit:10; stroke-width:3px;"/><line x1="316.86" y1="310.95" x2="354.89" y2="310.95" style="fill:none; stroke:#fff; stroke-miterlimit:10; stroke-width:3px;"/><line x1="316.86" y1="322.8" x2="372.04" y2="322.8" style="fill:none; stroke:#fff; stroke-miterlimit:10; stroke-width:3px;"/><line x1="316.1" y1="297.59" x2="386.28" y2="297.59" style="fill:none; stroke:#32406d; stroke-miterlimit:10; stroke-width:3px;"/><line x1="316.1" y1="309.44" x2="354.13" y2="309.44" style="fill:none; stroke:#32406d; stroke-miterlimit:10; stroke-width:3px;"/><line x1="316.1" y1="321.29" x2="371.29" y2="321.29" style="fill:none; stroke:#32406d; stroke-miterlimit:10; stroke-width:3px;"/></g></g></svg>