<?xml version="1.0" encoding="UTF-8"?><svg id="c" xmlns="http://www.w3.org/2000/svg" xmlns:xlink="http://www.w3.org/1999/xlink" viewBox="0 0 375.65 353.2"><defs><clipPath id="d"><path d="m247.48,326.31h0c-12.59,6.64-26.4,5.22-30.83-3.17l-61.27-144.66,23.55-12.42,83.33,133.03c4.43,8.4-2.19,20.59-14.78,27.24Z" style="clip-rule:evenodd; fill:none;"/></clipPath><clipPath id="e"><path d="m219.63,233.41l39.91,63.71c4.43,8.4-2.19,20.59-14.78,27.24h0c-12.59,6.64-26.4,5.22-30.83-3.17l-61.27-144.66,23.55-12.42,43.42,69.31" style="clip-rule:evenodd; fill:none; stroke:#32406d; stroke-miterlimit:10;"/></clipPath></defs><path d="m317.6,90.69H123.13c-8.2,0-14.85,6.65-14.85,14.85v142.65c0,2.78,2.25,5.04,5.04,5.04h25.08v-17.11h179.2V90.69Z" style="fill:#ef4d7f; fill-rule:evenodd;"/><path d="m143.78,260.59v-24.48h-22.36c-7.26,0-13.14,5.31-13.14,11.87v.31c0,6.82,6.06,12.3,13.54,12.3h21.96Z" style="fill:#ef4d7f; fill-rule:evenodd;"/><path d="m275.28,60.21c-16.62-.03-30.12,13.42-30.15,30.04,0,.04,0,.08,0,.12,0,16.61,30.15,47.8,30.15,47.8,0,0,30.04-31.19,30.04-47.8.03-16.62-13.42-30.12-30.04-30.15h0Zm0,39.01c-4.89,0-8.85-3.96-8.85-8.85s3.96-8.85,8.85-8.85,8.85,3.96,8.85,8.85h0c0,4.89-3.96,8.85-8.85,8.85Z" style="fill:#f6a7b5;"/><path d="m247.48,326.31h0c-12.59,6.64-26.4,5.22-30.83-3.17l-61.27-144.66,23.55-12.42,83.33,133.03c4.43,8.4-2.19,20.59-14.78,27.24Z" style="fill:#fdebec; fill-rule:evenodd;"/><g style="clip-path:url(#d);"><circle cx="133.81" cy="110.86" r="115.11" style="fill:#fff;"/></g><path d="m240.38,225.26l-.15-3c4.08-.2,8.46-.46,12.85-.99l.36,2.98c-4.5.54-9.13.82-13.07,1.01Zm26.05-3.61l-.87-2.87c3.92-1.18,7.34-2.67,10.47-4.57.32-.19.63-.39.94-.59l1.64,2.51c-.34.22-.69.44-1.03.65-3.35,2.02-7,3.62-11.16,4.87Zm20.03-16.95l-3-.16c0-.13.01-.27.01-.4,0-.89-.16-1.72-.48-2.47-.83-1.95-2.7-3.42-4.6-4.71-.5-.34-1-.67-1.51-1l1.63-2.52c.53.34,1.05.69,1.57,1.04,2.28,1.55,4.54,3.36,5.67,6.02.48,1.12.72,2.35.72,3.64,0,.19,0,.38-.02.56Zm-20.75-15.23c-3.27-1.86-6.76-3.93-10.04-6.45-.35-.27-.69-.54-1.03-.82l1.91-2.31c.31.26.63.51.95.76,3.13,2.41,6.51,4.41,9.69,6.22l-1.48,2.61Zm-18.83-18.62c-.15-.72-.23-1.44-.26-2.16,0-.15,0-.3,0-.45,0-3.5,1.43-7.08,4.24-10.64l2.35,1.86c-2.39,3.02-3.59,5.97-3.59,8.78,0,.12,0,.23,0,.35.02.55.09,1.11.2,1.67l-2.94.6Zm15.63-19.76l-1.7-2.47c3.69-2.53,7.67-4.6,11.84-6.14l1.04,2.81c-3.94,1.45-7.7,3.4-11.18,5.8Z" style="fill:#fac9d0;"/><path d="m242.4,88.73h-122c-8.2,0-14.85,6.65-14.85,14.85v142.65" style="fill:none; fill-rule:evenodd; stroke:#32406d; stroke-miterlimit:10;"/><line x1="281.41" y1="88.73" x2="263.7" y2="88.73" style="fill:none; stroke:#32406d; stroke-miterlimit:10;"/><polyline points="220.09 234.15 314.87 234.15 314.87 88.73 302.26 88.73" style="fill:none; fill-rule:evenodd; stroke:#32406d; stroke-miterlimit:10;"/><line x1="135.67" y1="234.15" x2="177.07" y2="234.15" style="fill:none; stroke:#32406d; stroke-miterlimit:10;"/><path d="m141.06,258.63v-24.48h-22.36c-7.26,0-13.14,5.31-13.14,11.87v.31c0,6.82,6.06,12.3,13.54,12.3h21.96Z" style="fill:#32406d; fill-rule:evenodd; stroke:#32406d; stroke-miterlimit:10;"/><path d="m272.56,58.25c-16.62-.03-30.12,13.42-30.15,30.04,0,.04,0,.08,0,.12,0,16.61,30.15,47.8,30.15,47.8,0,0,30.04-31.19,30.04-47.8.03-16.62-13.42-30.12-30.04-30.15h0Z" style="fill:none; stroke:#32406d; stroke-miterlimit:10;"/><path d="m244.76,324.35h0c-12.59,6.64-26.4,5.22-30.83-3.17l-61.27-144.66,23.55-12.42,83.33,133.03c4.43,8.4-2.19,20.59-14.78,27.24Z" style="fill:none; fill-rule:evenodd; stroke:#32406d; stroke-miterlimit:10;"/><g><g style="clip-path:url(#e);"><circle cx="131.09" cy="108.91" r="115.11" style="fill:none; stroke:#32406d; stroke-miterlimit:10;"/></g><path d="m219.63,233.41l39.91,63.71c4.43,8.4-2.19,20.59-14.78,27.24h0c-12.59,6.64-26.4,5.22-30.83-3.17l-61.27-144.66,23.55-12.42,43.42,69.31" style="fill:none; fill-rule:evenodd; stroke:#32406d; stroke-miterlimit:10;"/></g><path d="m174.48,191.14c-11.47,6.05-23.78,8.92-35.91,8.92-27.67,0-54.42-14.94-68.24-41.12-19.86-37.66-5.44-84.28,32.21-104.15,11.47-6.05,23.78-8.92,35.9-8.92h0c27.68,0,54.42,14.95,68.23,41.13,19.87,37.65,5.45,84.28-32.2,104.14Z" style="fill:none; fill-rule:evenodd; stroke:#32406d; stroke-miterlimit:10;"/><path d="m210.22,85.13c-14.08-26.68-41.58-43.26-71.77-43.26-13.08,0-26.14,3.25-37.78,9.39-19.15,10.1-33.22,27.06-39.62,47.75-6.4,20.69-4.36,42.64,5.75,61.79,14.07,26.69,41.58,43.26,71.77,43.26,13.08,0,26.14-3.24,37.77-9.38,19.16-10.11,33.23-27.07,39.63-47.76,6.4-20.69,4.36-42.63-5.75-61.79Zm-35.74,106.01c-11.47,6.05-23.78,8.92-35.91,8.92-27.67,0-54.42-14.94-68.24-41.12-19.86-37.66-5.44-84.28,32.21-104.15,11.47-6.05,23.78-8.92,35.9-8.92h0c27.68,0,54.42,14.95,68.23,41.13,19.87,37.65,5.45,84.28-32.2,104.14Z" style="fill:#32406d;"/><path d="m174.48,191.14c-11.47,6.05-23.78,8.92-35.91,8.92-27.67,0-54.42-14.94-68.24-41.12-19.86-37.66-5.44-84.28,32.21-104.15,11.47-6.05,23.78-8.92,35.9-8.92h0c27.68,0,54.42,14.95,68.23,41.13,19.87,37.65,5.45,84.28-32.2,104.14Z" style="fill:#fff;"/><path d="m239.36,224.16l-.15-3c4.08-.2,8.46-.46,12.85-.99l.36,2.98c-4.5.54-9.13.82-13.07,1.01Zm26.05-3.61l-.87-2.87c3.92-1.18,7.34-2.67,10.47-4.57.32-.19.63-.39.94-.59l1.64,2.51c-.34.22-.69.44-1.03.65-3.35,2.02-7,3.62-11.16,4.87Zm20.03-16.95l-3-.16c0-.13.01-.27.01-.4,0-.89-.16-1.72-.48-2.47-.83-1.95-2.7-3.42-4.6-4.71-.5-.34-1-.67-1.51-1l1.62-2.52c.53.34,1.06.69,1.58,1.04,2.28,1.55,4.54,3.35,5.67,6.02.48,1.12.72,2.35.72,3.64,0,.19,0,.38-.02.56Zm-20.75-15.23c-3.28-1.86-6.76-3.93-10.04-6.45-.35-.27-.69-.54-1.03-.82l1.91-2.31c.31.26.63.51.95.76,3.13,2.41,6.51,4.41,9.69,6.22l-1.48,2.61Zm-18.83-18.63c-.15-.72-.23-1.44-.26-2.16,0-.15,0-.3,0-.45,0-3.5,1.43-7.08,4.24-10.64l2.35,1.86c-2.39,3.02-3.59,5.97-3.59,8.78,0,.12,0,.23,0,.35.02.55.09,1.11.2,1.67l-2.94.6Zm15.63-19.76l-1.7-2.47c3.69-2.53,7.67-4.6,11.84-6.14l1.04,2.81c-3.94,1.45-7.7,3.4-11.18,5.8Z" style="fill:none; stroke:#32406d; stroke-miterlimit:10;"/><path d="m272.56,97.26c-4.89,0-8.85-3.85-8.85-8.61s3.96-8.61,8.85-8.61,8.85,3.85,8.85,8.61h0c0,4.75-3.96,8.61-8.85,8.61Z" style="fill:none; stroke:#32406d; stroke-miterlimit:10;"/><g><path d="m187.45,125.7c-.9,1.1-21.4,27.8-47.2,27.8s-46.3-26.7-47.2-27.8c-.5-.6-.5-1.4,0-2,.9-1.1,21.4-27.8,47.2-27.8s46.3,26.7,47.2,27.8c.4.6.4,1.4,0,2Z" style="fill:#ef4d7f;"/><circle cx="140.21" cy="124.7" r="18.03" style="fill:#fff;"/><circle cx="140.21" cy="124.7" r="6.42" style="fill:#ef4d7f;"/></g><g><path d="m185.46,124.59c-.9,1.1-21.4,27.8-47.2,27.8s-46.3-26.7-47.2-27.8c-.5-.6-.5-1.4,0-2,.9-1.1,21.4-27.8,47.2-27.8s46.3,26.7,47.2,27.8c.4.6.4,1.4,0,2Z" style="fill:none; stroke:#32406d; stroke-miterlimit:10;"/><circle cx="138.22" cy="123.59" r="18.03" style="fill:none; stroke:#32406d; stroke-miterlimit:10;"/><path d="m138.22,120.17c1.89,0,3.42,1.54,3.42,3.42s-1.54,3.42-3.42,3.42-3.42-1.54-3.42-3.42,1.54-3.42,3.42-3.42m0-3c-3.55,0-6.42,2.88-6.42,6.42s2.88,6.42,6.42,6.42,6.42-2.88,6.42-6.42-2.88-6.42-6.42-6.42h0Z" style="fill:#32406d;"/></g></svg>