<?xml version="1.0" encoding="UTF-8"?><svg xmlns="http://www.w3.org/2000/svg" viewBox="0 0 419.53 595.28"><g id="c"><circle cx="292.46" cy="142.71" r="96.38" style="fill:#aeadc1; stroke-width:0px;"/><path d="m282.08,457.38c15.17,0,27.47,12.3,27.47,27.47s-12.3,27.47-27.47,27.47" style="fill:none; stroke:#32406d; stroke-miterlimit:10; stroke-width:3px;"/><path d="m72.67,457.38c-15.17,0-27.47-12.3-27.47-27.47s12.3-27.47,27.47-27.47" style="fill:none; stroke:#32406d; stroke-miterlimit:10; stroke-width:3px;"/><path d="m336.12,290.5c30.91,0,55.97,25.06,55.97,55.97s-25.06,55.97-55.97,55.97" style="fill:none; stroke:#32406d; stroke-miterlimit:10; stroke-width:3px;"/><line x1="253.64" y1="512.33" x2="150.24" y2="512.33" style="fill:none; stroke:#32406d; stroke-miterlimit:10; stroke-width:3px;"/><line x1="253.64" y1="457.38" x2="72.67" y2="457.38" style="fill:none; stroke:#32406d; stroke-miterlimit:10; stroke-width:3px;"/><path d="m116.13,290.5c-15.17,0-27.47-12.3-27.47-27.47s12.3-27.47,27.47-27.47" style="fill:none; stroke:#32406d; stroke-miterlimit:10; stroke-width:3px;"/><line x1="336.12" y1="290.5" x2="114.21" y2="290.5" style="fill:none; stroke:#32406d; stroke-miterlimit:10; stroke-width:3px;"/><line x1="336.12" y1="402.44" x2="72.67" y2="402.44" style="fill:none; stroke:#32406d; stroke-miterlimit:10; stroke-width:3px;"/><line x1="282.08" y1="235.55" x2="114.21" y2="235.55" style="fill:none; stroke:#32406d; stroke-miterlimit:10; stroke-width:3px;"/><path d="m386.45,139.35c0,53.96-43.91,97.87-97.88,97.87s-97.87-43.91-97.87-97.87c0-18.51,5.23-36.57,15.12-52.24,9.62-15.23,23.17-27.52,39.18-35.54h0s.6,1.19.6,1.19c-.31.76-.59,1.53-.86,2.31-.43.23-.86.46-1.28.68-30.34,16.56-49.76,49.01-49.76,83.6,0,52.31,42.56,94.87,94.87,94.87s94.88-42.56,94.88-94.87c0-35.63-20.35-68.61-52.05-84.67-.42-.23-.85-.44-1.29-.65-.26-.13-.52-.26-.78-.38l.35-.74.59-1.21.36-.76c33.91,16.16,55.82,50.86,55.82,88.41Z" style="fill:#32406d; stroke-width:0px;"/></g><g id="e"><rect x="255.27" y="451.51" width="88.89" height="71.56" style="fill:#dedce4; stroke-width:0px;"/><rect x="255.27" y="451.51" width="88.89" height="16.62" style="fill:#aeadc1; stroke-width:0px;"/><rect x="262.81" y="477.75" width="17.88" height="9.53" style="fill:#8786a3; stroke-width:0px;"/><rect x="290.78" y="477.75" width="17.88" height="9.53" style="fill:#8786a3; stroke-width:0px;"/><rect x="318.74" y="477.75" width="17.88" height="9.53" style="fill:#8786a3; stroke-width:0px;"/><circle cx="272.56" cy="505.48" r="6.58" style="fill:#8786a3; stroke-width:0px;"/><circle cx="301.2" cy="505.48" r="6.58" style="fill:#8786a3; stroke-width:0px;"/></g><g id="f"><polygon points="162.81 337.87 162.81 383.28 128.83 383.28 108.7 399.44 108.7 383.28 78 383.28 78 337.87 162.81 337.87" style="fill:#dedce4; fill-rule:evenodd; stroke-width:0px;"/><polygon points="161.3 335.61 161.3 381.01 127.32 381.01 107.19 397.18 107.19 381.01 76.49 381.01 76.49 335.61 161.3 335.61" style="fill:none; fill-rule:evenodd; stroke:#32406d; stroke-miterlimit:10;"/><line x1="84.57" y1="347.97" x2="154.74" y2="347.97" style="fill:none; stroke:#fff; stroke-miterlimit:10; stroke-width:3px;"/><line x1="84.57" y1="359.82" x2="122.59" y2="359.82" style="fill:none; stroke:#fff; stroke-miterlimit:10; stroke-width:3px;"/><line x1="84.57" y1="371.68" x2="139.75" y2="371.68" style="fill:none; stroke:#fff; stroke-miterlimit:10; stroke-width:3px;"/><line x1="83.81" y1="346.46" x2="153.99" y2="346.46" style="fill:none; stroke:#32406d; stroke-miterlimit:10; stroke-width:3px;"/><line x1="83.81" y1="358.31" x2="121.84" y2="358.31" style="fill:none; stroke:#32406d; stroke-miterlimit:10; stroke-width:3px;"/><line x1="83.81" y1="370.16" x2="138.99" y2="370.16" style="fill:none; stroke:#32406d; stroke-miterlimit:10; stroke-width:3px;"/><polygon points="102.49 393.98 102.49 437.25 70.32 437.25 70.32 452.66 51.13 437.25 21.67 437.25 21.67 393.98 102.49 393.98" style="fill:#dedce4; fill-rule:evenodd; stroke-width:0px;"/><polygon points="100.49 390.98 100.49 434.25 68.32 434.25 68.32 449.66 49.13 434.25 19.67 434.25 19.67 390.98 100.49 390.98" style="fill:none; fill-rule:evenodd; stroke:#32406d; stroke-miterlimit:10;"/><line x1="26.43" y1="403.99" x2="69.72" y2="403.99" style="fill:none; stroke:#fff; stroke-miterlimit:10; stroke-width:3px;"/><line x1="26.43" y1="419.68" x2="89.24" y2="419.68" style="fill:none; stroke:#fff; stroke-miterlimit:10; stroke-width:3px;"/><line x1="25.43" y1="401.99" x2="68.72" y2="401.99" style="fill:none; stroke:#32406d; stroke-miterlimit:10; stroke-width:3px;"/><line x1="25.43" y1="417.68" x2="88.24" y2="417.68" style="fill:none; stroke:#32406d; stroke-miterlimit:10; stroke-width:3px;"/><path d="m337.93,386.57c-22.01,0-39.92-17.91-39.92-39.92s17.91-39.92,39.92-39.92,39.92,17.91,39.92,39.92-17.91,39.92-39.92,39.92Z" style="fill:#fff; fill-rule:evenodd; stroke-width:0px;"/><path d="m337.93,308.24c21.18,0,38.42,17.23,38.42,38.42s-17.23,38.42-38.42,38.42-38.42-17.23-38.42-38.42,17.23-38.42,38.42-38.42m0-3c-22.87,0-41.42,18.54-41.42,41.42s18.54,41.42,41.42,41.42,41.42-18.54,41.42-41.42-18.54-41.42-41.42-41.42h0Z" style="fill:#32406d; stroke-width:0px;"/><polygon points="343.01 335.94 330.56 339.28 327.22 351.73 323.89 364.18 336.33 360.84 348.78 357.51 352.12 345.06 355.46 332.61 343.01 335.94" style="fill:#ebecf7; stroke:#32406d; stroke-miterlimit:10;"/><polygon points="341.27 334.21 328.82 337.54 325.48 349.99 322.15 362.44 334.6 359.1 347.05 355.77 350.38 343.32 353.72 330.87 341.27 334.21" style="fill:#32406d; stroke:#32406d; stroke-miterlimit:10;"/><rect x="330.54" y="297.97" width="14.78" height="3.91" style="fill:#32406d; stroke-width:0px;"/><path d="m344.82,298.47v2.91h-13.78v-2.91h13.78m1-1h-15.78v4.91h15.78v-4.91h0Z" style="fill:#32406d; stroke-width:0px;"/><path d="m341.06,303.38v2.91h-6.26v-2.91h6.26m1-1h-8.26v4.91h8.26v-4.91h0Z" style="fill:#32406d; stroke-width:0px;"/><polygon points="342.06 302.38 333.8 302.38 333.8 304.18 342.06 304.18 342.06 302.38 342.06 302.38" style="fill:#32406d; stroke-width:0px;"/><circle cx="337.93" cy="346.65" r="2.21" style="fill:#fff; stroke:#32406d; stroke-miterlimit:10; stroke-width:3px;"/><rect x="209.84" y="107.67" width="78.71" height="78.71" style="fill:#dedce4; stroke-width:0px;"/><path d="m258.13,171.22l-.02-2.28c1.67-.01,3.42-.11,5.2-.29l.23,2.27c-1.86.19-3.68.29-5.42.3Zm-3.89-.12c-1.87-.14-3.69-.39-5.41-.75l.47-2.23c1.62.34,3.34.58,5.11.71l-.17,2.28Zm-9.19-1.76c-1.78-.59-3.48-1.32-5.06-2.17l1.09-2.01c1.46.79,3.04,1.47,4.69,2.01l-.71,2.17Zm-8.4-4.28c-1.48-1.08-2.87-2.32-4.13-3.67l1.67-1.55c1.16,1.25,2.44,2.39,3.8,3.39l-1.35,1.84Zm-6.62-6.73c-1.04-1.46-1.99-3.04-2.82-4.72l2.04-1.01c.78,1.57,1.66,3.05,2.63,4.41l-1.86,1.33Zm-4.38-8.32c-.63-1.67-1.16-3.43-1.59-5.23l2.22-.53c.41,1.71.92,3.38,1.51,4.96l-2.14.8Zm-2.34-9.07c-.46-3.01-.48-5.08-.48-5.46l2.28-.03v.03c0,.22.01,2.22.46,5.12l-2.25.34Z" style="fill:#dedce4; stroke-width:0px;"/><rect x="219.5" y="121.32" width="8.92" height="8.92" style="fill:#aeadc1; stroke-width:0px;"/><polygon points="287.26 122.51 287.26 183.79 208.55 183.79 208.55 105.08 287.26 105.08 287.26 122.51" style="fill:none; fill-rule:evenodd; stroke:#32406d; stroke-miterlimit:10;"/><rect x="218.21" y="119.38" width="8.92" height="8.92" style="fill:none; stroke:#32406d; stroke-miterlimit:10; stroke-width:3px;"/><path d="m256.83,170.58l-.02-2.28c1.67-.01,3.42-.11,5.2-.29l.23,2.27c-1.86.19-3.68.29-5.42.3Zm-3.89-.12c-1.87-.14-3.69-.39-5.41-.75l.47-2.23c1.62.34,3.34.58,5.11.71l-.17,2.28Zm-9.19-1.76c-1.78-.59-3.48-1.32-5.06-2.17l1.09-2.01c1.46.79,3.04,1.47,4.69,2.01l-.71,2.17Zm-8.4-4.28c-1.48-1.08-2.87-2.32-4.13-3.67l1.67-1.55c1.16,1.25,2.44,2.39,3.8,3.39l-1.35,1.84Zm-6.62-6.73c-1.04-1.46-1.99-3.04-2.82-4.72l2.04-1.01c.78,1.57,1.66,3.05,2.63,4.41l-1.86,1.33Zm-4.38-8.32c-.63-1.67-1.16-3.43-1.59-5.23l2.22-.53c.41,1.71.92,3.38,1.51,4.96l-2.14.8Zm-2.34-9.07c-.46-3.01-.48-5.08-.48-5.46l2.28-.03v.03c0,.22.01,2.22.46,5.12l-2.25.34Z" style="fill:none; stroke:#32406d; stroke-miterlimit:10;"/><path d="m124.38,419.66h0c5.07,0,9.19,4.12,9.19,9.19v6.53h-18.39v-6.53c0-5.07,4.12-9.19,9.19-9.19Z" style="fill:#aeadc1; stroke:#fff; stroke-miterlimit:10;"/><circle cx="124.38" cy="413.89" r="7.03" style="fill:#aeadc1; stroke:#fff; stroke-miterlimit:10;"/><path d="m145.62,419.66h0c5.07,0,9.19,4.12,9.19,9.19v6.53h-18.39v-6.53c0-5.07,4.12-9.19,9.19-9.19Z" style="fill:#aeadc1; stroke:#fff; stroke-miterlimit:10;"/><circle cx="145.62" cy="413.89" r="7.03" style="fill:#aeadc1; stroke:#fff; stroke-miterlimit:10;"/><path d="m113.77,437.2h0c5.07,0,9.19,4.12,9.19,9.19v6.53h-18.39v-6.53c0-5.07,4.12-9.19,9.19-9.19Z" style="fill:#aeadc1; stroke:#fff; stroke-miterlimit:10;"/><circle cx="113.77" cy="431.43" r="7.03" style="fill:#aeadc1; stroke:#fff; stroke-miterlimit:10;"/><path d="m153.18,436.99h0c5.07,0,9.19,4.12,9.19,9.19v6.53h-18.39v-6.53c0-5.07,4.12-9.19,9.19-9.19Z" style="fill:#aeadc1; stroke:#fff; stroke-miterlimit:10;"/><circle cx="153.18" cy="431.22" r="7.03" style="fill:#aeadc1; stroke:#fff; stroke-miterlimit:10;"/><path d="m114.86,423.92c1.05-2.32,3.04-4.12,5.48-4.93" style="fill:none; stroke:#32406d; stroke-miterlimit:10;"/><line x1="128.41" y1="434.25" x2="118.1" y2="434.25" style="fill:none; stroke:#32406d; stroke-miterlimit:10;"/><path d="m126.2,419c2.17.74,3.98,2.27,5.08,4.25" style="fill:none; stroke:#32406d; stroke-miterlimit:10;"/><circle cx="123.24" cy="412.75" r="7.03" style="fill:none; stroke:#32406d; stroke-miterlimit:10;"/><line x1="146.15" y1="434.25" x2="138.7" y2="434.25" style="fill:none; stroke:#32406d; stroke-miterlimit:10;"/><path d="m147.44,419c2.24.76,4.09,2.36,5.18,4.43" style="fill:none; stroke:#32406d; stroke-miterlimit:10;"/><path d="m136.35,423.41c1.09-2.06,2.94-3.65,5.17-4.41" style="fill:none; stroke:#32406d; stroke-miterlimit:10;"/><circle cx="144.48" cy="412.75" r="7.03" style="fill:none; stroke:#32406d; stroke-miterlimit:10;"/><path d="m114.52,451.78h-11.1v-6.53c0-3.89,2.42-7.22,5.84-8.56" style="fill:none; stroke:#32406d; stroke-miterlimit:10;"/><path d="m109.52,436.6c-2.33-1.15-3.93-3.54-3.93-6.31,0-3.88,3.15-7.03,7.03-7.03s7.03,3.15,7.03,7.03-3.15,7.03-7.03,7.03c-1.11,0-2.17-.26-3.1-.72" style="fill:none; stroke:#32406d; stroke-miterlimit:10;"/><path d="m155.62,436.69c3.41,1.35,5.82,4.67,5.82,8.55v6.53h-18.39v-6.53c0-3.85,2.37-7.26,5.73-8.63" style="fill:none; stroke:#32406d; stroke-miterlimit:10;"/><circle cx="152.25" cy="430.28" r="7.03" style="fill:none; stroke:#32406d; stroke-miterlimit:10;"/><path d="m136.48,436.69c3.41,1.35,5.82,4.67,5.82,8.55v6.53h-18.39v-6.53c0-3.85,2.37-7.26,5.73-8.63" style="fill:#32406d; stroke:#32406d; stroke-miterlimit:10;"/><circle cx="133.11" cy="430.28" r="7.03" style="fill:#32406d; stroke:#32406d; stroke-miterlimit:10;"/><path d="m122.64,449.6h0c5.07,0,9.19,4.12,9.19,9.19v6.53h-18.39v-6.53c0-5.07,4.12-9.19,9.19-9.19Z" style="fill:#aeadc1; stroke:#fff; stroke-miterlimit:10;"/><circle cx="122.64" cy="443.83" r="7.03" style="fill:#aeadc1; stroke:#fff; stroke-miterlimit:10;"/><path d="m143.88,449.5h0c5.07,0,9.19,4.12,9.19,9.19v6.53h-18.39v-6.53c0-5.07,4.12-9.19,9.19-9.19Z" style="fill:#aeadc1; stroke:#fff; stroke-miterlimit:10;"/><circle cx="143.88" cy="443.73" r="7.03" style="fill:#aeadc1; stroke:#fff; stroke-miterlimit:10;"/><path d="m124.74,449.04c3.64,1.22,6.26,4.66,6.26,8.72v6.53h-18.39v-6.53c0-4,2.56-7.41,6.12-8.67" style="fill:none; stroke:#32406d; stroke-miterlimit:10;"/><path d="m124.58,449.26c-.85.36-1.79.57-2.77.57-3.88,0-7.03-3.15-7.03-7.03s3.15-7.03,7.03-7.03c2.17,0,4.11.98,5.4,2.52" style="fill:none; stroke:#32406d; stroke-miterlimit:10;"/><path d="m127.21,438.28c1.02,1.22,1.64,2.79,1.64,4.51,0,2.9-1.76,5.39-4.26,6.47" style="fill:none; stroke:#32406d; stroke-miterlimit:10;"/><path d="m146.12,449.02c3.68,1.2,6.34,4.66,6.34,8.74v6.53h-18.39v-6.53c0-4.04,2.61-7.48,6.24-8.71" style="fill:none; stroke:#32406d; stroke-miterlimit:10;"/><circle cx="143.26" cy="442.79" r="7.03" style="fill:none; stroke:#32406d; stroke-miterlimit:10;"/><polygon points="141.48 203.81 135.83 212.29 123.18 217.72 123.25 214.49 123.85 204.3 129.5 195.82 142.32 189.57 141.48 203.81" style="fill:#fff; fill-rule:evenodd; stroke-width:0px;"/><path d="m159.79,150.34h.97c3.71,0,6.71,3.01,6.71,6.71v17.9h-14.39v-17.9c0-3.71,3.01-6.71,6.71-6.71Z" transform="translate(117.15 -61.59) rotate(33.69)" style="fill:#fff; stroke-width:0px;"/><rect x="117.56" y="178.16" width="55.14" height="14.39" transform="translate(-89.6 203.29) rotate(-56.31)" style="fill:#8786a3; stroke-width:0px;"/><polyline points="141.17 202.45 135.33 211.21 122.7 217.17 122.94 213.13 123.4 203.15 129.2 194.46" style="fill:none; fill-rule:evenodd; stroke:#32406d; stroke-miterlimit:10;"/><path d="m166.11,165.05h0s2.95-4.42,2.95-4.42c2.06-3.09,1.22-7.25-1.86-9.31l-.8-.54c-3.09-2.06-7.25-1.22-9.31,1.86l-2.95,4.42h0l-30.59,45.88,11.98,7.99,30.59-45.88Z" style="fill:none; fill-rule:evenodd; stroke:#32406d; stroke-miterlimit:10;"/><line x1="154.13" y1="157.06" x2="166.11" y2="165.05" style="fill:none; stroke:#32406d; stroke-miterlimit:10; stroke-width:3px;"/><polygon points="123.39 214.03 125.34 215.33 123.25 216.35 123.39 214.03" style="fill:#32406d; stroke-width:0px;"/><path d="m123.84,214.93l.5.34-.54.26.04-.6m-.9-1.8l-.24,4.04,3.64-1.78-3.4-2.27h0Z" style="fill:#32406d; stroke-width:0px;"/><rect x="108.04" y="147.73" width="12.55" height="12.55" style="fill:#fff; stroke-width:0px;"/><polyline points="104.34 154.49 110.71 160.85 124.41 147.15" style="fill:none; fill-rule:evenodd; stroke:#fff; stroke-miterlimit:10; stroke-width:4px;"/><rect x="107.07" y="145.73" width="12.55" height="12.55" style="fill:#fff; stroke:#32406d; stroke-miterlimit:10;"/><path d="m103.09,153.48l1.27-1.27,5.02,5.02c.09.09.22.15.35.15s.26-.05.35-.15l12.36-12.36,1.27,1.27-13.98,13.98-6.64-6.64Z" style="fill:#8786a3; stroke-width:0px;"/><path d="m122.45,145.59l.56.56-13.27,13.27-5.94-5.94.56-.56,4.67,4.67c.19.19.44.29.71.29s.52-.11.71-.29l12.01-12.01m0-1.41l-12.71,12.71-5.38-5.38-1.97,1.97,7.35,7.35,14.69-14.69-1.97-1.97h0Z" style="fill:#32406d; stroke-width:0px;"/><rect x="108.04" y="178.91" width="12.55" height="12.55" style="fill:#fff; stroke-width:0px;"/><polyline points="104.34 185.68 110.71 192.04 124.41 178.34" style="fill:#ebecf7; fill-rule:evenodd; stroke:#fff; stroke-miterlimit:10; stroke-width:4px;"/><rect x="107.07" y="176.92" width="12.55" height="12.55" style="fill:#fff; stroke:#32406d; stroke-miterlimit:10;"/><path d="m103.09,184.67l1.27-1.27,5.02,5.02c.1.1.23.15.35.15s.26-.05.35-.15l12.36-12.36,1.27,1.27-13.98,13.98-6.64-6.64Z" style="fill:#8786a3; stroke-width:0px;"/><path d="m122.45,176.77l.56.56-13.27,13.27-5.94-5.94.56-.56,4.67,4.67c.2.2.45.29.71.29s.51-.1.71-.29l12.01-12.01m0-1.41l-12.71,12.71-5.38-5.38-1.97,1.97,7.35,7.35,14.69-14.69-1.97-1.97h0Z" style="fill:#32406d; stroke-width:0px;"/><rect x="108.04" y="210.05" width="12.55" height="12.55" style="fill:#fff; stroke-width:0px;"/><rect x="107.07" y="208.05" width="12.55" height="12.55" style="fill:#fff; stroke:#32406d; stroke-miterlimit:10;"/><path d="m115.63,262.21c0,2.45-.29,4.83-.84,7.11-3.2,13.35-15.22,23.28-29.55,23.28s-26.35-9.92-29.55-23.28c-.55-2.28-.84-4.66-.84-7.11,0-16.78,13.61-30.39,30.39-30.39s30.39,13.61,30.39,30.39Z" style="fill:#fff; stroke-width:0px;"/><rect x="75.19" y="209.91" width="20.1" height="37.73" style="fill:#fff; stroke-width:0px;"/><line x1="71.76" y1="209.91" x2="98.72" y2="209.91" style="fill:none; stroke:#aeadc1; stroke-miterlimit:10; stroke-width:3px;"/><path d="m114.79,269.33c-3.2,13.35-15.22,23.28-29.55,23.28s-26.35-9.92-29.55-23.28h59.1Z" style="fill:#8786a3; stroke-width:0px;"/><path d="m93.95,232.02v-23.62h-20.1v23.62c-11.84,4.15-20.34,15.42-20.34,28.68,0,2.45.29,4.83.84,7.11,3.2,13.35,15.22,23.28,29.55,23.28s26.35-9.92,29.55-23.28c.55-2.28.84-4.66.84-7.11,0-13.26-8.5-24.53-20.34-28.68Z" style="fill:none; stroke:#32406d; stroke-miterlimit:10;"/><line x1="70.42" y1="208.4" x2="97.38" y2="208.4" style="fill:none; stroke:#32406d; stroke-miterlimit:10; stroke-width:3px;"/><path d="m113.45,267.82c-3.2,13.35-15.22,23.28-29.55,23.28s-26.35-9.92-29.55-23.28h59.1Z" style="fill:none; stroke:#32406d; stroke-miterlimit:10;"/><path d="m330.75,378.13c-.68.83-16.19,21.03-35.7,21.03s-35.02-20.2-35.7-21.03c-.38-.45-.38-1.06,0-1.51.68-.83,16.19-21.03,35.7-21.03s35.02,20.2,35.7,21.03c.3.45.3,1.06,0,1.51Z" style="fill:#8786a3; stroke-width:0px;"/><circle cx="295.02" cy="377.37" r="13.64" style="fill:#fff; stroke-width:0px;"/><circle cx="295.02" cy="377.37" r="4.86" style="fill:#8786a3; stroke-width:0px;"/><path d="m329.24,377.29c-.68.83-16.19,21.03-35.7,21.03s-35.02-20.2-35.7-21.03c-.38-.45-.38-1.06,0-1.51.68-.83,16.19-21.03,35.7-21.03s35.02,20.2,35.7,21.03c.3.45.3,1.06,0,1.51Z" style="fill:none; stroke:#32406d; stroke-miterlimit:10;"/><circle cx="293.51" cy="376.54" r="13.64" style="fill:none; stroke:#32406d; stroke-miterlimit:10;"/><path d="m293.52,380.89c-2.4,0-4.36-1.96-4.36-4.36s1.96-4.36,4.36-4.36,4.36,1.96,4.36,4.36-1.96,4.36-4.36,4.36Z" style="fill:#32406d; fill-rule:evenodd; stroke-width:0px;"/><path d="m293.51,372.68c2.13,0,3.86,1.73,3.86,3.86s-1.73,3.86-3.86,3.86-3.86-1.73-3.86-3.86,1.73-3.86,3.86-3.86m0-1c-2.68,0-4.86,2.17-4.86,4.86s2.17,4.86,4.86,4.86,4.86-2.17,4.86-4.86-2.17-4.86-4.86-4.86h0Z" style="fill:#32406d; stroke-width:0px;"/><rect x="174.71" y="51.33" width="60.4" height="60.4" style="fill:#dedce4; stroke-width:0px;"/><line x1="182.06" y1="69.21" x2="226.94" y2="69.21" style="fill:#aeadc1; stroke:#fff; stroke-miterlimit:10; stroke-width:4px;"/><line x1="182.06" y1="79.77" x2="206.38" y2="79.77" style="fill:#aeadc1; stroke:#fff; stroke-miterlimit:10; stroke-width:4px;"/><line x1="181.43" y1="90.96" x2="217.35" y2="90.33" style="fill:#aeadc1; stroke:#fff; stroke-miterlimit:10; stroke-width:4px;"/><polygon points="233.84 109.21 173.45 109.21 173.45 48.81 233.84 48.81 233.84 99.76 233.84 109.21" style="fill:none; fill-rule:evenodd; stroke:#32406d; stroke-miterlimit:10;"/><line x1="181.43" y1="67.34" x2="226.31" y2="67.34" style="fill:none; stroke:#32406d; stroke-miterlimit:10; stroke-width:3px;"/><line x1="181.43" y1="78.21" x2="205.75" y2="78.21" style="fill:none; stroke:#32406d; stroke-miterlimit:10; stroke-width:3px;"/><line x1="181.43" y1="89.07" x2="216.73" y2="89.07" style="fill:none; stroke:#32406d; stroke-miterlimit:10; stroke-width:3px;"/><circle cx="361.33" cy="189.47" r="33.22" style="fill:#fff; stroke-width:0px;"/><path d="m361.33,157.75c17.49,0,31.72,14.23,31.72,31.72s-14.23,31.72-31.72,31.72-31.72-14.23-31.72-31.72,14.23-31.72,31.72-31.72m0-3c-19.18,0-34.72,15.55-34.72,34.72s15.55,34.72,34.72,34.72,34.72-15.55,34.72-34.72-15.55-34.72-34.72-34.72h0Z" style="fill:#32406d; stroke-width:0px;"/><path d="m345.49,183.2c2.99-6.58,9.62-11.15,17.32-11.15,10.5,0,19.02,8.51,19.02,19.02" style="fill:none; stroke:#dedce4; stroke-miterlimit:10; stroke-width:3px;"/><path d="m380.08,199.03c-3.01,6.53-9.61,11.06-17.28,11.06-10.5,0-19.02-8.51-19.02-19.02" style="fill:none; stroke:#dedce4; stroke-miterlimit:10; stroke-width:3px;"/><polyline points="353.9 181.68 345.49 183.21 343.96 174.79" style="fill:none; stroke:#dedce4; stroke-miterlimit:10; stroke-width:3px;"/><polyline points="371.64 200.4 380.08 199.03 381.46 207.47" style="fill:none; stroke:#dedce4; stroke-miterlimit:10; stroke-width:3px;"/><path d="m379.36,188.76c-.27-9.77-8.29-17.63-18.12-17.63-6.08,0-11.72,3.03-15.1,8.11l-.65.98,6.2-1.12.32,1.74-8.79,1.6-1.6-8.79,1.74-.32.98,5.4.69-.97c3.74-5.25,9.8-8.39,16.22-8.39,10.81,0,19.63,8.66,19.9,19.4h-1.77Z" style="fill:#8786a3; stroke-width:0px;"/><path d="m361.24,169.86c10.36,0,18.85,8.17,19.38,18.4h-.77c-.52-9.81-8.67-17.63-18.6-17.63-6.24,0-12.05,3.11-15.52,8.33l-1.3,1.96,2.31-.42,4.55-.83.14.76-7.81,1.42-1.42-7.81.76-.14.68,3.74.42,2.33,1.37-1.93c3.65-5.12,9.56-8.18,15.81-8.18m0-1c-6.67,0-12.85,3.29-16.63,8.6l-.86-4.72-2.73.5,1.78,9.78,9.78-1.78-.49-2.73-5.53,1c3.24-4.86,8.74-7.88,14.68-7.88,9.72,0,17.63,7.91,17.63,17.63h2.77c0-11.25-9.15-20.4-20.4-20.4h0Z" style="fill:#32406d; stroke-width:0px;"/><path d="m361.24,209.16c-10.81,0-19.63-8.66-19.9-19.4h1.77c.27,9.77,8.29,17.63,18.12,17.63,6.05,0,11.69-3.01,15.07-8.06l.64-.96-6.24,1.02-.29-1.75,8.82-1.44,1.43,8.82-1.75.29-.87-5.36-.71.97c-3.75,5.16-9.78,8.25-16.12,8.25Z" style="fill:#8786a3; stroke-width:0px;"/><path d="m342.63,190.26c.52,9.81,8.67,17.63,18.6,17.63,6.22,0,12.01-3.1,15.49-8.29l1.28-1.91-2.27.37-4.61.75-.12-.76,7.83-1.28,1.28,7.84-.76.12-.6-3.69-.39-2.37-1.41,1.94c-3.65,5.03-9.53,8.04-15.71,8.04-10.36,0-18.85-8.17-19.38-18.4h.77m.97-1h-2.77c0,11.25,9.15,20.4,20.4,20.4,6.6,0,12.73-3.23,16.52-8.45l.76,4.67,2.73-.45-1.6-9.81-9.81,1.6.45,2.73,5.6-.91c-3.24,4.83-8.73,7.84-14.66,7.84-9.72,0-17.63-7.91-17.63-17.63h0Z" style="fill:#32406d; stroke-width:0px;"/><polygon points="303.31 149.55 275.75 149.55 272.36 124.56 306.7 124.56 303.31 149.55" style="fill:#dedce4; stroke-width:0px;"/><path d="m335.28,71.5c0,10.13-8.29,25.78-14.36,35.89-3.51,5.85-6.3,9.86-6.3,9.86,0,.86-.11,2.01-.32,3.31-1.1,6.8-4.87,18.06-9.37,18.06h-30.82c-4.49,0-8.26-11.26-9.37-18.06-.22-1.31-.32-2.45-.32-3.31,0,0-2.77-4.01-6.3-9.86-6.07-10.11-14.35-25.76-14.35-35.89,0-25.26,20.48-45.74,45.74-45.74s45.76,20.48,45.76,45.74Z" style="fill:#fff; stroke-width:0px;"/><path d="m320.92,107.39c-3.51,5.85-6.3,9.86-6.3,9.86,0,.86-.11,2.01-.32,3.31h-49.55c-.22-1.31-.32-2.45-.32-3.31,0,0-2.77-4.01-6.3-9.86h62.79Z" style="fill:#fff; stroke-width:0px;"/><polyline points="302.87 136.68 301.38 147.62 273.82 147.62 272.33 136.68" style="fill:none; stroke:#32406d; stroke-miterlimit:10;"/><path d="m331.4,54.68c-.34-1.01-.72-2-1.13-2.98-7.01-16.65-23.5-28.37-42.67-28.37s-35.57,11.66-42.6,28.25c-.57,1.36-1.08,2.75-1.54,4.17-1.36,4.37-2.1,9.01-2.1,13.82,0,10.04,7.84,25.2,14.42,36.15,3.14,5.23,5.72,9.03,6.22,9.77.02.88.13,1.99.33,3.23.98,6.03,4.68,18.48,9.86,18.48h30.82c5.18,0,8.88-12.45,9.86-18.48.2-1.23.32-2.35.33-3.23.5-.74,3.09-4.54,6.23-9.77,6.58-10.96,14.43-26.13,14.43-36.15,0-5.21-.87-10.21-2.46-14.89Zm-12.83,50.53c-3.46,5.77-6.25,9.79-6.28,9.83l-.09.13v.16c0,.86-.11,1.97-.31,3.23-1.21,7.4-4.96,17.64-8.88,17.64h-30.82c-3.87,0-7.7-10.43-8.87-17.64-.21-1.26-.32-2.38-.32-3.23v-.16l-.09-.13s-2.8-4.06-6.28-9.83c-5.33-8.88-14.27-25.31-14.27-35.64,0-5.07.84-9.95,2.38-14.5.27-.78.55-1.55.86-2.31,6.69-16.64,23-28.43,42-28.43s35.43,11.86,42.08,28.58c.15.37.29.75.43,1.12,1.78,4.85,2.75,10.08,2.75,15.54,0,9.79-7.77,24.78-14.29,35.64Z" style="fill:#32406d; stroke-width:0px;"/><path d="m318.99,105.47c-3.51,5.85-6.3,9.86-6.3,9.86,0,.86-.11,2.01-.32,3.31h-49.55c-.22-1.31-.32-2.45-.32-3.31,0,0-2.77-4.01-6.3-9.86h62.79Z" style="fill:#32406d; stroke:#32406d; stroke-miterlimit:10;"/><line x1="285" y1="449.87" x2="295.55" y2="449.87" style="fill:none; stroke:#32406d; stroke-miterlimit:10;"/><line x1="269.24" y1="449.87" x2="279.83" y2="449.87" style="fill:none; stroke:#32406d; stroke-miterlimit:10;"/><polyline points="332.41 449.87 342.53 449.87 342.53 521.43 253.64 521.43 253.64 449.87 264.26 449.87" style="fill:none; fill-rule:evenodd; stroke:#32406d; stroke-miterlimit:10;"/><line x1="316.82" y1="449.87" x2="326.75" y2="449.87" style="fill:none; stroke:#32406d; stroke-miterlimit:10;"/><line x1="301.16" y1="449.87" x2="311.14" y2="449.87" style="fill:none; stroke:#32406d; stroke-miterlimit:10;"/><line x1="269.24" y1="449.87" x2="279.83" y2="449.87" style="fill:none; stroke:#32406d; stroke-miterlimit:10;"/><polyline points="332.41 449.87 342.53 449.87 342.53 466.49 253.64 466.49 253.64 449.87 264.12 449.87" style="fill:none; fill-rule:evenodd; stroke:#32406d; stroke-miterlimit:10;"/><rect x="261.17" y="476.12" width="17.88" height="9.53" style="fill:none; stroke:#32406d; stroke-miterlimit:10;"/><rect x="289.14" y="476.12" width="17.88" height="9.53" style="fill:none; stroke:#32406d; stroke-miterlimit:10;"/><rect x="317.11" y="476.12" width="17.88" height="9.53" style="fill:none; stroke:#32406d; stroke-miterlimit:10;"/><circle cx="270.92" cy="503.85" r="6.58" style="fill:none; stroke:#32406d; stroke-miterlimit:10;"/><circle cx="299.56" cy="503.85" r="6.58" style="fill:none; stroke:#32406d; stroke-miterlimit:10;"/><rect x="265.56" y="441.94" width="5.65" height="17.88" style="fill:#8786a3; stroke-width:0px;"/><rect x="281.22" y="441.94" width="5.65" height="17.88" style="fill:#8786a3; stroke-width:0px;"/><rect x="296.89" y="441.94" width="5.65" height="17.88" style="fill:#8786a3; stroke-width:0px;"/><rect x="328.22" y="441.94" width="5.65" height="17.88" style="fill:#8786a3; stroke-width:0px;"/><rect x="312.56" y="441.94" width="5.65" height="17.88" style="fill:#8786a3; stroke-width:0px;"/><rect x="263.92" y="440.3" width="5.65" height="17.88" style="fill:none; stroke:#32406d; stroke-miterlimit:10;"/><rect x="279.59" y="440.3" width="5.65" height="17.88" style="fill:none; stroke:#32406d; stroke-miterlimit:10;"/><rect x="295.26" y="440.3" width="5.65" height="17.88" style="fill:none; stroke:#32406d; stroke-miterlimit:10;"/><rect x="326.59" y="440.3" width="5.65" height="17.88" style="fill:none; stroke:#32406d; stroke-miterlimit:10;"/><rect x="310.92" y="440.3" width="5.65" height="17.88" style="fill:none; stroke:#32406d; stroke-miterlimit:10;"/><circle cx="344.19" cy="521.66" r="22.74" style="fill:#fff; stroke:#32406d; stroke-miterlimit:10; stroke-width:3px;"/><polyline points="344.19 510.79 344.19 521.76 355.98 529.4" style="fill:none; fill-rule:evenodd; stroke:#aeadc1; stroke-miterlimit:10;"/><polyline points="343.04 510.6 343.04 521.57 354.82 529.21" style="fill:none; fill-rule:evenodd; stroke:#32406d; stroke-miterlimit:10;"/><circle cx="151.16" cy="512.33" r="6.85" style="fill:#32406d; stroke-width:0px;"/><rect x="108.92" y="536.78" width="87.67" height="34.9" style="fill:#dedce4; stroke-width:0px;"/><rect x="107.34" y="534.32" width="87.67" height="34.9" style="fill:none; stroke:#32406d; stroke-miterlimit:10;"/><path d="m139,545.06c0-2.19,1.17-3.39,3.14-3.39s3.14,1.21,3.14,3.39-1.17,3.38-3.14,3.38-3.14-1.21-3.14-3.38Zm1.72.02c0,1.19.45,1.92,1.41,1.92s1.41-.73,1.41-1.92-.46-1.93-1.41-1.93-1.41.74-1.41,1.93Z" style="fill:#32406d; stroke-width:0px;"/><path d="m148.15,550.55h-1.63v-7.35h1.41l.21.98c.3-.82.94-1.11,1.67-1.11,1.25,0,1.96.94,1.96,2.55,0,1.71-.81,2.81-2.19,2.81-.77,0-1.29-.38-1.42-.81v2.92Zm-.01-4.38c0,.84.5,1.09.89,1.09.59,0,1.08-.49,1.08-1.49s-.39-1.39-.99-1.39c-.48,0-.98.4-.98,1.17v.62Z" style="fill:#32406d; stroke-width:0px;"/><path d="m155.94,546.54l1.39.5c-.29,1.03-1.23,1.4-2.23,1.4-1.49,0-2.53-.96-2.53-2.6,0-1.77.96-2.76,2.54-2.76,1.48,0,2.2.96,2.2,2.29,0,.21-.02.43-.07.66h-3.09c.02.71.35,1.15.97,1.15.34,0,.65-.12.82-.64Zm-.2-1.37c.01-.05.01-.1.01-.15,0-.42-.22-.73-.7-.73s-.82.39-.86.88h1.55Z" style="fill:#32406d; stroke-width:0px;"/><path d="m160.08,544.19c.28-.76.85-1.11,1.64-1.11s1.48.46,1.48,1.62v3.6h-1.63v-2.96c0-.54-.11-.89-.62-.89-.42,0-.84.24-.84,1.09v2.76h-1.63v-5.1h1.41l.2.98Z" style="fill:#32406d; stroke-width:0px;"/><path d="m132.89,561.4c-.33.2-.76.3-1.24.3-.92,0-1.47-.49-1.47-1.44v-3h-.74v-.8h.74v-1.08l1-.12v1.2h1.51v.8h-1.52v2.81c0,.55.25.79.67.79.33,0,.56-.09.85-.28l.19.83Z" style="fill:#32406d; stroke-width:0px;"/><path d="m133.47,558.98c0-1.73.92-2.64,2.32-2.64s2.33.91,2.33,2.64-.92,2.72-2.33,2.72-2.32-.97-2.32-2.72Zm.98.01c0,1.28.45,1.92,1.34,1.92s1.35-.64,1.35-1.92-.46-1.84-1.35-1.84-1.34.6-1.34,1.84Z" style="fill:#32406d; stroke-width:0px;"/><path d="m145.74,560.27c-.18,1.03-.99,1.42-2,1.42-1.34,0-2.25-.95-2.25-2.65s.92-2.71,2.33-2.71c1.08,0,1.79.57,1.86,1.59l-.91.19c-.09-.64-.43-.96-.99-.96-.87,0-1.33.77-1.33,1.89s.53,1.86,1.37,1.86c.54,0,.91-.25,1.06-.84l.86.21Z" style="fill:#32406d; stroke-width:0px;"/><path d="m147.87,557.43c.24-.73.77-1.09,1.55-1.09.84,0,1.55.46,1.55,1.58v3.65h-.99v-3.36c0-.62-.29-1.01-.89-1.01s-1.2.32-1.2,1.44v2.93h-.99v-7.38h.99v3.25Z" style="fill:#32406d; stroke-width:0px;"/><path d="m156.07,560.36c0,.39.18.47.38.47.12,0,.21-.02.29-.05v.77c-.14.05-.32.09-.54.09-.58,0-.96-.24-1.05-.82-.26.64-.86.87-1.51.87-.9,0-1.52-.51-1.52-1.38,0-1.13.87-1.78,2.96-1.68v-.63c0-.63-.38-.87-.92-.87s-.88.29-.93.82l-.95-.14c.08-1.08,1.03-1.47,1.97-1.47.99,0,1.83.4,1.83,1.57v2.45Zm-1.01-1.07c-1.37-.03-1.97.28-1.97.92,0,.42.28.74.82.74s1.15-.32,1.15-.92v-.74Z" style="fill:#32406d; stroke-width:0px;"/><path d="m158.69,557.44c.28-.76.86-1.11,1.63-1.11.84,0,1.55.46,1.55,1.58v3.65h-.99v-3.35c0-.63-.29-1.02-.89-1.02s-1.2.33-1.2,1.44v2.93h-.99v-5.1h.78l.12.98Z" style="fill:#32406d; stroke-width:0px;"/><path d="m166.62,556.75c.24-.13.32-.4.39-.77l.86.3c-.08.49-.43.82-.85.92.15.26.23.58.23.96,0,1.18-.95,1.77-2.1,1.77-.25,0-.52-.03-.66-.09-.25.13-.34.31-.34.53,0,.29.19.42.54.42h1.25c1.16,0,1.78.51,1.78,1.42,0,1.34-1.44,1.69-2.77,1.69-1.13,0-2.23-.29-2.23-1.34,0-.66.47-1.1,1.31-1.17-.46-.05-.71-.39-.71-.79s.21-.75.75-.9c-.62-.28-.99-.8-.99-1.55,0-1.15.84-1.81,2.07-1.81.61,0,1.1.13,1.48.41Zm-1.58,6.44c1.04,0,1.71-.2,1.71-.84,0-.39-.21-.67-.86-.67h-1.1c-.73,0-1.14.24-1.14.77s.59.74,1.39.74Zm.1-3.98c.67,0,1.12-.35,1.12-1.07s-.44-1.08-1.12-1.07c-.67,0-1.07.39-1.07,1.07,0,.64.39,1.07,1.07,1.07Z" style="fill:#32406d; stroke-width:0px;"/><path d="m171.65,560.08l.87.23c-.21,1.03-1.07,1.38-2.04,1.38-1.36,0-2.28-.94-2.28-2.64s.91-2.72,2.33-2.72c1.31,0,2.02.91,2.02,2.18,0,.29-.04.55-.1.71h-3.29c.04,1,.51,1.69,1.37,1.69.56,0,.94-.22,1.12-.83Zm-.08-1.58c.01-.08.01-.14.01-.21,0-.65-.42-1.17-1.11-1.17-.73,0-1.19.5-1.29,1.38h2.39Z" style="fill:#32406d; stroke-width:0px;"/><polyline points="191.03 541.5 151.18 509.86 111.33 541.5" style="fill:none; stroke:#32406d; stroke-miterlimit:10;"/><circle cx="112.03" cy="540.93" r="1.46" style="fill:#32406d; stroke-width:0px;"/><circle cx="190.46" cy="540.93" r="1.46" style="fill:#32406d; stroke-width:0px;"/></g></svg>