<svg width="484" height="483" viewBox="0 0 484 483" fill="none" xmlns="http://www.w3.org/2000/svg">
<path d="M125 120.5L363 359" stroke="#FBF0F3"/>
<path d="M121 358.5L359 120.5" stroke="#FBF0F3"/>
<rect x="159.772" y="240.827" width="119.239" height="119.239" transform="rotate(-45 159.772 240.827)" fill="#D75178"/>
<path d="M221.067 82.2865L222.294 82.065C222.277 83.3767 223.026 83.9217 224.287 83.9217C225.564 83.9217 226.382 83.3596 226.382 82.1161C226.382 81.077 225.922 80.6171 224.542 80.0891C223.316 79.6121 222.26 79.0841 222.26 77.3977C222.26 75.2003 224.202 74.5019 225.599 74.5019C227.54 74.5019 228.631 75.2003 228.631 77.1422L227.353 77.3466C227.387 76.1712 226.74 75.5239 225.496 75.5239C224.338 75.5239 223.52 76.1542 223.52 77.2103C223.52 78.2664 224.151 78.5219 225.394 79.033C226.859 79.6462 227.728 80.3105 227.728 81.9458C227.728 84.041 226.076 84.9438 224.151 84.9438C222.158 84.9438 221.067 84.1262 221.067 82.2865ZM233.119 83.4618V84.552C232.642 84.8246 232.029 84.9438 231.569 84.9438C230.241 84.9438 229.525 84.2284 229.832 82.559L230.649 77.9087H229.559L229.747 76.8696H230.854L231.143 75.2173L232.455 75.0299L232.131 76.8696H234.193L234.005 77.9087H231.961L231.109 82.6953C230.956 83.53 231.314 83.8536 231.774 83.8536C232.251 83.8536 232.574 83.7684 233.119 83.4618ZM239.997 81.4518L240.236 80.1231C240.44 78.9307 239.946 77.7043 238.685 77.7043C237.118 77.7043 235.96 79.3225 235.96 81.571C235.96 82.8997 236.539 83.8706 237.697 83.8706C238.89 83.8706 239.742 82.9508 239.997 81.4518ZM242.109 76.8696L241.019 83.053C240.951 83.4448 240.968 83.8195 241.462 83.8195C241.598 83.8195 241.752 83.8025 241.956 83.7514L241.786 84.6883C241.547 84.7734 241.258 84.8246 240.968 84.8246C240.116 84.8246 239.673 84.3306 239.742 83.4278C239.265 84.5009 238.328 84.9438 237.34 84.9438C235.824 84.9438 234.699 83.8025 234.699 81.7243C234.699 79.033 236.25 76.6822 238.566 76.6822C239.656 76.6822 240.406 77.1592 240.61 78.1983L241.036 76.8696H242.109ZM248.947 81.5029L249.202 80.1231C249.407 78.9478 248.947 77.7043 247.669 77.7043C246.051 77.7043 244.91 79.3566 244.91 81.5881C244.91 82.9167 245.455 83.8706 246.63 83.8706C247.873 83.8706 248.691 82.9849 248.947 81.5029ZM251.059 76.8696L249.628 84.9949C249.219 87.2604 248.112 88.3336 245.812 88.3336C243.717 88.3336 242.934 87.3115 242.797 86.1532L243.956 85.7614C244.024 86.6642 244.722 87.3797 245.897 87.3797C247.362 87.3797 248.027 86.528 248.316 85.046L248.623 83.4618C248.146 84.535 247.328 84.9268 246.323 84.9268C244.79 84.9268 243.649 83.7855 243.649 81.7073C243.649 79.033 245.233 76.6822 247.567 76.6822C248.657 76.6822 249.355 77.1592 249.56 78.1983L249.986 76.8696H251.059ZM255.283 83.9388C256.459 83.9388 256.936 83.4448 257.225 82.5931L258.401 82.8827C257.821 84.4839 256.697 84.9438 255.164 84.9438C253.273 84.9438 252.166 83.6151 252.166 81.6051C252.166 78.4027 254.108 76.6822 255.999 76.6822C258.009 76.6822 258.792 78.045 258.792 79.4929C258.792 80.038 258.69 80.5831 258.452 81.0941H253.375C253.256 82.4738 253.784 83.9388 255.283 83.9388ZM253.529 80.055H257.464C257.532 79.8676 257.549 79.6632 257.549 79.4588C257.549 78.5219 257.038 77.7043 255.931 77.7043C254.619 77.7043 253.835 78.8115 253.529 80.055ZM266.502 84.7394H265.173L266.383 77.8235L263.896 78.2835L264.1 77.1933L267.967 76.4097L266.502 84.7394Z" fill="#363C65"/>
<path d="M201.147 107.505H198.575C198.269 107.267 198.149 106.892 198.047 106.466L197.673 104.967C197.468 104.115 197.076 103.962 196.31 103.962H195.322V107.505H193.005V97.4721H196.957C199.206 97.4721 200.602 98.2897 200.602 100.538C200.602 102.088 199.7 102.923 198.405 103.059V103.093C199.325 103.247 199.819 103.638 200.074 104.558L200.585 106.432C200.688 106.824 200.824 107.165 201.147 107.505ZM195.322 99.431V102.054H196.804C197.724 102.054 198.235 101.697 198.235 100.743C198.235 99.8909 197.758 99.431 196.804 99.431H195.322ZM205.937 105.955C206.55 105.955 207.061 105.717 207.316 104.882L209.258 105.546C208.849 107.147 207.436 107.71 205.885 107.71C203.637 107.71 202.087 106.228 202.087 103.69C202.087 100.981 203.552 99.4481 205.92 99.4481C208.151 99.4481 209.241 100.913 209.241 102.94C209.241 103.281 209.207 103.638 209.139 103.962H204.284C204.335 105.172 204.898 105.955 205.937 105.955ZM204.352 102.702H207.061C207.078 102.599 207.078 102.531 207.078 102.429C207.078 101.697 206.652 101.134 205.834 101.134C204.983 101.134 204.438 101.782 204.352 102.702ZM211.188 101.39H210.03V99.6354H211.188V99.1244C211.188 96.7226 213.028 95.9901 214.663 95.9901C215.651 95.9901 216.451 96.2116 217.099 96.5693L216.315 98.409C215.923 98.1194 215.361 97.915 214.816 97.915C214.135 97.915 213.453 98.1875 213.453 99.1925V99.6354H218.155V107.505H215.872V101.39H213.453V107.505H211.188V101.39ZM222.239 99.6354L222.512 101.151C222.938 99.9761 223.823 99.4481 225.033 99.4481C226.242 99.4481 227.35 100.163 227.35 101.935V107.505H225.067V102.787C225.067 101.918 224.828 101.356 224.011 101.356C223.278 101.356 222.58 101.765 222.58 103.179V107.505H220.297V99.6354H222.239ZM232.752 105.955C233.365 105.955 233.876 105.717 234.132 104.882L236.074 105.546C235.665 107.147 234.251 107.71 232.701 107.71C230.452 107.71 228.902 106.228 228.902 103.69C228.902 100.981 230.367 99.4481 232.735 99.4481C234.966 99.4481 236.057 100.913 236.057 102.94C236.057 103.281 236.023 103.638 235.954 103.962H231.1C231.151 105.172 231.713 105.955 232.752 105.955ZM231.168 102.702H233.876C233.893 102.599 233.893 102.531 233.893 102.429C233.893 101.697 233.467 101.134 232.65 101.134C231.798 101.134 231.253 101.782 231.168 102.702ZM243.773 96.1264V101.134C244.182 99.9761 245.016 99.4481 246.226 99.4481C247.435 99.4481 248.542 100.163 248.542 101.935V107.505H246.26V102.787C246.26 101.918 246.021 101.356 245.204 101.356C244.471 101.356 243.773 101.765 243.773 103.161V107.505H241.49V96.1264H243.773ZM253.911 107.71C251.611 107.71 250.095 106.211 250.095 103.553C250.095 100.879 251.611 99.4481 253.911 99.4481C256.193 99.4481 257.709 100.879 257.709 103.553C257.709 106.211 256.193 107.71 253.911 107.71ZM253.911 101.271C252.855 101.271 252.344 102.003 252.344 103.553C252.344 105.189 252.838 105.938 253.911 105.938C254.967 105.938 255.461 105.189 255.461 103.553C255.461 102.003 254.95 101.271 253.911 101.271ZM265.472 99.6354L266.34 102.753C266.783 104.337 266.869 105.819 266.869 105.819H266.937C266.937 105.819 267.005 104.371 267.38 102.787L268.112 99.6354H270.378L268.333 107.505H265.625L264.859 104.695C264.535 103.434 264.45 102.156 264.45 102.156H264.382C264.382 102.156 264.296 103.417 263.973 104.712L263.291 107.505H260.6L258.437 99.6354H260.753L261.571 102.77C261.98 104.354 262.065 105.819 262.065 105.819H262.133C262.133 105.819 262.218 104.337 262.593 102.753L263.394 99.6354H265.472ZM280.23 105.274L280.622 107.199C279.958 107.539 279.14 107.71 278.203 107.71C276.636 107.71 275.614 106.977 275.614 105.172V101.39H274.473V99.6354H275.631V97.9661L277.914 97.6935V99.6354H280.247V101.39H277.897V104.66C277.897 105.495 278.22 105.768 278.85 105.768C279.344 105.768 279.77 105.597 280.23 105.274ZM284.229 96.1264V101.134C284.638 99.9761 285.472 99.4481 286.682 99.4481C287.891 99.4481 288.998 100.163 288.998 101.935V107.505H286.716V102.787C286.716 101.918 286.477 101.356 285.66 101.356C284.927 101.356 284.229 101.765 284.229 103.161V107.505H281.946V96.1264H284.229ZM294.401 105.955C295.014 105.955 295.525 105.717 295.781 104.882L297.722 105.546C297.314 107.147 295.9 107.71 294.35 107.71C292.101 107.71 290.551 106.228 290.551 103.69C290.551 100.981 292.016 99.4481 294.384 99.4481C296.615 99.4481 297.705 100.913 297.705 102.94C297.705 103.281 297.671 103.638 297.603 103.962H292.749C292.8 105.172 293.362 105.955 294.401 105.955ZM292.817 102.702H295.525C295.542 102.599 295.542 102.531 295.542 102.429C295.542 101.697 295.116 101.134 294.299 101.134C293.447 101.134 292.902 101.782 292.817 102.702ZM166.437 125.196V126.286C166.437 127.631 167.272 128.074 167.936 128.074C168.907 128.074 169.724 127.257 169.724 125.587C169.724 123.952 169.094 123.271 168.089 123.271C167.255 123.271 166.437 123.935 166.437 125.196ZM166.454 128.466V132.963H164.171V121.635H166.113L166.403 123.151C166.88 121.891 167.902 121.448 168.992 121.448C170.917 121.448 172.024 122.879 172.024 125.383C172.024 127.972 170.781 129.71 168.651 129.71C167.442 129.71 166.675 129.13 166.454 128.466ZM179.087 121.465L178.832 123.986C178.542 123.884 178.304 123.85 177.946 123.85C177.043 123.85 175.936 124.293 175.936 125.911V129.505H173.653V121.635H175.629L175.902 123.799C176.242 122.436 177.009 121.346 179.087 121.465ZM183.445 129.71C181.146 129.71 179.63 128.211 179.63 125.553C179.63 122.879 181.146 121.448 183.445 121.448C185.728 121.448 187.244 122.879 187.244 125.553C187.244 128.211 185.728 129.71 183.445 129.71ZM183.445 123.271C182.389 123.271 181.878 124.003 181.878 125.553C181.878 127.189 182.372 127.938 183.445 127.938C184.502 127.938 184.996 127.189 184.996 125.553C184.996 124.003 184.485 123.271 183.445 123.271ZM191.14 125.127V126.286C191.14 127.631 191.974 128.074 192.639 128.074C193.61 128.074 194.427 127.257 194.427 125.587C194.427 123.952 193.797 123.271 192.792 123.271C191.957 123.271 191.14 123.935 191.14 125.127ZM191.037 128.364L190.475 129.505H188.874V118.126H191.157V123.1C191.583 121.908 192.571 121.448 193.695 121.448C195.62 121.448 196.727 122.879 196.727 125.383C196.727 127.972 195.5 129.71 193.371 129.71C192.025 129.71 191.276 129.113 191.037 128.364ZM201.814 127.546L201.695 129.454C201.252 129.573 200.826 129.658 200.383 129.658C199.242 129.658 198.203 129.13 198.203 127.648V118.126H200.485V126.984C200.485 127.478 200.792 127.666 201.201 127.666C201.405 127.666 201.61 127.631 201.814 127.546ZM206.452 127.955C207.066 127.955 207.577 127.717 207.832 126.882L209.774 127.546C209.365 129.147 207.951 129.71 206.401 129.71C204.153 129.71 202.603 128.228 202.603 125.69C202.603 122.981 204.068 121.448 206.435 121.448C208.667 121.448 209.757 122.913 209.757 124.94C209.757 125.281 209.723 125.638 209.655 125.962H204.8C204.851 127.172 205.413 127.955 206.452 127.955ZM204.868 124.702H207.577C207.594 124.599 207.594 124.531 207.594 124.429C207.594 123.697 207.168 123.134 206.35 123.134C205.498 123.134 204.953 123.782 204.868 124.702ZM218.142 123.168C218.568 121.993 219.522 121.448 220.698 121.448C221.975 121.448 222.946 122.163 222.946 123.918V129.505H220.664V124.787C220.664 123.918 220.425 123.356 219.624 123.356C218.926 123.356 218.33 123.799 218.33 125.161V129.505H216.047V124.787C216.047 123.918 215.826 123.356 215.008 123.356C214.293 123.356 213.714 123.799 213.714 125.179V129.505H211.431V121.635H213.373L213.645 123.151C214.071 121.959 214.906 121.448 216.064 121.448C217.069 121.448 217.938 121.857 218.142 123.168ZM228.526 119.234C228.526 118.365 229.139 117.905 229.906 117.905C230.706 117.905 231.32 118.365 231.32 119.234C231.32 120.068 230.706 120.528 229.906 120.528C229.139 120.528 228.526 120.068 228.526 119.234ZM228.765 121.635H231.047V129.505H228.765V121.635ZM232.423 127.683L234.297 126.933C234.467 127.785 235.08 128.108 235.83 128.108C236.46 128.108 236.903 127.887 236.903 127.427C236.903 126.984 236.596 126.78 235.898 126.609L234.74 126.337C233.36 125.979 232.73 125.196 232.73 124.003C232.73 122.01 234.314 121.448 235.932 121.448C237.806 121.448 238.93 122.129 239.049 123.662L236.92 123.969C236.835 123.339 236.477 123.134 235.83 123.134C235.302 123.134 234.944 123.373 234.944 123.782C234.944 124.174 235.182 124.395 235.71 124.497L236.818 124.736C238.419 125.076 239.168 125.928 239.168 127.274C239.168 129.028 237.721 129.71 235.796 129.71C233.854 129.71 232.73 129.165 232.423 127.683ZM249.457 129.505L249.185 128.04C248.912 129.113 248.197 129.71 246.749 129.71C245.352 129.71 244.381 128.994 244.381 127.172V121.635H246.664V126.524C246.664 127.461 246.953 127.989 247.737 127.989C248.52 127.989 249.151 127.376 249.151 125.86V121.635H251.433V129.505H249.457ZM255.526 121.635L255.798 123.151C256.224 121.976 257.11 121.448 258.319 121.448C259.529 121.448 260.636 122.163 260.636 123.935V129.505H258.353V124.787C258.353 123.918 258.115 123.356 257.297 123.356C256.565 123.356 255.866 123.765 255.866 125.179V129.505H253.584V121.635H255.526ZM267.776 126.235V124.77C267.776 123.611 267.026 123.134 266.243 123.134C265.34 123.134 264.471 123.782 264.471 125.638C264.471 127.12 265.136 127.955 266.209 127.955C266.992 127.955 267.776 127.376 267.776 126.235ZM267.759 122.675V118.126H270.041V129.505H268.065L267.776 128.142C267.486 129.335 266.498 129.71 265.323 129.71C263.585 129.71 262.189 128.33 262.189 125.741C262.189 123.049 263.449 121.448 265.698 121.448C266.703 121.448 267.554 121.925 267.759 122.675ZM275.52 127.955C276.133 127.955 276.645 127.717 276.9 126.882L278.842 127.546C278.433 129.147 277.019 129.71 275.469 129.71C273.221 129.71 271.671 128.228 271.671 125.69C271.671 122.981 273.135 121.448 275.503 121.448C277.735 121.448 278.825 122.913 278.825 124.94C278.825 125.281 278.791 125.638 278.723 125.962H273.868C273.919 127.172 274.481 127.955 275.52 127.955ZM273.936 124.702H276.645C276.662 124.599 276.662 124.531 276.662 124.429C276.662 123.697 276.236 123.134 275.418 123.134C274.566 123.134 274.021 123.782 273.936 124.702ZM285.933 121.465L285.677 123.986C285.388 123.884 285.149 123.85 284.792 123.85C283.889 123.85 282.782 124.293 282.782 125.911V129.505H280.499V121.635H282.475L282.748 123.799C283.088 122.436 283.855 121.346 285.933 121.465ZM286.187 127.683L288.061 126.933C288.231 127.785 288.844 128.108 289.594 128.108C290.224 128.108 290.667 127.887 290.667 127.427C290.667 126.984 290.36 126.78 289.662 126.609L288.503 126.337C287.124 125.979 286.493 125.196 286.493 124.003C286.493 122.01 288.078 121.448 289.696 121.448C291.57 121.448 292.694 122.129 292.813 123.662L290.684 123.969C290.599 123.339 290.241 123.134 289.594 123.134C289.066 123.134 288.708 123.373 288.708 123.782C288.708 124.174 288.946 124.395 289.474 124.497L290.582 124.736C292.183 125.076 292.932 125.928 292.932 127.274C292.932 129.028 291.484 129.71 289.56 129.71C287.618 129.71 286.493 129.165 286.187 127.683ZM299.394 127.274L299.785 129.199C299.121 129.539 298.303 129.71 297.367 129.71C295.799 129.71 294.777 128.977 294.777 127.172V123.39H293.636V121.635H294.794V119.966L297.077 119.694V121.635H299.411V123.39H297.06V126.66C297.06 127.495 297.384 127.768 298.014 127.768C298.508 127.768 298.934 127.597 299.394 127.274ZM304.331 129.71C302.031 129.71 300.515 128.211 300.515 125.553C300.515 122.879 302.031 121.448 304.331 121.448C306.614 121.448 308.13 122.879 308.13 125.553C308.13 128.211 306.614 129.71 304.331 129.71ZM304.331 123.271C303.275 123.271 302.764 124.003 302.764 125.553C302.764 127.189 303.258 127.938 304.331 127.938C305.387 127.938 305.881 127.189 305.881 125.553C305.881 124.003 305.37 123.271 304.331 123.271ZM313.064 129.71C310.765 129.71 309.249 128.211 309.249 125.553C309.249 122.879 310.765 121.448 313.064 121.448C315.347 121.448 316.863 122.879 316.863 125.553C316.863 128.211 315.347 129.71 313.064 129.71ZM313.064 123.271C312.008 123.271 311.497 124.003 311.497 125.553C311.497 127.189 311.991 127.938 313.064 127.938C314.12 127.938 314.614 127.189 314.614 125.553C314.614 124.003 314.103 123.271 313.064 123.271ZM323.569 126.235V124.77C323.569 123.611 322.82 123.134 322.036 123.134C321.133 123.134 320.265 123.782 320.265 125.638C320.265 127.12 320.929 127.955 322.002 127.955C322.786 127.955 323.569 127.376 323.569 126.235ZM323.552 122.675V118.126H325.835V129.505H323.859L323.569 128.142C323.28 129.335 322.292 129.71 321.116 129.71C319.379 129.71 317.982 128.33 317.982 125.741C317.982 123.049 319.243 121.448 321.491 121.448C322.496 121.448 323.348 121.925 323.552 122.675Z" fill="#363C65"/>
<path d="M371.893 218.547L373.12 218.326C373.103 219.637 373.852 220.182 375.113 220.182C376.39 220.182 377.208 219.62 377.208 218.377C377.208 217.338 376.748 216.878 375.368 216.35C374.142 215.873 373.086 215.345 373.086 213.658C373.086 211.461 375.028 210.762 376.424 210.762C378.366 210.762 379.456 211.461 379.456 213.403L378.179 213.607C378.213 212.432 377.566 211.785 376.322 211.785C375.164 211.785 374.346 212.415 374.346 213.471C374.346 214.527 374.976 214.783 376.22 215.294C377.685 215.907 378.554 216.571 378.554 218.206C378.554 220.302 376.901 221.204 374.976 221.204C372.983 221.204 371.893 220.387 371.893 218.547ZM383.945 219.722V220.813C383.468 221.085 382.855 221.204 382.395 221.204C381.066 221.204 380.351 220.489 380.658 218.82L381.475 214.169H380.385L380.572 213.13H381.68L381.969 211.478L383.281 211.291L382.957 213.13H385.018L384.831 214.169H382.787L381.935 218.956C381.782 219.791 382.14 220.114 382.599 220.114C383.076 220.114 383.4 220.029 383.945 219.722ZM390.823 217.712L391.061 216.384C391.266 215.191 390.772 213.965 389.511 213.965C387.944 213.965 386.786 215.583 386.786 217.832C386.786 219.16 387.365 220.131 388.523 220.131C389.716 220.131 390.567 219.211 390.823 217.712ZM392.935 213.13L391.845 219.314C391.777 219.705 391.794 220.08 392.288 220.08C392.424 220.08 392.577 220.063 392.782 220.012L392.611 220.949C392.373 221.034 392.083 221.085 391.794 221.085C390.942 221.085 390.499 220.591 390.567 219.688C390.09 220.761 389.154 221.204 388.166 221.204C386.649 221.204 385.525 220.063 385.525 217.985C385.525 215.294 387.075 212.943 389.392 212.943C390.482 212.943 391.232 213.42 391.436 214.459L391.862 213.13H392.935ZM399.772 217.763L400.028 216.384C400.232 215.208 399.772 213.965 398.495 213.965C396.877 213.965 395.735 215.617 395.735 217.849C395.735 219.177 396.28 220.131 397.456 220.131C398.699 220.131 399.517 219.245 399.772 217.763ZM401.885 213.13L400.454 221.255C400.045 223.521 398.938 224.594 396.638 224.594C394.543 224.594 393.759 223.572 393.623 222.414L394.781 222.022C394.85 222.925 395.548 223.64 396.723 223.64C398.188 223.64 398.853 222.789 399.142 221.307L399.449 219.722C398.972 220.796 398.154 221.187 397.149 221.187C395.616 221.187 394.475 220.046 394.475 217.968C394.475 215.294 396.059 212.943 398.393 212.943C399.483 212.943 400.181 213.42 400.386 214.459L400.811 213.13H401.885ZM406.109 220.199C407.284 220.199 407.761 219.705 408.051 218.854L409.226 219.143C408.647 220.744 407.523 221.204 405.99 221.204C404.099 221.204 402.992 219.876 402.992 217.866C402.992 214.663 404.934 212.943 406.825 212.943C408.835 212.943 409.618 214.306 409.618 215.753C409.618 216.299 409.516 216.844 409.277 217.355H404.201C404.082 218.734 404.61 220.199 406.109 220.199ZM404.355 216.316H408.289C408.358 216.128 408.375 215.924 408.375 215.719C408.375 214.783 407.864 213.965 406.756 213.965C405.445 213.965 404.661 215.072 404.355 216.316ZM420.326 219.91L420.138 221H414.125L414.296 219.978C417.481 218.445 419.389 217.048 419.389 215.14C419.389 214.237 418.861 213.709 417.924 213.709C417.072 213.709 416.272 214.152 416.272 215.498L415.062 215.242C415.232 213.079 416.953 212.602 418.06 212.602C419.729 212.602 420.752 213.454 420.752 215.106C420.752 217.61 417.822 219.314 415.846 219.842V219.91H420.326Z" fill="#363C65"/>
<path d="M340.614 240.495L342.573 241.671C341.67 243.221 340.494 243.97 338.263 243.97C335.537 243.97 333.664 242.079 333.664 238.741C333.664 235.402 335.503 233.528 338.57 233.528C340.631 233.528 341.925 234.465 342.658 236.066L340.426 237.157C340.12 236.169 339.575 235.572 338.484 235.572C336.968 235.572 336.048 236.782 336.048 238.792C336.048 240.768 336.866 241.926 338.518 241.926C339.438 241.926 340.171 241.466 340.614 240.495ZM347.324 243.97C345.024 243.97 343.508 242.471 343.508 239.814C343.508 237.14 345.024 235.709 347.324 235.709C349.607 235.709 351.123 237.14 351.123 239.814C351.123 242.471 349.607 243.97 347.324 243.97ZM347.324 237.531C346.268 237.531 345.757 238.264 345.757 239.814C345.757 241.449 346.251 242.199 347.324 242.199C348.38 242.199 348.874 241.449 348.874 239.814C348.874 238.264 348.363 237.531 347.324 237.531ZM354.695 235.896L354.967 237.412C355.393 236.237 356.279 235.709 357.488 235.709C358.698 235.709 359.805 236.424 359.805 238.196V243.766H357.522V239.047C357.522 238.179 357.284 237.616 356.466 237.616C355.734 237.616 355.035 238.025 355.035 239.439V243.766H352.753V235.896H354.695ZM363.81 235.896L364.083 237.412C364.509 236.237 365.395 235.709 366.604 235.709C367.814 235.709 368.921 236.424 368.921 238.196V243.766H366.638V239.047C366.638 238.179 366.4 237.616 365.582 237.616C364.85 237.616 364.151 238.025 364.151 239.439V243.766H361.869V235.896H363.81ZM374.323 242.216C374.936 242.216 375.447 241.977 375.703 241.143L377.645 241.807C377.236 243.408 375.822 243.97 374.272 243.97C372.024 243.97 370.473 242.488 370.473 239.95C370.473 237.242 371.938 235.709 374.306 235.709C376.538 235.709 377.628 237.174 377.628 239.201C377.628 239.541 377.594 239.899 377.526 240.223H372.671C372.722 241.432 373.284 242.216 374.323 242.216ZM372.739 238.962H375.447C375.464 238.86 375.464 238.792 375.464 238.69C375.464 237.957 375.039 237.395 374.221 237.395C373.369 237.395 372.824 238.042 372.739 238.962ZM383.901 241.006L385.911 241.654C385.622 243.238 384.259 243.97 382.59 243.97C380.307 243.97 378.791 242.488 378.791 239.865C378.791 237.242 380.307 235.709 382.607 235.709C384.48 235.709 385.673 236.714 385.792 238.298L383.867 238.826C383.748 237.991 383.356 237.497 382.59 237.497C381.567 237.497 381.005 238.4 381.005 239.831C381.005 241.33 381.602 242.216 382.624 242.216C383.237 242.216 383.697 241.909 383.901 241.006ZM392.158 241.534L392.55 243.459C391.885 243.8 391.068 243.97 390.131 243.97C388.564 243.97 387.542 243.238 387.542 241.432V237.651H386.401V235.896H387.559V234.227L389.841 233.954V235.896H392.175V237.651H389.824V240.921C389.824 241.756 390.148 242.028 390.778 242.028C391.272 242.028 391.698 241.858 392.158 241.534ZM396.867 241.943L398.741 241.194C398.911 242.045 399.524 242.369 400.274 242.369C400.904 242.369 401.347 242.148 401.347 241.688C401.347 241.245 401.04 241.04 400.342 240.87L399.184 240.597C397.804 240.24 397.174 239.456 397.174 238.264C397.174 236.271 398.758 235.709 400.376 235.709C402.25 235.709 403.374 236.39 403.493 237.923L401.364 238.23C401.279 237.599 400.921 237.395 400.274 237.395C399.746 237.395 399.388 237.633 399.388 238.042C399.388 238.434 399.627 238.656 400.155 238.758L401.262 238.996C402.863 239.337 403.613 240.189 403.613 241.534C403.613 243.289 402.165 243.97 400.24 243.97C398.298 243.97 397.174 243.425 396.867 241.943ZM406.667 235.896L407.689 239.473C408.132 241.023 408.234 242.011 408.234 242.011H408.302C408.302 242.011 408.404 241.006 408.864 239.49L409.955 235.896H412.356L409.239 244.464C408.353 246.9 407.263 247.309 405.645 247.309C405.185 247.309 404.657 247.224 404.231 247.121L404.572 245.111C404.861 245.282 405.219 245.384 405.611 245.384C406.326 245.384 406.769 245.077 407.093 244.209L404.18 235.896H406.667ZM412.537 241.943L414.411 241.194C414.581 242.045 415.194 242.369 415.944 242.369C416.574 242.369 417.017 242.148 417.017 241.688C417.017 241.245 416.71 241.04 416.012 240.87L414.854 240.597C413.474 240.24 412.844 239.456 412.844 238.264C412.844 236.271 414.428 235.709 416.046 235.709C417.92 235.709 419.044 236.39 419.163 237.923L417.034 238.23C416.949 237.599 416.591 237.395 415.944 237.395C415.416 237.395 415.058 237.633 415.058 238.042C415.058 238.434 415.297 238.656 415.825 238.758L416.932 238.996C418.533 239.337 419.283 240.189 419.283 241.534C419.283 243.289 417.835 243.97 415.91 243.97C413.968 243.97 412.844 243.425 412.537 241.943ZM425.744 241.534L426.136 243.459C425.471 243.8 424.654 243.97 423.717 243.97C422.15 243.97 421.128 243.238 421.128 241.432V237.651H419.986V235.896H421.145V234.227L423.427 233.954V235.896H425.761V237.651H423.41V240.921C423.41 241.756 423.734 242.028 424.364 242.028C424.858 242.028 425.284 241.858 425.744 241.534ZM430.715 242.216C431.329 242.216 431.84 241.977 432.095 241.143L434.037 241.807C433.628 243.408 432.214 243.97 430.664 243.97C428.416 243.97 426.866 242.488 426.866 239.95C426.866 237.242 428.331 235.709 430.698 235.709C432.93 235.709 434.02 237.174 434.02 239.201C434.02 239.541 433.986 239.899 433.918 240.223H429.063C429.114 241.432 429.676 242.216 430.715 242.216ZM429.131 238.962H431.84C431.857 238.86 431.857 238.792 431.857 238.69C431.857 237.957 431.431 237.395 430.613 237.395C429.761 237.395 429.216 238.042 429.131 238.962ZM442.406 237.429C442.831 236.254 443.785 235.709 444.961 235.709C446.238 235.709 447.209 236.424 447.209 238.179V243.766H444.927V239.047C444.927 238.179 444.688 237.616 443.888 237.616C443.189 237.616 442.593 238.059 442.593 239.422V243.766H440.31V239.047C440.31 238.179 440.089 237.616 439.271 237.616C438.556 237.616 437.977 238.059 437.977 239.439V243.766H435.694V235.896H437.636L437.909 237.412C438.334 236.22 439.169 235.709 440.327 235.709C441.332 235.709 442.201 236.117 442.406 237.429ZM448.502 241.943L450.375 241.194C450.546 242.045 451.159 242.369 451.909 242.369C452.539 242.369 452.982 242.148 452.982 241.688C452.982 241.245 452.675 241.04 451.977 240.87L450.818 240.597C449.439 240.24 448.808 239.456 448.808 238.264C448.808 236.271 450.392 235.709 452.011 235.709C453.884 235.709 455.009 236.39 455.128 237.923L452.999 238.23C452.914 237.599 452.556 237.395 451.909 237.395C451.38 237.395 451.023 237.633 451.023 238.042C451.023 238.434 451.261 238.656 451.789 238.758L452.896 238.996C454.498 239.337 455.247 240.189 455.247 241.534C455.247 243.289 453.799 243.97 451.874 243.97C449.933 243.97 448.808 243.425 448.502 241.943ZM362.832 263.296V262.495C361.231 262.444 360.669 262.87 360.669 263.568C360.669 264.028 360.992 264.352 361.538 264.352C362.134 264.352 362.832 264.062 362.832 263.296ZM365.081 260.315V263.381C365.081 263.909 365.302 264.096 365.66 264.096C365.847 264.096 366.001 264.045 366.154 263.977V265.63C365.83 265.834 365.404 265.919 364.859 265.919C363.854 265.919 363.241 265.527 362.985 264.676C362.628 265.647 361.776 265.97 360.703 265.97C359.306 265.97 358.386 265.153 358.386 263.807C358.386 262.052 359.8 261.098 362.832 261.269V260.519C362.832 259.838 362.543 259.429 361.912 259.429C361.282 259.429 360.958 259.855 360.924 260.587L358.659 260.162C358.778 258.492 360.192 257.709 361.997 257.709C363.956 257.709 365.081 258.56 365.081 260.315ZM369.458 257.896L369.731 259.412C370.156 258.237 371.042 257.709 372.252 257.709C373.461 257.709 374.568 258.424 374.568 260.196V265.766H372.286V261.047C372.286 260.179 372.047 259.616 371.23 259.616C370.497 259.616 369.799 260.025 369.799 261.439V265.766H367.516V257.896H369.458ZM381.708 262.495V261.03C381.708 259.872 380.959 259.395 380.175 259.395C379.272 259.395 378.404 260.042 378.404 261.899C378.404 263.381 379.068 264.216 380.141 264.216C380.925 264.216 381.708 263.637 381.708 262.495ZM381.691 258.935V254.387H383.974V265.766H381.998L381.708 264.403C381.419 265.595 380.431 265.97 379.255 265.97C377.518 265.97 376.121 264.59 376.121 262.001C376.121 259.31 377.382 257.709 379.63 257.709C380.635 257.709 381.487 258.186 381.691 258.935ZM393.723 263.296V262.495C392.122 262.444 391.56 262.87 391.56 263.568C391.56 264.028 391.883 264.352 392.429 264.352C393.025 264.352 393.723 264.062 393.723 263.296ZM395.972 260.315V263.381C395.972 263.909 396.193 264.096 396.551 264.096C396.738 264.096 396.891 264.045 397.045 263.977V265.63C396.721 265.834 396.295 265.919 395.75 265.919C394.745 265.919 394.132 265.527 393.876 264.676C393.519 265.647 392.667 265.97 391.594 265.97C390.197 265.97 389.277 265.153 389.277 263.807C389.277 262.052 390.691 261.098 393.723 261.269V260.519C393.723 259.838 393.434 259.429 392.803 259.429C392.173 259.429 391.849 259.855 391.815 260.587L389.55 260.162C389.669 258.492 391.083 257.709 392.888 257.709C394.847 257.709 395.972 258.56 395.972 260.315ZM403.006 263.006L405.016 263.654C404.727 265.238 403.364 265.97 401.695 265.97C399.412 265.97 397.896 264.488 397.896 261.865C397.896 259.242 399.412 257.709 401.712 257.709C403.585 257.709 404.778 258.714 404.897 260.298L402.972 260.826C402.853 259.991 402.461 259.497 401.695 259.497C400.673 259.497 400.111 260.4 400.111 261.831C400.111 263.33 400.707 264.216 401.729 264.216C402.342 264.216 402.802 263.909 403.006 263.006ZM411.263 263.534L411.655 265.459C410.991 265.8 410.173 265.97 409.236 265.97C407.669 265.97 406.647 265.238 406.647 263.432V259.651H405.506V257.896H406.664V256.227L408.947 255.954V257.896H411.28V259.651H408.93V262.921C408.93 263.756 409.253 264.028 409.883 264.028C410.377 264.028 410.803 263.858 411.263 263.534ZM416.201 265.97C413.901 265.97 412.385 264.471 412.385 261.814C412.385 259.14 413.901 257.709 416.201 257.709C418.483 257.709 419.999 259.14 419.999 261.814C419.999 264.471 418.483 265.97 416.201 265.97ZM416.201 259.531C415.145 259.531 414.634 260.264 414.634 261.814C414.634 263.449 415.128 264.199 416.201 264.199C417.257 264.199 417.751 263.449 417.751 261.814C417.751 260.264 417.24 259.531 416.201 259.531ZM427.063 257.726L426.808 260.247C426.518 260.145 426.28 260.11 425.922 260.11C425.019 260.11 423.912 260.553 423.912 262.172V265.766H421.629V257.896H423.605L423.878 260.059C424.219 258.697 424.985 257.606 427.063 257.726ZM427.317 263.943L429.191 263.194C429.361 264.045 429.974 264.369 430.724 264.369C431.354 264.369 431.797 264.148 431.797 263.688C431.797 263.245 431.491 263.04 430.792 262.87L429.634 262.597C428.254 262.24 427.624 261.456 427.624 260.264C427.624 258.271 429.208 257.709 430.826 257.709C432.7 257.709 433.824 258.39 433.943 259.923L431.814 260.23C431.729 259.599 431.371 259.395 430.724 259.395C430.196 259.395 429.838 259.633 429.838 260.042C429.838 260.434 430.077 260.656 430.605 260.758L431.712 260.996C433.313 261.337 434.063 262.189 434.063 263.534C434.063 265.289 432.615 265.97 430.69 265.97C428.748 265.97 427.624 265.425 427.317 263.943Z" fill="#363C65"/>
<path d="M220.429 352.94L221.655 352.718C221.638 354.03 222.387 354.575 223.648 354.575C224.926 354.575 225.743 354.013 225.743 352.769C225.743 351.73 225.283 351.27 223.904 350.742C222.677 350.265 221.621 349.737 221.621 348.051C221.621 345.853 223.563 345.155 224.96 345.155C226.902 345.155 227.992 345.853 227.992 347.795L226.714 348C226.748 346.824 226.101 346.177 224.857 346.177C223.699 346.177 222.881 346.807 222.881 347.863C222.881 348.919 223.512 349.175 224.755 349.686C226.22 350.299 227.089 350.964 227.089 352.599C227.089 354.694 225.437 355.597 223.512 355.597C221.519 355.597 220.429 354.779 220.429 352.94ZM232.48 354.115V355.205C232.004 355.478 231.39 355.597 230.93 355.597C229.602 355.597 228.886 354.881 229.193 353.212L230.011 348.562H228.92L229.108 347.523H230.215L230.505 345.87L231.816 345.683L231.492 347.523H233.554L233.366 348.562H231.322L230.47 353.348C230.317 354.183 230.675 354.507 231.135 354.507C231.612 354.507 231.935 354.422 232.48 354.115ZM239.358 352.105L239.597 350.776C239.801 349.584 239.307 348.357 238.047 348.357C236.479 348.357 235.321 349.976 235.321 352.224C235.321 353.553 235.9 354.524 237.059 354.524C238.251 354.524 239.103 353.604 239.358 352.105ZM241.47 347.523L240.38 353.706C240.312 354.098 240.329 354.473 240.823 354.473C240.959 354.473 241.113 354.456 241.317 354.404L241.147 355.341C240.908 355.427 240.619 355.478 240.329 355.478C239.477 355.478 239.034 354.984 239.103 354.081C238.626 355.154 237.689 355.597 236.701 355.597C235.185 355.597 234.061 354.456 234.061 352.377C234.061 349.686 235.611 347.335 237.927 347.335C239.017 347.335 239.767 347.812 239.971 348.851L240.397 347.523H241.47ZM248.308 352.156L248.563 350.776C248.768 349.601 248.308 348.357 247.03 348.357C245.412 348.357 244.271 350.01 244.271 352.241C244.271 353.57 244.816 354.524 245.991 354.524C247.235 354.524 248.052 353.638 248.308 352.156ZM250.42 347.523L248.989 355.648C248.58 357.914 247.473 358.987 245.173 358.987C243.078 358.987 242.295 357.965 242.158 356.806L243.317 356.415C243.385 357.317 244.083 358.033 245.259 358.033C246.724 358.033 247.388 357.181 247.677 355.699L247.984 354.115C247.507 355.188 246.689 355.58 245.684 355.58C244.151 355.58 243.01 354.439 243.01 352.36C243.01 349.686 244.594 347.335 246.928 347.335C248.018 347.335 248.717 347.812 248.921 348.851L249.347 347.523H250.42ZM254.644 354.592C255.82 354.592 256.297 354.098 256.586 353.246L257.762 353.536C257.182 355.137 256.058 355.597 254.525 355.597C252.634 355.597 251.527 354.268 251.527 352.258C251.527 349.056 253.469 347.335 255.36 347.335C257.37 347.335 258.153 348.698 258.153 350.146C258.153 350.691 258.051 351.236 257.813 351.747H252.737C252.617 353.127 253.145 354.592 254.644 354.592ZM252.89 350.708H256.825C256.893 350.521 256.91 350.316 256.91 350.112C256.91 349.175 256.399 348.357 255.292 348.357C253.98 348.357 253.196 349.465 252.89 350.708ZM265.914 352.19V352.241C267.703 352.394 268.537 353.297 268.537 354.711C268.537 356.823 266.868 357.743 265.028 357.743C263.052 357.743 262.064 356.738 262.064 355.358L263.308 355.103C263.308 356.193 264.006 356.738 265.182 356.738C266.323 356.738 267.209 356.074 267.209 354.813C267.209 353.774 266.715 352.94 264.568 352.718L264.722 351.679C267.055 351.441 268.009 350.725 268.009 349.396C268.009 348.511 267.396 348.051 266.493 348.051C265.454 348.051 264.909 348.664 264.722 349.652L263.512 349.379C263.785 347.983 264.722 346.995 266.595 346.995C268.146 346.995 269.338 347.71 269.338 349.277C269.338 351.168 267.941 352.173 265.914 352.19Z" fill="#363C65"/>
<path d="M222.586 376.199H223.592C225.38 376.199 226.436 375.45 226.436 373.167C226.436 370.782 225.38 370.084 223.728 370.084H222.586V376.199ZM223.813 378.158H220.27V368.125H223.966C226.743 368.125 228.855 369.505 228.855 373.031C228.855 376.744 226.692 378.158 223.813 378.158ZM234 376.608C234.613 376.608 235.124 376.37 235.38 375.535L237.321 376.199C236.913 377.801 235.499 378.363 233.949 378.363C231.7 378.363 230.15 376.881 230.15 374.343C230.15 371.634 231.615 370.101 233.983 370.101C236.214 370.101 237.304 371.566 237.304 373.593C237.304 373.934 237.27 374.292 237.202 374.615H232.347C232.399 375.825 232.961 376.608 234 376.608ZM232.416 373.355H235.124C235.141 373.252 235.141 373.184 235.141 373.082C235.141 372.35 234.715 371.788 233.898 371.788C233.046 371.788 232.501 372.435 232.416 373.355ZM243.833 375.927L244.225 377.852C243.561 378.192 242.743 378.363 241.806 378.363C240.239 378.363 239.217 377.63 239.217 375.825V372.043H238.076V370.289H239.234V368.619L241.517 368.347V370.289H243.85V372.043H241.5V375.314C241.5 376.148 241.823 376.421 242.453 376.421C242.947 376.421 243.373 376.25 243.833 375.927ZM248.805 376.608C249.418 376.608 249.929 376.37 250.185 375.535L252.126 376.199C251.718 377.801 250.304 378.363 248.754 378.363C246.505 378.363 244.955 376.881 244.955 374.343C244.955 371.634 246.42 370.101 248.788 370.101C251.019 370.101 252.109 371.566 252.109 373.593C252.109 373.934 252.075 374.292 252.007 374.615H247.152C247.204 375.825 247.766 376.608 248.805 376.608ZM247.221 373.355H249.929C249.946 373.252 249.946 373.184 249.946 373.082C249.946 372.35 249.52 371.788 248.703 371.788C247.851 371.788 247.306 372.435 247.221 373.355ZM258.383 375.399L260.393 376.046C260.103 377.63 258.74 378.363 257.071 378.363C254.789 378.363 253.273 376.881 253.273 374.257C253.273 371.634 254.789 370.101 257.088 370.101C258.962 370.101 260.154 371.106 260.274 372.69L258.349 373.218C258.229 372.384 257.838 371.89 257.071 371.89C256.049 371.89 255.487 372.793 255.487 374.223C255.487 375.722 256.083 376.608 257.105 376.608C257.718 376.608 258.178 376.302 258.383 375.399ZM266.64 375.927L267.031 377.852C266.367 378.192 265.549 378.363 264.613 378.363C263.045 378.363 262.023 377.63 262.023 375.825V372.043H260.882V370.289H262.04V368.619L264.323 368.347V370.289H266.657V372.043H264.306V375.314C264.306 376.148 264.63 376.421 265.26 376.421C265.754 376.421 266.18 376.25 266.64 375.927ZM207.766 395.78V396.939C207.766 398.285 208.601 398.727 209.265 398.727C210.236 398.727 211.054 397.91 211.054 396.24C211.054 394.605 210.424 393.924 209.419 393.924C208.584 393.924 207.766 394.588 207.766 395.78ZM207.664 399.017L207.102 400.158H205.501V388.779H207.783V393.753C208.209 392.561 209.197 392.101 210.321 392.101C212.246 392.101 213.354 393.532 213.354 396.036C213.354 398.625 212.127 400.363 209.998 400.363C208.652 400.363 207.903 399.766 207.664 399.017ZM218.441 398.199L218.321 400.107C217.878 400.226 217.453 400.312 217.01 400.312C215.868 400.312 214.829 399.784 214.829 398.302V388.779H217.112V397.637C217.112 398.131 217.419 398.319 217.827 398.319C218.032 398.319 218.236 398.285 218.441 398.199ZM219.668 389.887C219.668 389.018 220.281 388.558 221.048 388.558C221.849 388.558 222.462 389.018 222.462 389.887C222.462 390.721 221.849 391.181 221.048 391.181C220.281 391.181 219.668 390.721 219.668 389.887ZM219.907 392.289H222.189V400.158H219.907V392.289ZM226.273 392.289L226.546 393.805C226.972 392.629 227.858 392.101 229.067 392.101C230.276 392.101 231.384 392.817 231.384 394.588V400.158H229.101V395.44C229.101 394.571 228.863 394.009 228.045 394.009C227.312 394.009 226.614 394.418 226.614 395.832V400.158H224.331V392.289H226.273ZM238.524 396.888V395.423C238.524 394.264 237.774 393.788 236.99 393.788C236.088 393.788 235.219 394.435 235.219 396.292C235.219 397.773 235.883 398.608 236.956 398.608C237.74 398.608 238.524 398.029 238.524 396.888ZM238.507 393.328V388.779H240.789V400.158H238.813L238.524 398.796C238.234 399.988 237.246 400.363 236.071 400.363C234.333 400.363 232.936 398.983 232.936 396.394C232.936 393.702 234.197 392.101 236.445 392.101C237.45 392.101 238.302 392.578 238.507 393.328ZM245.922 398.336L247.796 397.586C247.966 398.438 248.58 398.761 249.329 398.761C249.959 398.761 250.402 398.54 250.402 398.08C250.402 397.637 250.096 397.433 249.397 397.262L248.239 396.99C246.859 396.632 246.229 395.849 246.229 394.656C246.229 392.663 247.813 392.101 249.431 392.101C251.305 392.101 252.429 392.782 252.548 394.316L250.419 394.622C250.334 393.992 249.976 393.788 249.329 393.788C248.801 393.788 248.443 394.026 248.443 394.435C248.443 394.827 248.682 395.048 249.21 395.15L250.317 395.389C251.918 395.729 252.668 396.581 252.668 397.927C252.668 399.681 251.22 400.363 249.295 400.363C247.353 400.363 246.229 399.818 245.922 398.336ZM256.54 395.849V396.939C256.54 398.285 257.374 398.727 258.039 398.727C259.01 398.727 259.827 397.91 259.827 396.24C259.827 394.605 259.197 393.924 258.192 393.924C257.357 393.924 256.54 394.588 256.54 395.849ZM256.557 399.119V403.616H254.274V392.289H256.216L256.506 393.805C256.983 392.544 258.005 392.101 259.095 392.101C261.02 392.101 262.127 393.532 262.127 396.036C262.127 398.625 260.883 400.363 258.754 400.363C257.545 400.363 256.778 399.784 256.557 399.119ZM267.061 400.363C264.761 400.363 263.245 398.864 263.245 396.206C263.245 393.532 264.761 392.101 267.061 392.101C269.343 392.101 270.859 393.532 270.859 396.206C270.859 398.864 269.343 400.363 267.061 400.363ZM267.061 393.924C266.005 393.924 265.494 394.656 265.494 396.206C265.494 397.842 265.988 398.591 267.061 398.591C268.117 398.591 268.611 397.842 268.611 396.206C268.611 394.656 268.1 393.924 267.061 393.924ZM277.344 397.927L277.736 399.852C277.072 400.192 276.254 400.363 275.317 400.363C273.75 400.363 272.728 399.63 272.728 397.825V394.043H271.587V392.289H272.745V390.619L275.028 390.347V392.289H277.361V394.043H275.011V397.314C275.011 398.148 275.334 398.421 275.964 398.421C276.458 398.421 276.884 398.25 277.344 397.927ZM278.294 398.336L280.167 397.586C280.338 398.438 280.951 398.761 281.701 398.761C282.331 398.761 282.774 398.54 282.774 398.08C282.774 397.637 282.467 397.433 281.769 397.262L280.61 396.99C279.231 396.632 278.6 395.849 278.6 394.656C278.6 392.663 280.184 392.101 281.803 392.101C283.676 392.101 284.801 392.782 284.92 394.316L282.791 394.622C282.706 393.992 282.348 393.788 281.701 393.788C281.172 393.788 280.815 394.026 280.815 394.435C280.815 394.827 281.053 395.048 281.581 395.15L282.688 395.389C284.29 395.729 285.039 396.581 285.039 397.927C285.039 399.681 283.591 400.363 281.666 400.363C279.725 400.363 278.6 399.818 278.294 398.336Z" fill="#363C65"/>
<path d="M70.0111 218.547L71.2375 218.326C71.2205 219.637 71.97 220.182 73.2305 220.182C74.5081 220.182 75.3257 219.62 75.3257 218.377C75.3257 217.338 74.8658 216.878 73.4861 216.35C72.2596 215.873 71.2035 215.345 71.2035 213.658C71.2035 211.461 73.1454 210.762 74.5422 210.762C76.4841 210.762 77.5742 211.461 77.5742 213.403L76.2967 213.607C76.3307 212.432 75.6835 211.785 74.44 211.785C73.2816 211.785 72.464 212.415 72.464 213.471C72.464 214.527 73.0943 214.783 74.3378 215.294C75.8027 215.907 76.6714 216.571 76.6714 218.206C76.6714 220.302 75.0191 221.204 73.0943 221.204C71.1013 221.204 70.0111 220.387 70.0111 218.547ZM82.063 219.722V220.813C81.586 221.085 80.9728 221.204 80.5129 221.204C79.1842 221.204 78.4688 220.489 78.7754 218.82L79.593 214.169H78.5029L78.6902 213.13H79.7975L80.087 211.478L81.3987 211.291L81.075 213.13H83.1361L82.9488 214.169H80.9047L80.053 218.956C79.8997 219.791 80.2574 220.114 80.7173 220.114C81.1943 220.114 81.5179 220.029 82.063 219.722ZM88.9406 217.712L89.1791 216.384C89.3835 215.191 88.8895 213.965 87.629 213.965C86.0619 213.965 84.9036 215.583 84.9036 217.832C84.9036 219.16 85.4827 220.131 86.641 220.131C87.8334 220.131 88.6851 219.211 88.9406 217.712ZM91.0529 213.13L89.9627 219.314C89.8946 219.705 89.9116 220.08 90.4056 220.08C90.5419 220.08 90.6952 220.063 90.8996 220.012L90.7292 220.949C90.4908 221.034 90.2012 221.085 89.9116 221.085C89.0599 221.085 88.617 220.591 88.6851 219.688C88.2082 220.761 87.2713 221.204 86.2833 221.204C84.7673 221.204 83.643 220.063 83.643 217.985C83.643 215.294 85.1931 212.943 87.5098 212.943C88.6 212.943 89.3495 213.42 89.5539 214.459L89.9797 213.13H91.0529ZM97.8902 217.763L98.1457 216.384C98.3501 215.208 97.8902 213.965 96.6126 213.965C94.9944 213.965 93.8531 215.617 93.8531 217.849C93.8531 219.177 94.3982 220.131 95.5736 220.131C96.8171 220.131 97.6347 219.245 97.8902 217.763ZM100.002 213.13L98.5716 221.255C98.1628 223.521 97.0555 224.594 94.7559 224.594C92.6607 224.594 91.8772 223.572 91.7409 222.414L92.8992 222.022C92.9673 222.925 93.6657 223.64 94.8411 223.64C96.306 223.64 96.9704 222.789 97.2599 221.307L97.5666 219.722C97.0896 220.796 96.272 221.187 95.267 221.187C93.7339 221.187 92.5926 220.046 92.5926 217.968C92.5926 215.294 94.1768 212.943 96.5104 212.943C97.6006 212.943 98.299 213.42 98.5034 214.459L98.9293 213.13H100.002ZM104.227 220.199C105.402 220.199 105.879 219.705 106.169 218.854L107.344 219.143C106.765 220.744 105.641 221.204 104.108 221.204C102.217 221.204 101.11 219.876 101.11 217.866C101.11 214.663 103.052 212.943 104.942 212.943C106.952 212.943 107.736 214.306 107.736 215.753C107.736 216.299 107.634 216.844 107.395 217.355H102.319C102.2 218.734 102.728 220.199 104.227 220.199ZM102.472 216.316H106.407C106.475 216.128 106.492 215.924 106.492 215.719C106.492 214.783 105.981 213.965 104.874 213.965C103.563 213.965 102.779 215.072 102.472 216.316ZM116.519 223.231L117.081 220.08H112.243L112.396 219.228L118.307 212.807H119.67L118.58 219.041H120.249L120.062 220.08H118.409L117.847 223.231H116.519ZM115.292 219.041H117.251L117.711 216.384C117.932 215.089 118.154 214.34 118.154 214.34H118.086C118.086 214.34 117.626 214.97 116.638 216.094L115.02 217.917C114.338 218.7 113.912 219.024 113.912 219.024V219.092C113.912 219.092 114.202 219.041 115.292 219.041Z" fill="#363C65"/>
<path d="M71.0948 244.6L70.4646 246.576C67.9605 246.593 66.7682 245.452 66.2231 243.834C64.0257 243.374 62.7481 241.602 62.7481 238.758C62.7481 235.385 64.5367 233.528 67.5006 233.528C70.4646 233.528 72.2702 235.385 72.2702 238.758C72.2702 241.739 70.8563 243.544 68.4545 243.902C69.1018 244.481 70.1409 244.686 71.0948 244.6ZM67.5006 235.589C65.9335 235.589 65.1499 236.799 65.1499 238.792C65.1499 240.768 65.9165 241.977 67.5006 241.977C69.0848 241.977 69.8684 240.768 69.8684 238.792C69.8684 236.799 69.0848 235.589 67.5006 235.589ZM78.9582 243.766L78.6856 242.301C78.4131 243.374 77.6977 243.97 76.2498 243.97C74.853 243.97 73.882 243.255 73.882 241.432V235.896H76.1646V240.785C76.1646 241.722 76.4542 242.25 77.2378 242.25C78.0213 242.25 78.6516 241.637 78.6516 240.12V235.896H80.9342V243.766H78.9582ZM86.4234 242.216C87.0366 242.216 87.5476 241.977 87.8032 241.143L89.745 241.807C89.3362 243.408 87.9224 243.97 86.3723 243.97C84.1238 243.97 82.5737 242.488 82.5737 239.95C82.5737 237.242 84.0386 235.709 86.4064 235.709C88.6378 235.709 89.728 237.174 89.728 239.201C89.728 239.541 89.6939 239.899 89.6258 240.223H84.7711C84.8222 241.432 85.3843 242.216 86.4234 242.216ZM84.8392 238.962H87.5476C87.5647 238.86 87.5647 238.792 87.5647 238.69C87.5647 237.957 87.1388 237.395 86.3212 237.395C85.4695 237.395 84.9244 238.042 84.8392 238.962ZM90.6356 241.943L92.5094 241.194C92.6797 242.045 93.2929 242.369 94.0424 242.369C94.6727 242.369 95.1156 242.148 95.1156 241.688C95.1156 241.245 94.809 241.04 94.1106 240.87L92.9522 240.597C91.5725 240.24 90.9422 239.456 90.9422 238.264C90.9422 236.271 92.5264 235.709 94.1446 235.709C96.0184 235.709 97.1426 236.39 97.2619 237.923L95.1326 238.23C95.0474 237.599 94.6897 237.395 94.0424 237.395C93.5144 237.395 93.1567 237.633 93.1567 238.042C93.1567 238.434 93.3951 238.656 93.9232 238.758L95.0304 238.996C96.6316 239.337 97.3811 240.189 97.3811 241.534C97.3811 243.289 95.9332 243.97 94.0084 243.97C92.0665 243.97 90.9422 243.425 90.6356 241.943ZM103.842 241.534L104.234 243.459C103.57 243.8 102.752 243.97 101.815 243.97C100.248 243.97 99.2261 243.238 99.2261 241.432V237.651H98.0848V235.896H99.2432V234.227L101.526 233.954V235.896H103.859V237.651H101.509V240.921C101.509 241.756 101.832 242.028 102.463 242.028C102.957 242.028 103.382 241.858 103.842 241.534ZM105.32 233.494C105.32 232.625 105.933 232.166 106.7 232.166C107.5 232.166 108.114 232.625 108.114 233.494C108.114 234.329 107.5 234.789 106.7 234.789C105.933 234.789 105.32 234.329 105.32 233.494ZM105.558 235.896H107.841V243.766H105.558V235.896ZM113.288 243.97C110.988 243.97 109.472 242.471 109.472 239.814C109.472 237.14 110.988 235.709 113.288 235.709C115.57 235.709 117.087 237.14 117.087 239.814C117.087 242.471 115.57 243.97 113.288 243.97ZM113.288 237.531C112.232 237.531 111.721 238.264 111.721 239.814C111.721 241.449 112.215 242.199 113.288 242.199C114.344 242.199 114.838 241.449 114.838 239.814C114.838 238.264 114.327 237.531 113.288 237.531ZM120.658 235.896L120.931 237.412C121.357 236.237 122.243 235.709 123.452 235.709C124.662 235.709 125.769 236.424 125.769 238.196V243.766H123.486V239.047C123.486 238.179 123.248 237.616 122.43 237.616C121.698 237.616 120.999 238.025 120.999 239.439V243.766H118.717V235.896H120.658ZM53.2072 263.296V262.495C51.606 262.444 51.0439 262.87 51.0439 263.568C51.0439 264.028 51.3675 264.352 51.9126 264.352C52.5088 264.352 53.2072 264.062 53.2072 263.296ZM55.4557 260.315V263.381C55.4557 263.909 55.6772 264.096 56.0349 264.096C56.2223 264.096 56.3756 264.045 56.5289 263.977V265.63C56.2052 265.834 55.7794 265.919 55.2343 265.919C54.2293 265.919 53.616 265.527 53.3605 264.676C53.0028 265.647 52.1511 265.97 51.078 265.97C49.6812 265.97 48.7613 265.153 48.7613 263.807C48.7613 262.052 50.1751 261.098 53.2072 261.269V260.519C53.2072 259.838 52.9176 259.429 52.2874 259.429C51.6571 259.429 51.3335 259.855 51.2994 260.587L49.0339 260.162C49.1531 258.492 50.5669 257.709 52.3725 257.709C54.3315 257.709 55.4557 258.56 55.4557 260.315ZM57.1247 263.943L58.9984 263.194C59.1688 264.045 59.782 264.369 60.5315 264.369C61.1617 264.369 61.6046 264.148 61.6046 263.688C61.6046 263.245 61.298 263.04 60.5996 262.87L59.4413 262.597C58.0615 262.24 57.4313 261.456 57.4313 260.264C57.4313 258.271 59.0154 257.709 60.6337 257.709C62.5074 257.709 63.6317 258.39 63.7509 259.923L61.6217 260.23C61.5365 259.599 61.1788 259.395 60.5315 259.395C60.0034 259.395 59.6457 259.633 59.6457 260.042C59.6457 260.434 59.8842 260.656 60.4122 260.758L61.5195 260.996C63.1207 261.337 63.8702 262.189 63.8702 263.534C63.8702 265.289 62.4223 265.97 60.4974 265.97C58.5555 265.97 57.4313 265.425 57.1247 263.943ZM64.7102 263.943L66.5839 263.194C66.7543 264.045 67.3675 264.369 68.117 264.369C68.7472 264.369 69.1901 264.148 69.1901 263.688C69.1901 263.245 68.8835 263.04 68.1851 262.87L67.0268 262.597C65.647 262.24 65.0168 261.456 65.0168 260.264C65.0168 258.271 66.6009 257.709 68.2192 257.709C70.0929 257.709 71.2172 258.39 71.3364 259.923L69.2072 260.23C69.122 259.599 68.7643 259.395 68.117 259.395C67.5889 259.395 67.2312 259.633 67.2312 260.042C67.2312 260.434 67.4697 260.656 67.9977 260.758L69.105 260.996C70.7062 261.337 71.4557 262.189 71.4557 263.534C71.4557 265.289 70.0078 265.97 68.0829 265.97C66.141 265.97 65.0168 265.425 64.7102 263.943ZM77.9851 265.766L77.7125 264.301C77.44 265.374 76.7245 265.97 75.2766 265.97C73.8798 265.97 72.9089 265.255 72.9089 263.432V257.896H75.1915V262.785C75.1915 263.722 75.481 264.25 76.2646 264.25C77.0482 264.25 77.6784 263.637 77.6784 262.12V257.896H79.961V265.766H77.9851ZM88.823 259.429C89.2489 258.254 90.2028 257.709 91.3781 257.709C92.6557 257.709 93.6266 258.424 93.6266 260.179V265.766H91.3441V261.047C91.3441 260.179 91.1056 259.616 90.305 259.616C89.6066 259.616 89.0104 260.059 89.0104 261.422V265.766H86.7278V261.047C86.7278 260.179 86.5064 259.616 85.6887 259.616C84.9733 259.616 84.3941 260.059 84.3941 261.439V265.766H82.1116V257.896H84.0535L84.326 259.412C84.7519 258.22 85.5865 257.709 86.7448 257.709C87.7499 257.709 88.6186 258.117 88.823 259.429ZM97.9512 261.456V262.546C97.9512 263.892 98.7858 264.335 99.4502 264.335C100.421 264.335 101.239 263.517 101.239 261.848C101.239 260.213 100.608 259.531 99.6035 259.531C98.7688 259.531 97.9512 260.196 97.9512 261.456ZM97.9682 264.727V269.224H95.6856V257.896H97.6275L97.9171 259.412C98.394 258.152 99.4161 257.709 100.506 257.709C102.431 257.709 103.538 259.14 103.538 261.644C103.538 264.233 102.295 265.97 100.166 265.97C98.9562 265.97 98.1896 265.391 97.9682 264.727ZM110.022 263.534L110.414 265.459C109.75 265.8 108.932 265.97 107.995 265.97C106.428 265.97 105.406 265.238 105.406 263.432V259.651H104.265V257.896H105.423V256.227L107.706 255.954V257.896H110.039V259.651H107.689V262.921C107.689 263.756 108.012 264.028 108.642 264.028C109.136 264.028 109.562 263.858 110.022 263.534ZM111.5 255.494C111.5 254.625 112.113 254.166 112.88 254.166C113.68 254.166 114.293 254.625 114.293 255.494C114.293 256.329 113.68 256.789 112.88 256.789C112.113 256.789 111.5 256.329 111.5 255.494ZM111.738 257.896H114.021V265.766H111.738V257.896ZM119.468 265.97C117.168 265.97 115.652 264.471 115.652 261.814C115.652 259.14 117.168 257.709 119.468 257.709C121.75 257.709 123.266 259.14 123.266 261.814C123.266 264.471 121.75 265.97 119.468 265.97ZM119.468 259.531C118.412 259.531 117.901 260.264 117.901 261.814C117.901 263.449 118.395 264.199 119.468 264.199C120.524 264.199 121.018 263.449 121.018 261.814C121.018 260.264 120.507 259.531 119.468 259.531ZM126.838 257.896L127.111 259.412C127.537 258.237 128.423 257.709 129.632 257.709C130.841 257.709 131.949 258.424 131.949 260.196V265.766H129.666V261.047C129.666 260.179 129.428 259.616 128.61 259.616C127.877 259.616 127.179 260.025 127.179 261.439V265.766H124.896V257.896H126.838ZM133.246 263.943L135.12 263.194C135.29 264.045 135.903 264.369 136.653 264.369C137.283 264.369 137.726 264.148 137.726 263.688C137.726 263.245 137.419 263.04 136.721 262.87L135.562 262.597C134.183 262.24 133.552 261.456 133.552 260.264C133.552 258.271 135.137 257.709 136.755 257.709C138.629 257.709 139.753 258.39 139.872 259.923L137.743 260.23C137.658 259.599 137.3 259.395 136.653 259.395C136.125 259.395 135.767 259.633 135.767 260.042C135.767 260.434 136.005 260.656 136.533 260.758L137.641 260.996C139.242 261.337 139.991 262.189 139.991 263.534C139.991 265.289 138.543 265.97 136.619 265.97C134.677 265.97 133.552 265.425 133.246 263.943Z" fill="#363C65"/>
<path d="M220.479 208.15L221.705 207.928C221.688 209.24 222.438 209.785 223.698 209.785C224.976 209.785 225.794 209.223 225.794 207.979C225.794 206.94 225.334 206.48 223.954 205.952C222.727 205.475 221.671 204.947 221.671 203.261C221.671 201.063 223.613 200.365 225.01 200.365C226.952 200.365 228.042 201.063 228.042 203.005L226.765 203.21C226.799 202.034 226.151 201.387 224.908 201.387C223.75 201.387 222.932 202.017 222.932 203.073C222.932 204.13 223.562 204.385 224.806 204.896C226.271 205.509 227.139 206.174 227.139 207.809C227.139 209.904 225.487 210.807 223.562 210.807C221.569 210.807 220.479 209.989 220.479 208.15ZM232.531 209.325V210.415C232.054 210.688 231.441 210.807 230.981 210.807C229.652 210.807 228.937 210.092 229.243 208.422L230.061 203.772H228.971L229.158 202.733H230.265L230.555 201.08L231.867 200.893L231.543 202.733H233.604L233.417 203.772H231.373L230.521 208.558C230.368 209.393 230.725 209.717 231.185 209.717C231.662 209.717 231.986 209.632 232.531 209.325ZM239.409 207.315L239.647 205.986C239.851 204.794 239.357 203.567 238.097 203.567C236.53 203.567 235.371 205.186 235.371 207.434C235.371 208.763 235.951 209.734 237.109 209.734C238.301 209.734 239.153 208.814 239.409 207.315ZM241.521 202.733L240.431 208.916C240.362 209.308 240.379 209.683 240.873 209.683C241.01 209.683 241.163 209.666 241.367 209.615L241.197 210.551C240.959 210.637 240.669 210.688 240.379 210.688C239.528 210.688 239.085 210.194 239.153 209.291C238.676 210.364 237.739 210.807 236.751 210.807C235.235 210.807 234.111 209.666 234.111 207.588C234.111 204.896 235.661 202.545 237.978 202.545C239.068 202.545 239.817 203.022 240.022 204.061L240.448 202.733H241.521ZM248.358 207.366L248.614 205.986C248.818 204.811 248.358 203.567 247.081 203.567C245.462 203.567 244.321 205.22 244.321 207.451C244.321 208.78 244.866 209.734 246.041 209.734C247.285 209.734 248.103 208.848 248.358 207.366ZM250.47 202.733L249.039 210.858C248.631 213.124 247.523 214.197 245.224 214.197C243.129 214.197 242.345 213.175 242.209 212.016L243.367 211.625C243.435 212.527 244.134 213.243 245.309 213.243C246.774 213.243 247.438 212.391 247.728 210.909L248.034 209.325C247.557 210.398 246.74 210.79 245.735 210.79C244.202 210.79 243.06 209.649 243.06 207.57C243.06 204.896 244.645 202.545 246.978 202.545C248.069 202.545 248.767 203.022 248.971 204.061L249.397 202.733H250.47ZM254.695 209.802C255.87 209.802 256.347 209.308 256.637 208.456L257.812 208.746C257.233 210.347 256.109 210.807 254.576 210.807C252.685 210.807 251.578 209.478 251.578 207.468C251.578 204.266 253.519 202.545 255.41 202.545C257.42 202.545 258.204 203.908 258.204 205.356C258.204 205.901 258.102 206.446 257.863 206.957H252.787C252.668 208.337 253.196 209.802 254.695 209.802ZM252.94 205.918H256.875C256.943 205.731 256.96 205.526 256.96 205.322C256.96 204.385 256.449 203.567 255.342 203.567C254.03 203.567 253.247 204.675 252.94 205.918ZM263.733 207.877L264.891 202.409H269.848L269.661 203.516H265.862L265.079 207.059C265.385 206.787 265.862 206.6 266.458 206.6C268.111 206.6 268.979 207.86 268.962 209.291C268.945 211.693 267.293 212.953 265.215 212.953C263.324 212.953 262.37 211.965 262.37 210.568L263.614 210.296C263.614 211.454 264.295 211.948 265.385 211.948C266.493 211.948 267.651 211.233 267.651 209.478C267.651 208.32 267.038 207.536 265.913 207.536C265.436 207.536 265.062 207.673 264.772 207.877H263.733Z" fill="white"/>
<path d="M219.666 231.12L221.778 230.183C221.965 231.171 222.698 231.801 223.652 231.801C224.418 231.801 224.98 231.495 224.98 230.813C224.98 230.166 224.622 229.859 223.311 229.45C221.011 228.718 220.057 227.849 220.057 226.129C220.057 223.863 221.829 223.114 223.583 223.114C225.645 223.114 227.178 223.812 227.382 225.72L225.082 226.299C224.997 225.413 224.333 225.022 223.635 225.022C222.987 225.022 222.476 225.311 222.476 225.958C222.476 226.657 223.021 226.929 224.197 227.287C226.309 227.951 227.382 228.667 227.382 230.592C227.382 232.772 225.61 233.573 223.481 233.573C221.505 233.573 220.177 232.925 219.666 231.12ZM232.469 231.818C233.082 231.818 233.593 231.58 233.849 230.745L235.791 231.409C235.382 233.011 233.968 233.573 232.418 233.573C230.17 233.573 228.62 232.091 228.62 229.553C228.62 226.844 230.084 225.311 232.452 225.311C234.684 225.311 235.774 226.776 235.774 228.803C235.774 229.144 235.74 229.502 235.672 229.825H230.817C230.868 231.035 231.43 231.818 232.469 231.818ZM230.885 228.565H233.593C233.611 228.462 233.611 228.394 233.611 228.292C233.611 227.56 233.185 226.998 232.367 226.998C231.515 226.998 230.97 227.645 230.885 228.565ZM242.303 231.137L242.694 233.062C242.03 233.402 241.213 233.573 240.276 233.573C238.708 233.573 237.686 232.84 237.686 231.035V227.253H236.545V225.499H237.703V223.829L239.986 223.557V225.499H242.32V227.253H239.969V230.524C239.969 231.358 240.293 231.631 240.923 231.631C241.417 231.631 241.843 231.46 242.303 231.137ZM252.633 231.137L253.025 233.062C252.36 233.402 251.543 233.573 250.606 233.573C249.039 233.573 248.017 232.84 248.017 231.035V227.253H246.875V225.499H248.034V223.829L250.316 223.557V225.499H252.65V227.253H250.299V230.524C250.299 231.358 250.623 231.631 251.253 231.631C251.747 231.631 252.173 231.46 252.633 231.137ZM256.632 221.99V226.998C257.04 225.839 257.875 225.311 259.084 225.311C260.294 225.311 261.401 226.027 261.401 227.798V233.368H259.119V228.65C259.119 227.781 258.88 227.219 258.062 227.219C257.33 227.219 256.632 227.628 256.632 229.025V233.368H254.349V221.99H256.632ZM266.804 231.818C267.417 231.818 267.928 231.58 268.183 230.745L270.125 231.409C269.716 233.011 268.303 233.573 266.752 233.573C264.504 233.573 262.954 232.091 262.954 229.553C262.954 226.844 264.419 225.311 266.787 225.311C269.018 225.311 270.108 226.776 270.108 228.803C270.108 229.144 270.074 229.502 270.006 229.825H265.151C265.202 231.035 265.765 231.818 266.804 231.818ZM265.219 228.565H267.928C267.945 228.462 267.945 228.394 267.945 228.292C267.945 227.56 267.519 226.998 266.701 226.998C265.85 226.998 265.305 227.645 265.219 228.565ZM207.65 253.818C208.263 253.818 208.774 253.58 209.03 252.745L210.972 253.409C210.563 255.011 209.149 255.573 207.599 255.573C205.35 255.573 203.8 254.091 203.8 251.553C203.8 248.844 205.265 247.311 207.633 247.311C209.864 247.311 210.955 248.776 210.955 250.803C210.955 251.144 210.921 251.502 210.852 251.825H205.998C206.049 253.035 206.611 253.818 207.65 253.818ZM206.066 250.565H208.774C208.791 250.462 208.791 250.394 208.791 250.292C208.791 249.56 208.365 248.998 207.548 248.998C206.696 248.998 206.151 249.645 206.066 250.565ZM217.13 255.368L216.244 253.92C215.614 252.898 215.58 252.473 215.58 252.473H215.511C215.511 252.473 215.409 252.915 214.796 253.937L213.944 255.368H211.491L214.03 251.433L211.645 247.499H214.285L214.881 248.606C215.494 249.832 215.597 250.241 215.597 250.241H215.665C215.665 250.241 215.75 249.832 216.414 248.623L217.045 247.499H219.532L217.096 251.365L219.651 255.368H217.13ZM223.095 251.059V252.149C223.095 253.495 223.93 253.937 224.594 253.937C225.565 253.937 226.383 253.12 226.383 251.45C226.383 249.815 225.753 249.134 224.748 249.134C223.913 249.134 223.095 249.798 223.095 251.059ZM223.112 254.329V258.826H220.83V247.499H222.772L223.061 249.015C223.538 247.754 224.56 247.311 225.65 247.311C227.575 247.311 228.682 248.742 228.682 251.246C228.682 253.835 227.439 255.573 225.31 255.573C224.1 255.573 223.334 254.994 223.112 254.329ZM233.77 253.409L233.65 255.317C233.207 255.436 232.782 255.522 232.339 255.522C231.197 255.522 230.158 254.994 230.158 253.512V243.99H232.441V252.847C232.441 253.341 232.747 253.529 233.156 253.529C233.361 253.529 233.565 253.495 233.77 253.409ZM238.374 255.573C236.074 255.573 234.558 254.074 234.558 251.416C234.558 248.742 236.074 247.311 238.374 247.311C240.656 247.311 242.172 248.742 242.172 251.416C242.172 254.074 240.656 255.573 238.374 255.573ZM238.374 249.134C237.318 249.134 236.807 249.866 236.807 251.416C236.807 253.052 237.301 253.801 238.374 253.801C239.43 253.801 239.924 253.052 239.924 251.416C239.924 249.866 239.413 249.134 238.374 249.134ZM249.236 247.328L248.981 249.849C248.691 249.747 248.453 249.713 248.095 249.713C247.192 249.713 246.085 250.156 246.085 251.774V255.368H243.802V247.499H245.778L246.051 249.662C246.392 248.299 247.158 247.209 249.236 247.328ZM254.306 252.898V252.098C252.705 252.047 252.143 252.473 252.143 253.171C252.143 253.631 252.466 253.954 253.012 253.954C253.608 253.954 254.306 253.665 254.306 252.898ZM256.555 249.917V252.984C256.555 253.512 256.776 253.699 257.134 253.699C257.321 253.699 257.474 253.648 257.628 253.58V255.232C257.304 255.436 256.878 255.522 256.333 255.522C255.328 255.522 254.715 255.13 254.459 254.278C254.102 255.249 253.25 255.573 252.177 255.573C250.78 255.573 249.86 254.755 249.86 253.409C249.86 251.655 251.274 250.701 254.306 250.871V250.122C254.306 249.44 254.017 249.032 253.386 249.032C252.756 249.032 252.432 249.457 252.398 250.19L250.133 249.764C250.252 248.095 251.666 247.311 253.471 247.311C255.43 247.311 256.555 248.163 256.555 249.917ZM263.845 253.137L264.237 255.062C263.572 255.402 262.755 255.573 261.818 255.573C260.251 255.573 259.229 254.84 259.229 253.035V249.253H258.087V247.499H259.246V245.829L261.528 245.557V247.499H263.862V249.253H261.511V252.524C261.511 253.358 261.835 253.631 262.465 253.631C262.959 253.631 263.385 253.46 263.845 253.137ZM265.322 245.097C265.322 244.228 265.936 243.768 266.702 243.768C267.503 243.768 268.116 244.228 268.116 245.097C268.116 245.931 267.503 246.391 266.702 246.391C265.936 246.391 265.322 245.931 265.322 245.097ZM265.561 247.499H267.843V255.368H265.561V247.499ZM273.29 255.573C270.991 255.573 269.475 254.074 269.475 251.416C269.475 248.742 270.991 247.311 273.29 247.311C275.573 247.311 277.089 248.742 277.089 251.416C277.089 254.074 275.573 255.573 273.29 255.573ZM273.29 249.134C272.234 249.134 271.723 249.866 271.723 251.416C271.723 253.052 272.217 253.801 273.29 253.801C274.347 253.801 274.84 253.052 274.84 251.416C274.84 249.866 274.329 249.134 273.29 249.134ZM280.661 247.499L280.934 249.015C281.359 247.839 282.245 247.311 283.455 247.311C284.664 247.311 285.771 248.027 285.771 249.798V255.368H283.489V250.65C283.489 249.781 283.25 249.219 282.433 249.219C281.7 249.219 281.002 249.628 281.002 251.042V255.368H278.719V247.499H280.661ZM226.941 270.253H225.783V268.499H226.941V267.919C226.941 265.654 228.372 264.853 230.092 264.853C230.859 264.853 231.455 264.972 232 265.228L231.677 267.119C231.285 266.897 230.876 266.778 230.331 266.778C229.667 266.778 229.207 267.034 229.207 267.988V268.499H231.217V270.253H229.207V276.368H226.941V270.253ZM235.413 276.573C233.113 276.573 231.597 275.074 231.597 272.416C231.597 269.742 233.113 268.311 235.413 268.311C237.695 268.311 239.211 269.742 239.211 272.416C239.211 275.074 237.695 276.573 235.413 276.573ZM235.413 270.134C234.357 270.134 233.846 270.866 233.846 272.416C233.846 274.052 234.34 274.801 235.413 274.801C236.469 274.801 236.963 274.052 236.963 272.416C236.963 270.866 236.452 270.134 235.413 270.134ZM245.441 273.609L247.451 274.256C247.161 275.84 245.798 276.573 244.129 276.573C241.846 276.573 240.33 275.091 240.33 272.468C240.33 269.844 241.846 268.311 244.146 268.311C246.02 268.311 247.212 269.316 247.331 270.9L245.407 271.428C245.287 270.594 244.896 270.1 244.129 270.1C243.107 270.1 242.545 271.003 242.545 272.433C242.545 273.932 243.141 274.818 244.163 274.818C244.776 274.818 245.236 274.512 245.441 273.609ZM253.766 276.368L253.493 274.903C253.221 275.977 252.505 276.573 251.057 276.573C249.66 276.573 248.69 275.857 248.69 274.035V268.499H250.972V273.387C250.972 274.324 251.262 274.852 252.045 274.852C252.829 274.852 253.459 274.239 253.459 272.723V268.499H255.742V276.368H253.766ZM257.126 274.546L258.999 273.796C259.17 274.648 259.783 274.972 260.533 274.972C261.163 274.972 261.606 274.75 261.606 274.29C261.606 273.847 261.299 273.643 260.601 273.473L259.442 273.2C258.063 272.842 257.432 272.059 257.432 270.866C257.432 268.873 259.016 268.311 260.635 268.311C262.508 268.311 263.633 268.993 263.752 270.526L261.623 270.832C261.538 270.202 261.18 269.998 260.533 269.998C260.004 269.998 259.647 270.236 259.647 270.645C259.647 271.037 259.885 271.258 260.413 271.36L261.52 271.599C263.122 271.939 263.871 272.791 263.871 274.137C263.871 275.891 262.423 276.573 260.498 276.573C258.557 276.573 257.432 276.028 257.126 274.546Z" fill="white"/>
<rect x="3.3705" y="241.5" width="337.747" height="337.747" transform="rotate(-45 3.3705 241.5)" stroke="#FBF0F3" stroke-width="3.78536"/>
</svg>
