<svg xmlns="http://www.w3.org/2000/svg" viewBox="0 0 419.53 595.28"><defs><style>.cls-1,.cls-14,.cls-21{fill:#aeadc1;}.cls-13,.cls-16,.cls-19,.cls-2,.cls-22,.cls-23,.cls-7,.cls-8{fill:none;}.cls-10,.cls-11,.cls-12,.cls-13,.cls-17,.cls-2,.cls-7{stroke:#32406d;}.cls-10,.cls-11,.cls-12,.cls-13,.cls-14,.cls-16,.cls-17,.cls-18,.cls-19,.cls-2,.cls-21,.cls-22,.cls-23,.cls-7,.cls-8{stroke-miterlimit:10;}.cls-12,.cls-19,.cls-2,.cls-22,.cls-8{stroke-width:3px;}.cls-11,.cls-20,.cls-24,.cls-3{fill:#32406d;}.cls-4,.cls-6{fill:#dedce4;}.cls-5{fill:#8786a3;}.cls-16,.cls-18,.cls-20,.cls-23,.cls-6,.cls-7,.cls-9{fill-rule:evenodd;}.cls-14,.cls-16,.cls-18,.cls-21,.cls-8{stroke:#fff;}.cls-12,.cls-15,.cls-17,.cls-9{fill:#fff;}.cls-10,.cls-18{fill:#ebecf7;}.cls-16,.cls-18,.cls-21{stroke-width:4px;}.cls-19,.cls-23{stroke:#aeadc1;}.cls-22{stroke:#dedce4;}.cls-24{font-size:11.04px;font-family:National-Extrabold, National;font-weight:800;}.cls-25{letter-spacing:0.01em;}.cls-26{font-family:National-Regular, National;font-weight:400;}.cls-27{letter-spacing:-0.02em;}.cls-28{letter-spacing:-0.01em;}</style></defs><g id="Level_1" data-name="Level 1"><circle class="cls-1" cx="292.46" cy="142.71" r="96.38"/><path class="cls-2" d="M282.08,457.38a27.48,27.48,0,0,1,0,55"/><path class="cls-2" d="M72.67,457.38a27.47,27.47,0,1,1,0-54.94"/><path class="cls-2" d="M336.12,290.5a56,56,0,0,1,0,111.94"/><line class="cls-2" x1="253.64" y1="512.33" x2="150.24" y2="512.33"/><line class="cls-2" x1="253.64" y1="457.38" x2="72.67" y2="457.38"/><path class="cls-2" d="M116.13,290.5a27.48,27.48,0,0,1,0-54.95"/><line class="cls-2" x1="336.12" y1="290.5" x2="114.21" y2="290.5"/><line class="cls-2" x1="336.12" y1="402.44" x2="72.67" y2="402.44"/><line class="cls-2" x1="282.08" y1="235.55" x2="114.21" y2="235.55"/><path class="cls-3" d="M386.45,139.35A97.79,97.79,0,1,1,245,51.57h0l.6,1.18c-.31.76-.59,1.53-.86,2.31l-1.28.68a96,96,0,0,0-49.76,83.6A94.88,94.88,0,1,0,331.4,54.68c-.42-.23-.85-.44-1.29-.65l-.78-.38.35-.74.59-1.21.36-.76A98.41,98.41,0,0,1,386.45,139.35Z"/></g><g id="line"><rect class="cls-4" x="255.27" y="451.51" width="88.89" height="71.56"/><rect class="cls-1" x="255.27" y="451.51" width="88.89" height="16.62"/><rect class="cls-5" x="262.81" y="477.75" width="17.88" height="9.53"/><rect class="cls-5" x="290.78" y="477.75" width="17.88" height="9.53"/><rect class="cls-5" x="318.74" y="477.75" width="17.88" height="9.53"/><circle class="cls-5" cx="272.56" cy="505.48" r="6.58"/><circle class="cls-5" cx="301.2" cy="505.48" r="6.58"/></g><g id="lab"><polygon class="cls-6" points="162.81 337.87 162.81 383.28 128.83 383.28 108.7 399.44 108.7 383.28 78 383.28 78 337.87 162.81 337.87"/><polygon class="cls-7" points="161.3 335.61 161.3 381.01 127.32 381.01 107.19 397.18 107.19 381.01 76.49 381.01 76.49 335.61 161.3 335.61"/><line class="cls-8" x1="84.57" y1="347.97" x2="154.74" y2="347.97"/><line class="cls-8" x1="84.57" y1="359.82" x2="122.59" y2="359.82"/><line class="cls-8" x1="84.57" y1="371.68" x2="139.75" y2="371.68"/><line class="cls-2" x1="83.81" y1="346.46" x2="153.99" y2="346.46"/><line class="cls-2" x1="83.81" y1="358.31" x2="121.84" y2="358.31"/><line class="cls-2" x1="83.81" y1="370.16" x2="138.99" y2="370.16"/><polygon class="cls-6" points="102.49 393.98 102.49 437.25 70.32 437.25 70.32 452.66 51.13 437.25 21.67 437.25 21.67 393.98 102.49 393.98"/><polygon class="cls-7" points="100.49 390.98 100.49 434.25 68.32 434.25 68.32 449.66 49.13 434.25 19.67 434.25 19.67 390.98 100.49 390.98"/><line class="cls-8" x1="26.43" y1="403.99" x2="69.72" y2="403.99"/><line class="cls-8" x1="26.43" y1="419.68" x2="89.24" y2="419.68"/><line class="cls-2" x1="25.43" y1="401.99" x2="68.72" y2="401.99"/><line class="cls-2" x1="25.43" y1="417.68" x2="88.24" y2="417.68"/><path class="cls-9" d="M337.93,386.57a39.92,39.92,0,1,1,39.92-39.92A40,40,0,0,1,337.93,386.57Z"/><path class="cls-3" d="M337.93,308.24a38.42,38.42,0,1,1-38.42,38.41,38.45,38.45,0,0,1,38.42-38.41m0-3a41.42,41.42,0,1,0,41.42,41.41,41.42,41.42,0,0,0-41.42-41.41Z"/><polygon class="cls-10" points="343.01 335.94 330.56 339.28 327.22 351.73 323.89 364.18 336.33 360.84 348.78 357.51 352.12 345.06 355.46 332.61 343.01 335.94"/><polygon class="cls-11" points="341.27 334.21 328.82 337.54 325.48 349.99 322.15 362.44 334.6 359.1 347.05 355.77 350.38 343.32 353.72 330.87 341.27 334.21"/><rect class="cls-3" x="330.54" y="297.97" width="14.78" height="3.91"/><path class="cls-3" d="M344.82,298.47v2.91H331v-2.91h13.78m1-1H330v4.91h15.78v-4.91Z"/><path class="cls-3" d="M341.06,303.38v2.91H334.8v-2.91h6.26m1-1H333.8v4.91h8.26v-4.91Z"/><polygon class="cls-3" points="342.06 302.38 333.8 302.38 333.8 304.18 342.06 304.18 342.06 302.38 342.06 302.38"/><circle class="cls-12" cx="337.93" cy="346.65" r="2.21"/><rect class="cls-4" x="209.84" y="107.67" width="78.71" height="78.71"/><path class="cls-4" d="M258.13,171.22l0-2.28c1.67,0,3.42-.11,5.2-.29l.23,2.27C261.69,171.11,259.87,171.21,258.13,171.22Zm-3.89-.12a41.72,41.72,0,0,1-5.41-.75l.47-2.24a38.68,38.68,0,0,0,5.1.71Zm-9.19-1.77a30.58,30.58,0,0,1-5.07-2.17l1.09-2a28.57,28.57,0,0,0,4.69,2Zm-8.4-4.28a28.69,28.69,0,0,1-4.13-3.67l1.67-1.56a26,26,0,0,0,3.81,3.39ZM230,158.32a34.43,34.43,0,0,1-2.82-4.72l2-1a32.39,32.39,0,0,0,2.63,4.4ZM225.65,150a43.53,43.53,0,0,1-1.6-5.23l2.22-.53a42.69,42.69,0,0,0,1.51,5Zm-2.35-9.06a38.16,38.16,0,0,1-.48-5.47l2.28,0v0a35.72,35.72,0,0,0,.46,5.12Z"/><rect class="cls-1" x="219.5" y="121.32" width="8.92" height="8.92"/><polygon class="cls-7" points="287.26 122.52 287.26 183.79 208.55 183.79 208.55 105.08 287.26 105.08 287.26 122.52"/><rect class="cls-2" x="218.21" y="119.38" width="8.92" height="8.92"/><path class="cls-13" d="M256.83,170.58v-2.29c1.67,0,3.42-.11,5.2-.29l.23,2.27C260.4,170.46,258.57,170.56,256.83,170.58Zm-3.89-.13a41.33,41.33,0,0,1-5.4-.75l.46-2.23a38.83,38.83,0,0,0,5.11.71Zm-9.19-1.76a31.37,31.37,0,0,1-5.06-2.18l1.09-2a28.54,28.54,0,0,0,4.69,2Zm-8.39-4.28a28.77,28.77,0,0,1-4.13-3.68l1.67-1.55a27.1,27.1,0,0,0,3.8,3.39Zm-6.62-6.74a32.94,32.94,0,0,1-2.83-4.72l2.05-1a31.51,31.51,0,0,0,2.63,4.41Zm-4.39-8.31a45,45,0,0,1-1.59-5.24l2.22-.53a41.54,41.54,0,0,0,1.51,5ZM222,140.29a38.07,38.07,0,0,1-.48-5.46l2.28,0v0a36.64,36.64,0,0,0,.45,5.12Z"/><path class="cls-14" d="M124.38,419.66h0a9.19,9.19,0,0,1,9.19,9.19v6.53a0,0,0,0,1,0,0H115.19a0,0,0,0,1,0,0v-6.53A9.19,9.19,0,0,1,124.38,419.66Z"/><circle class="cls-14" cx="124.38" cy="413.89" r="7.03"/><path class="cls-14" d="M145.62,419.66h0a9.19,9.19,0,0,1,9.19,9.19v6.53a0,0,0,0,1,0,0H136.43a0,0,0,0,1,0,0v-6.53A9.19,9.19,0,0,1,145.62,419.66Z"/><circle class="cls-14" cx="145.62" cy="413.89" r="7.03"/><path class="cls-14" d="M113.77,437.2h0a9.19,9.19,0,0,1,9.19,9.19v6.53a0,0,0,0,1,0,0H104.57a0,0,0,0,1,0,0v-6.53A9.19,9.19,0,0,1,113.77,437.2Z"/><circle class="cls-14" cx="113.77" cy="431.43" r="7.03"/><path class="cls-14" d="M153.18,437h0a9.19,9.19,0,0,1,9.19,9.19v6.53a0,0,0,0,1,0,0H144a0,0,0,0,1,0,0v-6.53A9.19,9.19,0,0,1,153.18,437Z"/><circle class="cls-14" cx="153.18" cy="431.22" r="7.03"/><path class="cls-13" d="M114.86,423.92a9.26,9.26,0,0,1,5.48-4.94"/><line class="cls-13" x1="128.41" y1="434.25" x2="118.1" y2="434.25"/><path class="cls-13" d="M126.2,419a9.24,9.24,0,0,1,5.08,4.25"/><circle class="cls-13" cx="123.24" cy="412.75" r="7.03"/><line class="cls-13" x1="146.15" y1="434.25" x2="138.7" y2="434.25"/><path class="cls-13" d="M147.44,419a9.29,9.29,0,0,1,5.18,4.43"/><path class="cls-13" d="M136.35,423.41a9.23,9.23,0,0,1,5.17-4.41"/><circle class="cls-13" cx="144.48" cy="412.75" r="7.03"/><path class="cls-13" d="M114.52,451.78H103.43v-6.53a9.19,9.19,0,0,1,5.84-8.56"/><path class="cls-13" d="M109.52,436.6a7,7,0,1,1,3.1.71,7,7,0,0,1-3.1-.71"/><path class="cls-13" d="M155.62,436.69a9.2,9.2,0,0,1,5.82,8.56v6.53H143.05v-6.53a9.35,9.35,0,0,1,5.73-8.63"/><circle class="cls-13" cx="152.25" cy="430.28" r="7.03"/><path class="cls-11" d="M136.48,436.69a9.2,9.2,0,0,1,5.82,8.56v6.53H123.91v-6.53a9.35,9.35,0,0,1,5.73-8.63"/><circle class="cls-11" cx="133.11" cy="430.28" r="7.03"/><path class="cls-14" d="M122.64,449.6h0a9.19,9.19,0,0,1,9.19,9.19v6.53a0,0,0,0,1,0,0H113.45a0,0,0,0,1,0,0V458.8A9.19,9.19,0,0,1,122.64,449.6Z"/><circle class="cls-14" cx="122.64" cy="443.83" r="7.03"/><path class="cls-14" d="M143.88,449.5h0a9.19,9.19,0,0,1,9.19,9.19v6.53a0,0,0,0,1,0,0H134.69a0,0,0,0,1,0,0v-6.53A9.19,9.19,0,0,1,143.88,449.5Z"/><circle class="cls-14" cx="143.88" cy="443.73" r="7.03"/><path class="cls-13" d="M124.74,449a9.2,9.2,0,0,1,6.27,8.72v6.53H112.62v-6.53a9.2,9.2,0,0,1,6.13-8.67"/><path class="cls-13" d="M124.58,449.26a7,7,0,1,1,2.63-11"/><path class="cls-13" d="M127.21,438.28a7,7,0,0,1-2.63,11"/><path class="cls-13" d="M146.12,449a9.2,9.2,0,0,1,6.34,8.74v6.53H134.07v-6.53a9.19,9.19,0,0,1,6.24-8.71"/><circle class="cls-13" cx="143.26" cy="442.79" r="7.03"/><polygon class="cls-9" points="141.48 203.81 135.83 212.29 123.17 217.72 123.25 214.49 123.85 204.3 129.5 195.82 142.32 189.57 141.48 203.81"/><path class="cls-15" d="M159.79,150.34h1a6.71,6.71,0,0,1,6.71,6.71V175a0,0,0,0,1,0,0H153.08a0,0,0,0,1,0,0v-17.9A6.71,6.71,0,0,1,159.79,150.34Z" transform="translate(117.15 -61.59) rotate(33.69)"/><rect class="cls-5" x="117.56" y="178.16" width="55.14" height="14.39" transform="translate(-89.6 203.29) rotate(-56.31)"/><polyline class="cls-7" points="141.17 202.45 135.32 211.21 122.7 217.17 122.94 213.13 123.4 203.15 129.2 194.46"/><path class="cls-7" d="M166.11,165.05h0l2.95-4.42a6.71,6.71,0,0,0-1.87-9.31l-.8-.54a6.71,6.71,0,0,0-9.31,1.86l-3,4.42h0l-30.59,45.88,12,8Z"/><line class="cls-2" x1="154.13" y1="157.06" x2="166.11" y2="165.05"/><polygon class="cls-3" points="123.39 214.03 125.34 215.33 123.25 216.35 123.39 214.03"/><path class="cls-3" d="M123.84,214.93l.5.33-.54.27,0-.6m-.9-1.8-.24,4,3.64-1.77-3.4-2.27Z"/><rect class="cls-15" x="108.04" y="147.73" width="12.55" height="12.55"/><polyline class="cls-16" points="104.34 154.49 110.71 160.85 124.41 147.15"/><rect class="cls-17" x="107.07" y="145.73" width="12.55" height="12.55"/><path class="cls-5" d="M103.09,153.48l1.27-1.26,5,5a.5.5,0,0,0,.35.14.52.52,0,0,0,.36-.14l12.36-12.36,1.26,1.27-14,14Z"/><path class="cls-3" d="M122.45,145.59l.56.56-13.28,13.27-5.93-5.94.56-.56,4.67,4.67a1,1,0,0,0,.7.29,1,1,0,0,0,.71-.29l12-12m0-1.42-12.72,12.71-5.37-5.37-2,2,7.35,7.35,14.69-14.68-2-2Z"/><rect class="cls-15" x="108.04" y="178.91" width="12.55" height="12.55"/><polyline class="cls-18" points="104.34 185.68 110.71 192.04 124.41 178.34"/><rect class="cls-17" x="107.07" y="176.92" width="12.55" height="12.55"/><path class="cls-5" d="M103.09,184.67l1.27-1.27,5,5a.5.5,0,0,0,.35.15.51.51,0,0,0,.36-.15l12.36-12.36,1.26,1.27-14,14Z"/><path class="cls-3" d="M122.45,176.77l.56.56-13.28,13.28-5.93-5.94.56-.56,4.67,4.67a1,1,0,0,0,1.41,0l12-12m0-1.41-12.72,12.71-5.37-5.38-2,2,7.35,7.35,14.69-14.69-2-2Z"/><rect class="cls-15" x="108.04" y="210.05" width="12.55" height="12.55"/><rect class="cls-17" x="107.07" y="208.05" width="12.55" height="12.55"/><path class="cls-15" d="M115.63,262.21a30.39,30.39,0,1,1-30.39-30.39A30.3,30.3,0,0,1,115.63,262.21Z"/><rect class="cls-15" x="75.19" y="209.91" width="20.1" height="37.73"/><line class="cls-19" x1="71.76" y1="209.91" x2="98.72" y2="209.91"/><path class="cls-5" d="M114.79,269.33a30.4,30.4,0,0,1-59.1,0Z"/><path class="cls-13" d="M94,232V208.4H73.85V232A30.39,30.39,0,1,0,94,232Z"/><line class="cls-2" x1="70.42" y1="208.4" x2="97.38" y2="208.4"/><path class="cls-13" d="M113.45,267.82a30.4,30.4,0,0,1-59.1,0Z"/><path class="cls-5" d="M330.75,378.13c-.68.83-16.19,21-35.7,21s-35-20.2-35.71-21a1.17,1.17,0,0,1,0-1.51c.68-.84,16.19-21,35.71-21s35,20.19,35.7,21A1.38,1.38,0,0,1,330.75,378.13Z"/><circle class="cls-15" cx="295.02" cy="377.37" r="13.64"/><circle class="cls-5" cx="295.02" cy="377.37" r="4.86"/><path class="cls-13" d="M329.24,377.29c-.68.84-16.18,21-35.7,21s-35-20.19-35.7-21a1.14,1.14,0,0,1,0-1.51c.68-.83,16.19-21,35.7-21s35,20.2,35.7,21A1.34,1.34,0,0,1,329.24,377.29Z"/><circle class="cls-13" cx="293.51" cy="376.54" r="13.64"/><path class="cls-20" d="M293.52,380.89a4.36,4.36,0,1,1,4.35-4.35A4.36,4.36,0,0,1,293.52,380.89Z"/><path class="cls-3" d="M293.51,372.68a3.86,3.86,0,1,1-3.85,3.86,3.86,3.86,0,0,1,3.85-3.86m0-1a4.86,4.86,0,1,0,4.86,4.86,4.85,4.85,0,0,0-4.86-4.86Z"/><rect class="cls-4" x="174.71" y="51.33" width="60.4" height="60.4"/><line class="cls-21" x1="182.06" y1="69.21" x2="226.94" y2="69.21"/><line class="cls-21" x1="182.06" y1="79.77" x2="206.38" y2="79.77"/><line class="cls-21" x1="181.43" y1="90.96" x2="217.35" y2="90.33"/><polygon class="cls-7" points="233.84 109.21 173.45 109.21 173.45 48.81 233.84 48.81 233.84 99.76 233.84 109.21"/><line class="cls-2" x1="181.43" y1="67.34" x2="226.31" y2="67.34"/><line class="cls-2" x1="181.43" y1="78.21" x2="205.75" y2="78.21"/><line class="cls-2" x1="181.43" y1="89.07" x2="216.73" y2="89.07"/><circle class="cls-15" cx="361.33" cy="189.47" r="33.22"/><path class="cls-3" d="M361.33,157.75a31.72,31.72,0,1,1-31.72,31.72,31.76,31.76,0,0,1,31.72-31.72m0-3a34.72,34.72,0,1,0,34.72,34.72,34.72,34.72,0,0,0-34.72-34.72Z"/><path class="cls-22" d="M345.49,183.2a19,19,0,0,1,36.33,7.87"/><path class="cls-22" d="M380.08,199a19,19,0,0,1-36.29-8"/><polyline class="cls-22" points="353.9 181.68 345.49 183.21 343.96 174.79"/><polyline class="cls-22" points="371.64 200.4 380.08 199.03 381.46 207.47"/><path class="cls-5" d="M379.36,188.76a18.12,18.12,0,0,0-33.22-9.52l-.66,1,6.2-1.13.32,1.74-8.8,1.6-1.6-8.79,1.75-.32,1,5.4.69-1a19.89,19.89,0,0,1,36.11,11Z"/><path class="cls-3" d="M361.24,169.86a19.42,19.42,0,0,1,19.37,18.4h-.77a18.63,18.63,0,0,0-34.12-9.3l-1.3,2,2.31-.42,4.55-.83.13.76-7.81,1.42L342.19,174l.75-.14.68,3.74.43,2.33,1.37-1.93a19.48,19.48,0,0,1,15.82-8.18m0-1a20.46,20.46,0,0,0-16.63,8.6l-.86-4.72-2.73.49L342.8,183l9.78-1.78-.5-2.72-5.53,1a17.63,17.63,0,0,1,32.32,9.75h2.77a20.42,20.42,0,0,0-20.4-20.4Z"/><path class="cls-5" d="M361.24,209.16a19.93,19.93,0,0,1-19.9-19.4h1.77a18.13,18.13,0,0,0,33.2,9.57l.64-1-6.24,1-.29-1.75,8.82-1.44,1.44,8.83-1.75.28-.87-5.36-.71,1A20,20,0,0,1,361.24,209.16Z"/><path class="cls-3" d="M342.63,190.26a18.63,18.63,0,0,0,34.09,9.35l1.29-1.92-2.28.37-4.61.75-.12-.76,7.83-1.27,1.28,7.83-.77.13-.6-3.69-.38-2.37L377,200.62a19.39,19.39,0,0,1-35.09-10.36h.77m1-1h-2.78a20.4,20.4,0,0,0,36.93,12l.76,4.68,2.73-.45-1.59-9.81-9.81,1.6.44,2.73,5.6-.91a17.62,17.62,0,0,1-32.28-9.79Z"/><polygon class="cls-4" points="303.31 149.55 275.75 149.55 272.36 124.56 306.7 124.56 303.31 149.55"/><path class="cls-15" d="M335.28,71.5c0,10.14-8.29,25.79-14.36,35.89-3.51,5.86-6.3,9.87-6.3,9.87a20.78,20.78,0,0,1-.32,3.31c-1.1,6.8-4.87,18.06-9.36,18.06H274.12c-4.5,0-8.27-11.26-9.37-18.06a22,22,0,0,1-.32-3.31s-2.77-4-6.3-9.87c-6.07-10.1-14.35-25.75-14.35-35.89a45.75,45.75,0,0,1,91.5,0Z"/><path class="cls-15" d="M320.92,107.39c-3.51,5.86-6.3,9.87-6.3,9.87a20.78,20.78,0,0,1-.32,3.31H264.75a22,22,0,0,1-.32-3.31s-2.77-4-6.3-9.87Z"/><polyline class="cls-13" points="302.87 136.68 301.38 147.62 273.82 147.62 272.33 136.68"/><path class="cls-3" d="M331.4,54.68c-.34-1-.72-2-1.13-3A46.26,46.26,0,0,0,245,51.58c-.57,1.36-1.08,2.75-1.54,4.17a46.43,46.43,0,0,0-2.1,13.82c0,10,7.84,25.2,14.42,36.15,3.14,5.23,5.72,9,6.22,9.77a24.5,24.5,0,0,0,.33,3.23c1,6,4.68,18.48,9.86,18.48H303c5.18,0,8.88-12.45,9.86-18.48a22.76,22.76,0,0,0,.33-3.23c.5-.74,3.09-4.54,6.23-9.77,6.58-11,14.43-26.13,14.43-36.15A46.17,46.17,0,0,0,331.4,54.68Zm-12.83,50.53c-3.46,5.77-6.25,9.79-6.28,9.83l-.09.13v.16a21.64,21.64,0,0,1-.31,3.23c-1.21,7.4-5,17.64-8.88,17.64H272.19c-3.87,0-7.7-10.43-8.87-17.64a20.66,20.66,0,0,1-.32-3.23v-.16l-.09-.13s-2.8-4.06-6.28-9.83c-5.33-8.88-14.27-25.31-14.27-35.64a45.17,45.17,0,0,1,2.38-14.5c.27-.78.55-1.55.86-2.31a45.25,45.25,0,0,1,84.08.15c.15.37.29.75.43,1.12a45,45,0,0,1,2.75,15.54C332.86,79.36,325.09,94.35,318.57,105.21Z"/><path class="cls-11" d="M319,105.47c-3.51,5.85-6.29,9.86-6.29,9.86a20.85,20.85,0,0,1-.33,3.31H262.82a21.91,21.91,0,0,1-.32-3.31s-2.77-4-6.3-9.86Z"/><line class="cls-13" x1="285" y1="449.87" x2="295.55" y2="449.87"/><line class="cls-13" x1="269.24" y1="449.87" x2="279.83" y2="449.87"/><polyline class="cls-7" points="332.41 449.87 342.53 449.87 342.53 521.43 253.63 521.43 253.63 449.87 264.26 449.87"/><line class="cls-13" x1="316.82" y1="449.87" x2="326.75" y2="449.87"/><line class="cls-13" x1="301.16" y1="449.87" x2="311.14" y2="449.87"/><line class="cls-13" x1="269.24" y1="449.87" x2="279.83" y2="449.87"/><polyline class="cls-7" points="332.41 449.87 342.53 449.87 342.53 466.49 253.63 466.49 253.63 449.87 264.12 449.87"/><rect class="cls-13" x="261.17" y="476.12" width="17.88" height="9.53"/><rect class="cls-13" x="289.14" y="476.12" width="17.88" height="9.53"/><rect class="cls-13" x="317.11" y="476.12" width="17.88" height="9.53"/><circle class="cls-13" cx="270.92" cy="503.85" r="6.58"/><circle class="cls-13" cx="299.56" cy="503.85" r="6.58"/><rect class="cls-5" x="265.56" y="441.94" width="5.65" height="17.88"/><rect class="cls-5" x="281.22" y="441.94" width="5.65" height="17.88"/><rect class="cls-5" x="296.89" y="441.94" width="5.65" height="17.88"/><rect class="cls-5" x="328.22" y="441.94" width="5.65" height="17.88"/><rect class="cls-5" x="312.56" y="441.94" width="5.65" height="17.88"/><rect class="cls-13" x="263.92" y="440.3" width="5.65" height="17.88"/><rect class="cls-13" x="279.59" y="440.3" width="5.65" height="17.88"/><rect class="cls-13" x="295.26" y="440.3" width="5.65" height="17.88"/><rect class="cls-13" x="326.59" y="440.3" width="5.65" height="17.88"/><rect class="cls-13" x="310.92" y="440.3" width="5.65" height="17.88"/><circle class="cls-12" cx="344.19" cy="521.66" r="22.74"/><polyline class="cls-23" points="344.19 510.79 344.19 521.76 355.98 529.4"/><polyline class="cls-7" points="343.04 510.6 343.04 521.57 354.82 529.21"/><circle class="cls-3" cx="151.16" cy="512.33" r="6.85"/><rect class="cls-4" x="108.92" y="536.78" width="87.67" height="34.9"/><rect class="cls-13" x="107.34" y="534.32" width="87.67" height="34.9"/><text class="cls-24" transform="translate(130.36 548.31)"><tspan class="cls-25">Geöffnet</tspan><tspan class="cls-26"><tspan x="-15.38" y="13.25">für </tspan><tspan class="cls-27" x="-0.26" y="13.25">V</tspan><tspan x="5.33" y="13.25">e</tspan><tspan class="cls-28" x="10.61" y="13.25">r</tspan><tspan x="14.41" y="13.25">änderung</tspan></tspan></text><polyline class="cls-13" points="191.03 541.5 151.18 509.86 111.33 541.5"/><circle class="cls-3" cx="112.03" cy="540.93" r="1.46"/><circle class="cls-3" cx="190.46" cy="540.93" r="1.46"/></g></svg>