<svg width="678" height="679" viewBox="0 0 678 679" fill="none" xmlns="http://www.w3.org/2000/svg">
<path d="M175 169.5L509.5 505M169.5 505L503.5 169.5" stroke="#FBF0F3" stroke-width="3"/>
<path d="M338.906 222.5L455.32 339.086L338.906 455.5L222.492 339.086L338.906 222.5Z" fill="rgb(246,76,114)"/>
<path d="M309.118 121.732H302.046L302.93 116.74H309.196L309.508 114.972H303.242L304.126 109.954H311.198L311.51 108.186H302.358L299.68 123.5H308.832L309.118 121.732Z" fill="#363C65"/>
<path d="M316.826 121.55C315.994 122.018 315.5 122.148 314.772 122.148C314.07 122.148 313.524 121.654 313.758 120.38L315.058 113.074H318.178L318.464 111.488H315.318L315.812 108.68L313.81 108.966L313.368 111.488H311.678L311.392 113.074H313.056L311.808 120.172C311.34 122.72 312.432 123.812 314.46 123.812C315.162 123.812 316.098 123.63 316.826 123.214V121.55Z" fill="#363C65"/>
<path d="M326.544 118.482C326.154 120.77 324.854 122.174 323.034 122.174C321.266 122.174 320.382 120.692 320.382 118.664C320.382 115.232 322.15 112.762 324.542 112.762C326.466 112.762 327.22 114.634 326.908 116.454L326.544 118.482ZM329.768 111.488H328.13L327.48 113.516C327.168 111.93 326.024 111.202 324.36 111.202C320.824 111.202 318.458 114.79 318.458 118.898C318.458 122.07 320.174 123.812 322.488 123.812C323.996 123.812 325.426 123.136 326.154 121.498C326.05 122.876 326.726 123.63 328.026 123.63C328.468 123.63 328.91 123.552 329.274 123.422L329.534 121.992C329.222 122.07 328.988 122.096 328.78 122.096C328.026 122.096 328 121.524 328.104 120.926L329.768 111.488Z" fill="#363C65"/>
<path d="M334.51 116.558C334.9 114.322 336.486 112.814 338.28 112.814C339.918 112.814 340.802 114.114 340.802 116.142C340.802 119.444 339.294 122.174 336.746 122.174C334.718 122.174 333.782 120.354 334.094 118.898L334.51 116.558ZM333.652 121.524C333.912 122.798 335.108 123.812 336.902 123.812C340.568 123.812 342.856 120.432 342.856 116.142C342.856 112.97 341.452 111.202 338.93 111.202C337.188 111.202 335.81 112.06 334.978 113.802L335.186 111.488H333.47L330.428 128.778H332.378L333.652 121.524Z" fill="#363C65"/>
<path d="M347.339 116.558C347.729 114.322 349.315 112.814 351.109 112.814C352.747 112.814 353.631 114.114 353.631 116.142C353.631 119.444 352.123 122.174 349.575 122.174C347.547 122.174 346.611 120.354 346.923 118.898L347.339 116.558ZM346.481 121.524C346.741 122.798 347.937 123.812 349.731 123.812C353.397 123.812 355.685 120.432 355.685 116.142C355.685 112.97 354.281 111.202 351.759 111.202C350.017 111.202 348.639 112.06 347.807 113.802L348.015 111.488H346.299L343.257 128.778H345.207L346.481 121.524Z" fill="#363C65"/>
<path d="M361.754 122.278C359.466 122.278 358.66 120.042 358.842 117.936H366.59C366.954 117.156 367.11 116.324 367.11 115.492C367.11 113.282 365.914 111.202 362.846 111.202C359.96 111.202 356.996 113.828 356.996 118.716C356.996 121.784 358.686 123.812 361.572 123.812C363.912 123.812 365.628 123.11 366.512 120.666L364.718 120.224C364.276 121.524 363.548 122.278 361.754 122.278ZM359.076 116.35C359.544 114.452 360.74 112.762 362.742 112.762C364.432 112.762 365.212 114.01 365.212 115.44C365.212 115.752 365.186 116.064 365.082 116.35H359.076Z" fill="#363C65"/>
<path d="M377.318 123.5L379.554 110.786L373.652 111.982L373.34 113.646L377.136 112.944L375.29 123.5H377.318Z" fill="#363C65"/>
<path d="M243.213 142.625H244.963C246.388 142.625 247.038 143.35 247.038 144.875C247.038 146.25 246.438 146.975 244.963 146.975H243.213V142.625ZM243.213 154.5V149.75H245.388C248.563 149.75 250.413 147.875 250.413 144.75C250.413 141.5 248.838 139.775 245.062 139.775H239.812V154.5H243.213Z" fill="#363C65"/>
<path d="M260.219 142.7C257.169 142.525 256.044 144.125 255.544 146.125L255.144 142.95H252.244V154.5H255.594V149.225C255.594 146.85 257.219 146.2 258.544 146.2C259.069 146.2 259.419 146.25 259.844 146.4L260.219 142.7Z" fill="#363C65"/>
<path d="M266.115 154.8C269.465 154.8 271.69 152.6 271.69 148.7C271.69 144.775 269.465 142.675 266.115 142.675C262.74 142.675 260.515 144.775 260.515 148.7C260.515 152.6 262.74 154.8 266.115 154.8ZM266.115 145.35C267.64 145.35 268.39 146.425 268.39 148.7C268.39 151.1 267.665 152.2 266.115 152.2C264.54 152.2 263.815 151.1 263.815 148.7C263.815 146.425 264.565 145.35 266.115 145.35Z" fill="#363C65"/>
<path d="M276.908 148.075C276.908 146.325 278.108 145.35 279.333 145.35C280.808 145.35 281.733 146.35 281.733 148.75C281.733 151.2 280.533 152.4 279.108 152.4C278.133 152.4 276.908 151.75 276.908 149.775V148.075ZM276.758 152.825C277.108 153.925 278.208 154.8 280.183 154.8C283.308 154.8 285.108 152.25 285.108 148.45C285.108 144.775 283.483 142.675 280.658 142.675C279.008 142.675 277.558 143.35 276.933 145.1V137.8H273.583V154.5H275.933L276.758 152.825Z" fill="#363C65"/>
<path d="M292.074 151.625C291.774 151.75 291.474 151.8 291.174 151.8C290.574 151.8 290.124 151.525 290.124 150.8V137.8H286.774V151.775C286.774 153.95 288.299 154.725 289.974 154.725C290.624 154.725 291.249 154.6 291.899 154.425L292.074 151.625Z" fill="#363C65"/>
<path d="M298.381 152.225C296.856 152.225 296.031 151.075 295.956 149.3H303.081C303.181 148.825 303.231 148.3 303.231 147.8C303.231 144.825 301.631 142.675 298.356 142.675C294.881 142.675 292.731 144.925 292.731 148.9C292.731 152.625 295.006 154.8 298.306 154.8C300.581 154.8 302.656 153.975 303.256 151.625L300.406 150.65C300.031 151.875 299.281 152.225 298.381 152.225ZM296.056 147.45C296.181 146.1 296.981 145.15 298.231 145.15C299.431 145.15 300.056 145.975 300.056 147.05C300.056 147.2 300.056 147.3 300.031 147.45H296.056Z" fill="#363C65"/>
<path d="M315.038 145.2C314.738 143.275 313.463 142.675 311.988 142.675C310.288 142.675 309.063 143.425 308.438 145.175L308.038 142.95H305.188V154.5H308.538V148.15C308.538 146.125 309.388 145.475 310.438 145.475C311.638 145.475 311.963 146.3 311.963 147.575V154.5H315.313V148.125C315.313 146.125 316.188 145.475 317.213 145.475C318.388 145.475 318.738 146.3 318.738 147.575V154.5H322.088V146.3C322.088 143.725 320.663 142.675 318.788 142.675C317.063 142.675 315.663 143.475 315.038 145.2Z" fill="#363C65"/>
<path d="M327.013 154.5H330.688L334.888 142.95H331.463L329.788 148.225C329.213 150.075 328.963 151.95 328.963 151.95H328.863C328.863 151.95 328.663 150.1 328.088 148.2L326.513 142.95H322.963L327.013 154.5Z" fill="#363C65"/>
<path d="M340.802 152.225C339.277 152.225 338.452 151.075 338.377 149.3H345.502C345.602 148.825 345.652 148.3 345.652 147.8C345.652 144.825 344.052 142.675 340.777 142.675C337.302 142.675 335.152 144.925 335.152 148.9C335.152 152.625 337.427 154.8 340.727 154.8C343.002 154.8 345.077 153.975 345.677 151.625L342.827 150.65C342.452 151.875 341.702 152.225 340.802 152.225ZM338.477 147.45C338.602 146.1 339.402 145.15 340.652 145.15C341.852 145.15 342.477 145.975 342.477 147.05C342.477 147.2 342.477 147.3 342.452 147.45H338.477Z" fill="#363C65"/>
<path d="M355.584 142.7C352.534 142.525 351.409 144.125 350.909 146.125L350.509 142.95H347.609V154.5H350.959V149.225C350.959 146.85 352.584 146.2 353.909 146.2C354.434 146.2 354.784 146.25 355.209 146.4L355.584 142.7Z" fill="#363C65"/>
<path d="M355.457 151.825C355.907 154 357.557 154.8 360.407 154.8C363.232 154.8 365.357 153.8 365.357 151.225C365.357 149.25 364.257 148 361.907 147.5L360.282 147.15C359.507 147 359.157 146.675 359.157 146.1C359.157 145.5 359.682 145.15 360.457 145.15C361.407 145.15 361.932 145.45 362.057 146.375L365.182 145.925C365.007 143.675 363.357 142.675 360.607 142.675C358.232 142.675 355.907 143.5 355.907 146.425C355.907 148.175 356.832 149.325 358.857 149.85L360.557 150.25C361.582 150.5 362.032 150.8 362.032 151.45C362.032 152.125 361.382 152.45 360.457 152.45C359.357 152.45 358.457 151.975 358.207 150.725L355.457 151.825Z" fill="#363C65"/>
<path d="M374.339 151.225C373.664 151.7 373.039 151.95 372.314 151.95C371.389 151.95 370.914 151.55 370.914 150.325V145.525H374.364V142.95H370.939V140.1L367.589 140.5V142.95H365.889V145.525H367.564V151.075C367.564 153.725 369.064 154.8 371.364 154.8C372.739 154.8 373.939 154.55 374.914 154.05L374.339 151.225Z" fill="#363C65"/>
<path d="M382.008 150.875C382.008 152 380.983 152.425 380.108 152.425C379.308 152.425 378.833 151.95 378.833 151.275C378.833 150.25 379.658 149.625 382.008 149.7V150.875ZM385.308 146.5C385.308 143.925 383.658 142.675 380.783 142.675C378.133 142.675 376.058 143.825 375.883 146.275L379.208 146.9C379.258 145.825 379.733 145.2 380.658 145.2C381.583 145.2 382.008 145.8 382.008 146.8V147.9C377.558 147.65 375.483 149.05 375.483 151.625C375.483 153.6 376.833 154.8 378.883 154.8C380.458 154.8 381.708 154.325 382.233 152.9C382.608 154.15 383.508 154.725 384.983 154.725C385.783 154.725 386.408 154.6 386.883 154.3V151.875C386.658 151.975 386.433 152.05 386.158 152.05C385.633 152.05 385.308 151.775 385.308 151V146.5ZM376.183 139.6C376.183 140.8 377.033 141.475 378.033 141.475C379.133 141.475 379.933 140.8 379.933 139.6C379.933 138.35 379.133 137.725 378.033 137.725C377.033 137.725 376.183 138.35 376.183 139.6ZM381.633 139.6C381.633 140.825 382.483 141.475 383.483 141.475C384.558 141.475 385.383 140.825 385.383 139.6C385.383 138.35 384.558 137.725 383.483 137.725C382.483 137.725 381.633 138.35 381.633 139.6Z" fill="#363C65"/>
<path d="M391.232 142.95H388.382V154.5H391.732V148.15C391.732 146.075 392.757 145.475 393.832 145.475C395.032 145.475 395.382 146.3 395.382 147.575V154.5H398.732V146.325C398.732 143.725 397.107 142.675 395.332 142.675C393.557 142.675 392.257 143.45 391.632 145.175L391.232 142.95Z" fill="#363C65"/>
<path d="M408.711 149.7C408.711 151.375 407.561 152.225 406.411 152.225C404.836 152.225 403.861 151 403.861 148.825C403.861 146.1 405.136 145.15 406.461 145.15C407.611 145.15 408.711 145.85 408.711 147.55V149.7ZM408.686 144.475C408.386 143.375 407.136 142.675 405.661 142.675C402.361 142.675 400.511 145.025 400.511 148.975C400.511 152.775 402.561 154.8 405.111 154.8C406.836 154.8 408.286 154.25 408.711 152.5L409.136 154.5H412.036V137.8H408.686V144.475Z" fill="#363C65"/>
<path d="M417.527 142.95H414.677V154.5H418.027V148.15C418.027 146.075 419.052 145.475 420.127 145.475C421.327 145.475 421.677 146.3 421.677 147.575V154.5H425.027V146.325C425.027 143.725 423.402 142.675 421.627 142.675C419.852 142.675 418.552 143.45 417.927 145.175L417.527 142.95Z" fill="#363C65"/>
<path d="M427.206 139.425C427.206 140.65 428.106 141.325 429.231 141.325C430.406 141.325 431.306 140.65 431.306 139.425C431.306 138.15 430.406 137.475 429.231 137.475C428.106 137.475 427.206 138.15 427.206 139.425ZM427.556 142.95V154.5H430.906V142.95H427.556Z" fill="#363C65"/>
<path d="M432.425 151.825C432.875 154 434.525 154.8 437.375 154.8C440.2 154.8 442.325 153.8 442.325 151.225C442.325 149.25 441.225 148 438.875 147.5L437.25 147.15C436.475 147 436.125 146.675 436.125 146.1C436.125 145.5 436.65 145.15 437.425 145.15C438.375 145.15 438.9 145.45 439.025 146.375L442.15 145.925C441.975 143.675 440.325 142.675 437.575 142.675C435.2 142.675 432.875 143.5 432.875 146.425C432.875 148.175 433.8 149.325 435.825 149.85L437.525 150.25C438.55 150.5 439 150.8 439 151.45C439 152.125 438.35 152.45 437.425 152.45C436.325 152.45 435.425 151.975 435.175 150.725L432.425 151.825Z" fill="#363C65"/>
<path d="M296.604 182.825C297.054 185 298.704 185.8 301.554 185.8C304.379 185.8 306.504 184.8 306.504 182.225C306.504 180.25 305.404 179 303.054 178.5L301.429 178.15C300.654 178 300.304 177.675 300.304 177.1C300.304 176.5 300.829 176.15 301.604 176.15C302.554 176.15 303.079 176.45 303.204 177.375L306.329 176.925C306.154 174.675 304.504 173.675 301.754 173.675C299.379 173.675 297.054 174.5 297.054 177.425C297.054 179.175 297.979 180.325 300.004 180.85L301.704 181.25C302.729 181.5 303.179 181.8 303.179 182.45C303.179 183.125 302.529 183.45 301.604 183.45C300.504 183.45 299.604 182.975 299.354 181.725L296.604 182.825Z" fill="#363C65"/>
<path d="M315.112 181.45C314.812 182.775 314.137 183.225 313.237 183.225C311.737 183.225 310.862 181.925 310.862 179.725C310.862 177.625 311.687 176.3 313.187 176.3C314.312 176.3 314.887 177.025 315.062 178.25L317.887 177.475C317.712 175.15 315.962 173.675 313.212 173.675C309.837 173.675 307.612 175.925 307.612 179.775C307.612 183.625 309.837 185.8 313.187 185.8C315.637 185.8 317.637 184.725 318.062 182.4L315.112 181.45Z" fill="#363C65"/>
<path d="M322.955 168.8H319.605V185.5H322.955V179.125C322.955 177.075 323.98 176.475 325.055 176.475C326.255 176.475 326.605 177.3 326.605 178.575V185.5H329.955V177.325C329.955 174.725 328.33 173.675 326.555 173.675C324.78 173.675 323.555 174.45 322.955 176.15V168.8Z" fill="#363C65"/>
<path d="M338.134 181.875C338.134 183 337.109 183.425 336.234 183.425C335.434 183.425 334.959 182.95 334.959 182.275C334.959 181.25 335.784 180.625 338.134 180.7V181.875ZM341.434 177.5C341.434 174.925 339.784 173.675 336.909 173.675C334.259 173.675 332.184 174.825 332.009 177.275L335.334 177.9C335.384 176.825 335.859 176.2 336.784 176.2C337.709 176.2 338.134 176.8 338.134 177.8V178.9C333.684 178.65 331.609 180.05 331.609 182.625C331.609 184.6 332.959 185.8 335.009 185.8C336.584 185.8 337.834 185.325 338.359 183.9C338.734 185.15 339.634 185.725 341.109 185.725C341.909 185.725 342.534 185.6 343.009 185.3V182.875C342.784 182.975 342.559 183.05 342.284 183.05C341.759 183.05 341.434 182.775 341.434 182V177.5ZM332.309 170.6C332.309 171.8 333.159 172.475 334.159 172.475C335.259 172.475 336.059 171.8 336.059 170.6C336.059 169.35 335.259 168.725 334.159 168.725C333.159 168.725 332.309 169.35 332.309 170.6ZM337.759 170.6C337.759 171.825 338.609 172.475 339.609 172.475C340.684 172.475 341.509 171.825 341.509 170.6C341.509 169.35 340.684 168.725 339.609 168.725C338.609 168.725 337.759 169.35 337.759 170.6Z" fill="#363C65"/>
<path d="M352.483 173.7C349.433 173.525 348.308 175.125 347.808 177.125L347.408 173.95H344.508V185.5H347.858V180.225C347.858 177.85 349.483 177.2 350.808 177.2C351.333 177.2 351.683 177.25 352.108 177.4L352.483 173.7Z" fill="#363C65"/>
<path d="M354.247 176.525V185.5H357.572V176.525H360.522V173.95H357.572V173.2C357.572 171.8 358.247 171.425 359.222 171.425C360.022 171.425 360.622 171.6 361.197 171.925L361.672 169.15C360.872 168.775 359.997 168.6 358.872 168.6C356.347 168.6 354.247 169.775 354.247 173.1V173.95H352.547V176.525H354.247Z" fill="#363C65"/>
<path d="M366.231 183.225C364.706 183.225 363.881 182.075 363.806 180.3H370.931C371.031 179.825 371.081 179.3 371.081 178.8C371.081 175.825 369.481 173.675 366.206 173.675C362.731 173.675 360.581 175.925 360.581 179.9C360.581 183.625 362.856 185.8 366.156 185.8C368.431 185.8 370.506 184.975 371.106 182.625L368.256 181.65C367.881 182.875 367.131 183.225 366.231 183.225ZM363.906 178.45C364.031 177.1 364.831 176.15 366.081 176.15C367.281 176.15 367.906 176.975 367.906 178.05C367.906 178.2 367.906 178.3 367.881 178.45H363.906Z" fill="#363C65"/>
<path d="M375.888 173.95H373.038V185.5H376.388V179.15C376.388 177.075 377.413 176.475 378.488 176.475C379.688 176.475 380.038 177.3 380.038 178.575V185.5H383.388V177.325C383.388 174.725 381.763 173.675 379.988 173.675C378.213 173.675 376.913 174.45 376.288 176.175L375.888 173.95Z" fill="#363C65"/>
<path d="M307.368 310.732H300.296L301.18 305.74H307.446L307.758 303.972H301.492L302.376 298.954H309.448L309.76 297.186H300.608L297.93 312.5H307.082L307.368 310.732Z" fill="white"/>
<path d="M315.076 310.55C314.244 311.018 313.75 311.148 313.022 311.148C312.32 311.148 311.774 310.654 312.008 309.38L313.308 302.074H316.428L316.714 300.488H313.568L314.062 297.68L312.06 297.966L311.618 300.488H309.928L309.642 302.074H311.306L310.058 309.172C309.59 311.72 310.682 312.812 312.71 312.812C313.412 312.812 314.348 312.63 315.076 312.214V310.55Z" fill="white"/>
<path d="M324.794 307.482C324.404 309.77 323.104 311.174 321.284 311.174C319.516 311.174 318.632 309.692 318.632 307.664C318.632 304.232 320.4 301.762 322.792 301.762C324.716 301.762 325.47 303.634 325.158 305.454L324.794 307.482ZM328.018 300.488H326.38L325.73 302.516C325.418 300.93 324.274 300.202 322.61 300.202C319.074 300.202 316.708 303.79 316.708 307.898C316.708 311.07 318.424 312.812 320.738 312.812C322.246 312.812 323.676 312.136 324.404 310.498C324.3 311.876 324.976 312.63 326.276 312.63C326.718 312.63 327.16 312.552 327.524 312.422L327.784 310.992C327.472 311.07 327.238 311.096 327.03 311.096C326.276 311.096 326.25 310.524 326.354 309.926L328.018 300.488Z" fill="white"/>
<path d="M332.76 305.558C333.15 303.322 334.736 301.814 336.53 301.814C338.168 301.814 339.052 303.114 339.052 305.142C339.052 308.444 337.544 311.174 334.996 311.174C332.968 311.174 332.032 309.354 332.344 307.898L332.76 305.558ZM331.902 310.524C332.162 311.798 333.358 312.812 335.152 312.812C338.818 312.812 341.106 309.432 341.106 305.142C341.106 301.97 339.702 300.202 337.18 300.202C335.438 300.202 334.06 301.06 333.228 302.802L333.436 300.488H331.72L328.678 317.778H330.628L331.902 310.524Z" fill="white"/>
<path d="M345.589 305.558C345.979 303.322 347.565 301.814 349.359 301.814C350.997 301.814 351.881 303.114 351.881 305.142C351.881 308.444 350.373 311.174 347.825 311.174C345.797 311.174 344.861 309.354 345.173 307.898L345.589 305.558ZM344.731 310.524C344.991 311.798 346.187 312.812 347.981 312.812C351.647 312.812 353.935 309.432 353.935 305.142C353.935 301.97 352.531 300.202 350.009 300.202C348.267 300.202 346.889 301.06 346.057 302.802L346.265 300.488H344.549L341.507 317.778H343.457L344.731 310.524Z" fill="white"/>
<path d="M360.004 311.278C357.716 311.278 356.91 309.042 357.092 306.936H364.84C365.204 306.156 365.36 305.324 365.36 304.492C365.36 302.282 364.164 300.202 361.096 300.202C358.21 300.202 355.246 302.828 355.246 307.716C355.246 310.784 356.936 312.812 359.822 312.812C362.162 312.812 363.878 312.11 364.762 309.666L362.968 309.224C362.526 310.524 361.798 311.278 360.004 311.278ZM357.326 305.35C357.794 303.452 358.99 301.762 360.992 301.762C362.682 301.762 363.462 303.01 363.462 304.44C363.462 304.752 363.436 305.064 363.332 305.35H357.326Z" fill="white"/>
<path d="M372.24 308.34H373.826C374.268 308.028 374.84 307.82 375.568 307.82C377.284 307.82 378.22 309.016 378.22 310.784C378.22 313.462 376.452 314.554 374.762 314.554C373.098 314.554 372.058 313.8 372.058 312.032L370.16 312.448C370.16 314.58 371.616 316.088 374.502 316.088C377.674 316.088 380.196 314.164 380.222 310.498C380.248 308.314 378.922 306.39 376.4 306.39C375.49 306.39 374.762 306.676 374.294 307.092L375.49 301.684H381.288L381.574 299.994H374.008L372.24 308.34Z" fill="white"/>
<path d="M248.931 328.775V337.6C248.931 339.725 248.381 340.975 246.231 340.975C244.106 340.975 243.556 339.725 243.556 337.625V328.775H240.156V338.575C240.156 342.55 242.981 343.8 246.231 343.8C249.506 343.8 252.306 342.55 252.306 338.575V328.775H248.931Z" fill="white"/>
<path d="M257.516 331.95H254.666V343.5H258.016V337.15C258.016 335.075 259.041 334.475 260.116 334.475C261.316 334.475 261.666 335.3 261.666 336.575V343.5H265.016V335.325C265.016 332.725 263.391 331.675 261.616 331.675C259.841 331.675 258.541 332.45 257.916 334.175L257.516 331.95Z" fill="white"/>
<path d="M274.42 340.225C273.745 340.7 273.12 340.95 272.395 340.95C271.47 340.95 270.995 340.55 270.995 339.325V334.525H274.445V331.95H271.02V329.1L267.67 329.5V331.95H265.97V334.525H267.645V340.075C267.645 342.725 269.145 343.8 271.445 343.8C272.82 343.8 274.02 343.55 274.995 343.05L274.42 340.225Z" fill="white"/>
<path d="M280.967 341.225C279.442 341.225 278.617 340.075 278.542 338.3H285.667C285.767 337.825 285.817 337.3 285.817 336.8C285.817 333.825 284.217 331.675 280.942 331.675C277.467 331.675 275.317 333.925 275.317 337.9C275.317 341.625 277.592 343.8 280.892 343.8C283.167 343.8 285.242 342.975 285.842 340.625L282.992 339.65C282.617 340.875 281.867 341.225 280.967 341.225ZM278.642 336.45C278.767 335.1 279.567 334.15 280.817 334.15C282.017 334.15 282.642 334.975 282.642 336.05C282.642 336.2 282.642 336.3 282.617 336.45H278.642Z" fill="white"/>
<path d="M295.499 331.7C292.449 331.525 291.324 333.125 290.824 335.125L290.424 331.95H287.524V343.5H290.874V338.225C290.874 335.85 292.499 335.2 293.824 335.2C294.349 335.2 294.699 335.25 295.124 335.4L295.499 331.7Z" fill="white"/>
<path d="M295.121 340.825C295.571 343 297.221 343.8 300.071 343.8C302.896 343.8 305.021 342.8 305.021 340.225C305.021 338.25 303.921 337 301.571 336.5L299.946 336.15C299.171 336 298.821 335.675 298.821 335.1C298.821 334.5 299.346 334.15 300.121 334.15C301.071 334.15 301.596 334.45 301.721 335.375L304.846 334.925C304.671 332.675 303.021 331.675 300.271 331.675C297.896 331.675 295.571 332.5 295.571 335.425C295.571 337.175 296.496 338.325 298.521 338.85L300.221 339.25C301.246 339.5 301.696 339.8 301.696 340.45C301.696 341.125 301.046 341.45 300.121 341.45C299.021 341.45 298.121 340.975 297.871 339.725L295.121 340.825Z" fill="white"/>
<path d="M313.854 343.5H316.754V331.95H313.404V338.15C313.404 340.375 312.479 341.275 311.329 341.275C310.179 341.275 309.754 340.5 309.754 339.125V331.95H306.404V340.075C306.404 342.75 307.829 343.8 309.879 343.8C312.004 343.8 313.054 342.925 313.454 341.35L313.854 343.5Z" fill="white"/>
<path d="M325.91 339.45C325.61 340.775 324.935 341.225 324.035 341.225C322.535 341.225 321.66 339.925 321.66 337.725C321.66 335.625 322.485 334.3 323.985 334.3C325.11 334.3 325.685 335.025 325.86 336.25L328.685 335.475C328.51 333.15 326.76 331.675 324.01 331.675C320.635 331.675 318.41 333.925 318.41 337.775C318.41 341.625 320.635 343.8 323.985 343.8C326.435 343.8 328.435 342.725 328.86 340.4L325.91 339.45Z" fill="white"/>
<path d="M333.504 326.8H330.154V343.5H333.504V337.125C333.504 335.075 334.529 334.475 335.604 334.475C336.804 334.475 337.154 335.3 337.154 336.575V343.5H340.504V335.325C340.504 332.725 338.879 331.675 337.104 331.675C335.329 331.675 334.104 332.45 333.504 334.15V326.8Z" fill="white"/>
<path d="M350.007 343.5H352.907V331.95H349.557V338.15C349.557 340.375 348.632 341.275 347.482 341.275C346.332 341.275 345.907 340.5 345.907 339.125V331.95H342.557V340.075C342.557 342.75 343.982 343.8 346.032 343.8C348.157 343.8 349.207 342.925 349.607 341.35L350.007 343.5Z" fill="white"/>
<path d="M358.164 331.95H355.314V343.5H358.664V337.15C358.664 335.075 359.689 334.475 360.764 334.475C361.964 334.475 362.314 335.3 362.314 336.575V343.5H365.664V335.325C365.664 332.725 364.039 331.675 362.264 331.675C360.489 331.675 359.189 332.45 358.564 334.175L358.164 331.95Z" fill="white"/>
<path d="M372.368 331.675C369.293 331.675 367.243 333.075 367.243 335.75C367.243 337.6 368.068 338.6 369.643 339.225C368.293 339.6 367.693 340.6 367.693 341.5C367.693 342.525 368.418 343.475 369.568 343.55C367.493 343.7 366.518 344.525 366.518 345.875C366.518 348.1 369.068 348.775 371.918 348.775C375.218 348.775 378.618 347.925 378.618 344.625C378.618 342.625 377.143 341.225 374.543 341.225H371.243C370.643 341.225 370.318 340.925 370.318 340.525C370.318 340.15 370.468 339.825 370.868 339.575C371.143 339.675 371.718 339.725 372.268 339.725C375.218 339.725 377.568 338.425 377.568 335.75C377.568 334.95 377.393 334.25 377.043 333.7C377.993 333.425 379.018 332.65 379.143 331.525L376.518 330.65C376.268 331.575 376.143 331.9 375.643 332.4C374.793 331.925 373.668 331.675 372.368 331.675ZM369.593 345.225C369.593 344.55 370.268 344.225 371.218 344.225H374.068C375.068 344.225 375.493 344.5 375.493 345.2C375.493 346.125 374.618 346.55 372.293 346.55C370.518 346.55 369.593 346.125 369.593 345.225ZM370.618 335.75C370.618 334.6 371.193 333.975 372.368 333.95C373.518 333.95 374.143 334.525 374.143 335.75C374.143 336.9 373.518 337.525 372.368 337.525C371.193 337.525 370.618 336.775 370.618 335.75Z" fill="white"/>
<path d="M378.372 340.825C378.822 343 380.472 343.8 383.322 343.8C386.147 343.8 388.272 342.8 388.272 340.225C388.272 338.25 387.172 337 384.822 336.5L383.197 336.15C382.422 336 382.072 335.675 382.072 335.1C382.072 334.5 382.597 334.15 383.372 334.15C384.322 334.15 384.847 334.45 384.972 335.375L388.097 334.925C387.922 332.675 386.272 331.675 383.522 331.675C381.147 331.675 378.822 332.5 378.822 335.425C378.822 337.175 379.747 338.325 381.772 338.85L383.472 339.25C384.497 339.5 384.947 339.8 384.947 340.45C384.947 341.125 384.297 341.45 383.372 341.45C382.272 341.45 381.372 340.975 381.122 339.725L378.372 340.825Z" fill="white"/>
<path d="M390.28 334.525V343.5H393.605V334.525H396.555V331.95H393.605V331.2C393.605 329.8 394.28 329.425 395.255 329.425C396.055 329.425 396.655 329.6 397.23 329.925L397.705 327.15C396.905 326.775 396.03 326.6 394.905 326.6C392.38 326.6 390.28 327.775 390.28 331.1V331.95H388.58V334.525H390.28Z" fill="white"/>
<path d="M401.963 343.8C405.313 343.8 407.538 341.6 407.538 337.7C407.538 333.775 405.313 331.675 401.963 331.675C398.588 331.675 396.363 333.775 396.363 337.7C396.363 341.6 398.588 343.8 401.963 343.8ZM401.963 334.35C403.488 334.35 404.238 335.425 404.238 337.7C404.238 340.1 403.513 341.2 401.963 341.2C400.388 341.2 399.663 340.1 399.663 337.7C399.663 335.425 400.413 334.35 401.963 334.35Z" fill="white"/>
<path d="M415.981 337.325L419.981 331.95H416.106L413.156 336.15H412.531V326.8H409.181V343.5H412.531V338.75H413.206L416.456 343.5H420.356L415.981 337.325Z" fill="white"/>
<path d="M428.498 343.5H431.398V331.95H428.048V338.15C428.048 340.375 427.123 341.275 425.973 341.275C424.823 341.275 424.398 340.5 424.398 339.125V331.95H421.048V340.075C421.048 342.75 422.473 343.8 424.523 343.8C426.648 343.8 427.698 342.925 428.098 341.35L428.498 343.5Z" fill="white"/>
<path d="M432.679 340.825C433.129 343 434.779 343.8 437.629 343.8C440.454 343.8 442.579 342.8 442.579 340.225C442.579 338.25 441.479 337 439.129 336.5L437.504 336.15C436.729 336 436.379 335.675 436.379 335.1C436.379 334.5 436.904 334.15 437.679 334.15C438.629 334.15 439.154 334.45 439.279 335.375L442.404 334.925C442.229 332.675 440.579 331.675 437.829 331.675C435.454 331.675 433.129 332.5 433.129 335.425C433.129 337.175 434.054 338.325 436.079 338.85L437.779 339.25C438.804 339.5 439.254 339.8 439.254 340.45C439.254 341.125 438.604 341.45 437.679 341.45C436.579 341.45 435.679 340.975 435.429 339.725L432.679 340.825Z" fill="white"/>
<path d="M308.824 371.825C309.274 374 310.924 374.8 313.774 374.8C316.599 374.8 318.724 373.8 318.724 371.225C318.724 369.25 317.624 368 315.274 367.5L313.649 367.15C312.874 367 312.524 366.675 312.524 366.1C312.524 365.5 313.049 365.15 313.824 365.15C314.774 365.15 315.299 365.45 315.424 366.375L318.549 365.925C318.374 363.675 316.724 362.675 313.974 362.675C311.599 362.675 309.274 363.5 309.274 366.425C309.274 368.175 310.199 369.325 312.224 369.85L313.924 370.25C314.949 370.5 315.399 370.8 315.399 371.45C315.399 372.125 314.749 372.45 313.824 372.45C312.724 372.45 311.824 371.975 311.574 370.725L308.824 371.825Z" fill="white"/>
<path d="M325.232 372.225C323.707 372.225 322.882 371.075 322.807 369.3H329.932C330.032 368.825 330.082 368.3 330.082 367.8C330.082 364.825 328.482 362.675 325.207 362.675C321.732 362.675 319.582 364.925 319.582 368.9C319.582 372.625 321.857 374.8 325.157 374.8C327.432 374.8 329.507 373.975 330.107 371.625L327.257 370.65C326.882 371.875 326.132 372.225 325.232 372.225ZM322.907 367.45C323.032 366.1 323.832 365.15 325.082 365.15C326.282 365.15 326.907 365.975 326.907 367.05C326.907 367.2 326.907 367.3 326.882 367.45H322.907Z" fill="white"/>
<path d="M338.914 371.225C338.239 371.7 337.614 371.95 336.889 371.95C335.964 371.95 335.489 371.55 335.489 370.325V365.525H338.939V362.95H335.514V360.1L332.164 360.5V362.95H330.464V365.525H332.139V371.075C332.139 373.725 333.639 374.8 335.939 374.8C337.314 374.8 338.514 374.55 339.489 374.05L338.914 371.225Z" fill="white"/>
<path d="M348.858 365.05V362.95H340.008V365.6H342.958C344.258 365.6 344.958 365.475 344.958 365.475V365.575C344.958 365.575 344.283 366.175 343.383 367.4L339.808 372.475V374.5H349.083V371.9H345.558C344.283 371.9 343.558 372.025 343.558 372.025V371.925C343.558 371.925 344.233 371.325 345.133 370.1L348.858 365.05Z" fill="white"/>
<path d="M355.258 372.225C353.733 372.225 352.908 371.075 352.833 369.3H359.958C360.058 368.825 360.108 368.3 360.108 367.8C360.108 364.825 358.508 362.675 355.233 362.675C351.758 362.675 349.608 364.925 349.608 368.9C349.608 372.625 351.883 374.8 355.183 374.8C357.458 374.8 359.533 373.975 360.133 371.625L357.283 370.65C356.908 371.875 356.158 372.225 355.258 372.225ZM352.933 367.45C353.058 366.1 353.858 365.15 355.108 365.15C356.308 365.15 356.933 365.975 356.933 367.05C356.933 367.2 356.933 367.3 356.908 367.45H352.933Z" fill="white"/>
<path d="M364.665 362.95H361.815V374.5H365.165V368.15C365.165 366.075 366.19 365.475 367.265 365.475C368.465 365.475 368.815 366.3 368.815 367.575V374.5H372.165V366.325C372.165 363.725 370.54 362.675 368.765 362.675C366.99 362.675 365.69 363.45 365.065 365.175L364.665 362.95Z" fill="white"/>
<path d="M505.376 310.732H498.304L499.188 305.74H505.454L505.766 303.972H499.5L500.384 298.954H507.456L507.768 297.186H498.616L495.938 312.5H505.09L505.376 310.732Z" fill="#363C65"/>
<path d="M513.084 310.55C512.252 311.018 511.758 311.148 511.03 311.148C510.328 311.148 509.782 310.654 510.016 309.38L511.316 302.074H514.436L514.722 300.488H511.576L512.07 297.68L510.068 297.966L509.626 300.488H507.936L507.65 302.074H509.314L508.066 309.172C507.598 311.72 508.69 312.812 510.718 312.812C511.42 312.812 512.356 312.63 513.084 312.214V310.55Z" fill="#363C65"/>
<path d="M522.801 307.482C522.411 309.77 521.111 311.174 519.291 311.174C517.523 311.174 516.639 309.692 516.639 307.664C516.639 304.232 518.407 301.762 520.799 301.762C522.723 301.762 523.477 303.634 523.165 305.454L522.801 307.482ZM526.025 300.488H524.387L523.737 302.516C523.425 300.93 522.281 300.202 520.617 300.202C517.081 300.202 514.715 303.79 514.715 307.898C514.715 311.07 516.431 312.812 518.745 312.812C520.253 312.812 521.683 312.136 522.411 310.498C522.307 311.876 522.983 312.63 524.283 312.63C524.725 312.63 525.167 312.552 525.531 312.422L525.791 310.992C525.479 311.07 525.245 311.096 525.037 311.096C524.283 311.096 524.257 310.524 524.361 309.926L526.025 300.488Z" fill="#363C65"/>
<path d="M530.768 305.558C531.158 303.322 532.744 301.814 534.538 301.814C536.176 301.814 537.06 303.114 537.06 305.142C537.06 308.444 535.552 311.174 533.004 311.174C530.976 311.174 530.04 309.354 530.352 307.898L530.768 305.558ZM529.91 310.524C530.17 311.798 531.366 312.812 533.16 312.812C536.826 312.812 539.114 309.432 539.114 305.142C539.114 301.97 537.71 300.202 535.188 300.202C533.446 300.202 532.068 301.06 531.236 302.802L531.444 300.488H529.728L526.686 317.778H528.636L529.91 310.524Z" fill="#363C65"/>
<path d="M543.597 305.558C543.987 303.322 545.573 301.814 547.367 301.814C549.005 301.814 549.889 303.114 549.889 305.142C549.889 308.444 548.381 311.174 545.833 311.174C543.805 311.174 542.869 309.354 543.181 307.898L543.597 305.558ZM542.739 310.524C542.999 311.798 544.195 312.812 545.989 312.812C549.655 312.812 551.943 309.432 551.943 305.142C551.943 301.97 550.539 300.202 548.017 300.202C546.275 300.202 544.897 301.06 544.065 302.802L544.273 300.488H542.557L539.515 317.778H541.465L542.739 310.524Z" fill="#363C65"/>
<path d="M558.012 311.278C555.724 311.278 554.918 309.042 555.1 306.936H562.848C563.212 306.156 563.368 305.324 563.368 304.492C563.368 302.282 562.172 300.202 559.104 300.202C556.218 300.202 553.254 302.828 553.254 307.716C553.254 310.784 554.944 312.812 557.83 312.812C560.17 312.812 561.886 312.11 562.77 309.666L560.976 309.224C560.534 310.524 559.806 311.278 558.012 311.278ZM555.334 305.35C555.802 303.452 556.998 301.762 559 301.762C560.69 301.762 561.47 303.01 561.47 304.44C561.47 304.752 561.444 305.064 561.34 305.35H555.334Z" fill="#363C65"/>
<path d="M578.152 310.836H571.314V310.732C574.33 309.926 578.802 307.326 578.802 303.504C578.802 300.982 577.242 299.682 574.694 299.682C573.004 299.682 570.378 300.41 570.118 303.712L571.964 304.102C571.964 302.048 573.186 301.372 574.486 301.372C575.916 301.372 576.722 302.178 576.722 303.556C576.722 306.468 573.81 308.6 568.948 310.94L568.688 312.5H577.866L578.152 310.836Z" fill="#363C65"/>
<path d="M486.18 340.199C486.93 342.849 488.88 343.799 491.78 343.799C494.905 343.799 497.505 342.624 497.505 339.424C497.505 336.599 495.93 335.549 492.83 334.574C491.105 334.049 490.305 333.649 490.305 332.624C490.305 331.674 491.055 331.249 492.005 331.249C493.03 331.249 494.005 331.824 494.13 333.124L497.505 332.274C497.205 329.474 494.955 328.449 491.93 328.449C489.355 328.449 486.755 329.549 486.755 332.874C486.755 335.399 488.155 336.674 491.53 337.749C493.455 338.349 493.98 338.799 493.98 339.749C493.98 340.749 493.155 341.199 492.03 341.199C490.63 341.199 489.555 340.274 489.28 338.824L486.18 340.199Z" fill="#363C65"/>
<path d="M501.696 331.949H498.046L502.321 344.149C501.846 345.424 501.196 345.874 500.146 345.874C499.571 345.874 499.046 345.724 498.621 345.474L498.121 348.424C498.746 348.574 499.521 348.699 500.196 348.699C502.571 348.699 504.171 348.099 505.471 344.524L510.046 331.949H506.521L504.921 337.224C504.246 339.449 504.096 340.924 504.096 340.924H503.996C503.996 340.924 503.846 339.474 503.196 337.199L501.696 331.949Z" fill="#363C65"/>
<path d="M509.811 340.824C510.261 342.999 511.911 343.799 514.761 343.799C517.586 343.799 519.711 342.799 519.711 340.224C519.711 338.249 518.611 336.999 516.261 336.499L514.636 336.149C513.861 335.999 513.511 335.674 513.511 335.099C513.511 334.499 514.036 334.149 514.811 334.149C515.761 334.149 516.286 334.449 516.411 335.374L519.536 334.924C519.361 332.674 517.711 331.674 514.961 331.674C512.586 331.674 510.261 332.499 510.261 335.424C510.261 337.174 511.186 338.324 513.211 338.849L514.911 339.249C515.936 339.499 516.386 339.799 516.386 340.449C516.386 341.124 515.736 341.449 514.811 341.449C513.711 341.449 512.811 340.974 512.561 339.724L509.811 340.824Z" fill="#363C65"/>
<path d="M528.694 340.224C528.019 340.699 527.394 340.949 526.669 340.949C525.744 340.949 525.269 340.549 525.269 339.324V334.524H528.719V331.949H525.294V329.099L521.944 329.499V331.949H520.244V334.524H521.919V340.074C521.919 342.724 523.419 343.799 525.719 343.799C527.094 343.799 528.294 343.549 529.269 343.049L528.694 340.224Z" fill="#363C65"/>
<path d="M535.491 341.224C533.966 341.224 533.141 340.074 533.066 338.299H540.191C540.291 337.824 540.341 337.299 540.341 336.799C540.341 333.824 538.741 331.674 535.466 331.674C531.991 331.674 529.841 333.924 529.841 337.899C529.841 341.624 532.116 343.799 535.416 343.799C537.691 343.799 539.766 342.974 540.366 340.624L537.516 339.649C537.141 340.874 536.391 341.224 535.491 341.224ZM533.166 336.449C533.291 335.099 534.091 334.149 535.341 334.149C536.541 334.149 537.166 334.974 537.166 336.049C537.166 336.199 537.166 336.299 537.141 336.449H533.166Z" fill="#363C65"/>
<path d="M552.148 334.199C551.848 332.274 550.573 331.674 549.098 331.674C547.398 331.674 546.173 332.424 545.548 334.174L545.148 331.949H542.298V343.499H545.648V337.149C545.648 335.124 546.498 334.474 547.548 334.474C548.748 334.474 549.073 335.299 549.073 336.574V343.499H552.423V337.124C552.423 335.124 553.298 334.474 554.323 334.474C555.498 334.474 555.848 335.299 555.848 336.574V343.499H559.198V335.299C559.198 332.724 557.773 331.674 555.898 331.674C554.173 331.674 552.773 332.474 552.148 334.199Z" fill="#363C65"/>
<path d="M566.62 341.224C565.095 341.224 564.27 340.074 564.195 338.299H571.32C571.42 337.824 571.47 337.299 571.47 336.799C571.47 333.824 569.87 331.674 566.595 331.674C563.12 331.674 560.97 333.924 560.97 337.899C560.97 341.624 563.245 343.799 566.545 343.799C568.82 343.799 570.895 342.974 571.495 340.624L568.645 339.649C568.27 340.874 567.52 341.224 566.62 341.224ZM564.295 336.449C564.42 335.099 565.22 334.149 566.47 334.149C567.67 334.149 568.295 334.974 568.295 336.049C568.295 336.199 568.295 336.299 568.27 336.449H564.295Z" fill="#363C65"/>
<path d="M591.219 341.699L589.194 339.874C589.769 339.199 590.369 337.949 590.544 336.799L587.819 335.824C587.769 336.649 587.569 337.474 587.244 338.024L584.369 335.274C586.119 334.899 587.569 333.874 587.569 332.049C587.569 329.699 585.594 328.474 583.069 328.474C580.419 328.474 578.344 329.674 578.344 332.099C578.344 333.299 578.894 334.324 579.794 335.174L580.594 335.974C578.244 336.549 577.194 338.124 577.194 339.849C577.194 342.699 579.644 343.799 582.069 343.799C584.294 343.799 585.769 343.299 587.094 342.199L588.819 343.849L591.219 341.699ZM580.519 339.449C580.519 338.299 581.069 337.699 581.869 337.149L585.219 340.374C584.594 341.074 583.769 341.349 582.694 341.349C581.369 341.349 580.519 340.599 580.519 339.449ZM583.044 330.724C583.969 330.724 584.494 331.249 584.494 332.099C584.494 332.899 584.069 333.649 583.294 334.224L582.394 333.274C581.994 332.849 581.744 332.499 581.744 331.924C581.744 331.224 582.244 330.724 583.044 330.724Z" fill="#363C65"/>
<path d="M455.062 374.499H458.713L453.338 359.774H449.138L443.812 374.499H447.363L448.413 371.424H453.988L455.062 374.499ZM449.938 366.924C450.763 364.549 451.138 362.749 451.138 362.749H451.238C451.238 362.749 451.538 364.524 452.388 366.949L452.988 368.599H449.363L449.938 366.924Z" fill="#363C65"/>
<path d="M466.843 368.324L470.843 362.949H466.968L464.018 367.149H463.393V357.799H460.043V374.499H463.393V369.749H464.068L467.318 374.499H471.218L466.843 368.324Z" fill="#363C65"/>
<path d="M479.632 371.224C478.957 371.699 478.332 371.949 477.607 371.949C476.682 371.949 476.207 371.549 476.207 370.324V365.524H479.657V362.949H476.232V360.099L472.882 360.499V362.949H471.182V365.524H472.857V371.074C472.857 373.724 474.357 374.799 476.657 374.799C478.032 374.799 479.232 374.549 480.207 374.049L479.632 371.224Z" fill="#363C65"/>
<path d="M486.428 372.224C484.903 372.224 484.078 371.074 484.003 369.299H491.128C491.228 368.824 491.278 368.299 491.278 367.799C491.278 364.824 489.678 362.674 486.403 362.674C482.928 362.674 480.778 364.924 480.778 368.899C480.778 372.624 483.053 374.799 486.353 374.799C488.628 374.799 490.703 373.974 491.303 371.624L488.453 370.649C488.078 371.874 487.328 372.224 486.428 372.224ZM484.103 367.449C484.228 366.099 485.028 365.149 486.278 365.149C487.478 365.149 488.103 365.974 488.103 367.049C488.103 367.199 488.103 367.299 488.078 367.449H484.103Z" fill="#363C65"/>
<path d="M500.46 374.499H503.36V362.949H500.01V369.149C500.01 371.374 499.085 372.274 497.935 372.274C496.785 372.274 496.36 371.499 496.36 370.124V362.949H493.01V371.074C493.01 373.749 494.435 374.799 496.485 374.799C498.61 374.799 499.66 373.924 500.06 372.349L500.46 374.499Z" fill="#363C65"/>
<path d="M513.991 362.699C510.941 362.524 509.816 364.124 509.316 366.124L508.916 362.949H506.016V374.499H509.366V369.224C509.366 366.849 510.991 366.199 512.316 366.199C512.841 366.199 513.191 366.249 513.616 366.399L513.991 362.699Z" fill="#363C65"/>
<path d="M519.938 372.224C518.413 372.224 517.588 371.074 517.513 369.299H524.638C524.738 368.824 524.788 368.299 524.788 367.799C524.788 364.824 523.188 362.674 519.913 362.674C516.438 362.674 514.288 364.924 514.288 368.899C514.288 372.624 516.563 374.799 519.863 374.799C522.138 374.799 524.213 373.974 524.813 371.624L521.963 370.649C521.588 371.874 520.838 372.224 519.938 372.224ZM517.613 367.449C517.738 366.099 518.538 365.149 519.788 365.149C520.988 365.149 521.613 365.974 521.613 367.049C521.613 367.199 521.613 367.299 521.588 367.449H517.613Z" fill="#363C65"/>
<path d="M534.287 374.499H537.963L542.162 362.949H538.738L537.062 368.224C536.487 370.074 536.238 371.949 536.238 371.949H536.137C536.137 371.949 535.938 370.099 535.363 368.199L533.787 362.949H530.238L534.287 374.499Z" fill="#363C65"/>
<path d="M548.077 372.224C546.552 372.224 545.727 371.074 545.652 369.299H552.777C552.877 368.824 552.927 368.299 552.927 367.799C552.927 364.824 551.327 362.674 548.052 362.674C544.577 362.674 542.427 364.924 542.427 368.899C542.427 372.624 544.702 374.799 548.002 374.799C550.277 374.799 552.352 373.974 552.952 371.624L550.102 370.649C549.727 371.874 548.977 372.224 548.077 372.224ZM545.752 367.449C545.877 366.099 546.677 365.149 547.927 365.149C549.127 365.149 549.752 365.974 549.752 367.049C549.752 367.199 549.752 367.299 549.727 367.449H545.752Z" fill="#363C65"/>
<path d="M562.859 362.699C559.809 362.524 558.684 364.124 558.184 366.124L557.784 362.949H554.884V374.499H558.234V369.224C558.234 366.849 559.859 366.199 561.184 366.199C561.709 366.199 562.059 366.249 562.484 366.399L562.859 362.699Z" fill="#363C65"/>
<path d="M567.547 368.074C567.547 366.324 568.747 365.349 569.972 365.349C571.447 365.349 572.372 366.349 572.372 368.749C572.372 371.199 571.172 372.399 569.747 372.399C568.772 372.399 567.547 371.749 567.547 369.774V368.074ZM567.397 372.824C567.747 373.924 568.847 374.799 570.822 374.799C573.947 374.799 575.747 372.249 575.747 368.449C575.747 364.774 574.122 362.674 571.297 362.674C569.647 362.674 568.197 363.349 567.572 365.099V357.799H564.222V374.499H566.572L567.397 372.824Z" fill="#363C65"/>
<path d="M577.288 359.424C577.288 360.649 578.188 361.324 579.313 361.324C580.488 361.324 581.388 360.649 581.388 359.424C581.388 358.149 580.488 357.474 579.313 357.474C578.188 357.474 577.288 358.149 577.288 359.424ZM577.638 362.949V374.499H580.988V362.949H577.638Z" fill="#363C65"/>
<path d="M586.483 362.949H583.633V374.499H586.983V368.149C586.983 366.074 588.008 365.474 589.083 365.474C590.283 365.474 590.633 366.299 590.633 367.574V374.499H593.983V366.324C593.983 363.724 592.358 362.674 590.583 362.674C588.808 362.674 587.508 363.449 586.883 365.174L586.483 362.949Z" fill="#363C65"/>
<path d="M603.962 369.699C603.962 371.374 602.812 372.224 601.662 372.224C600.087 372.224 599.112 370.999 599.112 368.824C599.112 366.099 600.387 365.149 601.712 365.149C602.862 365.149 603.962 365.849 603.962 367.549V369.699ZM603.937 364.474C603.637 363.374 602.387 362.674 600.912 362.674C597.612 362.674 595.762 365.024 595.762 368.974C595.762 372.774 597.812 374.799 600.362 374.799C602.087 374.799 603.537 374.249 603.962 372.499L604.387 374.499H607.287V357.799H603.937V364.474Z" fill="#363C65"/>
<path d="M614.828 372.224C613.303 372.224 612.478 371.074 612.403 369.299H619.528C619.628 368.824 619.678 368.299 619.678 367.799C619.678 364.824 618.078 362.674 614.803 362.674C611.328 362.674 609.178 364.924 609.178 368.899C609.178 372.624 611.453 374.799 614.753 374.799C617.028 374.799 619.103 373.974 619.703 371.624L616.853 370.649C616.478 371.874 615.728 372.224 614.828 372.224ZM612.503 367.449C612.628 366.099 613.428 365.149 614.678 365.149C615.878 365.149 616.503 365.974 616.503 367.049C616.503 367.199 616.503 367.299 616.478 367.449H612.503Z" fill="#363C65"/>
<path d="M624.485 362.949H621.635V374.499H624.985V368.149C624.985 366.074 626.01 365.474 627.085 365.474C628.285 365.474 628.635 366.299 628.635 367.574V374.499H631.985V366.324C631.985 363.724 630.36 362.674 628.585 362.674C626.81 362.674 625.51 363.449 624.885 365.174L624.485 362.949Z" fill="#363C65"/>
<path d="M109.321 310.732H102.249L103.133 305.74H109.399L109.711 303.972H103.445L104.329 298.954H111.401L111.713 297.186H102.561L99.8828 312.5H109.035L109.321 310.732Z" fill="#363C65"/>
<path d="M117.029 310.55C116.197 311.018 115.703 311.148 114.975 311.148C114.273 311.148 113.727 310.654 113.961 309.38L115.261 302.074H118.381L118.667 300.488H115.521L116.015 297.68L114.013 297.966L113.571 300.488H111.881L111.595 302.074H113.259L112.011 309.172C111.543 311.72 112.635 312.812 114.663 312.812C115.365 312.812 116.301 312.63 117.029 312.214V310.55Z" fill="#363C65"/>
<path d="M126.747 307.482C126.357 309.77 125.057 311.174 123.237 311.174C121.469 311.174 120.585 309.692 120.585 307.664C120.585 304.232 122.353 301.762 124.745 301.762C126.669 301.762 127.423 303.634 127.111 305.454L126.747 307.482ZM129.971 300.488H128.333L127.683 302.516C127.371 300.93 126.227 300.202 124.563 300.202C121.027 300.202 118.661 303.79 118.661 307.898C118.661 311.07 120.377 312.812 122.691 312.812C124.199 312.812 125.629 312.136 126.357 310.498C126.253 311.876 126.929 312.63 128.229 312.63C128.671 312.63 129.113 312.552 129.477 312.422L129.737 310.992C129.425 311.07 129.191 311.096 128.983 311.096C128.229 311.096 128.203 310.524 128.307 309.926L129.971 300.488Z" fill="#363C65"/>
<path d="M134.713 305.558C135.103 303.322 136.689 301.814 138.483 301.814C140.121 301.814 141.005 303.114 141.005 305.142C141.005 308.444 139.497 311.174 136.949 311.174C134.921 311.174 133.985 309.354 134.297 307.898L134.713 305.558ZM133.855 310.524C134.115 311.798 135.311 312.812 137.105 312.812C140.771 312.812 143.059 309.432 143.059 305.142C143.059 301.97 141.655 300.202 139.133 300.202C137.391 300.202 136.013 301.06 135.181 302.802L135.389 300.488H133.673L130.631 317.778H132.581L133.855 310.524Z" fill="#363C65"/>
<path d="M147.542 305.558C147.932 303.322 149.518 301.814 151.312 301.814C152.95 301.814 153.834 303.114 153.834 305.142C153.834 308.444 152.326 311.174 149.778 311.174C147.75 311.174 146.814 309.354 147.126 307.898L147.542 305.558ZM146.684 310.524C146.944 311.798 148.14 312.812 149.934 312.812C153.6 312.812 155.888 309.432 155.888 305.142C155.888 301.97 154.484 300.202 151.962 300.202C150.22 300.202 148.842 301.06 148.01 302.802L148.218 300.488H146.502L143.46 317.778H145.41L146.684 310.524Z" fill="#363C65"/>
<path d="M161.958 311.278C159.67 311.278 158.864 309.042 159.046 306.936H166.794C167.158 306.156 167.314 305.324 167.314 304.492C167.314 302.282 166.118 300.202 163.05 300.202C160.164 300.202 157.2 302.828 157.2 307.716C157.2 310.784 158.89 312.812 161.776 312.812C164.116 312.812 165.832 312.11 166.716 309.666L164.922 309.224C164.48 310.524 163.752 311.278 161.958 311.278ZM159.28 305.35C159.748 303.452 160.944 301.762 162.946 301.762C164.636 301.762 165.416 303.01 165.416 304.44C165.416 304.752 165.39 305.064 165.286 305.35H159.28Z" fill="#363C65"/>
<path d="M179.159 315.906H181.187L182.045 311.096H184.567L184.853 309.51H182.305L183.969 299.994H181.889L172.867 309.796L172.633 311.096H180.017L179.159 315.906ZM177.287 309.51C175.623 309.51 175.181 309.588 175.181 309.588V309.484C175.181 309.484 175.831 308.99 176.871 307.794L179.341 305.012C180.849 303.296 181.551 302.334 181.551 302.334H181.655C181.655 302.334 181.317 303.478 180.979 305.454L180.277 309.51H177.287Z" fill="#363C65"/>
<path d="M99.9606 343.499H103.611L98.2356 328.774H94.0356L88.7106 343.499H92.2606L93.3106 340.424H98.8856L99.9606 343.499ZM94.8356 335.924C95.6606 333.549 96.0356 331.749 96.0356 331.749H96.1356C96.1356 331.749 96.4356 333.524 97.2856 335.949L97.8856 337.599H94.2606L94.8356 335.924Z" fill="#363C65"/>
<path d="M107.791 331.949H104.941V343.499H108.291V337.149C108.291 335.074 109.316 334.474 110.391 334.474C111.591 334.474 111.941 335.299 111.941 336.574V343.499H115.291V335.324C115.291 332.724 113.666 331.674 111.891 331.674C110.116 331.674 108.816 332.449 108.191 334.174L107.791 331.949Z" fill="#363C65"/>
<path d="M120.67 331.949H117.82V343.499H121.17V337.149C121.17 335.074 122.195 334.474 123.27 334.474C124.47 334.474 124.82 335.299 124.82 336.574V343.499H128.17V335.324C128.17 332.724 126.545 331.674 124.77 331.674C122.995 331.674 121.695 332.449 121.07 334.174L120.67 331.949Z" fill="#363C65"/>
<path d="M136.349 339.874C136.349 340.999 135.324 341.424 134.449 341.424C133.649 341.424 133.174 340.949 133.174 340.274C133.174 339.249 133.999 338.624 136.349 338.699V339.874ZM139.649 335.499C139.649 332.924 137.999 331.674 135.124 331.674C132.474 331.674 130.399 332.824 130.224 335.274L133.549 335.899C133.599 334.824 134.074 334.199 134.999 334.199C135.924 334.199 136.349 334.799 136.349 335.799V336.899C131.899 336.649 129.824 338.049 129.824 340.624C129.824 342.599 131.174 343.799 133.224 343.799C134.799 343.799 136.049 343.324 136.574 341.899C136.949 343.149 137.849 343.724 139.324 343.724C140.124 343.724 140.749 343.599 141.224 343.299V340.874C140.999 340.974 140.774 341.049 140.499 341.049C139.974 341.049 139.649 340.774 139.649 339.999V335.499Z" fill="#363C65"/>
<path d="M146.073 326.799H142.723V343.499H146.073V337.124C146.073 335.074 147.098 334.474 148.173 334.474C149.373 334.474 149.723 335.299 149.723 336.574V343.499H153.073V335.324C153.073 332.724 151.448 331.674 149.673 331.674C147.898 331.674 146.673 332.449 146.073 334.149V326.799Z" fill="#363C65"/>
<path d="M165.452 334.199C165.152 332.274 163.877 331.674 162.402 331.674C160.702 331.674 159.477 332.424 158.852 334.174L158.452 331.949H155.602V343.499H158.952V337.149C158.952 335.124 159.802 334.474 160.852 334.474C162.052 334.474 162.377 335.299 162.377 336.574V343.499H165.727V337.124C165.727 335.124 166.602 334.474 167.627 334.474C168.802 334.474 169.152 335.299 169.152 336.574V343.499H172.502V335.299C172.502 332.724 171.077 331.674 169.202 331.674C167.477 331.674 166.077 332.474 165.452 334.199Z" fill="#363C65"/>
<path d="M179.924 341.224C178.399 341.224 177.574 340.074 177.499 338.299H184.624C184.724 337.824 184.774 337.299 184.774 336.799C184.774 333.824 183.174 331.674 179.899 331.674C176.424 331.674 174.274 333.924 174.274 337.899C174.274 341.624 176.549 343.799 179.849 343.799C182.124 343.799 184.199 342.974 184.799 340.624L181.949 339.649C181.574 340.874 180.824 341.224 179.924 341.224ZM177.599 336.449C177.724 335.099 178.524 334.149 179.774 334.149C180.974 334.149 181.599 334.974 181.599 336.049C181.599 336.199 181.599 336.299 181.574 336.449H177.599Z" fill="#363C65"/>
<path d="M189.581 331.949H186.731V343.499H190.081V337.149C190.081 335.074 191.106 334.474 192.181 334.474C193.381 334.474 193.731 335.299 193.731 336.574V343.499H197.081V335.324C197.081 332.724 195.456 331.674 193.681 331.674C191.906 331.674 190.606 332.449 189.981 334.174L189.581 331.949Z" fill="#363C65"/>
<path d="M84.8031 357.799H81.4531V374.499H84.8031V368.124C84.8031 366.074 85.8281 365.474 86.9031 365.474C88.1031 365.474 88.4531 366.299 88.4531 367.574V374.499H91.8031V366.324C91.8031 363.724 90.1781 362.674 88.4031 362.674C86.6281 362.674 85.4031 363.449 84.8031 365.149V357.799Z" fill="#363C65"/>
<path d="M93.982 359.424C93.982 360.649 94.882 361.324 96.007 361.324C97.182 361.324 98.082 360.649 98.082 359.424C98.082 358.149 97.182 357.474 96.007 357.474C94.882 357.474 93.982 358.149 93.982 359.424ZM94.332 362.949V374.499H97.682V362.949H94.332Z" fill="#363C65"/>
<path d="M103.176 362.949H100.326V374.499H103.676V368.149C103.676 366.074 104.701 365.474 105.776 365.474C106.976 365.474 107.326 366.299 107.326 367.574V374.499H110.676V366.324C110.676 363.724 109.051 362.674 107.276 362.674C105.501 362.674 104.201 363.449 103.576 365.174L103.176 362.949Z" fill="#363C65"/>
<path d="M120.33 371.224C119.655 371.699 119.03 371.949 118.305 371.949C117.38 371.949 116.905 371.549 116.905 370.324V365.524H120.355V362.949H116.93V360.099L113.58 360.499V362.949H111.88V365.524H113.555V371.074C113.555 373.724 115.055 374.799 117.355 374.799C118.73 374.799 119.93 374.549 120.905 374.049L120.33 371.224Z" fill="#363C65"/>
<path d="M127.127 372.224C125.602 372.224 124.777 371.074 124.702 369.299H131.827C131.927 368.824 131.977 368.299 131.977 367.799C131.977 364.824 130.377 362.674 127.102 362.674C123.627 362.674 121.477 364.924 121.477 368.899C121.477 372.624 123.752 374.799 127.052 374.799C129.327 374.799 131.402 373.974 132.002 371.624L129.152 370.649C128.777 371.874 128.027 372.224 127.127 372.224ZM124.802 367.449C124.927 366.099 125.727 365.149 126.977 365.149C128.177 365.149 128.802 365.974 128.802 367.049C128.802 367.199 128.802 367.299 128.777 367.449H124.802Z" fill="#363C65"/>
<path d="M141.909 362.699C138.859 362.524 137.734 364.124 137.234 366.124L136.834 362.949H133.934V374.499H137.284V369.224C137.284 366.849 138.909 366.199 140.234 366.199C140.759 366.199 141.109 366.249 141.534 366.399L141.909 362.699Z" fill="#363C65"/>
<path d="M143.672 365.524V374.499H146.997V365.524H149.947V362.949H146.997V362.199C146.997 360.799 147.672 360.424 148.647 360.424C149.447 360.424 150.047 360.599 150.622 360.924L151.097 358.149C150.297 357.774 149.422 357.599 148.297 357.599C145.772 357.599 143.672 358.774 143.672 362.099V362.949H141.972V365.524H143.672Z" fill="#363C65"/>
<path d="M158.731 362.699C155.681 362.524 154.556 364.124 154.056 366.124L153.656 362.949H150.756V374.499H154.106V369.224C154.106 366.849 155.731 366.199 157.056 366.199C157.581 366.199 157.931 366.249 158.356 366.399L158.731 362.699Z" fill="#363C65"/>
<path d="M165.671 370.874C165.671 371.999 164.646 372.424 163.771 372.424C162.971 372.424 162.496 371.949 162.496 371.274C162.496 370.249 163.321 369.624 165.671 369.699V370.874ZM168.971 366.499C168.971 363.924 167.321 362.674 164.446 362.674C161.796 362.674 159.721 363.824 159.546 366.274L162.871 366.899C162.921 365.824 163.396 365.199 164.321 365.199C165.246 365.199 165.671 365.799 165.671 366.799V367.899C161.221 367.649 159.146 369.049 159.146 371.624C159.146 373.599 160.496 374.799 162.546 374.799C164.121 374.799 165.371 374.324 165.896 372.899C166.271 374.149 167.171 374.724 168.646 374.724C169.446 374.724 170.071 374.599 170.546 374.299V371.874C170.321 371.974 170.096 372.049 169.821 372.049C169.296 372.049 168.971 371.774 168.971 370.999V366.499Z" fill="#363C65"/>
<path d="M176.471 362.674C173.396 362.674 171.346 364.074 171.346 366.749C171.346 368.599 172.171 369.599 173.746 370.224C172.396 370.599 171.796 371.599 171.796 372.499C171.796 373.524 172.521 374.474 173.671 374.549C171.596 374.699 170.621 375.524 170.621 376.874C170.621 379.099 173.171 379.774 176.021 379.774C179.321 379.774 182.721 378.924 182.721 375.624C182.721 373.624 181.246 372.224 178.646 372.224H175.346C174.746 372.224 174.421 371.924 174.421 371.524C174.421 371.149 174.571 370.824 174.971 370.574C175.246 370.674 175.821 370.724 176.371 370.724C179.321 370.724 181.671 369.424 181.671 366.749C181.671 365.949 181.496 365.249 181.146 364.699C182.096 364.424 183.121 363.649 183.246 362.524L180.621 361.649C180.371 362.574 180.246 362.899 179.746 363.399C178.896 362.924 177.771 362.674 176.471 362.674ZM173.696 376.224C173.696 375.549 174.371 375.224 175.321 375.224H178.171C179.171 375.224 179.596 375.499 179.596 376.199C179.596 377.124 178.721 377.549 176.396 377.549C174.621 377.549 173.696 377.124 173.696 376.224ZM174.721 366.749C174.721 365.599 175.296 364.974 176.471 364.949C177.621 364.949 178.246 365.524 178.246 366.749C178.246 367.899 177.621 368.524 176.471 368.524C175.296 368.524 174.721 367.774 174.721 366.749Z" fill="#363C65"/>
<path d="M188.506 372.224C186.981 372.224 186.156 371.074 186.081 369.299H193.206C193.306 368.824 193.356 368.299 193.356 367.799C193.356 364.824 191.756 362.674 188.481 362.674C185.006 362.674 182.856 364.924 182.856 368.899C182.856 372.624 185.131 374.799 188.431 374.799C190.706 374.799 192.781 373.974 193.381 371.624L190.531 370.649C190.156 371.874 189.406 372.224 188.506 372.224ZM186.181 367.449C186.306 366.099 187.106 365.149 188.356 365.149C189.556 365.149 190.181 365.974 190.181 367.049C190.181 367.199 190.181 367.299 190.156 367.449H186.181Z" fill="#363C65"/>
<path d="M198.163 362.949H195.313V374.499H198.663V368.149C198.663 366.074 199.688 365.474 200.763 365.474C201.963 365.474 202.313 366.299 202.313 367.574V374.499H205.663V366.324C205.663 363.724 204.038 362.674 202.263 362.674C200.488 362.674 199.188 363.449 198.563 365.174L198.163 362.949Z" fill="#363C65"/>
<path d="M307.461 497.732H300.389L301.273 492.74H307.539L307.851 490.972H301.585L302.469 485.954H309.541L309.853 484.186H300.701L298.023 499.5H307.175L307.461 497.732Z" fill="#363C65"/>
<path d="M315.17 497.55C314.338 498.018 313.844 498.148 313.116 498.148C312.414 498.148 311.868 497.654 312.102 496.38L313.402 489.074H316.522L316.808 487.488H313.662L314.156 484.68L312.154 484.966L311.712 487.488H310.022L309.736 489.074H311.4L310.152 496.172C309.684 498.72 310.776 499.812 312.804 499.812C313.506 499.812 314.442 499.63 315.17 499.214V497.55Z" fill="#363C65"/>
<path d="M324.887 494.482C324.497 496.77 323.197 498.174 321.377 498.174C319.609 498.174 318.725 496.692 318.725 494.664C318.725 491.232 320.493 488.762 322.885 488.762C324.809 488.762 325.563 490.634 325.251 492.454L324.887 494.482ZM328.111 487.488H326.473L325.823 489.516C325.511 487.93 324.367 487.202 322.703 487.202C319.167 487.202 316.801 490.79 316.801 494.898C316.801 498.07 318.517 499.812 320.831 499.812C322.339 499.812 323.769 499.136 324.497 497.498C324.393 498.876 325.069 499.63 326.369 499.63C326.811 499.63 327.253 499.552 327.617 499.422L327.877 497.992C327.565 498.07 327.331 498.096 327.123 498.096C326.369 498.096 326.343 497.524 326.447 496.926L328.111 487.488Z" fill="#363C65"/>
<path d="M332.853 492.558C333.243 490.322 334.829 488.814 336.623 488.814C338.261 488.814 339.145 490.114 339.145 492.142C339.145 495.444 337.637 498.174 335.089 498.174C333.061 498.174 332.125 496.354 332.437 494.898L332.853 492.558ZM331.995 497.524C332.255 498.798 333.451 499.812 335.245 499.812C338.911 499.812 341.199 496.432 341.199 492.142C341.199 488.97 339.795 487.202 337.273 487.202C335.531 487.202 334.153 488.06 333.321 489.802L333.529 487.488H331.813L328.771 504.778H330.721L331.995 497.524Z" fill="#363C65"/>
<path d="M345.683 492.558C346.073 490.322 347.659 488.814 349.453 488.814C351.091 488.814 351.975 490.114 351.975 492.142C351.975 495.444 350.467 498.174 347.919 498.174C345.891 498.174 344.955 496.354 345.267 494.898L345.683 492.558ZM344.825 497.524C345.085 498.798 346.281 499.812 348.075 499.812C351.741 499.812 354.029 496.432 354.029 492.142C354.029 488.97 352.625 487.202 350.103 487.202C348.361 487.202 346.983 488.06 346.151 489.802L346.359 487.488H344.643L341.601 504.778H343.551L344.825 497.524Z" fill="#363C65"/>
<path d="M360.098 498.278C357.81 498.278 357.004 496.042 357.186 493.936H364.934C365.298 493.156 365.454 492.324 365.454 491.492C365.454 489.282 364.258 487.202 361.19 487.202C358.304 487.202 355.34 489.828 355.34 494.716C355.34 497.784 357.03 499.812 359.916 499.812C362.256 499.812 363.972 499.11 364.856 496.666L363.062 496.224C362.62 497.524 361.892 498.278 360.098 498.278ZM357.42 492.35C357.888 490.452 359.084 488.762 361.086 488.762C362.776 488.762 363.556 490.01 363.556 491.44C363.556 491.752 363.53 492.064 363.426 492.35H357.42Z" fill="#363C65"/>
<path d="M375.74 494.612C378.834 494.586 380.966 493.052 380.966 490.166C380.966 487.774 379.146 486.682 376.78 486.682C373.92 486.682 372.49 488.19 372.074 490.322L373.92 490.738C374.206 489.23 375.038 488.294 376.624 488.294C378.002 488.294 378.938 488.996 378.938 490.348C378.938 492.376 377.482 493.468 373.92 493.832L373.686 495.418C376.962 495.756 377.716 497.03 377.716 498.616C377.716 500.54 376.364 501.554 374.622 501.554C372.828 501.554 371.762 500.722 371.762 499.058L369.864 499.448C369.864 501.554 371.372 503.088 374.388 503.088C377.196 503.088 379.744 501.684 379.744 498.46C379.744 496.302 378.47 494.924 375.74 494.69V494.612Z" fill="#363C65"/>
<path d="M276.709 522.9C278.309 522.5 279.359 521.35 279.359 519.475C279.359 517.15 277.759 515.775 274.784 515.775H268.734V530.5H274.759C278.359 530.5 279.959 528.9 279.959 526.475C279.959 524.625 278.834 523.275 276.709 523V522.9ZM272.134 521.925V518.65H274.009C275.259 518.65 275.984 519.075 275.984 520.3C275.984 521.475 275.234 521.925 274.084 521.925H272.134ZM272.134 524.4H274.534C275.859 524.4 276.534 524.95 276.534 525.975C276.534 527.225 275.809 527.625 274.534 527.625H272.134V524.4Z" fill="#363C65"/>
<path d="M286.949 527.625C286.649 527.75 286.349 527.8 286.049 527.8C285.449 527.8 284.999 527.525 284.999 526.8V513.8H281.649V527.775C281.649 529.95 283.174 530.725 284.849 530.725C285.499 530.725 286.124 530.6 286.774 530.425L286.949 527.625Z" fill="#363C65"/>
<path d="M288.25 515.425C288.25 516.65 289.15 517.325 290.275 517.325C291.45 517.325 292.35 516.65 292.35 515.425C292.35 514.15 291.45 513.475 290.275 513.475C289.15 513.475 288.25 514.15 288.25 515.425ZM288.6 518.95V530.5H291.95V518.95H288.6Z" fill="#363C65"/>
<path d="M297.444 518.95H294.594V530.5H297.944V524.15C297.944 522.075 298.969 521.475 300.044 521.475C301.244 521.475 301.594 522.3 301.594 523.575V530.5H304.944V522.325C304.944 519.725 303.319 518.675 301.544 518.675C299.769 518.675 298.469 519.45 297.844 521.175L297.444 518.95Z" fill="#363C65"/>
<path d="M314.923 525.7C314.923 527.375 313.773 528.225 312.623 528.225C311.048 528.225 310.073 527 310.073 524.825C310.073 522.1 311.348 521.15 312.673 521.15C313.823 521.15 314.923 521.85 314.923 523.55V525.7ZM314.898 520.475C314.598 519.375 313.348 518.675 311.873 518.675C308.573 518.675 306.723 521.025 306.723 524.975C306.723 528.775 308.773 530.8 311.323 530.8C313.048 530.8 314.498 530.25 314.923 528.5L315.348 530.5H318.248V513.8H314.898V520.475Z" fill="#363C65"/>
<path d="M325.789 528.225C324.264 528.225 323.439 527.075 323.364 525.3H330.489C330.589 524.825 330.639 524.3 330.639 523.8C330.639 520.825 329.039 518.675 325.764 518.675C322.289 518.675 320.139 520.925 320.139 524.9C320.139 528.625 322.414 530.8 325.714 530.8C327.989 530.8 330.064 529.975 330.664 527.625L327.814 526.65C327.439 527.875 326.689 528.225 325.789 528.225ZM323.464 523.45C323.589 522.1 324.389 521.15 325.639 521.15C326.839 521.15 327.464 521.975 327.464 523.05C327.464 523.2 327.464 523.3 327.439 523.45H323.464Z" fill="#363C65"/>
<path d="M341.364 530.5V525.075H346.789V522.25H341.364V518.725H347.564V515.775H337.964V530.5H341.364Z" fill="#363C65"/>
<path d="M354.567 527.625C354.267 527.75 353.967 527.8 353.667 527.8C353.067 527.8 352.617 527.525 352.617 526.8V513.8H349.267V527.775C349.267 529.95 350.792 530.725 352.467 530.725C353.117 530.725 353.742 530.6 354.392 530.425L354.567 527.625Z" fill="#363C65"/>
<path d="M360.874 528.225C359.349 528.225 358.524 527.075 358.449 525.3H365.574C365.674 524.825 365.724 524.3 365.724 523.8C365.724 520.825 364.124 518.675 360.849 518.675C357.374 518.675 355.224 520.925 355.224 524.9C355.224 528.625 357.499 530.8 360.799 530.8C363.074 530.8 365.149 529.975 365.749 527.625L362.899 526.65C362.524 527.875 361.774 528.225 360.874 528.225ZM358.549 523.45C358.674 522.1 359.474 521.15 360.724 521.15C361.924 521.15 362.549 521.975 362.549 523.05C362.549 523.2 362.549 523.3 362.524 523.45H358.549Z" fill="#363C65"/>
<path d="M374.431 526.45C374.131 527.775 373.456 528.225 372.556 528.225C371.056 528.225 370.181 526.925 370.181 524.725C370.181 522.625 371.006 521.3 372.506 521.3C373.631 521.3 374.206 522.025 374.381 523.25L377.206 522.475C377.031 520.15 375.281 518.675 372.531 518.675C369.156 518.675 366.931 520.925 366.931 524.775C366.931 528.625 369.156 530.8 372.506 530.8C374.956 530.8 376.956 529.725 377.381 527.4L374.431 526.45Z" fill="#363C65"/>
<path d="M385.724 524.325L389.724 518.95H385.849L382.899 523.15H382.274V513.8H378.924V530.5H382.274V525.75H382.949L386.199 530.5H390.099L385.724 524.325Z" fill="#363C65"/>
<path d="M395.58 528.225C394.055 528.225 393.23 527.075 393.155 525.3H400.28C400.38 524.825 400.43 524.3 400.43 523.8C400.43 520.825 398.83 518.675 395.555 518.675C392.08 518.675 389.93 520.925 389.93 524.9C389.93 528.625 392.205 530.8 395.505 530.8C397.78 530.8 399.855 529.975 400.455 527.625L397.605 526.65C397.23 527.875 396.48 528.225 395.58 528.225ZM393.255 523.45C393.38 522.1 394.18 521.15 395.43 521.15C396.63 521.15 397.255 521.975 397.255 523.05C397.255 523.2 397.255 523.3 397.23 523.45H393.255Z" fill="#363C65"/>
<path d="M405.237 518.95H402.387V530.5H405.737V524.15C405.737 522.075 406.762 521.475 407.837 521.475C409.037 521.475 409.387 522.3 409.387 523.575V530.5H412.737V522.325C412.737 519.725 411.112 518.675 409.337 518.675C407.562 518.675 406.262 519.45 405.637 521.175L405.237 518.95Z" fill="#363C65"/>
<path d="M295.099 557.875C295.099 559 294.074 559.425 293.199 559.425C292.399 559.425 291.924 558.95 291.924 558.275C291.924 557.25 292.749 556.625 295.099 556.7V557.875ZM298.399 553.5C298.399 550.925 296.749 549.675 293.874 549.675C291.224 549.675 289.149 550.825 288.974 553.275L292.299 553.9C292.349 552.825 292.824 552.2 293.749 552.2C294.674 552.2 295.099 552.8 295.099 553.8V554.9C290.649 554.65 288.574 556.05 288.574 558.625C288.574 560.6 289.924 561.8 291.974 561.8C293.549 561.8 294.799 561.325 295.324 559.9C295.699 561.15 296.599 561.725 298.074 561.725C298.874 561.725 299.499 561.6 299.974 561.3V558.875C299.749 558.975 299.524 559.05 299.249 559.05C298.724 559.05 298.399 558.775 298.399 558V553.5Z" fill="#363C65"/>
<path d="M308.454 561.5H311.354V549.95H308.004V556.15C308.004 558.375 307.079 559.275 305.929 559.275C304.779 559.275 304.354 558.5 304.354 557.125V549.95H301.004V558.075C301.004 560.75 302.429 561.8 304.479 561.8C306.604 561.8 307.654 560.925 308.054 559.35L308.454 561.5Z" fill="#363C65"/>
<path d="M314.41 552.525V561.5H317.735V552.525H320.685V549.95H317.735V549.2C317.735 547.8 318.41 547.425 319.385 547.425C320.185 547.425 320.785 547.6 321.36 547.925L321.835 545.15C321.035 544.775 320.16 544.6 319.035 544.6C316.51 544.6 314.41 545.775 314.41 549.1V549.95H312.71V552.525H314.41Z" fill="#363C65"/>
<path d="M328.944 556.7C328.944 558.375 327.794 559.225 326.644 559.225C325.069 559.225 324.094 558 324.094 555.825C324.094 553.1 325.369 552.15 326.694 552.15C327.844 552.15 328.944 552.85 328.944 554.55V556.7ZM328.919 551.475C328.619 550.375 327.369 549.675 325.894 549.675C322.594 549.675 320.744 552.025 320.744 555.975C320.744 559.775 322.794 561.8 325.344 561.8C327.069 561.8 328.519 561.25 328.944 559.5L329.369 561.5H332.269V544.8H328.919V551.475Z" fill="#363C65"/>
<path d="M339.81 559.225C338.285 559.225 337.46 558.075 337.385 556.3H344.51C344.61 555.825 344.66 555.3 344.66 554.8C344.66 551.825 343.06 549.675 339.785 549.675C336.31 549.675 334.16 551.925 334.16 555.9C334.16 559.625 336.435 561.8 339.735 561.8C342.01 561.8 344.085 560.975 344.685 558.625L341.835 557.65C341.46 558.875 340.71 559.225 339.81 559.225ZM337.485 554.45C337.61 553.1 338.41 552.15 339.66 552.15C340.86 552.15 341.485 552.975 341.485 554.05C341.485 554.2 341.485 554.3 341.46 554.45H337.485Z" fill="#363C65"/>
<path d="M353.367 557.45C353.067 558.775 352.392 559.225 351.492 559.225C349.992 559.225 349.117 557.925 349.117 555.725C349.117 553.625 349.942 552.3 351.442 552.3C352.567 552.3 353.142 553.025 353.317 554.25L356.142 553.475C355.967 551.15 354.217 549.675 351.467 549.675C348.092 549.675 345.867 551.925 345.867 555.775C345.867 559.625 348.092 561.8 351.442 561.8C353.892 561.8 355.892 560.725 356.317 558.4L353.367 557.45Z" fill="#363C65"/>
<path d="M364.66 555.325L368.66 549.95H364.785L361.835 554.15H361.21V544.8H357.86V561.5H361.21V556.75H361.885L365.135 561.5H369.035L364.66 555.325Z" fill="#363C65"/>
<path d="M374.516 559.225C372.991 559.225 372.166 558.075 372.091 556.3H379.216C379.316 555.825 379.366 555.3 379.366 554.8C379.366 551.825 377.766 549.675 374.491 549.675C371.016 549.675 368.866 551.925 368.866 555.9C368.866 559.625 371.141 561.8 374.441 561.8C376.716 561.8 378.791 560.975 379.391 558.625L376.541 557.65C376.166 558.875 375.416 559.225 374.516 559.225ZM372.191 554.45C372.316 553.1 373.116 552.15 374.366 552.15C375.566 552.15 376.191 552.975 376.191 554.05C376.191 554.2 376.191 554.3 376.166 554.45H372.191Z" fill="#363C65"/>
<path d="M384.173 549.95H381.323V561.5H384.673V555.15C384.673 553.075 385.698 552.475 386.773 552.475C387.973 552.475 388.323 553.3 388.323 554.575V561.5H391.673V553.325C391.673 550.725 390.048 549.675 388.273 549.675C386.498 549.675 385.198 550.45 384.573 552.175L384.173 549.95Z" fill="#363C65"/>
<path d="M4.24107 339.498L339 4.24578L673.759 339.498L339 674.257L4.24107 339.498Z" stroke="#FBF0F3" stroke-width="6"/>
</svg>
