<?xml version="1.0" encoding="UTF-8"?><svg xmlns="http://www.w3.org/2000/svg" viewBox="0 0 433.62 436.6"><g id="c"><rect x="108.55" y="143.7" width="67.52" height="44" style="fill:none; stroke:#8e9ace;"/><rect x="250.49" y="143.7" width="67.52" height="44" style="fill:none; stroke:#8e9ace;"/><rect x="328.8" y="143.7" width="67.52" height="44" style="fill:none; stroke:#8e9ace;"/><rect x="260.28" y="83.7" width="57.73" height="44" style="fill:none; stroke:#8e9ace;"/><rect x="328.8" y="83.7" width="57.73" height="44" style="fill:none; stroke:#8e9ace;"/><rect x="40.03" y="83.7" width="57.73" height="44" style="fill:none; stroke:#8e9ace;"/><rect x="108.55" y="83.7" width="57.73" height="44" style="fill:none; stroke:#8e9ace;"/><rect x="299.43" y="23.7" width="47.94" height="44" style="fill:none; stroke:#8e9ace;"/><rect x="79.19" y="23.7" width="47.94" height="44" style="fill:none; stroke:#8e9ace;"/><rect x="30.24" y="143.7" width="67.52" height="44" style="fill:none; stroke:#8e9ace;"/><rect x="30.24" y="248.85" width="67.52" height="44" style="fill:none; stroke:#fac9d0;"/><rect x="108.55" y="248.85" width="67.52" height="44" style="fill:none; stroke:#fac9d0;"/><rect x="79.19" y="368.85" width="47.94" height="44" style="fill:none; stroke:#fac9d0;"/><rect x="250.49" y="248.85" width="67.52" height="44" style="fill:none; stroke:#fac9d0;"/><rect x="40.03" y="308.85" width="57.73" height="44" style="fill:none; stroke:#fac9d0;"/><rect x="108.55" y="308.85" width="57.73" height="44" style="fill:none; stroke:#fac9d0;"/><rect x="260.28" y="308.85" width="57.73" height="44" style="fill:none; stroke:#fac9d0;"/><rect x="328.8" y="308.85" width="57.73" height="44" style="fill:none; stroke:#fac9d0;"/><rect x="328.8" y="248.85" width="67.52" height="44" style="fill:none; stroke:#fac9d0;"/><rect x="299.43" y="368.85" width="47.94" height="44" style="fill:none; stroke:#fac9d0;"/></g><g id="d"><line x1="68.29" y1="83.75" x2="90.29" y2="63.59" style="fill:none; stroke:#32406d;"/><polygon points="92.79 61.3 87.4 61.26 92.36 66.68 92.79 61.3" style="fill:#32406d;"/><line x1="137.94" y1="83.74" x2="116.11" y2="63.04" style="fill:none; stroke:#32406d;"/><polygon points="113.64 60.7 113.98 66.09 119.04 60.75 113.64 60.7" style="fill:#32406d;"/><line x1="68.9" y1="143.35" x2="68.9" y2="124.69" style="fill:none; stroke:#32406d;"/><polygon points="68.9 121.29 72.57 125.25 65.22 125.25 68.9 121.29" style="fill:#32406d;"/><line x1="137.42" y1="143.35" x2="137.42" y2="124.69" style="fill:none; stroke:#32406d;"/><polygon points="137.42 121.29 141.09 125.25 133.75 125.25 137.42 121.29" style="fill:#32406d;"/><line x1="137.42" y1="143.35" x2="137.42" y2="124.69" style="fill:none; stroke:#32406d;"/><polygon points="137.42 121.29 141.09 125.25 133.75 125.25 137.42 121.29" style="fill:#32406d;"/><line x1="288.54" y1="83.75" x2="310.53" y2="63.59" style="fill:none; stroke:#32406d;"/><polygon points="313.04 61.3 307.64 61.26 312.61 66.68 313.04 61.3" style="fill:#32406d;"/><line x1="358.19" y1="83.74" x2="336.36" y2="63.04" style="fill:none; stroke:#32406d;"/><polygon points="333.89 60.7 334.23 66.09 339.29 60.75 333.89 60.7" style="fill:#32406d;"/><line x1="289.15" y1="143.35" x2="289.15" y2="124.69" style="fill:none; stroke:#32406d;"/><polygon points="289.15 121.29 292.82 125.25 285.47 125.25 289.15 121.29" style="fill:#32406d;"/><line x1="357.67" y1="143.35" x2="357.67" y2="124.69" style="fill:none; stroke:#32406d;"/><polygon points="357.67 121.29 361.34 125.25 353.99 125.25 357.67 121.29" style="fill:#32406d;"/><line x1="357.67" y1="143.35" x2="357.67" y2="124.69" style="fill:none; stroke:#32406d;"/><polygon points="357.67 121.29 361.34 125.25 353.99 125.25 357.67 121.29" style="fill:#32406d;"/><g><path d="m195.51,215.33c-.37.49-.65.73-.65.73v.04s.29-.05.78-.05h2.09v1.3h-4.66v-1.12l2.03-2.75c.36-.49.65-.73.65-.73v-.04s-.29.05-.78.05h-1.85v-1.3h4.5v1.06l-2.11,2.81Z" style="fill:#32406d;"/><path d="m201.34,215.75l1.26.45c-.26.93-1.11,1.27-2.02,1.27-1.35,0-2.29-.87-2.29-2.35,0-1.6.87-2.5,2.3-2.5,1.34,0,1.99.87,1.99,2.07,0,.19-.02.39-.06.6h-2.8c.02.64.32,1.04.88,1.04.31,0,.59-.11.74-.58Zm-.18-1.24s0-.09,0-.14c0-.38-.2-.66-.63-.66s-.74.35-.78.8h1.4Z" style="fill:#32406d;"/><path d="m204.96,213.62c.25-.69.77-1,1.48-1s1.34.42,1.34,1.47v3.26h-1.48v-2.68c0-.49-.1-.81-.56-.81-.38,0-.76.22-.76.99v2.5h-1.48v-4.62h1.28l.18.89Z" style="fill:#32406d;"/><path d="m212.2,217.16c-.42.21-.92.31-1.52.31-.94,0-1.58-.43-1.58-1.55v-2.05h-.67v-1.14h.68v-.98l1.48-.17v1.15h1.37v1.14h-1.38v1.71c0,.48.19.63.55.63.29,0,.55-.11.82-.3l.25,1.25Z" style="fill:#32406d;"/><path d="m216.14,214.26c-.19-.06-.33-.09-.56-.09-.48,0-1.15.18-1.15,1.14v2.04h-1.48v-4.62h1.29l.18,1.28c.2-.8.62-1.46,1.9-1.38l-.18,1.63Z" style="fill:#32406d;"/><path d="m220.72,215.85c0,.3.12.42.33.42.11,0,.21-.04.3-.08v1.06c-.21.14-.49.19-.84.19-.61,0-.98-.22-1.15-.72-.21.57-.69.75-1.34.75-.82,0-1.35-.48-1.35-1.28,0-1.03.84-1.58,2.58-1.48v-.39c0-.35-.11-.59-.44-.59s-.47.25-.49.65l-1.49-.28c.07-.98.89-1.48,2.02-1.48,1.24,0,1.87.54,1.87,1.56v1.67Zm-1.47-.37c-.84-.03-1.1.21-1.1.56,0,.23.17.39.44.39.3,0,.66-.13.66-.55v-.4Z" style="fill:#32406d;"/><path d="m224.2,217.31c-.27.08-.56.14-.84.14-.7,0-1.36-.32-1.36-1.24v-5.54h1.48v5.08c0,.29.19.39.43.39.11,0,.25-.02.37-.07l-.08,1.24Z" style="fill:#32406d;"/><path d="m227.74,215.75l1.26.45c-.26.93-1.11,1.27-2.02,1.27-1.35,0-2.29-.87-2.29-2.35,0-1.6.87-2.5,2.3-2.5,1.34,0,1.99.87,1.99,2.07,0,.19-.02.39-.06.6h-2.8c.02.64.32,1.04.88,1.04.31,0,.59-.11.74-.58Zm-.18-1.24s0-.09,0-.14c0-.38-.2-.66-.63-.66s-.74.35-.78.8h1.4Z" style="fill:#32406d;"/><path d="m230.65,215.76c.11.49.46.67.86.67.32,0,.54-.11.54-.32,0-.23-.18-.32-.55-.41l-.68-.16c-.8-.21-1.19-.67-1.19-1.39,0-1.2.96-1.53,1.94-1.53,1.14,0,1.82.41,1.88,1.32l-1.38.2c-.05-.34-.24-.43-.57-.43-.24,0-.42.11-.42.3s.14.3.39.35l.66.13c.98.2,1.4.75,1.4,1.52,0,1.05-.87,1.46-2.03,1.46s-1.86-.32-2.05-1.2l1.2-.51Z" style="fill:#32406d;"/></g><g><path d="m195.33,229.35v-5.89h2.21c1.53,0,2.16.7,2.16,2.05,0,1.28-.76,2.03-2.02,2.03h-.85v1.81h-1.5Zm1.5-3.04h.65c.51,0,.74-.24.74-.75,0-.58-.22-.84-.73-.84h-.66v1.59Z" style="fill:#32406d;"/><path d="m203.79,226.26c-.19-.06-.33-.09-.56-.09-.48,0-1.15.18-1.15,1.14v2.04h-1.48v-4.62h1.29l.18,1.28c.2-.8.62-1.46,1.9-1.38l-.18,1.63Z" style="fill:#32406d;"/><path d="m204.27,227.03c0-1.57.91-2.41,2.28-2.41s2.28.84,2.28,2.41-.91,2.44-2.28,2.44-2.28-.88-2.28-2.44Zm1.46,0c0,.89.26,1.28.82,1.28s.82-.39.82-1.28c0-.84-.27-1.24-.82-1.24s-.82.4-.82,1.24Z" style="fill:#32406d;"/><path d="m210.78,229.35h-1.05v-6.68h1.48v2.91c.26-.7.84-.96,1.5-.96,1.13,0,1.77.85,1.77,2.31,0,1.55-.72,2.54-1.97,2.54-.79,0-1.23-.35-1.36-.79l-.37.67Zm.42-1.93c0,.76.45.99.81.99.53,0,.98-.44.98-1.35s-.35-1.26-.9-1.26c-.43,0-.89.36-.89,1.01v.61Z" style="fill:#32406d;"/><path d="m217.48,229.31c-.27.08-.56.14-.84.14-.7,0-1.36-.32-1.36-1.24v-5.54h1.48v5.08c0,.29.19.39.43.39.11,0,.25-.02.37-.07l-.08,1.24Z" style="fill:#32406d;"/><path d="m221.02,227.75l1.26.45c-.26.93-1.11,1.27-2.02,1.27-1.35,0-2.29-.87-2.29-2.35,0-1.6.87-2.5,2.3-2.5,1.34,0,1.99.87,1.99,2.07,0,.19-.02.39-.06.6h-2.8c.02.64.32,1.04.88,1.04.31,0,.59-.11.74-.58Zm-.18-1.24s0-.09,0-.14c0-.38-.2-.66-.63-.66s-.74.35-.78.8h1.4Z" style="fill:#32406d;"/><path d="m228.77,224.62c.75,0,1.31.42,1.31,1.47v3.26h-1.48v-2.68c0-.49-.11-.81-.56-.81-.38,0-.67.21-.67.98v2.51h-1.48v-2.68c0-.49-.1-.81-.56-.81-.38,0-.67.22-.67.99v2.5h-1.48v-4.62h1.28l.18.89c.25-.69.71-1,1.42-1,.56,0,1.08.23,1.2,1.01.25-.68.8-1.01,1.51-1.01Z" style="fill:#32406d;"/><path d="m232.08,224.67c.54,0,.94.4.94.94,0,.5-.4.9-.94.9-.5,0-.9-.4-.9-.9,0-.54.4-.94.9-.94Zm0,2.89c.54,0,.94.4.94.94,0,.5-.4.9-.94.9-.5,0-.9-.4-.9-.9,0-.54.4-.94.9-.94Z" style="fill:#32406d;"/></g><polyline points="187.06 220.3 68.89 220.3 68.89 252.03" style="fill:none; stroke:#32406d;"/><polygon points="68.89 255.43 72.56 251.47 65.21 251.47 68.89 255.43" style="fill:#32406d;"/><polyline points="239.5 220.3 357.68 220.3 357.68 252.03" style="fill:none; stroke:#32406d;"/><polygon points="357.68 255.43 354 251.47 361.35 251.47 357.68 255.43" style="fill:#32406d;"/><polyline points="239.5 224.35 289.16 224.35 289.16 252.58" style="fill:none; stroke:#32406d;"/><polygon points="289.16 255.97 285.49 252.02 292.84 252.02 289.16 255.97" style="fill:#32406d;"/><polyline points="187.06 224.35 137.4 224.35 137.4 252.58" style="fill:none; stroke:#32406d;"/><polygon points="137.4 255.97 141.08 252.02 133.73 252.02 137.4 255.97" style="fill:#32406d;"/><line x1="68.29" y1="352.79" x2="90.29" y2="372.95" style="fill:none; stroke:#32406d;"/><polygon points="92.79 375.24 92.36 369.86 87.4 375.28 92.79 375.24" style="fill:#32406d;"/><line x1="68.9" y1="293.35" x2="68.9" y2="312" style="fill:none; stroke:#32406d;"/><polygon points="68.9 315.4 72.57 311.45 65.22 311.45 68.9 315.4" style="fill:#32406d;"/><line x1="68.9" y1="293.35" x2="68.9" y2="312" style="fill:none; stroke:#32406d;"/><polygon points="68.9 315.4 72.57 311.45 65.22 311.45 68.9 315.4" style="fill:#32406d;"/><line x1="137.93" y1="352.79" x2="116.11" y2="373.51" style="fill:none; stroke:#32406d;"/><polygon points="113.65 375.84 119.04 375.79 113.98 370.46 113.65 375.84" style="fill:#32406d;"/><line x1="137.42" y1="293.35" x2="137.42" y2="312" style="fill:none; stroke:#32406d;"/><polygon points="137.42 315.4 141.09 311.45 133.75 311.45 137.42 315.4" style="fill:#32406d;"/><line x1="137.42" y1="293.35" x2="137.42" y2="312" style="fill:none; stroke:#32406d;"/><polygon points="137.42 315.4 141.09 311.45 133.75 311.45 137.42 315.4" style="fill:#32406d;"/><line x1="288.54" y1="352.79" x2="310.54" y2="372.95" style="fill:none; stroke:#32406d;"/><polygon points="313.04 375.24 312.61 369.86 307.64 375.28 313.04 375.24" style="fill:#32406d;"/><line x1="358.17" y1="352.79" x2="336.36" y2="373.51" style="fill:none; stroke:#32406d;"/><polygon points="333.89 375.84 339.29 375.79 334.23 370.46 333.89 375.84" style="fill:#32406d;"/><line x1="289.15" y1="293.35" x2="289.15" y2="312" style="fill:none; stroke:#32406d;"/><polygon points="289.15 315.4 292.82 311.45 285.47 311.45 289.15 315.4" style="fill:#32406d;"/><line x1="289.15" y1="293.35" x2="289.15" y2="312" style="fill:none; stroke:#32406d;"/><polygon points="289.15 315.4 292.82 311.45 285.47 311.45 289.15 315.4" style="fill:#32406d;"/><line x1="357.67" y1="293.35" x2="357.67" y2="312" style="fill:none; stroke:#32406d;"/><polygon points="357.67 315.4 361.34 311.45 353.99 311.45 357.67 315.4" style="fill:#32406d;"/><line x1="357.67" y1="293.35" x2="357.67" y2="312" style="fill:none; stroke:#32406d;"/><polygon points="357.67 315.4 361.34 311.45 353.99 311.45 357.67 315.4" style="fill:#32406d;"/><polyline points="187.06 216.23 68.89 216.23 68.89 184.5" style="fill:none; stroke:#32406d;"/><polygon points="68.89 181.1 72.56 185.05 65.21 185.05 68.89 181.1" style="fill:#32406d;"/><polyline points="239.5 216.23 357.68 216.23 357.68 184.5" style="fill:none; stroke:#32406d;"/><polygon points="357.68 181.1 354 185.05 361.35 185.05 357.68 181.1" style="fill:#32406d;"/><polyline points="239.5 212.73 289.16 212.73 289.16 184.5" style="fill:none; stroke:#32406d;"/><polygon points="289.16 181.1 285.49 185.05 292.84 185.05 289.16 181.1" style="fill:#32406d;"/><polyline points="187.06 212.73 137.4 212.73 137.4 184.5" style="fill:none; stroke:#32406d;"/><polygon points="137.4 181.1 141.08 185.05 133.73 185.05 137.4 181.1" style="fill:#32406d;"/><g><path d="m325.13,390.28h0c3.03,0,5.48,2.46,5.48,5.48v3.9h-10.96v-3.9c0-3.03,2.46-5.48,5.48-5.48Z" style="fill:#f6a7b5;"/><circle cx="325.13" cy="386.84" r="4.19" style="fill:#f6a7b5;"/><g><g><path d="m325.96,389.94c2.19.72,3.78,2.78,3.78,5.21v3.9h-10.96v-3.9c0-2.41,1.56-4.46,3.72-5.19" style="fill:none; stroke:#32406d; stroke-miterlimit:10;"/><circle cx="324.26" cy="386.23" r="4.19" style="fill:none; stroke:#32406d; stroke-miterlimit:10;"/></g><g><path d="m325.96,389.94c2.19.72,3.78,2.78,3.78,5.21v3.9h-10.96v-3.9c0-2.41,1.56-4.46,3.72-5.19" style="fill:none; stroke:#32406d; stroke-miterlimit:10;"/><circle cx="324.26" cy="386.23" r="4.19" style="fill:none; stroke:#32406d; stroke-miterlimit:10;"/></g></g></g><g><path d="m288.44,270.28h0c3.03,0,5.48,2.46,5.48,5.48v3.9h-10.96v-3.9c0-3.03,2.46-5.48,5.48-5.48Z" style="fill:#f6a7b5;"/><circle cx="288.44" cy="266.84" r="4.19" style="fill:#f6a7b5;"/><g><g><path d="m289.27,269.94c2.19.72,3.78,2.78,3.78,5.21v3.9h-10.96v-3.9c0-2.41,1.56-4.46,3.72-5.19" style="fill:none; stroke:#32406d; stroke-miterlimit:10;"/><circle cx="287.57" cy="266.23" r="4.19" style="fill:none; stroke:#32406d; stroke-miterlimit:10;"/></g><g><path d="m289.27,269.94c2.19.72,3.78,2.78,3.78,5.21v3.9h-10.96v-3.9c0-2.41,1.56-4.46,3.72-5.19" style="fill:none; stroke:#32406d; stroke-miterlimit:10;"/><circle cx="287.57" cy="266.23" r="4.19" style="fill:none; stroke:#32406d; stroke-miterlimit:10;"/></g></g></g><g><path d="m357.68,269.37h0c3.03,0,5.48,2.46,5.48,5.48v3.9h-10.96v-3.9c0-3.03,2.46-5.48,5.48-5.48Z" style="fill:#f6a7b5;"/><circle cx="357.68" cy="265.93" r="4.19" style="fill:#f6a7b5;"/><g><g><path d="m358.5,269.03c2.19.72,3.78,2.78,3.78,5.21v3.9h-10.96v-3.9c0-2.41,1.56-4.46,3.72-5.19" style="fill:none; stroke:#32406d; stroke-miterlimit:10;"/><circle cx="356.8" cy="265.32" r="4.19" style="fill:none; stroke:#32406d; stroke-miterlimit:10;"/></g><g><path d="m358.5,269.03c2.19.72,3.78,2.78,3.78,5.21v3.9h-10.96v-3.9c0-2.41,1.56-4.46,3.72-5.19" style="fill:none; stroke:#32406d; stroke-miterlimit:10;"/><circle cx="356.8" cy="265.32" r="4.19" style="fill:none; stroke:#32406d; stroke-miterlimit:10;"/></g></g></g><g><path d="m137.84,330.28h0c3.03,0,5.48,2.46,5.48,5.48v3.9h-10.96v-3.9c0-3.03,2.46-5.48,5.48-5.48Z" style="fill:#f6a7b5;"/><circle cx="137.84" cy="326.84" r="4.19" style="fill:#f6a7b5;"/><g><g><path d="m138.67,329.94c2.19.72,3.78,2.78,3.78,5.21v3.9h-10.96v-3.9c0-2.41,1.56-4.46,3.72-5.19" style="fill:none; stroke:#32406d; stroke-miterlimit:10;"/><circle cx="136.96" cy="326.23" r="4.19" style="fill:none; stroke:#32406d; stroke-miterlimit:10;"/></g><g><path d="m138.67,329.94c2.19.72,3.78,2.78,3.78,5.21v3.9h-10.96v-3.9c0-2.41,1.56-4.46,3.72-5.19" style="fill:none; stroke:#32406d; stroke-miterlimit:10;"/><circle cx="136.96" cy="326.23" r="4.19" style="fill:none; stroke:#32406d; stroke-miterlimit:10;"/></g></g></g><g><path d="m69.33,270.47h0c3.03,0,5.48,2.46,5.48,5.48v3.9h-10.96v-3.9c0-3.03,2.46-5.48,5.48-5.48Z" style="fill:#f6a7b5;"/><circle cx="69.34" cy="267.03" r="4.19" style="fill:#f6a7b5;"/><g><g><path d="m70.16,270.12c2.19.72,3.78,2.78,3.78,5.21v3.9h-10.96v-3.9c0-2.41,1.56-4.46,3.72-5.19" style="fill:none; stroke:#32406d; stroke-miterlimit:10;"/><circle cx="68.46" cy="266.41" r="4.19" style="fill:none; stroke:#32406d; stroke-miterlimit:10;"/></g><g><path d="m70.16,270.12c2.19.72,3.78,2.78,3.78,5.21v3.9h-10.96v-3.9c0-2.41,1.56-4.46,3.72-5.19" style="fill:none; stroke:#32406d; stroke-miterlimit:10;"/><circle cx="68.46" cy="266.41" r="4.19" style="fill:none; stroke:#32406d; stroke-miterlimit:10;"/></g></g></g><g><path d="m323.84,45.14h0c3.03,0,5.48,2.46,5.48,5.48v3.9h-10.96v-3.9c0-3.03,2.46-5.48,5.48-5.48Z" style="fill:#8e9ace;"/><circle cx="323.84" cy="41.69" r="4.19" style="fill:#8e9ace;"/><g><g><path d="m324.67,44.79c2.19.72,3.78,2.78,3.78,5.21v3.9h-10.96v-3.9c0-2.41,1.56-4.46,3.72-5.19" style="fill:none; stroke:#32406d; stroke-miterlimit:10;"/><circle cx="322.97" cy="41.08" r="4.19" style="fill:none; stroke:#32406d; stroke-miterlimit:10;"/></g><g><path d="m324.67,44.79c2.19.72,3.78,2.78,3.78,5.21v3.9h-10.96v-3.9c0-2.41,1.56-4.46,3.72-5.19" style="fill:none; stroke:#32406d; stroke-miterlimit:10;"/><circle cx="322.97" cy="41.08" r="4.19" style="fill:none; stroke:#32406d; stroke-miterlimit:10;"/></g></g></g><g><path d="m358.12,105.14h0c3.03,0,5.48,2.46,5.48,5.48v3.9h-10.96v-3.9c0-3.03,2.46-5.48,5.48-5.48Z" style="fill:#8e9ace;"/><circle cx="358.12" cy="101.69" r="4.19" style="fill:#8e9ace;"/><g><g><path d="m358.94,104.79c2.19.72,3.78,2.78,3.78,5.21v3.9h-10.96v-3.9c0-2.41,1.56-4.46,3.72-5.19" style="fill:none; stroke:#32406d; stroke-miterlimit:10;"/><circle cx="357.24" cy="101.08" r="4.19" style="fill:none; stroke:#32406d; stroke-miterlimit:10;"/></g><g><path d="m358.94,104.79c2.19.72,3.78,2.78,3.78,5.21v3.9h-10.96v-3.9c0-2.41,1.56-4.46,3.72-5.19" style="fill:none; stroke:#32406d; stroke-miterlimit:10;"/><circle cx="357.24" cy="101.08" r="4.19" style="fill:none; stroke:#32406d; stroke-miterlimit:10;"/></g></g></g><g><path d="m289.6,105.14h0c3.03,0,5.48,2.46,5.48,5.48v3.9h-10.96v-3.9c0-3.03,2.46-5.48,5.48-5.48Z" style="fill:#8e9ace;"/><circle cx="289.6" cy="101.69" r="4.19" style="fill:#8e9ace;"/><g><g><path d="m290.43,104.79c2.19.72,3.78,2.78,3.78,5.21v3.9h-10.96v-3.9c0-2.41,1.56-4.46,3.72-5.19" style="fill:none; stroke:#32406d; stroke-miterlimit:10;"/><circle cx="288.72" cy="101.08" r="4.19" style="fill:none; stroke:#32406d; stroke-miterlimit:10;"/></g><g><path d="m290.43,104.79c2.19.72,3.78,2.78,3.78,5.21v3.9h-10.96v-3.9c0-2.41,1.56-4.46,3.72-5.19" style="fill:none; stroke:#32406d; stroke-miterlimit:10;"/><circle cx="288.72" cy="101.08" r="4.19" style="fill:none; stroke:#32406d; stroke-miterlimit:10;"/></g></g></g><g><path d="m138.38,165.14h0c3.03,0,5.48,2.46,5.48,5.48v3.9h-10.96v-3.9c0-3.03,2.46-5.48,5.48-5.48Z" style="fill:#8e9ace;"/><circle cx="138.38" cy="161.69" r="4.19" style="fill:#8e9ace;"/><g><g><path d="m139.2,164.79c2.19.72,3.78,2.78,3.78,5.21v3.9h-10.96v-3.9c0-2.41,1.56-4.46,3.72-5.19" style="fill:none; stroke:#32406d; stroke-miterlimit:10;"/><circle cx="137.5" cy="161.08" r="4.19" style="fill:none; stroke:#32406d; stroke-miterlimit:10;"/></g><g><path d="m139.2,164.79c2.19.72,3.78,2.78,3.78,5.21v3.9h-10.96v-3.9c0-2.41,1.56-4.46,3.72-5.19" style="fill:none; stroke:#32406d; stroke-miterlimit:10;"/><circle cx="137.5" cy="161.08" r="4.19" style="fill:none; stroke:#32406d; stroke-miterlimit:10;"/></g></g></g><g><g><path d="m69.34,96.32h0c3.03,0,5.48,2.46,5.48,5.48v3.9h-10.96v-3.9c0-3.03,2.46-5.48,5.48-5.48Z" style="fill:#8e9ace;"/><circle cx="69.34" cy="92.88" r="4.19" style="fill:#8e9ace;"/><g><g><path d="m70.16,95.98c2.19.72,3.78,2.78,3.78,5.21v3.9h-10.96v-3.9c0-2.41,1.56-4.46,3.72-5.19" style="fill:none; stroke:#32406d; stroke-miterlimit:10;"/><circle cx="68.46" cy="92.27" r="4.19" style="fill:none; stroke:#32406d; stroke-miterlimit:10;"/></g><g><path d="m70.16,95.98c2.19.72,3.78,2.78,3.78,5.21v3.9h-10.96v-3.9c0-2.41,1.56-4.46,3.72-5.19" style="fill:none; stroke:#32406d; stroke-miterlimit:10;"/><circle cx="68.46" cy="92.27" r="4.19" style="fill:none; stroke:#32406d; stroke-miterlimit:10;"/></g></g></g><g><g><path d="m64.68,104.79c2.19.72,3.78,2.78,3.78,5.21v3.9h-10.96v-3.9c0-2.41,1.56-4.46,3.72-5.19" style="fill:#fff;"/><circle cx="62.98" cy="101.08" r="4.19" style="fill:#fff;"/></g><g><path d="m64.68,104.79c2.19.72,3.78,2.78,3.78,5.21v3.9h-10.96v-3.9c0-2.41,1.56-4.46,3.72-5.19" style="fill:none; stroke:#32406d; stroke-miterlimit:10;"/><circle cx="62.98" cy="101.08" r="4.19" style="fill:none; stroke:#32406d; stroke-miterlimit:10;"/></g></g><g><g><path d="m75.64,104.79c2.19.72,3.78,2.78,3.78,5.21v3.9h-10.96v-3.9c0-2.41,1.56-4.46,3.72-5.19" style="fill:#fff;"/><circle cx="73.94" cy="101.08" r="4.19" style="fill:#fff;"/></g><g><path d="m75.64,104.79c2.19.72,3.78,2.78,3.78,5.21v3.9h-10.96v-3.9c0-2.41,1.56-4.46,3.72-5.19" style="fill:none; stroke:#32406d; stroke-miterlimit:10;"/><circle cx="73.94" cy="101.08" r="4.19" style="fill:none; stroke:#32406d; stroke-miterlimit:10;"/></g></g><path d="m63.85,105.14h0c3.03,0,5.48,2.46,5.48,5.48v3.9h-10.96v-3.9c0-3.03,2.46-5.48,5.48-5.48Z" style="fill:#8e9ace;"/><circle cx="63.85" cy="101.69" r="4.19" style="fill:#8e9ace;"/><g><g><path d="m64.68,104.79c2.19.72,3.78,2.78,3.78,5.21v3.9h-10.96v-3.9c0-2.41,1.56-4.46,3.72-5.19" style="fill:none; stroke:#32406d; stroke-miterlimit:10;"/><circle cx="62.98" cy="101.08" r="4.19" style="fill:none; stroke:#32406d; stroke-miterlimit:10;"/></g><g><path d="m64.68,104.79c2.19.72,3.78,2.78,3.78,5.21v3.9h-10.96v-3.9c0-2.41,1.56-4.46,3.72-5.19" style="fill:none; stroke:#32406d; stroke-miterlimit:10;"/><circle cx="62.98" cy="101.08" r="4.19" style="fill:none; stroke:#32406d; stroke-miterlimit:10;"/></g></g><path d="m74.82,105.14h0c3.03,0,5.48,2.46,5.48,5.48v3.9h-10.96v-3.9c0-3.03,2.46-5.48,5.48-5.48Z" style="fill:#8e9ace;"/><circle cx="74.82" cy="101.69" r="4.19" style="fill:#8e9ace;"/><g><g><path d="m75.64,104.79c2.19.72,3.78,2.78,3.78,5.21v3.9h-10.96v-3.9c0-2.41,1.56-4.46,3.72-5.19" style="fill:none; stroke:#32406d; stroke-miterlimit:10;"/><circle cx="73.94" cy="101.08" r="4.19" style="fill:none; stroke:#32406d; stroke-miterlimit:10;"/></g><g><path d="m75.64,104.79c2.19.72,3.78,2.78,3.78,5.21v3.9h-10.96v-3.9c0-2.41,1.56-4.46,3.72-5.19" style="fill:none; stroke:#32406d; stroke-miterlimit:10;"/><circle cx="73.94" cy="101.08" r="4.19" style="fill:none; stroke:#32406d; stroke-miterlimit:10;"/></g></g></g><g><g><g><path d="m284.93,164.79c2.19.72,3.78,2.78,3.78,5.21v3.9h-10.96v-3.9c0-2.41,1.56-4.46,3.72-5.19" style="fill:#fff;"/><circle cx="283.23" cy="161.08" r="4.19" style="fill:#fff;"/></g><g><path d="m284.93,164.79c2.19.72,3.78,2.78,3.78,5.21v3.9h-10.96v-3.9c0-2.41,1.56-4.46,3.72-5.19" style="fill:none; stroke:#32406d; stroke-miterlimit:10;"/><circle cx="283.23" cy="161.08" r="4.19" style="fill:none; stroke:#32406d; stroke-miterlimit:10;"/></g></g><g><g><path d="m295.89,164.79c2.19.72,3.78,2.78,3.78,5.21v3.9h-10.96v-3.9c0-2.41,1.56-4.46,3.72-5.19" style="fill:#fff;"/><circle cx="294.19" cy="161.08" r="4.19" style="fill:#fff;"/></g><g><path d="m295.89,164.79c2.19.72,3.78,2.78,3.78,5.21v3.9h-10.96v-3.9c0-2.41,1.56-4.46,3.72-5.19" style="fill:none; stroke:#32406d; stroke-miterlimit:10;"/><circle cx="294.19" cy="161.08" r="4.19" style="fill:none; stroke:#32406d; stroke-miterlimit:10;"/></g></g><path d="m284.1,165.14h0c3.03,0,5.48,2.46,5.48,5.48v3.9h-10.96v-3.9c0-3.03,2.46-5.48,5.48-5.48Z" style="fill:#8e9ace;"/><circle cx="284.1" cy="161.69" r="4.19" style="fill:#8e9ace;"/><g><g><path d="m284.93,164.79c2.19.72,3.78,2.78,3.78,5.21v3.9h-10.96v-3.9c0-2.41,1.56-4.46,3.72-5.19" style="fill:none; stroke:#32406d; stroke-miterlimit:10;"/><circle cx="283.23" cy="161.08" r="4.19" style="fill:none; stroke:#32406d; stroke-miterlimit:10;"/></g><g><path d="m284.93,164.79c2.19.72,3.78,2.78,3.78,5.21v3.9h-10.96v-3.9c0-2.41,1.56-4.46,3.72-5.19" style="fill:none; stroke:#32406d; stroke-miterlimit:10;"/><circle cx="283.23" cy="161.08" r="4.19" style="fill:none; stroke:#32406d; stroke-miterlimit:10;"/></g></g><path d="m295.06,165.14h0c3.03,0,5.48,2.46,5.48,5.48v3.9h-10.96v-3.9c0-3.03,2.46-5.48,5.48-5.48Z" style="fill:#8e9ace;"/><circle cx="295.06" cy="161.69" r="4.19" style="fill:#8e9ace;"/><g><g><path d="m295.89,164.79c2.19.72,3.78,2.78,3.78,5.21v3.9h-10.96v-3.9c0-2.41,1.56-4.46,3.72-5.19" style="fill:none; stroke:#32406d; stroke-miterlimit:10;"/><circle cx="294.19" cy="161.08" r="4.19" style="fill:none; stroke:#32406d; stroke-miterlimit:10;"/></g><g><path d="m295.89,164.79c2.19.72,3.78,2.78,3.78,5.21v3.9h-10.96v-3.9c0-2.41,1.56-4.46,3.72-5.19" style="fill:none; stroke:#32406d; stroke-miterlimit:10;"/><circle cx="294.19" cy="161.08" r="4.19" style="fill:none; stroke:#32406d; stroke-miterlimit:10;"/></g></g></g><g><path d="m368.64,269.37h0c3.03,0,5.48,2.46,5.48,5.48v3.9h-10.96v-3.9c0-3.03,2.46-5.48,5.48-5.48Z" style="fill:#f6a7b5;"/><circle cx="368.64" cy="265.93" r="4.19" style="fill:#f6a7b5;"/><g><g><path d="m369.47,269.03c2.19.72,3.78,2.78,3.78,5.21v3.9h-10.96v-3.9c0-2.41,1.56-4.46,3.72-5.19" style="fill:none; stroke:#32406d; stroke-miterlimit:10;"/><circle cx="367.77" cy="265.32" r="4.19" style="fill:none; stroke:#32406d; stroke-miterlimit:10;"/></g><g><path d="m369.47,269.03c2.19.72,3.78,2.78,3.78,5.21v3.9h-10.96v-3.9c0-2.41,1.56-4.46,3.72-5.19" style="fill:none; stroke:#32406d; stroke-miterlimit:10;"/><circle cx="367.77" cy="265.32" r="4.19" style="fill:none; stroke:#32406d; stroke-miterlimit:10;"/></g></g></g></g><g id="f"><g><path d="m166.95,30.64c.25,1.01.35,1.75.35,1.75h.04s.09-.75.33-1.74l1.02-4.07h1.02l-1.68,6.48h-1.44l-.99-3.82c-.26-1-.28-1.74-.28-1.74h-.04s-.04.73-.3,1.74l-.98,3.82h-1.44l-1.67-6.48h1.08l1.01,4.04c.24,1,.34,1.77.34,1.77h.04s.08-.76.34-1.76l1.05-4.05h1.18l1.01,4.06Z" style="fill:#32406d;"/><path d="m173.51,31.59l.87.23c-.21,1.02-1.07,1.38-2.04,1.38-1.35,0-2.27-.94-2.27-2.63s.9-2.71,2.32-2.71c1.31,0,2.01.9,2.01,2.17,0,.29-.04.55-.1.7h-3.28c.04.99.51,1.68,1.36,1.68.56,0,.94-.22,1.11-.83Zm-.08-1.57c.01-.08.01-.14.01-.21,0-.65-.42-1.17-1.1-1.17-.73,0-1.19.5-1.29,1.38h2.38Z" style="fill:#32406d;"/><path d="m178.44,28.98c-.12-.02-.29-.04-.45-.04-.71,0-1.41.56-1.41,1.55v2.57h-.99v-5.08h.84l.12,1.38c.2-.91.84-1.54,1.97-1.49l-.08,1.11Z" style="fill:#32406d;"/><path d="m182.42,25.69c.38,0,.69.26.69.66,0,.37-.31.66-.69.66-.35,0-.66-.29-.66-.66,0-.4.31-.66.66-.66Zm.51,2.29v5.08h-.99v-5.08h.99Z" style="fill:#32406d;"/><path d="m184.82,31.65c.08.58.5.84,1.1.84s1.01-.22,1.01-.68c0-.42-.19-.65-.79-.8l-.75-.18c-.92-.22-1.28-.69-1.28-1.44,0-1.14.95-1.53,1.91-1.53,1.07,0,1.73.38,1.83,1.38l-.97.11c-.03-.51-.34-.74-.92-.74s-.89.25-.89.68c0,.36.14.59.69.71l.7.17c.9.22,1.41.64,1.41,1.53,0,1.09-.86,1.5-1.97,1.5s-1.83-.35-1.97-1.28l.88-.26Z" style="fill:#32406d;"/><path d="m191.72,32.9c-.33.2-.76.3-1.23.3-.91,0-1.46-.48-1.46-1.43v-2.99h-.74v-.79h.74v-1.08l1-.12v1.2h1.51v.79h-1.52v2.79c0,.55.25.78.67.78.33,0,.56-.09.85-.27l.19.83Z" style="fill:#32406d;"/><path d="m194.41,27.98h1.08l.88,2.79c.3.96.4,1.62.4,1.62h.04s.08-.65.37-1.62l.85-2.79h1.05l-1.74,5.08h-1.16l-1.77-5.08Z" style="fill:#32406d;"/><path d="m199.49,30.49c0-1.73.91-2.63,2.31-2.63s2.32.9,2.32,2.63-.91,2.71-2.32,2.71-2.31-.97-2.31-2.71Zm.98.01c0,1.28.45,1.91,1.33,1.91s1.34-.64,1.34-1.91-.46-1.84-1.34-1.84-1.33.59-1.33,1.84Z" style="fill:#32406d;"/><path d="m206.21,28.96c.27-.76.86-1.1,1.63-1.1.84,0,1.54.46,1.54,1.57v3.63h-.99v-3.33c0-.63-.29-1.01-.89-1.01s-1.2.33-1.2,1.43v2.92h-.99v-5.08h.78l.12.98Z" style="fill:#32406d;"/><path d="m216.62,25.71h1v7.35h-.88l-.11-.88c-.29.77-.89,1.01-1.62,1.01-1.07,0-2.01-.87-2.01-2.58s.83-2.75,2.28-2.75c.65,0,1.2.36,1.34.8v-2.95Zm.01,4.2c0-.9-.68-1.29-1.27-1.29-.75,0-1.36.52-1.36,1.95,0,1.2.53,1.84,1.35,1.84.56,0,1.28-.45,1.28-1.38v-1.12Z" style="fill:#32406d;"/><path d="m222.24,31.59l.87.23c-.21,1.02-1.07,1.38-2.04,1.38-1.35,0-2.27-.94-2.27-2.63s.9-2.71,2.32-2.71c1.31,0,2.01.9,2.01,2.17,0,.29-.04.55-.1.7h-3.28c.04.99.51,1.68,1.36,1.68.56,0,.94-.22,1.11-.83Zm-.08-1.57c.01-.08.01-.14.01-.21,0-.65-.42-1.17-1.1-1.17-.73,0-1.19.5-1.29,1.38h2.38Z" style="fill:#32406d;"/><path d="m225.22,28.96c.27-.76.86-1.1,1.63-1.1.84,0,1.54.46,1.54,1.57v3.63h-.99v-3.33c0-.63-.29-1.01-.89-1.01s-1.2.33-1.2,1.43v2.92h-.99v-5.08h.78l.12.98Z" style="fill:#32406d;"/><path d="m236.46,33.06h-3.99v-6.48h3.99v.88h-2.98v1.91h2.64v.88h-2.64v1.92h2.98v.88Z" style="fill:#32406d;"/><path d="m238.83,28.77v4.29h-1v-4.29h-.74v-.79h.74v-.53c0-1.32.84-1.72,1.64-1.72.44,0,.65.07.92.2l-.19.86c-.24-.17-.43-.22-.69-.22-.44,0-.68.26-.68.86v.55h1.78v-.57c0-1.33.86-1.77,1.75-1.77.4,0,.75.08,1.04.2l-.19.88c-.26-.15-.48-.23-.8-.23-.5,0-.81.25-.81.98v.52h1.3v.79h-1.3v4.29h-.99v-4.29h-1.78Z" style="fill:#32406d;"/><path d="m246.66,31.59l.87.23c-.21,1.02-1.07,1.38-2.04,1.38-1.35,0-2.27-.94-2.27-2.63s.9-2.71,2.32-2.71c1.31,0,2.01.9,2.01,2.17,0,.29-.04.55-.1.7h-3.28c.04.99.51,1.68,1.36,1.68.56,0,.94-.22,1.11-.83Zm-.08-1.57c.01-.08.01-.14.01-.21,0-.65-.42-1.17-1.1-1.17-.73,0-1.19.5-1.29,1.38h2.38Z" style="fill:#32406d;"/><path d="m253.03,33.06h-1.22l-1.77-2.28h-.31v2.28h-.99v-7.35h.99v4.3h.25l1.68-2.04h1.2l-2.05,2.37,2.21,2.72Z" style="fill:#32406d;"/><path d="m256.57,32.9c-.33.2-.76.3-1.23.3-.91,0-1.46-.48-1.46-1.43v-2.99h-.74v-.79h.74v-1.08l1-.12v1.2h1.51v.79h-1.52v2.79c0,.55.25.78.67.78.33,0,.56-.09.85-.27l.19.83Z" style="fill:#32406d;"/><path d="m260.5,31.59l.87.23c-.21,1.02-1.07,1.38-2.04,1.38-1.35,0-2.27-.94-2.27-2.63s.9-2.71,2.32-2.71c1.31,0,2.01.9,2.01,2.17,0,.29-.04.55-.1.7h-3.28c.04.99.51,1.68,1.36,1.68.56,0,.94-.22,1.11-.83Zm-.08-1.57c.01-.08.01-.14.01-.21,0-.65-.42-1.17-1.1-1.17-.73,0-1.19.5-1.29,1.38h2.38Z" style="fill:#32406d;"/><path d="m263.48,28.96c.27-.76.86-1.1,1.63-1.1.84,0,1.54.46,1.54,1.57v3.63h-.99v-3.33c0-.63-.29-1.01-.89-1.01s-1.2.33-1.2,1.43v2.92h-.99v-5.08h.78l.12.98Z" style="fill:#32406d;"/><path d="m162.98,40.71h1v7.35h-.88l-.11-.88c-.29.77-.89,1.01-1.62,1.01-1.07,0-2.01-.87-2.01-2.58s.83-2.75,2.28-2.75c.65,0,1.2.36,1.34.8v-2.95Zm.01,4.2c0-.9-.68-1.29-1.27-1.29-.75,0-1.36.52-1.36,1.95,0,1.2.53,1.84,1.35,1.84.56,0,1.28-.45,1.28-1.38v-1.12Z" style="fill:#32406d;"/><path d="m168.59,46.59l.87.23c-.21,1.02-1.07,1.38-2.04,1.38-1.35,0-2.27-.94-2.27-2.63s.9-2.71,2.32-2.71c1.31,0,2.01.9,2.01,2.17,0,.29-.04.55-.1.7h-3.28c.04.99.51,1.68,1.36,1.68.56,0,.94-.22,1.11-.83Zm-.08-1.57c.01-.08.01-.14.01-.21,0-.65-.42-1.17-1.1-1.17-.73,0-1.19.5-1.29,1.38h2.38Z" style="fill:#32406d;"/><path d="m171.06,46.65c.08.58.5.84,1.1.84s1.01-.22,1.01-.68c0-.42-.19-.65-.79-.8l-.75-.18c-.92-.22-1.28-.69-1.28-1.44,0-1.14.95-1.53,1.91-1.53,1.07,0,1.73.38,1.83,1.38l-.97.11c-.03-.51-.34-.74-.92-.74s-.89.25-.89.68c0,.36.14.59.69.71l.7.17c.9.22,1.41.64,1.41,1.53,0,1.09-.86,1.5-1.97,1.5s-1.83-.35-1.97-1.28l.88-.26Z" style="fill:#32406d;"/><path d="m177.84,48.06v-6.48h1.96c1.61,0,2.29.75,2.29,1.99s-.74,2.11-2.19,2.11h-1.04v2.38h-1.01Zm1.01-3.21h.94c.96,0,1.25-.48,1.25-1.22,0-.78-.44-1.2-1.27-1.2h-.92v2.42Z" style="fill:#32406d;"/><path d="m185.98,43.98c-.12-.02-.29-.04-.45-.04-.71,0-1.41.56-1.41,1.55v2.57h-.99v-5.08h.84l.12,1.38c.2-.91.84-1.54,1.97-1.49l-.08,1.11Z" style="fill:#32406d;"/><path d="m186.4,45.49c0-1.73.91-2.63,2.31-2.63s2.32.9,2.32,2.63-.91,2.71-2.32,2.71-2.31-.97-2.31-2.71Zm.98.01c0,1.28.45,1.91,1.33,1.91s1.34-.64,1.34-1.91-.46-1.84-1.34-1.84-1.33.59-1.33,1.84Z" style="fill:#32406d;"/><path d="m192.86,48.06h-.65v-7.35h.99v3.23c.25-.76.92-1.09,1.63-1.09,1.24,0,2,.9,2,2.54,0,1.55-.8,2.79-2.18,2.79-.88,0-1.35-.4-1.53-.87l-.26.74Zm.34-1.97c0,.98.66,1.35,1.23,1.35.76,0,1.39-.62,1.39-1.96,0-1.22-.49-1.82-1.28-1.82-.73,0-1.34.54-1.34,1.47v.95Z" style="fill:#32406d;"/><path d="m199.73,48.06c-.26.07-.44.09-.62.09-.64,0-1.17-.34-1.17-1.1v-6.34h.99v6.13c0,.32.19.45.45.45.14,0,.24-.02.35-.06v.83Z" style="fill:#32406d;"/><path d="m203.81,46.59l.87.23c-.21,1.02-1.07,1.38-2.04,1.38-1.35,0-2.27-.94-2.27-2.63s.9-2.71,2.32-2.71c1.31,0,2.01.9,2.01,2.17,0,.29-.04.55-.1.7h-3.28c.04.99.51,1.68,1.36,1.68.56,0,.94-.22,1.11-.83Zm-.08-1.57c.01-.08.01-.14.01-.21,0-.65-.42-1.17-1.1-1.17-.73,0-1.19.5-1.29,1.38h2.38Z" style="fill:#32406d;"/><path d="m211.36,42.86c.86,0,1.51.46,1.51,1.53v3.67h-.99v-3.34c0-.63-.27-1-.85-1s-1.15.41-1.15,1.43v2.92h-.99v-3.34c0-.63-.28-1-.85-1s-1.16.42-1.16,1.43v2.92h-.99v-5.08h.78l.12.98c.26-.78.89-1.1,1.58-1.1s1.25.32,1.39,1.12c.25-.81.91-1.12,1.6-1.12Z" style="fill:#32406d;"/><path d="m214.7,46.65c.08.58.5.84,1.1.84s1.01-.22,1.01-.68c0-.42-.19-.65-.79-.8l-.75-.18c-.92-.22-1.28-.69-1.28-1.44,0-1.14.95-1.53,1.91-1.53,1.07,0,1.73.38,1.83,1.38l-.97.11c-.03-.51-.34-.74-.92-.74s-.89.25-.89.68c0,.36.14.59.69.71l.7.17c.9.22,1.41.64,1.41,1.53,0,1.09-.86,1.5-1.97,1.5s-1.83-.35-1.97-1.28l.88-.26Z" style="fill:#32406d;"/><path d="m224.65,40.71h1v7.35h-.88l-.11-.88c-.29.77-.89,1.01-1.62,1.01-1.07,0-2.01-.87-2.01-2.58s.83-2.75,2.28-2.75c.65,0,1.2.36,1.34.8v-2.95Zm.01,4.2c0-.9-.68-1.29-1.27-1.29-.75,0-1.36.52-1.36,1.95,0,1.2.53,1.84,1.35,1.84.56,0,1.28-.45,1.28-1.38v-1.12Z" style="fill:#32406d;"/><path d="m227.64,40.69c.38,0,.69.26.69.66,0,.37-.31.66-.69.66-.35,0-.66-.29-.66-.66,0-.4.31-.66.66-.66Zm.51,2.29v5.08h-.99v-5.08h.99Z" style="fill:#32406d;"/><path d="m232.51,43.98c-.12-.02-.29-.04-.45-.04-.71,0-1.41.56-1.41,1.55v2.57h-.99v-5.08h.84l.12,1.38c.2-.91.84-1.54,1.97-1.49l-.08,1.11Z" style="fill:#32406d;"/><path d="m236.36,46.59l.87.23c-.21,1.02-1.07,1.38-2.04,1.38-1.35,0-2.27-.94-2.27-2.63s.9-2.71,2.32-2.71c1.31,0,2.01.9,2.01,2.17,0,.29-.04.55-.1.7h-3.28c.04.99.51,1.68,1.36,1.68.56,0,.94-.22,1.11-.83Zm-.08-1.57c.01-.08.01-.14.01-.21,0-.65-.42-1.17-1.1-1.17-.73,0-1.19.5-1.29,1.38h2.38Z" style="fill:#32406d;"/><path d="m242.74,48.06h-1.22l-1.77-2.28h-.31v2.28h-.99v-7.35h.99v4.3h.25l1.68-2.04h1.2l-2.05,2.37,2.21,2.72Z" style="fill:#32406d;"/><path d="m246.27,47.9c-.33.2-.76.3-1.23.3-.91,0-1.46-.48-1.46-1.43v-2.99h-.74v-.79h.74v-1.08l1-.12v1.2h1.51v.79h-1.52v2.79c0,.55.25.78.67.78.33,0,.56-.09.85-.27l.19.83Z" style="fill:#32406d;"/><path d="m249.33,45.49c0-1.73.91-2.63,2.31-2.63s2.32.9,2.32,2.63-.91,2.71-2.32,2.71-2.31-.97-2.31-2.71Zm.98.01c0,1.28.45,1.91,1.33,1.91s1.34-.64,1.34-1.91-.46-1.84-1.34-1.84-1.33.59-1.33,1.84Z" style="fill:#32406d;"/><path d="m258.43,40.71h1v7.35h-.88l-.11-.88c-.29.77-.89,1.01-1.62,1.01-1.07,0-2.01-.87-2.01-2.58s.83-2.75,2.28-2.75c.65,0,1.2.36,1.34.8v-2.95Zm.01,4.2c0-.9-.68-1.29-1.27-1.29-.75,0-1.36.52-1.36,1.95,0,1.2.53,1.84,1.35,1.84.56,0,1.28-.45,1.28-1.38v-1.12Z" style="fill:#32406d;"/><path d="m264.05,46.59l.87.23c-.21,1.02-1.07,1.38-2.04,1.38-1.35,0-2.27-.94-2.27-2.63s.9-2.71,2.32-2.71c1.31,0,2.01.9,2.01,2.17,0,.29-.04.55-.1.7h-3.28c.04.99.51,1.68,1.36,1.68.56,0,.94-.22,1.11-.83Zm-.08-1.57c.01-.08.01-.14.01-.21,0-.65-.42-1.17-1.1-1.17-.73,0-1.19.5-1.29,1.38h2.38Z" style="fill:#32406d;"/><path d="m268.98,43.98c-.12-.02-.29-.04-.45-.04-.71,0-1.41.56-1.41,1.55v2.57h-.99v-5.08h.84l.12,1.38c.2-.91.84-1.54,1.97-1.49l-.08,1.11Z" style="fill:#32406d;"/><path d="m174.96,55.69c.38,0,.69.26.69.66,0,.37-.31.66-.69.66-.35,0-.66-.29-.66-.66,0-.4.31-.66.66-.66Zm.51,2.29v5.08h-.99v-5.08h.99Z" style="fill:#32406d;"/><path d="m177.88,58.96c.27-.76.86-1.1,1.63-1.1.84,0,1.54.46,1.54,1.57v3.63h-.99v-3.33c0-.63-.29-1.01-.89-1.01s-1.2.33-1.2,1.43v2.92h-.99v-5.08h.78l.12.98Z" style="fill:#32406d;"/><path d="m185.79,55.71h1v7.35h-.88l-.11-.88c-.29.77-.89,1.01-1.62,1.01-1.07,0-2.01-.87-2.01-2.58s.83-2.75,2.28-2.75c.65,0,1.2.36,1.34.8v-2.95Zm.01,4.2c0-.9-.68-1.29-1.27-1.29-.75,0-1.36.52-1.36,1.95,0,1.2.53,1.84,1.35,1.84.56,0,1.28-.45,1.28-1.38v-1.12Z" style="fill:#32406d;"/><path d="m188.78,55.69c.38,0,.69.26.69.66,0,.37-.31.66-.69.66-.35,0-.66-.29-.66-.66,0-.4.31-.66.66-.66Zm.51,2.29v5.08h-.99v-5.08h.99Z" style="fill:#32406d;"/><path d="m193.65,58.98c-.12-.02-.29-.04-.45-.04-.71,0-1.41.56-1.41,1.55v2.57h-.99v-5.08h.84l.12,1.38c.2-.91.84-1.54,1.97-1.49l-.08,1.11Z" style="fill:#32406d;"/><path d="m197.5,61.59l.87.23c-.21,1.02-1.07,1.38-2.04,1.38-1.35,0-2.27-.94-2.27-2.63s.9-2.71,2.32-2.71c1.31,0,2.01.9,2.01,2.17,0,.29-.04.55-.1.7h-3.28c.04.99.51,1.68,1.36,1.68.56,0,.94-.22,1.11-.83Zm-.08-1.57c.01-.08.01-.14.01-.21,0-.65-.42-1.17-1.1-1.17-.73,0-1.19.5-1.29,1.38h2.38Z" style="fill:#32406d;"/><path d="m203.88,63.06h-1.22l-1.77-2.28h-.31v2.28h-.99v-7.35h.99v4.3h.25l1.68-2.04h1.2l-2.05,2.37,2.21,2.72Z" style="fill:#32406d;"/><path d="m207.41,62.9c-.33.2-.76.3-1.23.3-.91,0-1.46-.48-1.46-1.43v-2.99h-.74v-.79h.74v-1.08l1-.12v1.2h1.51v.79h-1.52v2.79c0,.55.25.78.67.78.33,0,.56-.09.85-.27l.19.83Z" style="fill:#32406d;"/><path d="m211.45,63.06h-.65v-7.35h.99v3.23c.25-.76.92-1.09,1.63-1.09,1.24,0,2,.9,2,2.54,0,1.55-.8,2.79-2.18,2.79-.88,0-1.35-.4-1.53-.87l-.26.74Zm.34-1.97c0,.98.66,1.35,1.23,1.35.76,0,1.39-.62,1.39-1.96,0-1.22-.5-1.82-1.28-1.82-.73,0-1.34.54-1.34,1.47v.95Z" style="fill:#32406d;"/><path d="m219.7,61.59l.87.23c-.21,1.02-1.07,1.38-2.04,1.38-1.35,0-2.27-.94-2.27-2.63s.9-2.71,2.32-2.71c1.31,0,2.01.9,2.01,2.17,0,.29-.04.55-.1.7h-3.28c.04.99.51,1.68,1.36,1.68.56,0,.94-.22,1.11-.83Zm-.08-1.57c.01-.08.01-.14.01-.21,0-.65-.42-1.17-1.1-1.17-.73,0-1.19.5-1.29,1.38h2.38Z" style="fill:#32406d;"/><path d="m224.54,62.9c-.33.2-.76.3-1.23.3-.91,0-1.46-.48-1.46-1.43v-2.99h-.74v-.79h.74v-1.08l1-.12v1.2h1.51v.79h-1.52v2.79c0,.55.25.78.67.78.33,0,.56-.09.85-.27l.19.83Z" style="fill:#32406d;"/><path d="m228.27,58.98c-.12-.02-.29-.04-.45-.04-.71,0-1.41.56-1.41,1.55v2.57h-.99v-5.08h.84l.12,1.38c.2-.91.84-1.54,1.97-1.49l-.08,1.11Z" style="fill:#32406d;"/><path d="m228.69,60.49c0-1.73.91-2.63,2.31-2.63s2.32.9,2.32,2.63-.91,2.71-2.32,2.71-2.31-.97-2.31-2.71Zm.98.01c0,1.28.45,1.91,1.33,1.91s1.34-.64,1.34-1.91-.46-1.84-1.34-1.84-1.33.59-1.33,1.84Z" style="fill:#32406d;"/><path d="m235.6,58.77v4.29h-1v-4.29h-.74v-.79h.74v-.53c0-1.32.84-1.72,1.64-1.72.44,0,.65.07.92.2l-.19.86c-.24-.17-.43-.22-.69-.22-.44,0-.68.26-.68.86v.55h1.78v-.57c0-1.33.86-1.77,1.75-1.77.4,0,.75.08,1.04.2l-.19.88c-.26-.15-.48-.23-.8-.23-.5,0-.81.25-.81.98v.52h1.3v.79h-1.3v4.29h-.99v-4.29h-1.78Z" style="fill:#32406d;"/><path d="m243.43,61.59l.87.23c-.21,1.02-1.07,1.38-2.04,1.38-1.35,0-2.27-.94-2.27-2.63s.9-2.71,2.32-2.71c1.31,0,2.01.9,2.01,2.17,0,.29-.04.55-.1.7h-3.28c.04.99.51,1.68,1.36,1.68.56,0,.94-.22,1.11-.83Zm-.08-1.57c.01-.08.01-.14.01-.21,0-.65-.42-1.17-1.1-1.17-.73,0-1.19.5-1.29,1.38h2.38Z" style="fill:#32406d;"/><path d="m246.41,58.96c.27-.76.86-1.1,1.63-1.1.84,0,1.54.46,1.54,1.57v3.63h-.99v-3.33c0-.63-.29-1.01-.89-1.01s-1.2.33-1.2,1.43v2.92h-.99v-5.08h.78l.12.98Z" style="fill:#32406d;"/><path d="m250.13,58c.2-.92.88-1.55,2.08-1.55s2.07.79,2.07,1.93c0,1.34-1,1.95-1.9,1.97v.9h-.9v-1.47h.4c.84,0,1.39-.38,1.39-1.32,0-.8-.46-1.17-1.11-1.17-.58,0-1.02.31-1.13,1.03l-.88-.32Zm1.79,3.76c.4,0,.7.29.7.68s-.31.68-.7.68-.69-.3-.69-.68.3-.68.69-.68Z" style="fill:#32406d;"/></g><g><path d="m166.2,377.81c.25,1.01.35,1.75.35,1.75h.04s.09-.75.33-1.74l1.02-4.07h1.02l-1.68,6.48h-1.44l-.99-3.82c-.26-1-.28-1.74-.28-1.74h-.04s-.04.73-.3,1.74l-.98,3.82h-1.44l-1.67-6.48h1.08l1.01,4.04c.24,1,.34,1.77.34,1.77h.04s.08-.76.34-1.76l1.05-4.05h1.18l1.01,4.06Z" style="fill:#32406d;"/><path d="m172.93,378.75l.87.23c-.21,1.02-1.07,1.38-2.04,1.38-1.35,0-2.27-.93-2.27-2.63s.9-2.71,2.32-2.71c1.31,0,2.01.9,2.01,2.17,0,.29-.04.55-.1.7h-3.28c.04.99.51,1.68,1.36,1.68.56,0,.94-.22,1.11-.83Zm-.08-1.57c.01-.08.01-.14.01-.21,0-.65-.42-1.17-1.1-1.17-.73,0-1.19.5-1.29,1.38h2.38Z" style="fill:#32406d;"/><path d="m178.03,376.15c-.12-.02-.29-.04-.45-.04-.71,0-1.41.56-1.41,1.55v2.57h-.99v-5.08h.84l.12,1.38c.2-.91.84-1.54,1.97-1.48l-.08,1.11Z" style="fill:#32406d;"/><path d="m182.01,372.86c.38,0,.69.26.69.66,0,.37-.31.66-.69.66-.35,0-.66-.29-.66-.66,0-.4.31-.66.66-.66Zm.51,2.29v5.08h-.99v-5.08h.99Z" style="fill:#32406d;"/><path d="m184.59,378.82c.08.58.5.84,1.1.84s1.01-.22,1.01-.68c0-.42-.19-.65-.79-.8l-.75-.18c-.92-.22-1.28-.69-1.28-1.44,0-1.14.95-1.53,1.91-1.53,1.07,0,1.73.39,1.83,1.38l-.97.11c-.03-.51-.34-.74-.92-.74s-.89.25-.89.68c0,.36.14.59.69.71l.7.17c.9.22,1.41.64,1.41,1.53,0,1.09-.86,1.5-1.97,1.5s-1.83-.35-1.97-1.28l.88-.26Z" style="fill:#32406d;"/><path d="m191.66,380.06c-.33.2-.76.3-1.23.3-.91,0-1.46-.48-1.46-1.43v-2.99h-.74v-.79h.74v-1.08l1-.12v1.2h1.51v.79h-1.52v2.79c0,.55.25.78.67.78.33,0,.56-.09.85-.28l.19.83Z" style="fill:#32406d;"/><path d="m194.41,375.94v-.79h.74v-.57c0-1.33.85-1.77,1.75-1.77.41,0,.76.09,1.06.21l-.19.85c-.26-.14-.48-.22-.81-.22-.51,0-.8.25-.8.98v.53h1.3v.79h-1.3v4.29h-1v-4.29h-.74Z" style="fill:#32406d;"/><path d="m201.3,379.3c-.24.75-.76,1.06-1.56,1.06-.92,0-1.54-.47-1.54-1.68v-3.53h.99v3.38c0,.75.29,1.1.91,1.1.55,0,1.18-.5,1.18-1.47v-3h.99v5.08h-.85l-.12-.92Zm-2.16-6.28c.36,0,.66.28.66.66s-.3.65-.66.65-.65-.28-.65-.65.3-.66.65-.66Zm2.16.01c.37,0,.66.28.66.66,0,.36-.29.65-.66.65-.35,0-.65-.29-.65-.65,0-.38.3-.66.65-.66Z" style="fill:#32406d;"/><path d="m206.8,376.15c-.12-.02-.29-.04-.45-.04-.71,0-1.41.56-1.41,1.55v2.57h-.99v-5.08h.84l.12,1.38c.2-.91.84-1.54,1.97-1.48l-.08,1.11Z" style="fill:#32406d;"/><path d="m213.59,372.88h1v7.35h-.88l-.11-.88c-.29.77-.89,1.01-1.62,1.01-1.07,0-2.01-.87-2.01-2.58s.83-2.75,2.28-2.75c.65,0,1.2.36,1.34.8v-2.95Zm.01,4.2c0-.9-.68-1.29-1.27-1.29-.75,0-1.36.52-1.36,1.95,0,1.2.53,1.84,1.35,1.84.56,0,1.28-.45,1.28-1.38v-1.12Z" style="fill:#32406d;"/><path d="m216.76,372.86c.38,0,.69.26.69.66,0,.37-.31.66-.69.66-.35,0-.66-.29-.66-.66,0-.4.31-.66.66-.66Zm.51,2.29v5.08h-.99v-5.08h.99Z" style="fill:#32406d;"/><path d="m222.04,378.75l.87.23c-.21,1.02-1.07,1.38-2.04,1.38-1.35,0-2.27-.93-2.27-2.63s.9-2.71,2.32-2.71c1.31,0,2.01.9,2.01,2.17,0,.29-.04.55-.1.7h-3.28c.04.99.51,1.68,1.36,1.68.56,0,.94-.22,1.11-.83Zm-.08-1.57c.01-.08.01-.14.01-.21,0-.65-.42-1.17-1.1-1.17-.73,0-1.19.5-1.29,1.38h2.38Z" style="fill:#32406d;"/><path d="m231.54,373.75v4.36c0,1.68-1.23,2.25-2.5,2.25s-2.5-.57-2.5-2.25v-4.36h1.01v4.09c0,1.17.54,1.68,1.49,1.68s1.47-.52,1.47-1.66v-4.11h1.02Z" style="fill:#32406d;"/><path d="m235.98,376.15c-.12-.02-.29-.04-.45-.04-.71,0-1.41.56-1.41,1.55v2.57h-.99v-5.08h.84l.12,1.38c.2-.91.84-1.54,1.97-1.48l-.08,1.11Z" style="fill:#32406d;"/><path d="m237.36,378.82c.08.58.5.84,1.1.84s1.01-.22,1.01-.68c0-.42-.19-.65-.79-.8l-.75-.18c-.92-.22-1.28-.69-1.28-1.44,0-1.14.95-1.53,1.91-1.53,1.07,0,1.73.39,1.83,1.38l-.97.11c-.03-.51-.34-.74-.92-.74s-.89.25-.89.68c0,.36.14.59.69.71l.7.17c.9.22,1.41.64,1.41,1.53,0,1.09-.86,1.5-1.97,1.5s-1.83-.35-1.97-1.28l.88-.26Z" style="fill:#32406d;"/><path d="m245.34,379.03c0,.38.18.47.37.47.12,0,.21-.02.29-.05v.77c-.14.05-.32.09-.54.09-.58,0-.96-.24-1.04-.81-.26.64-.86.87-1.51.87-.89,0-1.52-.51-1.52-1.38,0-1.12.87-1.77,2.95-1.67v-.63c0-.63-.37-.87-.91-.87s-.88.29-.92.81l-.95-.14c.08-1.08,1.02-1.46,1.96-1.46.99,0,1.83.4,1.83,1.56v2.44Zm-1-1.07c-1.36-.03-1.96.28-1.96.91,0,.42.28.74.81.74s1.14-.32,1.14-.91v-.74Z" style="fill:#32406d;"/><path d="m251.04,378.94c-.18,1.02-.99,1.42-1.99,1.42-1.33,0-2.24-.95-2.24-2.64s.91-2.7,2.32-2.7c1.08,0,1.78.57,1.85,1.58l-.9.19c-.09-.64-.43-.96-.99-.96-.87,0-1.32.77-1.32,1.88s.53,1.85,1.36,1.85c.54,0,.9-.25,1.06-.84l.86.21Z" style="fill:#32406d;"/><path d="m253.26,376.11c.24-.73.77-1.09,1.54-1.09.84,0,1.54.46,1.54,1.57v3.63h-.99v-3.34c0-.62-.29-1-.89-1s-1.2.32-1.2,1.43v2.92h-.99v-7.35h.99v3.23Z" style="fill:#32406d;"/><path d="m261.07,378.75l.87.23c-.21,1.02-1.07,1.38-2.04,1.38-1.35,0-2.27-.93-2.27-2.63s.9-2.71,2.32-2.71c1.31,0,2.01.9,2.01,2.17,0,.29-.04.55-.1.7h-3.28c.04.99.51,1.68,1.36,1.68.56,0,.94-.22,1.11-.83Zm-.08-1.57c.01-.08.01-.14.01-.21,0-.65-.42-1.17-1.1-1.17-.73,0-1.19.5-1.29,1.38h2.38Z" style="fill:#32406d;"/><path d="m264.23,376.12c.27-.76.86-1.1,1.63-1.1.84,0,1.54.46,1.54,1.57v3.63h-.99v-3.33c0-.63-.29-1.01-.89-1.01s-1.2.33-1.2,1.43v2.92h-.99v-5.08h.78l.12.98Z" style="fill:#32406d;"/><path d="m161.53,387.88h1v7.35h-.88l-.11-.88c-.29.77-.89,1.01-1.62,1.01-1.07,0-2.01-.87-2.01-2.58s.83-2.75,2.28-2.75c.65,0,1.2.36,1.34.8v-2.95Zm.01,4.2c0-.9-.68-1.29-1.27-1.29-.75,0-1.36.52-1.36,1.95,0,1.2.53,1.84,1.35,1.84.56,0,1.28-.45,1.28-1.38v-1.12Z" style="fill:#32406d;"/><path d="m167.32,393.75l.87.23c-.21,1.02-1.07,1.38-2.04,1.38-1.35,0-2.27-.93-2.27-2.63s.9-2.71,2.32-2.71c1.31,0,2.01.9,2.01,2.17,0,.29-.04.55-.1.7h-3.28c.04.99.51,1.68,1.36,1.68.56,0,.94-.22,1.11-.83Zm-.08-1.57c.01-.08.01-.14.01-.21,0-.65-.42-1.17-1.1-1.17-.73,0-1.19.5-1.29,1.38h2.38Z" style="fill:#32406d;"/><path d="m169.95,393.82c.08.58.5.84,1.1.84s1.01-.22,1.01-.68c0-.42-.19-.65-.79-.8l-.75-.18c-.92-.22-1.28-.69-1.28-1.44,0-1.14.95-1.53,1.91-1.53,1.07,0,1.73.39,1.83,1.38l-.97.11c-.03-.51-.34-.74-.92-.74s-.89.25-.89.68c0,.36.14.59.69.71l.7.17c.9.22,1.41.64,1.41,1.53,0,1.09-.86,1.5-1.97,1.5s-1.83-.35-1.97-1.28l.88-.26Z" style="fill:#32406d;"/><path d="m176.73,395.23v-6.48h1.96c1.61,0,2.29.75,2.29,1.99s-.74,2.11-2.19,2.11h-1.04v2.38h-1.01Zm1.01-3.21h.94c.96,0,1.25-.48,1.25-1.22,0-.78-.44-1.2-1.27-1.2h-.92v2.42Z" style="fill:#32406d;"/><path d="m185.05,391.15c-.12-.02-.29-.04-.45-.04-.71,0-1.41.56-1.41,1.55v2.57h-.99v-5.08h.84l.12,1.38c.2-.91.84-1.54,1.97-1.48l-.08,1.11Z" style="fill:#32406d;"/><path d="m185.64,392.65c0-1.73.91-2.63,2.31-2.63s2.32.9,2.32,2.63-.91,2.71-2.32,2.71-2.31-.97-2.31-2.71Zm.98.01c0,1.28.45,1.91,1.33,1.91s1.34-.64,1.34-1.91-.46-1.84-1.34-1.84-1.33.59-1.33,1.84Z" style="fill:#32406d;"/><path d="m192.27,395.23h-.65v-7.35h.99v3.23c.25-.76.92-1.09,1.63-1.09,1.24,0,2,.9,2,2.54,0,1.55-.8,2.79-2.18,2.79-.88,0-1.35-.4-1.53-.87l-.26.74Zm.34-1.97c0,.98.66,1.35,1.23,1.35.76,0,1.39-.62,1.39-1.96,0-1.22-.5-1.82-1.28-1.82-.73,0-1.34.54-1.34,1.47v.95Z" style="fill:#32406d;"/><path d="m199.31,395.23c-.26.07-.44.09-.62.09-.64,0-1.17-.34-1.17-1.1v-6.34h.99v6.13c0,.32.19.45.45.45.14,0,.24-.02.35-.05v.83Z" style="fill:#32406d;"/><path d="m203.55,393.75l.87.23c-.21,1.02-1.07,1.38-2.04,1.38-1.35,0-2.27-.93-2.27-2.63s.9-2.71,2.32-2.71c1.31,0,2.01.9,2.01,2.17,0,.29-.04.55-.1.7h-3.28c.04.99.51,1.68,1.36,1.68.56,0,.94-.22,1.11-.83Zm-.08-1.57c.01-.08.01-.14.01-.21,0-.65-.42-1.17-1.1-1.17-.73,0-1.19.5-1.29,1.38h2.38Z" style="fill:#32406d;"/><path d="m211.27,390.02c.86,0,1.51.46,1.51,1.53v3.67h-.99v-3.34c0-.63-.27-1-.85-1s-1.15.41-1.15,1.43v2.92h-.99v-3.34c0-.63-.28-1-.85-1s-1.16.42-1.16,1.43v2.92h-.99v-5.08h.78l.12.98c.26-.78.89-1.1,1.58-1.1s1.25.32,1.39,1.12c.25-.81.91-1.12,1.6-1.12Z" style="fill:#32406d;"/><path d="m214.79,393.82c.08.58.5.84,1.1.84s1.01-.22,1.01-.68c0-.42-.19-.65-.79-.8l-.75-.18c-.92-.22-1.28-.69-1.28-1.44,0-1.14.95-1.53,1.91-1.53,1.07,0,1.73.39,1.83,1.38l-.97.11c-.03-.51-.34-.74-.92-.74s-.89.25-.89.68c0,.36.14.59.69.71l.7.17c.9.22,1.41.64,1.41,1.53,0,1.09-.86,1.5-1.97,1.5s-1.83-.35-1.97-1.28l.88-.26Z" style="fill:#32406d;"/><path d="m224.73,387.88h1v7.35h-.88l-.11-.88c-.29.77-.89,1.01-1.62,1.01-1.07,0-2.01-.87-2.01-2.58s.83-2.75,2.28-2.75c.65,0,1.2.36,1.34.8v-2.95Zm.01,4.2c0-.9-.68-1.29-1.27-1.29-.75,0-1.36.52-1.36,1.95,0,1.2.53,1.84,1.35,1.84.56,0,1.28-.45,1.28-1.38v-1.12Z" style="fill:#32406d;"/><path d="m227.9,387.86c.38,0,.69.26.69.66,0,.37-.31.66-.69.66-.35,0-.66-.29-.66-.66,0-.4.31-.66.66-.66Zm.51,2.29v5.08h-.99v-5.08h.99Z" style="fill:#32406d;"/><path d="m232.94,391.15c-.12-.02-.29-.04-.45-.04-.71,0-1.41.56-1.41,1.55v2.57h-.99v-5.08h.84l.12,1.38c.2-.91.84-1.54,1.97-1.48l-.08,1.11Z" style="fill:#32406d;"/><path d="m236.96,393.75l.87.23c-.21,1.02-1.07,1.38-2.04,1.38-1.35,0-2.27-.93-2.27-2.63s.9-2.71,2.32-2.71c1.31,0,2.01.9,2.01,2.17,0,.29-.04.55-.1.7h-3.28c.04.99.51,1.68,1.36,1.68.56,0,.94-.22,1.11-.83Zm-.08-1.57c.01-.08.01-.14.01-.21,0-.65-.42-1.17-1.1-1.17-.73,0-1.19.5-1.29,1.38h2.38Z" style="fill:#32406d;"/><path d="m243.5,395.23h-1.22l-1.77-2.28h-.31v2.28h-.99v-7.35h.99v4.3h.25l1.68-2.04h1.2l-2.05,2.37,2.21,2.72Z" style="fill:#32406d;"/><path d="m247.21,395.06c-.33.2-.76.3-1.23.3-.91,0-1.46-.48-1.46-1.43v-2.99h-.74v-.79h.74v-1.08l1-.12v1.2h1.51v.79h-1.52v2.79c0,.55.25.78.67.78.33,0,.56-.09.85-.28l.19.83Z" style="fill:#32406d;"/><path d="m250.27,392.65c0-1.73.91-2.63,2.31-2.63s2.32.9,2.32,2.63-.91,2.71-2.32,2.71-2.31-.97-2.31-2.71Zm.98.01c0,1.28.45,1.91,1.33,1.91s1.34-.64,1.34-1.91-.46-1.84-1.34-1.84-1.33.59-1.33,1.84Z" style="fill:#32406d;"/><path d="m259.54,387.88h1v7.35h-.88l-.11-.88c-.29.77-.89,1.01-1.62,1.01-1.07,0-2.01-.87-2.01-2.58s.83-2.75,2.28-2.75c.65,0,1.2.36,1.34.8v-2.95Zm.01,4.2c0-.9-.68-1.29-1.27-1.29-.75,0-1.36.52-1.36,1.95,0,1.2.53,1.84,1.35,1.84.56,0,1.28-.45,1.28-1.38v-1.12Z" style="fill:#32406d;"/><path d="m265.32,393.75l.87.23c-.21,1.02-1.07,1.38-2.04,1.38-1.35,0-2.27-.93-2.27-2.63s.9-2.71,2.32-2.71c1.31,0,2.01.9,2.01,2.17,0,.29-.04.55-.1.7h-3.28c.04.99.51,1.68,1.36,1.68.56,0,.94-.22,1.11-.83Zm-.08-1.57c.01-.08.01-.14.01-.21,0-.65-.42-1.17-1.1-1.17-.73,0-1.19.5-1.29,1.38h2.38Z" style="fill:#32406d;"/><path d="m270.42,391.15c-.12-.02-.29-.04-.45-.04-.71,0-1.41.56-1.41,1.55v2.57h-.99v-5.08h.84l.12,1.38c.2-.91.84-1.54,1.97-1.48l-.08,1.11Z" style="fill:#32406d;"/><path d="m161.27,402.86c.38,0,.69.26.69.66,0,.37-.31.66-.69.66-.35,0-.66-.29-.66-.66,0-.4.31-.66.66-.66Zm.51,2.29v5.08h-.99v-5.08h.99Z" style="fill:#32406d;"/><path d="m164.36,406.12c.27-.76.86-1.1,1.63-1.1.84,0,1.54.46,1.54,1.57v3.63h-.99v-3.33c0-.63-.29-1.01-.89-1.01s-1.2.33-1.2,1.43v2.92h-.99v-5.08h.78l.12.98Z" style="fill:#32406d;"/><path d="m172.44,402.88h1v7.35h-.88l-.11-.88c-.29.77-.89,1.01-1.62,1.01-1.07,0-2.01-.87-2.01-2.58s.83-2.75,2.28-2.75c.65,0,1.2.36,1.34.8v-2.95Zm.01,4.2c0-.9-.68-1.29-1.27-1.29-.75,0-1.36.52-1.36,1.95,0,1.2.53,1.84,1.35,1.84.56,0,1.28-.45,1.28-1.38v-1.12Z" style="fill:#32406d;"/><path d="m175.61,402.86c.38,0,.69.26.69.66,0,.37-.31.66-.69.66-.35,0-.66-.29-.66-.66,0-.4.31-.66.66-.66Zm.51,2.29v5.08h-.99v-5.08h.99Z" style="fill:#32406d;"/><path d="m180.65,406.15c-.12-.02-.29-.04-.45-.04-.71,0-1.41.56-1.41,1.55v2.57h-.99v-5.08h.84l.12,1.38c.2-.91.84-1.54,1.97-1.48l-.08,1.11Z" style="fill:#32406d;"/><path d="m184.67,408.75l.87.23c-.21,1.02-1.07,1.38-2.04,1.38-1.35,0-2.27-.93-2.27-2.63s.9-2.71,2.32-2.71c1.31,0,2.01.9,2.01,2.17,0,.29-.04.55-.1.7h-3.28c.04.99.51,1.68,1.36,1.68.56,0,.94-.22,1.11-.83Zm-.08-1.57c.01-.08.01-.14.01-.21,0-.65-.42-1.17-1.1-1.17-.73,0-1.19.5-1.29,1.38h2.38Z" style="fill:#32406d;"/><path d="m191.21,410.23h-1.22l-1.77-2.28h-.31v2.28h-.99v-7.35h.99v4.3h.25l1.68-2.04h1.2l-2.05,2.37,2.21,2.72Z" style="fill:#32406d;"/><path d="m194.92,410.06c-.33.2-.76.3-1.23.3-.91,0-1.46-.48-1.46-1.43v-2.99h-.74v-.79h.74v-1.08l1-.12v1.2h1.51v.79h-1.52v2.79c0,.55.25.78.67.78.33,0,.56-.09.85-.28l.19.83Z" style="fill:#32406d;"/><path d="m197.6,405.15h1.08l.88,2.79c.3.96.4,1.62.4,1.62h.04s.08-.65.37-1.62l.85-2.79h1.04l-1.74,5.08h-1.16l-1.77-5.08Z" style="fill:#32406d;"/><path d="m206.29,408.75l.87.23c-.21,1.02-1.07,1.38-2.04,1.38-1.35,0-2.27-.93-2.27-2.63s.9-2.71,2.32-2.71c1.31,0,2.01.9,2.01,2.17,0,.29-.04.55-.1.7h-3.28c.04.99.51,1.68,1.36,1.68.56,0,.94-.22,1.11-.83Zm-.08-1.57c.01-.08.01-.14.01-.21,0-.65-.42-1.17-1.1-1.17-.73,0-1.19.5-1.29,1.38h2.38Z" style="fill:#32406d;"/><path d="m211.39,406.15c-.12-.02-.29-.04-.45-.04-.71,0-1.41.56-1.41,1.55v2.57h-.99v-5.08h.84l.12,1.38c.2-.91.84-1.54,1.97-1.48l-.08,1.11Z" style="fill:#32406d;"/><path d="m215.99,409.03c0,.38.18.47.37.47.12,0,.21-.02.29-.05v.77c-.14.05-.32.09-.54.09-.58,0-.96-.24-1.04-.81-.26.64-.86.87-1.51.87-.89,0-1.52-.51-1.52-1.38,0-1.12.87-1.77,2.95-1.67v-.63c0-.63-.37-.87-.91-.87s-.88.29-.92.81l-.95-.14c.08-1.08,1.02-1.46,1.96-1.46.99,0,1.83.4,1.83,1.56v2.44Zm-1-1.07c-1.36-.03-1.96.28-1.96.91,0,.42.28.74.81.74s1.14-.32,1.14-.91v-.74Z" style="fill:#32406d;"/><path d="m218.69,406.12c.27-.76.86-1.1,1.63-1.1.84,0,1.54.46,1.54,1.57v3.63h-.99v-3.33c0-.63-.29-1.01-.89-1.01s-1.2.33-1.2,1.43v2.92h-.99v-5.08h.78l.12.98Z" style="fill:#32406d;"/><path d="m226.24,410.06c-.33.2-.76.3-1.23.3-.91,0-1.46-.48-1.46-1.43v-2.99h-.74v-.79h.74v-1.08l1-.12v1.2h1.51v.79h-1.52v2.79c0,.55.25.78.67.78.33,0,.56-.09.85-.28l.19.83Z" style="fill:#32406d;"/><path d="m231.43,407.79c.29,1.02.34,1.73.34,1.73h.04s.03-.69.29-1.73l.68-2.64h1l-1.39,5.08h-1.19l-.67-2.41c-.27-.97-.33-1.61-.33-1.61h-.04s-.06.63-.31,1.61l-.64,2.41h-1.19l-1.42-5.08h1.02l.69,2.64c.27,1.02.34,1.73.34,1.73h.04s.03-.73.31-1.74l.7-2.63h.99l.72,2.64Z" style="fill:#32406d;"/><path d="m234.45,407.65c0-1.73.91-2.63,2.31-2.63s2.32.9,2.32,2.63-.91,2.71-2.32,2.71-2.31-.97-2.31-2.71Zm.98.01c0,1.28.45,1.91,1.33,1.91s1.34-.64,1.34-1.91-.46-1.84-1.34-1.84-1.33.59-1.33,1.84Z" style="fill:#32406d;"/><path d="m243.28,406.15c-.12-.02-.29-.04-.45-.04-.71,0-1.41.56-1.41,1.55v2.57h-.99v-5.08h.84l.12,1.38c.2-.91.84-1.54,1.97-1.48l-.08,1.11Z" style="fill:#32406d;"/><path d="m247.2,410.06c-.33.2-.76.3-1.23.3-.91,0-1.46-.48-1.46-1.43v-2.99h-.74v-.79h.74v-1.08l1-.12v1.2h1.51v.79h-1.52v2.79c0,.55.25.78.67.78.33,0,.56-.09.85-.28l.19.83Z" style="fill:#32406d;"/><path d="m249.97,410.23c-.26.07-.44.09-.62.09-.64,0-1.17-.34-1.17-1.1v-6.34h.99v6.13c0,.32.19.45.45.45.14,0,.24-.02.35-.05v.83Z" style="fill:#32406d;"/><path d="m251.7,402.86c.38,0,.69.26.69.66,0,.37-.31.66-.69.66-.35,0-.66-.29-.66-.66,0-.4.31-.66.66-.66Zm.51,2.29v5.08h-.99v-5.08h.99Z" style="fill:#32406d;"/><path d="m257.8,408.94c-.18,1.02-.99,1.42-1.99,1.42-1.33,0-2.24-.95-2.24-2.64s.91-2.7,2.32-2.7c1.08,0,1.78.57,1.85,1.58l-.9.19c-.09-.64-.43-.96-.99-.96-.87,0-1.32.77-1.32,1.88s.53,1.85,1.36,1.85c.54,0,.9-.25,1.06-.84l.86.21Z" style="fill:#32406d;"/><path d="m260.02,406.11c.24-.73.77-1.09,1.54-1.09.84,0,1.54.46,1.54,1.57v3.63h-.99v-3.34c0-.62-.29-1-.89-1s-1.2.32-1.2,1.43v2.92h-.99v-7.35h.99v3.23Z" style="fill:#32406d;"/><path d="m263.82,405.17c.2-.92.88-1.55,2.08-1.55s2.07.79,2.07,1.93c0,1.34-1,1.95-1.9,1.97v.9h-.9v-1.47h.4c.84,0,1.39-.39,1.39-1.32,0-.8-.46-1.17-1.11-1.17-.58,0-1.02.31-1.13,1.03l-.88-.32Zm1.79,3.76c.4,0,.7.29.7.68s-.31.68-.7.68-.69-.3-.69-.68.3-.68.69-.68Z" style="fill:#32406d;"/></g></g></svg>