<?xml version="1.0" encoding="UTF-8"?><svg id="g" xmlns="http://www.w3.org/2000/svg" xmlns:xlink="http://www.w3.org/1999/xlink" viewBox="0 0 387.78 414.38"><defs><clipPath id="h"><rect x="10.35" y="6.79" width="367.08" height="398" style="fill:none; stroke-width:0px;"/></clipPath><clipPath id="i"><rect x="10.35" y="6.79" width="367.08" height="398" style="fill:none; stroke-width:0px;"/></clipPath><clipPath id="j"><rect x="10.35" y="6.79" width="367.08" height="398" style="fill:none; stroke-width:0px;"/></clipPath><clipPath id="k"><rect x="10.35" y="6.79" width="367.08" height="398" style="fill:none; stroke-width:0px;"/></clipPath><clipPath id="l"><rect x="10.35" y="6.79" width="367.08" height="398" style="fill:none; stroke-width:0px;"/></clipPath></defs><path d="m184.44,205.43c-.54.83-1.2,1.22-2.37,1.22-1.53,0-2.58-1.09-2.58-3.05s1.11-3.08,2.75-3.08c1.07,0,1.81.47,2.21,1.42l-.86.42c-.24-.7-.74-1.05-1.4-1.05-1.1,0-1.74.88-1.74,2.29s.57,2.23,1.69,2.23c.72,0,1.19-.27,1.59-.92l.71.52Z" style="fill:#32406d; stroke-width:0px;"/><path d="m188.22,205.19l.79.21c-.19.93-.97,1.25-1.85,1.25-1.23,0-2.06-.85-2.06-2.39s.82-2.46,2.11-2.46c1.19,0,1.83.82,1.83,1.97,0,.26-.04.5-.09.64h-2.98c.04.9.46,1.53,1.24,1.53.51,0,.85-.2,1.01-.75Zm-.07-1.43c0-.07,0-.13,0-.19,0-.59-.38-1.06-1-1.06-.66,0-1.08.45-1.17,1.25h2.16Z" style="fill:#32406d; stroke-width:0px;"/><path d="m191,202.8c.25-.69.78-1,1.48-1,.76,0,1.4.42,1.4,1.43v3.3h-.9v-3.03c0-.57-.26-.92-.81-.92s-1.09.3-1.09,1.3v2.65h-.9v-4.62h.71l.11.89Z" style="fill:#32406d; stroke-width:0px;"/><path d="m197.77,206.38c-.3.18-.69.27-1.12.27-.83,0-1.33-.44-1.33-1.3v-2.72h-.67v-.72h.67v-.98l.91-.11v1.09h1.37v.72h-1.38v2.54c0,.5.23.71.61.71.3,0,.51-.08.77-.25l.17.75Z" style="fill:#32406d; stroke-width:0px;"/><path d="m201.23,202.82c-.11-.02-.26-.04-.41-.04-.65,0-1.28.51-1.28,1.41v2.34h-.9v-4.62h.76l.11,1.25c.18-.83.76-1.4,1.79-1.35l-.07,1.01Z" style="fill:#32406d; stroke-width:0px;"/><path d="m205.33,205.44c0,.35.16.43.34.43.11,0,.19-.02.26-.05v.7c-.13.05-.29.08-.49.08-.53,0-.87-.22-.95-.74-.24.58-.78.79-1.37.79-.81,0-1.38-.46-1.38-1.25,0-1.02.79-1.61,2.68-1.52v-.57c0-.57-.34-.79-.83-.79s-.8.26-.84.74l-.86-.13c.07-.98.93-1.33,1.78-1.33.9,0,1.66.36,1.66,1.42v2.22Zm-.91-.97c-1.24-.03-1.78.25-1.78.83,0,.38.25.67.74.67s1.04-.29,1.04-.83v-.67Z" style="fill:#32406d; stroke-width:0px;"/><path d="m208.44,206.53c-.24.06-.4.08-.56.08-.58,0-1.06-.31-1.06-1v-5.76h.9v5.57c0,.29.17.41.41.41.13,0,.22-.02.32-.05v.75Z" style="fill:#32406d; stroke-width:0px;"/><path d="m178.48,223.55h-.9v-6.65h.74l.11.89c.27-.75.95-1,1.53-1,1.13,0,1.82.82,1.82,2.31,0,1.41-.72,2.54-2,2.54-.71,0-1.14-.33-1.3-.73v2.64Zm0-3.82c0,.89.6,1.23,1.12,1.23.69,0,1.26-.56,1.26-1.78,0-1.11-.45-1.65-1.16-1.65-.66,0-1.22.49-1.22,1.35v.85Z" style="fill:#32406d; stroke-width:0px;"/><path d="m185.51,217.82c-.11-.02-.26-.04-.41-.04-.65,0-1.28.51-1.28,1.41v2.34h-.9v-4.62h.76l.11,1.25c.18-.83.76-1.4,1.79-1.35l-.07,1.01Z" style="fill:#32406d; stroke-width:0px;"/><path d="m185.97,219.19c0-1.57.83-2.39,2.1-2.39s2.11.82,2.11,2.39-.83,2.46-2.11,2.46-2.1-.88-2.1-2.46Zm.89,0c0,1.16.41,1.74,1.21,1.74s1.22-.58,1.22-1.74-.42-1.67-1.22-1.67-1.21.54-1.21,1.67Z" style="fill:#32406d; stroke-width:0px;"/><path d="m191.91,221.53h-.59v-6.68h.9v2.94c.23-.69.84-.99,1.48-.99,1.13,0,1.82.82,1.82,2.31,0,1.41-.73,2.54-1.98,2.54-.8,0-1.23-.36-1.39-.79l-.24.67Zm.31-1.79c0,.89.6,1.23,1.12,1.23.69,0,1.26-.56,1.26-1.78,0-1.11-.45-1.65-1.16-1.65-.66,0-1.22.49-1.22,1.34v.86Z" style="fill:#32406d; stroke-width:0px;"/><path d="m198.22,221.53c-.24.06-.4.08-.56.08-.58,0-1.06-.31-1.06-1v-5.76h.9v5.57c0,.29.17.41.41.41.13,0,.22-.02.32-.05v.75Z" style="fill:#32406d; stroke-width:0px;"/><path d="m202,220.19l.79.21c-.19.93-.97,1.25-1.85,1.25-1.23,0-2.06-.85-2.06-2.39s.82-2.46,2.11-2.46c1.19,0,1.83.82,1.83,1.97,0,.26-.04.5-.09.64h-2.98c.04.9.46,1.53,1.24,1.53.51,0,.85-.2,1.01-.75Zm-.07-1.43c0-.07,0-.13,0-.19,0-.59-.38-1.06-1-1.06-.66,0-1.08.45-1.17,1.25h2.16Z" style="fill:#32406d; stroke-width:0px;"/><path d="m208.93,216.8c.78,0,1.37.42,1.37,1.39v3.34h-.9v-3.04c0-.57-.25-.91-.77-.91s-1.05.37-1.05,1.3v2.65h-.9v-3.04c0-.57-.25-.91-.77-.91s-1.05.38-1.05,1.3v2.65h-.9v-4.62h.71l.11.89c.24-.71.81-1,1.44-1,.66,0,1.14.29,1.26,1.02.23-.74.83-1.02,1.45-1.02Z" style="fill:#32406d; stroke-width:0px;"/><polygon points="177.74 257.53 177.74 252.63 176.47 252.84 176.47 252.02 178.67 251.63 178.67 257.53 177.74 257.53" style="fill:#32406d; stroke-width:0px;"/><path d="m180.72,256.25c.07.53.45.76,1,.76s.92-.2.92-.62c0-.38-.17-.59-.72-.73l-.68-.16c-.84-.2-1.16-.63-1.16-1.31,0-1.04.86-1.39,1.74-1.39.97,0,1.57.35,1.66,1.25l-.88.1c-.03-.46-.31-.67-.84-.67s-.81.23-.81.62c0,.33.13.54.63.65l.64.15c.82.2,1.28.58,1.28,1.39,0,.99-.78,1.36-1.79,1.36s-1.66-.32-1.79-1.16l.8-.24Z" style="fill:#32406d; stroke-width:0px;"/><path d="m187.06,257.38c-.3.18-.69.27-1.12.27-.83,0-1.33-.44-1.33-1.3v-2.72h-.67v-.72h.67v-.98l.91-.11v1.09h1.37v.72h-1.38v2.54c0,.5.23.71.61.71.3,0,.51-.08.77-.25l.17.75Z" style="fill:#32406d; stroke-width:0px;"/><path d="m189.84,255.19c0-1.57.83-2.39,2.1-2.39s2.11.82,2.11,2.39-.83,2.46-2.11,2.46-2.1-.88-2.1-2.46Zm.89,0c0,1.16.41,1.74,1.21,1.74s1.22-.58,1.22-1.74-.42-1.67-1.22-1.67-1.21.54-1.21,1.67Z" style="fill:#32406d; stroke-width:0px;"/><path d="m197.78,253.82c-.11-.02-.26-.04-.41-.04-.65,0-1.28.51-1.28,1.41v2.34h-.9v-4.62h.76l.11,1.25c.18-.83.76-1.4,1.79-1.35l-.07,1.01Z" style="fill:#32406d; stroke-width:0px;"/><path d="m201.53,250.85h.91v6.68h-.8l-.1-.8c-.26.7-.81.92-1.47.92-.97,0-1.83-.79-1.83-2.35s.75-2.5,2.07-2.5c.59,0,1.09.33,1.22.73v-2.68Zm0,3.82c0-.82-.62-1.17-1.15-1.17-.68,0-1.24.47-1.24,1.77,0,1.09.48,1.67,1.23,1.67.51,0,1.16-.41,1.16-1.25v-1.02Z" style="fill:#32406d; stroke-width:0px;"/><path d="m206.7,256.19l.79.21c-.19.93-.97,1.25-1.85,1.25-1.23,0-2.06-.85-2.06-2.39s.82-2.46,2.11-2.46c1.19,0,1.83.82,1.83,1.97,0,.26-.04.5-.09.64h-2.98c.04.9.46,1.53,1.24,1.53.51,0,.85-.2,1.01-.75Zm-.07-1.43c0-.07,0-.13,0-.19,0-.59-.38-1.06-1-1.06-.66,0-1.08.45-1.17,1.25h2.16Z" style="fill:#32406d; stroke-width:0px;"/><path d="m211.25,253.82c-.11-.02-.26-.04-.41-.04-.65,0-1.28.51-1.28,1.41v2.34h-.9v-4.62h.76l.11,1.25c.18-.83.76-1.4,1.79-1.35l-.07,1.01Z" style="fill:#32406d; stroke-width:0px;"/><path d="m184.42,271.36c-.16.93-.9,1.29-1.81,1.29-1.21,0-2.04-.86-2.04-2.4s.83-2.45,2.11-2.45c.98,0,1.62.52,1.68,1.44l-.82.17c-.08-.58-.39-.87-.9-.87-.79,0-1.2.7-1.2,1.71s.48,1.68,1.24,1.68c.49,0,.82-.23.96-.76l.78.19Z" style="fill:#32406d; stroke-width:0px;"/><path d="m188.69,271.44c0,.35.16.43.34.43.11,0,.19-.02.26-.05v.7c-.13.05-.29.08-.49.08-.53,0-.87-.22-.95-.74-.24.58-.78.79-1.37.79-.81,0-1.38-.46-1.38-1.25,0-1.02.79-1.61,2.68-1.52v-.57c0-.57-.34-.79-.83-.79s-.8.26-.84.74l-.86-.13c.07-.98.93-1.33,1.78-1.33.9,0,1.66.36,1.66,1.42v2.22Zm-.91-.97c-1.24-.03-1.78.25-1.78.83,0,.38.25.67.74.67s1.04-.29,1.04-.83v-.67Z" style="fill:#32406d; stroke-width:0px;"/><path d="m192.91,271.69c-.22.68-.69.96-1.42.96-.84,0-1.4-.43-1.4-1.53v-3.21h.9v3.07c0,.68.26,1,.83,1,.5,0,1.07-.45,1.07-1.34v-2.73h.9v4.62h-.77l-.11-.84Z" style="fill:#32406d; stroke-width:0px;"/><path d="m195.58,271.25c.07.53.45.76,1,.76s.92-.2.92-.62c0-.38-.17-.59-.72-.73l-.68-.16c-.84-.2-1.16-.63-1.16-1.31,0-1.04.86-1.39,1.74-1.39.97,0,1.57.35,1.66,1.25l-.88.1c-.03-.46-.31-.67-.84-.67s-.81.23-.81.62c0,.33.13.54.63.65l.64.15c.82.2,1.28.58,1.28,1.39,0,.99-.78,1.36-1.79,1.36s-1.66-.32-1.79-1.16l.8-.24Z" style="fill:#32406d; stroke-width:0px;"/><path d="m202.24,271.19l.79.21c-.19.93-.97,1.25-1.85,1.25-1.23,0-2.06-.85-2.06-2.39s.82-2.46,2.11-2.46c1.19,0,1.83.82,1.83,1.97,0,.26-.04.5-.09.64h-2.98c.04.9.46,1.53,1.24,1.53.51,0,.85-.2,1.01-.75Zm-.07-1.43c0-.07,0-.13,0-.19,0-.59-.38-1.06-1-1.06-.66,0-1.08.45-1.17,1.25h2.16Z" style="fill:#32406d; stroke-width:0px;"/><path d="m204.55,271.25c.07.53.45.76,1,.76s.92-.2.92-.62c0-.38-.17-.59-.72-.73l-.68-.16c-.84-.2-1.16-.63-1.16-1.31,0-1.04.86-1.39,1.74-1.39.97,0,1.57.35,1.66,1.25l-.88.1c-.03-.46-.31-.67-.84-.67s-.81.23-.81.62c0,.33.13.54.63.65l.64.15c.82.2,1.28.58,1.28,1.39,0,.99-.78,1.36-1.79,1.36s-1.66-.32-1.79-1.16l.8-.24Z" style="fill:#32406d; stroke-width:0px;"/><path d="m178.45,317.53h-3.81v-.71c1.6-1.29,2.79-2.17,2.79-3.45,0-.72-.39-1.1-1.02-1.1s-.97.38-.97.93c0,.38.22.72.5.95l-.75.37c-.27-.21-.63-.7-.63-1.33,0-.84.58-1.67,1.88-1.67,1.07,0,1.92.54,1.92,1.82,0,1.69-1.68,2.83-2.64,3.35v.04h2.73v.8Z" style="fill:#32406d; stroke-width:0px;"/><path d="m180.35,313.8c.25-.69.78-1,1.48-1,.76,0,1.4.42,1.4,1.43v3.3h-.9v-3.03c0-.57-.26-.92-.81-.92s-1.09.3-1.09,1.3v2.65h-.9v-4.62h.71l.11.89Z" style="fill:#32406d; stroke-width:0px;"/><path d="m187.61,310.85h.91v6.68h-.8l-.1-.8c-.26.7-.81.92-1.47.92-.97,0-1.83-.79-1.83-2.35s.75-2.5,2.07-2.5c.59,0,1.09.33,1.22.73v-2.68Zm0,3.82c0-.82-.62-1.17-1.15-1.17-.68,0-1.24.47-1.24,1.77,0,1.09.48,1.67,1.23,1.67.51,0,1.16-.41,1.16-1.25v-1.02Z" style="fill:#32406d; stroke-width:0px;"/><path d="m191.87,315.19c0-1.57.83-2.39,2.1-2.39s2.11.82,2.11,2.39-.83,2.46-2.11,2.46-2.1-.88-2.1-2.46Zm.89,0c0,1.16.41,1.74,1.21,1.74s1.22-.58,1.22-1.74-.42-1.67-1.22-1.67-1.21.54-1.21,1.67Z" style="fill:#32406d; stroke-width:0px;"/><path d="m199.81,313.82c-.11-.02-.26-.04-.41-.04-.65,0-1.28.51-1.28,1.41v2.34h-.9v-4.62h.76l.11,1.25c.18-.83.76-1.4,1.79-1.35l-.07,1.01Z" style="fill:#32406d; stroke-width:0px;"/><path d="m203.56,310.85h.91v6.68h-.8l-.1-.8c-.26.7-.81.92-1.47.92-.97,0-1.83-.79-1.83-2.35s.75-2.5,2.07-2.5c.59,0,1.09.33,1.22.73v-2.68Zm0,3.82c0-.82-.62-1.17-1.15-1.17-.68,0-1.24.47-1.24,1.77,0,1.09.48,1.67,1.23,1.67.51,0,1.16-.41,1.16-1.25v-1.02Z" style="fill:#32406d; stroke-width:0px;"/><path d="m208.73,316.19l.79.21c-.19.93-.97,1.25-1.85,1.25-1.23,0-2.06-.85-2.06-2.39s.82-2.46,2.11-2.46c1.19,0,1.83.82,1.83,1.97,0,.26-.04.5-.09.64h-2.98c.04.9.46,1.53,1.24,1.53.51,0,.85-.2,1.01-.75Zm-.07-1.43c0-.07,0-.13,0-.19,0-.59-.38-1.06-1-1.06-.66,0-1.08.45-1.17,1.25h2.16Z" style="fill:#32406d; stroke-width:0px;"/><path d="m213.28,313.82c-.11-.02-.26-.04-.41-.04-.65,0-1.28.51-1.28,1.41v2.34h-.9v-4.62h.76l.11,1.25c.18-.83.76-1.4,1.79-1.35l-.07,1.01Z" style="fill:#32406d; stroke-width:0px;"/><path d="m184.42,331.36c-.16.93-.9,1.29-1.81,1.29-1.21,0-2.04-.86-2.04-2.4s.83-2.45,2.11-2.45c.98,0,1.62.52,1.68,1.44l-.82.17c-.08-.58-.39-.87-.9-.87-.79,0-1.2.7-1.2,1.71s.48,1.68,1.24,1.68c.49,0,.82-.23.96-.76l.78.19Z" style="fill:#32406d; stroke-width:0px;"/><path d="m188.69,331.44c0,.35.16.43.34.43.11,0,.19-.02.26-.05v.7c-.13.05-.29.08-.49.08-.53,0-.87-.22-.95-.74-.24.58-.78.79-1.37.79-.81,0-1.38-.46-1.38-1.25,0-1.02.79-1.61,2.68-1.52v-.57c0-.57-.34-.79-.83-.79s-.8.26-.84.74l-.86-.13c.07-.98.93-1.33,1.78-1.33.9,0,1.66.36,1.66,1.42v2.22Zm-.91-.97c-1.24-.03-1.78.25-1.78.83,0,.38.25.67.74.67s1.04-.29,1.04-.83v-.67Z" style="fill:#32406d; stroke-width:0px;"/><path d="m192.91,331.69c-.22.68-.69.96-1.42.96-.84,0-1.4-.43-1.4-1.53v-3.21h.9v3.07c0,.68.26,1,.83,1,.5,0,1.07-.45,1.07-1.34v-2.73h.9v4.62h-.77l-.11-.84Z" style="fill:#32406d; stroke-width:0px;"/><path d="m195.58,331.25c.07.53.45.76,1,.76s.92-.2.92-.62c0-.38-.17-.59-.72-.73l-.68-.16c-.84-.2-1.16-.63-1.16-1.31,0-1.04.86-1.39,1.74-1.39.97,0,1.57.35,1.66,1.25l-.88.1c-.03-.46-.31-.67-.84-.67s-.81.23-.81.62c0,.33.13.54.63.65l.64.15c.82.2,1.28.58,1.28,1.39,0,.99-.78,1.36-1.79,1.36s-1.66-.32-1.79-1.16l.8-.24Z" style="fill:#32406d; stroke-width:0px;"/><path d="m202.24,331.19l.79.21c-.19.93-.97,1.25-1.85,1.25-1.23,0-2.06-.85-2.06-2.39s.82-2.46,2.11-2.46c1.19,0,1.83.82,1.83,1.97,0,.26-.04.5-.09.64h-2.98c.04.9.46,1.53,1.24,1.53.51,0,.85-.2,1.01-.75Zm-.07-1.43c0-.07,0-.13,0-.19,0-.59-.38-1.06-1-1.06-.66,0-1.08.45-1.17,1.25h2.16Z" style="fill:#32406d; stroke-width:0px;"/><path d="m204.55,331.25c.07.53.45.76,1,.76s.92-.2.92-.62c0-.38-.17-.59-.72-.73l-.68-.16c-.84-.2-1.16-.63-1.16-1.31,0-1.04.86-1.39,1.74-1.39.97,0,1.57.35,1.66,1.25l-.88.1c-.03-.46-.31-.67-.84-.67s-.81.23-.81.62c0,.33.13.54.63.65l.64.15c.82.2,1.28.58,1.28,1.39,0,.99-.78,1.36-1.79,1.36s-1.66-.32-1.79-1.16l.8-.24Z" style="fill:#32406d; stroke-width:0px;"/><path d="m177.6,374.48c1.06.06,1.63.64,1.63,1.57,0,1.02-.9,1.6-1.99,1.6-1.16,0-1.89-.53-2-1.37l.88-.21c.1.61.5.9,1.13.9s1.06-.36,1.06-.97c0-.7-.42-1.1-1.7-1.16v-.69c1.33-.15,1.58-.51,1.58-1.14,0-.48-.36-.73-.9-.73-.48,0-.81.22-.92.78l-.88-.2c.16-.79.79-1.34,1.85-1.34.96,0,1.79.45,1.79,1.45,0,.84-.51,1.37-1.53,1.46v.05Zm5.99-.66c-.11-.02-.26-.04-.41-.04-.65,0-1.28.51-1.28,1.41v2.34h-.9v-4.62h.76l.11,1.25c.18-.83.76-1.4,1.79-1.35l-.07,1.01Zm3.74-2.97h.91v6.68h-.8l-.1-.8c-.26.7-.81.92-1.47.92-.97,0-1.83-.79-1.83-2.35s.75-2.5,2.07-2.5c.59,0,1.09.33,1.22.73v-2.68Zm0,3.82c0-.82-.62-1.17-1.15-1.17-.68,0-1.24.47-1.24,1.77,0,1.09.48,1.67,1.23,1.67.51,0,1.16-.41,1.16-1.25v-1.02Zm4.25.52c0-1.57.83-2.39,2.1-2.39s2.11.82,2.11,2.39-.83,2.46-2.11,2.46-2.1-.88-2.1-2.46Zm.89,0c0,1.16.41,1.74,1.21,1.74s1.22-.58,1.22-1.74-.42-1.67-1.22-1.67-1.21.54-1.21,1.67Zm7.05-1.38c-.11-.02-.26-.04-.41-.04-.65,0-1.28.51-1.28,1.41v2.34h-.9v-4.62h.76l.11,1.25c.18-.83.76-1.4,1.79-1.35l-.07,1.01Zm3.74-2.97h.91v6.68h-.8l-.1-.8c-.26.7-.81.92-1.47.92-.97,0-1.83-.79-1.83-2.35s.75-2.5,2.07-2.5c.59,0,1.09.33,1.22.73v-2.68Zm0,3.82c0-.82-.62-1.17-1.15-1.17-.68,0-1.24.47-1.24,1.77,0,1.09.48,1.67,1.23,1.67.51,0,1.16-.41,1.16-1.25v-1.02Zm5.16,1.52l.79.21c-.19.93-.97,1.25-1.85,1.25-1.23,0-2.06-.85-2.06-2.39s.82-2.46,2.11-2.46c1.19,0,1.83.82,1.83,1.97,0,.26-.04.5-.09.64h-2.98c.04.9.46,1.53,1.24,1.53.51,0,.85-.2,1.01-.75Zm-.07-1.43c0-.07,0-.13,0-.19,0-.59-.38-1.06-1-1.06-.66,0-1.08.45-1.17,1.25h2.16Zm4.62-.94c-.11-.02-.26-.04-.41-.04-.65,0-1.28.51-1.28,1.41v2.34h-.9v-4.62h.76l.11,1.25c.18-.83.76-1.4,1.79-1.35l-.07,1.01Z" style="fill:#32406d; stroke-width:0px;"/><path d="m184.42,391.36c-.16.93-.9,1.29-1.81,1.29-1.21,0-2.04-.86-2.04-2.4s.83-2.45,2.11-2.45c.98,0,1.62.52,1.68,1.44l-.82.17c-.08-.58-.39-.87-.9-.87-.79,0-1.2.7-1.2,1.71s.48,1.68,1.24,1.68c.49,0,.82-.23.96-.76l.78.19Z" style="fill:#32406d; stroke-width:0px;"/><path d="m188.69,391.44c0,.35.16.43.34.43.11,0,.19-.02.26-.05v.7c-.13.05-.29.08-.49.08-.53,0-.87-.22-.95-.74-.24.58-.78.79-1.37.79-.81,0-1.38-.46-1.38-1.25,0-1.02.79-1.61,2.68-1.52v-.57c0-.57-.34-.79-.83-.79s-.8.26-.84.74l-.86-.13c.07-.98.93-1.33,1.78-1.33.9,0,1.66.36,1.66,1.42v2.22Zm-.91-.97c-1.24-.03-1.78.25-1.78.83,0,.38.25.67.74.67s1.04-.29,1.04-.83v-.67Z" style="fill:#32406d; stroke-width:0px;"/><path d="m192.91,391.69c-.22.68-.69.96-1.42.96-.84,0-1.4-.43-1.4-1.53v-3.21h.9v3.07c0,.68.26,1,.83,1,.5,0,1.07-.45,1.07-1.34v-2.73h.9v4.62h-.77l-.11-.84Z" style="fill:#32406d; stroke-width:0px;"/><path d="m195.58,391.25c.07.53.45.76,1,.76s.92-.2.92-.62c0-.38-.17-.59-.72-.73l-.68-.16c-.84-.2-1.16-.63-1.16-1.31,0-1.04.86-1.39,1.74-1.39.97,0,1.57.35,1.66,1.25l-.88.1c-.03-.46-.31-.67-.84-.67s-.81.23-.81.62c0,.33.13.54.63.65l.64.15c.82.2,1.28.58,1.28,1.39,0,.99-.78,1.36-1.79,1.36s-1.66-.32-1.79-1.16l.8-.24Z" style="fill:#32406d; stroke-width:0px;"/><path d="m202.24,391.19l.79.21c-.19.93-.97,1.25-1.85,1.25-1.23,0-2.06-.85-2.06-2.39s.82-2.46,2.11-2.46c1.19,0,1.83.82,1.83,1.97,0,.26-.04.5-.09.64h-2.98c.04.9.46,1.53,1.24,1.53.51,0,.85-.2,1.01-.75Zm-.07-1.43c0-.07,0-.13,0-.19,0-.59-.38-1.06-1-1.06-.66,0-1.08.45-1.17,1.25h2.16Z" style="fill:#32406d; stroke-width:0px;"/><path d="m204.55,391.25c.07.53.45.76,1,.76s.92-.2.92-.62c0-.38-.17-.59-.72-.73l-.68-.16c-.84-.2-1.16-.63-1.16-1.31,0-1.04.86-1.39,1.74-1.39.97,0,1.57.35,1.66,1.25l-.88.1c-.03-.46-.31-.67-.84-.67s-.81.23-.81.62c0,.33.13.54.63.65l.64.15c.82.2,1.28.58,1.28,1.39,0,.99-.78,1.36-1.79,1.36s-1.66-.32-1.79-1.16l.8-.24Z" style="fill:#32406d; stroke-width:0px;"/><path d="m177.64,29.48c1.06.06,1.62.64,1.62,1.57,0,1.02-.89,1.6-1.99,1.6-1.16,0-1.88-.53-2-1.37l.88-.21c.11.61.5.9,1.14.9s1.05-.36,1.05-.97c0-.7-.42-1.1-1.69-1.16v-.69c1.33-.15,1.57-.51,1.57-1.14,0-.48-.36-.73-.9-.73-.47,0-.81.22-.91.78l-.89-.2c.16-.79.79-1.34,1.85-1.34.96,0,1.79.45,1.79,1.45,0,.84-.51,1.37-1.52,1.46v.05Z" style="fill:#32406d; stroke-width:0px;"/><path d="m182.97,28.82c-.11-.02-.26-.04-.41-.04-.65,0-1.28.51-1.28,1.41v2.34h-.9v-4.62h.76l.11,1.25c.18-.83.76-1.4,1.79-1.35l-.07,1.01Z" style="fill:#32406d; stroke-width:0px;"/><path d="m186.72,25.85h.91v6.68h-.8l-.1-.8c-.26.7-.81.92-1.47.92-.97,0-1.83-.79-1.83-2.35s.75-2.5,2.07-2.5c.59,0,1.09.33,1.22.73v-2.68Zm0,3.82c0-.82-.62-1.17-1.15-1.17-.68,0-1.24.47-1.24,1.77,0,1.09.48,1.67,1.23,1.67.51,0,1.16-.41,1.16-1.25v-1.02Z" style="fill:#32406d; stroke-width:0px;"/><path d="m190.98,30.19c0-1.57.83-2.39,2.1-2.39s2.11.82,2.11,2.39-.83,2.46-2.11,2.46-2.1-.88-2.1-2.46Zm.89,0c0,1.16.41,1.74,1.21,1.74s1.22-.58,1.22-1.74-.42-1.67-1.22-1.67-1.21.54-1.21,1.67Z" style="fill:#32406d; stroke-width:0px;"/><path d="m198.92,28.82c-.11-.02-.26-.04-.41-.04-.65,0-1.28.51-1.28,1.41v2.34h-.9v-4.62h.76l.11,1.25c.18-.83.76-1.4,1.79-1.35l-.07,1.01Z" style="fill:#32406d; stroke-width:0px;"/><path d="m202.67,25.85h.91v6.68h-.8l-.1-.8c-.26.7-.81.92-1.47.92-.97,0-1.83-.79-1.83-2.35s.75-2.5,2.07-2.5c.59,0,1.09.33,1.22.73v-2.68Zm0,3.82c0-.82-.62-1.17-1.15-1.17-.68,0-1.24.47-1.24,1.77,0,1.09.48,1.67,1.23,1.67.51,0,1.16-.41,1.16-1.25v-1.02Z" style="fill:#32406d; stroke-width:0px;"/><path d="m207.84,31.19l.79.21c-.19.93-.97,1.25-1.85,1.25-1.23,0-2.06-.85-2.06-2.39s.82-2.46,2.11-2.46c1.19,0,1.83.82,1.83,1.97,0,.26-.04.5-.09.64h-2.98c.04.9.46,1.53,1.24,1.53.51,0,.85-.2,1.01-.75Zm-.07-1.43c0-.07,0-.13,0-.19,0-.59-.38-1.06-1-1.06-.66,0-1.08.45-1.17,1.25h2.16Z" style="fill:#32406d; stroke-width:0px;"/><path d="m212.39,28.82c-.11-.02-.26-.04-.41-.04-.65,0-1.28.51-1.28,1.41v2.34h-.9v-4.62h.76l.11,1.25c.18-.83.76-1.4,1.79-1.35l-.07,1.01Z" style="fill:#32406d; stroke-width:0px;"/><path d="m183.92,46.19l.79.21c-.19.93-.97,1.25-1.85,1.25-1.23,0-2.06-.85-2.06-2.39s.82-2.46,2.11-2.46c1.19,0,1.83.82,1.83,1.97,0,.26-.04.5-.09.64h-2.98c.04.9.46,1.53,1.24,1.53.51,0,.85-.2,1.01-.75Zm-.07-1.43c0-.07,0-.13,0-.19,0-.59-.38-1.06-1-1.06-.66,0-1.08.45-1.17,1.25h2.16Z" style="fill:#32406d; stroke-width:0px;"/><path d="m186.88,43.63v3.9h-.91v-3.9h-.67v-.72h.67v-.48c0-1.2.76-1.56,1.49-1.56.4,0,.59.06.84.18l-.17.78c-.22-.15-.39-.2-.63-.2-.4,0-.62.24-.62.78v.5h1.62v-.52c0-1.21.78-1.61,1.59-1.61.36,0,.68.07.95.18l-.17.8c-.24-.14-.44-.21-.73-.21-.45,0-.74.23-.74.89v.47h1.18v.72h-1.18v3.9h-.9v-3.9h-1.62Z" style="fill:#32406d; stroke-width:0px;"/><path d="m194.06,46.19l.79.21c-.19.93-.97,1.25-1.85,1.25-1.23,0-2.06-.85-2.06-2.39s.82-2.46,2.11-2.46c1.19,0,1.83.82,1.83,1.97,0,.26-.04.5-.09.64h-2.98c.04.9.46,1.53,1.24,1.53.51,0,.85-.2,1.01-.75Zm-.07-1.43c0-.07,0-.13,0-.19,0-.59-.38-1.06-1-1.06-.66,0-1.08.45-1.17,1.25h2.16Z" style="fill:#32406d; stroke-width:0px;"/><path d="m199.57,46.36c-.16.93-.9,1.29-1.81,1.29-1.21,0-2.04-.86-2.04-2.4s.83-2.45,2.11-2.45c.98,0,1.62.52,1.68,1.44l-.82.17c-.08-.58-.39-.87-.9-.87-.79,0-1.2.7-1.2,1.71s.48,1.68,1.24,1.68c.49,0,.82-.23.96-.76l.78.19Z" style="fill:#32406d; stroke-width:0px;"/><path d="m203.1,47.38c-.3.18-.69.27-1.12.27-.83,0-1.33-.44-1.33-1.3v-2.72h-.67v-.72h.67v-.98l.91-.11v1.09h1.37v.72h-1.38v2.54c0,.5.23.71.61.71.3,0,.51-.08.77-.25l.17.75Z" style="fill:#32406d; stroke-width:0px;"/><path d="m204.32,46.25c.07.53.45.76,1,.76s.92-.2.92-.62c0-.38-.17-.59-.72-.73l-.68-.16c-.84-.2-1.16-.63-1.16-1.31,0-1.04.86-1.39,1.74-1.39.97,0,1.57.35,1.66,1.25l-.88.1c-.03-.46-.31-.67-.84-.67s-.81.23-.81.62c0,.33.13.54.63.65l.64.15c.82.2,1.28.58,1.28,1.39,0,.99-.78,1.36-1.79,1.36s-1.66-.32-1.79-1.16l.8-.24Z" style="fill:#32406d; stroke-width:0px;"/><path d="m178.46,92.53h-3.81v-.71c1.6-1.29,2.79-2.17,2.79-3.45,0-.72-.39-1.1-1.02-1.1s-.97.38-.97.93c0,.38.22.72.5.95l-.75.37c-.27-.21-.63-.7-.63-1.33,0-.84.58-1.67,1.88-1.67,1.07,0,1.92.54,1.92,1.82,0,1.69-1.68,2.83-2.64,3.35v.04h2.73v.8Z" style="fill:#32406d; stroke-width:0px;"/><path d="m180.36,88.8c.25-.69.78-1,1.48-1,.76,0,1.4.42,1.4,1.43v3.3h-.9v-3.03c0-.57-.26-.92-.81-.92s-1.09.3-1.09,1.3v2.65h-.9v-4.62h.71l.11.89Z" style="fill:#32406d; stroke-width:0px;"/><path d="m187.62,85.85h.91v6.68h-.8l-.1-.8c-.26.7-.81.92-1.47.92-.97,0-1.83-.79-1.83-2.35s.75-2.5,2.07-2.5c.59,0,1.09.33,1.22.73v-2.68Zm0,3.82c0-.82-.62-1.17-1.15-1.17-.68,0-1.24.47-1.24,1.77,0,1.09.48,1.67,1.23,1.67.51,0,1.16-.41,1.16-1.25v-1.02Z" style="fill:#32406d; stroke-width:0px;"/><path d="m191.88,90.19c0-1.57.83-2.39,2.1-2.39s2.11.82,2.11,2.39-.83,2.46-2.11,2.46-2.1-.88-2.1-2.46Zm.89,0c0,1.16.41,1.74,1.21,1.74s1.22-.58,1.22-1.74-.42-1.67-1.22-1.67-1.21.54-1.21,1.67Z" style="fill:#32406d; stroke-width:0px;"/><path d="m199.82,88.82c-.11-.02-.26-.04-.41-.04-.65,0-1.28.51-1.28,1.41v2.34h-.9v-4.62h.76l.11,1.25c.18-.83.76-1.4,1.79-1.35l-.07,1.01Z" style="fill:#32406d; stroke-width:0px;"/><path d="m203.57,85.85h.91v6.68h-.8l-.1-.8c-.26.7-.81.92-1.47.92-.97,0-1.83-.79-1.83-2.35s.75-2.5,2.07-2.5c.59,0,1.09.33,1.22.73v-2.68Zm0,3.82c0-.82-.62-1.17-1.15-1.17-.68,0-1.24.47-1.24,1.77,0,1.09.48,1.67,1.23,1.67.51,0,1.16-.41,1.16-1.25v-1.02Z" style="fill:#32406d; stroke-width:0px;"/><path d="m208.74,91.19l.79.21c-.19.93-.97,1.25-1.85,1.25-1.23,0-2.06-.85-2.06-2.39s.82-2.46,2.11-2.46c1.19,0,1.83.82,1.83,1.97,0,.26-.04.5-.09.64h-2.98c.04.9.46,1.53,1.24,1.53.51,0,.85-.2,1.01-.75Zm-.07-1.43c0-.07,0-.13,0-.19,0-.59-.38-1.06-1-1.06-.66,0-1.08.45-1.17,1.25h2.16Z" style="fill:#32406d; stroke-width:0px;"/><path d="m213.29,88.82c-.11-.02-.26-.04-.41-.04-.65,0-1.28.51-1.28,1.41v2.34h-.9v-4.62h.76l.11,1.25c.18-.83.76-1.4,1.79-1.35l-.07,1.01Z" style="fill:#32406d; stroke-width:0px;"/><path d="m183.92,106.19l.79.21c-.19.93-.97,1.25-1.85,1.25-1.23,0-2.06-.85-2.06-2.39s.82-2.46,2.11-2.46c1.19,0,1.83.82,1.83,1.97,0,.26-.04.5-.09.64h-2.98c.04.9.46,1.53,1.24,1.53.51,0,.85-.2,1.01-.75Zm-.07-1.43c0-.07,0-.13,0-.19,0-.59-.38-1.06-1-1.06-.66,0-1.08.45-1.17,1.25h2.16Z" style="fill:#32406d; stroke-width:0px;"/><path d="m186.88,103.63v3.9h-.91v-3.9h-.67v-.72h.67v-.48c0-1.2.76-1.56,1.49-1.56.4,0,.59.06.84.18l-.17.78c-.22-.15-.39-.2-.63-.2-.4,0-.62.24-.62.78v.5h1.62v-.52c0-1.21.78-1.61,1.59-1.61.36,0,.68.07.95.18l-.17.8c-.24-.14-.44-.21-.73-.21-.45,0-.74.23-.74.89v.47h1.18v.72h-1.18v3.9h-.9v-3.9h-1.62Z" style="fill:#32406d; stroke-width:0px;"/><path d="m194.06,106.19l.79.21c-.19.93-.97,1.25-1.85,1.25-1.23,0-2.06-.85-2.06-2.39s.82-2.46,2.11-2.46c1.19,0,1.83.82,1.83,1.97,0,.26-.04.5-.09.64h-2.98c.04.9.46,1.53,1.24,1.53.51,0,.85-.2,1.01-.75Zm-.07-1.43c0-.07,0-.13,0-.19,0-.59-.38-1.06-1-1.06-.66,0-1.08.45-1.17,1.25h2.16Z" style="fill:#32406d; stroke-width:0px;"/><path d="m199.57,106.36c-.16.93-.9,1.29-1.81,1.29-1.21,0-2.04-.86-2.04-2.4s.83-2.45,2.11-2.45c.98,0,1.62.52,1.68,1.44l-.82.17c-.08-.58-.39-.87-.9-.87-.79,0-1.2.7-1.2,1.71s.48,1.68,1.24,1.68c.49,0,.82-.23.96-.76l.78.19Z" style="fill:#32406d; stroke-width:0px;"/><path d="m203.1,107.38c-.3.18-.69.27-1.12.27-.83,0-1.33-.44-1.33-1.3v-2.72h-.67v-.72h.67v-.98l.91-.11v1.09h1.37v.72h-1.38v2.54c0,.5.23.71.61.71.3,0,.51-.08.77-.25l.17.75Z" style="fill:#32406d; stroke-width:0px;"/><path d="m204.32,106.25c.07.53.45.76,1,.76s.92-.2.92-.62c0-.38-.17-.59-.72-.73l-.68-.16c-.84-.2-1.16-.63-1.16-1.31,0-1.04.86-1.39,1.74-1.39.97,0,1.57.35,1.66,1.25l-.88.1c-.03-.46-.31-.67-.84-.67s-.81.23-.81.62c0,.33.13.54.63.65l.64.15c.82.2,1.28.58,1.28,1.39,0,.99-.78,1.36-1.79,1.36s-1.66-.32-1.79-1.16l.8-.24Z" style="fill:#32406d; stroke-width:0px;"/><path d="m176.09,152.53v-.8h1.59v-4.11l-1.54.22v-.82l2.44-.39v5.1h1.43v.8h-3.92Zm5.82-1.28c.07.53.45.76,1,.76s.92-.2.92-.62c0-.38-.17-.59-.72-.73l-.68-.16c-.84-.2-1.16-.63-1.16-1.31,0-1.04.86-1.39,1.74-1.39.97,0,1.57.35,1.66,1.25l-.88.1c-.03-.46-.31-.67-.84-.67s-.81.23-.81.62c0,.33.13.54.63.65l.64.15c.82.2,1.28.58,1.28,1.39,0,.99-.78,1.36-1.79,1.36s-1.66-.32-1.79-1.16l.8-.24Zm6.34,1.13c-.3.18-.69.27-1.12.27-.83,0-1.33-.44-1.33-1.3v-2.72h-.67v-.72h.67v-.98l.91-.11v1.09h1.37v.72h-1.38v2.54c0,.5.23.71.61.71.3,0,.51-.08.77-.25l.17.75Zm2.78-2.19c0-1.57.83-2.39,2.1-2.39s2.11.82,2.11,2.39-.83,2.46-2.11,2.46-2.1-.88-2.1-2.46Zm.89,0c0,1.16.41,1.74,1.21,1.74s1.22-.58,1.22-1.74-.42-1.67-1.22-1.67-1.21.54-1.21,1.67Zm7.05-1.38c-.11-.02-.26-.04-.41-.04-.65,0-1.28.51-1.28,1.41v2.34h-.9v-4.62h.76l.11,1.25c.18-.83.76-1.4,1.79-1.35l-.07,1.01Zm3.74-2.97h.91v6.68h-.8l-.1-.8c-.26.7-.81.92-1.47.92-.97,0-1.83-.79-1.83-2.35s.75-2.5,2.07-2.5c.59,0,1.09.33,1.22.73v-2.68Zm0,3.82c0-.82-.62-1.17-1.15-1.17-.68,0-1.24.47-1.24,1.77,0,1.09.48,1.67,1.23,1.67.51,0,1.16-.41,1.16-1.25v-1.02Zm5.16,1.52l.79.21c-.19.93-.97,1.25-1.85,1.25-1.23,0-2.06-.85-2.06-2.39s.82-2.46,2.11-2.46c1.19,0,1.83.82,1.83,1.97,0,.26-.04.5-.09.64h-2.98c.04.9.46,1.53,1.24,1.53.51,0,.85-.2,1.01-.75Zm-.07-1.43c0-.07,0-.13,0-.19,0-.59-.38-1.06-1-1.06-.66,0-1.08.45-1.17,1.25h2.16Zm4.62-.94c-.11-.02-.26-.04-.41-.04-.65,0-1.28.51-1.28,1.41v2.34h-.9v-4.62h.76l.11,1.25c.18-.83.76-1.4,1.79-1.35l-.07,1.01Z" style="fill:#32406d; stroke-width:0px;"/><path d="m183.92,166.19l.79.21c-.19.93-.97,1.25-1.85,1.25-1.23,0-2.06-.85-2.06-2.39s.82-2.46,2.11-2.46c1.19,0,1.83.82,1.83,1.97,0,.26-.04.5-.09.64h-2.98c.04.9.46,1.53,1.24,1.53.51,0,.85-.2,1.01-.75Zm-.07-1.43c0-.07,0-.13,0-.19,0-.59-.38-1.06-1-1.06-.66,0-1.08.45-1.17,1.25h2.16Z" style="fill:#32406d; stroke-width:0px;"/><path d="m186.88,163.63v3.9h-.91v-3.9h-.67v-.72h.67v-.48c0-1.2.76-1.56,1.49-1.56.4,0,.59.06.84.18l-.17.78c-.22-.15-.39-.2-.63-.2-.4,0-.62.24-.62.78v.5h1.62v-.52c0-1.21.78-1.61,1.59-1.61.36,0,.68.07.95.18l-.17.8c-.24-.14-.44-.21-.73-.21-.45,0-.74.23-.74.89v.47h1.18v.72h-1.18v3.9h-.9v-3.9h-1.62Z" style="fill:#32406d; stroke-width:0px;"/><path d="m194.06,166.19l.79.21c-.19.93-.97,1.25-1.85,1.25-1.23,0-2.06-.85-2.06-2.39s.82-2.46,2.11-2.46c1.19,0,1.83.82,1.83,1.97,0,.26-.04.5-.09.64h-2.98c.04.9.46,1.53,1.24,1.53.51,0,.85-.2,1.01-.75Zm-.07-1.43c0-.07,0-.13,0-.19,0-.59-.38-1.06-1-1.06-.66,0-1.08.45-1.17,1.25h2.16Z" style="fill:#32406d; stroke-width:0px;"/><path d="m199.57,166.36c-.16.93-.9,1.29-1.81,1.29-1.21,0-2.04-.86-2.04-2.4s.83-2.45,2.11-2.45c.98,0,1.62.52,1.68,1.44l-.82.17c-.08-.58-.39-.87-.9-.87-.79,0-1.2.7-1.2,1.71s.48,1.68,1.24,1.68c.49,0,.82-.23.96-.76l.78.19Z" style="fill:#32406d; stroke-width:0px;"/><path d="m203.1,167.38c-.3.18-.69.27-1.12.27-.83,0-1.33-.44-1.33-1.3v-2.72h-.67v-.72h.67v-.98l.91-.11v1.09h1.37v.72h-1.38v2.54c0,.5.23.71.61.71.3,0,.51-.08.77-.25l.17.75Z" style="fill:#32406d; stroke-width:0px;"/><path d="m204.32,166.25c.07.53.45.76,1,.76s.92-.2.92-.62c0-.38-.17-.59-.72-.73l-.68-.16c-.84-.2-1.16-.63-1.16-1.31,0-1.04.86-1.39,1.74-1.39.97,0,1.57.35,1.66,1.25l-.88.1c-.03-.46-.31-.67-.84-.67s-.81.23-.81.62c0,.33.13.54.63.65l.64.15c.82.2,1.28.58,1.28,1.39,0,.99-.78,1.36-1.79,1.36s-1.66-.32-1.79-1.16l.8-.24Z" style="fill:#32406d; stroke-width:0px;"/><polyline points="167.67 210.74 49.5 210.74 49.5 242.47" style="fill:none; stroke:#32406d;"/><polygon points="49.5 245.86 53.17 241.91 45.82 241.91 49.5 245.86" style="fill:#32406d; stroke-width:0px;"/><polyline points="167.67 206.66 49.5 206.66 49.5 174.94" style="fill:none; stroke:#32406d;"/><polygon points="49.5 171.54 53.17 175.49 45.82 175.49 49.5 171.54" style="fill:#32406d; stroke-width:0px;"/><polyline points="220.11 210.74 338.29 210.74 338.29 242.47" style="fill:none; stroke:#32406d;"/><polygon points="338.29 245.86 334.61 241.91 341.96 241.91 338.29 245.86" style="fill:#32406d; stroke-width:0px;"/><polyline points="220.11 206.66 338.29 206.66 338.29 174.94" style="fill:none; stroke:#32406d;"/><polygon points="338.29 171.54 334.61 175.49 341.96 175.49 338.29 171.54" style="fill:#32406d; stroke-width:0px;"/><polyline points="220.11 214.79 269.77 214.79 269.77 243.01" style="fill:none; stroke:#32406d;"/><polygon points="269.77 246.41 266.1 242.46 273.45 242.46 269.77 246.41" style="fill:#32406d; stroke-width:0px;"/><polyline points="167.67 214.79 118.01 214.79 118.01 243.01" style="fill:none; stroke:#32406d;"/><polygon points="118.01 246.41 121.69 242.46 114.34 242.46 118.01 246.41" style="fill:#32406d; stroke-width:0px;"/><polyline points="220.11 203.16 269.77 203.16 269.77 174.94" style="fill:none; stroke:#32406d;"/><polygon points="269.77 171.54 266.1 175.49 273.45 175.49 269.77 171.54" style="fill:#32406d; stroke-width:0px;"/><polyline points="167.67 203.16 118.01 203.16 118.01 174.94" style="fill:none; stroke:#32406d;"/><polygon points="118.01 171.54 121.69 175.49 114.34 175.49 118.01 171.54" style="fill:#32406d; stroke-width:0px;"/><g style="clip-path:url(#h);"><rect x="10.85" y="239.29" width="67.52" height="44" style="fill:none; stroke:#fac9d0;"/></g><rect x="89.16" y="239.29" width="67.52" height="44" style="fill:none; stroke:#fac9d0;"/><g style="clip-path:url(#i);"><rect x="59.8" y="359.29" width="47.94" height="44" style="fill:none; stroke:#fac9d0;"/></g><rect x="231.1" y="239.29" width="67.52" height="44" style="fill:none; stroke:#fac9d0;"/><g style="clip-path:url(#j);"><rect x="309.41" y="239.29" width="67.52" height="44" style="fill:none; stroke:#fac9d0;"/><rect x="280.05" y="359.29" width="47.94" height="44" style="fill:none; stroke:#fac9d0;"/></g><line x1="48.9" y1="343.23" x2="70.9" y2="363.38" style="fill:none; stroke:#32406d;"/><polygon points="73.4 365.68 72.97 360.3 68.01 365.72 73.4 365.68" style="fill:#32406d; stroke-width:0px;"/><rect x="20.64" y="299.29" width="57.73" height="44" style="fill:none; stroke:#fac9d0;"/><line x1="49.51" y1="283.79" x2="49.51" y2="302.44" style="fill:none; stroke:#32406d;"/><polygon points="49.51 305.84 53.18 301.89 45.83 301.89 49.51 305.84" style="fill:#32406d; stroke-width:0px;"/><line x1="49.51" y1="283.79" x2="49.51" y2="302.44" style="fill:none; stroke:#32406d;"/><polygon points="49.51 305.84 53.18 301.89 45.83 301.89 49.51 305.84" style="fill:#32406d; stroke-width:0px;"/><line x1="118.54" y1="343.23" x2="96.72" y2="363.94" style="fill:none; stroke:#32406d;"/><polygon points="94.26 366.28 99.65 366.23 94.59 360.9 94.26 366.28" style="fill:#32406d; stroke-width:0px;"/><rect x="89.16" y="299.29" width="57.73" height="44" style="fill:none; stroke:#fac9d0;"/><line x1="118.03" y1="283.79" x2="118.03" y2="302.44" style="fill:none; stroke:#32406d;"/><polygon points="118.03 305.84 121.71 301.89 114.36 301.89 118.03 305.84" style="fill:#32406d; stroke-width:0px;"/><line x1="118.03" y1="283.79" x2="118.03" y2="302.44" style="fill:none; stroke:#32406d;"/><polygon points="118.03 305.84 121.71 301.89 114.36 301.89 118.03 305.84" style="fill:#32406d; stroke-width:0px;"/><line x1="269.15" y1="343.23" x2="291.15" y2="363.38" style="fill:none; stroke:#32406d;"/><polygon points="293.65 365.68 293.22 360.3 288.25 365.72 293.65 365.68" style="fill:#32406d; stroke-width:0px;"/><line x1="338.78" y1="343.23" x2="316.97" y2="363.94" style="fill:none; stroke:#32406d;"/><polygon points="314.51 366.28 319.9 366.23 314.84 360.9 314.51 366.28" style="fill:#32406d; stroke-width:0px;"/><rect x="240.89" y="299.29" width="57.73" height="44" style="fill:none; stroke:#fac9d0;"/><rect x="309.41" y="299.29" width="57.73" height="44" style="fill:none; stroke:#fac9d0;"/><line x1="269.76" y1="283.79" x2="269.76" y2="302.44" style="fill:none; stroke:#32406d;"/><polygon points="269.76 305.84 273.43 301.89 266.08 301.89 269.76 305.84" style="fill:#32406d; stroke-width:0px;"/><line x1="269.76" y1="283.79" x2="269.76" y2="302.44" style="fill:none; stroke:#32406d;"/><polygon points="269.76 305.84 273.43 301.89 266.08 301.89 269.76 305.84" style="fill:#32406d; stroke-width:0px;"/><line x1="338.28" y1="283.79" x2="338.28" y2="302.44" style="fill:none; stroke:#32406d;"/><polygon points="338.28 305.84 341.95 301.89 334.6 301.89 338.28 305.84" style="fill:#32406d; stroke-width:0px;"/><line x1="338.28" y1="283.79" x2="338.28" y2="302.44" style="fill:none; stroke:#32406d;"/><polygon points="338.28 305.84 341.95 301.89 334.6 301.89 338.28 305.84" style="fill:#32406d; stroke-width:0px;"/><g style="clip-path:url(#k);"><rect x="10.85" y="134.14" width="67.52" height="44" style="fill:none; stroke:#8e9ace;"/></g><rect x="89.16" y="134.14" width="67.52" height="44" style="fill:none; stroke:#8e9ace;"/><rect x="59.8" y="14.14" width="47.94" height="44" style="fill:none; stroke:#8e9ace;"/><rect x="231.1" y="134.14" width="67.52" height="44" style="fill:none; stroke:#8e9ace;"/><g style="clip-path:url(#l);"><rect x="309.41" y="134.14" width="67.52" height="44" style="fill:none; stroke:#8e9ace;"/></g><rect x="240.89" y="74.14" width="57.73" height="44" style="fill:none; stroke:#8e9ace;"/><rect x="309.41" y="74.14" width="57.73" height="44" style="fill:none; stroke:#8e9ace;"/><rect x="280.05" y="14.14" width="47.94" height="44" style="fill:none; stroke:#8e9ace;"/><line x1="48.9" y1="74.18" x2="70.9" y2="54.03" style="fill:none; stroke:#32406d;"/><polygon points="73.4 51.74 68.01 51.7 72.97 57.12 73.4 51.74" style="fill:#32406d; stroke-width:0px;"/><line x1="118.55" y1="74.18" x2="96.72" y2="53.48" style="fill:none; stroke:#32406d;"/><polygon points="94.26 51.14 94.59 56.53 99.65 51.19 94.26 51.14" style="fill:#32406d; stroke-width:0px;"/><rect x="20.64" y="74.14" width="57.73" height="44" style="fill:none; stroke:#8e9ace;"/><rect x="89.16" y="74.14" width="57.73" height="44" style="fill:none; stroke:#8e9ace;"/><line x1="49.51" y1="133.79" x2="49.51" y2="115.13" style="fill:none; stroke:#32406d;"/><polygon points="49.51 111.73 53.18 115.68 45.83 115.68 49.51 111.73" style="fill:#32406d; stroke-width:0px;"/><line x1="118.03" y1="133.79" x2="118.03" y2="115.13" style="fill:none; stroke:#32406d;"/><polygon points="118.03 111.73 121.71 115.68 114.36 115.68 118.03 111.73" style="fill:#32406d; stroke-width:0px;"/><line x1="118.03" y1="133.79" x2="118.03" y2="115.13" style="fill:none; stroke:#32406d;"/><polygon points="118.03 111.73 121.71 115.68 114.36 115.68 118.03 111.73" style="fill:#32406d; stroke-width:0px;"/><line x1="269.15" y1="74.18" x2="291.15" y2="54.03" style="fill:none; stroke:#32406d;"/><polygon points="293.65 51.74 288.25 51.7 293.22 57.12 293.65 51.74" style="fill:#32406d; stroke-width:0px;"/><line x1="338.8" y1="74.18" x2="316.97" y2="53.48" style="fill:none; stroke:#32406d;"/><polygon points="314.5 51.14 314.84 56.53 319.9 51.19 314.5 51.14" style="fill:#32406d; stroke-width:0px;"/><line x1="269.76" y1="133.79" x2="269.76" y2="115.13" style="fill:none; stroke:#32406d;"/><polygon points="269.76 111.73 273.43 115.68 266.08 115.68 269.76 111.73" style="fill:#32406d; stroke-width:0px;"/><line x1="338.28" y1="133.79" x2="338.28" y2="115.13" style="fill:none; stroke:#32406d;"/><polygon points="338.28 111.73 341.95 115.68 334.6 115.68 338.28 111.73" style="fill:#32406d; stroke-width:0px;"/><line x1="338.28" y1="133.79" x2="338.28" y2="115.13" style="fill:none; stroke:#32406d;"/><polygon points="338.28 111.73 341.95 115.68 334.6 115.68 338.28 111.73" style="fill:#32406d; stroke-width:0px;"/></svg>