<?xml version="1.0" encoding="UTF-8"?><svg xmlns="http://www.w3.org/2000/svg" xmlns:xlink="http://www.w3.org/1999/xlink" viewBox="0 0 375.65 353.2"><defs><clipPath id="g"><path d="m68.36,225.44h0c-8.56-6.73-11.87-16.81-7.38-22.51l81.94-87.84,16.01,12.57-66.94,99.62c-4.48,5.71-15.06,4.89-23.62-1.84Z" style="clip-rule:evenodd; fill:none;"/></clipPath><clipPath id="h"><path d="m124.56,177.06l-32.06,47.71c-4.48,5.71-15.06,4.89-23.62-1.84h0c-8.56-6.73-11.87-16.81-7.38-22.51l81.94-87.84,16.01,12.57-34.88,51.91" style="clip-rule:evenodd; fill:none; stroke:#32406d; stroke-miterlimit:10;"/></clipPath></defs><g id="d"><g><rect x="191.58" y="12.83" width="111.97" height="209.94" style="fill:#fac9d0;"/><polygon points="303.54 222.77 250.74 195.86 250.74 39.73 303.54 12.83 303.54 222.77" style="fill:#f6a7b5;"/><rect x="255.39" y="112.67" width="3.74" height="8.76" style="fill:#32406d;"/></g><path d="m252.37,280.63l1.34,1.04,11.64,9.09,34.64,27.02c3.53,2.75,4.26,7.81,1.64,11.45s-7.65,4.56-11.39,2.09l-36.61-24.27-12.32-8.16-1.4-.93,12.47-17.32Z" style="fill:#fac9d0; fill-rule:evenodd;"/><path d="m253.71,281.67c-.46,3.55-1.77,7.06-4.01,10.17-2.25,3.12-5.16,5.48-8.4,7.04-1.5.72-3.07,1.26-4.69,1.63-3.93.9-8.1.74-12.02-.58-.55-.18-1.09-.39-1.63-.62-.61-.26-1.22-.54-1.81-.88-.85-.44-1.68-.96-2.48-1.54-9.96-7.17-12.21-21.05-5.04-31.01,7.17-9.97,21.04-12.23,31.01-5.05.5.35.97.73,1.43,1.12.81.68,1.55,1.41,2.23,2.18.14.16.27.31.4.47,3.17,3.78,4.94,8.46,5.16,13.25.05,1.26.01,2.54-.15,3.82Z" style="fill:#fac9d0; fill-rule:evenodd;"/></g><g id="e"><g><rect x="189.72" y="10.46" width="111.97" height="209.94" style="fill:none; stroke:#32406d; stroke-miterlimit:10;"/><polygon points="301.69 220.4 248.89 193.49 248.89 37.36 301.69 10.46 301.69 220.4" style="fill:none; stroke:#32406d; stroke-miterlimit:10;"/><rect x="253.53" y="110.3" width="3.74" height="8.76" style="fill:none; stroke:#32406d; stroke-miterlimit:10;"/></g><path d="m252.39,280.84l11.64,9.09,34.64,27.02c3.53,2.75,4.26,7.81,1.64,11.45-2.62,3.64-7.65,4.56-11.39,2.09l-36.61-24.27-12.32-8.16" style="fill:none; fill-rule:evenodd; stroke:#32406d; stroke-miterlimit:10;"/><path d="m240.25,298.44c-1.51.72-3.85,1.64-5.47,2-4.48,1.03-9.27.68-13.65-1.2-1.49-.62-2.93-1.44-4.29-2.42-9.96-7.17-12.21-21.05-5.04-31.02,7.17-9.96,21.04-12.22,31-5.05,1.37.99,2.6,2.1,3.67,3.31,3.42,3.86,5.33,8.73,5.55,13.71.05,1.27-.03,3.29-.19,4.57" style="fill:none; fill-rule:evenodd; stroke:#32406d; stroke-miterlimit:10;"/><path d="m248.7,264.6c-1.2,7.36-4.3,14.67-9.05,21.26-4.21,5.84-9.35,10.64-15.06,14.07-.55-.18-1.09-.39-1.63-.62-.61-.26-1.22-.54-1.81-.88,6.11-3.25,11.64-8.17,16.07-14.33,4.95-6.87,8-14.53,8.83-22.15h.02c.81.68,1.55,1.41,2.23,2.18.14.16.27.31.4.47Z" style="fill:#32406d;"/></g><g id="f"><g><g><path d="m68.36,225.44h0c-8.56-6.73-11.87-16.81-7.38-22.51l81.94-87.84,16.01,12.57-66.94,99.62c-4.48,5.71-15.06,4.89-23.62-1.84Z" style="fill:#fac9d0; fill-rule:evenodd;"/><g style="clip-path:url(#g);"><circle cx="183.41" cy="78.96" r="88.02" style="fill:#fff;"/></g><path d="m68.88,222.93h0c-8.56-6.73-11.87-16.81-7.38-22.51l81.94-87.84,16.01,12.57-66.94,99.62c-4.48,5.71-15.06,4.89-23.62-1.84Z" style="fill:none; fill-rule:evenodd; stroke:#32406d; stroke-miterlimit:10;"/><g><g style="clip-path:url(#h);"><circle cx="183.93" cy="76.45" r="88.02" style="fill:none; stroke:#32406d; stroke-miterlimit:10;"/></g><path d="m124.56,177.06l-32.06,47.71c-4.48,5.71-15.06,4.89-23.62-1.84h0c-8.56-6.73-11.87-16.81-7.38-22.51l81.94-87.84,16.01,12.57-34.88,51.91" style="fill:none; fill-rule:evenodd; stroke:#32406d; stroke-miterlimit:10;"/></g><path d="m140.02,132.37c-7.8-6.13-13.64-13.83-17.41-22.3-8.62-19.32-6.52-42.66,7.46-60.46,20.11-25.6,57.16-30.05,82.76-9.94,7.8,6.13,13.64,13.83,17.41,22.29h0c8.62,19.34,6.51,42.67-7.47,60.46-20.1,25.6-57.16,30.05-82.75,9.95Z" style="fill:none; fill-rule:evenodd; stroke:#32406d; stroke-miterlimit:10;"/><path d="m225.18,124.31c14.25-18.14,17.26-42.51,7.86-63.59-4.07-9.13-10.41-17.24-18.32-23.46-13.02-10.23-29.24-14.77-45.68-12.8-16.44,1.97-31.13,10.24-41.36,23.26-14.26,18.14-17.26,42.51-7.86,63.59,4.07,9.13,10.4,17.25,18.31,23.45,13.03,10.23,29.25,14.77,45.69,12.8,16.44-1.97,31.13-10.23,41.36-23.26Zm-85.16,8.06c-7.8-6.13-13.64-13.83-17.41-22.3-8.62-19.32-6.52-42.66,7.46-60.46,20.11-25.6,57.16-30.05,82.76-9.94,7.8,6.13,13.64,13.83,17.41,22.29h0c8.62,19.34,6.51,42.67-7.47,60.46-20.1,25.6-57.16,30.05-82.75,9.95Z" style="fill:#32406d;"/><path d="m140.02,132.37c-7.8-6.13-13.64-13.83-17.41-22.3-8.62-19.32-6.52-42.66,7.46-60.46,20.11-25.6,57.16-30.05,82.76-9.94,7.8,6.13,13.64,13.83,17.41,22.29h0c8.62,19.34,6.51,42.67-7.47,60.46-20.1,25.6-57.16,30.05-82.75,9.95Z" style="fill:#fff;"/></g><g><g><path d="m164.96,59.55h0c7.18,0,13.01,5.83,13.01,13.01v9.25h-26.01v-9.25c0-7.18,5.83-13.01,13.01-13.01Z" style="fill:#fac9d0; stroke:#fff; stroke-miterlimit:10;"/><circle cx="164.96" cy="51.38" r="9.95" style="fill:#fac9d0; stroke:#fff; stroke-miterlimit:10;"/></g><g><path d="m195,59.55h0c7.18,0,13.01,5.83,13.01,13.01v9.25h-26.01v-9.25c0-7.18,5.83-13.01,13.01-13.01Z" style="fill:#fac9d0; stroke:#fff; stroke-miterlimit:10;"/><circle cx="195" cy="51.38" r="9.95" style="fill:#fac9d0; stroke:#fff; stroke-miterlimit:10;"/></g><g><path d="m149.94,84.36h0c7.18,0,13.01,5.83,13.01,13.01v9.25h-26.01v-9.25c0-7.18,5.83-13.01,13.01-13.01Z" style="fill:#fac9d0; stroke:#fff; stroke-miterlimit:10;"/><circle cx="149.94" cy="76.19" r="9.95" style="fill:#fac9d0; stroke:#fff; stroke-miterlimit:10;"/></g><g><path d="m205.7,84.06h0c7.18,0,13.01,5.83,13.01,13.01v9.25h-26.01v-9.25c0-7.18,5.83-13.01,13.01-13.01Z" style="fill:#fac9d0; stroke:#fff; stroke-miterlimit:10;"/><circle cx="205.7" cy="75.89" r="9.95" style="fill:#fac9d0; stroke:#fff; stroke-miterlimit:10;"/></g><g><path d="m151.49,65.57c1.49-3.28,4.3-5.83,7.75-6.98" style="fill:none; stroke:#32406d; stroke-miterlimit:10;"/><line x1="170.65" y1="80.18" x2="156.06" y2="80.18" style="fill:none; stroke:#32406d; stroke-miterlimit:10;"/><path d="m167.53,58.62c3.07,1.04,5.63,3.21,7.19,6.01" style="fill:none; stroke:#32406d; stroke-miterlimit:10;"/><circle cx="163.34" cy="49.76" r="9.95" style="fill:none; stroke:#32406d; stroke-miterlimit:10;"/></g><g><line x1="195.75" y1="80.18" x2="185.21" y2="80.18" style="fill:none; stroke:#32406d; stroke-miterlimit:10;"/><path d="m197.57,58.62c3.17,1.08,5.79,3.34,7.33,6.27" style="fill:none; stroke:#32406d; stroke-miterlimit:10;"/><path d="m181.88,64.85c1.54-2.91,4.16-5.17,7.32-6.24" style="fill:none; stroke:#32406d; stroke-miterlimit:10;"/><circle cx="193.39" cy="49.76" r="9.95" style="fill:none; stroke:#32406d; stroke-miterlimit:10;"/></g><g><path d="m151.01,104.99h-15.7v-9.25c0-5.51,3.42-10.22,8.26-12.11" style="fill:none; stroke:#32406d; stroke-miterlimit:10;"/><path d="m143.93,83.5c-3.29-1.62-5.56-5.01-5.56-8.93,0-5.49,4.45-9.95,9.95-9.95s9.95,4.45,9.95,9.95-4.45,9.95-9.95,9.95c-1.58,0-3.06-.37-4.39-1.02" style="fill:none; stroke:#32406d; stroke-miterlimit:10;"/></g><g><path d="m209.15,83.64c4.82,1.9,8.23,6.6,8.23,12.1v9.25h-26.01v-9.25c0-5.45,3.35-10.27,8.11-12.2" style="fill:none; stroke:#32406d; stroke-miterlimit:10;"/><circle cx="204.38" cy="74.57" r="9.95" style="fill:none; stroke:#32406d; stroke-miterlimit:10;"/></g><g><path d="m167.77,86.33c2.38-2.57,6.42-4.45,10.19-4.45h0c2.96,0,5.68.99,7.86,2.65" style="fill:#fff; stroke:#32406d; stroke-miterlimit:10;"/><polyline points="190.97 94.88 190.97 104.13 169.98 104.13" style="fill:#fff; stroke:#32406d; stroke-miterlimit:10;"/><circle cx="177.97" cy="73.71" r="9.95" style="fill:#fff; stroke:#32406d; stroke-miterlimit:10;"/></g><g><path d="m162.49,101.91h0c7.18,0,13.01,5.83,13.01,13.01v9.25h-26.01v-9.25c0-7.18,5.83-13.01,13.01-13.01Z" style="fill:#fac9d0; stroke:#fff; stroke-miterlimit:10;"/><circle cx="162.49" cy="93.74" r="9.95" style="fill:#fac9d0; stroke:#fff; stroke-miterlimit:10;"/></g><g><path d="m192.54,101.76h0c7.18,0,13.01,5.83,13.01,13.01v9.25h-26.01v-9.25c0-7.18,5.83-13.01,13.01-13.01Z" style="fill:#fac9d0; stroke:#fff; stroke-miterlimit:10;"/><circle cx="192.54" cy="93.59" r="9.95" style="fill:#fac9d0; stroke:#fff; stroke-miterlimit:10;"/></g><g><path d="m165.47,101.11c5.15,1.73,8.86,6.6,8.86,12.33v9.25h-26.01v-9.25c0-5.66,3.62-10.48,8.67-12.26" style="fill:none; stroke:#32406d; stroke-miterlimit:10;"/><path d="m165.24,101.42c-1.2.52-2.53.8-3.92.8-5.49,0-9.95-4.45-9.95-9.95s4.45-9.95,9.95-9.95c3.07,0,5.81,1.39,7.64,3.57" style="fill:none; stroke:#32406d; stroke-miterlimit:10;"/><path d="m168.96,85.89c1.44,1.73,2.31,3.95,2.31,6.38,0,4.1-2.48,7.63-6.03,9.15" style="fill:none; stroke:#32406d; stroke-miterlimit:10;"/></g><g><path d="m195.7,101.07c5.21,1.7,8.97,6.59,8.97,12.37v9.25h-26.01v-9.25c0-5.72,3.69-10.58,8.83-12.32" style="fill:none; stroke:#32406d; stroke-miterlimit:10;"/><circle cx="191.67" cy="92.27" r="9.95" style="fill:none; stroke:#32406d; stroke-miterlimit:10;"/></g></g></g><rect x="236.79" y="287.88" width="33.24" height="14.35" transform="translate(-134.11 328.33) rotate(-54.25)" style="fill:#fff;"/><rect x="234.96" y="287.82" width="33.24" height="14.35" transform="translate(-134.81 326.81) rotate(-54.25)" style="fill:none; stroke:#32406d; stroke-miterlimit:10;"/><path d="m172.47,321.14l1.43-35.54c2.25.25,5.79.57,9.42.57,7.97,0,12.55-1.57,14.01-4.8.3-.67.56-1.48.77-2.41h-6.5c-2.64,0-5.02-1.07-6.75-2.8-1.72-1.73-2.79-4.11-2.79-6.74h16.97c.1-4.74-.14-9.56-.31-12.37,8.06-.45,16.88-1.89,18-5.97.82-2.98-1.81-7.14-6.52-14.23-2.77-4.17-5.63-8.48-6.93-11.83-2.03-5.21-1.5-9.58-1.03-13.43.21-1.71.4-3.33.35-4.87-.01-.32-1.49-32.06-41.21-42.69-5.69-1.53-11.51-2.3-17.29-2.3-30.96,0-56.31,22-58.96,51.16-2.96,32.52,21.7,57.98,26.66,62.75l-1.45,16.13,62.12,29.37Z" style="fill:#fff;"/><path d="m216.69,254.36c-1.12,4.08-9.94,5.52-18,5.98.14,2.16.31,5.51.33,9.1h-17.29c0,2.64,1.07,5.01,2.79,6.74,1.73,1.73,4.12,2.8,6.75,2.8h7.35c-.26,2.3-.68,4.29-1.31,5.67-1.46,3.23-6.05,4.8-14.02,4.8-3.63,0-7.16-.32-9.41-.57l-1.96,47.72c-.04.59-.33,1.16-.79,1.55-.4.33-.91.52-1.44.52-.08,0-.15-.01-.23-.01l-58.3-33.84c-1.21-.12-2.1-1.96-2-3.17l2.61-22.72c-4.96-4.77-29.61-30.21-26.65-62.73,2.65-29.15,28-51.14,58.93-51.14,5.77,0,11.59.77,17.29,2.29,39.7,10.63,41.18,42.36,41.19,42.68.05,1.53-.15,3.16-.36,4.87-.46,3.85-.99,8.21,1.03,13.42,1.31,3.36,4.16,7.66,6.94,11.83,4.71,7.09,7.34,11.24,6.52,14.22Z" style="fill:#ef4d7f;"/><path d="m172.14,321.14l1.43-35.54c2.25.25,5.79.57,9.42.57,7.97,0,12.55-1.57,14.01-4.8.3-.67.56-1.48.77-2.41h-6.5c-2.64,0-5.02-1.07-6.75-2.8-1.72-1.73-2.79-4.11-2.79-6.74h16.97c.1-4.74-.14-9.56-.31-12.37,8.06-.45,16.88-1.89,18-5.97.82-2.98-1.81-7.14-6.52-14.23-2.77-4.17-5.63-8.48-6.93-11.83-2.03-5.21-1.5-9.58-1.03-13.43.21-1.71.4-3.33.35-4.87-.01-.32-1.49-32.06-41.21-42.69-5.69-1.53-11.51-2.3-17.29-2.3-30.96,0-56.31,22-58.96,51.16-2.96,32.52,21.7,57.98,26.66,62.75l-1.45,16.13" style="fill:none; stroke:#32406d; stroke-miterlimit:10;"/></g></svg>