<svg width="483" height="483" viewBox="0 0 483 483" fill="none" xmlns="http://www.w3.org/2000/svg">
<path d="M124 120.5L362 359" stroke="#FBF0F3"/>
<path d="M120 358.5L358 120.5" stroke="#FBF0F3"/>
<rect x="159.078" y="240.827" width="119.239" height="119.239" transform="rotate(-45 159.078 240.827)" fill="#D75178"/>
<path d="M220.374 82.2865L221.6 82.065C221.583 83.3767 222.332 83.9217 223.593 83.9217C224.871 83.9217 225.688 83.3596 225.688 82.1161C225.688 81.077 225.228 80.6171 223.848 80.0891C222.622 79.6121 221.566 79.0841 221.566 77.3977C221.566 75.2003 223.508 74.5019 224.905 74.5019C226.846 74.5019 227.937 75.2003 227.937 77.1422L226.659 77.3466C226.693 76.1712 226.046 75.5239 224.802 75.5239C223.644 75.5239 222.826 76.1542 222.826 77.2103C222.826 78.2664 223.457 78.5219 224.7 79.033C226.165 79.6462 227.034 80.3105 227.034 81.9458C227.034 84.041 225.382 84.9438 223.457 84.9438C221.464 84.9438 220.374 84.1262 220.374 82.2865ZM232.425 83.4618V84.552C231.948 84.8246 231.335 84.9438 230.875 84.9438C229.547 84.9438 228.831 84.2284 229.138 82.559L229.955 77.9087H228.865L229.053 76.8696H230.16L230.449 75.2173L231.761 75.0299L231.437 76.8696H233.499L233.311 77.9087H231.267L230.415 82.6953C230.262 83.53 230.62 83.8536 231.08 83.8536C231.557 83.8536 231.88 83.7684 232.425 83.4618ZM239.303 81.4518L239.542 80.1231C239.746 78.9307 239.252 77.7043 237.991 77.7043C236.424 77.7043 235.266 79.3225 235.266 81.571C235.266 82.8997 235.845 83.8706 237.003 83.8706C238.196 83.8706 239.048 82.9508 239.303 81.4518ZM241.415 76.8696L240.325 83.053C240.257 83.4448 240.274 83.8195 240.768 83.8195C240.904 83.8195 241.058 83.8025 241.262 83.7514L241.092 84.6883C240.853 84.7734 240.564 84.8246 240.274 84.8246C239.422 84.8246 238.979 84.3306 239.048 83.4278C238.571 84.5009 237.634 84.9438 236.646 84.9438C235.13 84.9438 234.005 83.8025 234.005 81.7243C234.005 79.033 235.556 76.6822 237.872 76.6822C238.962 76.6822 239.712 77.1592 239.916 78.1983L240.342 76.8696H241.415ZM248.253 81.5029L248.508 80.1231C248.713 78.9478 248.253 77.7043 246.975 77.7043C245.357 77.7043 244.216 79.3566 244.216 81.5881C244.216 82.9167 244.761 83.8706 245.936 83.8706C247.179 83.8706 247.997 82.9849 248.253 81.5029ZM250.365 76.8696L248.934 84.9949C248.525 87.2604 247.418 88.3336 245.118 88.3336C243.023 88.3336 242.24 87.3115 242.103 86.1532L243.262 85.7614C243.33 86.6642 244.028 87.3797 245.204 87.3797C246.668 87.3797 247.333 86.528 247.622 85.046L247.929 83.4618C247.452 84.535 246.634 84.9268 245.629 84.9268C244.096 84.9268 242.955 83.7855 242.955 81.7073C242.955 79.033 244.539 76.6822 246.873 76.6822C247.963 76.6822 248.661 77.1592 248.866 78.1983L249.292 76.8696H250.365ZM254.589 83.9388C255.765 83.9388 256.242 83.4448 256.531 82.5931L257.707 82.8827C257.127 84.4839 256.003 84.9438 254.47 84.9438C252.579 84.9438 251.472 83.6151 251.472 81.6051C251.472 78.4027 253.414 76.6822 255.305 76.6822C257.315 76.6822 258.098 78.045 258.098 79.4929C258.098 80.038 257.996 80.5831 257.758 81.0941H252.682C252.562 82.4738 253.09 83.9388 254.589 83.9388ZM252.835 80.055H256.77C256.838 79.8676 256.855 79.6632 256.855 79.4588C256.855 78.5219 256.344 77.7043 255.237 77.7043C253.925 77.7043 253.141 78.8115 252.835 80.055ZM265.808 84.7394H264.479L265.689 77.8235L263.202 78.2835L263.406 77.1933L267.273 76.4097L265.808 84.7394Z" fill="#363C65"/>
<path d="M192.453 105.495V107.505H185.725V97.4721H192.453V99.4821H188.042V101.475H191.925V103.4H188.042V105.495H192.453ZM193.62 105.683L195.493 104.933C195.664 105.785 196.277 106.108 197.026 106.108C197.657 106.108 198.099 105.887 198.099 105.427C198.099 104.984 197.793 104.78 197.094 104.609L195.936 104.337C194.556 103.979 193.926 103.196 193.926 102.003C193.926 100.01 195.51 99.4481 197.129 99.4481C199.002 99.4481 200.127 100.129 200.246 101.662L198.117 101.969C198.031 101.339 197.674 101.134 197.026 101.134C196.498 101.134 196.141 101.373 196.141 101.782C196.141 102.174 196.379 102.395 196.907 102.497L198.014 102.736C199.616 103.076 200.365 103.928 200.365 105.274C200.365 107.028 198.917 107.71 196.992 107.71C195.05 107.71 193.926 107.165 193.62 105.683ZM206.826 105.274L207.218 107.199C206.554 107.539 205.736 107.71 204.799 107.71C203.232 107.71 202.21 106.977 202.21 105.172V101.39H201.069V99.6354H202.227V97.9661L204.51 97.6935V99.6354H206.843V101.39H204.493V104.66C204.493 105.495 204.816 105.768 205.447 105.768C205.941 105.768 206.366 105.597 206.826 105.274ZM212.392 105.035V104.235C210.791 104.184 210.229 104.609 210.229 105.308C210.229 105.768 210.552 106.091 211.097 106.091C211.694 106.091 212.392 105.802 212.392 105.035ZM214.641 102.054V105.12C214.641 105.648 214.862 105.836 215.22 105.836C215.407 105.836 215.56 105.785 215.714 105.717V107.369C215.39 107.573 214.964 107.658 214.419 107.658C213.414 107.658 212.801 107.267 212.545 106.415C212.188 107.386 211.336 107.71 210.263 107.71C208.866 107.71 207.946 106.892 207.946 105.546C207.946 103.792 209.36 102.838 212.392 103.008V102.259C212.392 101.577 212.102 101.168 211.472 101.168C210.842 101.168 210.518 101.594 210.484 102.327L208.219 101.901C208.338 100.232 209.752 99.4481 211.557 99.4481C213.516 99.4481 214.641 100.3 214.641 102.054ZM219.342 103.127V104.286C219.342 105.631 220.176 106.074 220.841 106.074C221.812 106.074 222.629 105.257 222.629 103.587C222.629 101.952 221.999 101.271 220.994 101.271C220.159 101.271 219.342 101.935 219.342 103.127ZM219.239 106.364L218.677 107.505H217.076V96.1264H219.359V101.1C219.784 99.908 220.772 99.4481 221.897 99.4481C223.822 99.4481 224.929 100.879 224.929 103.383C224.929 105.972 223.702 107.71 221.573 107.71C220.227 107.71 219.478 107.113 219.239 106.364ZM230.016 105.546L229.897 107.454C229.454 107.573 229.028 107.658 228.585 107.658C227.444 107.658 226.405 107.13 226.405 105.648V96.1264H228.687V104.984C228.687 105.478 228.994 105.666 229.403 105.666C229.607 105.666 229.811 105.631 230.016 105.546ZM231.243 97.2336C231.243 96.3649 231.857 95.905 232.623 95.905C233.424 95.905 234.037 96.3649 234.037 97.2336C234.037 98.0683 233.424 98.5282 232.623 98.5282C231.857 98.5282 231.243 98.0683 231.243 97.2336ZM231.482 99.6354H233.764V107.505H231.482V99.6354ZM235.14 105.683L237.014 104.933C237.184 105.785 237.797 106.108 238.547 106.108C239.177 106.108 239.62 105.887 239.62 105.427C239.62 104.984 239.314 104.78 238.615 104.609L237.457 104.337C236.077 103.979 235.447 103.196 235.447 102.003C235.447 100.01 237.031 99.4481 238.649 99.4481C240.523 99.4481 241.647 100.129 241.766 101.662L239.637 101.969C239.552 101.339 239.194 101.134 238.547 101.134C238.019 101.134 237.661 101.373 237.661 101.782C237.661 102.174 237.9 102.395 238.428 102.497L239.535 102.736C241.136 103.076 241.886 103.928 241.886 105.274C241.886 107.028 240.438 107.71 238.513 107.71C236.571 107.71 235.447 107.165 235.14 105.683ZM245.775 96.1264V101.134C246.184 99.9761 247.018 99.4481 248.228 99.4481C249.437 99.4481 250.544 100.163 250.544 101.935V107.505H248.262V102.787C248.262 101.918 248.023 101.356 247.206 101.356C246.473 101.356 245.775 101.765 245.775 103.161V107.505H243.492V96.1264H245.775ZM260.217 105.035V104.235C258.616 104.184 258.054 104.609 258.054 105.308C258.054 105.768 258.378 106.091 258.923 106.091C259.519 106.091 260.217 105.802 260.217 105.035ZM262.466 102.054V105.12C262.466 105.648 262.687 105.836 263.045 105.836C263.232 105.836 263.386 105.785 263.539 105.717V107.369C263.215 107.573 262.789 107.658 262.244 107.658C261.239 107.658 260.626 107.267 260.371 106.415C260.013 107.386 259.161 107.71 258.088 107.71C256.691 107.71 255.771 106.892 255.771 105.546C255.771 103.792 257.185 102.838 260.217 103.008V102.259C260.217 101.577 259.928 101.168 259.297 101.168C258.667 101.168 258.344 101.594 258.309 102.327L256.044 101.901C256.163 100.232 257.577 99.4481 259.383 99.4481C261.342 99.4481 262.466 100.3 262.466 102.054ZM270.926 103.127V104.286C270.926 105.631 271.761 106.074 272.425 106.074C273.396 106.074 274.214 105.257 274.214 103.587C274.214 101.952 273.584 101.271 272.579 101.271C271.744 101.271 270.926 101.935 270.926 103.127ZM270.824 106.364L270.262 107.505H268.661V96.1264H270.943V101.1C271.369 99.908 272.357 99.4481 273.481 99.4481C275.406 99.4481 276.513 100.879 276.513 103.383C276.513 105.972 275.287 107.71 273.158 107.71C271.812 107.71 271.063 107.113 270.824 106.364ZM281.992 105.035V104.235C280.391 104.184 279.829 104.609 279.829 105.308C279.829 105.768 280.153 106.091 280.698 106.091C281.294 106.091 281.992 105.802 281.992 105.035ZM284.241 102.054V105.12C284.241 105.648 284.462 105.836 284.82 105.836C285.007 105.836 285.161 105.785 285.314 105.717V107.369C284.99 107.573 284.564 107.658 284.019 107.658C283.014 107.658 282.401 107.267 282.146 106.415C281.788 107.386 280.936 107.71 279.863 107.71C278.466 107.71 277.546 106.892 277.546 105.546C277.546 103.792 278.96 102.838 281.992 103.008V102.259C281.992 101.577 281.703 101.168 281.073 101.168C280.442 101.168 280.119 101.594 280.085 102.327L277.819 101.901C277.938 100.232 279.352 99.4481 281.158 99.4481C283.117 99.4481 284.241 100.3 284.241 102.054ZM285.91 105.683L287.784 104.933C287.954 105.785 288.567 106.108 289.317 106.108C289.947 106.108 290.39 105.887 290.39 105.427C290.39 104.984 290.083 104.78 289.385 104.609L288.226 104.337C286.847 103.979 286.216 103.196 286.216 102.003C286.216 100.01 287.801 99.4481 289.419 99.4481C291.293 99.4481 292.417 100.129 292.536 101.662L290.407 101.969C290.322 101.339 289.964 101.134 289.317 101.134C288.789 101.134 288.431 101.373 288.431 101.782C288.431 102.174 288.669 102.395 289.197 102.497L290.305 102.736C291.906 103.076 292.655 103.928 292.655 105.274C292.655 107.028 291.207 107.71 289.283 107.71C287.341 107.71 286.216 107.165 285.91 105.683ZM294.023 97.2336C294.023 96.3649 294.637 95.905 295.403 95.905C296.204 95.905 296.817 96.3649 296.817 97.2336C296.817 98.0683 296.204 98.5282 295.403 98.5282C294.637 98.5282 294.023 98.0683 294.023 97.2336ZM294.262 99.6354H296.544V107.505H294.262V99.6354ZM297.92 105.683L299.794 104.933C299.964 105.785 300.577 106.108 301.327 106.108C301.957 106.108 302.4 105.887 302.4 105.427C302.4 104.984 302.094 104.78 301.395 104.609L300.237 104.337C298.857 103.979 298.227 103.196 298.227 102.003C298.227 100.01 299.811 99.4481 301.429 99.4481C303.303 99.4481 304.427 100.129 304.546 101.662L302.417 101.969C302.332 101.339 301.974 101.134 301.327 101.134C300.799 101.134 300.441 101.373 300.441 101.782C300.441 102.174 300.68 102.395 301.208 102.497L302.315 102.736C303.916 103.076 304.666 103.928 304.666 105.274C304.666 107.028 303.218 107.71 301.293 107.71C299.351 107.71 298.227 107.165 297.92 105.683ZM211.593 123.39H210.435V121.635H211.593V121.056C211.593 118.791 213.024 117.99 214.744 117.99C215.511 117.99 216.107 118.109 216.652 118.365L216.328 120.256C215.937 120.034 215.528 119.915 214.983 119.915C214.318 119.915 213.858 120.17 213.858 121.124V121.635H215.868V123.39H213.858V129.505H211.593V123.39ZM220.065 129.71C217.765 129.71 216.249 128.211 216.249 125.553C216.249 122.879 217.765 121.448 220.065 121.448C222.347 121.448 223.863 122.879 223.863 125.553C223.863 128.211 222.347 129.71 220.065 129.71ZM220.065 123.271C219.008 123.271 218.497 124.003 218.497 125.553C218.497 127.189 218.991 127.938 220.065 127.938C221.121 127.938 221.615 127.189 221.615 125.553C221.615 124.003 221.104 123.271 220.065 123.271ZM230.927 121.465L230.672 123.986C230.382 123.884 230.144 123.85 229.786 123.85C228.883 123.85 227.776 124.293 227.776 125.911V129.505H225.493V121.635H227.469L227.742 123.799C228.082 122.436 228.849 121.346 230.927 121.465ZM241.033 126.235V124.77C241.033 123.611 240.283 123.134 239.5 123.134C238.597 123.134 237.728 123.782 237.728 125.638C237.728 127.12 238.392 127.955 239.466 127.955C240.249 127.955 241.033 127.376 241.033 126.235ZM241.016 122.675V118.126H243.298V129.505H241.322L241.033 128.142C240.743 129.335 239.755 129.71 238.58 129.71C236.842 129.71 235.446 128.33 235.446 125.741C235.446 123.049 236.706 121.448 238.955 121.448C239.96 121.448 240.811 121.925 241.016 122.675ZM245.2 119.234C245.2 118.365 245.813 117.905 246.58 117.905C247.38 117.905 247.994 118.365 247.994 119.234C247.994 120.068 247.38 120.528 246.58 120.528C245.813 120.528 245.2 120.068 245.2 119.234ZM245.438 121.635H247.721V129.505H245.438V121.635ZM253.713 127.035V126.235C252.112 126.184 251.55 126.609 251.55 127.308C251.55 127.768 251.873 128.091 252.418 128.091C253.015 128.091 253.713 127.802 253.713 127.035ZM255.962 124.054V127.12C255.962 127.648 256.183 127.836 256.541 127.836C256.728 127.836 256.881 127.785 257.035 127.717V129.369C256.711 129.573 256.285 129.658 255.74 129.658C254.735 129.658 254.122 129.267 253.866 128.415C253.509 129.386 252.657 129.71 251.584 129.71C250.187 129.71 249.267 128.892 249.267 127.546C249.267 125.792 250.681 124.838 253.713 125.008V124.259C253.713 123.577 253.423 123.168 252.793 123.168C252.163 123.168 251.839 123.594 251.805 124.327L249.54 123.901C249.659 122.232 251.073 121.448 252.878 121.448C254.837 121.448 255.962 122.3 255.962 124.054ZM261.855 127.546L261.736 129.454C261.293 129.573 260.867 129.658 260.424 129.658C259.283 129.658 258.244 129.13 258.244 127.648V118.126H260.526V126.984C260.526 127.478 260.833 127.666 261.242 127.666C261.446 127.666 261.651 127.631 261.855 127.546ZM266.459 129.71C264.16 129.71 262.644 128.211 262.644 125.553C262.644 122.879 264.16 121.448 266.459 121.448C268.742 121.448 270.258 122.879 270.258 125.553C270.258 128.211 268.742 129.71 266.459 129.71ZM266.459 123.271C265.403 123.271 264.892 124.003 264.892 125.553C264.892 127.189 265.386 127.938 266.459 127.938C267.515 127.938 268.009 127.189 268.009 125.553C268.009 124.003 267.498 123.271 266.459 123.271ZM274.903 121.448C275.789 121.448 276.555 121.618 277.134 121.942C277.475 121.601 277.56 121.38 277.731 120.75L279.519 121.346C279.434 122.112 278.736 122.64 278.088 122.828C278.327 123.203 278.446 123.68 278.446 124.225C278.446 126.047 276.845 126.933 274.835 126.933C274.46 126.933 274.068 126.899 273.881 126.831C273.608 127.001 273.506 127.223 273.506 127.478C273.506 127.751 273.728 127.955 274.136 127.955H276.385C278.156 127.955 279.161 128.909 279.161 130.272C279.161 132.52 276.845 133.099 274.596 133.099C272.654 133.099 270.917 132.639 270.917 131.123C270.917 130.204 271.581 129.641 272.995 129.539C272.212 129.488 271.718 128.841 271.718 128.142C271.718 127.529 272.126 126.848 273.046 126.592C271.973 126.167 271.411 125.485 271.411 124.225C271.411 122.402 272.808 121.448 274.903 121.448ZM273.012 130.681C273.012 131.294 273.642 131.583 274.852 131.583C276.436 131.583 277.032 131.294 277.032 130.664C277.032 130.187 276.743 129.999 276.061 129.999H274.119C273.472 129.999 273.012 130.221 273.012 130.681ZM273.711 124.225C273.711 124.923 274.102 125.434 274.903 125.434C275.687 125.434 276.112 125.008 276.112 124.225C276.112 123.39 275.687 122.998 274.903 122.998C274.102 123.015 273.711 123.441 273.711 124.225Z" fill="#363C65"/>
<path d="M371.199 218.547L372.426 218.326C372.409 219.637 373.158 220.182 374.419 220.182C375.696 220.182 376.514 219.62 376.514 218.377C376.514 217.338 376.054 216.878 374.674 216.35C373.448 215.873 372.392 215.345 372.392 213.658C372.392 211.461 374.334 210.762 375.73 210.762C377.672 210.762 378.762 211.461 378.762 213.403L377.485 213.607C377.519 212.432 376.872 211.784 375.628 211.784C374.47 211.784 373.652 212.415 373.652 213.471C373.652 214.527 374.282 214.782 375.526 215.294C376.991 215.907 377.86 216.571 377.86 218.206C377.86 220.302 376.207 221.204 374.282 221.204C372.29 221.204 371.199 220.387 371.199 218.547ZM383.251 219.722V220.813C382.774 221.085 382.161 221.204 381.701 221.204C380.372 221.204 379.657 220.489 379.964 218.82L380.781 214.169H379.691L379.878 213.13H380.986L381.275 211.478L382.587 211.29L382.263 213.13H384.324L384.137 214.169H382.093L381.241 218.956C381.088 219.791 381.446 220.114 381.906 220.114C382.382 220.114 382.706 220.029 383.251 219.722ZM390.129 217.712L390.367 216.384C390.572 215.191 390.078 213.965 388.817 213.965C387.25 213.965 386.092 215.583 386.092 217.832C386.092 219.16 386.671 220.131 387.829 220.131C389.022 220.131 389.873 219.211 390.129 217.712ZM392.241 213.13L391.151 219.314C391.083 219.705 391.1 220.08 391.594 220.08C391.73 220.08 391.883 220.063 392.088 220.012L391.917 220.949C391.679 221.034 391.389 221.085 391.1 221.085C390.248 221.085 389.805 220.591 389.873 219.688C389.396 220.761 388.46 221.204 387.472 221.204C385.956 221.204 384.831 220.063 384.831 217.985C384.831 215.294 386.381 212.943 388.698 212.943C389.788 212.943 390.538 213.42 390.742 214.459L391.168 213.13H392.241ZM399.078 217.763L399.334 216.384C399.538 215.208 399.078 213.965 397.801 213.965C396.183 213.965 395.041 215.617 395.041 217.849C395.041 219.177 395.586 220.131 396.762 220.131C398.005 220.131 398.823 219.245 399.078 217.763ZM401.191 213.13L399.76 221.255C399.351 223.521 398.244 224.594 395.944 224.594C393.849 224.594 393.065 223.572 392.929 222.414L394.087 222.022C394.156 222.925 394.854 223.64 396.029 223.64C397.494 223.64 398.159 222.789 398.448 221.307L398.755 219.722C398.278 220.796 397.46 221.187 396.455 221.187C394.922 221.187 393.781 220.046 393.781 217.968C393.781 215.294 395.365 212.943 397.699 212.943C398.789 212.943 399.487 213.42 399.692 214.459L400.118 213.13H401.191ZM405.415 220.199C406.59 220.199 407.067 219.705 407.357 218.854L408.532 219.143C407.953 220.744 406.829 221.204 405.296 221.204C403.405 221.204 402.298 219.876 402.298 217.866C402.298 214.663 404.24 212.943 406.131 212.943C408.141 212.943 408.924 214.306 408.924 215.753C408.924 216.299 408.822 216.844 408.583 217.355H403.507C403.388 218.734 403.916 220.199 405.415 220.199ZM403.661 216.316H407.595C407.664 216.128 407.681 215.924 407.681 215.719C407.681 214.782 407.17 213.965 406.062 213.965C404.751 213.965 403.967 215.072 403.661 216.316ZM419.632 219.91L419.444 221H413.431L413.602 219.978C416.787 218.445 418.695 217.048 418.695 215.14C418.695 214.237 418.167 213.709 417.23 213.709C416.378 213.709 415.578 214.152 415.578 215.498L414.368 215.242C414.538 213.079 416.259 212.602 417.366 212.602C419.035 212.602 420.058 213.454 420.058 215.106C420.058 217.61 417.128 219.314 415.152 219.842V219.91H419.632Z" fill="#363C65"/>
<path d="M359.371 238.417H363.698V243.766H362.267L361.892 242.641C361.381 243.544 360.359 243.97 359.132 243.97C356.526 243.97 354.652 242.318 354.652 238.792C354.652 235.436 356.492 233.528 359.558 233.528C361.568 233.528 362.982 234.465 363.646 236.066L361.415 237.157C361.091 236.1 360.41 235.572 359.473 235.572C358.4 235.572 357.037 236.305 357.037 238.826C357.037 240.631 357.702 242.079 359.507 242.079C360.853 242.079 361.483 241.449 361.483 240.597V240.257H359.371V238.417ZM369.045 243.97C366.745 243.97 365.229 242.471 365.229 239.814C365.229 237.139 366.745 235.709 369.045 235.709C371.327 235.709 372.843 237.139 372.843 239.814C372.843 242.471 371.327 243.97 369.045 243.97ZM369.045 237.531C367.989 237.531 367.478 238.264 367.478 239.814C367.478 241.449 367.972 242.199 369.045 242.199C370.101 242.199 370.595 241.449 370.595 239.814C370.595 238.264 370.084 237.531 369.045 237.531ZM381.537 243.97C379.238 243.97 377.722 242.471 377.722 239.814C377.722 237.139 379.238 235.709 381.537 235.709C383.82 235.709 385.336 237.139 385.336 239.814C385.336 242.471 383.82 243.97 381.537 243.97ZM381.537 237.531C380.481 237.531 379.97 238.264 379.97 239.814C379.97 241.449 380.464 242.199 381.537 242.199C382.594 242.199 383.088 241.449 383.088 239.814C383.088 238.264 382.577 237.531 381.537 237.531ZM391.889 243.766L391.616 242.301C391.344 243.374 390.629 243.97 389.181 243.97C387.784 243.97 386.813 243.255 386.813 241.432V235.896H389.095V240.785C389.095 241.722 389.385 242.25 390.169 242.25C390.952 242.25 391.582 241.636 391.582 240.12V235.896H393.865V243.766H391.889ZM400.87 241.534L401.262 243.459C400.598 243.8 399.78 243.97 398.843 243.97C397.276 243.97 396.254 243.238 396.254 241.432V237.651H395.113V235.896H396.271V234.227L398.554 233.954V235.896H400.887V237.651H398.537V240.921C398.537 241.756 398.86 242.028 399.49 242.028C399.984 242.028 400.41 241.858 400.87 241.534ZM410.196 241.296V240.495C408.594 240.444 408.032 240.87 408.032 241.568C408.032 242.028 408.356 242.352 408.901 242.352C409.497 242.352 410.196 242.062 410.196 241.296ZM412.444 238.315V241.381C412.444 241.909 412.665 242.096 413.023 242.096C413.211 242.096 413.364 242.045 413.517 241.977V243.629C413.194 243.834 412.768 243.919 412.223 243.919C411.218 243.919 410.604 243.527 410.349 242.676C409.991 243.647 409.139 243.97 408.066 243.97C406.669 243.97 405.75 243.153 405.75 241.807C405.75 240.052 407.163 239.098 410.196 239.269V238.519C410.196 237.838 409.906 237.429 409.276 237.429C408.645 237.429 408.322 237.855 408.288 238.587L406.022 238.162C406.141 236.492 407.555 235.709 409.361 235.709C411.32 235.709 412.444 236.56 412.444 238.315ZM416.821 235.896L417.094 237.412C417.52 236.237 418.406 235.709 419.615 235.709C420.824 235.709 421.932 236.424 421.932 238.196V243.766H419.649V239.047C419.649 238.179 419.411 237.616 418.593 237.616C417.86 237.616 417.162 238.025 417.162 239.439V243.766H414.879V235.896H416.821ZM429.072 240.495V239.03C429.072 237.872 428.322 237.395 427.538 237.395C426.636 237.395 425.767 238.042 425.767 239.899C425.767 241.381 426.431 242.216 427.504 242.216C428.288 242.216 429.072 241.636 429.072 240.495ZM429.055 236.935V232.387H431.337V243.766H429.361L429.072 242.403C428.782 243.595 427.794 243.97 426.619 243.97C424.881 243.97 423.484 242.59 423.484 240.001C423.484 237.31 424.745 235.709 426.993 235.709C427.998 235.709 428.85 236.186 429.055 236.935ZM358.029 259.429C358.455 258.254 359.409 257.709 360.584 257.709C361.862 257.709 362.833 258.424 362.833 260.179V265.766H360.55V261.047C360.55 260.179 360.312 259.616 359.511 259.616C358.813 259.616 358.216 260.059 358.216 261.422V265.766H355.934V261.047C355.934 260.179 355.712 259.616 354.895 259.616C354.179 259.616 353.6 260.059 353.6 261.439V265.766H351.318V257.896H353.26L353.532 259.412C353.958 258.22 354.793 257.709 355.951 257.709C356.956 257.709 357.825 258.117 358.029 259.429ZM368.23 264.216C368.844 264.216 369.355 263.977 369.61 263.142L371.552 263.807C371.143 265.408 369.729 265.97 368.179 265.97C365.931 265.97 364.381 264.488 364.381 261.95C364.381 259.242 365.846 257.709 368.213 257.709C370.445 257.709 371.535 259.174 371.535 261.201C371.535 261.541 371.501 261.899 371.433 262.223H366.578C366.629 263.432 367.191 264.216 368.23 264.216ZM366.646 260.962H369.355C369.372 260.86 369.372 260.792 369.372 260.69C369.372 259.957 368.946 259.395 368.128 259.395C367.276 259.395 366.731 260.042 366.646 260.962ZM376.548 264.216C377.161 264.216 377.672 263.977 377.928 263.142L379.869 263.807C379.461 265.408 378.047 265.97 376.497 265.97C374.248 265.97 372.698 264.488 372.698 261.95C372.698 259.242 374.163 257.709 376.531 257.709C378.762 257.709 379.852 259.174 379.852 261.201C379.852 261.541 379.818 261.899 379.75 262.223H374.896C374.947 263.432 375.509 264.216 376.548 264.216ZM374.964 260.962H377.672C377.689 260.86 377.689 260.792 377.689 260.69C377.689 259.957 377.263 259.395 376.446 259.395C375.594 259.395 375.049 260.042 374.964 260.962ZM386.381 263.534L386.773 265.459C386.109 265.8 385.291 265.97 384.354 265.97C382.787 265.97 381.765 265.238 381.765 263.432V259.651H380.624V257.896H381.782V256.227L384.065 255.954V257.896H386.398V259.651H384.048V262.921C384.048 263.756 384.371 264.028 385.002 264.028C385.496 264.028 385.921 263.858 386.381 263.534ZM394.122 261.456V262.546C394.122 263.892 394.957 264.335 395.621 264.335C396.592 264.335 397.41 263.517 397.41 261.848C397.41 260.213 396.78 259.531 395.775 259.531C394.94 259.531 394.122 260.196 394.122 261.456ZM394.139 264.727V269.224H391.857V257.896H393.799L394.088 259.412C394.565 258.151 395.587 257.709 396.677 257.709C398.602 257.709 399.71 259.139 399.71 261.643C399.71 264.233 398.466 265.97 396.337 265.97C395.127 265.97 394.361 265.391 394.139 264.727ZM404.677 264.216C405.291 264.216 405.802 263.977 406.057 263.142L407.999 263.807C407.59 265.408 406.176 265.97 404.626 265.97C402.378 265.97 400.828 264.488 400.828 261.95C400.828 259.242 402.293 257.709 404.66 257.709C406.892 257.709 407.982 259.174 407.982 261.201C407.982 261.541 407.948 261.899 407.88 262.223H403.025C403.076 263.432 403.638 264.216 404.677 264.216ZM403.093 260.962H405.802C405.819 260.86 405.819 260.792 405.819 260.69C405.819 259.957 405.393 259.395 404.575 259.395C403.723 259.395 403.178 260.042 403.093 260.962ZM412.961 265.97C410.661 265.97 409.145 264.471 409.145 261.814C409.145 259.139 410.661 257.709 412.961 257.709C415.243 257.709 416.759 259.139 416.759 261.814C416.759 264.471 415.243 265.97 412.961 265.97ZM412.961 259.531C411.905 259.531 411.394 260.264 411.394 261.814C411.394 263.449 411.888 264.199 412.961 264.199C414.017 264.199 414.511 263.449 414.511 261.814C414.511 260.264 414 259.531 412.961 259.531ZM420.655 261.456V262.546C420.655 263.892 421.49 264.335 422.154 264.335C423.125 264.335 423.943 263.517 423.943 261.848C423.943 260.213 423.312 259.531 422.307 259.531C421.473 259.531 420.655 260.196 420.655 261.456ZM420.672 264.727V269.224H418.389V257.896H420.331L420.621 259.412C421.098 258.151 422.12 257.709 423.21 257.709C425.135 257.709 426.242 259.139 426.242 261.643C426.242 264.233 424.999 265.97 422.869 265.97C421.66 265.97 420.893 265.391 420.672 264.727ZM431.329 263.807L431.21 265.715C430.767 265.834 430.341 265.919 429.898 265.919C428.757 265.919 427.718 265.391 427.718 263.909V254.387H430.001V263.245C430.001 263.739 430.307 263.926 430.716 263.926C430.92 263.926 431.125 263.892 431.329 263.807ZM435.968 264.216C436.581 264.216 437.092 263.977 437.347 263.142L439.289 263.807C438.88 265.408 437.467 265.97 435.916 265.97C433.668 265.97 432.118 264.488 432.118 261.95C432.118 259.242 433.583 257.709 435.951 257.709C438.182 257.709 439.272 259.174 439.272 261.201C439.272 261.541 439.238 261.899 439.17 262.223H434.315C434.366 263.432 434.929 264.216 435.968 264.216ZM434.383 260.962H437.092C437.109 260.86 437.109 260.792 437.109 260.69C437.109 259.957 436.683 259.395 435.865 259.395C435.014 259.395 434.469 260.042 434.383 260.962Z" fill="#363C65"/>
<path d="M219.735 352.94L220.961 352.718C220.944 354.03 221.694 354.575 222.954 354.575C224.232 354.575 225.049 354.013 225.049 352.769C225.049 351.73 224.589 351.27 223.21 350.742C221.983 350.265 220.927 349.737 220.927 348.051C220.927 345.853 222.869 345.155 224.266 345.155C226.208 345.155 227.298 345.853 227.298 347.795L226.02 348C226.054 346.824 225.407 346.177 224.164 346.177C223.005 346.177 222.188 346.807 222.188 347.863C222.188 348.919 222.818 349.175 224.061 349.686C225.526 350.299 226.395 350.964 226.395 352.599C226.395 354.694 224.743 355.597 222.818 355.597C220.825 355.597 219.735 354.779 219.735 352.94ZM231.787 354.115V355.205C231.31 355.478 230.696 355.597 230.237 355.597C228.908 355.597 228.192 354.881 228.499 353.212L229.317 348.562H228.226L228.414 347.523H229.521L229.811 345.87L231.122 345.683L230.799 347.523H232.86L232.672 348.562H230.628L229.777 353.348C229.623 354.183 229.981 354.507 230.441 354.507C230.918 354.507 231.242 354.421 231.787 354.115ZM238.664 352.105L238.903 350.776C239.107 349.584 238.613 348.357 237.353 348.357C235.786 348.357 234.627 349.976 234.627 352.224C234.627 353.553 235.206 354.524 236.365 354.524C237.557 354.524 238.409 353.604 238.664 352.105ZM240.777 347.523L239.686 353.706C239.618 354.098 239.635 354.473 240.129 354.473C240.265 354.473 240.419 354.456 240.623 354.404L240.453 355.341C240.214 355.426 239.925 355.478 239.635 355.478C238.784 355.478 238.341 354.984 238.409 354.081C237.932 355.154 236.995 355.597 236.007 355.597C234.491 355.597 233.367 354.456 233.367 352.377C233.367 349.686 234.917 347.335 237.233 347.335C238.324 347.335 239.073 347.812 239.278 348.851L239.703 347.523H240.777ZM247.614 352.156L247.869 350.776C248.074 349.601 247.614 348.357 246.336 348.357C244.718 348.357 243.577 350.01 243.577 352.241C243.577 353.57 244.122 354.524 245.297 354.524C246.541 354.524 247.358 353.638 247.614 352.156ZM249.726 347.523L248.295 355.648C247.886 357.913 246.779 358.987 244.48 358.987C242.384 358.987 241.601 357.965 241.465 356.806L242.623 356.414C242.691 357.317 243.389 358.033 244.565 358.033C246.03 358.033 246.694 357.181 246.984 355.699L247.29 354.115C246.813 355.188 245.996 355.58 244.991 355.58C243.458 355.58 242.316 354.439 242.316 352.36C242.316 349.686 243.9 347.335 246.234 347.335C247.324 347.335 248.023 347.812 248.227 348.851L248.653 347.523H249.726ZM253.951 354.592C255.126 354.592 255.603 354.098 255.892 353.246L257.068 353.536C256.489 355.137 255.364 355.597 253.831 355.597C251.941 355.597 250.833 354.268 250.833 352.258C250.833 349.056 252.775 347.335 254.666 347.335C256.676 347.335 257.46 348.698 257.46 350.146C257.46 350.691 257.357 351.236 257.119 351.747H252.043C251.923 353.127 252.452 354.592 253.951 354.592ZM252.196 350.708H256.131C256.199 350.521 256.216 350.316 256.216 350.112C256.216 349.175 255.705 348.357 254.598 348.357C253.286 348.357 252.503 349.465 252.196 350.708ZM265.22 352.19V352.241C267.009 352.394 267.843 353.297 267.843 354.711C267.843 356.823 266.174 357.743 264.334 357.743C262.358 357.743 261.37 356.738 261.37 355.358L262.614 355.103C262.614 356.193 263.312 356.738 264.488 356.738C265.629 356.738 266.515 356.074 266.515 354.813C266.515 353.774 266.021 352.94 263.874 352.718L264.028 351.679C266.361 351.441 267.315 350.725 267.315 349.396C267.315 348.511 266.702 348.051 265.799 348.051C264.76 348.051 264.215 348.664 264.028 349.652L262.818 349.379C263.091 347.983 264.028 346.995 265.902 346.995C267.452 346.995 268.644 347.71 268.644 349.277C268.644 351.168 267.247 352.173 265.22 352.19Z" fill="#363C65"/>
<path d="M211.181 378.158H208.864V368.125H215.405V370.135H211.181V372.537H214.877V374.462H211.181V378.158ZM220.115 378.363C217.815 378.363 216.299 376.864 216.299 374.206C216.299 371.532 217.815 370.101 220.115 370.101C222.397 370.101 223.913 371.532 223.913 374.206C223.913 376.864 222.397 378.363 220.115 378.363ZM220.115 371.924C219.058 371.924 218.547 372.656 218.547 374.206C218.547 375.842 219.041 376.591 220.115 376.591C221.171 376.591 221.665 375.842 221.665 374.206C221.665 372.656 221.154 371.924 220.115 371.924ZM230.977 370.118L230.722 372.639C230.432 372.537 230.194 372.503 229.836 372.503C228.933 372.503 227.826 372.946 227.826 374.564V378.158H225.543V370.288H227.519L227.792 372.452C228.132 371.089 228.899 369.999 230.977 370.118ZM238.959 371.822C239.384 370.646 240.338 370.101 241.514 370.101C242.791 370.101 243.762 370.817 243.762 372.571V378.158H241.48V373.44C241.48 372.571 241.241 372.009 240.441 372.009C239.742 372.009 239.146 372.452 239.146 373.815V378.158H236.863V373.44C236.863 372.571 236.642 372.009 235.824 372.009C235.109 372.009 234.53 372.452 234.53 373.832V378.158H232.247V370.288H234.189L234.462 371.805C234.887 370.612 235.722 370.101 236.88 370.101C237.885 370.101 238.754 370.51 238.959 371.822ZM250.744 378.158L250.472 376.693C250.199 377.766 249.484 378.363 248.036 378.363C246.639 378.363 245.668 377.647 245.668 375.825V370.288H247.95V375.177C247.95 376.114 248.24 376.642 249.024 376.642C249.807 376.642 250.437 376.029 250.437 374.513V370.288H252.72V378.158H250.744ZM258.328 376.199L258.209 378.107C257.766 378.226 257.341 378.312 256.898 378.312C255.756 378.312 254.717 377.783 254.717 376.302V366.779H257V375.637C257 376.131 257.306 376.319 257.715 376.319C257.92 376.319 258.124 376.284 258.328 376.199ZM263.644 375.688V374.888C262.043 374.837 261.481 375.262 261.481 375.961C261.481 376.421 261.805 376.744 262.35 376.744C262.946 376.744 263.644 376.455 263.644 375.688ZM265.893 372.707V375.773C265.893 376.302 266.114 376.489 266.472 376.489C266.659 376.489 266.813 376.438 266.966 376.37V378.022C266.642 378.226 266.216 378.312 265.671 378.312C264.666 378.312 264.053 377.92 263.798 377.068C263.44 378.039 262.588 378.363 261.515 378.363C260.118 378.363 259.198 377.545 259.198 376.199C259.198 374.445 260.612 373.491 263.644 373.661V372.912C263.644 372.23 263.355 371.822 262.724 371.822C262.094 371.822 261.77 372.247 261.736 372.98L259.471 372.554C259.59 370.885 261.004 370.101 262.81 370.101C264.768 370.101 265.893 370.953 265.893 372.707ZM273.183 375.927L273.575 377.852C272.91 378.192 272.093 378.363 271.156 378.363C269.589 378.363 268.567 377.63 268.567 375.825V372.043H267.425V370.288H268.584V368.619L270.866 368.347V370.288H273.2V372.043H270.849V375.314C270.849 376.148 271.173 376.421 271.803 376.421C272.297 376.421 272.723 376.25 273.183 375.927ZM278.154 376.608C278.768 376.608 279.279 376.37 279.534 375.535L281.476 376.199C281.067 377.801 279.653 378.363 278.103 378.363C275.855 378.363 274.305 376.881 274.305 374.343C274.305 371.634 275.77 370.101 278.137 370.101C280.369 370.101 281.459 371.566 281.459 373.593C281.459 373.934 281.425 374.291 281.357 374.615H276.502C276.553 375.825 277.115 376.608 278.154 376.608ZM276.57 373.355H279.279C279.296 373.252 279.296 373.184 279.296 373.082C279.296 372.35 278.87 371.787 278.052 371.787C277.201 371.787 276.655 372.435 276.57 373.355ZM216.954 389.887C216.954 389.018 217.567 388.558 218.334 388.558C219.134 388.558 219.748 389.018 219.748 389.887C219.748 390.721 219.134 391.181 218.334 391.181C217.567 391.181 216.954 390.721 216.954 389.887ZM217.193 392.288H219.475V400.158H217.193V392.288ZM223.559 392.288L223.832 393.805C224.258 392.629 225.144 392.101 226.353 392.101C227.562 392.101 228.67 392.817 228.67 394.588V400.158H226.387V395.44C226.387 394.571 226.149 394.009 225.331 394.009C224.598 394.009 223.9 394.418 223.9 395.832V400.158H221.617V392.288H223.559ZM229.967 398.336L231.841 397.586C232.011 398.438 232.624 398.761 233.374 398.761C234.004 398.761 234.447 398.54 234.447 398.08C234.447 397.637 234.14 397.433 233.442 397.262L232.283 396.99C230.904 396.632 230.273 395.849 230.273 394.656C230.273 392.663 231.858 392.101 233.476 392.101C235.35 392.101 236.474 392.782 236.593 394.316L234.464 394.622C234.379 393.992 234.021 393.787 233.374 393.787C232.846 393.787 232.488 394.026 232.488 394.435C232.488 394.827 232.726 395.048 233.254 395.15L234.362 395.389C235.963 395.729 236.712 396.581 236.712 397.927C236.712 399.681 235.264 400.363 233.34 400.363C231.398 400.363 230.273 399.818 229.967 398.336ZM238.08 389.887C238.08 389.018 238.694 388.558 239.46 388.558C240.261 388.558 240.874 389.018 240.874 389.887C240.874 390.721 240.261 391.181 239.46 391.181C238.694 391.181 238.08 390.721 238.08 389.887ZM238.319 392.288H240.601V400.158H238.319V392.288ZM245.759 392.101C246.645 392.101 247.411 392.271 247.99 392.595C248.331 392.254 248.416 392.033 248.586 391.403L250.375 391.999C250.29 392.765 249.591 393.293 248.944 393.481C249.183 393.856 249.302 394.333 249.302 394.878C249.302 396.7 247.701 397.586 245.691 397.586C245.316 397.586 244.924 397.552 244.737 397.484C244.464 397.654 244.362 397.876 244.362 398.131C244.362 398.404 244.583 398.608 244.992 398.608H247.241C249.012 398.608 250.017 399.562 250.017 400.925C250.017 403.173 247.701 403.752 245.452 403.752C243.51 403.752 241.773 403.293 241.773 401.776C241.773 400.857 242.437 400.295 243.851 400.192C243.067 400.141 242.573 399.494 242.573 398.796C242.573 398.182 242.982 397.501 243.902 397.245C242.829 396.82 242.267 396.138 242.267 394.878C242.267 393.055 243.664 392.101 245.759 392.101ZM243.868 401.334C243.868 401.947 244.498 402.236 245.708 402.236C247.292 402.236 247.888 401.947 247.888 401.317C247.888 400.84 247.598 400.652 246.917 400.652H244.975C244.328 400.652 243.868 400.874 243.868 401.334ZM244.566 394.878C244.566 395.576 244.958 396.087 245.759 396.087C246.542 396.087 246.968 395.661 246.968 394.878C246.968 394.043 246.542 393.651 245.759 393.651C244.958 393.668 244.566 394.094 244.566 394.878ZM253.577 388.779V393.787C253.985 392.629 254.82 392.101 256.03 392.101C257.239 392.101 258.346 392.817 258.346 394.588V400.158H256.064V395.44C256.064 394.571 255.825 394.009 255.008 394.009C254.275 394.009 253.577 394.418 253.577 395.815V400.158H251.294V388.779H253.577ZM265.265 397.927L265.656 399.852C264.992 400.192 264.175 400.363 263.238 400.363C261.671 400.363 260.648 399.63 260.648 397.825V394.043H259.507V392.288H260.665V390.619L262.948 390.347V392.288H265.282V394.043H262.931V397.314C262.931 398.148 263.255 398.421 263.885 398.421C264.379 398.421 264.805 398.25 265.265 397.927ZM266.214 398.336L268.088 397.586C268.258 398.438 268.872 398.761 269.621 398.761C270.251 398.761 270.694 398.54 270.694 398.08C270.694 397.637 270.388 397.433 269.689 397.262L268.531 396.99C267.151 396.632 266.521 395.849 266.521 394.656C266.521 392.663 268.105 392.101 269.723 392.101C271.597 392.101 272.721 392.782 272.84 394.316L270.711 394.622C270.626 393.992 270.268 393.787 269.621 393.787C269.093 393.787 268.735 394.026 268.735 394.435C268.735 394.827 268.974 395.048 269.502 395.15L270.609 395.389C272.21 395.729 272.96 396.581 272.96 397.927C272.96 399.681 271.512 400.363 269.587 400.363C267.645 400.363 266.521 399.818 266.214 398.336Z" fill="#363C65"/>
<path d="M69.3171 218.547L70.5436 218.326C70.5265 219.637 71.276 220.182 72.5366 220.182C73.8141 220.182 74.6318 219.62 74.6318 218.377C74.6318 217.338 74.1718 216.878 72.7921 216.35C71.5656 215.873 70.5095 215.345 70.5095 213.658C70.5095 211.461 72.4514 210.762 73.8482 210.762C75.7901 210.762 76.8803 211.461 76.8803 213.403L75.6027 213.607C75.6368 212.432 74.9895 211.784 73.746 211.784C72.5877 211.784 71.77 212.415 71.77 213.471C71.77 214.527 72.4003 214.782 73.6438 215.294C75.1087 215.907 75.9775 216.571 75.9775 218.206C75.9775 220.302 74.3252 221.204 72.4003 221.204C70.4073 221.204 69.3171 220.387 69.3171 218.547ZM81.369 219.722V220.813C80.8921 221.085 80.2788 221.204 79.8189 221.204C78.4903 221.204 77.7748 220.489 78.0814 218.82L78.8991 214.169H77.8089L77.9963 213.13H79.1035L79.3931 211.478L80.7047 211.29L80.381 213.13H82.4422L82.2548 214.169H80.2107L79.359 218.956C79.2057 219.791 79.5634 220.114 80.0233 220.114C80.5003 220.114 80.8239 220.029 81.369 219.722ZM88.2467 217.712L88.4852 216.384C88.6896 215.191 88.1956 213.965 86.9351 213.965C85.3679 213.965 84.2096 215.583 84.2096 217.832C84.2096 219.16 84.7888 220.131 85.9471 220.131C87.1395 220.131 87.9912 219.211 88.2467 217.712ZM90.3589 213.13L89.2687 219.314C89.2006 219.705 89.2176 220.08 89.7116 220.08C89.8479 220.08 90.0012 220.063 90.2056 220.012L90.0353 220.949C89.7968 221.034 89.5072 221.085 89.2176 221.085C88.3659 221.085 87.923 220.591 87.9912 219.688C87.5142 220.761 86.5773 221.204 85.5894 221.204C84.0733 221.204 82.9491 220.063 82.9491 217.985C82.9491 215.294 84.4992 212.943 86.8158 212.943C87.906 212.943 88.6555 213.42 88.8599 214.459L89.2858 213.13H90.3589ZM97.1962 217.763L97.4517 216.384C97.6562 215.208 97.1962 213.965 95.9187 213.965C94.3004 213.965 93.1592 215.617 93.1592 217.849C93.1592 219.177 93.7042 220.131 94.8796 220.131C96.1231 220.131 96.9407 219.245 97.1962 217.763ZM99.3085 213.13L97.8776 221.255C97.4688 223.521 96.3616 224.594 94.062 224.594C91.9668 224.594 91.1832 223.572 91.0469 222.414L92.2052 222.022C92.2734 222.925 92.9718 223.64 94.1471 223.64C95.6121 223.64 96.2764 222.789 96.566 221.307L96.8726 219.722C96.3956 220.796 95.578 221.187 94.573 221.187C93.0399 221.187 91.8986 220.046 91.8986 217.968C91.8986 215.294 93.4828 212.943 95.8165 212.943C96.9067 212.943 97.6051 213.42 97.8095 214.459L98.2353 213.13H99.3085ZM103.533 220.199C104.708 220.199 105.185 219.705 105.475 218.854L106.65 219.143C106.071 220.744 104.947 221.204 103.414 221.204C101.523 221.204 100.416 219.876 100.416 217.866C100.416 214.663 102.358 212.943 104.248 212.943C106.258 212.943 107.042 214.306 107.042 215.753C107.042 216.299 106.94 216.844 106.701 217.355H101.625C101.506 218.734 102.034 220.199 103.533 220.199ZM101.778 216.316H105.713C105.781 216.128 105.798 215.924 105.798 215.719C105.798 214.782 105.287 213.965 104.18 213.965C102.869 213.965 102.085 215.072 101.778 216.316ZM115.825 223.231L116.387 220.08H111.549L111.702 219.228L117.613 212.807H118.976L117.886 219.041H119.555L119.368 220.08H117.715L117.153 223.231H115.825ZM114.598 219.041H116.557L117.017 216.384C117.238 215.089 117.46 214.34 117.46 214.34H117.392C117.392 214.34 116.932 214.97 115.944 216.094L114.326 217.917C113.644 218.7 113.218 219.024 113.218 219.024V219.092C113.218 219.092 113.508 219.041 114.598 219.041Z" fill="#363C65"/>
<path d="M47.896 233.733L51.4391 238.587C52.0012 239.354 52.2737 239.933 52.2737 239.933H52.3419C52.3419 239.933 52.2908 239.081 52.2908 237.804V233.733H54.6074V243.766H52.4952L48.9521 238.996C48.3048 238.144 47.9982 237.514 47.9982 237.514H47.93C47.93 237.514 48.0322 238.332 48.0322 239.78V243.766H45.7156V233.733H47.896ZM60.8382 241.296V240.495C59.237 240.444 58.6748 240.87 58.6748 241.568C58.6748 242.028 58.9985 242.352 59.5436 242.352C60.1398 242.352 60.8382 242.062 60.8382 241.296ZM63.0867 238.315V241.381C63.0867 241.909 63.3081 242.096 63.6658 242.096C63.8532 242.096 64.0065 242.045 64.1598 241.977V243.629C63.8362 243.834 63.4103 243.919 62.8652 243.919C61.8602 243.919 61.247 243.527 60.9915 242.676C60.6338 243.647 59.7821 243.97 58.7089 243.97C57.3121 243.97 56.3923 243.153 56.3923 241.807C56.3923 240.052 57.8061 239.098 60.8382 239.269V238.519C60.8382 237.838 60.5486 237.429 59.9183 237.429C59.2881 237.429 58.9644 237.855 58.9303 238.587L56.6648 238.162C56.784 236.492 58.1979 235.709 60.0035 235.709C61.9624 235.709 63.0867 236.56 63.0867 238.315ZM70.956 235.726L70.7005 238.247C70.4109 238.144 70.1725 238.11 69.8147 238.11C68.9119 238.11 67.8047 238.553 67.8047 240.172V243.766H65.5221V235.896H67.4981L67.7706 238.059C68.1113 236.697 68.8779 235.606 70.956 235.726ZM77.6599 235.726L77.4044 238.247C77.1148 238.144 76.8763 238.11 76.5186 238.11C75.6158 238.11 74.5086 238.553 74.5086 240.172V243.766H72.226V235.896H74.202L74.4745 238.059C74.8152 236.697 75.5817 235.606 77.6599 235.726ZM82.0182 243.97C79.7186 243.97 78.2026 242.471 78.2026 239.814C78.2026 237.139 79.7186 235.709 82.0182 235.709C84.3008 235.709 85.8168 237.139 85.8168 239.814C85.8168 242.471 84.3008 243.97 82.0182 243.97ZM82.0182 237.531C80.9621 237.531 80.4511 238.264 80.4511 239.814C80.4511 241.449 80.9451 242.199 82.0182 242.199C83.0743 242.199 83.5683 241.449 83.5683 239.814C83.5683 238.264 83.0573 237.531 82.0182 237.531ZM93.5792 235.896L94.4479 239.013C94.8908 240.597 94.976 242.079 94.976 242.079H95.0441C95.0441 242.079 95.1123 240.631 95.487 239.047L96.2195 235.896H98.485L96.4409 243.766H93.7325L92.966 240.955C92.6423 239.695 92.5571 238.417 92.5571 238.417H92.489C92.489 238.417 92.4038 239.678 92.0802 240.972L91.3988 243.766H88.7074L86.5441 235.896H88.8607L89.6784 239.03C90.0872 240.614 90.1724 242.079 90.1724 242.079H90.2405C90.2405 242.079 90.3257 240.597 90.7004 239.013L91.501 235.896H93.5792ZM108.559 240.495V239.03C108.559 237.872 107.81 237.395 107.026 237.395C106.123 237.395 105.254 238.042 105.254 239.899C105.254 241.381 105.919 242.216 106.992 242.216C107.776 242.216 108.559 241.636 108.559 240.495ZM108.542 236.935V232.387H110.825V243.766H108.849L108.559 242.403C108.27 243.595 107.282 243.97 106.106 243.97C104.369 243.97 102.972 242.59 102.972 240.001C102.972 237.31 104.232 235.709 106.481 235.709C107.486 235.709 108.338 236.186 108.542 236.935ZM116.269 243.97C113.97 243.97 112.454 242.471 112.454 239.814C112.454 237.139 113.97 235.709 116.269 235.709C118.552 235.709 120.068 237.139 120.068 239.814C120.068 242.471 118.552 243.97 116.269 243.97ZM116.269 237.531C115.213 237.531 114.702 238.264 114.702 239.814C114.702 241.449 115.196 242.199 116.269 242.199C117.326 242.199 117.82 241.449 117.82 239.814C117.82 238.264 117.309 237.531 116.269 237.531ZM127.83 235.896L128.699 239.013C129.142 240.597 129.227 242.079 129.227 242.079H129.295C129.295 242.079 129.363 240.631 129.738 239.047L130.471 235.896H132.736L130.692 243.766H127.984L127.217 240.955C126.894 239.695 126.808 238.417 126.808 238.417H126.74C126.74 238.417 126.655 239.678 126.331 240.972L125.65 243.766H122.959L120.795 235.896H123.112L123.93 239.03C124.338 240.614 124.424 242.079 124.424 242.079H124.492C124.492 242.079 124.577 240.597 124.952 239.013L125.752 235.896H127.83ZM135.917 235.896L136.189 237.412C136.615 236.237 137.501 235.709 138.71 235.709C139.92 235.709 141.027 236.424 141.027 238.196V243.766H138.744V239.047C138.744 238.179 138.506 237.616 137.688 237.616C136.956 237.616 136.257 238.025 136.257 239.439V243.766H133.975V235.896H135.917ZM63.2547 261.456V262.546C63.2547 263.892 64.0894 264.335 64.7537 264.335C65.7246 264.335 66.5423 263.517 66.5423 261.848C66.5423 260.213 65.912 259.531 64.907 259.531C64.0723 259.531 63.2547 260.196 63.2547 261.456ZM63.2717 264.727V269.224H60.9891V257.896H62.931L63.2206 259.412C63.6976 258.151 64.7196 257.709 65.8098 257.709C67.7347 257.709 68.8419 259.139 68.8419 261.643C68.8419 264.233 67.5984 265.97 65.4691 265.97C64.2597 265.97 63.4932 265.391 63.2717 264.727ZM73.7756 265.97C71.476 265.97 69.96 264.471 69.96 261.814C69.96 259.139 71.476 257.709 73.7756 257.709C76.0582 257.709 77.5742 259.139 77.5742 261.814C77.5742 264.471 76.0582 265.97 73.7756 265.97ZM73.7756 259.531C72.7195 259.531 72.2085 260.264 72.2085 261.814C72.2085 263.449 72.7025 264.199 73.7756 264.199C74.8318 264.199 75.3257 263.449 75.3257 261.814C75.3257 260.264 74.8147 259.531 73.7756 259.531ZM84.0591 263.534L84.4508 265.459C83.7865 265.8 82.9689 265.97 82.032 265.97C80.4649 265.97 79.4428 265.238 79.4428 263.432V259.651H78.3015V257.896H79.4598V256.227L81.7424 255.954V257.896H84.0761V259.651H81.7254V262.921C81.7254 263.756 82.049 264.028 82.6793 264.028C83.1733 264.028 83.5991 263.858 84.0591 263.534ZM89.0306 264.216C89.6438 264.216 90.1549 263.977 90.4104 263.142L92.3523 263.807C91.9434 265.408 90.5296 265.97 88.9795 265.97C86.731 265.97 85.1809 264.488 85.1809 261.95C85.1809 259.242 86.6458 257.709 89.0136 257.709C91.2451 257.709 92.3352 259.174 92.3352 261.201C92.3352 261.541 92.3012 261.899 92.233 262.223H87.3783C87.4294 263.432 87.9915 264.216 89.0306 264.216ZM87.4464 260.962H90.1549C90.1719 260.86 90.1719 260.792 90.1719 260.69C90.1719 259.957 89.746 259.395 88.9284 259.395C88.0767 259.395 87.5316 260.042 87.4464 260.962ZM95.9513 257.896L96.2238 259.412C96.6497 258.237 97.5354 257.709 98.7448 257.709C99.9543 257.709 101.061 258.424 101.061 260.196V265.766H98.7789V261.047C98.7789 260.179 98.5404 259.616 97.7228 259.616C96.9903 259.616 96.2919 260.025 96.2919 261.439V265.766H94.0094V257.896H95.9513ZM107.98 263.534L108.372 265.459C107.707 265.8 106.89 265.97 105.953 265.97C104.386 265.97 103.364 265.238 103.364 263.432V259.651H102.222V257.896H103.381V256.227L105.663 255.954V257.896H107.997V259.651H105.646V262.921C105.646 263.756 105.97 264.028 106.6 264.028C107.094 264.028 107.52 263.858 107.98 263.534ZM109.458 255.494C109.458 254.625 110.071 254.166 110.837 254.166C111.638 254.166 112.251 254.625 112.251 255.494C112.251 256.329 111.638 256.789 110.837 256.789C110.071 256.789 109.458 256.329 109.458 255.494ZM109.696 257.896H111.979V265.766H109.696V257.896ZM117.971 263.296V262.495C116.369 262.444 115.807 262.87 115.807 263.568C115.807 264.028 116.131 264.352 116.676 264.352C117.272 264.352 117.971 264.062 117.971 263.296ZM120.219 260.315V263.381C120.219 263.909 120.441 264.096 120.798 264.096C120.986 264.096 121.139 264.045 121.292 263.977V265.629C120.969 265.834 120.543 265.919 119.998 265.919C118.993 265.919 118.379 265.527 118.124 264.676C117.766 265.647 116.915 265.97 115.841 265.97C114.445 265.97 113.525 265.153 113.525 263.807C113.525 262.052 114.939 261.098 117.971 261.269V260.519C117.971 259.838 117.681 259.429 117.051 259.429C116.421 259.429 116.097 259.855 116.063 260.587L113.797 260.162C113.917 258.492 115.33 257.709 117.136 257.709C119.095 257.709 120.219 258.56 120.219 260.315ZM126.113 263.807L125.993 265.715C125.55 265.834 125.125 265.919 124.682 265.919C123.54 265.919 122.501 265.391 122.501 263.909V254.387H124.784V263.245C124.784 263.739 125.09 263.926 125.499 263.926C125.704 263.926 125.908 263.892 126.113 263.807Z" fill="#363C65"/>
<path d="M219.785 211.15L221.012 210.928C220.995 212.24 221.744 212.785 223.005 212.785C224.282 212.785 225.1 212.223 225.1 210.979C225.1 209.94 224.64 209.48 223.26 208.952C222.034 208.475 220.978 207.947 220.978 206.261C220.978 204.063 222.919 203.365 224.316 203.365C226.258 203.365 227.348 204.063 227.348 206.005L226.071 206.21C226.105 205.034 225.457 204.387 224.214 204.387C223.056 204.387 222.238 205.017 222.238 206.073C222.238 207.13 222.868 207.385 224.112 207.896C225.577 208.509 226.445 209.174 226.445 210.809C226.445 212.904 224.793 213.807 222.868 213.807C220.875 213.807 219.785 212.989 219.785 211.15ZM231.837 212.325V213.415C231.36 213.688 230.747 213.807 230.287 213.807C228.958 213.807 228.243 213.091 228.549 211.422L229.367 206.772H228.277L228.464 205.733H229.572L229.861 204.08L231.173 203.893L230.849 205.733H232.91L232.723 206.772H230.679L229.827 211.558C229.674 212.393 230.031 212.717 230.491 212.717C230.968 212.717 231.292 212.632 231.837 212.325ZM238.715 210.315L238.953 208.986C239.158 207.794 238.664 206.567 237.403 206.567C235.836 206.567 234.678 208.186 234.678 210.434C234.678 211.763 235.257 212.734 236.415 212.734C237.607 212.734 238.459 211.814 238.715 210.315ZM240.827 205.733L239.737 211.916C239.669 212.308 239.686 212.683 240.18 212.683C240.316 212.683 240.469 212.666 240.674 212.614L240.503 213.551C240.265 213.637 239.975 213.688 239.686 213.688C238.834 213.688 238.391 213.194 238.459 212.291C237.982 213.364 237.045 213.807 236.057 213.807C234.541 213.807 233.417 212.666 233.417 210.587C233.417 207.896 234.967 205.545 237.284 205.545C238.374 205.545 239.124 206.022 239.328 207.061L239.754 205.733H240.827ZM247.664 210.366L247.92 208.986C248.124 207.811 247.664 206.567 246.387 206.567C244.768 206.567 243.627 208.22 243.627 210.451C243.627 211.78 244.172 212.734 245.348 212.734C246.591 212.734 247.409 211.848 247.664 210.366ZM249.776 205.733L248.346 213.858C247.937 216.124 246.83 217.197 244.53 217.197C242.435 217.197 241.651 216.175 241.515 215.016L242.673 214.625C242.741 215.527 243.44 216.243 244.615 216.243C246.08 216.243 246.744 215.391 247.034 213.909L247.341 212.325C246.864 213.398 246.046 213.79 245.041 213.79C243.508 213.79 242.367 212.649 242.367 210.57C242.367 207.896 243.951 205.545 246.284 205.545C247.375 205.545 248.073 206.022 248.277 207.061L248.703 205.733H249.776ZM254.001 212.802C255.176 212.802 255.653 212.308 255.943 211.456L257.118 211.746C256.539 213.347 255.415 213.807 253.882 213.807C251.991 213.807 250.884 212.478 250.884 210.468C250.884 207.266 252.826 205.545 254.716 205.545C256.726 205.545 257.51 206.908 257.51 208.356C257.51 208.901 257.408 209.446 257.169 209.957H252.093C251.974 211.337 252.502 212.802 254.001 212.802ZM252.246 208.918H256.181C256.249 208.731 256.266 208.526 256.266 208.322C256.266 207.385 255.755 206.567 254.648 206.567C253.337 206.567 252.553 207.675 252.246 208.918ZM263.039 210.877L264.197 205.409H269.154L268.967 206.516H265.168L264.385 210.059C264.691 209.787 265.168 209.599 265.765 209.599C267.417 209.599 268.286 210.86 268.269 212.291C268.252 214.693 266.599 215.953 264.521 215.953C262.63 215.953 261.676 214.965 261.676 213.568L262.92 213.296C262.92 214.454 263.601 214.948 264.691 214.948C265.799 214.948 266.957 214.233 266.957 212.478C266.957 211.32 266.344 210.536 265.22 210.536C264.743 210.536 264.368 210.673 264.078 210.877H263.039Z" fill="white"/>
<path d="M193.85 226.335H196.167V236.368H193.85V226.335ZM203.628 233.098V231.633C203.628 230.475 202.879 229.998 202.095 229.998C201.192 229.998 200.324 230.645 200.324 232.502C200.324 233.984 200.988 234.818 202.061 234.818C202.845 234.818 203.628 234.239 203.628 233.098ZM203.611 229.538V224.99H205.894V236.368H203.918L203.628 235.006C203.339 236.198 202.351 236.573 201.175 236.573C199.438 236.573 198.041 235.193 198.041 232.604C198.041 229.912 199.302 228.311 201.55 228.311C202.555 228.311 203.407 228.788 203.611 229.538ZM211.373 234.818C211.986 234.818 212.497 234.58 212.752 233.745L214.694 234.409C214.286 236.011 212.872 236.573 211.322 236.573C209.073 236.573 207.523 235.091 207.523 232.553C207.523 229.844 208.988 228.311 211.356 228.311C213.587 228.311 214.677 229.776 214.677 231.803C214.677 232.144 214.643 232.502 214.575 232.825H209.72C209.771 234.035 210.334 234.818 211.373 234.818ZM209.789 231.565H212.497C212.514 231.462 212.514 231.394 212.514 231.292C212.514 230.56 212.088 229.998 211.27 229.998C210.419 229.998 209.874 230.645 209.789 231.565ZM218.293 228.499L218.566 230.015C218.992 228.839 219.878 228.311 221.087 228.311C222.296 228.311 223.404 229.027 223.404 230.798V236.368H221.121V231.65C221.121 230.781 220.883 230.219 220.065 230.219C219.332 230.219 218.634 230.628 218.634 232.042V236.368H216.351V228.499H218.293ZM230.322 234.137L230.714 236.062C230.05 236.402 229.232 236.573 228.295 236.573C226.728 236.573 225.706 235.84 225.706 234.035V230.253H224.565V228.499H225.723V226.829L228.005 226.557V228.499H230.339V230.253H227.988V233.524C227.988 234.358 228.312 234.631 228.942 234.631C229.436 234.631 229.862 234.46 230.322 234.137ZM231.8 226.097C231.8 225.228 232.413 224.768 233.179 224.768C233.98 224.768 234.593 225.228 234.593 226.097C234.593 226.931 233.98 227.391 233.179 227.391C232.413 227.391 231.8 226.931 231.8 226.097ZM232.038 228.499H234.321V236.368H232.038V228.499ZM236.736 230.253H235.577V228.499H236.736V227.919C236.736 225.654 238.166 224.853 239.887 224.853C240.653 224.853 241.25 224.972 241.795 225.228L241.471 227.119C241.079 226.897 240.67 226.778 240.125 226.778C239.461 226.778 239.001 227.034 239.001 227.988V228.499H241.011V230.253H239.001V236.368H236.736V230.253ZM243.351 228.499L244.373 232.076C244.815 233.626 244.918 234.614 244.918 234.614H244.986C244.986 234.614 245.088 233.609 245.548 232.093L246.638 228.499H249.04L245.923 237.067C245.037 239.503 243.947 239.911 242.328 239.911C241.869 239.911 241.34 239.826 240.915 239.724L241.255 237.714C241.545 237.884 241.903 237.987 242.294 237.987C243.01 237.987 243.453 237.68 243.776 236.811L240.864 228.499H243.351ZM257.763 233.898V233.098C256.161 233.047 255.599 233.473 255.599 234.171C255.599 234.631 255.923 234.954 256.468 234.954C257.064 234.954 257.763 234.665 257.763 233.898ZM260.011 230.917V233.984C260.011 234.512 260.233 234.699 260.59 234.699C260.778 234.699 260.931 234.648 261.084 234.58V236.232C260.761 236.436 260.335 236.522 259.79 236.522C258.785 236.522 258.172 236.13 257.916 235.278C257.558 236.249 256.707 236.573 255.633 236.573C254.237 236.573 253.317 235.755 253.317 234.409C253.317 232.655 254.731 231.701 257.763 231.871V231.122C257.763 230.44 257.473 230.032 256.843 230.032C256.213 230.032 255.889 230.457 255.855 231.19L253.589 230.764C253.709 229.095 255.122 228.311 256.928 228.311C258.887 228.311 260.011 229.163 260.011 230.917ZM267.881 228.328L267.625 230.849C267.335 230.747 267.097 230.713 266.739 230.713C265.836 230.713 264.729 231.156 264.729 232.774V236.368H262.447V228.499H264.423L264.695 230.662C265.036 229.299 265.802 228.209 267.881 228.328ZM272.273 234.818C272.886 234.818 273.397 234.58 273.653 233.745L275.595 234.409C275.186 236.011 273.772 236.573 272.222 236.573C269.973 236.573 268.423 235.091 268.423 232.553C268.423 229.844 269.888 228.311 272.256 228.311C274.487 228.311 275.578 229.776 275.578 231.803C275.578 232.144 275.544 232.502 275.475 232.825H270.621C270.672 234.035 271.234 234.818 272.273 234.818ZM270.689 231.565H273.397C273.414 231.462 273.414 231.394 273.414 231.292C273.414 230.56 272.988 229.998 272.171 229.998C271.319 229.998 270.774 230.645 270.689 231.565ZM281.118 233.898V233.098C279.517 233.047 278.955 233.473 278.955 234.171C278.955 234.631 279.278 234.954 279.823 234.954C280.42 234.954 281.118 234.665 281.118 233.898ZM283.367 230.917V233.984C283.367 234.512 283.588 234.699 283.946 234.699C284.133 234.699 284.286 234.648 284.44 234.58V236.232C284.116 236.436 283.69 236.522 283.145 236.522C282.14 236.522 281.527 236.13 281.271 235.278C280.914 236.249 280.062 236.573 278.989 236.573C277.592 236.573 276.672 235.755 276.672 234.409C276.672 232.655 278.086 231.701 281.118 231.871V231.122C281.118 230.44 280.828 230.032 280.198 230.032C279.568 230.032 279.244 230.457 279.21 231.19L276.945 230.764C277.064 229.095 278.478 228.311 280.283 228.311C282.242 228.311 283.367 229.163 283.367 230.917ZM285.036 234.546L286.909 233.796C287.08 234.648 287.693 234.972 288.442 234.972C289.073 234.972 289.515 234.75 289.515 234.29C289.515 233.847 289.209 233.643 288.51 233.473L287.352 233.2C285.972 232.842 285.342 232.059 285.342 230.866C285.342 228.873 286.926 228.311 288.545 228.311C290.418 228.311 291.543 228.993 291.662 230.526L289.533 230.832C289.447 230.202 289.09 229.998 288.442 229.998C287.914 229.998 287.557 230.236 287.557 230.645C287.557 231.037 287.795 231.258 288.323 231.36L289.43 231.599C291.032 231.939 291.781 232.791 291.781 234.137C291.781 235.891 290.333 236.573 288.408 236.573C286.466 236.573 285.342 236.028 285.036 234.546ZM206.423 258.573C204.123 258.573 202.607 257.074 202.607 254.416C202.607 251.742 204.123 250.311 206.423 250.311C208.706 250.311 210.222 251.742 210.222 254.416C210.222 257.074 208.706 258.573 206.423 258.573ZM206.423 252.134C205.367 252.134 204.856 252.866 204.856 254.416C204.856 256.052 205.35 256.801 206.423 256.801C207.479 256.801 207.973 256.052 207.973 254.416C207.973 252.866 207.462 252.134 206.423 252.134ZM212.124 252.253H210.966V250.499H212.124V249.919C212.124 247.654 213.555 246.853 215.276 246.853C216.042 246.853 216.638 246.972 217.183 247.228L216.86 249.119C216.468 248.897 216.059 248.778 215.514 248.778C214.85 248.778 214.39 249.034 214.39 249.988V250.499H216.4V252.253H214.39V258.368H212.124V252.253ZM223.316 254.059V255.149C223.316 256.495 224.151 256.937 224.815 256.937C225.786 256.937 226.604 256.12 226.604 254.45C226.604 252.815 225.974 252.134 224.969 252.134C224.134 252.134 223.316 252.798 223.316 254.059ZM223.333 257.329V261.826H221.051V250.499H222.993L223.282 252.015C223.759 250.754 224.781 250.311 225.871 250.311C227.796 250.311 228.904 251.742 228.904 254.246C228.904 256.835 227.66 258.573 225.531 258.573C224.321 258.573 223.555 257.994 223.333 257.329ZM233.837 258.573C231.538 258.573 230.022 257.074 230.022 254.416C230.022 251.742 231.538 250.311 233.837 250.311C236.12 250.311 237.636 251.742 237.636 254.416C237.636 257.074 236.12 258.573 233.837 258.573ZM233.837 252.134C232.781 252.134 232.27 252.866 232.27 254.416C232.27 256.052 232.764 256.801 233.837 256.801C234.893 256.801 235.387 256.052 235.387 254.416C235.387 252.866 234.876 252.134 233.837 252.134ZM244.121 256.137L244.512 258.062C243.848 258.402 243.031 258.573 242.094 258.573C240.527 258.573 239.504 257.84 239.504 256.035V252.253H238.363V250.499H239.521V248.829L241.804 248.557V250.499H244.138V252.253H241.787V255.524C241.787 256.358 242.111 256.631 242.741 256.631C243.235 256.631 243.661 256.46 244.121 256.137ZM249.092 256.818C249.705 256.818 250.217 256.58 250.472 255.745L252.414 256.409C252.005 258.011 250.591 258.573 249.041 258.573C246.793 258.573 245.243 257.091 245.243 254.553C245.243 251.844 246.707 250.311 249.075 250.311C251.307 250.311 252.397 251.776 252.397 253.803C252.397 254.144 252.363 254.502 252.295 254.825H247.44C247.491 256.035 248.053 256.818 249.092 256.818ZM247.508 253.565H250.217C250.234 253.462 250.234 253.394 250.234 253.292C250.234 252.56 249.808 251.998 248.99 251.998C248.138 251.998 247.593 252.645 247.508 253.565ZM256.013 250.499L256.285 252.015C256.711 250.839 257.597 250.311 258.807 250.311C260.016 250.311 261.123 251.027 261.123 252.798V258.368H258.841V253.65C258.841 252.781 258.602 252.219 257.784 252.219C257.052 252.219 256.354 252.628 256.354 254.042V258.368H254.071V250.499H256.013ZM268.042 256.137L268.433 258.062C267.769 258.402 266.951 258.573 266.015 258.573C264.447 258.573 263.425 257.84 263.425 256.035V252.253H262.284V250.499H263.442V248.829L265.725 248.557V250.499H268.059V252.253H265.708V255.524C265.708 256.358 266.032 256.631 266.662 256.631C267.156 256.631 267.582 256.46 268.042 256.137ZM269.519 248.097C269.519 247.228 270.132 246.768 270.899 246.768C271.7 246.768 272.313 247.228 272.313 248.097C272.313 248.931 271.7 249.391 270.899 249.391C270.132 249.391 269.519 248.931 269.519 248.097ZM269.758 250.499H272.04V258.368H269.758V250.499ZM278.032 255.898V255.098C276.431 255.047 275.869 255.473 275.869 256.171C275.869 256.631 276.193 256.954 276.738 256.954C277.334 256.954 278.032 256.665 278.032 255.898ZM280.281 252.917V255.984C280.281 256.512 280.502 256.699 280.86 256.699C281.047 256.699 281.201 256.648 281.354 256.58V258.232C281.03 258.436 280.604 258.522 280.059 258.522C279.054 258.522 278.441 258.13 278.186 257.278C277.828 258.249 276.976 258.573 275.903 258.573C274.506 258.573 273.586 257.755 273.586 256.409C273.586 254.655 275 253.701 278.032 253.871V253.122C278.032 252.44 277.743 252.032 277.112 252.032C276.482 252.032 276.159 252.457 276.124 253.19L273.859 252.764C273.978 251.095 275.392 250.311 277.198 250.311C279.157 250.311 280.281 251.163 280.281 252.917ZM286.174 256.409L286.055 258.317C285.612 258.436 285.186 258.522 284.743 258.522C283.602 258.522 282.563 257.994 282.563 256.512V246.99H284.846V255.847C284.846 256.341 285.152 256.529 285.561 256.529C285.765 256.529 285.97 256.495 286.174 256.409Z" fill="white"/>
<rect x="2.67665" y="241.5" width="337.747" height="337.747" transform="rotate(-45 2.67665 241.5)" stroke="#FBF0F3" stroke-width="3.78536"/>
</svg>
