<svg width="678" height="679" viewBox="0 0 678 679" fill="none" xmlns="http://www.w3.org/2000/svg">
<path d="M175 169.5L509.5 505M169.5 505L503.5 169.5" stroke="#FBF0F3" stroke-width="3"/>
<path d="M338.906 222.5L455.32 339.086L338.906 455.5L222.492 339.086L338.906 222.5Z" fill="#D75178"/>
<path d="M309.617 121.732H302.545L303.429 116.74H309.695L310.007 114.972H303.741L304.625 109.954H311.697L312.009 108.186H302.857L300.179 123.5H309.331L309.617 121.732ZM317.325 121.55C316.493 122.018 315.999 122.148 315.271 122.148C314.569 122.148 314.023 121.654 314.257 120.38L315.557 113.074H318.677L318.963 111.488H315.817L316.311 108.68L314.309 108.966L313.867 111.488H312.177L311.891 113.074H313.555L312.307 120.172C311.839 122.72 312.931 123.812 314.959 123.812C315.661 123.812 316.597 123.63 317.325 123.214V121.55ZM327.043 118.482C326.653 120.77 325.353 122.174 323.533 122.174C321.765 122.174 320.881 120.692 320.881 118.664C320.881 115.232 322.649 112.762 325.041 112.762C326.965 112.762 327.719 114.634 327.407 116.454L327.043 118.482ZM330.267 111.488H328.629L327.979 113.516C327.667 111.93 326.523 111.202 324.859 111.202C321.323 111.202 318.957 114.79 318.957 118.898C318.957 122.07 320.673 123.812 322.987 123.812C324.495 123.812 325.925 123.136 326.653 121.498C326.549 122.876 327.225 123.63 328.525 123.63C328.967 123.63 329.409 123.552 329.773 123.422L330.033 121.992C329.721 122.07 329.487 122.096 329.279 122.096C328.525 122.096 328.499 121.524 328.603 120.926L330.267 111.488ZM335.009 116.558C335.399 114.322 336.985 112.814 338.779 112.814C340.417 112.814 341.301 114.114 341.301 116.142C341.301 119.444 339.793 122.174 337.245 122.174C335.217 122.174 334.281 120.354 334.593 118.898L335.009 116.558ZM334.151 121.524C334.411 122.798 335.607 123.812 337.401 123.812C341.067 123.812 343.355 120.432 343.355 116.142C343.355 112.97 341.951 111.202 339.429 111.202C337.687 111.202 336.309 112.06 335.477 113.802L335.685 111.488H333.969L330.927 128.778H332.877L334.151 121.524ZM347.839 116.558C348.229 114.322 349.815 112.814 351.609 112.814C353.247 112.814 354.131 114.114 354.131 116.142C354.131 119.444 352.623 122.174 350.075 122.174C348.047 122.174 347.111 120.354 347.423 118.898L347.839 116.558ZM346.981 121.524C347.241 122.798 348.437 123.812 350.231 123.812C353.897 123.812 356.185 120.432 356.185 116.142C356.185 112.97 354.781 111.202 352.259 111.202C350.517 111.202 349.139 112.06 348.307 113.802L348.515 111.488H346.799L343.757 128.778H345.707L346.981 121.524ZM362.254 122.278C359.966 122.278 359.16 120.042 359.342 117.936H367.09C367.454 117.156 367.61 116.324 367.61 115.492C367.61 113.282 366.414 111.202 363.346 111.202C360.46 111.202 357.496 113.828 357.496 118.716C357.496 121.784 359.186 123.812 362.072 123.812C364.412 123.812 366.128 123.11 367.012 120.666L365.218 120.224C364.776 121.524 364.048 122.278 362.254 122.278ZM359.576 116.35C360.044 114.452 361.24 112.762 363.242 112.762C364.932 112.762 365.712 114.01 365.712 115.44C365.712 115.752 365.686 116.064 365.582 116.35H359.576ZM377.817 123.5L380.053 110.786L374.151 111.982L373.839 113.646L377.635 112.944L375.789 123.5H377.817Z" fill="#363C65"/>
<path d="M269.338 146.65V149.35H272.438V149.85C272.438 151.1 271.513 152.025 269.538 152.025C266.888 152.025 265.913 149.9 265.913 147.25C265.913 143.55 267.913 142.475 269.488 142.475C270.863 142.475 271.863 143.25 272.338 144.8L275.613 143.2C274.638 140.85 272.563 139.475 269.613 139.475C265.113 139.475 262.413 142.275 262.413 147.2C262.413 152.375 265.163 154.8 268.988 154.8C270.788 154.8 272.288 154.175 273.038 152.85L273.588 154.5H275.688V146.65H269.338ZM283.086 152.225C281.561 152.225 280.736 151.075 280.661 149.3H287.786C287.886 148.825 287.936 148.3 287.936 147.8C287.936 144.825 286.336 142.675 283.061 142.675C279.586 142.675 277.436 144.925 277.436 148.9C277.436 152.625 279.711 154.8 283.011 154.8C285.286 154.8 287.361 153.975 287.961 151.625L285.111 150.65C284.736 151.875 283.986 152.225 283.086 152.225ZM280.761 147.45C280.886 146.1 281.686 145.15 282.936 145.15C284.136 145.15 284.761 145.975 284.761 147.05C284.761 147.2 284.761 147.3 284.736 147.45H280.761ZM288.768 151.825C289.218 154 290.868 154.8 293.718 154.8C296.543 154.8 298.668 153.8 298.668 151.225C298.668 149.25 297.568 148 295.218 147.5L293.593 147.15C292.818 147 292.468 146.675 292.468 146.1C292.468 145.5 292.993 145.15 293.768 145.15C294.718 145.15 295.243 145.45 295.368 146.375L298.493 145.925C298.318 143.675 296.668 142.675 293.918 142.675C291.543 142.675 289.218 143.5 289.218 146.425C289.218 148.175 290.143 149.325 292.168 149.85L293.868 150.25C294.893 150.5 295.343 150.8 295.343 151.45C295.343 152.125 294.693 152.45 293.768 152.45C292.668 152.45 291.768 151.975 291.518 150.725L288.768 151.825ZM303.851 148.175C303.851 146.325 305.051 145.35 306.276 145.35C307.751 145.35 308.676 146.35 308.676 148.75C308.676 151.2 307.476 152.4 306.051 152.4C305.076 152.4 303.851 151.75 303.851 149.775V148.175ZM303.876 152.975C304.201 153.95 305.326 154.8 307.101 154.8C310.226 154.8 312.051 152.25 312.051 148.45C312.051 144.775 310.426 142.675 307.601 142.675C306.001 142.675 304.501 143.325 303.801 145.175L303.376 142.95H300.526V159.575H303.876V152.975ZM321.917 142.7C318.867 142.525 317.742 144.125 317.242 146.125L316.842 142.95H313.942V154.5H317.292V149.225C317.292 146.85 318.917 146.2 320.242 146.2C320.767 146.2 321.117 146.25 321.542 146.4L321.917 142.7ZM328.857 150.875C328.857 152 327.832 152.425 326.957 152.425C326.157 152.425 325.682 151.95 325.682 151.275C325.682 150.25 326.507 149.625 328.857 149.7V150.875ZM332.157 146.5C332.157 143.925 330.507 142.675 327.632 142.675C324.982 142.675 322.907 143.825 322.732 146.275L326.057 146.9C326.107 145.825 326.582 145.2 327.507 145.2C328.432 145.2 328.857 145.8 328.857 146.8V147.9C324.407 147.65 322.332 149.05 322.332 151.625C322.332 153.6 323.682 154.8 325.732 154.8C327.307 154.8 328.557 154.325 329.082 152.9C329.457 154.15 330.357 154.725 331.832 154.725C332.632 154.725 333.257 154.6 333.732 154.3V151.875C333.507 151.975 333.282 152.05 333.007 152.05C332.482 152.05 332.157 151.775 332.157 151V146.5ZM323.032 139.6C323.032 140.8 323.882 141.475 324.882 141.475C325.982 141.475 326.782 140.8 326.782 139.6C326.782 138.35 325.982 137.725 324.882 137.725C323.882 137.725 323.032 138.35 323.032 139.6ZM328.482 139.6C328.482 140.825 329.332 141.475 330.332 141.475C331.407 141.475 332.232 140.825 332.232 139.6C332.232 138.35 331.407 137.725 330.332 137.725C329.332 137.725 328.482 138.35 328.482 139.6ZM341.982 150.45C341.682 151.775 341.007 152.225 340.107 152.225C338.607 152.225 337.732 150.925 337.732 148.725C337.732 146.625 338.557 145.3 340.057 145.3C341.182 145.3 341.757 146.025 341.932 147.25L344.757 146.475C344.582 144.15 342.832 142.675 340.082 142.675C336.707 142.675 334.482 144.925 334.482 148.775C334.482 152.625 336.707 154.8 340.057 154.8C342.507 154.8 344.507 153.725 344.932 151.4L341.982 150.45ZM349.825 137.8H346.475V154.5H349.825V148.125C349.825 146.075 350.85 145.475 351.925 145.475C353.125 145.475 353.475 146.3 353.475 147.575V154.5H356.825V146.325C356.825 143.725 355.2 142.675 353.425 142.675C351.65 142.675 350.425 143.45 349.825 145.15V137.8ZM358.229 151.825C358.679 154 360.329 154.8 363.179 154.8C366.004 154.8 368.129 153.8 368.129 151.225C368.129 149.25 367.029 148 364.679 147.5L363.054 147.15C362.279 147 361.929 146.675 361.929 146.1C361.929 145.5 362.454 145.15 363.229 145.15C364.179 145.15 364.704 145.45 364.829 146.375L367.954 145.925C367.779 143.675 366.129 142.675 363.379 142.675C361.004 142.675 358.679 143.5 358.679 146.425C358.679 148.175 359.604 149.325 361.629 149.85L363.329 150.25C364.354 150.5 364.804 150.8 364.804 151.45C364.804 152.125 364.154 152.45 363.229 152.45C362.129 152.45 361.229 151.975 360.979 150.725L358.229 151.825ZM373.312 148.075C373.312 146.325 374.512 145.35 375.737 145.35C377.212 145.35 378.137 146.35 378.137 148.75C378.137 151.2 376.937 152.4 375.512 152.4C374.537 152.4 373.312 151.75 373.312 149.775V148.075ZM373.162 152.825C373.512 153.925 374.612 154.8 376.587 154.8C379.712 154.8 381.512 152.25 381.512 148.45C381.512 144.775 379.887 142.675 377.062 142.675C375.412 142.675 373.962 143.35 373.337 145.1V137.8H369.987V154.5H372.337L373.162 152.825ZM389.053 150.875C389.053 152 388.028 152.425 387.153 152.425C386.353 152.425 385.878 151.95 385.878 151.275C385.878 150.25 386.703 149.625 389.053 149.7V150.875ZM392.353 146.5C392.353 143.925 390.703 142.675 387.828 142.675C385.178 142.675 383.103 143.825 382.928 146.275L386.253 146.9C386.303 145.825 386.778 145.2 387.703 145.2C388.628 145.2 389.053 145.8 389.053 146.8V147.9C384.603 147.65 382.528 149.05 382.528 151.625C382.528 153.6 383.878 154.8 385.928 154.8C387.503 154.8 388.753 154.325 389.278 152.9C389.653 154.15 390.553 154.725 392.028 154.725C392.828 154.725 393.453 154.6 393.928 154.3V151.875C393.703 151.975 393.478 152.05 393.203 152.05C392.678 152.05 392.353 151.775 392.353 151V146.5ZM394.302 151.825C394.752 154 396.402 154.8 399.252 154.8C402.077 154.8 404.202 153.8 404.202 151.225C404.202 149.25 403.102 148 400.752 147.5L399.127 147.15C398.352 147 398.002 146.675 398.002 146.1C398.002 145.5 398.527 145.15 399.302 145.15C400.252 145.15 400.777 145.45 400.902 146.375L404.027 145.925C403.852 143.675 402.202 142.675 399.452 142.675C397.077 142.675 394.752 143.5 394.752 146.425C394.752 148.175 395.677 149.325 397.702 149.85L399.402 150.25C400.427 150.5 400.877 150.8 400.877 151.45C400.877 152.125 400.227 152.45 399.302 152.45C398.202 152.45 397.302 151.975 397.052 150.725L394.302 151.825ZM405.71 139.425C405.71 140.65 406.61 141.325 407.735 141.325C408.91 141.325 409.81 140.65 409.81 139.425C409.81 138.15 408.91 137.475 407.735 137.475C406.61 137.475 405.71 138.15 405.71 139.425ZM406.06 142.95V154.5H409.41V142.95H406.06ZM410.929 151.825C411.379 154 413.029 154.8 415.879 154.8C418.704 154.8 420.829 153.8 420.829 151.225C420.829 149.25 419.729 148 417.379 147.5L415.754 147.15C414.979 147 414.629 146.675 414.629 146.1C414.629 145.5 415.154 145.15 415.929 145.15C416.879 145.15 417.404 145.45 417.529 146.375L420.654 145.925C420.479 143.675 418.829 142.675 416.079 142.675C413.704 142.675 411.379 143.5 411.379 146.425C411.379 148.175 412.304 149.325 414.329 149.85L416.029 150.25C417.054 150.5 417.504 150.8 417.504 151.45C417.504 152.125 416.854 152.45 415.929 152.45C414.829 152.45 413.929 151.975 413.679 150.725L410.929 151.825ZM302.807 183.225C301.282 183.225 300.457 182.075 300.382 180.3H307.507C307.607 179.825 307.657 179.3 307.657 178.8C307.657 175.825 306.057 173.675 302.782 173.675C299.307 173.675 297.157 175.925 297.157 179.9C297.157 183.625 299.432 185.8 302.732 185.8C305.007 185.8 307.082 184.975 307.682 182.625L304.832 181.65C304.457 182.875 303.707 183.225 302.807 183.225ZM300.482 178.45C300.607 177.1 301.407 176.15 302.657 176.15C303.857 176.15 304.482 176.975 304.482 178.05C304.482 178.2 304.482 178.3 304.457 178.45H300.482ZM317.589 173.7C314.539 173.525 313.414 175.125 312.914 177.125L312.514 173.95H309.614V185.5H312.964V180.225C312.964 177.85 314.589 177.2 315.914 177.2C316.439 177.2 316.789 177.25 317.214 177.4L317.589 173.7ZM317.462 182.825C317.912 185 319.562 185.8 322.412 185.8C325.237 185.8 327.362 184.8 327.362 182.225C327.362 180.25 326.262 179 323.912 178.5L322.287 178.15C321.512 178 321.162 177.675 321.162 177.1C321.162 176.5 321.687 176.15 322.462 176.15C323.412 176.15 323.937 176.45 324.062 177.375L327.187 176.925C327.012 174.675 325.362 173.675 322.612 173.675C320.237 173.675 317.912 174.5 317.912 177.425C317.912 179.175 318.837 180.325 320.862 180.85L322.562 181.25C323.587 181.5 324.037 181.8 324.037 182.45C324.037 183.125 323.387 183.45 322.462 183.45C321.362 183.45 320.462 182.975 320.212 181.725L317.462 182.825ZM336.345 182.225C335.67 182.7 335.045 182.95 334.32 182.95C333.395 182.95 332.92 182.55 332.92 181.325V176.525H336.37V173.95H332.945V171.1L329.595 171.5V173.95H327.895V176.525H329.57V182.075C329.57 184.725 331.07 185.8 333.37 185.8C334.745 185.8 335.945 185.55 336.92 185.05L336.345 182.225ZM343.141 183.225C341.616 183.225 340.791 182.075 340.716 180.3H347.841C347.941 179.825 347.991 179.3 347.991 178.8C347.991 175.825 346.391 173.675 343.116 173.675C339.641 173.675 337.491 175.925 337.491 179.9C337.491 183.625 339.766 185.8 343.066 185.8C345.341 185.8 347.416 184.975 348.016 182.625L345.166 181.65C344.791 182.875 344.041 183.225 343.141 183.225ZM340.816 178.45C340.941 177.1 341.741 176.15 342.991 176.15C344.191 176.15 344.816 176.975 344.816 178.05C344.816 178.2 344.816 178.3 344.791 178.45H340.816ZM355.023 182.625C354.723 182.75 354.423 182.8 354.123 182.8C353.523 182.8 353.073 182.525 353.073 181.8V168.8H349.723V182.775C349.723 184.95 351.248 185.725 352.923 185.725C353.573 185.725 354.198 185.6 354.848 185.425L355.023 182.625ZM361.75 182.625C361.45 182.75 361.15 182.8 360.85 182.8C360.25 182.8 359.8 182.525 359.8 181.8V168.8H356.45V182.775C356.45 184.95 357.975 185.725 359.65 185.725C360.3 185.725 360.925 185.6 361.575 185.425L361.75 182.625ZM368.057 183.225C366.532 183.225 365.707 182.075 365.632 180.3H372.757C372.857 179.825 372.907 179.3 372.907 178.8C372.907 175.825 371.307 173.675 368.032 173.675C364.557 173.675 362.407 175.925 362.407 179.9C362.407 183.625 364.682 185.8 367.982 185.8C370.257 185.8 372.332 184.975 372.932 182.625L370.082 181.65C369.707 182.875 368.957 183.225 368.057 183.225ZM365.732 178.45C365.857 177.1 366.657 176.15 367.907 176.15C369.107 176.15 369.732 176.975 369.732 178.05C369.732 178.2 369.732 178.3 369.707 178.45H365.732ZM377.714 173.95H374.864V185.5H378.214V179.15C378.214 177.075 379.239 176.475 380.314 176.475C381.514 176.475 381.864 177.3 381.864 178.575V185.5H385.214V177.325C385.214 174.725 383.589 173.675 381.814 173.675C380.039 173.675 378.739 174.45 378.114 176.175L377.714 173.95Z" fill="#363C65"/>
<path d="M307.873 311.232H300.801L301.685 306.24H307.951L308.263 304.472H301.997L302.881 299.454H309.953L310.265 297.686H301.113L298.435 313H307.587L307.873 311.232ZM315.581 311.05C314.749 311.518 314.255 311.648 313.527 311.648C312.825 311.648 312.279 311.154 312.513 309.88L313.813 302.574H316.933L317.219 300.988H314.073L314.567 298.18L312.565 298.466L312.123 300.988H310.433L310.147 302.574H311.811L310.563 309.672C310.095 312.22 311.187 313.312 313.215 313.312C313.917 313.312 314.853 313.13 315.581 312.714V311.05ZM325.299 307.982C324.909 310.27 323.609 311.674 321.789 311.674C320.021 311.674 319.137 310.192 319.137 308.164C319.137 304.732 320.905 302.262 323.297 302.262C325.221 302.262 325.975 304.134 325.663 305.954L325.299 307.982ZM328.523 300.988H326.885L326.235 303.016C325.923 301.43 324.779 300.702 323.115 300.702C319.579 300.702 317.213 304.29 317.213 308.398C317.213 311.57 318.929 313.312 321.243 313.312C322.751 313.312 324.181 312.636 324.909 310.998C324.805 312.376 325.481 313.13 326.781 313.13C327.223 313.13 327.665 313.052 328.029 312.922L328.289 311.492C327.977 311.57 327.743 311.596 327.535 311.596C326.781 311.596 326.755 311.024 326.859 310.426L328.523 300.988ZM333.265 306.058C333.655 303.822 335.241 302.314 337.035 302.314C338.673 302.314 339.557 303.614 339.557 305.642C339.557 308.944 338.049 311.674 335.501 311.674C333.473 311.674 332.537 309.854 332.849 308.398L333.265 306.058ZM332.407 311.024C332.667 312.298 333.863 313.312 335.657 313.312C339.323 313.312 341.611 309.932 341.611 305.642C341.611 302.47 340.207 300.702 337.685 300.702C335.943 300.702 334.565 301.56 333.733 303.302L333.941 300.988H332.225L329.183 318.278H331.133L332.407 311.024ZM346.094 306.058C346.484 303.822 348.07 302.314 349.864 302.314C351.502 302.314 352.386 303.614 352.386 305.642C352.386 308.944 350.878 311.674 348.33 311.674C346.302 311.674 345.366 309.854 345.678 308.398L346.094 306.058ZM345.236 311.024C345.496 312.298 346.692 313.312 348.486 313.312C352.152 313.312 354.44 309.932 354.44 305.642C354.44 302.47 353.036 300.702 350.514 300.702C348.772 300.702 347.394 301.56 346.562 303.302L346.77 300.988H345.054L342.012 318.278H343.962L345.236 311.024ZM360.51 311.778C358.222 311.778 357.416 309.542 357.598 307.436H365.346C365.71 306.656 365.866 305.824 365.866 304.992C365.866 302.782 364.67 300.702 361.602 300.702C358.716 300.702 355.752 303.328 355.752 308.216C355.752 311.284 357.442 313.312 360.328 313.312C362.668 313.312 364.384 312.61 365.268 310.166L363.474 309.724C363.032 311.024 362.304 311.778 360.51 311.778ZM357.832 305.85C358.3 303.952 359.496 302.262 361.498 302.262C363.188 302.262 363.968 303.51 363.968 304.94C363.968 305.252 363.942 305.564 363.838 305.85H357.832ZM372.745 308.84H374.331C374.773 308.528 375.345 308.32 376.073 308.32C377.789 308.32 378.725 309.516 378.725 311.284C378.725 313.962 376.957 315.054 375.267 315.054C373.603 315.054 372.563 314.3 372.563 312.532L370.665 312.948C370.665 315.08 372.121 316.588 375.007 316.588C378.179 316.588 380.701 314.664 380.727 310.998C380.753 308.814 379.427 306.89 376.905 306.89C375.995 306.89 375.267 307.176 374.799 307.592L375.995 302.184H381.793L382.079 300.494H374.513L372.745 308.84Z" fill="white"/>
<path d="M271.57 332.125H273.32C274.745 332.125 275.395 332.85 275.395 334.375C275.395 335.75 274.795 336.475 273.32 336.475H271.57V332.125ZM271.57 344V339.25H273.745C276.92 339.25 278.77 337.375 278.77 334.25C278.77 331 277.195 329.275 273.42 329.275H268.17V344H271.57ZM284.957 344.3C288.307 344.3 290.532 342.1 290.532 338.2C290.532 334.275 288.307 332.175 284.957 332.175C281.582 332.175 279.357 334.275 279.357 338.2C279.357 342.1 281.582 344.3 284.957 344.3ZM284.957 334.85C286.482 334.85 287.232 335.925 287.232 338.2C287.232 340.6 286.507 341.7 284.957 341.7C283.382 341.7 282.657 340.6 282.657 338.2C282.657 335.925 283.407 334.85 284.957 334.85ZM299.299 340.725C298.624 341.2 297.999 341.45 297.274 341.45C296.349 341.45 295.874 341.05 295.874 339.825V335.025H299.324V332.45H295.899V329.6L292.549 330V332.45H290.849V335.025H292.524V340.575C292.524 343.225 294.024 344.3 296.324 344.3C297.699 344.3 298.899 344.05 299.874 343.55L299.299 340.725ZM305.846 341.725C304.321 341.725 303.496 340.575 303.421 338.8H310.546C310.646 338.325 310.696 337.8 310.696 337.3C310.696 334.325 309.096 332.175 305.821 332.175C302.346 332.175 300.196 334.425 300.196 338.4C300.196 342.125 302.471 344.3 305.771 344.3C308.046 344.3 310.121 343.475 310.721 341.125L307.871 340.15C307.496 341.375 306.746 341.725 305.846 341.725ZM303.521 336.95C303.646 335.6 304.446 334.65 305.696 334.65C306.896 334.65 307.521 335.475 307.521 336.55C307.521 336.7 307.521 336.8 307.496 336.95H303.521ZM315.253 332.45H312.403V344H315.753V337.65C315.753 335.575 316.778 334.975 317.853 334.975C319.053 334.975 319.403 335.8 319.403 337.075V344H322.753V335.825C322.753 333.225 321.128 332.175 319.353 332.175C317.578 332.175 316.278 332.95 315.653 334.675L315.253 332.45ZM333.207 334.55V332.45H324.357V335.1H327.307C328.607 335.1 329.307 334.975 329.307 334.975V335.075C329.307 335.075 328.632 335.675 327.732 336.9L324.157 341.975V344H333.432V341.4H329.907C328.632 341.4 327.907 341.525 327.907 341.525V341.425C327.907 341.425 328.582 340.825 329.482 339.6L333.207 334.55ZM334.6 328.925C334.6 330.15 335.5 330.825 336.625 330.825C337.8 330.825 338.7 330.15 338.7 328.925C338.7 327.65 337.8 326.975 336.625 326.975C335.5 326.975 334.6 327.65 334.6 328.925ZM334.95 332.45V344H338.3V332.45H334.95ZM346.345 340.375C346.345 341.5 345.32 341.925 344.445 341.925C343.645 341.925 343.17 341.45 343.17 340.775C343.17 339.75 343.995 339.125 346.345 339.2V340.375ZM349.645 336C349.645 333.425 347.995 332.175 345.12 332.175C342.47 332.175 340.395 333.325 340.22 335.775L343.545 336.4C343.595 335.325 344.07 334.7 344.995 334.7C345.92 334.7 346.345 335.3 346.345 336.3V337.4C341.895 337.15 339.82 338.55 339.82 341.125C339.82 343.1 341.17 344.3 343.22 344.3C344.795 344.3 346.045 343.825 346.57 342.4C346.945 343.65 347.845 344.225 349.32 344.225C350.12 344.225 350.745 344.1 351.22 343.8V341.375C350.995 341.475 350.77 341.55 350.495 341.55C349.97 341.55 349.645 341.275 349.645 340.5V336ZM357.544 341.125C357.244 341.25 356.944 341.3 356.644 341.3C356.044 341.3 355.594 341.025 355.594 340.3V327.3H352.244V341.275C352.244 343.45 353.769 344.225 355.444 344.225C356.094 344.225 356.719 344.1 357.369 343.925L357.544 341.125ZM359.346 335.025V344H362.671V335.025H365.621V332.45H362.671V331.7C362.671 330.3 363.346 329.925 364.321 329.925C365.121 329.925 365.721 330.1 366.296 330.425L366.771 327.65C365.971 327.275 365.096 327.1 363.971 327.1C361.446 327.1 359.346 328.275 359.346 331.6V332.45H357.646V335.025H359.346ZM371.079 341.725C369.554 341.725 368.729 340.575 368.654 338.8H375.779C375.879 338.325 375.929 337.8 375.929 337.3C375.929 334.325 374.329 332.175 371.054 332.175C367.579 332.175 365.429 334.425 365.429 338.4C365.429 342.125 367.704 344.3 371.004 344.3C373.279 344.3 375.354 343.475 375.954 341.125L373.104 340.15C372.729 341.375 371.979 341.725 371.079 341.725ZM368.754 336.95C368.879 335.6 369.679 334.65 370.929 334.65C372.129 334.65 372.754 335.475 372.754 336.55C372.754 336.7 372.754 336.8 372.729 336.95H368.754ZM382.711 341.125C382.411 341.25 382.111 341.3 381.811 341.3C381.211 341.3 380.761 341.025 380.761 340.3V327.3H377.411V341.275C377.411 343.45 378.936 344.225 380.611 344.225C381.261 344.225 381.886 344.1 382.536 343.925L382.711 341.125ZM391.318 339.2C391.318 340.875 390.168 341.725 389.018 341.725C387.443 341.725 386.468 340.5 386.468 338.325C386.468 335.6 387.743 334.65 389.068 334.65C390.218 334.65 391.318 335.35 391.318 337.05V339.2ZM391.293 333.975C390.993 332.875 389.743 332.175 388.268 332.175C384.968 332.175 383.118 334.525 383.118 338.475C383.118 342.275 385.168 344.3 387.718 344.3C389.443 344.3 390.893 343.75 391.318 342L391.743 344H394.643V327.3H391.293V333.975ZM401.934 341.725C400.409 341.725 399.584 340.575 399.509 338.8H406.634C406.734 338.325 406.784 337.8 406.784 337.3C406.784 334.325 405.184 332.175 401.909 332.175C398.434 332.175 396.284 334.425 396.284 338.4C396.284 342.125 398.559 344.3 401.859 344.3C404.134 344.3 406.209 343.475 406.809 341.125L403.959 340.15C403.584 341.375 402.834 341.725 401.934 341.725ZM399.609 336.95C399.734 335.6 400.534 334.65 401.784 334.65C402.984 334.65 403.609 335.475 403.609 336.55C403.609 336.7 403.609 336.8 403.584 336.95H399.609ZM416.467 332.2C413.417 332.025 412.292 333.625 411.792 335.625L411.392 332.45H408.492V344H411.842V338.725C411.842 336.35 413.467 335.7 414.792 335.7C415.317 335.7 415.667 335.75 416.092 335.9L416.467 332.2ZM277.035 359.925C277.035 361.15 277.935 361.825 279.06 361.825C280.235 361.825 281.135 361.15 281.135 359.925C281.135 358.65 280.235 357.975 279.06 357.975C277.935 357.975 277.035 358.65 277.035 359.925ZM277.385 363.45V375H280.735V363.45H277.385ZM290.579 370.2C290.579 371.875 289.429 372.725 288.279 372.725C286.704 372.725 285.729 371.5 285.729 369.325C285.729 366.6 287.004 365.65 288.329 365.65C289.479 365.65 290.579 366.35 290.579 368.05V370.2ZM290.554 364.975C290.254 363.875 289.004 363.175 287.529 363.175C284.229 363.175 282.379 365.525 282.379 369.475C282.379 373.275 284.429 375.3 286.979 375.3C288.704 375.3 290.154 374.75 290.579 373L291.004 375H293.904V358.3H290.554V364.975ZM301.195 372.725C299.67 372.725 298.845 371.575 298.77 369.8H305.895C305.995 369.325 306.045 368.8 306.045 368.3C306.045 365.325 304.445 363.175 301.17 363.175C297.695 363.175 295.545 365.425 295.545 369.4C295.545 373.125 297.82 375.3 301.12 375.3C303.395 375.3 305.47 374.475 306.07 372.125L303.22 371.15C302.845 372.375 302.095 372.725 301.195 372.725ZM298.87 367.95C298.995 366.6 299.795 365.65 301.045 365.65C302.245 365.65 302.87 366.475 302.87 367.55C302.87 367.7 302.87 367.8 302.845 367.95H298.87ZM310.602 363.45H307.752V375H311.102V368.65C311.102 366.575 312.127 365.975 313.202 365.975C314.402 365.975 314.752 366.8 314.752 368.075V375H318.102V366.825C318.102 364.225 316.477 363.175 314.702 363.175C312.927 363.175 311.627 363.95 311.002 365.675L310.602 363.45ZM327.506 371.725C326.831 372.2 326.206 372.45 325.481 372.45C324.556 372.45 324.081 372.05 324.081 370.825V366.025H327.531V363.45H324.106V360.6L320.756 361V363.45H319.056V366.025H320.731V371.575C320.731 374.225 322.231 375.3 324.531 375.3C325.906 375.3 327.106 375.05 328.081 374.55L327.506 371.725ZM328.924 359.925C328.924 361.15 329.824 361.825 330.949 361.825C332.124 361.825 333.024 361.15 333.024 359.925C333.024 358.65 332.124 357.975 330.949 357.975C329.824 357.975 328.924 358.65 328.924 359.925ZM329.274 363.45V375H332.624V363.45H329.274ZM335.418 366.025V375H338.743V366.025H342.293V375H345.643V363.45H338.743V362.8C338.743 361.325 339.743 360.925 340.743 360.925C341.543 360.925 342.368 361.225 342.943 361.65L344.093 358.95C343.143 358.425 341.968 358.1 340.518 358.1C338.118 358.1 335.418 359.175 335.418 362.7V363.45H333.718V366.025H335.418ZM356.213 365.55V363.45H347.363V366.1H350.313C351.613 366.1 352.313 365.975 352.313 365.975V366.075C352.313 366.075 351.638 366.675 350.738 367.9L347.163 372.975V375H356.438V372.4H352.913C351.638 372.4 350.913 372.525 350.913 372.525V372.425C350.913 372.425 351.588 371.825 352.488 370.6L356.213 365.55ZM357.607 359.925C357.607 361.15 358.507 361.825 359.632 361.825C360.807 361.825 361.707 361.15 361.707 359.925C361.707 358.65 360.807 357.975 359.632 357.975C358.507 357.975 357.607 358.65 357.607 359.925ZM357.957 363.45V375H361.307V363.45H357.957ZM368.601 372.725C367.076 372.725 366.251 371.575 366.176 369.8H373.301C373.401 369.325 373.451 368.8 373.451 368.3C373.451 365.325 371.851 363.175 368.576 363.175C365.101 363.175 362.951 365.425 362.951 369.4C362.951 373.125 365.226 375.3 368.526 375.3C370.801 375.3 372.876 374.475 373.476 372.125L370.626 371.15C370.251 372.375 369.501 372.725 368.601 372.725ZM366.276 367.95C366.401 366.6 367.201 365.65 368.451 365.65C369.651 365.65 370.276 366.475 370.276 367.55C370.276 367.7 370.276 367.8 370.251 367.95H366.276ZM383.133 363.2C380.083 363.025 378.958 364.625 378.458 366.625L378.058 363.45H375.158V375H378.508V369.725C378.508 367.35 380.133 366.7 381.458 366.7C381.983 366.7 382.333 366.75 382.758 366.9L383.133 363.2ZM388.829 372.725C387.304 372.725 386.479 371.575 386.404 369.8H393.529C393.629 369.325 393.679 368.8 393.679 368.3C393.679 365.325 392.079 363.175 388.804 363.175C385.329 363.175 383.179 365.425 383.179 369.4C383.179 373.125 385.454 375.3 388.754 375.3C391.029 375.3 393.104 374.475 393.704 372.125L390.854 371.15C390.479 372.375 389.729 372.725 388.829 372.725ZM386.504 367.95C386.629 366.6 387.429 365.65 388.679 365.65C389.879 365.65 390.504 366.475 390.504 367.55C390.504 367.7 390.504 367.8 390.479 367.95H386.504ZM398.237 363.45H395.387V375H398.737V368.65C398.737 366.575 399.762 365.975 400.837 365.975C402.037 365.975 402.387 366.8 402.387 368.075V375H405.737V366.825C405.737 364.225 404.112 363.175 402.337 363.175C400.562 363.175 399.262 363.95 398.637 365.675L398.237 363.45Z" fill="white"/>
<path d="M505.373 311.232H498.301L499.185 306.24H505.451L505.763 304.472H499.497L500.381 299.454H507.453L507.765 297.686H498.613L495.935 313H505.087L505.373 311.232ZM513.081 311.05C512.249 311.518 511.755 311.648 511.027 311.648C510.325 311.648 509.779 311.154 510.013 309.88L511.313 302.574H514.433L514.719 300.988H511.573L512.067 298.18L510.065 298.466L509.623 300.988H507.933L507.647 302.574H509.311L508.063 309.672C507.595 312.22 508.687 313.312 510.715 313.312C511.417 313.312 512.353 313.13 513.081 312.714V311.05ZM522.799 307.982C522.409 310.27 521.109 311.674 519.289 311.674C517.521 311.674 516.637 310.192 516.637 308.164C516.637 304.732 518.405 302.262 520.797 302.262C522.721 302.262 523.475 304.134 523.163 305.954L522.799 307.982ZM526.023 300.988H524.385L523.735 303.016C523.423 301.43 522.279 300.702 520.615 300.702C517.079 300.702 514.713 304.29 514.713 308.398C514.713 311.57 516.429 313.312 518.743 313.312C520.251 313.312 521.681 312.636 522.409 310.998C522.305 312.376 522.981 313.13 524.281 313.13C524.723 313.13 525.165 313.052 525.529 312.922L525.789 311.492C525.477 311.57 525.243 311.596 525.035 311.596C524.281 311.596 524.255 311.024 524.359 310.426L526.023 300.988ZM530.765 306.058C531.155 303.822 532.741 302.314 534.535 302.314C536.173 302.314 537.057 303.614 537.057 305.642C537.057 308.944 535.549 311.674 533.001 311.674C530.973 311.674 530.037 309.854 530.349 308.398L530.765 306.058ZM529.907 311.024C530.167 312.298 531.363 313.312 533.157 313.312C536.823 313.312 539.111 309.932 539.111 305.642C539.111 302.47 537.707 300.702 535.185 300.702C533.443 300.702 532.065 301.56 531.233 303.302L531.441 300.988H529.725L526.683 318.278H528.633L529.907 311.024ZM543.594 306.058C543.984 303.822 545.57 302.314 547.364 302.314C549.002 302.314 549.886 303.614 549.886 305.642C549.886 308.944 548.378 311.674 545.83 311.674C543.802 311.674 542.866 309.854 543.178 308.398L543.594 306.058ZM542.736 311.024C542.996 312.298 544.192 313.312 545.986 313.312C549.652 313.312 551.94 309.932 551.94 305.642C551.94 302.47 550.536 300.702 548.014 300.702C546.272 300.702 544.894 301.56 544.062 303.302L544.27 300.988H542.554L539.512 318.278H541.462L542.736 311.024ZM558.01 311.778C555.722 311.778 554.916 309.542 555.098 307.436H562.846C563.21 306.656 563.366 305.824 563.366 304.992C563.366 302.782 562.17 300.702 559.102 300.702C556.216 300.702 553.252 303.328 553.252 308.216C553.252 311.284 554.942 313.312 557.828 313.312C560.168 313.312 561.884 312.61 562.768 310.166L560.974 309.724C560.532 311.024 559.804 311.778 558.01 311.778ZM555.332 305.85C555.8 303.952 556.996 302.262 558.998 302.262C560.688 302.262 561.468 303.51 561.468 304.94C561.468 305.252 561.442 305.564 561.338 305.85H555.332ZM578.149 311.336H571.311V311.232C574.327 310.426 578.799 307.826 578.799 304.004C578.799 301.482 577.239 300.182 574.691 300.182C573.001 300.182 570.375 300.91 570.115 304.212L571.961 304.602C571.961 302.548 573.183 301.872 574.483 301.872C575.913 301.872 576.719 302.678 576.719 304.056C576.719 306.968 573.807 309.1 568.945 311.44L568.685 313H577.863L578.149 311.336Z" fill="#363C65"/>
<path d="M488.114 344C487.639 343.5 487.439 343 487.289 342.425L486.539 339.675C486.164 338.325 485.439 337.75 484.089 337.525V337.475C485.989 337.275 487.314 336.05 487.314 333.775C487.314 330.475 485.264 329.275 481.964 329.275H476.164V344H479.564V338.8H481.014C482.139 338.8 482.714 339.025 483.014 340.275L483.564 342.475C483.714 343.1 483.889 343.65 484.339 344H488.114ZM479.564 332.15H481.739C483.139 332.15 483.839 332.825 483.839 334.075C483.839 335.475 483.089 336 481.739 336H479.564V332.15ZM495.539 340.375C495.539 341.5 494.514 341.925 493.639 341.925C492.839 341.925 492.364 341.45 492.364 340.775C492.364 339.75 493.189 339.125 495.539 339.2V340.375ZM498.839 336C498.839 333.425 497.189 332.175 494.314 332.175C491.664 332.175 489.589 333.325 489.414 335.775L492.739 336.4C492.789 335.325 493.264 334.7 494.189 334.7C495.114 334.7 495.539 335.3 495.539 336.3V337.4C491.089 337.15 489.014 338.55 489.014 341.125C489.014 343.1 490.364 344.3 492.414 344.3C493.989 344.3 495.239 343.825 495.764 342.4C496.139 343.65 497.039 344.225 498.514 344.225C499.314 344.225 499.939 344.1 500.414 343.8V341.375C500.189 341.475 499.964 341.55 499.689 341.55C499.164 341.55 498.839 341.275 498.839 340.5V336ZM508.895 344H511.795V332.45H508.445V338.65C508.445 340.875 507.52 341.775 506.37 341.775C505.22 341.775 504.795 341 504.795 339.625V332.45H501.445V340.575C501.445 343.25 502.87 344.3 504.92 344.3C507.045 344.3 508.095 343.425 508.495 341.85L508.895 344ZM513.326 341.325C513.776 343.5 515.426 344.3 518.276 344.3C521.101 344.3 523.226 343.3 523.226 340.725C523.226 338.75 522.126 337.5 519.776 337L518.151 336.65C517.376 336.5 517.026 336.175 517.026 335.6C517.026 335 517.551 334.65 518.326 334.65C519.276 334.65 519.801 334.95 519.926 335.875L523.051 335.425C522.876 333.175 521.226 332.175 518.476 332.175C516.101 332.175 513.776 333 513.776 335.925C513.776 337.675 514.701 338.825 516.726 339.35L518.426 339.75C519.451 340 519.901 340.3 519.901 340.95C519.901 341.625 519.251 341.95 518.326 341.95C517.226 341.95 516.326 341.475 516.076 340.225L513.326 341.325ZM529.509 332.175C526.434 332.175 524.384 333.575 524.384 336.25C524.384 338.1 525.209 339.1 526.784 339.725C525.434 340.1 524.834 341.1 524.834 342C524.834 343.025 525.559 343.975 526.709 344.05C524.634 344.2 523.659 345.025 523.659 346.375C523.659 348.6 526.209 349.275 529.059 349.275C532.359 349.275 535.759 348.425 535.759 345.125C535.759 343.125 534.284 341.725 531.684 341.725H528.384C527.784 341.725 527.459 341.425 527.459 341.025C527.459 340.65 527.609 340.325 528.009 340.075C528.284 340.175 528.859 340.225 529.409 340.225C532.359 340.225 534.709 338.925 534.709 336.25C534.709 335.45 534.534 334.75 534.184 334.2C535.134 333.925 536.159 333.15 536.284 332.025L533.659 331.15C533.409 332.075 533.284 332.4 532.784 332.9C531.934 332.425 530.809 332.175 529.509 332.175ZM526.734 345.725C526.734 345.05 527.409 344.725 528.359 344.725H531.209C532.209 344.725 532.634 345 532.634 345.7C532.634 346.625 531.759 347.05 529.434 347.05C527.659 347.05 526.734 346.625 526.734 345.725ZM527.759 336.25C527.759 335.1 528.334 334.475 529.509 334.45C530.659 334.45 531.284 335.025 531.284 336.25C531.284 337.4 530.659 338.025 529.509 338.025C528.334 338.025 527.759 337.275 527.759 336.25ZM541.544 341.725C540.019 341.725 539.194 340.575 539.119 338.8H546.244C546.344 338.325 546.394 337.8 546.394 337.3C546.394 334.325 544.794 332.175 541.519 332.175C538.044 332.175 535.894 334.425 535.894 338.4C535.894 342.125 538.169 344.3 541.469 344.3C543.744 344.3 545.819 343.475 546.419 341.125L543.569 340.15C543.194 341.375 542.444 341.725 541.544 341.725ZM539.219 336.95C539.344 335.6 540.144 334.65 541.394 334.65C542.594 334.65 543.219 335.475 543.219 336.55C543.219 336.7 543.219 336.8 543.194 336.95H539.219ZM551.701 327.3H548.351V344H551.701V337.625C551.701 335.575 552.726 334.975 553.801 334.975C555.001 334.975 555.351 335.8 555.351 337.075V344H558.701V335.825C558.701 333.225 557.076 332.175 555.301 332.175C553.526 332.175 552.301 332.95 551.701 334.65V327.3ZM566.13 341.725C564.605 341.725 563.78 340.575 563.705 338.8H570.83C570.93 338.325 570.98 337.8 570.98 337.3C570.98 334.325 569.38 332.175 566.105 332.175C562.63 332.175 560.48 334.425 560.48 338.4C560.48 342.125 562.755 344.3 566.055 344.3C568.33 344.3 570.405 343.475 571.005 341.125L568.155 340.15C567.78 341.375 567.03 341.725 566.13 341.725ZM563.805 336.95C563.93 335.6 564.73 334.65 565.98 334.65C567.18 334.65 567.805 335.475 567.805 336.55C567.805 336.7 567.805 336.8 567.78 336.95H563.805ZM575.787 332.45H572.937V344H576.287V337.65C576.287 335.575 577.312 334.975 578.387 334.975C579.587 334.975 579.937 335.8 579.937 337.075V344H583.287V335.825C583.287 333.225 581.662 332.175 579.887 332.175C578.112 332.175 576.812 332.95 576.187 334.675L575.787 332.45ZM603.609 342.2L601.584 340.375C602.159 339.7 602.759 338.45 602.934 337.3L600.209 336.325C600.159 337.15 599.959 337.975 599.634 338.525L596.759 335.775C598.509 335.4 599.959 334.375 599.959 332.55C599.959 330.2 597.984 328.975 595.459 328.975C592.809 328.975 590.734 330.175 590.734 332.6C590.734 333.8 591.284 334.825 592.184 335.675L592.984 336.475C590.634 337.05 589.584 338.625 589.584 340.35C589.584 343.2 592.034 344.3 594.459 344.3C596.684 344.3 598.159 343.8 599.484 342.7L601.209 344.35L603.609 342.2ZM592.909 339.95C592.909 338.8 593.459 338.2 594.259 337.65L597.609 340.875C596.984 341.575 596.159 341.85 595.084 341.85C593.759 341.85 592.909 341.1 592.909 339.95ZM595.434 331.225C596.359 331.225 596.884 331.75 596.884 332.6C596.884 333.4 596.459 334.15 595.684 334.725L594.784 333.775C594.384 333.35 594.134 333 594.134 332.425C594.134 331.725 594.634 331.225 595.434 331.225ZM460.924 371.6L462.974 368.225C463.724 367 464.074 365.975 464.074 365.975H464.174C464.174 365.975 464.049 366.8 464.049 368.475V375H467.424V360.275H464.024L461.224 365.25C460.399 366.7 460.174 367.4 460.174 367.4H460.074C460.074 367.4 459.874 366.7 459.024 365.25L456.249 360.275H452.799V375H456.199V368.475C456.199 366.8 456.049 365.975 456.049 365.975H456.149C456.149 365.975 456.499 367 457.274 368.225L459.299 371.6H460.924ZM475.33 372.725C473.805 372.725 472.98 371.575 472.905 369.8H480.03C480.13 369.325 480.18 368.8 480.18 368.3C480.18 365.325 478.58 363.175 475.305 363.175C471.83 363.175 469.68 365.425 469.68 369.4C469.68 373.125 471.955 375.3 475.255 375.3C477.53 375.3 479.605 374.475 480.205 372.125L477.355 371.15C476.98 372.375 476.23 372.725 475.33 372.725ZM473.005 367.95C473.13 366.6 473.93 365.65 475.18 365.65C476.38 365.65 477.005 366.475 477.005 367.55C477.005 367.7 477.005 367.8 476.98 367.95H473.005ZM484.988 363.45H482.138V375H485.488V368.65C485.488 366.575 486.513 365.975 487.588 365.975C488.788 365.975 489.138 366.8 489.138 368.075V375H492.488V366.825C492.488 364.225 490.863 363.175 489.088 363.175C487.313 363.175 486.013 363.95 485.388 365.675L484.988 363.45ZM493.891 372.325C494.341 374.5 495.991 375.3 498.841 375.3C501.666 375.3 503.791 374.3 503.791 371.725C503.791 369.75 502.691 368.5 500.341 368L498.716 367.65C497.941 367.5 497.591 367.175 497.591 366.6C497.591 366 498.116 365.65 498.891 365.65C499.841 365.65 500.366 365.95 500.491 366.875L503.616 366.425C503.441 364.175 501.791 363.175 499.041 363.175C496.666 363.175 494.341 364 494.341 366.925C494.341 368.675 495.266 369.825 497.291 370.35L498.991 370.75C500.016 371 500.466 371.3 500.466 371.95C500.466 372.625 499.816 372.95 498.891 372.95C497.791 372.95 496.891 372.475 496.641 371.225L493.891 372.325ZM512.399 370.95C512.099 372.275 511.424 372.725 510.524 372.725C509.024 372.725 508.149 371.425 508.149 369.225C508.149 367.125 508.974 365.8 510.474 365.8C511.599 365.8 512.174 366.525 512.349 367.75L515.174 366.975C514.999 364.65 513.249 363.175 510.499 363.175C507.124 363.175 504.899 365.425 504.899 369.275C504.899 373.125 507.124 375.3 510.474 375.3C512.924 375.3 514.924 374.225 515.349 371.9L512.399 370.95ZM520.242 358.3H516.892V375H520.242V368.625C520.242 366.575 521.267 365.975 522.342 365.975C523.542 365.975 523.892 366.8 523.892 368.075V375H527.242V366.825C527.242 364.225 525.617 363.175 523.842 363.175C522.067 363.175 520.842 363.95 520.242 365.65V358.3ZM534.671 372.725C533.146 372.725 532.321 371.575 532.246 369.8H539.371C539.471 369.325 539.521 368.8 539.521 368.3C539.521 365.325 537.921 363.175 534.646 363.175C531.171 363.175 529.021 365.425 529.021 369.4C529.021 373.125 531.296 375.3 534.596 375.3C536.871 375.3 538.946 374.475 539.546 372.125L536.696 371.15C536.321 372.375 535.571 372.725 534.671 372.725ZM532.346 367.95C532.471 366.6 533.271 365.65 534.521 365.65C535.721 365.65 536.346 366.475 536.346 367.55C536.346 367.7 536.346 367.8 536.321 367.95H532.346ZM544.328 363.45H541.478V375H544.828V368.65C544.828 366.575 545.853 365.975 546.928 365.975C548.128 365.975 548.478 366.8 548.478 368.075V375H551.828V366.825C551.828 364.225 550.203 363.175 548.428 363.175C546.653 363.175 545.353 363.95 544.728 365.675L544.328 363.45ZM566.5 371.725C565.825 372.2 565.2 372.45 564.475 372.45C563.55 372.45 563.075 372.05 563.075 370.825V366.025H566.525V363.45H563.1V360.6L559.75 361V363.45H558.05V366.025H559.725V371.575C559.725 374.225 561.225 375.3 563.525 375.3C564.9 375.3 566.1 375.05 567.075 374.55L566.5 371.725ZM576.493 363.2C573.443 363.025 572.318 364.625 571.818 366.625L571.418 363.45H568.518V375H571.868V369.725C571.868 367.35 573.493 366.7 574.818 366.7C575.343 366.7 575.693 366.75 576.118 366.9L576.493 363.2ZM582.44 372.725C580.915 372.725 580.09 371.575 580.015 369.8H587.14C587.24 369.325 587.29 368.8 587.29 368.3C587.29 365.325 585.69 363.175 582.415 363.175C578.94 363.175 576.79 365.425 576.79 369.4C576.79 373.125 579.065 375.3 582.365 375.3C584.64 375.3 586.715 374.475 587.315 372.125L584.465 371.15C584.09 372.375 583.34 372.725 582.44 372.725ZM580.115 367.95C580.24 366.6 581.04 365.65 582.29 365.65C583.49 365.65 584.115 366.475 584.115 367.55C584.115 367.7 584.115 367.8 584.09 367.95H580.115ZM596.522 366.025V375H599.872V366.025H602.822V363.45H599.872V362.8C599.872 361.4 600.622 361 601.597 361C602.322 361 602.897 361.25 603.472 361.65L603.997 358.55C603.097 358.275 602.122 358.1 601.147 358.1C598.772 358.125 596.522 359.275 596.522 362.6V363.45H592.972V362.725C592.972 361.6 593.472 361.15 594.372 361.15C594.847 361.15 595.247 361.275 595.722 361.6L596.222 358.8C595.422 358.45 594.997 358.35 593.872 358.35C591.847 358.35 589.647 359.4 589.647 362.65V363.45H587.947V366.025H589.647V375H592.972V366.025H596.522ZM608.515 372.725C606.99 372.725 606.165 371.575 606.09 369.8H613.215C613.315 369.325 613.365 368.8 613.365 368.3C613.365 365.325 611.765 363.175 608.49 363.175C605.015 363.175 602.865 365.425 602.865 369.4C602.865 373.125 605.14 375.3 608.44 375.3C610.715 375.3 612.79 374.475 613.39 372.125L610.54 371.15C610.165 372.375 609.415 372.725 608.515 372.725ZM606.19 367.95C606.315 366.6 607.115 365.65 608.365 365.65C609.565 365.65 610.19 366.475 610.19 367.55C610.19 367.7 610.19 367.8 610.165 367.95H606.19ZM618.172 363.45H615.322V375H618.672V368.65C618.672 366.575 619.697 365.975 620.772 365.975C621.972 365.975 622.322 366.8 622.322 368.075V375H625.672V366.825C625.672 364.225 624.047 363.175 622.272 363.175C620.497 363.175 619.197 363.95 618.572 365.675L618.172 363.45Z" fill="#363C65"/>
<path d="M109.319 311.232H102.247L103.131 306.24H109.397L109.709 304.472H103.443L104.327 299.454H111.399L111.711 297.686H102.559L99.8813 313H109.033L109.319 311.232ZM117.028 311.05C116.196 311.518 115.702 311.648 114.974 311.648C114.272 311.648 113.726 311.154 113.96 309.88L115.26 302.574H118.38L118.666 300.988H115.52L116.014 298.18L114.012 298.466L113.57 300.988H111.88L111.594 302.574H113.258L112.01 309.672C111.542 312.22 112.634 313.312 114.662 313.312C115.364 313.312 116.3 313.13 117.028 312.714V311.05ZM126.745 307.982C126.355 310.27 125.055 311.674 123.235 311.674C121.467 311.674 120.583 310.192 120.583 308.164C120.583 304.732 122.351 302.262 124.743 302.262C126.667 302.262 127.421 304.134 127.109 305.954L126.745 307.982ZM129.969 300.988H128.331L127.681 303.016C127.369 301.43 126.225 300.702 124.561 300.702C121.025 300.702 118.659 304.29 118.659 308.398C118.659 311.57 120.375 313.312 122.689 313.312C124.197 313.312 125.627 312.636 126.355 310.998C126.251 312.376 126.927 313.13 128.227 313.13C128.669 313.13 129.111 313.052 129.475 312.922L129.735 311.492C129.423 311.57 129.189 311.596 128.981 311.596C128.227 311.596 128.201 311.024 128.305 310.426L129.969 300.988ZM134.711 306.058C135.101 303.822 136.687 302.314 138.481 302.314C140.119 302.314 141.003 303.614 141.003 305.642C141.003 308.944 139.495 311.674 136.947 311.674C134.919 311.674 133.983 309.854 134.295 308.398L134.711 306.058ZM133.853 311.024C134.113 312.298 135.309 313.312 137.103 313.312C140.769 313.312 143.057 309.932 143.057 305.642C143.057 302.47 141.653 300.702 139.131 300.702C137.389 300.702 136.011 301.56 135.179 303.302L135.387 300.988H133.671L130.629 318.278H132.579L133.853 311.024ZM147.541 306.058C147.931 303.822 149.517 302.314 151.311 302.314C152.949 302.314 153.833 303.614 153.833 305.642C153.833 308.944 152.325 311.674 149.777 311.674C147.749 311.674 146.813 309.854 147.125 308.398L147.541 306.058ZM146.683 311.024C146.943 312.298 148.139 313.312 149.933 313.312C153.599 313.312 155.887 309.932 155.887 305.642C155.887 302.47 154.483 300.702 151.961 300.702C150.219 300.702 148.841 301.56 148.009 303.302L148.217 300.988H146.501L143.459 318.278H145.409L146.683 311.024ZM161.956 311.778C159.668 311.778 158.862 309.542 159.044 307.436H166.792C167.156 306.656 167.312 305.824 167.312 304.992C167.312 302.782 166.116 300.702 163.048 300.702C160.162 300.702 157.198 303.328 157.198 308.216C157.198 311.284 158.888 313.312 161.774 313.312C164.114 313.312 165.83 312.61 166.714 310.166L164.92 309.724C164.478 311.024 163.75 311.778 161.956 311.778ZM159.278 305.85C159.746 303.952 160.942 302.262 162.944 302.262C164.634 302.262 165.414 303.51 165.414 304.94C165.414 305.252 165.388 305.564 165.284 305.85H159.278ZM179.158 316.406H181.186L182.044 311.596H184.566L184.852 310.01H182.304L183.968 300.494H181.888L172.866 310.296L172.632 311.596H180.016L179.158 316.406ZM177.286 310.01C175.622 310.01 175.18 310.088 175.18 310.088V309.984C175.18 309.984 175.83 309.49 176.87 308.294L179.34 305.512C180.848 303.796 181.55 302.834 181.55 302.834H181.654C181.654 302.834 181.316 303.978 180.978 305.954L180.276 310.01H177.286Z" fill="#363C65"/>
<path d="M96.1556 332.125H97.9056C99.3306 332.125 99.9806 332.85 99.9806 334.375C99.9806 335.75 99.3806 336.475 97.9056 336.475H96.1556V332.125ZM96.1556 344V339.25H98.3306C101.506 339.25 103.356 337.375 103.356 334.25C103.356 331 101.781 329.275 98.0056 329.275H92.7556V344H96.1556ZM109.793 344.3C113.143 344.3 115.368 342.1 115.368 338.2C115.368 334.275 113.143 332.175 109.793 332.175C106.418 332.175 104.193 334.275 104.193 338.2C104.193 342.1 106.418 344.3 109.793 344.3ZM109.793 334.85C111.318 334.85 112.068 335.925 112.068 338.2C112.068 340.6 111.343 341.7 109.793 341.7C108.218 341.7 107.493 340.6 107.493 338.2C107.493 335.925 108.243 334.85 109.793 334.85ZM124.385 340.725C123.71 341.2 123.085 341.45 122.36 341.45C121.435 341.45 120.96 341.05 120.96 339.825V335.025H124.41V332.45H120.985V329.6L117.635 330V332.45H115.935V335.025H117.61V340.575C117.61 343.225 119.11 344.3 121.41 344.3C122.785 344.3 123.985 344.05 124.96 343.55L124.385 340.725ZM131.182 341.725C129.657 341.725 128.832 340.575 128.757 338.8H135.882C135.982 338.325 136.032 337.8 136.032 337.3C136.032 334.325 134.432 332.175 131.157 332.175C127.682 332.175 125.532 334.425 125.532 338.4C125.532 342.125 127.807 344.3 131.107 344.3C133.382 344.3 135.457 343.475 136.057 341.125L133.207 340.15C132.832 341.375 132.082 341.725 131.182 341.725ZM128.857 336.95C128.982 335.6 129.782 334.65 131.032 334.65C132.232 334.65 132.857 335.475 132.857 336.55C132.857 336.7 132.857 336.8 132.832 336.95H128.857ZM140.839 332.45H137.989V344H141.339V337.65C141.339 335.575 142.364 334.975 143.439 334.975C144.639 334.975 144.989 335.8 144.989 337.075V344H148.339V335.825C148.339 333.225 146.714 332.175 144.939 332.175C143.164 332.175 141.864 332.95 141.239 334.675L140.839 332.45ZM159.042 334.55V332.45H150.192V335.1H153.142C154.442 335.1 155.142 334.975 155.142 334.975V335.075C155.142 335.075 154.467 335.675 153.567 336.9L149.992 341.975V344H159.267V341.4H155.742C154.467 341.4 153.742 341.525 153.742 341.525V341.425C153.742 341.425 154.417 340.825 155.317 339.6L159.042 334.55ZM160.686 328.925C160.686 330.15 161.586 330.825 162.711 330.825C163.886 330.825 164.786 330.15 164.786 328.925C164.786 327.65 163.886 326.975 162.711 326.975C161.586 326.975 160.686 327.65 160.686 328.925ZM161.036 332.45V344H164.386V332.45H161.036ZM172.681 340.375C172.681 341.5 171.656 341.925 170.781 341.925C169.981 341.925 169.506 341.45 169.506 340.775C169.506 339.75 170.331 339.125 172.681 339.2V340.375ZM175.981 336C175.981 333.425 174.331 332.175 171.456 332.175C168.806 332.175 166.731 333.325 166.556 335.775L169.881 336.4C169.931 335.325 170.406 334.7 171.331 334.7C172.256 334.7 172.681 335.3 172.681 336.3V337.4C168.231 337.15 166.156 338.55 166.156 341.125C166.156 343.1 167.506 344.3 169.556 344.3C171.131 344.3 172.381 343.825 172.906 342.4C173.281 343.65 174.181 344.225 175.656 344.225C176.456 344.225 177.081 344.1 177.556 343.8V341.375C177.331 341.475 177.106 341.55 176.831 341.55C176.306 341.55 175.981 341.275 175.981 340.5V336ZM184.13 341.125C183.83 341.25 183.53 341.3 183.23 341.3C182.63 341.3 182.18 341.025 182.18 340.3V327.3H178.83V341.275C178.83 343.45 180.355 344.225 182.03 344.225C182.68 344.225 183.305 344.1 183.955 343.925L184.13 341.125ZM190.437 341.725C188.912 341.725 188.087 340.575 188.012 338.8H195.137C195.237 338.325 195.287 337.8 195.287 337.3C195.287 334.325 193.687 332.175 190.412 332.175C186.937 332.175 184.787 334.425 184.787 338.4C184.787 342.125 187.062 344.3 190.362 344.3C192.637 344.3 194.712 343.475 195.312 341.125L192.462 340.15C192.087 341.375 191.337 341.725 190.437 341.725ZM188.112 336.95C188.237 335.6 189.037 334.65 190.287 334.65C191.487 334.65 192.112 335.475 192.112 336.55C192.112 336.7 192.112 336.8 192.087 336.95H188.112ZM94.3515 372.725C92.8265 372.725 92.0015 371.575 91.9265 369.8H99.0515C99.1515 369.325 99.2015 368.8 99.2015 368.3C99.2015 365.325 97.6015 363.175 94.3265 363.175C90.8515 363.175 88.7015 365.425 88.7015 369.4C88.7015 373.125 90.9765 375.3 94.2765 375.3C96.5515 375.3 98.6265 374.475 99.2265 372.125L96.3765 371.15C96.0015 372.375 95.2515 372.725 94.3515 372.725ZM92.0265 367.95C92.1515 366.6 92.9515 365.65 94.2015 365.65C95.4015 365.65 96.0265 366.475 96.0265 367.55C96.0265 367.7 96.0265 367.8 96.0015 367.95H92.0265ZM100.808 359.925C100.808 361.15 101.708 361.825 102.833 361.825C104.008 361.825 104.908 361.15 104.908 359.925C104.908 358.65 104.008 357.975 102.833 357.975C101.708 357.975 100.808 358.65 100.808 359.925ZM101.158 363.45V375H104.508V363.45H101.158ZM110.003 363.45H107.153V375H110.503V368.65C110.503 366.575 111.528 365.975 112.603 365.975C113.803 365.975 114.153 366.8 114.153 368.075V375H117.503V366.825C117.503 364.225 115.878 363.175 114.103 363.175C112.328 363.175 111.028 363.95 110.403 365.675L110.003 363.45ZM124.457 363.175C121.382 363.175 119.332 364.575 119.332 367.25C119.332 369.1 120.157 370.1 121.732 370.725C120.382 371.1 119.782 372.1 119.782 373C119.782 374.025 120.507 374.975 121.657 375.05C119.582 375.2 118.607 376.025 118.607 377.375C118.607 379.6 121.157 380.275 124.007 380.275C127.307 380.275 130.707 379.425 130.707 376.125C130.707 374.125 129.232 372.725 126.632 372.725H123.332C122.732 372.725 122.407 372.425 122.407 372.025C122.407 371.65 122.557 371.325 122.957 371.075C123.232 371.175 123.807 371.225 124.357 371.225C127.307 371.225 129.657 369.925 129.657 367.25C129.657 366.45 129.482 365.75 129.132 365.2C130.082 364.925 131.107 364.15 131.232 363.025L128.607 362.15C128.357 363.075 128.232 363.4 127.732 363.9C126.882 363.425 125.757 363.175 124.457 363.175ZM121.682 376.725C121.682 376.05 122.357 375.725 123.307 375.725H126.157C127.157 375.725 127.582 376 127.582 376.7C127.582 377.625 126.707 378.05 124.382 378.05C122.607 378.05 121.682 377.625 121.682 376.725ZM122.707 367.25C122.707 366.1 123.282 365.475 124.457 365.45C125.607 365.45 126.232 366.025 126.232 367.25C126.232 368.4 125.607 369.025 124.457 369.025C123.282 369.025 122.707 368.275 122.707 367.25ZM140.055 363.2C137.005 363.025 135.88 364.625 135.38 366.625L134.98 363.45H132.08V375H135.43V369.725C135.43 367.35 137.055 366.7 138.38 366.7C138.905 366.7 139.255 366.75 139.68 366.9L140.055 363.2ZM146.002 372.725C144.477 372.725 143.652 371.575 143.577 369.8H150.702C150.802 369.325 150.852 368.8 150.852 368.3C150.852 365.325 149.252 363.175 145.977 363.175C142.502 363.175 140.352 365.425 140.352 369.4C140.352 373.125 142.627 375.3 145.927 375.3C148.202 375.3 150.277 374.475 150.877 372.125L148.027 371.15C147.652 372.375 146.902 372.725 146.002 372.725ZM143.677 367.95C143.802 366.6 144.602 365.65 145.852 365.65C147.052 365.65 147.677 366.475 147.677 367.55C147.677 367.7 147.677 367.8 147.652 367.95H143.677ZM155.659 363.45H152.809V375H156.159V368.65C156.159 366.575 157.184 365.975 158.259 365.975C159.459 365.975 159.809 366.8 159.809 368.075V375H163.159V366.825C163.159 364.225 161.534 363.175 159.759 363.175C157.984 363.175 156.684 363.95 156.059 365.675L155.659 363.45ZM173.863 365.55V363.45H165.013V366.1H167.963C169.263 366.1 169.963 365.975 169.963 365.975V366.075C169.963 366.075 169.288 366.675 168.388 367.9L164.813 372.975V375H174.088V372.4H170.563C169.288 372.4 168.563 372.525 168.563 372.525V372.425C168.563 372.425 169.238 371.825 170.138 370.6L173.863 365.55ZM180.513 372.725C178.988 372.725 178.163 371.575 178.088 369.8H185.213C185.313 369.325 185.363 368.8 185.363 368.3C185.363 365.325 183.763 363.175 180.488 363.175C177.013 363.175 174.863 365.425 174.863 369.4C174.863 373.125 177.138 375.3 180.438 375.3C182.713 375.3 184.788 374.475 185.388 372.125L182.538 371.15C182.163 372.375 181.413 372.725 180.513 372.725ZM178.188 367.95C178.313 366.6 179.113 365.65 180.363 365.65C181.563 365.65 182.188 366.475 182.188 367.55C182.188 367.7 182.188 367.8 182.163 367.95H178.188ZM190.17 363.45H187.32V375H190.67V368.65C190.67 366.575 191.695 365.975 192.77 365.975C193.97 365.975 194.32 366.8 194.32 368.075V375H197.67V366.825C197.67 364.225 196.045 363.175 194.27 363.175C192.495 363.175 191.195 363.95 190.57 365.675L190.17 363.45Z" fill="#363C65"/>
<path d="M307.962 497.732H300.89L301.774 492.74H308.04L308.352 490.972H302.086L302.97 485.954H310.042L310.354 484.186H301.202L298.524 499.5H307.676L307.962 497.732ZM315.67 497.55C314.838 498.018 314.344 498.148 313.616 498.148C312.914 498.148 312.368 497.654 312.602 496.38L313.902 489.074H317.022L317.308 487.488H314.162L314.656 484.68L312.654 484.966L312.212 487.488H310.522L310.236 489.074H311.9L310.652 496.172C310.184 498.72 311.276 499.812 313.304 499.812C314.006 499.812 314.942 499.63 315.67 499.214V497.55ZM325.388 494.482C324.998 496.77 323.698 498.174 321.878 498.174C320.11 498.174 319.226 496.692 319.226 494.664C319.226 491.232 320.994 488.762 323.386 488.762C325.31 488.762 326.064 490.634 325.752 492.454L325.388 494.482ZM328.612 487.488H326.974L326.324 489.516C326.012 487.93 324.868 487.202 323.204 487.202C319.668 487.202 317.302 490.79 317.302 494.898C317.302 498.07 319.018 499.812 321.332 499.812C322.84 499.812 324.27 499.136 324.998 497.498C324.894 498.876 325.57 499.63 326.87 499.63C327.312 499.63 327.754 499.552 328.118 499.422L328.378 497.992C328.066 498.07 327.832 498.096 327.624 498.096C326.87 498.096 326.844 497.524 326.948 496.926L328.612 487.488ZM333.354 492.558C333.744 490.322 335.33 488.814 337.124 488.814C338.762 488.814 339.646 490.114 339.646 492.142C339.646 495.444 338.138 498.174 335.59 498.174C333.562 498.174 332.626 496.354 332.938 494.898L333.354 492.558ZM332.496 497.524C332.756 498.798 333.952 499.812 335.746 499.812C339.412 499.812 341.7 496.432 341.7 492.142C341.7 488.97 340.296 487.202 337.774 487.202C336.032 487.202 334.654 488.06 333.822 489.802L334.03 487.488H332.314L329.272 504.778H331.222L332.496 497.524ZM346.183 492.558C346.573 490.322 348.159 488.814 349.953 488.814C351.591 488.814 352.475 490.114 352.475 492.142C352.475 495.444 350.967 498.174 348.419 498.174C346.391 498.174 345.455 496.354 345.767 494.898L346.183 492.558ZM345.325 497.524C345.585 498.798 346.781 499.812 348.575 499.812C352.241 499.812 354.529 496.432 354.529 492.142C354.529 488.97 353.125 487.202 350.603 487.202C348.861 487.202 347.483 488.06 346.651 489.802L346.859 487.488H345.143L342.101 504.778H344.051L345.325 497.524ZM360.599 498.278C358.311 498.278 357.505 496.042 357.687 493.936H365.435C365.799 493.156 365.955 492.324 365.955 491.492C365.955 489.282 364.759 487.202 361.691 487.202C358.805 487.202 355.841 489.828 355.841 494.716C355.841 497.784 357.531 499.812 360.417 499.812C362.757 499.812 364.473 499.11 365.357 496.666L363.563 496.224C363.121 497.524 362.393 498.278 360.599 498.278ZM357.921 492.35C358.389 490.452 359.585 488.762 361.587 488.762C363.277 488.762 364.057 490.01 364.057 491.44C364.057 491.752 364.031 492.064 363.927 492.35H357.921ZM376.24 494.612C379.334 494.586 381.466 493.052 381.466 490.166C381.466 487.774 379.646 486.682 377.28 486.682C374.42 486.682 372.99 488.19 372.574 490.322L374.42 490.738C374.706 489.23 375.538 488.294 377.124 488.294C378.502 488.294 379.438 488.996 379.438 490.348C379.438 492.376 377.982 493.468 374.42 493.832L374.186 495.418C377.462 495.756 378.216 497.03 378.216 498.616C378.216 500.54 376.864 501.554 375.122 501.554C373.328 501.554 372.262 500.722 372.262 499.058L370.364 499.448C370.364 501.554 371.872 503.088 374.888 503.088C377.696 503.088 380.244 501.684 380.244 498.46C380.244 496.302 378.97 494.924 376.24 494.69V494.612Z" fill="#363C65"/>
<path d="M286.995 527.55H280.52V524.475H286.22V521.65H280.52V518.725H286.995V515.775H277.12V530.5H286.995V527.55ZM297.306 518.7C294.256 518.525 293.131 520.125 292.631 522.125L292.231 518.95H289.331V530.5H292.681V525.225C292.681 522.85 294.306 522.2 295.631 522.2C296.156 522.2 296.506 522.25 296.931 522.4L297.306 518.7ZM305.47 524.325L309.47 518.95H305.595L302.645 523.15H302.02V513.8H298.67V530.5H302.02V525.75H302.695L305.945 530.5H309.845L305.47 524.325ZM315.326 528.225C313.801 528.225 312.976 527.075 312.901 525.3H320.026C320.126 524.825 320.176 524.3 320.176 523.8C320.176 520.825 318.576 518.675 315.301 518.675C311.826 518.675 309.676 520.925 309.676 524.9C309.676 528.625 311.951 530.8 315.251 530.8C317.526 530.8 319.601 529.975 320.201 527.625L317.351 526.65C316.976 527.875 316.226 528.225 315.326 528.225ZM313.001 523.45C313.126 522.1 313.926 521.15 315.176 521.15C316.376 521.15 317.001 521.975 317.001 523.05C317.001 523.2 317.001 523.3 316.976 523.45H313.001ZM324.983 518.95H322.133V530.5H325.483V524.15C325.483 522.075 326.508 521.475 327.583 521.475C328.783 521.475 329.133 522.3 329.133 523.575V530.5H332.483V522.325C332.483 519.725 330.858 518.675 329.083 518.675C327.308 518.675 326.008 519.45 325.383 521.175L324.983 518.95ZM337.862 518.95H335.012V530.5H338.362V524.15C338.362 522.075 339.387 521.475 340.462 521.475C341.662 521.475 342.012 522.3 342.012 523.575V530.5H345.362V522.325C345.362 519.725 343.737 518.675 341.962 518.675C340.187 518.675 338.887 519.45 338.262 521.175L337.862 518.95ZM355.016 527.225C354.341 527.7 353.716 527.95 352.991 527.95C352.066 527.95 351.591 527.55 351.591 526.325V521.525H355.041V518.95H351.616V516.1L348.266 516.5V518.95H346.566V521.525H348.241V527.075C348.241 529.725 349.741 530.8 352.041 530.8C353.416 530.8 354.616 530.55 355.591 530.05L355.016 527.225ZM359.884 518.95H357.034V530.5H360.384V524.15C360.384 522.075 361.409 521.475 362.484 521.475C363.684 521.475 364.034 522.3 364.034 523.575V530.5H367.384V522.325C367.384 519.725 365.759 518.675 363.984 518.675C362.209 518.675 360.909 519.45 360.284 521.175L359.884 518.95ZM369.563 515.425C369.563 516.65 370.463 517.325 371.588 517.325C372.763 517.325 373.663 516.65 373.663 515.425C373.663 514.15 372.763 513.475 371.588 513.475C370.463 513.475 369.563 514.15 369.563 515.425ZM369.913 518.95V530.5H373.263V518.95H369.913ZM374.783 527.825C375.233 530 376.883 530.8 379.733 530.8C382.558 530.8 384.683 529.8 384.683 527.225C384.683 525.25 383.583 524 381.233 523.5L379.608 523.15C378.833 523 378.483 522.675 378.483 522.1C378.483 521.5 379.008 521.15 379.783 521.15C380.733 521.15 381.258 521.45 381.383 522.375L384.508 521.925C384.333 519.675 382.683 518.675 379.933 518.675C377.558 518.675 375.233 519.5 375.233 522.425C375.233 524.175 376.158 525.325 378.183 525.85L379.883 526.25C380.908 526.5 381.358 526.8 381.358 527.45C381.358 528.125 380.708 528.45 379.783 528.45C378.683 528.45 377.783 527.975 377.533 526.725L374.783 527.825ZM385.415 527.825C385.865 530 387.515 530.8 390.365 530.8C393.19 530.8 395.315 529.8 395.315 527.225C395.315 525.25 394.215 524 391.865 523.5L390.24 523.15C389.465 523 389.115 522.675 389.115 522.1C389.115 521.5 389.64 521.15 390.415 521.15C391.365 521.15 391.89 521.45 392.015 522.375L395.14 521.925C394.965 519.675 393.315 518.675 390.565 518.675C388.19 518.675 385.865 519.5 385.865 522.425C385.865 524.175 386.79 525.325 388.815 525.85L390.515 526.25C391.54 526.5 391.99 526.8 391.99 527.45C391.99 528.125 391.34 528.45 390.415 528.45C389.315 528.45 388.415 527.975 388.165 526.725L385.415 527.825ZM402.073 528.225C400.548 528.225 399.723 527.075 399.648 525.3H406.773C406.873 524.825 406.923 524.3 406.923 523.8C406.923 520.825 405.323 518.675 402.048 518.675C398.573 518.675 396.423 520.925 396.423 524.9C396.423 528.625 398.698 530.8 401.998 530.8C404.273 530.8 406.348 529.975 406.948 527.625L404.098 526.65C403.723 527.875 402.973 528.225 402.073 528.225ZM399.748 523.45C399.873 522.1 400.673 521.15 401.923 521.15C403.123 521.15 403.748 521.975 403.748 523.05C403.748 523.2 403.748 523.3 403.723 523.45H399.748ZM283.536 552.525V561.5H286.861V552.525H289.811V549.95H286.861V549.2C286.861 547.8 287.536 547.425 288.511 547.425C289.311 547.425 289.911 547.6 290.486 547.925L290.961 545.15C290.161 544.775 289.286 544.6 288.161 544.6C285.636 544.6 283.536 545.775 283.536 549.1V549.95H281.836V552.525H283.536ZM295.469 561.8C298.819 561.8 301.044 559.6 301.044 555.7C301.044 551.775 298.819 549.675 295.469 549.675C292.094 549.675 289.869 551.775 289.869 555.7C289.869 559.6 292.094 561.8 295.469 561.8ZM295.469 552.35C296.994 552.35 297.744 553.425 297.744 555.7C297.744 558.1 297.019 559.2 295.469 559.2C293.894 559.2 293.169 558.1 293.169 555.7C293.169 553.425 293.919 552.35 295.469 552.35ZM310.912 549.7C307.862 549.525 306.737 551.125 306.237 553.125L305.837 549.95H302.937V561.5H306.287V556.225C306.287 553.85 307.912 553.2 309.237 553.2C309.762 553.2 310.112 553.25 310.537 553.4L310.912 549.7ZM322.126 552.2C321.826 550.275 320.551 549.675 319.076 549.675C317.376 549.675 316.151 550.425 315.526 552.175L315.126 549.95H312.276V561.5H315.626V555.15C315.626 553.125 316.476 552.475 317.526 552.475C318.726 552.475 319.051 553.3 319.051 554.575V561.5H322.401V555.125C322.401 553.125 323.276 552.475 324.301 552.475C325.476 552.475 325.826 553.3 325.826 554.575V561.5H329.176V553.3C329.176 550.725 327.751 549.675 325.876 549.675C324.151 549.675 322.751 550.475 322.126 552.2ZM338.923 561.5H341.823V549.95H338.473V556.15C338.473 558.375 337.548 559.275 336.398 559.275C335.248 559.275 334.823 558.5 334.823 557.125V549.95H331.473V558.075C331.473 560.75 332.898 561.8 334.948 561.8C337.073 561.8 338.123 560.925 338.523 559.35L338.923 561.5ZM349.554 558.625C349.254 558.75 348.954 558.8 348.654 558.8C348.054 558.8 347.604 558.525 347.604 557.8V544.8H344.254V558.775C344.254 560.95 345.779 561.725 347.454 561.725C348.104 561.725 348.729 561.6 349.379 561.425L349.554 558.625ZM350.855 546.425C350.855 547.65 351.755 548.325 352.88 548.325C354.055 548.325 354.955 547.65 354.955 546.425C354.955 545.15 354.055 544.475 352.88 544.475C351.755 544.475 350.855 545.15 350.855 546.425ZM351.205 549.95V561.5H354.555V549.95H351.205ZM362.1 559.225C360.575 559.225 359.75 558.075 359.675 556.3H366.8C366.9 555.825 366.95 555.3 366.95 554.8C366.95 551.825 365.35 549.675 362.075 549.675C358.6 549.675 356.45 551.925 356.45 555.9C356.45 559.625 358.725 561.8 362.025 561.8C364.3 561.8 366.375 560.975 366.975 558.625L364.125 557.65C363.75 558.875 363 559.225 362.1 559.225ZM359.775 554.45C359.9 553.1 360.7 552.15 361.95 552.15C363.15 552.15 363.775 552.975 363.775 554.05C363.775 554.2 363.775 554.3 363.75 554.45H359.775ZM376.882 549.7C373.832 549.525 372.707 551.125 372.207 553.125L371.807 549.95H368.907V561.5H372.257V556.225C372.257 553.85 373.882 553.2 375.207 553.2C375.732 553.2 376.082 553.25 376.507 553.4L376.882 549.7ZM382.828 559.225C381.303 559.225 380.478 558.075 380.403 556.3H387.528C387.628 555.825 387.678 555.3 387.678 554.8C387.678 551.825 386.078 549.675 382.803 549.675C379.328 549.675 377.178 551.925 377.178 555.9C377.178 559.625 379.453 561.8 382.753 561.8C385.028 561.8 387.103 560.975 387.703 558.625L384.853 557.65C384.478 558.875 383.728 559.225 382.828 559.225ZM380.503 554.45C380.628 553.1 381.428 552.15 382.678 552.15C383.878 552.15 384.503 552.975 384.503 554.05C384.503 554.2 384.503 554.3 384.478 554.45H380.503ZM392.485 549.95H389.635V561.5H392.985V555.15C392.985 553.075 394.01 552.475 395.085 552.475C396.285 552.475 396.635 553.3 396.635 554.575V561.5H399.985V553.325C399.985 550.725 398.36 549.675 396.585 549.675C394.81 549.675 393.51 550.45 392.885 552.175L392.485 549.95Z" fill="#363C65"/>
<path d="M4.24107 339.498L339 4.24578L673.759 339.498L339 674.257L4.24107 339.498Z" stroke="#FBF0F3" stroke-width="6"/>
</svg>
