<?xml version="1.0" encoding="UTF-8"?><svg id="d" xmlns="http://www.w3.org/2000/svg" xmlns:xlink="http://www.w3.org/1999/xlink" viewBox="0 0 360.98 315.29"><defs><clipPath id="e"><rect x="6.34" y="7.27" width="347.78" height="300.04" style="fill:none;"/></clipPath><clipPath id="f"><rect x="6.34" y="7.27" width="347.78" height="300.04" style="fill:none;"/></clipPath></defs><g style="clip-path:url(#e);"><line x1="15.33" y1="79.27" x2="340.46" y2="79.27" style="fill:none; stroke:#fdebec; stroke-width:10px;"/><line x1="15.33" y1="219.27" x2="340.46" y2="219.27" style="fill:none; stroke:#fdebec; stroke-width:10px;"/></g><g><path d="m20.07,95.85c0,.33.13.46.36.46.12,0,.23-.04.33-.09v1.17c-.23.15-.54.21-.92.21-.67,0-1.08-.24-1.27-.79-.23.63-.76.83-1.47.83-.9,0-1.49-.53-1.49-1.41,0-1.13.92-1.74,2.84-1.63v-.43c0-.39-.12-.65-.48-.65s-.52.27-.54.71l-1.64-.31c.08-1.08.98-1.63,2.22-1.63,1.36,0,2.06.59,2.06,1.72v1.84Zm-1.62-.41c-.92-.03-1.21.23-1.21.62,0,.25.19.43.48.43.33,0,.73-.14.73-.61v-.44Z" style="fill:#32406d;"/><path d="m22.75,97.5h-1.16v-7.35h1.63v3.2c.29-.77.92-1.06,1.65-1.06,1.24,0,1.95.94,1.95,2.54,0,1.71-.79,2.79-2.17,2.79-.87,0-1.35-.38-1.5-.87l-.41.74Zm.46-2.12c0,.84.5,1.09.89,1.09.58,0,1.08-.48,1.08-1.49s-.39-1.39-.99-1.39c-.47,0-.98.4-.98,1.11v.67Z" style="fill:#32406d;"/><path d="m28.63,95.75c.12.54.51.74.95.74.35,0,.59-.12.59-.35,0-.25-.2-.35-.6-.45l-.75-.18c-.88-.23-1.31-.74-1.31-1.53,0-1.32,1.06-1.68,2.13-1.68,1.25,0,2,.45,2.07,1.45l-1.52.22c-.06-.37-.26-.47-.63-.47-.26,0-.46.12-.46.33,0,.22.15.33.43.39l.73.14c1.08.22,1.54.83,1.54,1.67,0,1.16-.96,1.61-2.23,1.61s-2.05-.35-2.26-1.32l1.32-.56Z" style="fill:#32406d;"/><path d="m36.39,97.29c-.46.23-1.01.34-1.67.34-1.03,0-1.74-.47-1.74-1.71v-2.25h-.74v-1.25h.75v-1.08l1.63-.19v1.26h1.51v1.25h-1.52v1.88c0,.53.21.69.6.69.32,0,.6-.12.9-.33l.28,1.38Z" style="fill:#32406d;"/><path d="m40.72,94.1c-.21-.07-.36-.1-.62-.1-.53,0-1.27.2-1.27,1.25v2.24h-1.63v-5.08h1.42l.2,1.41c.22-.88.68-1.61,2.09-1.52l-.2,1.79Z" style="fill:#32406d;"/><path d="m45.76,95.85c0,.33.13.46.36.46.12,0,.23-.04.33-.09v1.17c-.23.15-.54.21-.92.21-.67,0-1.08-.24-1.27-.79-.23.63-.76.83-1.47.83-.9,0-1.49-.53-1.49-1.41,0-1.13.92-1.74,2.84-1.63v-.43c0-.39-.12-.65-.48-.65s-.52.27-.54.71l-1.64-.31c.08-1.08.98-1.63,2.22-1.63,1.36,0,2.06.59,2.06,1.72v1.84Zm-1.62-.41c-.92-.03-1.21.23-1.21.62,0,.25.19.43.48.43.33,0,.73-.14.73-.61v-.44Z" style="fill:#32406d;"/><path d="m52.4,97.5h-1.88l-1.31-2.04h-.31v2.04h-1.63v-7.35h1.63v4.06h.3l1.17-1.79h1.87l-1.67,2.37,1.84,2.72Z" style="fill:#32406d;"/><path d="m56.77,97.29c-.46.23-1.01.34-1.67.34-1.03,0-1.74-.47-1.74-1.71v-2.25h-.74v-1.25h.75v-1.08l1.63-.19v1.26h1.51v1.25h-1.52v1.88c0,.53.21.69.6.69.32,0,.6-.12.9-.33l.28,1.38Z" style="fill:#32406d;"/></g><g><path d="m149.87,20.28c-.41.54-.72.8-.72.8v.04s.32-.06.86-.06h2.3v1.43h-5.13v-1.23l2.23-3.03c.4-.54.71-.8.71-.8v-.04s-.32.05-.86.05h-2.04v-1.43h4.95v1.17l-2.32,3.09Z" style="fill:#32406d;"/><path d="m156.25,21.54c-.15.68-.6,1.09-1.57,1.09-.9,0-1.53-.46-1.53-1.63v-3.59h1.63v3.09c0,.55.17.89.63.89s.83-.37.83-1.34v-2.64h1.63v5.08h-1.41l-.2-.96Z" style="fill:#32406d;"/><path d="m161.28,19.95c0-1.73,1-2.65,2.51-2.65s2.51.92,2.51,2.65-1,2.68-2.51,2.68-2.51-.97-2.51-2.68Zm1.61.01c0,.98.29,1.41.9,1.41s.9-.43.9-1.41c0-.92-.3-1.36-.9-1.36s-.9.44-.9,1.36Z" style="fill:#32406d;"/><path d="m169.11,18.67v3.83h-1.63v-3.83h-.75v-1.25h.75v-.3c0-1.46,1.02-1.95,1.94-1.95.51,0,.69.04,1.07.2l-.23,1.36c-.19-.14-.36-.2-.55-.2-.4,0-.59.18-.59.64v.24h1.49v-.31c0-1.51,1.02-2.04,2.13-2.05.44,0,.89.07,1.31.2l-.24,1.52c-.25-.19-.52-.3-.84-.3-.4,0-.74.14-.74.73v.21h1.3v1.25h-1.3v3.83h-1.63v-3.83h-1.49Z" style="fill:#32406d;"/><path d="m177.06,20.74l1.39.49c-.29,1.02-1.22,1.4-2.22,1.4-1.49,0-2.52-.96-2.52-2.58,0-1.76.96-2.75,2.53-2.75,1.47,0,2.19.96,2.19,2.28,0,.21-.02.43-.07.66h-3.08c.02.7.35,1.14.97,1.14.34,0,.65-.12.81-.64Zm-.2-1.36c.01-.06.01-.1.01-.15,0-.42-.22-.73-.69-.73s-.81.39-.86.88h1.54Z" style="fill:#32406d;"/><path d="m181.05,18.4c.28-.76.85-1.1,1.63-1.1s1.47.46,1.47,1.62v3.59h-1.63v-2.95c0-.54-.11-.89-.62-.89-.42,0-.84.24-.84,1.09v2.75h-1.63v-5.08h1.41l.2.98Z" style="fill:#32406d;"/><path d="m186.35,17.35c.59,0,1.03.44,1.03,1.03,0,.55-.44.99-1.03.99-.55,0-.99-.44-.99-.99,0-.59.44-1.03.99-1.03Zm0,3.18c.59,0,1.03.44,1.03,1.03,0,.55-.44.99-1.03.99-.55,0-.99-.44-.99-.99,0-.59.44-1.03.99-1.03Z" style="fill:#32406d;"/></g><g><path d="m105,37.5h-3.99v-6.48h3.99v.88h-2.98v1.91h2.64v.88h-2.64v1.93h2.98v.88Z" style="fill:#32406d;"/><path d="m106.73,36.1c.08.58.5.84,1.1.84s1.01-.22,1.01-.68c0-.42-.19-.65-.79-.8l-.75-.18c-.92-.22-1.28-.69-1.28-1.44,0-1.14.95-1.53,1.91-1.53,1.07,0,1.73.39,1.83,1.38l-.97.11c-.03-.51-.34-.74-.92-.74s-.89.25-.89.68c0,.36.14.59.69.71l.7.17c.9.22,1.41.64,1.41,1.53,0,1.09-.86,1.5-1.97,1.5s-1.83-.35-1.97-1.28l.88-.26Z" style="fill:#32406d;"/><path d="m117.67,37.5h-1.22l-1.77-2.28h-.31v2.28h-.99v-7.35h.99v4.3h.25l1.68-2.04h1.2l-2.05,2.37,2.21,2.72Z" style="fill:#32406d;"/><path d="m117.97,34.93c0-1.73.91-2.63,2.31-2.63s2.32.9,2.32,2.63-.91,2.71-2.32,2.71-2.31-.97-2.31-2.71Zm.98.01c0,1.28.45,1.91,1.33,1.91s1.34-.64,1.34-1.91-.46-1.84-1.34-1.84-1.33.59-1.33,1.84Z" style="fill:#32406d;"/><path d="m129.32,32.3c.86,0,1.51.46,1.51,1.53v3.67h-.99v-3.34c0-.63-.27-1-.85-1s-1.15.41-1.15,1.43v2.92h-.99v-3.34c0-.63-.28-1-.85-1s-1.16.42-1.16,1.43v2.92h-.99v-5.08h.78l.12.98c.26-.78.89-1.1,1.58-1.1s1.25.32,1.39,1.12c.25-.81.91-1.12,1.6-1.12Z" style="fill:#32406d;"/><path d="m137.83,32.3c.86,0,1.51.46,1.51,1.53v3.67h-.99v-3.34c0-.63-.27-1-.85-1s-1.15.41-1.15,1.43v2.92h-.99v-3.34c0-.63-.28-1-.85-1s-1.16.42-1.16,1.43v2.92h-.99v-5.08h.78l.12.98c.26-.78.89-1.1,1.58-1.1s1.25.32,1.39,1.12c.25-.81.91-1.12,1.6-1.12Z" style="fill:#32406d;"/><path d="m143.96,36.03l.87.23c-.21,1.02-1.07,1.38-2.04,1.38-1.35,0-2.27-.93-2.27-2.63s.9-2.71,2.32-2.71c1.31,0,2.01.9,2.01,2.17,0,.29-.04.55-.1.7h-3.28c.04.99.51,1.68,1.36,1.68.56,0,.94-.22,1.11-.83Zm-.08-1.57c.01-.08.01-.14.01-.21,0-.65-.42-1.17-1.1-1.17-.73,0-1.19.5-1.29,1.38h2.38Z" style="fill:#32406d;"/><path d="m147.02,33.4c.27-.76.86-1.1,1.63-1.1.84,0,1.54.46,1.54,1.57v3.63h-.99v-3.33c0-.63-.29-1.01-.89-1.01s-1.2.33-1.2,1.43v2.92h-.99v-5.08h.78l.12.98Z" style="fill:#32406d;"/><path d="m153.45,32.42h1.08l.88,2.79c.3.96.4,1.62.4,1.62h.04s.08-.65.37-1.62l.85-2.79h1.04l-1.74,5.08h-1.16l-1.77-5.08Z" style="fill:#32406d;"/><path d="m159.47,30.13c.38,0,.69.26.69.66,0,.37-.31.66-.69.66-.35,0-.66-.29-.66-.66,0-.4.31-.66.66-.66Zm.51,2.29v5.08h-.99v-5.08h.99Z" style="fill:#32406d;"/><path d="m164.67,36.03l.87.23c-.21,1.02-1.07,1.38-2.04,1.38-1.35,0-2.27-.93-2.27-2.63s.9-2.71,2.32-2.71c1.31,0,2.01.9,2.01,2.17,0,.29-.04.55-.1.7h-3.28c.04.99.51,1.68,1.36,1.68.56,0,.94-.22,1.11-.83Zm-.08-1.57c.01-.08.01-.14.01-.21,0-.65-.42-1.17-1.1-1.17-.73,0-1.19.5-1.29,1.38h2.38Z" style="fill:#32406d;"/><path d="m168.54,37.5c-.26.07-.44.09-.62.09-.64,0-1.17-.34-1.17-1.1v-6.34h.99v6.13c0,.32.19.45.45.45.14,0,.24-.02.35-.05v.83Z" style="fill:#32406d;"/><path d="m173.38,35.88c-.37.54-.63.8-.63.8v.04s.27-.03.95-.03h1.73v.81h-3.85v-.56l1.95-2.87c.36-.54.63-.8.63-.8v-.04s-.29.03-.95.03h-1.52v-.84h3.63v.66l-1.94,2.79Z" style="fill:#32406d;"/><path d="m179.49,36.58c-.24.75-.76,1.06-1.56,1.06-.92,0-1.54-.47-1.54-1.68v-3.53h.99v3.38c0,.75.29,1.1.91,1.1.55,0,1.18-.5,1.18-1.47v-3h.99v5.08h-.85l-.12-.92Z" style="fill:#32406d;"/><path d="m183.77,32.42h1.08l.88,2.79c.3.96.4,1.62.4,1.62h.04s.08-.65.37-1.62l.85-2.79h1.04l-1.74,5.08h-1.16l-1.77-5.08Z" style="fill:#32406d;"/><path d="m189.8,30.13c.38,0,.69.26.69.66,0,.37-.31.66-.69.66-.35,0-.66-.29-.66-.66,0-.4.31-.66.66-.66Zm.51,2.29v5.08h-.99v-5.08h.99Z" style="fill:#32406d;"/><path d="m194.99,36.03l.87.23c-.21,1.02-1.07,1.38-2.04,1.38-1.35,0-2.27-.93-2.27-2.63s.9-2.71,2.32-2.71c1.31,0,2.01.9,2.01,2.17,0,.29-.04.55-.1.7h-3.28c.04.99.51,1.68,1.36,1.68.56,0,.94-.22,1.11-.83Zm-.08-1.57c.01-.08.01-.14.01-.21,0-.65-.42-1.17-1.1-1.17-.73,0-1.19.5-1.29,1.38h2.38Z" style="fill:#32406d;"/><path d="m198.86,37.5c-.26.07-.44.09-.62.09-.64,0-1.17-.34-1.17-1.1v-6.34h.99v6.13c0,.32.19.45.45.45.14,0,.24-.02.35-.05v.83Z" style="fill:#32406d;"/><path d="m203.01,36.03l.87.23c-.21,1.02-1.07,1.38-2.04,1.38-1.35,0-2.27-.93-2.27-2.63s.9-2.71,2.32-2.71c1.31,0,2.01.9,2.01,2.17,0,.29-.04.55-.1.7h-3.28c.04.99.51,1.68,1.36,1.68.56,0,.94-.22,1.11-.83Zm-.08-1.57c.01-.08.01-.14.01-.21,0-.65-.42-1.17-1.1-1.17-.73,0-1.19.5-1.29,1.38h2.38Z" style="fill:#32406d;"/><path d="m208.73,31.03v6.48h-1.01v-6.48h1.01Z" style="fill:#32406d;"/><path d="m213.73,30.16h1v7.35h-.88l-.11-.88c-.29.77-.89,1.01-1.62,1.01-1.07,0-2.01-.87-2.01-2.58s.83-2.75,2.28-2.75c.65,0,1.2.36,1.34.8v-2.95Zm.01,4.2c0-.9-.68-1.29-1.27-1.29-.75,0-1.36.52-1.36,1.95,0,1.2.53,1.84,1.35,1.84.56,0,1.28-.45,1.28-1.38v-1.12Z" style="fill:#32406d;"/><path d="m219.41,36.03l.87.23c-.21,1.02-1.07,1.38-2.04,1.38-1.35,0-2.27-.93-2.27-2.63s.9-2.71,2.32-2.71c1.31,0,2.01.9,2.01,2.17,0,.29-.04.55-.1.7h-3.28c.04.99.51,1.68,1.36,1.68.56,0,.94-.22,1.11-.83Zm-.08-1.57c.01-.08.01-.14.01-.21,0-.65-.42-1.17-1.1-1.17-.73,0-1.19.5-1.29,1.38h2.38Z" style="fill:#32406d;"/><path d="m224.67,36.03l.87.23c-.21,1.02-1.07,1.38-2.04,1.38-1.35,0-2.27-.93-2.27-2.63s.9-2.71,2.32-2.71c1.31,0,2.01.9,2.01,2.17,0,.29-.04.55-.1.7h-3.28c.04.99.51,1.68,1.36,1.68.56,0,.94-.22,1.11-.83Zm-.08-1.57c.01-.08.01-.14.01-.21,0-.65-.42-1.17-1.1-1.17-.73,0-1.19.5-1.29,1.38h2.38Z" style="fill:#32406d;"/><path d="m227.73,33.4c.27-.76.86-1.1,1.63-1.1.84,0,1.54.46,1.54,1.57v3.63h-.99v-3.33c0-.63-.29-1.01-.89-1.01s-1.2.33-1.2,1.43v2.92h-.99v-5.08h.78l.12.98Z" style="fill:#32406d;"/><path d="m232.26,38.76v-.47c.54-.08.89-.32.89-.81-.45.09-.79-.19-.79-.62s.31-.68.74-.68c.45,0,.84.36.84.97,0,1.09-.66,1.56-1.67,1.62Z" style="fill:#32406d;"/></g><g><path d="m97.88,49.16v3.34h-.8l-.13-.84c-.26.64-1.03.97-1.78.97-1.66,0-2.82-1.16-2.82-3.34s1.22-3.4,3.03-3.4c1.23,0,2.02.52,2.43,1.56l-.95.46c-.26-.78-.84-1.16-1.54-1.16-1.13,0-1.91.89-1.91,2.53,0,1.46.59,2.51,1.86,2.51.87,0,1.62-.41,1.62-1.28v-.48h-1.57v-.88h2.57Z" style="fill:#32406d;"/><path d="m102.46,51.03l.87.23c-.21,1.02-1.07,1.38-2.04,1.38-1.35,0-2.27-.93-2.27-2.63s.9-2.71,2.32-2.71c1.31,0,2.01.9,2.01,2.17,0,.29-.04.55-.1.7h-3.28c.04.99.51,1.68,1.36,1.68.56,0,.94-.22,1.11-.83Zm-.08-1.57c.01-.08.01-.14.01-.21,0-.65-.42-1.17-1.1-1.17-.73,0-1.19.5-1.29,1.38h2.38Z" style="fill:#32406d;"/><path d="m107.91,45.16h1v7.35h-.88l-.11-.88c-.29.77-.89,1.01-1.62,1.01-1.07,0-2.01-.87-2.01-2.58s.83-2.75,2.28-2.75c.65,0,1.2.36,1.34.8v-2.95Zm.01,4.2c0-.9-.68-1.29-1.27-1.29-.75,0-1.36.52-1.36,1.95,0,1.2.53,1.84,1.35,1.84.56,0,1.28-.45,1.28-1.38v-1.12Z" style="fill:#32406d;"/><path d="m114.06,51.31c0,.38.18.47.37.47.12,0,.21-.02.29-.05v.77c-.14.05-.32.09-.54.09-.58,0-.96-.24-1.04-.81-.26.64-.86.87-1.51.87-.89,0-1.52-.51-1.52-1.38,0-1.12.87-1.77,2.95-1.67v-.63c0-.63-.37-.87-.91-.87s-.88.29-.92.81l-.95-.14c.08-1.08,1.02-1.46,1.96-1.46.99,0,1.83.4,1.83,1.56v2.44Zm-1-1.07c-1.36-.03-1.96.28-1.96.91,0,.42.28.74.81.74s1.14-.32,1.14-.91v-.74Z" style="fill:#32406d;"/><path d="m116.66,48.41c.27-.76.86-1.1,1.63-1.1.84,0,1.54.46,1.54,1.57v3.63h-.99v-3.33c0-.63-.29-1.01-.89-1.01s-1.2.33-1.2,1.43v2.92h-.99v-5.08h.78l.12.98Z" style="fill:#32406d;"/><path d="m125.65,52.51h-1.22l-1.77-2.28h-.31v2.28h-.99v-7.35h.99v4.3h.25l1.68-2.04h1.2l-2.05,2.37,2.21,2.72Z" style="fill:#32406d;"/><path d="m129.38,51.03l.87.23c-.21,1.02-1.07,1.38-2.04,1.38-1.35,0-2.27-.93-2.27-2.63s.9-2.71,2.32-2.71c1.31,0,2.01.9,2.01,2.17,0,.29-.04.55-.1.7h-3.28c.04.99.51,1.68,1.36,1.68.56,0,.94-.22,1.11-.83Zm-.08-1.57c.01-.08.01-.14.01-.21,0-.65-.42-1.17-1.1-1.17-.73,0-1.19.5-1.29,1.38h2.38Z" style="fill:#32406d;"/><path d="m132.44,48.41c.27-.76.86-1.1,1.63-1.1.84,0,1.54.46,1.54,1.57v3.63h-.99v-3.33c0-.63-.29-1.01-.89-1.01s-1.2.33-1.2,1.43v2.92h-.99v-5.08h.78l.12.98Z" style="fill:#32406d;"/><path d="m142.6,51.58c-.24.75-.76,1.06-1.56,1.06-.92,0-1.54-.47-1.54-1.68v-3.53h.99v3.38c0,.75.29,1.1.91,1.1.55,0,1.18-.5,1.18-1.47v-3h.99v5.08h-.85l-.12-.92Z" style="fill:#32406d;"/><path d="m146.05,48.41c.27-.76.86-1.1,1.63-1.1.84,0,1.54.46,1.54,1.57v3.63h-.99v-3.33c0-.63-.29-1.01-.89-1.01s-1.2.33-1.2,1.43v2.92h-.99v-5.08h.78l.12.98Z" style="fill:#32406d;"/><path d="m154.04,45.16h1v7.35h-.88l-.11-.88c-.29.77-.89,1.01-1.62,1.01-1.07,0-2.01-.87-2.01-2.58s.83-2.75,2.28-2.75c.65,0,1.2.36,1.34.8v-2.95Zm.01,4.2c0-.9-.68-1.29-1.27-1.29-.75,0-1.36.52-1.36,1.95,0,1.2.53,1.84,1.35,1.84.56,0,1.28-.45,1.28-1.38v-1.12Z" style="fill:#32406d;"/><path d="m163.96,46.03v4.36c0,1.68-1.23,2.25-2.5,2.25s-2.5-.57-2.5-2.25v-4.36h1.01v4.09c0,1.17.54,1.68,1.49,1.68s1.47-.52,1.47-1.66v-4.11h1.02Zm-3.6-2.02c.36,0,.66.27.66.66s-.3.65-.66.65-.65-.27-.65-.65.3-.66.65-.66Zm2.16.01c.37,0,.66.28.66.66,0,.36-.29.65-.66.65-.35,0-.65-.29-.65-.65,0-.38.3-.66.65-.66Z" style="fill:#32406d;"/><path d="m166.11,52.51h-.65v-7.35h.99v3.23c.25-.76.92-1.09,1.63-1.09,1.24,0,2,.9,2,2.54,0,1.55-.8,2.79-2.18,2.79-.88,0-1.35-.4-1.53-.87l-.26.74Zm.34-1.97c0,.98.66,1.35,1.23,1.35.76,0,1.39-.62,1.39-1.96,0-1.22-.5-1.82-1.28-1.82-.73,0-1.34.54-1.34,1.47v.95Z" style="fill:#32406d;"/><path d="m174.43,51.03l.87.23c-.21,1.02-1.07,1.38-2.04,1.38-1.35,0-2.27-.93-2.27-2.63s.9-2.71,2.32-2.71c1.31,0,2.01.9,2.01,2.17,0,.29-.04.55-.1.7h-3.28c.04.99.51,1.68,1.36,1.68.56,0,.94-.22,1.11-.83Zm-.08-1.57c.01-.08.01-.14.01-.21,0-.65-.42-1.17-1.1-1.17-.73,0-1.19.5-1.29,1.38h2.38Z" style="fill:#32406d;"/><path d="m179.44,48.43c-.12-.02-.29-.04-.45-.04-.71,0-1.41.56-1.41,1.55v2.57h-.99v-5.08h.84l.12,1.38c.2-.91.84-1.54,1.97-1.48l-.08,1.11Z" style="fill:#32406d;"/><path d="m179.87,48.22v-.79h.74v-.57c0-1.33.85-1.77,1.75-1.77.41,0,.76.09,1.06.21l-.19.85c-.26-.14-.48-.22-.81-.22-.51,0-.8.25-.8.98v.53h1.3v.79h-1.3v4.29h-1v-4.29h-.74Z" style="fill:#32406d;"/><path d="m183.3,49.93c0-1.73.91-2.63,2.31-2.63s2.32.9,2.32,2.63-.91,2.71-2.32,2.71-2.31-.97-2.31-2.71Zm.98.01c0,1.28.45,1.91,1.33,1.91s1.34-.64,1.34-1.91-.46-1.84-1.34-1.84-1.33.59-1.33,1.84Z" style="fill:#32406d;"/><path d="m192.03,48.43c-.12-.02-.29-.04-.45-.04-.71,0-1.41.56-1.41,1.55v2.57h-.99v-5.08h.84l.12,1.38c.2-.91.84-1.54,1.97-1.48l-.08,1.11Z" style="fill:#32406d;"/><path d="m196.15,45.16h1v7.35h-.88l-.11-.88c-.29.77-.89,1.01-1.62,1.01-1.07,0-2.01-.87-2.01-2.58s.83-2.75,2.28-2.75c.65,0,1.2.36,1.34.8v-2.95Zm.01,4.2c0-.9-.68-1.29-1.27-1.29-.75,0-1.36.52-1.36,1.95,0,1.2.53,1.84,1.35,1.84.56,0,1.28-.45,1.28-1.38v-1.12Z" style="fill:#32406d;"/><path d="m201.83,51.03l.87.23c-.21,1.02-1.07,1.38-2.04,1.38-1.35,0-2.27-.93-2.27-2.63s.9-2.71,2.32-2.71c1.31,0,2.01.9,2.01,2.17,0,.29-.04.55-.1.7h-3.28c.04.99.51,1.68,1.36,1.68.56,0,.94-.22,1.11-.83Zm-.08-1.57c.01-.08.01-.14.01-.21,0-.65-.42-1.17-1.1-1.17-.73,0-1.19.5-1.29,1.38h2.38Z" style="fill:#32406d;"/><path d="m206.84,48.43c-.12-.02-.29-.04-.45-.04-.71,0-1.41.56-1.41,1.55v2.57h-.99v-5.08h.84l.12,1.38c.2-.91.84-1.54,1.97-1.48l-.08,1.11Z" style="fill:#32406d;"/><path d="m210.94,51.58c-.24.75-.76,1.06-1.56,1.06-.92,0-1.54-.47-1.54-1.68v-3.53h.99v3.38c0,.75.29,1.1.91,1.1.55,0,1.18-.5,1.18-1.47v-3h.99v5.08h-.85l-.12-.92Z" style="fill:#32406d;"/><path d="m214.4,48.41c.27-.76.86-1.1,1.63-1.1.84,0,1.54.46,1.54,1.57v3.63h-.99v-3.33c0-.63-.29-1.01-.89-1.01s-1.2.33-1.2,1.43v2.92h-.99v-5.08h.78l.12.98Z" style="fill:#32406d;"/><path d="m222.29,47.71c.24-.13.32-.4.38-.77l.86.3c-.08.48-.43.81-.85.91.15.26.23.58.23.96,0,1.18-.95,1.76-2.09,1.76-.25,0-.52-.03-.66-.09-.25.13-.34.31-.34.53,0,.29.19.42.54.42h1.24c1.16,0,1.77.51,1.77,1.42,0,1.33-1.43,1.68-2.76,1.68-1.12,0-2.22-.29-2.22-1.33,0-.66.47-1.1,1.31-1.17-.46-.06-.7-.39-.7-.79s.21-.75.75-.89c-.62-.28-.99-.79-.99-1.54,0-1.14.84-1.8,2.06-1.8.6,0,1.1.13,1.47.41Zm-1.57,6.41c1.03,0,1.71-.2,1.71-.84,0-.38-.21-.67-.86-.67h-1.1c-.73,0-1.13.24-1.13.77s.58.74,1.39.74Zm.1-3.96c.67,0,1.11-.35,1.11-1.07s-.44-1.08-1.11-1.07c-.67,0-1.07.38-1.07,1.07,0,.64.39,1.07,1.07,1.07Z" style="fill:#32406d;"/><path d="m230.42,51.31c0,.38.18.47.37.47.12,0,.21-.02.29-.05v.77c-.14.05-.32.09-.54.09-.58,0-.96-.24-1.04-.81-.26.64-.86.87-1.51.87-.89,0-1.52-.51-1.52-1.38,0-1.12.87-1.77,2.95-1.67v-.63c0-.63-.37-.87-.91-.87s-.88.29-.92.81l-.95-.14c.08-1.08,1.02-1.46,1.96-1.46.99,0,1.83.4,1.83,1.56v2.44Zm-1-1.07c-1.36-.03-1.96.28-1.96.91,0,.42.28.74.81.74s1.14-.32,1.14-.91v-.74Z" style="fill:#32406d;"/><path d="m235.05,51.58c-.24.75-.76,1.06-1.56,1.06-.92,0-1.54-.47-1.54-1.68v-3.53h.99v3.38c0,.75.29,1.1.91,1.1.55,0,1.18-.5,1.18-1.47v-3h.99v5.08h-.85l-.12-.92Z" style="fill:#32406d;"/><path d="m236.97,48.22v-.79h.74v-.57c0-1.33.85-1.77,1.75-1.77.41,0,.76.09,1.06.21l-.19.85c-.26-.14-.48-.22-.81-.22-.51,0-.8.25-.8.98v.53h1.3v.79h-1.3v4.29h-1v-4.29h-.74Z" style="fill:#32406d;"/><path d="m241.4,51.08c.42,0,.75.32.75.75s-.33.75-.75.75-.75-.33-.75-.75.33-.75.75-.75Z" style="fill:#32406d;"/></g><g><path d="m189.54,109.02v3.5h-.97l-.27-.69c-.35.57-.98.83-1.78.83-1.68,0-2.92-1.03-2.92-3.34,0-2.17,1.18-3.4,3.21-3.4,1.33,0,2.28.63,2.71,1.67l-1.61.78c-.19-.66-.57-.99-1.14-.99s-1.47.34-1.47,1.97c0,1.06.37,1.97,1.52,1.97.87,0,1.16-.42,1.16-.86v-.13h-1.29v-1.3h2.86Z" style="fill:#32406d;"/><path d="m193.83,110.75l1.39.5c-.29,1.02-1.22,1.4-2.22,1.4-1.49,0-2.52-.96-2.52-2.58,0-1.76.96-2.75,2.53-2.75,1.47,0,2.19.96,2.19,2.28,0,.21-.02.43-.07.66h-3.08c.02.7.35,1.14.97,1.14.34,0,.65-.12.81-.64Zm-.2-1.36c.01-.06.01-.1.01-.15,0-.42-.22-.73-.69-.73s-.81.39-.86.88h1.54Z" style="fill:#32406d;"/><path d="m197.81,108.41c.28-.76.85-1.1,1.63-1.1s1.47.46,1.47,1.62v3.59h-1.63v-2.95c0-.54-.11-.89-.62-.89-.42,0-.84.24-.84,1.09v2.75h-1.63v-5.08h1.41l.2.98Z" style="fill:#32406d;"/><path d="m206.25,110.86c0,.33.13.46.36.46.12,0,.23-.04.33-.09v1.17c-.23.15-.54.21-.92.21-.67,0-1.08-.24-1.27-.79-.23.63-.76.83-1.47.83-.9,0-1.49-.53-1.49-1.41,0-1.13.92-1.74,2.84-1.63v-.43c0-.39-.12-.65-.48-.65s-.52.27-.54.71l-1.64-.31c.08-1.08.98-1.63,2.22-1.63,1.36,0,2.06.59,2.06,1.72v1.84Zm-1.62-.41c-.92-.03-1.21.23-1.21.62,0,.25.19.43.48.43.33,0,.73-.14.73-.61v-.44Z" style="fill:#32406d;"/><path d="m210.65,111.56c-.15.68-.6,1.09-1.57,1.09-.9,0-1.53-.46-1.53-1.63v-3.59h1.63v3.09c0,.55.17.89.63.89s.83-.37.83-1.34v-2.64h1.63v5.08h-1.41l-.2-.96Z" style="fill:#32406d;"/><path d="m219.51,109.11c-.21-.07-.36-.1-.62-.1-.53,0-1.27.2-1.27,1.25v2.24h-1.63v-5.08h1.42l.2,1.41c.22-.88.68-1.61,2.09-1.52l-.2,1.79Z" style="fill:#32406d;"/><path d="m221.29,104.99c.57,0,1,.3,1,.91s-.43.9-1,.9c-.53,0-.97-.31-.97-.9s.44-.91.97-.91Zm.81,2.44v5.08h-1.63v-5.08h1.63Z" style="fill:#32406d;"/><path d="m227.82,111.12c-.2,1.02-1.09,1.53-2.2,1.53-1.52,0-2.52-.97-2.52-2.65s1-2.68,2.52-2.68c1.24,0,2.05.68,2.12,1.69l-1.36.41c-.07-.52-.29-.83-.76-.83-.61,0-.94.52-.94,1.38,0,.92.34,1.43.95,1.43.35,0,.62-.18.74-.75l1.45.47Z" style="fill:#32406d;"/><path d="m230.27,108.4c.28-.76.83-1.09,1.61-1.09s1.47.46,1.47,1.62v3.59h-1.63v-2.95c0-.54-.11-.89-.62-.89-.42,0-.84.23-.84,1.08v2.76h-1.63v-7.35h1.63v3.23Z" style="fill:#32406d;"/><path d="m238.21,112.3c-.46.23-1.01.34-1.67.34-1.03,0-1.74-.47-1.74-1.71v-2.25h-.74v-1.25h.75v-1.08l1.63-.19v1.26h1.51v1.25h-1.52v1.88c0,.53.21.69.6.69.32,0,.6-.12.9-.33l.28,1.38Z" style="fill:#32406d;"/><path d="m239.85,104.99c.57,0,1,.3,1,.91s-.43.9-1,.9c-.53,0-.97-.31-.97-.9s.44-.91.97-.91Zm.81,2.44v5.08h-1.63v-5.08h1.63Z" style="fill:#32406d;"/><path d="m245.44,107.6c.21-.24.25-.35.37-.77l1.27.42c-.06.5-.54.84-.95.97.14.24.22.54.22.89,0,1.17-1.06,1.75-2.41,1.75-.23,0-.48-.02-.6-.07-.15.1-.2.24-.2.39s.12.26.35.26h1.52c1.16,0,1.82.66,1.82,1.53,0,1.49-1.53,1.87-3.03,1.87-1.29,0-2.42-.3-2.42-1.25,0-.58.41-.91,1.35-.98-.53-.03-.86-.47-.86-.93,0-.4.27-.87.88-1.05-.7-.27-1.08-.69-1.08-1.52,0-1.2.94-1.79,2.32-1.79.57,0,1.06.1,1.44.29Zm-1.44,6.16c1.02,0,1.3-.18,1.3-.51,0-.28-.18-.34-.54-.34h-1.31c-.32,0-.58.11-.58.33,0,.34.36.52,1.13.52Zm0-3.96c.45,0,.68-.26.68-.69,0-.47-.23-.69-.68-.69s-.66.25-.66.69c0,.4.2.69.66.69Z" style="fill:#32406d;"/><path d="m248.51,107.37c.59,0,1.03.44,1.03,1.03,0,.55-.44.99-1.03.99-.55,0-.99-.44-.99-.99,0-.59.44-1.03.99-1.03Zm0,3.18c.59,0,1.03.44,1.03,1.03,0,.55-.44.99-1.03.99-.55,0-.99-.44-.99-.99,0-.59.44-1.03.99-1.03Z" style="fill:#32406d;"/></g><g><path d="m184.07,127.52v-6.48h2.01c1.82,0,3.12.89,3.12,3.17,0,2.4-1.43,3.31-3.16,3.31h-1.98Zm1.88-.85c1.28,0,2.19-.68,2.19-2.42s-.95-2.37-2.09-2.37h-.97v4.79h.87Z" style="fill:#32406d;"/><path d="m190.97,120.15c.38,0,.69.26.69.66,0,.37-.31.66-.69.66-.35,0-.66-.29-.66-.66,0-.4.31-.66.66-.66Zm.51,2.29v5.08h-.99v-5.08h.99Z" style="fill:#32406d;"/><path d="m196.16,126.04l.87.23c-.21,1.02-1.07,1.38-2.04,1.38-1.35,0-2.27-.93-2.27-2.63s.9-2.71,2.32-2.71c1.31,0,2.01.9,2.01,2.17,0,.29-.04.55-.1.7h-3.28c.04.99.51,1.68,1.36,1.68.56,0,.94-.22,1.11-.83Zm-.08-1.57c.01-.08.01-.14.01-.21,0-.65-.42-1.17-1.1-1.17-.73,0-1.19.5-1.29,1.38h2.38Z" style="fill:#32406d;"/><path d="m200.87,127.52v-6.48h3.82v.88h-2.81v1.98h2.46v.88h-2.46v2.74h-1.01Z" style="fill:#32406d;"/><path d="m208.58,123.44c-.12-.02-.29-.04-.45-.04-.71,0-1.41.56-1.41,1.55v2.57h-.99v-5.08h.84l.12,1.38c.2-.91.84-1.54,1.97-1.48l-.08,1.11Z" style="fill:#32406d;"/><path d="m213.09,126.32c0,.38.18.47.37.47.12,0,.21-.02.29-.05v.77c-.14.05-.32.09-.54.09-.58,0-.96-.24-1.04-.81-.26.64-.86.87-1.51.87-.89,0-1.52-.51-1.52-1.38,0-1.12.87-1.77,2.95-1.67v-.63c0-.63-.37-.87-.91-.87s-.88.29-.92.81l-.95-.14c.08-1.08,1.02-1.46,1.96-1.46.99,0,1.83.4,1.83,1.56v2.44Zm-1-1.07c-1.36-.03-1.96.28-1.96.91,0,.42.28.74.81.74s1.14-.32,1.14-.91v-.74Z" style="fill:#32406d;"/><path d="m217.99,122.72c.24-.13.32-.4.38-.77l.86.3c-.08.48-.43.81-.85.91.15.26.23.58.23.96,0,1.18-.95,1.76-2.09,1.76-.25,0-.52-.03-.66-.09-.25.13-.34.31-.34.53,0,.29.19.42.54.42h1.24c1.16,0,1.77.51,1.77,1.42,0,1.33-1.43,1.68-2.76,1.68-1.12,0-2.22-.29-2.22-1.33,0-.66.47-1.1,1.31-1.17-.46-.06-.7-.39-.7-.79s.21-.75.75-.89c-.62-.28-.99-.79-.99-1.54,0-1.14.84-1.8,2.06-1.8.6,0,1.1.13,1.47.41Zm-1.57,6.41c1.03,0,1.71-.2,1.71-.84,0-.38-.21-.67-.86-.67h-1.1c-.73,0-1.13.24-1.13.77s.58.74,1.39.74Zm.1-3.96c.67,0,1.11-.35,1.11-1.07s-.44-1.08-1.11-1.07c-.67,0-1.07.38-1.07,1.07,0,.64.39,1.07,1.07,1.07Z" style="fill:#32406d;"/><path d="m223.02,126.04l.87.23c-.21,1.02-1.07,1.38-2.04,1.38-1.35,0-2.27-.93-2.27-2.63s.9-2.71,2.32-2.71c1.31,0,2.01.9,2.01,2.17,0,.29-.04.55-.1.7h-3.28c.04.99.51,1.68,1.36,1.68.56,0,.94-.22,1.11-.83Zm-.08-1.57c.01-.08.01-.14.01-.21,0-.65-.42-1.17-1.1-1.17-.73,0-1.19.5-1.29,1.38h2.38Z" style="fill:#32406d;"/><path d="m227.99,126.11c.08.58.5.84,1.1.84s1.01-.22,1.01-.68c0-.42-.19-.65-.79-.8l-.75-.18c-.92-.22-1.28-.69-1.28-1.44,0-1.14.95-1.53,1.91-1.53,1.07,0,1.73.39,1.83,1.38l-.97.11c-.03-.51-.34-.74-.92-.74s-.89.25-.89.68c0,.36.14.59.69.71l.7.17c.9.22,1.41.64,1.41,1.53,0,1.09-.86,1.5-1.97,1.5s-1.83-.35-1.97-1.28l.88-.26Z" style="fill:#32406d;"/><path d="m233.21,129.75h-.99v-7.32h.81l.12.98c.3-.83,1.05-1.1,1.68-1.1,1.24,0,2,.9,2,2.54,0,1.55-.79,2.79-2.2,2.79-.78,0-1.25-.36-1.43-.8v2.9Zm0-4.2c0,.98.66,1.35,1.23,1.35.76,0,1.39-.62,1.39-1.96,0-1.22-.49-1.82-1.28-1.82-.73,0-1.34.54-1.34,1.49v.93Z" style="fill:#32406d;"/><path d="m237.76,124.94c0-1.73.91-2.63,2.31-2.63s2.32.9,2.32,2.63-.91,2.71-2.32,2.71-2.31-.97-2.31-2.71Zm.98.01c0,1.28.45,1.91,1.33,1.91s1.34-.64,1.34-1.91-.46-1.84-1.34-1.84-1.33.59-1.33,1.84Z" style="fill:#32406d;"/><path d="m246.5,123.44c-.12-.02-.29-.04-.45-.04-.71,0-1.41.56-1.41,1.55v2.57h-.99v-5.08h.84l.12,1.38c.2-.91.84-1.54,1.97-1.48l-.08,1.11Z" style="fill:#32406d;"/><path d="m248.46,123.41c.27-.76.86-1.1,1.63-1.1.84,0,1.54.46,1.54,1.57v3.63h-.99v-3.33c0-.63-.29-1.01-.89-1.01s-1.2.33-1.2,1.43v2.92h-.99v-5.08h.78l.12.98Z" style="fill:#32406d;"/><path d="m255.91,127.35c-.33.2-.76.3-1.23.3-.91,0-1.46-.48-1.46-1.43v-2.99h-.74v-.79h.74v-1.08l1-.12v1.2h1.51v.79h-1.52v2.79c0,.55.25.78.67.78.33,0,.56-.09.85-.28l.19.83Z" style="fill:#32406d;"/><path d="m262.86,126.32c0,.38.18.47.37.47.12,0,.21-.02.29-.05v.77c-.14.05-.32.09-.54.09-.58,0-.96-.24-1.04-.81-.26.64-.86.87-1.51.87-.89,0-1.52-.51-1.52-1.38,0-1.12.87-1.77,2.95-1.67v-.63c0-.63-.37-.87-.91-.87s-.88.29-.92.81l-.95-.14c.08-1.08,1.02-1.46,1.96-1.46.99,0,1.83.4,1.83,1.56v2.44Zm-1-1.07c-1.36-.03-1.96.28-1.96.91,0,.42.28.74.81.74s1.14-.32,1.14-.91v-.74Z" style="fill:#32406d;"/><path d="m265.47,123.41c.27-.76.86-1.1,1.63-1.1.84,0,1.54.46,1.54,1.57v3.63h-.99v-3.33c0-.63-.29-1.01-.89-1.01s-1.2.33-1.2,1.43v2.92h-.99v-5.08h.78l.12.98Z" style="fill:#32406d;"/><path d="m270,128.77v-.47c.54-.08.89-.32.89-.81-.45.09-.79-.19-.79-.62s.31-.68.74-.68c.45,0,.84.36.84.97,0,1.09-.66,1.56-1.67,1.62Z" style="fill:#32406d;"/><path d="m278.81,126.04l.87.23c-.21,1.02-1.07,1.38-2.04,1.38-1.35,0-2.27-.93-2.27-2.63s.9-2.71,2.32-2.71c1.31,0,2.01.9,2.01,2.17,0,.29-.04.55-.1.7h-3.28c.04.99.51,1.68,1.36,1.68.56,0,.94-.22,1.11-.83Zm-.08-1.57c.01-.08.01-.14.01-.21,0-.65-.42-1.17-1.1-1.17-.73,0-1.19.5-1.29,1.38h2.38Z" style="fill:#32406d;"/><path d="m281.45,120.15c.38,0,.69.26.69.66,0,.37-.31.66-.69.66-.35,0-.66-.29-.66-.66,0-.4.31-.66.66-.66Zm.51,2.29v5.08h-.99v-5.08h.99Z" style="fill:#32406d;"/><path d="m284.44,123.41c.27-.76.86-1.1,1.63-1.1.84,0,1.54.46,1.54,1.57v3.63h-.99v-3.33c0-.63-.29-1.01-.89-1.01s-1.2.33-1.2,1.43v2.92h-.99v-5.08h.78l.12.98Z" style="fill:#32406d;"/><path d="m292.24,126.04l.87.23c-.21,1.02-1.07,1.38-2.04,1.38-1.35,0-2.27-.93-2.27-2.63s.9-2.71,2.32-2.71c1.31,0,2.01.9,2.01,2.17,0,.29-.04.55-.1.7h-3.28c.04.99.51,1.68,1.36,1.68.56,0,.94-.22,1.11-.83Zm-.08-1.57c.01-.08.01-.14.01-.21,0-.65-.42-1.17-1.1-1.17-.73,0-1.19.5-1.29,1.38h2.38Z" style="fill:#32406d;"/><path d="m297.96,121.04v5.6h2.9v.88h-3.92v-6.48h1.01Z" style="fill:#32406d;"/><path d="m301.57,124.94c0-1.73.91-2.63,2.31-2.63s2.32.9,2.32,2.63-.91,2.71-2.32,2.71-2.31-.97-2.31-2.71Zm1.22-4.63c.36,0,.66.28.66.66s-.3.65-.66.65-.65-.28-.65-.65.3-.66.65-.66Zm-.24,4.64c0,1.28.45,1.91,1.33,1.91s1.34-.64,1.34-1.91-.46-1.84-1.34-1.84-1.33.59-1.33,1.84Zm2.4-4.63c.37,0,.66.28.66.66,0,.36-.29.65-.66.65-.35,0-.65-.29-.65-.65,0-.38.3-.66.65-.66Z" style="fill:#32406d;"/><path d="m307.84,126.11c.08.58.5.84,1.1.84s1.01-.22,1.01-.68c0-.42-.19-.65-.79-.8l-.75-.18c-.92-.22-1.28-.69-1.28-1.44,0-1.14.95-1.53,1.91-1.53,1.07,0,1.73.39,1.83,1.38l-.97.11c-.03-.51-.34-.74-.92-.74s-.89.25-.89.68c0,.36.14.59.69.71l.7.17c.9.22,1.41.64,1.41,1.53,0,1.09-.86,1.5-1.97,1.5s-1.83-.35-1.97-1.28l.88-.26Z" style="fill:#32406d;"/><path d="m315.1,126.59c-.24.75-.76,1.06-1.56,1.06-.92,0-1.54-.47-1.54-1.68v-3.53h.99v3.38c0,.75.29,1.1.91,1.1.55,0,1.18-.5,1.18-1.47v-3h.99v5.08h-.85l-.12-.92Z" style="fill:#32406d;"/><path d="m318.55,123.41c.27-.76.86-1.1,1.63-1.1.84,0,1.54.46,1.54,1.57v3.63h-.99v-3.33c0-.63-.29-1.01-.89-1.01s-1.2.33-1.2,1.43v2.92h-.99v-5.08h.78l.12.98Z" style="fill:#32406d;"/><path d="m326.45,122.72c.24-.13.32-.4.38-.77l.86.3c-.08.48-.43.81-.85.91.15.26.23.58.23.96,0,1.18-.95,1.76-2.09,1.76-.25,0-.52-.03-.66-.09-.25.13-.34.31-.34.53,0,.29.19.42.54.42h1.24c1.16,0,1.77.51,1.77,1.42,0,1.33-1.43,1.68-2.76,1.68-1.12,0-2.22-.29-2.22-1.33,0-.66.47-1.1,1.31-1.17-.46-.06-.7-.39-.7-.79s.21-.75.75-.89c-.62-.28-.99-.79-.99-1.54,0-1.14.84-1.8,2.06-1.8.6,0,1.1.13,1.47.41Zm-1.57,6.41c1.03,0,1.71-.2,1.71-.84,0-.38-.21-.67-.86-.67h-1.1c-.73,0-1.13.24-1.13.77s.58.74,1.39.74Zm.1-3.96c.67,0,1.11-.35,1.11-1.07s-.44-1.08-1.11-1.07c-.67,0-1.07.38-1.07,1.07,0,.64.39,1.07,1.07,1.07Z" style="fill:#32406d;"/><path d="m332.27,125.89c-.37.54-.63.8-.63.8v.04s.27-.03.95-.03h1.73v.81h-3.85v-.56l1.95-2.87c.36-.54.63-.8.63-.8v-.04s-.29.03-.95.03h-1.52v-.84h3.63v.66l-1.94,2.79Z" style="fill:#32406d;"/><path d="m338.39,126.59c-.24.75-.76,1.06-1.56,1.06-.92,0-1.54-.47-1.54-1.68v-3.53h.99v3.38c0,.75.29,1.1.91,1.1.55,0,1.18-.5,1.18-1.47v-3h.99v5.08h-.85l-.12-.92Z" style="fill:#32406d;"/></g><g><path d="m183.31,138.23v-.79h.74v-.5c0-1.42,1.02-1.85,1.9-1.85.48,0,.98.1,1.39.36l-.35.81c-.25-.19-.58-.34-1.01-.34-.55,0-.92.25-.92,1.04v.46h2.77v5.08h-.99v-4.29h-1.78v4.29h-1v-4.29h-.74Z" style="fill:#32406d;"/><path d="m190.31,138.42c.27-.76.86-1.1,1.63-1.1.84,0,1.54.46,1.54,1.57v3.63h-.99v-3.33c0-.63-.29-1.01-.89-1.01s-1.2.33-1.2,1.43v2.92h-.99v-5.08h.78l.12.98Z" style="fill:#32406d;"/><path d="m198.29,135.17h1v7.35h-.88l-.11-.88c-.29.77-.89,1.01-1.62,1.01-1.07,0-2.01-.87-2.01-2.58s.83-2.75,2.28-2.75c.65,0,1.2.36,1.34.8v-2.95Zm.01,4.2c0-.9-.68-1.29-1.27-1.29-.75,0-1.36.52-1.36,1.95,0,1.2.53,1.84,1.35,1.84.56,0,1.28-.45,1.28-1.38v-1.12Z" style="fill:#32406d;"/><path d="m203.98,141.05l.87.23c-.21,1.02-1.07,1.38-2.04,1.38-1.35,0-2.27-.93-2.27-2.63s.9-2.71,2.32-2.71c1.31,0,2.01.9,2.01,2.17,0,.29-.04.55-.1.7h-3.28c.04.99.51,1.68,1.36,1.68.56,0,.94-.22,1.11-.83Zm-.08-1.57c.01-.08.01-.14.01-.21,0-.65-.42-1.17-1.1-1.17-.73,0-1.19.5-1.29,1.38h2.38Z" style="fill:#32406d;"/><path d="m207.04,138.42c.27-.76.86-1.1,1.63-1.1.84,0,1.54.46,1.54,1.57v3.63h-.99v-3.33c0-.63-.29-1.01-.89-1.01s-1.2.33-1.2,1.43v2.92h-.99v-5.08h.78l.12.98Z" style="fill:#32406d;"/><path d="m211.57,143.78v-.47c.54-.08.89-.32.89-.81-.45.09-.79-.19-.79-.62s.31-.68.74-.68c.45,0,.84.36.84.97,0,1.09-.66,1.56-1.67,1.62Z" style="fill:#32406d;"/><path d="m216.95,139.95c0-1.73.91-2.63,2.31-2.63s2.32.9,2.32,2.63-.91,2.71-2.32,2.71-2.31-.97-2.31-2.71Zm.98.01c0,1.28.45,1.91,1.33,1.91s1.34-.64,1.34-1.91-.46-1.84-1.34-1.84-1.33.59-1.33,1.84Z" style="fill:#32406d;"/><path d="m223.82,138.41c.24-.73.77-1.09,1.54-1.09.84,0,1.54.46,1.54,1.57v3.63h-.99v-3.34c0-.62-.29-1-.89-1s-1.2.32-1.2,1.43v2.92h-.99v-7.35h.99v3.23Z" style="fill:#32406d;"/><path d="m229.34,138.42c.27-.76.86-1.1,1.63-1.1.84,0,1.54.46,1.54,1.57v3.63h-.99v-3.33c0-.63-.29-1.01-.89-1.01s-1.2.33-1.2,1.43v2.92h-.99v-5.08h.78l.12.98Z" style="fill:#32406d;"/><path d="m237.13,141.05l.87.23c-.21,1.02-1.07,1.38-2.04,1.38-1.35,0-2.27-.93-2.27-2.63s.9-2.71,2.32-2.71c1.31,0,2.01.9,2.01,2.17,0,.29-.04.55-.1.7h-3.28c.04.99.51,1.68,1.36,1.68.56,0,.94-.22,1.11-.83Zm-.08-1.57c.01-.08.01-.14.01-.21,0-.65-.42-1.17-1.1-1.17-.73,0-1.19.5-1.29,1.38h2.38Z" style="fill:#32406d;"/><path d="m242.11,141.11c.08.58.5.84,1.1.84s1.01-.22,1.01-.68c0-.42-.19-.65-.79-.8l-.75-.18c-.92-.22-1.28-.69-1.28-1.44,0-1.14.95-1.53,1.91-1.53,1.07,0,1.73.39,1.83,1.38l-.97.11c-.03-.51-.34-.74-.92-.74s-.89.25-.89.68c0,.36.14.59.69.71l.7.17c.9.22,1.41.64,1.41,1.53,0,1.09-.86,1.5-1.97,1.5s-1.83-.35-1.97-1.28l.88-.26Z" style="fill:#32406d;"/><path d="m246.81,135.15c.38,0,.69.26.69.66,0,.37-.31.66-.69.66-.35,0-.66-.29-.66-.66,0-.4.31-.66.66-.66Zm.51,2.29v5.08h-.99v-5.08h.99Z" style="fill:#32406d;"/><path d="m252.01,141.05l.87.23c-.21,1.02-1.07,1.38-2.04,1.38-1.35,0-2.27-.93-2.27-2.63s.9-2.71,2.32-2.71c1.31,0,2.01.9,2.01,2.17,0,.29-.04.55-.1.7h-3.28c.04.99.51,1.68,1.36,1.68.56,0,.94-.22,1.11-.83Zm-.08-1.57c.01-.08.01-.14.01-.21,0-.65-.42-1.17-1.1-1.17-.73,0-1.19.5-1.29,1.38h2.38Z" style="fill:#32406d;"/><path d="m255.89,137.44h1.08l.88,2.79c.3.96.4,1.62.4,1.62h.04s.08-.65.37-1.62l.85-2.79h1.04l-1.74,5.08h-1.16l-1.77-5.08Z" style="fill:#32406d;"/><path d="m261.05,139.95c0-1.73.91-2.63,2.31-2.63s2.32.9,2.32,2.63-.91,2.71-2.32,2.71-2.31-.97-2.31-2.71Zm.98.01c0,1.28.45,1.91,1.33,1.91s1.34-.64,1.34-1.91-.46-1.84-1.34-1.84-1.33.59-1.33,1.84Z" style="fill:#32406d;"/><path d="m269.78,138.44c-.12-.02-.29-.04-.45-.04-.71,0-1.41.56-1.41,1.55v2.57h-.99v-5.08h.84l.12,1.38c.2-.91.84-1.54,1.97-1.48l-.08,1.11Z" style="fill:#32406d;"/><path d="m272.1,140.89c-.37.54-.63.8-.63.8v.04s.27-.03.95-.03h1.73v.81h-3.85v-.56l1.95-2.87c.36-.54.63-.8.63-.8v-.04s-.29.03-.95.03h-1.52v-.84h3.63v.66l-1.94,2.79Z" style="fill:#32406d;"/><path d="m278.22,141.6c-.24.75-.76,1.06-1.56,1.06-.92,0-1.54-.47-1.54-1.68v-3.53h.99v3.38c0,.75.29,1.1.91,1.1.55,0,1.18-.5,1.18-1.47v-3h.99v5.08h-.85l-.12-.92Z" style="fill:#32406d;"/><path d="m283.86,137.72c.24-.13.32-.4.38-.77l.86.3c-.08.48-.43.81-.85.91.15.26.23.58.23.96,0,1.18-.95,1.76-2.09,1.76-.25,0-.52-.03-.66-.09-.25.13-.34.31-.34.53,0,.29.19.42.54.42h1.24c1.16,0,1.77.51,1.77,1.42,0,1.33-1.43,1.68-2.76,1.68-1.12,0-2.22-.29-2.22-1.33,0-.66.47-1.1,1.31-1.17-.46-.06-.7-.39-.7-.79s.21-.75.75-.89c-.62-.28-.99-.79-.99-1.54,0-1.14.84-1.8,2.06-1.8.6,0,1.1.13,1.47.41Zm-1.57,6.41c1.03,0,1.71-.2,1.71-.84,0-.38-.21-.67-.86-.67h-1.1c-.73,0-1.13.24-1.13.77s.58.74,1.39.74Zm.1-3.96c.67,0,1.11-.35,1.11-1.07s-.44-1.08-1.11-1.07c-.67,0-1.07.38-1.07,1.07,0,.64.39,1.07,1.07,1.07Z" style="fill:#32406d;"/><path d="m288.89,141.05l.87.23c-.21,1.02-1.07,1.38-2.04,1.38-1.35,0-2.27-.93-2.27-2.63s.9-2.71,2.32-2.71c1.31,0,2.01.9,2.01,2.17,0,.29-.04.55-.1.7h-3.28c.04.99.51,1.68,1.36,1.68.56,0,.94-.22,1.11-.83Zm-.08-1.57c.01-.08.01-.14.01-.21,0-.65-.42-1.17-1.1-1.17-.73,0-1.19.5-1.29,1.38h2.38Z" style="fill:#32406d;"/><path d="m291.69,142.52h-.65v-7.35h.99v3.23c.25-.76.92-1.09,1.63-1.09,1.24,0,2,.9,2,2.54,0,1.55-.8,2.79-2.18,2.79-.88,0-1.35-.4-1.53-.87l-.26.74Zm.34-1.97c0,.98.66,1.35,1.23,1.35.76,0,1.39-.62,1.39-1.96,0-1.22-.5-1.82-1.28-1.82-.73,0-1.34.54-1.34,1.47v.95Z" style="fill:#32406d;"/><path d="m300.02,141.05l.87.23c-.21,1.02-1.07,1.38-2.04,1.38-1.35,0-2.27-.93-2.27-2.63s.9-2.71,2.32-2.71c1.31,0,2.01.9,2.01,2.17,0,.29-.04.55-.1.7h-3.28c.04.99.51,1.68,1.36,1.68.56,0,.94-.22,1.11-.83Zm-.08-1.57c.01-.08.01-.14.01-.21,0-.65-.42-1.17-1.1-1.17-.73,0-1.19.5-1.29,1.38h2.38Z" style="fill:#32406d;"/><path d="m303.08,138.42c.27-.76.86-1.1,1.63-1.1.84,0,1.54.46,1.54,1.57v3.63h-.99v-3.33c0-.63-.29-1.01-.89-1.01s-1.2.33-1.2,1.43v2.92h-.99v-5.08h.78l.12.98Z" style="fill:#32406d;"/><path d="m308.56,141.09c.42,0,.75.32.75.75s-.33.75-.75.75-.75-.33-.75-.75.33-.75.75-.75Z" style="fill:#32406d;"/></g><g><path d="m126.89,252.3c-.41.54-.72.8-.72.8v.04s.32-.06.86-.06h2.3v1.43h-5.13v-1.23l2.23-3.03c.4-.54.71-.8.71-.8v-.04s-.32.05-.86.05h-2.04v-1.43h4.95v1.17l-2.32,3.09Z" style="fill:#32406d;"/><path d="m133.27,253.57c-.15.68-.6,1.09-1.57,1.09-.9,0-1.53-.46-1.53-1.63v-3.59h1.63v3.09c0,.55.17.89.63.89s.83-.37.83-1.34v-2.64h1.63v5.08h-1.41l-.2-.96Z" style="fill:#32406d;"/><path d="m141.62,253.57c-.15.68-.6,1.09-1.57,1.09-.9,0-1.53-.46-1.53-1.63v-3.59h1.63v3.09c0,.55.17.89.63.89s.83-.37.83-1.34v-2.64h1.63v5.08h-1.41l-.2-.96Z" style="fill:#32406d;"/><path d="m146.15,250.42c.28-.76.85-1.1,1.63-1.1s1.47.46,1.47,1.62v3.59h-1.63v-2.95c0-.54-.11-.89-.62-.89-.42,0-.84.24-.84,1.09v2.75h-1.63v-5.08h1.41l.2.98Z" style="fill:#32406d;"/><path d="m151.33,247c.57,0,1,.3,1,.91s-.43.9-1,.9c-.53,0-.97-.31-.97-.9s.44-.91.97-.91Zm.81,2.44v5.08h-1.63v-5.08h1.63Z" style="fill:#32406d;"/><path d="m155.07,250.42c.28-.76.85-1.1,1.63-1.1s1.47.46,1.47,1.62v3.59h-1.63v-2.95c0-.54-.11-.89-.62-.89-.42,0-.84.24-.84,1.09v2.75h-1.63v-5.08h1.41l.2.98Z" style="fill:#32406d;"/><path d="m160.27,252.77c.12.54.51.74.95.74.35,0,.59-.12.59-.35,0-.25-.2-.35-.6-.45l-.75-.18c-.88-.23-1.31-.74-1.31-1.53,0-1.32,1.06-1.68,2.13-1.68,1.25,0,2,.45,2.07,1.45l-1.52.22c-.06-.37-.26-.47-.63-.47-.26,0-.46.12-.46.33,0,.22.15.33.43.39l.73.14c1.08.22,1.54.83,1.54,1.67,0,1.16-.96,1.61-2.23,1.61s-2.05-.35-2.26-1.32l1.32-.56Z" style="fill:#32406d;"/><path d="m166.05,256.76h-1.63v-7.32h1.41l.21.98c.3-.81.94-1.1,1.66-1.1,1.24,0,1.95.94,1.95,2.54,0,1.71-.8,2.79-2.18,2.79-.77,0-1.29-.37-1.42-.8v2.9Zm-.01-4.36c0,.84.5,1.09.89,1.09.58,0,1.08-.48,1.08-1.49s-.39-1.39-.99-1.39c-.47,0-.98.4-.98,1.17v.62Z" style="fill:#32406d;"/><path d="m171.45,247c.57,0,1,.3,1,.91s-.43.9-1,.9c-.53,0-.97-.31-.97-.9s.44-.91.97-.91Zm.81,2.44v5.08h-1.63v-5.08h1.63Z" style="fill:#32406d;"/><path d="m177.1,251.12c-.21-.07-.36-.1-.62-.1-.53,0-1.27.2-1.27,1.25v2.24h-1.63v-5.08h1.42l.2,1.41c.22-.88.68-1.61,2.09-1.52l-.2,1.79Z" style="fill:#32406d;"/><path d="m178.88,247c.57,0,1,.3,1,.91s-.43.9-1,.9c-.53,0-.97-.31-.97-.9s.44-.91.97-.91Zm.81,2.44v5.08h-1.63v-5.08h1.63Z" style="fill:#32406d;"/><path d="m184.04,252.76l1.39.5c-.29,1.02-1.22,1.4-2.22,1.4-1.49,0-2.52-.96-2.52-2.58,0-1.76.96-2.75,2.53-2.75,1.47,0,2.19.96,2.19,2.28,0,.21-.02.43-.07.66h-3.08c.02.7.35,1.14.97,1.14.34,0,.65-.12.81-.64Zm-.2-1.36c.01-.06.01-.1.01-.15,0-.42-.22-.73-.69-.73s-.81.39-.86.88h1.54Z" style="fill:#32406d;"/><path d="m189.92,251.12c-.21-.07-.36-.1-.62-.1-.53,0-1.27.2-1.27,1.25v2.24h-1.63v-5.08h1.42l.2,1.41c.22-.88.68-1.61,2.09-1.52l-.2,1.79Z" style="fill:#32406d;"/><path d="m193.81,252.76l1.39.5c-.29,1.02-1.22,1.4-2.22,1.4-1.49,0-2.52-.96-2.52-2.58,0-1.76.96-2.75,2.53-2.75,1.47,0,2.19.96,2.19,2.28,0,.21-.02.43-.07.66h-3.08c.02.7.35,1.14.97,1.14.34,0,.65-.12.81-.64Zm-.2-1.36c.01-.06.01-.1.01-.15,0-.42-.22-.73-.69-.73s-.81.39-.86.88h1.54Z" style="fill:#32406d;"/><path d="m197.79,250.42c.28-.76.85-1.1,1.63-1.1s1.47.46,1.47,1.62v3.59h-1.63v-2.95c0-.54-.11-.89-.62-.89-.42,0-.84.24-.84,1.09v2.75h-1.63v-5.08h1.41l.2.98Z" style="fill:#32406d;"/><path d="m205.42,247.17h1.63v7.35h-1.42l-.2-.88c-.17.77-.8,1.01-1.57,1.01-1.16,0-2.04-.9-2.04-2.55,0-1.74.81-2.78,2.27-2.78.65,0,1.19.29,1.33.78v-2.93Zm.01,4.32c0-.69-.42-.98-.91-.98s-1.06.39-1.06,1.5c0,.89.4,1.4,1.03,1.4.48,0,.94-.36.94-1.03v-.88Z" style="fill:#32406d;"/><path d="m209.3,249.37c.59,0,1.03.44,1.03,1.03,0,.55-.44.99-1.03.99-.55,0-.99-.44-.99-.99,0-.59.44-1.03.99-1.03Zm0,3.18c.59,0,1.03.44,1.03,1.03,0,.55-.44.99-1.03.99-.55,0-.99-.44-.99-.99,0-.59.44-1.03.99-1.03Z" style="fill:#32406d;"/></g><g><path d="m89.89,269.53v-6.48h2.01c1.82,0,3.12.89,3.12,3.17,0,2.4-1.43,3.31-3.16,3.31h-1.98Zm1.88-.85c1.28,0,2.19-.68,2.19-2.42s-.95-2.37-2.09-2.37h-.97v4.79h.87Z" style="fill:#32406d;"/><path d="m96.79,262.16c.38,0,.69.26.69.66,0,.37-.31.66-.69.66-.35,0-.66-.29-.66-.66,0-.4.31-.66.66-.66Zm.51,2.29v5.08h-.99v-5.08h.99Z" style="fill:#32406d;"/><path d="m101.98,268.05l.87.23c-.21,1.02-1.07,1.38-2.04,1.38-1.35,0-2.27-.93-2.27-2.63s.9-2.71,2.32-2.71c1.31,0,2.01.9,2.01,2.17,0,.29-.04.55-.1.7h-3.28c.04.99.51,1.68,1.36,1.68.56,0,.94-.22,1.11-.83Zm-.08-1.57c.01-.08.01-.14.01-.21,0-.65-.42-1.17-1.1-1.17-.73,0-1.19.5-1.29,1.38h2.38Z" style="fill:#32406d;"/><path d="m110.21,267.76h-2.65l-.62,1.77h-1.06l2.37-6.48h1.33l2.34,6.48h-1.09l-.63-1.77Zm-2.37-.84h2.07l-.5-1.45c-.36-1.01-.51-1.71-.51-1.71h-.04s-.15.68-.51,1.69l-.52,1.46Z" style="fill:#32406d;"/><path d="m113.73,265.42c.27-.76.86-1.1,1.63-1.1.84,0,1.54.46,1.54,1.57v3.63h-.99v-3.33c0-.63-.29-1.01-.89-1.01s-1.2.33-1.2,1.43v2.92h-.99v-5.08h.78l.12.98Z" style="fill:#32406d;"/><path d="m121.17,269.36c-.33.2-.76.3-1.23.3-.91,0-1.46-.48-1.46-1.43v-2.99h-.74v-.79h.74v-1.08l1-.12v1.2h1.51v.79h-1.52v2.79c0,.55.25.78.67.78.33,0,.56-.09.85-.28l.19.83Z" style="fill:#32406d;"/><path d="m126.27,267.08c.29,1.02.34,1.73.34,1.73h.04s.03-.69.29-1.73l.68-2.64h1l-1.39,5.08h-1.19l-.67-2.41c-.27-.97-.33-1.61-.33-1.61h-.04s-.06.63-.31,1.61l-.64,2.41h-1.19l-1.42-5.08h1.02l.69,2.64c.27,1.02.34,1.73.34,1.73h.04s.03-.73.31-1.74l.7-2.63h.99l.72,2.64Z" style="fill:#32406d;"/><path d="m129.19,266.95c0-1.73.91-2.63,2.31-2.63s2.32.9,2.32,2.63-.91,2.71-2.32,2.71-2.31-.97-2.31-2.71Zm.98.01c0,1.28.45,1.91,1.33,1.91s1.34-.64,1.34-1.91-.46-1.84-1.34-1.84-1.33.59-1.33,1.84Z" style="fill:#32406d;"/><path d="m137.93,265.45c-.12-.02-.29-.04-.45-.04-.71,0-1.41.56-1.41,1.55v2.57h-.99v-5.08h.84l.12,1.38c.2-.91.84-1.54,1.97-1.48l-.08,1.11Z" style="fill:#32406d;"/><path d="m141.74,269.36c-.33.2-.76.3-1.23.3-.91,0-1.46-.48-1.46-1.43v-2.99h-.74v-.79h.74v-1.08l1-.12v1.2h1.51v.79h-1.52v2.79c0,.55.25.78.67.78.33,0,.56-.09.85-.28l.19.83Z" style="fill:#32406d;"/><path d="m144.8,266.95c0-1.73.91-2.63,2.31-2.63s2.32.9,2.32,2.63-.91,2.71-2.32,2.71-2.31-.97-2.31-2.71Zm.98.01c0,1.28.45,1.91,1.33,1.91s1.34-.64,1.34-1.91-.46-1.84-1.34-1.84-1.33.59-1.33,1.84Z" style="fill:#32406d;"/><path d="m153.97,262.18h1v7.35h-.88l-.11-.88c-.29.77-.89,1.01-1.62,1.01-1.07,0-2.01-.87-2.01-2.58s.83-2.75,2.28-2.75c.65,0,1.2.36,1.34.8v-2.95Zm.01,4.2c0-.9-.68-1.29-1.27-1.29-.75,0-1.36.52-1.36,1.95,0,1.2.53,1.84,1.35,1.84.56,0,1.28-.45,1.28-1.38v-1.12Z" style="fill:#32406d;"/><path d="m159.66,268.05l.87.23c-.21,1.02-1.07,1.38-2.04,1.38-1.35,0-2.27-.93-2.27-2.63s.9-2.71,2.32-2.71c1.31,0,2.01.9,2.01,2.17,0,.29-.04.55-.1.7h-3.28c.04.99.51,1.68,1.36,1.68.56,0,.94-.22,1.11-.83Zm-.08-1.57c.01-.08.01-.14.01-.21,0-.65-.42-1.17-1.1-1.17-.73,0-1.19.5-1.29,1.38h2.38Z" style="fill:#32406d;"/><path d="m164.67,265.45c-.12-.02-.29-.04-.45-.04-.71,0-1.41.56-1.41,1.55v2.57h-.99v-5.08h.84l.12,1.38c.2-.91.84-1.54,1.97-1.48l-.08,1.11Z" style="fill:#32406d;"/><path d="m169.3,263.05v5.6h2.9v.88h-3.92v-6.48h1.01Z" style="fill:#32406d;"/><path d="m172.9,266.95c0-1.73.91-2.63,2.31-2.63s2.32.9,2.32,2.63-.91,2.71-2.32,2.71-2.31-.97-2.31-2.71Zm1.22-4.63c.36,0,.66.28.66.66s-.3.65-.66.65-.65-.28-.65-.65.3-.66.65-.66Zm-.24,4.64c0,1.28.45,1.91,1.33,1.91s1.34-.64,1.34-1.91-.46-1.84-1.34-1.84-1.33.59-1.33,1.84Zm2.4-4.63c.37,0,.66.28.66.66,0,.36-.29.65-.66.65-.35,0-.65-.29-.65-.65,0-.38.3-.66.65-.66Z" style="fill:#32406d;"/><path d="m179.17,268.12c.08.58.5.84,1.1.84s1.01-.22,1.01-.68c0-.42-.19-.65-.79-.8l-.75-.18c-.92-.22-1.28-.69-1.28-1.44,0-1.14.95-1.53,1.91-1.53,1.07,0,1.73.39,1.83,1.38l-.97.11c-.03-.51-.34-.74-.92-.74s-.89.25-.89.68c0,.36.14.59.69.71l.7.17c.9.22,1.41.64,1.41,1.53,0,1.09-.86,1.5-1.97,1.5s-1.83-.35-1.97-1.28l.88-.26Z" style="fill:#32406d;"/><path d="m186.43,268.6c-.24.75-.76,1.06-1.56,1.06-.92,0-1.54-.47-1.54-1.68v-3.53h.99v3.38c0,.75.29,1.1.91,1.1.55,0,1.18-.5,1.18-1.47v-3h.99v5.08h-.85l-.12-.92Z" style="fill:#32406d;"/><path d="m189.89,265.42c.27-.76.86-1.1,1.63-1.1.84,0,1.54.46,1.54,1.57v3.63h-.99v-3.33c0-.63-.29-1.01-.89-1.01s-1.2.33-1.2,1.43v2.92h-.99v-5.08h.78l.12.98Z" style="fill:#32406d;"/><path d="m197.79,264.73c.24-.13.32-.4.38-.77l.86.3c-.08.48-.43.81-.85.91.15.26.23.58.23.96,0,1.18-.95,1.76-2.09,1.76-.25,0-.52-.03-.66-.09-.25.13-.34.31-.34.53,0,.29.19.42.54.42h1.24c1.16,0,1.77.51,1.77,1.42,0,1.33-1.43,1.68-2.76,1.68-1.12,0-2.22-.29-2.22-1.33,0-.66.47-1.1,1.31-1.17-.46-.06-.7-.39-.7-.79s.21-.75.75-.89c-.62-.28-.99-.79-.99-1.54,0-1.14.84-1.8,2.06-1.8.6,0,1.1.13,1.47.41Zm-1.57,6.41c1.03,0,1.71-.2,1.71-.84,0-.38-.21-.67-.86-.67h-1.1c-.73,0-1.13.24-1.13.77s.58.74,1.39.74Zm.1-3.96c.67,0,1.11-.35,1.11-1.07s-.44-1.08-1.11-1.07c-.67,0-1.07.38-1.07,1.07,0,.64.39,1.07,1.07,1.07Z" style="fill:#32406d;"/><path d="m202.84,262.16c.38,0,.69.26.69.66,0,.37-.31.66-.69.66-.35,0-.66-.29-.66-.66,0-.4.31-.66.66-.66Zm.51,2.29v5.08h-.99v-5.08h.99Z" style="fill:#32406d;"/><path d="m205.31,268.12c.08.58.5.84,1.1.84s1.01-.22,1.01-.68c0-.42-.19-.65-.79-.8l-.75-.18c-.92-.22-1.28-.69-1.28-1.44,0-1.14.95-1.53,1.91-1.53,1.07,0,1.73.39,1.83,1.38l-.97.11c-.03-.51-.34-.74-.92-.74s-.89.25-.89.68c0,.36.14.59.69.71l.7.17c.9.22,1.41.64,1.41,1.53,0,1.09-.86,1.5-1.97,1.5s-1.83-.35-1.97-1.28l.88-.26Z" style="fill:#32406d;"/><path d="m212.28,269.36c-.33.2-.76.3-1.23.3-.91,0-1.46-.48-1.46-1.43v-2.99h-.74v-.79h.74v-1.08l1-.12v1.2h1.51v.79h-1.52v2.79c0,.55.25.78.67.78.33,0,.56-.09.85-.28l.19.83Z" style="fill:#32406d;"/><path d="m216.32,269.53h-.65v-7.35h.99v3.23c.25-.76.92-1.09,1.63-1.09,1.24,0,2,.9,2,2.54,0,1.55-.8,2.79-2.18,2.79-.88,0-1.35-.4-1.53-.87l-.26.74Zm.34-1.97c0,.98.66,1.35,1.23,1.35.76,0,1.39-.62,1.39-1.96,0-1.22-.49-1.82-1.28-1.82-.73,0-1.34.54-1.34,1.47v.95Z" style="fill:#32406d;"/><path d="m224.65,268.05l.87.23c-.21,1.02-1.07,1.38-2.04,1.38-1.35,0-2.27-.93-2.27-2.63s.9-2.71,2.32-2.71c1.31,0,2.01.9,2.01,2.17,0,.29-.04.55-.1.7h-3.28c.04.99.51,1.68,1.36,1.68.56,0,.94-.22,1.11-.83Zm-.08-1.57c.01-.08.01-.14.01-.21,0-.65-.42-1.17-1.1-1.17-.73,0-1.19.5-1.29,1.38h2.38Z" style="fill:#32406d;"/><path d="m229.65,265.45c-.12-.02-.29-.04-.45-.04-.71,0-1.41.56-1.41,1.55v2.57h-.99v-5.08h.84l.12,1.38c.2-.91.84-1.54,1.97-1.48l-.08,1.11Z" style="fill:#32406d;"/><path d="m233.58,268.05l.87.23c-.21,1.02-1.07,1.38-2.04,1.38-1.35,0-2.27-.93-2.27-2.63s.9-2.71,2.32-2.71c1.31,0,2.01.9,2.01,2.17,0,.29-.04.55-.1.7h-3.28c.04.99.51,1.68,1.36,1.68.56,0,.94-.22,1.11-.83Zm-.08-1.57c.01-.08.01-.14.01-.21,0-.65-.42-1.17-1.1-1.17-.73,0-1.19.5-1.29,1.38h2.38Z" style="fill:#32406d;"/><path d="m236.22,262.16c.38,0,.69.26.69.66,0,.37-.31.66-.69.66-.35,0-.66-.29-.66-.66,0-.4.31-.66.66-.66Zm.51,2.29v5.08h-.99v-5.08h.99Z" style="fill:#32406d;"/><path d="m241.06,269.36c-.33.2-.76.3-1.23.3-.91,0-1.46-.48-1.46-1.43v-2.99h-.74v-.79h.74v-1.08l1-.12v1.2h1.51v.79h-1.52v2.79c0,.55.25.78.67.78.33,0,.56-.09.85-.28l.19.83Z" style="fill:#32406d;"/><path d="m242.4,268.12c.08.58.5.84,1.1.84s1.01-.22,1.01-.68c0-.42-.19-.65-.79-.8l-.75-.18c-.92-.22-1.28-.69-1.28-1.44,0-1.14.95-1.53,1.91-1.53,1.07,0,1.73.39,1.83,1.38l-.97.11c-.03-.51-.34-.74-.92-.74s-.89.25-.89.68c0,.36.14.59.69.71l.7.17c.9.22,1.41.64,1.41,1.53,0,1.09-.86,1.5-1.97,1.5s-1.83-.35-1.97-1.28l.88-.26Z" style="fill:#32406d;"/></g><g><path d="m118.26,277.16c.38,0,.69.26.69.66,0,.37-.31.66-.69.66-.35,0-.66-.29-.66-.66,0-.4.31-.66.66-.66Zm.51,2.29v5.08h-.99v-5.08h.99Z" style="fill:#32406d;"/><path d="m121.25,280.43c.27-.76.86-1.1,1.63-1.1.84,0,1.54.46,1.54,1.57v3.63h-.99v-3.33c0-.63-.29-1.01-.89-1.01s-1.2.33-1.2,1.43v2.92h-.99v-5.08h.78l.12.98Z" style="fill:#32406d;"/><path d="m131.67,277.18h1v7.35h-.88l-.11-.88c-.29.77-.89,1.01-1.62,1.01-1.07,0-2.01-.87-2.01-2.58s.83-2.75,2.28-2.75c.65,0,1.2.36,1.34.8v-2.95Zm.01,4.2c0-.9-.68-1.29-1.27-1.29-.75,0-1.36.52-1.36,1.95,0,1.2.53,1.84,1.35,1.84.56,0,1.28-.45,1.28-1.38v-1.12Z" style="fill:#32406d;"/><path d="m137.35,283.06l.87.23c-.21,1.02-1.07,1.38-2.04,1.38-1.35,0-2.27-.93-2.27-2.63s.9-2.71,2.32-2.71c1.31,0,2.01.9,2.01,2.17,0,.29-.04.55-.1.7h-3.28c.04.99.51,1.68,1.36,1.68.56,0,.94-.22,1.11-.83Zm-.08-1.57c.01-.08.01-.14.01-.21,0-.65-.42-1.17-1.1-1.17-.73,0-1.19.5-1.29,1.38h2.38Z" style="fill:#32406d;"/><path d="m142.36,280.45c-.12-.02-.29-.04-.45-.04-.71,0-1.41.56-1.41,1.55v2.57h-.99v-5.08h.84l.12,1.38c.2-.91.84-1.54,1.97-1.48l-.08,1.11Z" style="fill:#32406d;"/><path d="m145.98,284.53v-6.48h3.82v.88h-2.81v1.98h2.46v.88h-2.46v2.74h-1.01Z" style="fill:#32406d;"/><path d="m153.69,280.45c-.12-.02-.29-.04-.45-.04-.71,0-1.41.56-1.41,1.55v2.57h-.99v-5.08h.84l.12,1.38c.2-.91.84-1.54,1.97-1.48l-.08,1.11Z" style="fill:#32406d;"/><path d="m158.2,283.33c0,.38.18.47.37.47.12,0,.21-.02.29-.05v.77c-.14.05-.32.09-.54.09-.58,0-.96-.24-1.04-.81-.26.64-.86.87-1.51.87-.89,0-1.52-.51-1.52-1.38,0-1.12.87-1.77,2.95-1.67v-.63c0-.63-.37-.87-.91-.87s-.88.29-.92.81l-.95-.14c.08-1.08,1.02-1.46,1.96-1.46.99,0,1.83.4,1.83,1.56v2.44Zm-1-1.07c-1.36-.03-1.96.28-1.96.91,0,.42.28.74.81.74s1.14-.32,1.14-.91v-.74Z" style="fill:#32406d;"/><path d="m163.11,279.73c.24-.13.32-.4.38-.77l.86.3c-.08.48-.43.81-.85.91.15.26.23.58.23.96,0,1.18-.95,1.76-2.09,1.76-.25,0-.52-.03-.66-.09-.25.13-.34.31-.34.53,0,.29.19.42.54.42h1.24c1.16,0,1.77.51,1.77,1.42,0,1.33-1.43,1.68-2.76,1.68-1.12,0-2.22-.29-2.22-1.33,0-.66.47-1.1,1.31-1.17-.46-.06-.7-.39-.7-.79s.21-.75.75-.89c-.62-.28-.99-.79-.99-1.54,0-1.14.84-1.8,2.06-1.8.6,0,1.1.13,1.47.41Zm-1.57,6.41c1.03,0,1.71-.2,1.71-.84,0-.38-.21-.67-.86-.67h-1.1c-.73,0-1.13.24-1.13.77s.58.74,1.39.74Zm.1-3.96c.67,0,1.11-.35,1.11-1.07s-.44-1.08-1.11-1.07c-.67,0-1.07.38-1.07,1.07,0,.64.39,1.07,1.07,1.07Z" style="fill:#32406d;"/><path d="m168.12,283.06l.87.23c-.21,1.02-1.07,1.38-2.04,1.38-1.35,0-2.27-.93-2.27-2.63s.9-2.71,2.32-2.71c1.31,0,2.01.9,2.01,2.17,0,.29-.04.55-.1.7h-3.28c.04.99.51,1.68,1.36,1.68.56,0,.94-.22,1.11-.83Zm-.08-1.57c.01-.08.01-.14.01-.21,0-.65-.42-1.17-1.1-1.17-.73,0-1.19.5-1.29,1.38h2.38Z" style="fill:#32406d;"/><path d="m175.81,283.06l.87.23c-.21,1.02-1.07,1.38-2.04,1.38-1.35,0-2.27-.93-2.27-2.63s.9-2.71,2.32-2.71c1.31,0,2.01.9,2.01,2.17,0,.29-.04.55-.1.7h-3.28c.04.99.51,1.68,1.36,1.68.56,0,.94-.22,1.11-.83Zm-.08-1.57c.01-.08.01-.14.01-.21,0-.65-.42-1.17-1.1-1.17-.73,0-1.19.5-1.29,1.38h2.38Z" style="fill:#32406d;"/><path d="m178.87,280.43c.27-.76.86-1.1,1.63-1.1.84,0,1.54.46,1.54,1.57v3.63h-.99v-3.33c0-.63-.29-1.01-.89-1.01s-1.2.33-1.2,1.43v2.92h-.99v-5.08h.78l.12.98Z" style="fill:#32406d;"/><path d="m186.31,284.37c-.33.2-.76.3-1.23.3-.91,0-1.46-.48-1.46-1.43v-2.99h-.74v-.79h.74v-1.08l1-.12v1.2h1.51v.79h-1.52v2.79c0,.55.25.78.67.78.33,0,.56-.09.85-.28l.19.83Z" style="fill:#32406d;"/><path d="m188.26,280.42c.24-.73.77-1.09,1.54-1.09.84,0,1.54.46,1.54,1.57v3.63h-.99v-3.34c0-.62-.29-1-.89-1s-1.2.32-1.2,1.43v2.92h-.99v-7.35h.99v3.23Z" style="fill:#32406d;"/><path d="m196.43,283.33c0,.38.18.47.37.47.12,0,.21-.02.29-.05v.77c-.14.05-.32.09-.54.09-.58,0-.96-.24-1.04-.81-.26.64-.86.87-1.51.87-.89,0-1.52-.51-1.52-1.38,0-1.12.87-1.77,2.95-1.67v-.63c0-.63-.37-.87-.91-.87s-.88.29-.92.81l-.95-.14c.08-1.08,1.02-1.46,1.96-1.46.99,0,1.83.4,1.83,1.56v2.44Zm-1-1.07c-1.36-.03-1.96.28-1.96.91,0,.42.28.74.81.74s1.14-.32,1.14-.91v-.74Z" style="fill:#32406d;"/><path d="m199.85,284.53c-.26.07-.44.09-.62.09-.64,0-1.17-.34-1.17-1.1v-6.34h.99v6.13c0,.32.19.45.45.45.14,0,.24-.02.35-.05v.83Z" style="fill:#32406d;"/><path d="m203.74,284.37c-.33.2-.76.3-1.23.3-.91,0-1.46-.48-1.46-1.43v-2.99h-.74v-.79h.74v-1.08l1-.12v1.2h1.51v.79h-1.52v2.79c0,.55.25.78.67.78.33,0,.56-.09.85-.28l.19.83Z" style="fill:#32406d;"/><path d="m207.75,283.06l.87.23c-.21,1.02-1.07,1.38-2.04,1.38-1.35,0-2.27-.93-2.27-2.63s.9-2.71,2.32-2.71c1.31,0,2.01.9,2.01,2.17,0,.29-.04.55-.1.7h-3.28c.04.99.51,1.68,1.36,1.68.56,0,.94-.22,1.11-.83Zm-.08-1.57c.01-.08.01-.14.01-.21,0-.65-.42-1.17-1.1-1.17-.73,0-1.19.5-1.29,1.38h2.38Z" style="fill:#32406d;"/><path d="m210.81,280.43c.27-.76.86-1.1,1.63-1.1.84,0,1.54.46,1.54,1.57v3.63h-.99v-3.33c0-.63-.29-1.01-.89-1.01s-1.2.33-1.2,1.43v2.92h-.99v-5.08h.78l.12.98Z" style="fill:#32406d;"/><path d="m216.29,283.1c.42,0,.75.32.75.75s-.33.75-.75.75-.75-.33-.75-.75.33-.75.75-.75Z" style="fill:#32406d;"/></g><g><path d="m18.16,303.38h-1.69l-.39,1.13h-.67l1.51-4.12h.85l1.49,4.12h-.69l-.4-1.13Zm-1.51-.53h1.32l-.31-.92c-.23-.64-.32-1.09-.32-1.09h-.03s-.1.43-.32,1.08l-.33.93Z" style="fill:#32406d;"/><path d="m20.24,304.51h-.41v-4.68h.63v2.06c.16-.48.59-.69,1.04-.69.79,0,1.27.57,1.27,1.62,0,.99-.51,1.78-1.39,1.78-.56,0-.86-.25-.97-.55l-.17.47Zm.22-1.25c0,.62.42.86.78.86.48,0,.88-.39.88-1.25,0-.78-.31-1.16-.81-1.16-.46,0-.85.34-.85.94v.6Z" style="fill:#32406d;"/><path d="m23.98,304.51h-.41v-4.68h.63v2.06c.16-.48.59-.69,1.04-.69.79,0,1.27.57,1.27,1.62,0,.99-.51,1.78-1.39,1.78-.56,0-.86-.25-.97-.55l-.17.47Zm.22-1.25c0,.62.42.86.78.86.48,0,.88-.39.88-1.25,0-.78-.32-1.16-.81-1.16-.46,0-.85.34-.85.94v.6Z" style="fill:#32406d;"/><path d="m27.74,303.6c.27,0,.48.2.48.48s-.21.48-.48.48-.48-.21-.48-.48.21-.48.48-.48Z" style="fill:#32406d;"/><path d="m33.13,304.51l-1.3-1.81h-.32v1.81h-.64v-4.12h.64v1.75h.34l1.2-1.75h.76l-1.44,2,1.54,2.12h-.79Z" style="fill:#32406d;"/><path d="m34.2,302.87c0-1.1.58-1.67,1.47-1.67s1.48.57,1.48,1.67-.58,1.72-1.48,1.72-1.47-.62-1.47-1.72Zm.78-2.95c.23,0,.42.18.42.42s-.19.41-.42.41-.41-.17-.41-.41.19-.42.41-.42Zm-.15,2.96c0,.81.29,1.22.85,1.22s.85-.41.85-1.22-.29-1.17-.85-1.17-.85.38-.85,1.17Zm1.53-2.95c.24,0,.42.17.42.42,0,.23-.18.41-.42.41-.22,0-.41-.18-.41-.41,0-.25.19-.42.41-.42Z" style="fill:#32406d;"/><path d="m38.36,304.51h-.41v-4.68h.63v2.06c.16-.48.59-.69,1.04-.69.79,0,1.27.57,1.27,1.62,0,.99-.51,1.78-1.39,1.78-.56,0-.86-.25-.97-.55l-.17.47Zm.22-1.25c0,.62.42.86.78.86.48,0,.88-.39.88-1.25,0-.78-.32-1.16-.81-1.16-.46,0-.85.34-.85.94v.6Z" style="fill:#32406d;"/><path d="m42.78,304.51c-.17.04-.28.06-.39.06-.41,0-.74-.22-.74-.7v-4.03h.63v3.9c0,.2.12.29.29.29.09,0,.15-.01.22-.04v.53Z" style="fill:#32406d;"/><path d="m45.41,303.57l.55.15c-.13.65-.68.88-1.3.88-.86,0-1.44-.6-1.44-1.67s.57-1.72,1.48-1.72c.83,0,1.28.57,1.28,1.38,0,.18-.03.35-.06.45h-2.09c.03.63.32,1.07.87,1.07.36,0,.6-.14.71-.53Zm-.05-1s0-.09,0-.13c0-.41-.27-.74-.7-.74-.46,0-.76.32-.82.88h1.51Z" style="fill:#32406d;"/><path d="m48.6,301.91c-.08-.01-.18-.03-.29-.03-.46,0-.9.36-.9.99v1.64h-.63v-3.24h.53l.08.88c.13-.58.53-.98,1.25-.95l-.05.71Z" style="fill:#32406d;"/><path d="m53.68,304.6l-.51-.54c-.36.36-.83.53-1.37.53-.74,0-1.32-.34-1.32-1.1,0-.53.28-.96.94-1.2l-.18-.19c-.19-.2-.39-.47-.39-.85,0-.6.46-.95,1.12-.95s1.12.37,1.12.95c0,.5-.26.83-.83,1.06l.9.92c.09-.18.15-.48.16-.78l.55.15c-.04.34-.14.73-.33,1l.59.58-.45.41Zm-1.84-.49c.43,0,.75-.15.98-.4l-1.1-1.11c-.39.17-.61.4-.61.85,0,.41.32.66.73.66Zm-.39-2.89c0,.2.1.36.29.55l.24.25c.39-.17.52-.41.52-.76s-.18-.52-.53-.52c-.31,0-.52.19-.52.48Z" style="fill:#32406d;"/><path d="m57.32,302.99c.2.62.27,1.04.27,1.04h.03s.06-.41.25-1.04l.83-2.62h.68l-1.37,4.12h-.85l-1.35-4.12h.69l.83,2.61Z" style="fill:#32406d;"/><path d="m62.12,303.74c0,.25.11.3.24.3.08,0,.13-.01.18-.04v.49c-.09.04-.2.06-.34.06-.37,0-.61-.15-.67-.52-.17.41-.55.55-.96.55-.57,0-.97-.32-.97-.88,0-.71.55-1.13,1.88-1.07v-.4c0-.4-.24-.55-.58-.55s-.56.18-.59.52l-.6-.09c.05-.69.65-.93,1.25-.93.63,0,1.16.25,1.16.99v1.55Zm-.64-.68c-.87-.02-1.25.17-1.25.58,0,.27.17.47.52.47s.73-.2.73-.58v-.47Zm-.84-2.26l.52-1.02h.85l-.81,1.02h-.55Z" style="fill:#32406d;"/><path d="m65.02,301.91c-.08-.01-.18-.03-.29-.03-.46,0-.9.36-.9.99v1.64h-.63v-3.24h.53l.08.88c.13-.58.53-.98,1.25-.95l-.05.71Z" style="fill:#32406d;"/><path d="m66.27,301.89c.18-.48.55-.7,1.04-.7.53,0,.98.29.98,1v2.31h-.63v-2.12c0-.4-.18-.64-.57-.64s-.76.21-.76.91v1.86h-.63v-3.24h.5l.08.62Z" style="fill:#32406d;"/><path d="m71.53,303.74c0,.25.11.3.24.3.08,0,.13-.01.18-.04v.49c-.09.04-.2.06-.34.06-.37,0-.61-.15-.67-.52-.17.41-.55.55-.96.55-.57,0-.97-.32-.97-.88,0-.71.55-1.13,1.88-1.07v-.4c0-.4-.24-.55-.58-.55s-.56.18-.59.52l-.6-.09c.05-.69.65-.93,1.25-.93.63,0,1.16.25,1.16.99v1.55Zm-.64-.68c-.87-.02-1.25.17-1.25.58,0,.27.17.47.52.47s.73-.2.73-.58v-.47Z" style="fill:#32406d;"/><path d="m72.92,299.81c.25,0,.44.17.44.42,0,.24-.2.42-.44.42-.22,0-.42-.18-.42-.42,0-.25.2-.42.42-.42Zm.32,1.46v3.24h-.63v-3.24h.63Z" style="fill:#32406d;"/><path d="m74.15,305.31v-.3c.34-.05.57-.2.57-.52-.29.06-.5-.12-.5-.39s.2-.43.47-.43c.29,0,.53.23.53.62,0,.69-.42,1-1.06,1.03Z" style="fill:#32406d;"/><path d="m80.13,304.51h-2.6v-.49c1.27-.62,1.81-1.17,1.81-1.82,0-.41-.25-.61-.61-.61s-.59.22-.63.69l-.58-.13c.1-.82.68-1.09,1.27-1.09.64,0,1.19.32,1.19,1.11,0,.9-.79,1.54-1.67,1.79v.03h1.81v.53Z" style="fill:#32406d;"/><path d="m80.74,302.83c0-.98.62-1.77,1.72-1.77s1.71.79,1.71,1.77-.62,1.76-1.71,1.76-1.72-.78-1.72-1.76Zm.63,0c0,.72.38,1.23,1.09,1.23s1.08-.5,1.08-1.23-.38-1.23-1.08-1.23-1.09.53-1.09,1.23Z" style="fill:#32406d;"/><path d="m85.61,304.51v-2.77l-.97.17v-.52l1.6-.31v3.42h-.62Z" style="fill:#32406d;"/><path d="m87.64,304.42c.13.36.39.57.81.57.95,0,1.17-1.08,1.17-2.12h-.03c-.1.62-.53.91-1.05.91-.83,0-1.32-.6-1.32-1.32,0-.76.48-1.41,1.42-1.41s1.53.64,1.53,2c0,1.54-.62,2.42-1.75,2.42-.67,0-1.09-.28-1.3-.79l.51-.26Zm.99-2.86c-.47,0-.83.32-.83.85s.36.88.83.88c.44,0,.81-.33.81-.88s-.36-.85-.81-.85Z" style="fill:#32406d;"/></g><g><path d="m16.83,205.75c.12.54.51.74.95.74.35,0,.59-.12.59-.35,0-.25-.2-.35-.6-.45l-.75-.18c-.88-.23-1.31-.74-1.31-1.53,0-1.32,1.06-1.68,2.13-1.68,1.25,0,2,.45,2.07,1.45l-1.52.22c-.06-.37-.26-.47-.63-.47-.26,0-.46.12-.46.33,0,.22.15.33.43.39l.73.14c1.08.22,1.54.83,1.54,1.67,0,1.16-.96,1.61-2.23,1.61s-2.05-.35-2.26-1.32l1.32-.56Z" style="fill:#32406d;"/><path d="m22.61,209.73h-1.63v-7.32h1.41l.21.98c.3-.81.94-1.1,1.66-1.1,1.24,0,1.95.94,1.95,2.54,0,1.71-.8,2.79-2.18,2.79-.77,0-1.29-.37-1.42-.8v2.9Zm-.01-4.36c0,.84.5,1.09.89,1.09.58,0,1.08-.48,1.08-1.49s-.39-1.39-.99-1.39c-.47,0-.98.4-.98,1.17v.62Z" style="fill:#32406d;"/><path d="m30.23,205.74l1.39.49c-.29,1.02-1.22,1.4-2.22,1.4-1.49,0-2.52-.96-2.52-2.58,0-1.76.96-2.75,2.53-2.75,1.47,0,2.19.96,2.19,2.28,0,.21-.02.43-.07.66h-3.08c.02.7.35,1.14.97,1.14.34,0,.65-.12.81-.64Zm-.2-1.36c.01-.06.01-.1.01-.15,0-.42-.22-.73-.69-.73s-.81.39-.86.88h1.54Z" style="fill:#32406d;"/><path d="m34.8,205.45c-.41.54-.71.8-.71.8v.04s.32-.05.86-.05h1.49v1.25h-4.16v-1l1.45-2.01c.4-.54.72-.8.72-.8v-.04s-.32.05-.86.05h-1.23v-1.28h3.98v1.01l-1.53,2.02Z" style="fill:#32406d;"/><path d="m38.23,199.97c.57,0,1,.3,1,.91s-.43.9-1,.9c-.53,0-.97-.31-.97-.9s.44-.91.97-.91Zm.81,2.44v5.08h-1.63v-5.08h1.63Z" style="fill:#32406d;"/><path d="m39.82,203.67v-1.25h.75v-.27c0-1.6,1.25-2.08,2.37-2.08.68,0,1.21.15,1.63.37l-.56,1.31c-.25-.19-.63-.31-.95-.31-.4,0-.86.14-.86.76v.22h3.11v5.08h-1.63v-3.83h-1.49v3.83h-1.63v-3.83h-.75Z" style="fill:#32406d;"/><path d="m47.45,205.75c.12.54.51.74.95.74.35,0,.59-.12.59-.35,0-.25-.2-.35-.6-.45l-.75-.18c-.88-.23-1.31-.74-1.31-1.53,0-1.32,1.06-1.68,2.13-1.68,1.25,0,2,.45,2.07,1.45l-1.52.22c-.06-.37-.26-.47-.63-.47-.26,0-.46.12-.46.33,0,.22.15.33.43.39l.73.14c1.08.22,1.54.83,1.54,1.67,0,1.16-.96,1.61-2.23,1.61s-2.05-.35-2.26-1.32l1.32-.56Z" style="fill:#32406d;"/><path d="m56,206.1c-.2,1.02-1.09,1.53-2.2,1.53-1.52,0-2.52-.97-2.52-2.65s1-2.68,2.52-2.68c1.24,0,2.05.68,2.12,1.69l-1.36.41c-.07-.52-.29-.83-.76-.83-.61,0-.94.52-.94,1.38,0,.92.34,1.43.95,1.43.35,0,.62-.18.74-.75l1.45.47Z" style="fill:#32406d;"/><path d="m58.45,203.38c.28-.76.83-1.09,1.61-1.09s1.47.46,1.47,1.62v3.59h-1.63v-2.95c0-.54-.11-.89-.62-.89-.42,0-.84.23-.84,1.08v2.76h-1.63v-7.35h1.63v3.23Z" style="fill:#32406d;"/></g><g style="clip-path:url(#f);"><path d="m15.74,149.56c2.81-3.89,5.38-7.71,7.87-11.4,12.57-18.65,22.51-33.39,46.54-33.39,12.7,0,26.77,15.95,41.67,32.84,19.15,21.71,40.86,46.31,66.33,46.31s34.13-9.37,42.52-17.65c7.23-7.12,14.06-13.85,29.48-13.85,8.92,0,17.2,4.22,25.97,8.69,17.1,8.72,36.49,18.6,64.67-3.55" style="fill:none; stroke:#ef4d7f;"/></g></svg>