<?xml version="1.0" encoding="UTF-8"?><svg id="a" xmlns="http://www.w3.org/2000/svg" xmlns:xlink="http://www.w3.org/1999/xlink" viewBox="0 0 343 288"><defs><clipPath id="b"><rect x=".93" width="343.14" height="308" style="fill:none;"/></clipPath><clipPath id="c"><rect x=".93" width="343.14" height="308" style="fill:none;"/></clipPath></defs><g style="clip-path:url(#b);"><line x1="9.92" y1="72" x2="335.05" y2="72" style="fill:none; stroke:#fdf0f3; stroke-width:10px;"/><line x1="9.92" y1="212" x2="335.05" y2="212" style="fill:none; stroke:#fdf0f3; stroke-width:10px;"/></g><g><path d="m14.66,88.58c0,.33.13.46.36.46.12,0,.23-.04.33-.09v1.17c-.23.15-.54.21-.92.21-.67,0-1.08-.24-1.27-.79-.23.63-.76.83-1.47.83-.9,0-1.49-.53-1.49-1.41,0-1.13.92-1.74,2.84-1.63v-.43c0-.39-.12-.65-.48-.65s-.52.27-.54.71l-1.64-.31c.08-1.08.98-1.63,2.22-1.63,1.36,0,2.06.59,2.06,1.72v1.84Zm-1.62-.41c-.92-.03-1.21.23-1.21.62,0,.25.19.43.48.43.33,0,.73-.14.73-.61v-.44Z" style="fill:#363b68;"/><path d="m17.34,90.23h-1.16v-7.35h1.63v3.2c.29-.77.92-1.06,1.65-1.06,1.24,0,1.95.94,1.95,2.54,0,1.71-.79,2.79-2.17,2.79-.87,0-1.35-.38-1.5-.87l-.41.74Zm.46-2.12c0,.84.5,1.09.89,1.09.58,0,1.08-.48,1.08-1.49s-.39-1.39-.99-1.39c-.47,0-.98.4-.98,1.11v.67Z" style="fill:#363b68;"/><path d="m23.22,88.48c.12.54.51.74.95.74.35,0,.59-.12.59-.35,0-.25-.2-.35-.6-.45l-.75-.18c-.88-.23-1.31-.74-1.31-1.53,0-1.32,1.06-1.68,2.13-1.68,1.25,0,2,.45,2.07,1.45l-1.52.22c-.06-.37-.26-.47-.63-.47-.26,0-.46.12-.46.33,0,.22.15.33.43.39l.73.14c1.08.22,1.54.83,1.54,1.67,0,1.16-.96,1.61-2.23,1.61s-2.05-.35-2.26-1.32l1.32-.56Z" style="fill:#363b68;"/><path d="m30.98,90.02c-.46.23-1.01.34-1.67.34-1.03,0-1.74-.47-1.74-1.71v-2.25h-.74v-1.25h.75v-1.08l1.63-.19v1.26h1.51v1.25h-1.52v1.88c0,.53.21.69.6.69.32,0,.6-.12.9-.33l.28,1.38Z" style="fill:#363b68;"/><path d="m35.31,86.83c-.21-.07-.36-.1-.62-.1-.53,0-1.27.2-1.27,1.25v2.24h-1.63v-5.08h1.42l.2,1.41c.22-.88.68-1.61,2.09-1.52l-.2,1.79Z" style="fill:#363b68;"/><path d="m40.35,88.58c0,.33.13.46.36.46.12,0,.23-.04.33-.09v1.17c-.23.15-.54.21-.92.21-.67,0-1.08-.24-1.27-.79-.23.63-.76.83-1.47.83-.9,0-1.49-.53-1.49-1.41,0-1.13.92-1.74,2.84-1.63v-.43c0-.39-.12-.65-.48-.65s-.52.27-.54.71l-1.64-.31c.08-1.08.98-1.63,2.22-1.63,1.36,0,2.06.59,2.06,1.72v1.84Zm-1.62-.41c-.92-.03-1.21.23-1.21.62,0,.25.19.43.48.43.33,0,.73-.14.73-.61v-.44Z" style="fill:#363b68;"/><path d="m46.25,88.83c-.2,1.02-1.09,1.53-2.2,1.53-1.52,0-2.52-.97-2.52-2.65s1-2.68,2.52-2.68c1.24,0,2.05.68,2.12,1.69l-1.36.41c-.07-.52-.29-.83-.76-.83-.61,0-.94.52-.94,1.38,0,.92.34,1.43.95,1.43.35,0,.62-.18.74-.75l1.45.47Z" style="fill:#363b68;"/><path d="m50.68,90.02c-.46.23-1.01.34-1.67.34-1.03,0-1.74-.47-1.74-1.71v-2.25h-.74v-1.25h.75v-1.08l1.63-.19v1.26h1.51v1.25h-1.52v1.88c0,.53.21.69.6.69.32,0,.6-.12.9-.33l.28,1.38Z" style="fill:#363b68;"/></g><g><path d="m124.59,15.23v-5.05h-1.73v-1.43h5.13v1.43h-1.76v5.05h-1.64Z" style="fill:#363b68;"/><path d="m127.98,12.68c0-1.73,1-2.65,2.51-2.65s2.51.92,2.51,2.65-1,2.68-2.51,2.68-2.51-.97-2.51-2.68Zm1.61.01c0,.98.29,1.41.9,1.41s.9-.43.9-1.41c0-.92-.3-1.36-.9-1.36s-.9.44-.9,1.36Z" style="fill:#363b68;"/><path d="m133.66,12.68c0-1.73,1-2.65,2.51-2.65s2.51.92,2.51,2.65-1,2.68-2.51,2.68-2.51-.97-2.51-2.68Zm1.61.01c0,.98.29,1.41.9,1.41s.9-.43.9-1.41c0-.92-.3-1.36-.9-1.36s-.9.44-.9,1.36Z" style="fill:#363b68;"/><path d="m141.77,12.68c0-1.73,1-2.65,2.51-2.65s2.51.92,2.51,2.65-1,2.68-2.51,2.68-2.51-.97-2.51-2.68Zm1.61.01c0,.98.29,1.41.9,1.41s.9-.43.9-1.41c0-.92-.3-1.36-.9-1.36s-.9.44-.9,1.36Z" style="fill:#363b68;"/><path d="m149.4,17.46h-1.63v-7.32h1.41l.21.98c.3-.81.94-1.1,1.66-1.1,1.24,0,1.95.94,1.95,2.54,0,1.71-.8,2.79-2.18,2.79-.77,0-1.29-.37-1.42-.8v2.9Zm-.01-4.36c0,.84.5,1.09.89,1.09.58,0,1.08-.48,1.08-1.49s-.39-1.39-.99-1.39c-.47,0-.98.4-.98,1.17v.62Z" style="fill:#363b68;"/><path d="m157.01,13.47l1.39.5c-.29,1.02-1.22,1.4-2.22,1.4-1.49,0-2.52-.96-2.52-2.58,0-1.76.96-2.75,2.53-2.75,1.47,0,2.19.96,2.19,2.28,0,.21-.02.43-.07.66h-3.08c.02.7.35,1.14.97,1.14.34,0,.65-.12.81-.64Zm-.2-1.36c.01-.06.01-.1.01-.15,0-.42-.22-.73-.69-.73s-.81.39-.86.88h1.54Z" style="fill:#363b68;"/><path d="m160.99,11.13c.28-.76.85-1.1,1.63-1.1s1.47.46,1.47,1.62v3.59h-1.63v-2.95c0-.54-.11-.89-.62-.89-.42,0-.84.24-.84,1.09v2.75h-1.63v-5.08h1.41l.2.98Z" style="fill:#363b68;"/><path d="m165.36,11.69h2.79v1.38h-2.79v-1.38Z" style="fill:#363b68;"/><path d="m172.5,13.47l1.39.5c-.29,1.02-1.22,1.4-2.22,1.4-1.49,0-2.52-.96-2.52-2.58,0-1.76.96-2.75,2.53-2.75,1.47,0,2.19.96,2.19,2.28,0,.21-.02.43-.07.66h-3.08c.02.7.35,1.14.97,1.14.34,0,.65-.12.81-.64Zm-.2-1.36c.01-.06.01-.1.01-.15,0-.42-.22-.73-.69-.73s-.81.39-.86.88h1.54Z" style="fill:#363b68;"/><path d="m176.48,11.13c.28-.76.85-1.1,1.63-1.1s1.47.46,1.47,1.62v3.59h-1.63v-2.95c0-.54-.11-.89-.62-.89-.42,0-.84.24-.84,1.09v2.75h-1.63v-5.08h1.41l.2.98Z" style="fill:#363b68;"/><path d="m184.12,7.88h1.63v7.35h-1.42l-.2-.88c-.17.77-.8,1.01-1.57,1.01-1.16,0-2.04-.9-2.04-2.55,0-1.74.81-2.78,2.27-2.78.65,0,1.19.29,1.33.78v-2.93Zm.01,4.32c0-.69-.42-.98-.91-.98s-1.06.39-1.06,1.5c0,.89.4,1.4,1.03,1.4.48,0,.94-.36.94-1.03v-.88Z" style="fill:#363b68;"/><path d="m190.09,13.47l1.39.5c-.29,1.02-1.22,1.4-2.22,1.4-1.49,0-2.52-.96-2.52-2.58,0-1.76.96-2.75,2.53-2.75,1.47,0,2.19.96,2.19,2.28,0,.21-.02.43-.07.66h-3.08c.02.7.35,1.14.97,1.14.34,0,.65-.12.81-.64Zm-.2-1.36c.01-.06.01-.1.01-.15,0-.42-.22-.73-.69-.73s-.81.39-.86.88h1.54Z" style="fill:#363b68;"/><path d="m195.73,7.88h1.63v7.35h-1.42l-.2-.88c-.17.77-.8,1.01-1.57,1.01-1.16,0-2.04-.9-2.04-2.55,0-1.74.81-2.78,2.27-2.78.65,0,1.19.29,1.33.78v-2.93Zm.01,4.32c0-.69-.42-.98-.91-.98s-1.06.39-1.06,1.5c0,.89.4,1.4,1.03,1.4.48,0,.93-.36.93-1.03v-.88Z" style="fill:#363b68;"/><path d="m199.62,10.08c.59,0,1.03.44,1.03,1.03,0,.55-.44.99-1.03.99-.55,0-.99-.44-.99-.99,0-.59.44-1.03.99-1.03Zm0,3.18c.59,0,1.03.44,1.03,1.03,0,.55-.44.99-1.03.99-.55,0-.99-.44-.99-.99,0-.59.44-1.03.99-1.03Z" style="fill:#363b68;"/></g><g><path d="m96.25,30.23v-5.6h-1.88v-.88h4.8v.88h-1.89v5.6h-1.02Z" style="fill:#363b68;"/><path d="m99.22,27.66c0-1.73.91-2.63,2.31-2.63s2.32.9,2.32,2.63-.91,2.71-2.32,2.71-2.31-.97-2.31-2.71Zm.98.01c0,1.28.45,1.91,1.33,1.91s1.34-.64,1.34-1.91-.46-1.84-1.34-1.84-1.33.59-1.33,1.84Z" style="fill:#363b68;"/><path d="m104.77,27.66c0-1.73.91-2.63,2.31-2.63s2.32.9,2.32,2.63-.91,2.71-2.32,2.71-2.31-.97-2.31-2.71Zm.98.01c0,1.28.45,1.91,1.33,1.91s1.34-.64,1.34-1.91-.46-1.84-1.34-1.84-1.33.59-1.33,1.84Z" style="fill:#363b68;"/><path d="m118.56,25.03c.86,0,1.51.46,1.51,1.53v3.67h-.99v-3.34c0-.63-.27-1-.85-1s-1.15.41-1.15,1.43v2.92h-.99v-3.34c0-.63-.28-1-.85-1s-1.16.42-1.16,1.43v2.92h-.99v-5.08h.78l.12.98c.26-.78.89-1.1,1.58-1.1s1.25.32,1.39,1.12c.25-.81.91-1.12,1.6-1.12Z" style="fill:#363b68;"/><path d="m125.16,29.03c0,.38.18.47.37.47.12,0,.21-.02.29-.05v.77c-.14.05-.32.09-.54.09-.58,0-.96-.24-1.04-.81-.26.64-.86.87-1.51.87-.89,0-1.52-.51-1.52-1.38,0-1.12.87-1.77,2.95-1.67v-.63c0-.63-.37-.87-.91-.87s-.88.29-.92.81l-.95-.14c.08-1.08,1.02-1.46,1.96-1.46.99,0,1.83.4,1.83,1.56v2.44Zm-1-1.07c-1.36-.03-1.96.28-1.96.91,0,.42.28.74.81.74s1.14-.32,1.14-.91v-.74Z" style="fill:#363b68;"/><path d="m127.76,26.13c.27-.76.86-1.1,1.63-1.1.84,0,1.54.46,1.54,1.57v3.63h-.99v-3.33c0-.63-.29-1.01-.89-1.01s-1.2.33-1.2,1.43v2.92h-.99v-5.08h.78l.12.98Z" style="fill:#363b68;"/><path d="m133.67,27.95c.31.99.4,1.61.4,1.61h.04s.09-.61.39-1.61l.85-2.79h1.03l-1.87,5.5c-.52,1.5-1.17,1.87-2.07,1.87-.24,0-.52-.04-.74-.12l.09-.85c.22.11.42.15.66.15.54,0,.85-.29,1.14-1.18l-1.88-5.38h1.09l.87,2.79Z" style="fill:#363b68;"/><path d="m140.17,22.86c.38,0,.69.26.69.66,0,.37-.31.66-.69.66-.35,0-.66-.29-.66-.66,0-.4.31-.66.66-.66Zm.51,2.29v5.08h-.99v-5.08h.99Z" style="fill:#363b68;"/><path d="m145.55,22.88h1v7.35h-.88l-.11-.88c-.29.77-.89,1.01-1.62,1.01-1.07,0-2.01-.87-2.01-2.58s.83-2.75,2.28-2.75c.65,0,1.2.36,1.34.8v-2.95Zm.01,4.2c0-.9-.68-1.29-1.27-1.29-.75,0-1.36.52-1.36,1.95,0,1.2.53,1.84,1.35,1.84.56,0,1.28-.45,1.28-1.38v-1.12Z" style="fill:#363b68;"/><path d="m151.24,28.76l.87.23c-.21,1.02-1.07,1.38-2.04,1.38-1.35,0-2.27-.93-2.27-2.63s.9-2.71,2.32-2.71c1.31,0,2.01.9,2.01,2.17,0,.29-.04.55-.1.7h-3.28c.04.99.51,1.68,1.36,1.68.56,0,.94-.22,1.11-.83Zm-.08-1.57c.01-.08.01-.14.01-.21,0-.65-.42-1.17-1.1-1.17-.73,0-1.19.5-1.29,1.38h2.38Z" style="fill:#363b68;"/><path d="m156.99,29.03c0,.38.18.47.37.47.12,0,.21-.02.29-.05v.77c-.14.05-.32.09-.54.09-.58,0-.96-.24-1.04-.81-.26.64-.86.87-1.51.87-.89,0-1.52-.51-1.52-1.38,0-1.12.87-1.77,2.95-1.67v-.63c0-.63-.37-.87-.91-.87s-.88.29-.92.81l-.95-.14c.08-1.08,1.02-1.46,1.96-1.46.99,0,1.83.4,1.83,1.56v2.44Zm-1-1.07c-1.36-.03-1.96.28-1.96.91,0,.42.28.74.81.74s1.14-.32,1.14-.91v-.74Z" style="fill:#363b68;"/><path d="m159.08,28.83c.08.58.5.84,1.1.84s1.01-.22,1.01-.68c0-.42-.19-.65-.79-.8l-.75-.18c-.92-.22-1.28-.69-1.28-1.44,0-1.14.95-1.53,1.91-1.53,1.07,0,1.73.39,1.83,1.38l-.97.11c-.03-.51-.34-.74-.92-.74s-.89.25-.89.68c0,.36.14.59.69.71l.7.17c.9.22,1.41.64,1.41,1.53,0,1.09-.86,1.5-1.97,1.5s-1.83-.35-1.97-1.28l.88-.26Z" style="fill:#363b68;"/><path d="m169.3,29.03c0,.38.18.47.37.47.12,0,.21-.02.29-.05v.77c-.14.05-.32.09-.54.09-.58,0-.96-.24-1.04-.81-.26.64-.86.87-1.51.87-.89,0-1.52-.51-1.52-1.38,0-1.12.87-1.77,2.95-1.67v-.63c0-.63-.37-.87-.91-.87s-.88.29-.92.81l-.95-.14c.08-1.08,1.02-1.46,1.96-1.46.99,0,1.83.4,1.83,1.56v2.44Zm-1-1.07c-1.36-.03-1.96.28-1.96.91,0,.42.28.74.81.74s1.14-.32,1.14-.91v-.74Z" style="fill:#363b68;"/><path d="m173.85,26.15c-.12-.02-.29-.04-.45-.04-.71,0-1.41.56-1.41,1.55v2.57h-.99v-5.08h.84l.12,1.38c.2-.91.84-1.54,1.97-1.48l-.08,1.11Z" style="fill:#363b68;"/><path d="m177.79,28.76l.87.23c-.21,1.02-1.07,1.38-2.04,1.38-1.35,0-2.27-.93-2.27-2.63s.9-2.71,2.32-2.71c1.31,0,2.01.9,2.01,2.17,0,.29-.04.55-.1.7h-3.28c.04.99.51,1.68,1.36,1.68.56,0,.94-.22,1.11-.83Zm-.08-1.57c.01-.08.01-.14.01-.21,0-.65-.42-1.17-1.1-1.17-.73,0-1.19.5-1.29,1.38h2.38Z" style="fill:#363b68;"/><path d="m185.58,25.44c.24-.13.32-.4.38-.77l.86.3c-.08.48-.43.81-.85.91.15.26.23.58.23.96,0,1.18-.95,1.76-2.09,1.76-.25,0-.52-.03-.66-.09-.25.13-.34.31-.34.53,0,.29.19.42.54.42h1.24c1.16,0,1.77.51,1.77,1.42,0,1.33-1.43,1.68-2.76,1.68-1.12,0-2.22-.29-2.22-1.33,0-.66.47-1.1,1.31-1.17-.46-.06-.7-.39-.7-.79s.21-.75.75-.89c-.62-.28-.99-.79-.99-1.54,0-1.14.84-1.8,2.06-1.8.61,0,1.1.13,1.47.41Zm-1.57,6.41c1.03,0,1.71-.2,1.71-.84,0-.38-.21-.67-.86-.67h-1.1c-.73,0-1.13.24-1.13.77s.58.74,1.39.74Zm.1-3.96c.67,0,1.11-.35,1.11-1.07s-.44-1.08-1.11-1.07c-.67,0-1.07.38-1.07,1.07,0,.64.39,1.07,1.07,1.07Z" style="fill:#363b68;"/><path d="m190.61,28.76l.87.23c-.21,1.02-1.07,1.38-2.04,1.38-1.35,0-2.27-.93-2.27-2.63s.9-2.71,2.32-2.71c1.31,0,2.01.9,2.01,2.17,0,.29-.04.55-.1.7h-3.28c.04.99.51,1.68,1.36,1.68.56,0,.94-.22,1.11-.83Zm-.08-1.57c.01-.08.01-.14.01-.21,0-.65-.42-1.17-1.1-1.17-.73,0-1.19.5-1.29,1.38h2.38Z" style="fill:#363b68;"/><path d="m193.66,26.13c.28-.76.86-1.1,1.63-1.1.84,0,1.54.46,1.54,1.57v3.63h-.99v-3.33c0-.63-.29-1.01-.89-1.01s-1.2.33-1.2,1.43v2.92h-.99v-5.08h.78l.12.98Z" style="fill:#363b68;"/><path d="m201.46,28.76l.87.23c-.21,1.02-1.07,1.38-2.04,1.38-1.35,0-2.27-.93-2.27-2.63s.9-2.71,2.32-2.71c1.31,0,2.01.9,2.01,2.17,0,.29-.04.55-.1.7h-3.28c.04.99.51,1.68,1.36,1.68.56,0,.94-.22,1.11-.83Zm-.08-1.57c.01-.08.01-.14.01-.21,0-.65-.42-1.17-1.1-1.17-.73,0-1.19.5-1.29,1.38h2.38Z" style="fill:#363b68;"/><path d="m206.47,26.15c-.12-.02-.29-.04-.45-.04-.71,0-1.41.56-1.41,1.55v2.57h-.99v-5.08h.84l.12,1.38c.2-.91.84-1.54,1.97-1.48l-.08,1.11Z" style="fill:#363b68;"/><path d="m210.98,29.03c0,.38.18.47.37.47.12,0,.21-.02.29-.05v.77c-.14.05-.32.09-.54.09-.58,0-.96-.24-1.04-.81-.26.64-.86.87-1.51.87-.89,0-1.52-.51-1.52-1.38,0-1.12.87-1.77,2.95-1.67v-.63c0-.63-.37-.87-.91-.87s-.88.29-.92.81l-.95-.14c.08-1.08,1.02-1.46,1.96-1.46.99,0,1.83.4,1.83,1.56v2.44Zm-1-1.07c-1.36-.03-1.96.28-1.96.91,0,.42.28.74.81.74s1.14-.32,1.14-.91v-.74Z" style="fill:#363b68;"/><path d="m215.43,30.07c-.33.2-.76.3-1.23.3-.91,0-1.46-.48-1.46-1.43v-2.99h-.74v-.79h.74v-1.08l1-.12v1.2h1.51v.79h-1.52v2.79c0,.55.25.78.67.78.33,0,.56-.09.85-.28l.19.83Z" style="fill:#363b68;"/><path d="m219.44,28.76l.87.23c-.21,1.02-1.07,1.38-2.04,1.38-1.35,0-2.27-.93-2.27-2.63s.9-2.71,2.32-2.71c1.31,0,2.01.9,2.01,2.17,0,.29-.04.55-.1.7h-3.28c.04.99.51,1.68,1.36,1.68.56,0,.94-.22,1.11-.83Zm-.08-1.57c.01-.08.01-.14.01-.21,0-.65-.42-1.17-1.1-1.17-.73,0-1.19.5-1.29,1.38h2.38Z" style="fill:#363b68;"/><path d="m224.88,22.88h1v7.35h-.88l-.11-.88c-.29.77-.89,1.01-1.62,1.01-1.07,0-2.01-.87-2.01-2.58s.83-2.75,2.28-2.75c.65,0,1.2.36,1.34.8v-2.95Zm.01,4.2c0-.9-.68-1.29-1.27-1.29-.75,0-1.36.52-1.36,1.95,0,1.2.53,1.84,1.35,1.84.56,0,1.28-.45,1.28-1.38v-1.12Z" style="fill:#363b68;"/><path d="m227.3,31.49v-.47c.54-.08.89-.32.89-.81-.45.09-.79-.19-.79-.62s.31-.68.74-.68c.45,0,.84.36.84.97,0,1.09-.66,1.56-1.67,1.62Z" style="fill:#363b68;"/></g><g><path d="m102.92,43.95c-.18,1.02-.99,1.42-1.99,1.42-1.33,0-2.24-.95-2.24-2.64s.91-2.7,2.32-2.7c1.08,0,1.78.57,1.85,1.58l-.9.19c-.09-.64-.43-.96-.99-.96-.87,0-1.32.77-1.32,1.88s.53,1.85,1.36,1.85c.54,0,.9-.25,1.06-.84l.86.21Z" style="fill:#363b68;"/><path d="m106.9,41.16c-.12-.02-.29-.04-.45-.04-.71,0-1.41.56-1.41,1.55v2.57h-.99v-5.08h.84l.12,1.38c.2-.91.84-1.54,1.97-1.48l-.08,1.11Z" style="fill:#363b68;"/><path d="m110.84,43.76l.87.23c-.21,1.02-1.07,1.38-2.04,1.38-1.35,0-2.27-.93-2.27-2.63s.9-2.71,2.32-2.71c1.31,0,2.01.9,2.01,2.17,0,.29-.04.55-.1.7h-3.28c.04.99.51,1.68,1.36,1.68.56,0,.94-.22,1.11-.83Zm-.08-1.57c.01-.08.01-.14.01-.21,0-.65-.42-1.17-1.1-1.17-.73,0-1.19.5-1.29,1.38h2.38Z" style="fill:#363b68;"/><path d="m116.6,44.04c0,.38.18.47.37.47.12,0,.21-.02.29-.05v.77c-.14.05-.32.09-.54.09-.58,0-.96-.24-1.04-.81-.26.64-.86.87-1.51.87-.89,0-1.52-.51-1.52-1.38,0-1.12.87-1.77,2.95-1.67v-.63c0-.63-.37-.87-.91-.87s-.88.29-.92.81l-.95-.14c.08-1.08,1.02-1.46,1.96-1.46.99,0,1.83.4,1.83,1.56v2.44Zm-1-1.07c-1.36-.03-1.96.28-1.96.91,0,.42.28.74.81.74s1.14-.32,1.14-.91v-.74Z" style="fill:#363b68;"/><path d="m121.05,45.07c-.33.2-.76.3-1.23.3-.91,0-1.46-.48-1.46-1.43v-2.99h-.74v-.79h.74v-1.08l1-.12v1.2h1.51v.79h-1.52v2.79c0,.55.25.78.67.78.33,0,.56-.09.85-.28l.19.83Z" style="fill:#363b68;"/><path d="m122.5,37.87c.38,0,.69.26.69.66,0,.37-.31.66-.69.66-.35,0-.66-.29-.66-.66,0-.4.31-.66.66-.66Zm.51,2.29v5.08h-.99v-5.08h.99Z" style="fill:#363b68;"/><path d="m125.49,41.13c.27-.76.86-1.1,1.63-1.1.84,0,1.54.46,1.54,1.57v3.63h-.99v-3.33c0-.63-.29-1.01-.89-1.01s-1.2.33-1.2,1.43v2.92h-.99v-5.08h.78l.12.98Z" style="fill:#363b68;"/><path d="m133.39,40.44c.24-.13.32-.4.38-.77l.86.3c-.08.48-.43.81-.85.91.15.26.23.58.23.96,0,1.18-.95,1.76-2.09,1.76-.25,0-.52-.03-.66-.09-.25.13-.34.31-.34.53,0,.29.19.42.54.42h1.24c1.16,0,1.77.51,1.77,1.42,0,1.33-1.43,1.68-2.76,1.68-1.12,0-2.22-.29-2.22-1.33,0-.66.47-1.1,1.31-1.17-.46-.06-.7-.39-.7-.79s.21-.75.75-.89c-.62-.28-.99-.79-.99-1.54,0-1.14.84-1.8,2.06-1.8.6,0,1.1.13,1.47.41Zm-1.57,6.41c1.03,0,1.71-.2,1.71-.84,0-.38-.21-.67-.86-.67h-1.1c-.73,0-1.13.24-1.13.77s.58.74,1.39.74Zm.1-3.96c.67,0,1.11-.35,1.11-1.07s-.44-1.08-1.11-1.07c-.67,0-1.07.38-1.07,1.07,0,.64.39,1.07,1.07,1.07Z" style="fill:#363b68;"/><path d="m141.51,44.04c0,.38.18.47.37.47.12,0,.21-.02.29-.05v.77c-.14.05-.32.09-.54.09-.58,0-.96-.24-1.04-.81-.26.64-.86.87-1.51.87-.89,0-1.52-.51-1.52-1.38,0-1.12.87-1.77,2.95-1.67v-.63c0-.63-.37-.87-.91-.87s-.88.29-.92.81l-.95-.14c.08-1.08,1.02-1.46,1.96-1.46.99,0,1.83.4,1.83,1.56v2.44Zm-1-1.07c-1.36-.03-1.96.28-1.96.91,0,.42.28.74.81.74s1.14-.32,1.14-.91v-.74Z" style="fill:#363b68;"/><path d="m146.03,43.83c.08.58.5.84,1.1.84s1.01-.22,1.01-.68c0-.42-.19-.65-.79-.8l-.75-.18c-.92-.22-1.28-.69-1.28-1.44,0-1.14.95-1.53,1.91-1.53,1.07,0,1.73.39,1.83,1.38l-.97.11c-.03-.51-.34-.74-.92-.74s-.89.25-.89.68c0,.36.14.59.69.71l.7.17c.9.22,1.41.64,1.41,1.53,0,1.09-.86,1.5-1.97,1.5s-1.83-.35-1.97-1.28l.88-.26Z" style="fill:#363b68;"/><path d="m153.36,43.76l.87.23c-.21,1.02-1.07,1.38-2.04,1.38-1.35,0-2.27-.93-2.27-2.63s.9-2.71,2.32-2.71c1.31,0,2.01.9,2.01,2.17,0,.29-.04.55-.1.7h-3.28c.04.99.51,1.68,1.36,1.68.56,0,.94-.22,1.11-.83Zm-.08-1.57c.01-.08.01-.14.01-.21,0-.65-.42-1.17-1.1-1.17-.73,0-1.19.5-1.29,1.38h2.38Z" style="fill:#363b68;"/><path d="m156.42,41.13c.27-.76.86-1.1,1.63-1.1.84,0,1.54.46,1.54,1.57v3.63h-.99v-3.33c0-.63-.29-1.01-.89-1.01s-1.2.33-1.2,1.43v2.92h-.99v-5.08h.78l.12.98Z" style="fill:#363b68;"/><path d="m161.5,43.83c.08.58.5.84,1.1.84s1.01-.22,1.01-.68c0-.42-.19-.65-.79-.8l-.75-.18c-.92-.22-1.28-.69-1.28-1.44,0-1.14.95-1.53,1.91-1.53,1.07,0,1.73.39,1.83,1.38l-.97.11c-.03-.51-.34-.74-.92-.74s-.89.25-.89.68c0,.36.14.59.69.71l.7.17c.9.22,1.41.64,1.41,1.53,0,1.09-.86,1.5-1.97,1.5s-1.83-.35-1.97-1.28l.88-.26Z" style="fill:#363b68;"/><path d="m168.83,43.76l.87.23c-.21,1.02-1.07,1.38-2.04,1.38-1.35,0-2.27-.93-2.27-2.63s.9-2.71,2.32-2.71c1.31,0,2.01.9,2.01,2.17,0,.29-.04.55-.1.7h-3.28c.04.99.51,1.68,1.36,1.68.56,0,.94-.22,1.11-.83Zm-.08-1.57c.01-.08.01-.14.01-.21,0-.65-.42-1.17-1.1-1.17-.73,0-1.19.5-1.29,1.38h2.38Z" style="fill:#363b68;"/><path d="m173.08,42.66c0-1.73.91-2.63,2.31-2.63s2.32.9,2.32,2.63-.91,2.71-2.32,2.71-2.31-.97-2.31-2.71Zm.98.01c0,1.28.45,1.91,1.33,1.91s1.34-.64,1.34-1.91-.46-1.84-1.34-1.84-1.33.59-1.33,1.84Z" style="fill:#363b68;"/><path d="m178.33,40.95v-.79h.74v-.57c0-1.33.85-1.77,1.75-1.77.41,0,.76.09,1.06.21l-.19.85c-.26-.14-.48-.22-.81-.22-.51,0-.8.25-.8.98v.53h1.3v.79h-1.3v4.29h-1v-4.29h-.74Z" style="fill:#363b68;"/><path d="m184.19,42.66c0-1.73.91-2.63,2.31-2.63s2.32.9,2.32,2.63-.91,2.71-2.32,2.71-2.31-.97-2.31-2.71Zm.98.01c0,1.28.45,1.91,1.33,1.91s1.34-.64,1.34-1.91-.46-1.84-1.34-1.84-1.33.59-1.33,1.84Z" style="fill:#363b68;"/><path d="m189.32,40.16h1.08l.88,2.79c.3.96.4,1.62.4,1.62h.04s.08-.65.37-1.62l.85-2.79h1.04l-1.74,5.08h-1.16l-1.77-5.08Z" style="fill:#363b68;"/><path d="m197.92,43.76l.87.23c-.21,1.02-1.07,1.38-2.04,1.38-1.35,0-2.27-.93-2.27-2.63s.9-2.71,2.32-2.71c1.31,0,2.01.9,2.01,2.17,0,.29-.04.55-.1.7h-3.28c.04.99.51,1.68,1.36,1.68.56,0,.94-.22,1.11-.83Zm-.08-1.57c.01-.08.01-.14.01-.21,0-.65-.42-1.17-1.1-1.17-.73,0-1.19.5-1.29,1.38h2.38Z" style="fill:#363b68;"/><path d="m202.93,41.16c-.12-.02-.29-.04-.45-.04-.71,0-1.41.56-1.41,1.55v2.57h-.99v-5.08h.84l.12,1.38c.2-.91.84-1.54,1.97-1.48l-.08,1.11Z" style="fill:#363b68;"/><path d="m205.71,45.24c-.26.07-.44.09-.62.09-.64,0-1.17-.34-1.17-1.1v-6.34h.99v6.13c0,.32.19.45.45.45.14,0,.24-.02.35-.05v.83Z" style="fill:#363b68;"/><path d="m206.43,42.66c0-1.73.91-2.63,2.31-2.63s2.32.9,2.32,2.63-.91,2.71-2.32,2.71-2.31-.97-2.31-2.71Zm.98.01c0,1.28.45,1.91,1.33,1.91s1.34-.64,1.34-1.91-.46-1.84-1.34-1.84-1.33.59-1.33,1.84Z" style="fill:#363b68;"/><path d="m215.88,44.04c0,.38.18.47.37.47.12,0,.21-.02.29-.05v.77c-.14.05-.32.09-.54.09-.58,0-.96-.24-1.04-.81-.26.64-.86.87-1.51.87-.89,0-1.52-.51-1.52-1.38,0-1.12.87-1.77,2.95-1.67v-.63c0-.63-.37-.87-.91-.87s-.88.29-.92.81l-.95-.14c.08-1.08,1.02-1.46,1.96-1.46.99,0,1.83.4,1.83,1.56v2.44Zm-1-1.07c-1.36-.03-1.96.28-1.96.91,0,.42.28.74.81.74s1.14-.32,1.14-.91v-.74Z" style="fill:#363b68;"/><path d="m220.88,37.89h1v7.35h-.88l-.11-.88c-.29.77-.89,1.01-1.62,1.01-1.07,0-2.01-.87-2.01-2.58s.83-2.75,2.28-2.75c.65,0,1.2.36,1.34.8v-2.95Zm.01,4.2c0-.9-.68-1.29-1.26-1.29-.75,0-1.36.52-1.36,1.95,0,1.2.53,1.84,1.35,1.84.56,0,1.28-.45,1.28-1.38v-1.12Z" style="fill:#363b68;"/><path d="m224.24,43.81c.42,0,.75.32.75.75s-.33.75-.75.75-.75-.33-.75-.75.33-.75.75-.75Z" style="fill:#363b68;"/></g><g><path d="m182.37,98.76v4.6c0,1.46-1.04,2.01-2.34,2.01-1.03,0-1.83-.36-2.28-1.23l1.2-1.13c.24.63.54,1.01,1.04,1.01.54,0,.73-.29.73-.94v-4.32h1.65Z" style="fill:#363b68;"/><path d="m186.68,104.29c-.15.68-.6,1.09-1.57,1.09-.9,0-1.53-.46-1.53-1.63v-3.59h1.63v3.09c0,.55.17.89.63.89s.83-.37.83-1.34v-2.64h1.63v5.08h-1.41l-.2-.96Z" style="fill:#363b68;"/><path d="m190.43,103.49c.12.54.51.74.95.74.35,0,.59-.12.59-.35,0-.25-.2-.35-.6-.45l-.75-.18c-.88-.23-1.31-.74-1.31-1.53,0-1.32,1.06-1.68,2.13-1.68,1.25,0,2,.45,2.07,1.45l-1.52.22c-.06-.37-.26-.47-.63-.47-.26,0-.46.12-.46.33,0,.22.15.33.43.39l.73.14c1.08.22,1.54.83,1.54,1.67,0,1.16-.96,1.61-2.23,1.61s-2.05-.35-2.26-1.32l1.32-.56Z" style="fill:#363b68;"/><path d="m198.19,105.03c-.46.23-1.01.34-1.67.34-1.03,0-1.74-.47-1.74-1.71v-2.25h-.74v-1.25h.75v-1.08l1.63-.19v1.26h1.51v1.25h-1.52v1.88c0,.53.21.69.6.69.32,0,.61-.12.9-.33l.28,1.38Z" style="fill:#363b68;"/><path d="m204.95,101.84c-.21-.07-.36-.1-.62-.1-.53,0-1.27.2-1.27,1.25v2.24h-1.63v-5.08h1.42l.2,1.41c.22-.88.68-1.61,2.09-1.52l-.2,1.79Z" style="fill:#363b68;"/><path d="m206.73,97.72c.57,0,1,.3,1,.91s-.43.9-1,.9c-.53,0-.97-.31-.97-.9s.44-.91.97-.91Zm.81,2.44v5.08h-1.63v-5.08h1.63Z" style="fill:#363b68;"/><path d="m212.32,100.33c.21-.24.25-.35.37-.77l1.26.42c-.05.5-.54.84-.95.97.14.24.22.54.22.89,0,1.17-1.06,1.75-2.41,1.75-.23,0-.48-.02-.6-.07-.15.1-.2.24-.2.39s.12.26.35.26h1.52c1.16,0,1.82.66,1.82,1.53,0,1.49-1.53,1.87-3.03,1.87-1.29,0-2.42-.3-2.42-1.25,0-.58.41-.91,1.35-.98-.53-.03-.86-.47-.86-.93,0-.4.27-.87.88-1.05-.7-.27-1.08-.69-1.08-1.52,0-1.2.93-1.79,2.32-1.79.57,0,1.06.1,1.44.29Zm-1.44,6.16c1.02,0,1.3-.18,1.3-.51,0-.28-.18-.34-.54-.34h-1.31c-.32,0-.58.11-.58.33,0,.34.36.52,1.13.52Zm0-3.96c.45,0,.68-.26.68-.69,0-.47-.23-.69-.68-.69s-.66.25-.66.69c0,.4.2.69.66.69Z" style="fill:#363b68;"/><path d="m216.08,101.13c.28-.76.83-1.09,1.61-1.09s1.47.46,1.47,1.62v3.59h-1.63v-2.95c0-.54-.11-.89-.62-.89-.42,0-.84.23-.84,1.08v2.76h-1.63v-7.35h1.63v3.23Z" style="fill:#363b68;"/><path d="m224.03,105.03c-.46.23-1.01.34-1.67.34-1.03,0-1.74-.47-1.74-1.71v-2.25h-.74v-1.25h.75v-1.08l1.63-.19v1.26h1.51v1.25h-1.52v1.88c0,.53.21.69.6.69.32,0,.61-.12.9-.33l.28,1.38Z" style="fill:#363b68;"/><path d="m225.94,100.09c.59,0,1.03.44,1.03,1.03,0,.55-.44.99-1.03.99-.55,0-.99-.44-.99-.99,0-.59.44-1.03.99-1.03Zm0,3.18c.59,0,1.03.44,1.03,1.03,0,.55-.44.99-1.03.99-.55,0-.99-.44-.99-.99,0-.59.44-1.03.99-1.03Z" style="fill:#363b68;"/></g><g><path d="m179.74,120.25v-5.6h-1.88v-.88h4.8v.88h-1.89v5.6h-1.02Z" style="fill:#363b68;"/><path d="m184.55,116.13c.24-.73.77-1.09,1.54-1.09.84,0,1.54.46,1.54,1.57v3.63h-.99v-3.34c0-.62-.29-1-.89-1s-1.2.32-1.2,1.43v2.92h-.99v-7.35h.99v3.23Z" style="fill:#363b68;"/><path d="m192.26,118.77l.87.23c-.21,1.02-1.07,1.38-2.04,1.38-1.35,0-2.27-.93-2.27-2.63s.9-2.71,2.32-2.71c1.31,0,2.01.9,2.01,2.17,0,.29-.04.55-.1.7h-3.28c.04.99.51,1.68,1.36,1.68.56,0,.94-.22,1.11-.83Zm-.08-1.57c.01-.08.01-.14.01-.21,0-.65-.42-1.17-1.1-1.17-.73,0-1.19.5-1.29,1.38h2.38Z" style="fill:#363b68;"/><path d="m200.46,115.16h.67v7.32h-.99v-3.11c-.29.77-.89,1.01-1.62,1.01-1.07,0-2.01-.87-2.01-2.58s.83-2.75,2.27-2.75c.67,0,1.22.36,1.39.78l.3-.66Zm-.32,1.94c0-.9-.68-1.29-1.27-1.29-.75,0-1.36.52-1.36,1.95,0,1.2.53,1.84,1.35,1.84.56,0,1.28-.45,1.28-1.39v-1.11Z" style="fill:#363b68;"/><path d="m205.75,119.32c-.24.75-.76,1.06-1.56,1.06-.92,0-1.54-.47-1.54-1.68v-3.53h.99v3.38c0,.75.29,1.1.91,1.1.55,0,1.18-.5,1.18-1.47v-3h.99v5.08h-.85l-.12-.92Z" style="fill:#363b68;"/><path d="m211.41,118.77l.87.23c-.21,1.02-1.07,1.38-2.04,1.38-1.35,0-2.27-.93-2.27-2.63s.9-2.71,2.32-2.71c1.31,0,2.01.9,2.01,2.17,0,.29-.04.55-.1.7h-3.28c.04.99.51,1.68,1.36,1.68.56,0,.94-.22,1.11-.83Zm-.08-1.57c.01-.08.01-.14.01-.21,0-.65-.42-1.17-1.1-1.17-.73,0-1.19.5-1.29,1.38h2.38Z" style="fill:#363b68;"/><path d="m213.95,118.84c.08.58.5.84,1.1.84s1.01-.22,1.01-.68c0-.42-.19-.65-.79-.8l-.75-.18c-.92-.22-1.28-.69-1.28-1.44,0-1.14.95-1.53,1.91-1.53,1.07,0,1.73.39,1.83,1.38l-.97.11c-.03-.51-.34-.74-.92-.74s-.89.25-.89.68c0,.36.14.59.69.71l.7.17c.9.22,1.41.64,1.41,1.53,0,1.09-.86,1.5-1.97,1.5s-1.83-.35-1.97-1.28l.88-.26Z" style="fill:#363b68;"/><path d="m220.92,120.08c-.33.2-.76.3-1.23.3-.91,0-1.46-.48-1.46-1.43v-2.99h-.74v-.79h.74v-1.08l1-.12v1.2h1.51v.79h-1.52v2.79c0,.55.25.78.67.78.33,0,.56-.09.85-.28l.19.83Z" style="fill:#363b68;"/><path d="m222.36,112.88c.38,0,.69.26.69.66,0,.37-.31.66-.69.66-.35,0-.66-.29-.66-.66,0-.4.31-.66.66-.66Zm.51,2.29v5.08h-.99v-5.08h.99Z" style="fill:#363b68;"/><path d="m224.12,117.67c0-1.73.91-2.63,2.31-2.63s2.32.9,2.32,2.63-.91,2.71-2.32,2.71-2.31-.97-2.31-2.71Zm.98.01c0,1.28.45,1.91,1.33,1.91s1.34-.64,1.34-1.91-.46-1.84-1.34-1.84-1.33.59-1.33,1.84Z" style="fill:#363b68;"/><path d="m230.91,116.14c.28-.76.86-1.1,1.63-1.1.84,0,1.54.46,1.54,1.57v3.63h-.99v-3.33c0-.63-.29-1.01-.89-1.01s-1.2.33-1.2,1.43v2.92h-.99v-5.08h.78l.12.98Z" style="fill:#363b68;"/><path d="m238.52,112.88c.38,0,.69.26.69.66,0,.37-.31.66-.69.66-.35,0-.66-.29-.66-.66,0-.4.31-.66.66-.66Zm.51,2.29v5.08h-.99v-5.08h.99Z" style="fill:#363b68;"/><path d="m241.51,116.14c.28-.76.86-1.1,1.63-1.1.84,0,1.54.46,1.54,1.57v3.63h-.99v-3.33c0-.63-.29-1.01-.89-1.01s-1.2.33-1.2,1.43v2.92h-.99v-5.08h.78l.12.98Z" style="fill:#363b68;"/><path d="m246.6,118.84c.08.58.5.84,1.1.84s1.01-.22,1.01-.68c0-.42-.19-.65-.79-.8l-.75-.18c-.92-.22-1.28-.69-1.28-1.44,0-1.14.95-1.53,1.91-1.53,1.07,0,1.73.39,1.83,1.38l-.97.11c-.03-.51-.34-.74-.92-.74s-.89.25-.89.68c0,.36.14.59.69.71l.7.17c.9.22,1.41.64,1.41,1.53,0,1.09-.86,1.5-1.97,1.5s-1.83-.35-1.97-1.28l.88-.26Z" style="fill:#363b68;"/><path d="m251.81,122.48h-.99v-7.32h.81l.12.98c.3-.83,1.04-1.1,1.68-1.1,1.24,0,2,.9,2,2.54,0,1.55-.79,2.79-2.2,2.79-.78,0-1.25-.36-1.43-.8v2.9Zm0-4.2c0,.98.66,1.35,1.23,1.35.76,0,1.39-.62,1.39-1.96,0-1.22-.49-1.82-1.28-1.82-.73,0-1.34.54-1.34,1.49v.93Z" style="fill:#363b68;"/><path d="m257.18,112.88c.38,0,.69.26.69.66,0,.37-.31.66-.69.66-.35,0-.66-.29-.66-.66,0-.4.31-.66.66-.66Zm.51,2.29v5.08h-.99v-5.08h.99Z" style="fill:#363b68;"/><path d="m262.12,116.17c-.12-.02-.29-.04-.45-.04-.71,0-1.41.56-1.41,1.55v2.57h-.99v-5.08h.84l.12,1.38c.2-.91.84-1.54,1.97-1.48l-.08,1.11Z" style="fill:#363b68;"/><path d="m266.04,118.77l.87.23c-.21,1.02-1.07,1.38-2.04,1.38-1.35,0-2.27-.93-2.27-2.63s.9-2.71,2.32-2.71c1.31,0,2.01.9,2.01,2.17,0,.29-.04.55-.1.7h-3.28c.04.99.51,1.68,1.36,1.68.56,0,.94-.22,1.11-.83Zm-.08-1.57c.01-.08.01-.14.01-.21,0-.65-.42-1.17-1.1-1.17-.73,0-1.19.5-1.29,1.38h2.38Z" style="fill:#363b68;"/><path d="m268.58,118.84c.08.58.5.84,1.1.84s1.01-.22,1.01-.68c0-.42-.19-.65-.79-.8l-.75-.18c-.92-.22-1.28-.69-1.28-1.44,0-1.14.95-1.53,1.91-1.53,1.07,0,1.73.39,1.83,1.38l-.97.11c-.03-.51-.34-.74-.92-.74s-.89.25-.89.68c0,.36.14.59.69.71l.7.17c.9.22,1.41.64,1.41,1.53,0,1.09-.86,1.5-1.97,1.5s-1.83-.35-1.97-1.28l.88-.26Z" style="fill:#363b68;"/><path d="m278.28,119.32c-.24.75-.76,1.06-1.56,1.06-.92,0-1.54-.47-1.54-1.68v-3.53h.99v3.38c0,.75.29,1.1.91,1.1.55,0,1.18-.5,1.18-1.47v-3h.99v5.08h-.85l-.12-.92Z" style="fill:#363b68;"/><path d="m281.21,118.84c.08.58.5.84,1.1.84s1.01-.22,1.01-.68c0-.42-.19-.65-.79-.8l-.75-.18c-.92-.22-1.28-.69-1.28-1.44,0-1.14.95-1.53,1.91-1.53,1.07,0,1.73.39,1.83,1.38l-.97.11c-.03-.51-.34-.74-.92-.74s-.89.25-.89.68c0,.36.14.59.69.71l.7.17c.9.22,1.41.64,1.41,1.53,0,1.09-.86,1.5-1.97,1.5s-1.83-.35-1.97-1.28l.88-.26Z" style="fill:#363b68;"/><path d="m290.62,120.08c-.33.2-.76.3-1.23.3-.91,0-1.46-.48-1.46-1.43v-2.99h-.74v-.79h.74v-1.08l1-.12v1.2h1.51v.79h-1.52v2.79c0,.55.25.78.67.78.33,0,.56-.09.85-.28l.19.83Z" style="fill:#363b68;"/><path d="m291.19,117.67c0-1.73.91-2.63,2.31-2.63s2.32.9,2.32,2.63-.91,2.71-2.32,2.71-2.31-.97-2.31-2.71Zm.98.01c0,1.28.45,1.91,1.33,1.91s1.34-.64,1.34-1.91-.46-1.84-1.34-1.84-1.33.59-1.33,1.84Z" style="fill:#363b68;"/><path d="m298.87,115.96v-.79h.74v-.5c0-1.42,1.02-1.85,1.9-1.85.48,0,.98.1,1.39.36l-.35.81c-.25-.19-.58-.34-1.01-.34-.55,0-.92.25-.92,1.04v.46h2.77v5.08h-.99v-4.29h-1.78v4.29h-1v-4.29h-.74Z" style="fill:#363b68;"/><path d="m305.86,116.14c.28-.76.86-1.1,1.63-1.1.84,0,1.54.46,1.54,1.57v3.63h-.99v-3.33c0-.63-.29-1.01-.89-1.01s-1.2.33-1.2,1.43v2.92h-.99v-5.08h.78l.12.98Z" style="fill:#363b68;"/><path d="m313.85,112.9h1v7.35h-.88l-.11-.88c-.29.77-.89,1.01-1.62,1.01-1.07,0-2.01-.87-2.01-2.58s.83-2.75,2.28-2.75c.65,0,1.2.36,1.34.8v-2.95Zm.01,4.2c0-.9-.68-1.29-1.27-1.29-.75,0-1.36.52-1.36,1.95,0,1.2.53,1.84,1.35,1.84.56,0,1.28-.45,1.28-1.38v-1.12Z" style="fill:#363b68;"/><path d="m322.43,119.05c0,.38.18.47.37.47.12,0,.21-.02.29-.05v.77c-.14.05-.32.09-.54.09-.58,0-.96-.24-1.04-.81-.26.64-.86.87-1.51.87-.89,0-1.52-.51-1.52-1.38,0-1.12.87-1.77,2.95-1.67v-.63c0-.63-.37-.87-.91-.87s-.88.29-.92.81l-.95-.14c.08-1.08,1.02-1.46,1.96-1.46.99,0,1.83.4,1.83,1.56v2.44Zm-1-1.07c-1.36-.03-1.96.28-1.96.91,0,.42.28.74.81.74s1.14-.32,1.14-.91v-.74Z" style="fill:#363b68;"/></g><g><path d="m178.92,133.84c.08.58.5.84,1.1.84s1.01-.22,1.01-.68c0-.42-.19-.65-.79-.8l-.75-.18c-.92-.22-1.28-.69-1.28-1.44,0-1.14.95-1.53,1.91-1.53,1.07,0,1.73.39,1.83,1.38l-.97.11c-.03-.51-.34-.74-.92-.74s-.89.25-.89.68c0,.36.14.59.69.71l.7.17c.9.22,1.41.64,1.41,1.53,0,1.09-.86,1.5-1.97,1.5s-1.83-.35-1.97-1.28l.88-.26Z" style="fill:#363b68;"/><path d="m182.82,132.68c0-1.73.91-2.63,2.31-2.63s2.32.9,2.32,2.63-.91,2.71-2.32,2.71-2.31-.97-2.31-2.71Zm.98.01c0,1.28.45,1.91,1.33,1.91s1.34-.64,1.34-1.91-.46-1.84-1.34-1.84-1.33.59-1.33,1.84Z" style="fill:#363b68;"/><path d="m190.42,135.25c-.26.07-.44.09-.62.09-.64,0-1.17-.34-1.17-1.1v-6.34h.99v6.13c0,.32.19.45.45.45.14,0,.24-.02.35-.05v.83Z" style="fill:#363b68;"/><path d="m194.57,134.33c-.24.75-.76,1.06-1.56,1.06-.92,0-1.54-.47-1.54-1.68v-3.53h.99v3.38c0,.75.29,1.1.91,1.1.55,0,1.18-.5,1.18-1.47v-3h.99v5.08h-.85l-.12-.92Z" style="fill:#363b68;"/><path d="m199.87,135.09c-.33.2-.76.3-1.23.3-.91,0-1.46-.48-1.46-1.43v-2.99h-.74v-.79h.74v-1.08l1-.12v1.2h1.51v.79h-1.52v2.79c0,.55.25.78.67.78.33,0,.56-.09.85-.28l.19.83Z" style="fill:#363b68;"/><path d="m201.31,127.88c.38,0,.69.26.69.66,0,.37-.31.66-.69.66-.35,0-.66-.29-.66-.66,0-.4.31-.66.66-.66Zm.51,2.29v5.08h-.99v-5.08h.99Z" style="fill:#363b68;"/><path d="m203.07,132.68c0-1.73.91-2.63,2.31-2.63s2.32.9,2.32,2.63-.91,2.71-2.32,2.71-2.31-.97-2.31-2.71Zm.98.01c0,1.28.45,1.91,1.33,1.91s1.34-.64,1.34-1.91-.46-1.84-1.34-1.84-1.33.59-1.33,1.84Z" style="fill:#363b68;"/><path d="m209.86,131.15c.27-.76.86-1.1,1.63-1.1.84,0,1.54.46,1.54,1.57v3.63h-.99v-3.33c0-.63-.29-1.01-.89-1.01s-1.2.33-1.2,1.43v2.92h-.99v-5.08h.78l.12.98Z" style="fill:#363b68;"/><path d="m221.12,132.81c.29,1.02.34,1.73.34,1.73h.04s.03-.69.29-1.73l.68-2.64h1l-1.39,5.08h-1.19l-.67-2.41c-.28-.97-.33-1.61-.33-1.61h-.04s-.06.63-.31,1.61l-.64,2.41h-1.19l-1.42-5.08h1.02l.69,2.64c.28,1.02.34,1.73.34,1.73h.04s.03-.73.31-1.74l.7-2.63h.99l.71,2.64Z" style="fill:#363b68;"/><path d="m224.86,127.88c.38,0,.69.26.69.66,0,.37-.31.66-.69.66-.35,0-.66-.29-.66-.66,0-.4.31-.66.66-.66Zm.51,2.29v5.08h-.99v-5.08h.99Z" style="fill:#363b68;"/><path d="m229.7,135.09c-.33.2-.76.3-1.23.3-.91,0-1.46-.48-1.46-1.43v-2.99h-.74v-.79h.74v-1.08l1-.12v1.2h1.51v.79h-1.52v2.79c0,.55.25.78.67.78.33,0,.56-.09.85-.28l.19.83Z" style="fill:#363b68;"/><path d="m231.65,131.14c.24-.73.77-1.09,1.54-1.09.84,0,1.54.46,1.54,1.57v3.63h-.99v-3.34c0-.62-.29-1-.89-1s-1.2.32-1.2,1.43v2.92h-.99v-7.35h.99v3.23Z" style="fill:#363b68;"/><path d="m235.93,132.68c0-1.73.91-2.63,2.31-2.63s2.32.9,2.32,2.63-.91,2.71-2.32,2.71-2.31-.97-2.31-2.71Zm.98.01c0,1.28.45,1.91,1.33,1.91s1.34-.64,1.34-1.91-.46-1.84-1.34-1.84-1.33.59-1.33,1.84Z" style="fill:#363b68;"/><path d="m244.85,134.33c-.24.75-.76,1.06-1.56,1.06-.92,0-1.54-.47-1.54-1.68v-3.53h.99v3.38c0,.75.29,1.1.91,1.1.55,0,1.18-.5,1.18-1.47v-3h.99v5.08h-.85l-.12-.92Z" style="fill:#363b68;"/><path d="m250.15,135.09c-.33.2-.76.3-1.23.3-.91,0-1.46-.48-1.46-1.43v-2.99h-.74v-.79h.74v-1.08l1-.12v1.2h1.51v.79h-1.52v2.79c0,.55.25.78.67.78.33,0,.56-.09.85-.28l.19.83Z" style="fill:#363b68;"/><path d="m254.53,137.48h-.99v-7.32h.81l.12.98c.3-.83,1.04-1.1,1.68-1.1,1.24,0,2,.9,2,2.54,0,1.55-.79,2.79-2.2,2.79-.78,0-1.25-.36-1.43-.8v2.9Zm0-4.2c0,.98.66,1.35,1.23,1.35.76,0,1.39-.62,1.39-1.96,0-1.22-.49-1.82-1.28-1.82-.73,0-1.34.54-1.34,1.49v.93Z" style="fill:#363b68;"/><path d="m262.26,131.17c-.12-.02-.29-.04-.45-.04-.71,0-1.41.56-1.41,1.55v2.57h-.99v-5.08h.84l.12,1.38c.2-.91.84-1.54,1.97-1.48l-.08,1.11Z" style="fill:#363b68;"/><path d="m266.19,133.78l.87.23c-.21,1.02-1.07,1.38-2.04,1.38-1.35,0-2.27-.93-2.27-2.63s.9-2.71,2.32-2.71c1.31,0,2.01.9,2.01,2.17,0,.29-.04.55-.1.7h-3.28c.04.99.51,1.68,1.36,1.68.56,0,.94-.22,1.11-.83Zm-.08-1.57c.01-.08.01-.14.01-.21,0-.65-.42-1.17-1.1-1.17-.73,0-1.19.5-1.29,1.38h2.38Z" style="fill:#363b68;"/><path d="m271.63,127.9h1v7.35h-.88l-.11-.88c-.29.77-.89,1.01-1.62,1.01-1.07,0-2.01-.87-2.01-2.58s.83-2.75,2.28-2.75c.65,0,1.2.36,1.34.8v-2.95Zm.01,4.2c0-.9-.68-1.29-1.26-1.29-.75,0-1.36.52-1.36,1.95,0,1.2.53,1.84,1.35,1.84.56,0,1.28-.45,1.28-1.38v-1.12Z" style="fill:#363b68;"/><path d="m277.32,133.78l.87.23c-.21,1.02-1.07,1.38-2.04,1.38-1.35,0-2.27-.93-2.27-2.63s.9-2.71,2.32-2.71c1.31,0,2.01.9,2.01,2.17,0,.29-.04.55-.1.7h-3.28c.04.99.51,1.68,1.36,1.68.56,0,.94-.22,1.11-.83Zm-.08-1.57c.01-.08.01-.14.01-.21,0-.65-.42-1.17-1.1-1.17-.73,0-1.19.5-1.29,1.38h2.38Z" style="fill:#363b68;"/><path d="m278.84,130.96v-.79h.74v-.5c0-1.42,1.02-1.85,1.9-1.85.48,0,.98.1,1.39.36l-.35.81c-.25-.19-.58-.34-1.01-.34-.55,0-.92.25-.92,1.04v.46h2.77v5.08h-.99v-4.29h-1.78v4.29h-1v-4.29h-.74Z" style="fill:#363b68;"/><path d="m285.83,131.15c.28-.76.86-1.1,1.63-1.1.84,0,1.54.46,1.54,1.57v3.63h-.99v-3.33c0-.63-.29-1.01-.89-1.01s-1.2.33-1.2,1.43v2.92h-.99v-5.08h.78l.12.98Z" style="fill:#363b68;"/><path d="m291.01,127.88c.38,0,.69.26.69.66,0,.37-.31.66-.69.66-.35,0-.66-.29-.66-.66,0-.4.31-.66.66-.66Zm.51,2.29v5.08h-.99v-5.08h.99Z" style="fill:#363b68;"/><path d="m294,131.15c.28-.76.86-1.1,1.63-1.1.84,0,1.54.46,1.54,1.57v3.63h-.99v-3.33c0-.63-.29-1.01-.89-1.01s-1.2.33-1.2,1.43v2.92h-.99v-5.08h.78l.12.98Z" style="fill:#363b68;"/><path d="m301.9,130.45c.24-.13.32-.4.38-.77l.86.3c-.08.48-.43.81-.85.91.15.26.23.58.23.96,0,1.18-.95,1.76-2.09,1.76-.25,0-.52-.03-.66-.09-.25.13-.34.31-.34.53,0,.29.19.42.54.42h1.24c1.16,0,1.77.51,1.77,1.42,0,1.33-1.43,1.68-2.76,1.68-1.12,0-2.22-.29-2.22-1.33,0-.66.47-1.1,1.31-1.17-.46-.06-.7-.39-.7-.79s.21-.75.75-.89c-.62-.28-.99-.79-.99-1.54,0-1.14.84-1.8,2.06-1.8.61,0,1.1.13,1.47.41Zm-1.57,6.41c1.03,0,1.71-.2,1.71-.84,0-.38-.21-.67-.86-.67h-1.1c-.73,0-1.13.24-1.13.77s.58.74,1.39.74Zm.1-3.96c.67,0,1.11-.35,1.11-1.07s-.44-1.08-1.11-1.07c-.67,0-1.07.38-1.07,1.07,0,.64.39,1.07,1.07,1.07Z" style="fill:#363b68;"/><path d="m306.95,127.88c.38,0,.69.26.69.66,0,.37-.31.66-.69.66-.35,0-.66-.29-.66-.66,0-.4.31-.66.66-.66Zm.51,2.29v5.08h-.99v-5.08h.99Z" style="fill:#363b68;"/><path d="m311.79,135.09c-.33.2-.76.3-1.23.3-.91,0-1.46-.48-1.46-1.43v-2.99h-.74v-.79h.74v-1.08l1-.12v1.2h1.51v.79h-1.52v2.79c0,.55.25.78.67.78.33,0,.56-.09.85-.28l.19.83Z" style="fill:#363b68;"/><path d="m313.74,133.82c.42,0,.75.32.75.75s-.33.75-.75.75-.75-.33-.75-.75.33-.75.75-.75Z" style="fill:#363b68;"/></g><g><path d="m125.91,247.25v-5.05h-1.73v-1.43h5.13v1.43h-1.76v5.05h-1.64Z" style="fill:#363b68;"/><path d="m129.32,244.7c0-1.73,1-2.65,2.51-2.65s2.51.92,2.51,2.65-1,2.68-2.51,2.68-2.51-.97-2.51-2.68Zm1.61.01c0,.98.29,1.41.9,1.41s.9-.43.9-1.41c0-.92-.3-1.36-.9-1.36s-.9.44-.9,1.36Z" style="fill:#363b68;"/><path d="m134.99,244.7c0-1.73,1-2.65,2.51-2.65s2.51.92,2.51,2.65-1,2.68-2.51,2.68-2.51-.97-2.51-2.68Zm1.61.01c0,.98.29,1.41.9,1.41s.9-.43.9-1.41c0-.92-.3-1.36-.9-1.36s-.9.44-.9,1.36Z" style="fill:#363b68;"/><path d="m146.42,246.3c-.15.68-.6,1.09-1.57,1.09-.9,0-1.53-.46-1.53-1.63v-3.59h1.63v3.09c0,.55.17.89.63.89s.83-.37.83-1.34v-2.64h1.63v5.08h-1.41l-.2-.96Z" style="fill:#363b68;"/><path d="m150.95,243.15c.28-.76.85-1.1,1.63-1.1s1.47.46,1.47,1.62v3.59h-1.63v-2.95c0-.54-.11-.89-.62-.89-.42,0-.84.24-.84,1.09v2.75h-1.63v-5.08h1.41l.2.98Z" style="fill:#363b68;"/><path d="m156.13,239.73c.57,0,1,.3,1,.91s-.43.9-1,.9c-.53,0-.97-.31-.97-.9s.44-.91.97-.91Zm.81,2.44v5.08h-1.63v-5.08h1.63Z" style="fill:#363b68;"/><path d="m159.87,243.15c.28-.76.85-1.1,1.63-1.1s1.47.46,1.47,1.62v3.59h-1.63v-2.95c0-.54-.11-.89-.62-.89-.42,0-.84.24-.84,1.09v2.75h-1.63v-5.08h1.41l.2.98Z" style="fill:#363b68;"/><path d="m165.06,245.5c.12.54.51.74.95.74.35,0,.59-.12.59-.35,0-.25-.2-.35-.6-.45l-.75-.18c-.88-.23-1.31-.74-1.31-1.53,0-1.32,1.06-1.68,2.13-1.68,1.25,0,2,.45,2.07,1.45l-1.52.22c-.06-.37-.26-.47-.63-.47-.26,0-.46.12-.46.33,0,.22.15.33.43.39l.73.14c1.08.22,1.54.83,1.54,1.67,0,1.16-.96,1.61-2.23,1.61s-2.05-.35-2.26-1.32l1.32-.56Z" style="fill:#363b68;"/><path d="m170.85,249.49h-1.63v-7.32h1.41l.21.98c.3-.81.94-1.1,1.66-1.1,1.24,0,1.95.94,1.95,2.54,0,1.71-.8,2.79-2.18,2.79-.77,0-1.29-.37-1.42-.8v2.9Zm-.01-4.36c0,.84.5,1.09.89,1.09.58,0,1.08-.48,1.08-1.49s-.39-1.39-.99-1.39c-.47,0-.98.4-.98,1.17v.62Z" style="fill:#363b68;"/><path d="m176.25,239.73c.57,0,1,.3,1,.91s-.43.9-1,.9c-.53,0-.97-.31-.97-.9s.44-.91.97-.91Zm.81,2.44v5.08h-1.63v-5.08h1.63Z" style="fill:#363b68;"/><path d="m181.89,243.85c-.21-.07-.36-.1-.62-.1-.53,0-1.27.2-1.27,1.25v2.24h-1.63v-5.08h1.42l.2,1.41c.22-.88.68-1.61,2.09-1.52l-.2,1.79Z" style="fill:#363b68;"/><path d="m183.68,239.73c.57,0,1,.3,1,.91s-.43.9-1,.9c-.53,0-.97-.31-.97-.9s.44-.91.97-.91Zm.81,2.44v5.08h-1.63v-5.08h1.63Z" style="fill:#363b68;"/><path d="m187.42,243.15c.28-.76.85-1.1,1.63-1.1s1.47.46,1.47,1.62v3.59h-1.63v-2.95c0-.54-.11-.89-.62-.89-.42,0-.84.24-.84,1.09v2.75h-1.63v-5.08h1.41l.2.98Z" style="fill:#363b68;"/><path d="m195.24,242.33c.21-.24.25-.35.37-.77l1.26.42c-.05.5-.54.84-.95.97.14.24.22.54.22.89,0,1.17-1.06,1.75-2.41,1.75-.23,0-.48-.02-.6-.07-.15.1-.2.24-.2.39s.12.26.35.26h1.52c1.16,0,1.82.66,1.82,1.53,0,1.49-1.53,1.87-3.03,1.87-1.29,0-2.42-.3-2.42-1.25,0-.58.41-.91,1.35-.98-.53-.03-.86-.47-.86-.93,0-.4.27-.87.88-1.05-.7-.27-1.08-.69-1.08-1.52,0-1.2.93-1.79,2.32-1.79.57,0,1.06.1,1.44.29Zm-1.44,6.16c1.02,0,1.3-.18,1.3-.51,0-.28-.18-.34-.54-.34h-1.31c-.32,0-.58.11-.58.33,0,.34.36.52,1.13.52Zm0-3.96c.45,0,.68-.26.68-.69,0-.47-.23-.69-.68-.69s-.66.25-.66.69c0,.4.2.69.66.69Z" style="fill:#363b68;"/><path d="m198.31,242.1c.59,0,1.03.44,1.03,1.03,0,.55-.44.99-1.03.99-.55,0-.99-.44-.99-.99,0-.59.44-1.03.99-1.03Zm0,3.18c.59,0,1.03.44,1.03,1.03,0,.55-.44.99-1.03.99-.55,0-.99-.44-.99-.99,0-.59.44-1.03.99-1.03Z" style="fill:#363b68;"/></g><g><path d="m91.08,262.26v-5.6h-1.88v-.88h4.8v.88h-1.89v5.6h-1.02Z" style="fill:#363b68;"/><path d="m95.89,258.14c.24-.73.77-1.09,1.54-1.09.84,0,1.54.46,1.54,1.57v3.63h-.99v-3.34c0-.62-.29-1-.89-1s-1.2.32-1.2,1.43v2.92h-.99v-7.35h.99v3.23Z" style="fill:#363b68;"/><path d="m103.6,260.78l.87.23c-.21,1.02-1.07,1.38-2.04,1.38-1.35,0-2.27-.93-2.27-2.63s.9-2.71,2.32-2.71c1.31,0,2.01.9,2.01,2.17,0,.29-.04.55-.1.7h-3.28c.04.99.51,1.68,1.36,1.68.56,0,.94-.22,1.11-.83Zm-.08-1.57c.01-.08.01-.14.01-.21,0-.65-.42-1.17-1.1-1.17-.73,0-1.19.5-1.29,1.38h2.38Z" style="fill:#363b68;"/><path d="m111.75,261.06c0,.38.18.47.37.47.12,0,.21-.02.29-.05v.77c-.14.05-.32.09-.54.09-.58,0-.96-.24-1.04-.81-.26.64-.86.87-1.51.87-.89,0-1.52-.51-1.52-1.38,0-1.12.87-1.77,2.95-1.67v-.63c0-.63-.37-.87-.91-.87s-.88.29-.92.81l-.95-.14c.08-1.08,1.02-1.46,1.96-1.46.99,0,1.83.4,1.83,1.56v2.44Zm-1-1.07c-1.36-.03-1.96.28-1.96.91,0,.42.28.74.81.74s1.14-.32,1.14-.91v-.74Z" style="fill:#363b68;"/><path d="m114.35,258.15c.27-.76.86-1.1,1.63-1.1.84,0,1.54.46,1.54,1.57v3.63h-.99v-3.33c0-.63-.29-1.01-.89-1.01s-1.2.33-1.2,1.43v2.92h-.99v-5.08h.78l.12.98Z" style="fill:#363b68;"/><path d="m119.44,260.85c.08.58.5.84,1.1.84s1.01-.22,1.01-.68c0-.42-.19-.65-.79-.8l-.75-.18c-.92-.22-1.28-.69-1.28-1.44,0-1.14.95-1.53,1.91-1.53,1.07,0,1.73.39,1.83,1.38l-.97.11c-.03-.51-.34-.74-.92-.74s-.89.25-.89.68c0,.36.14.59.69.71l.7.17c.9.22,1.41.64,1.41,1.53,0,1.09-.86,1.5-1.97,1.5s-1.83-.35-1.97-1.28l.88-.26Z" style="fill:#363b68;"/><path d="m127.8,259.81c.29,1.02.34,1.73.34,1.73h.04s.03-.69.29-1.73l.68-2.64h1l-1.39,5.08h-1.19l-.67-2.41c-.27-.97-.33-1.61-.33-1.61h-.04s-.06.63-.31,1.61l-.64,2.41h-1.19l-1.42-5.08h1.02l.69,2.64c.27,1.02.34,1.73.34,1.73h.04s.03-.73.31-1.74l.7-2.63h.99l.72,2.64Z" style="fill:#363b68;"/><path d="m134.15,260.78l.87.23c-.21,1.02-1.07,1.38-2.04,1.38-1.35,0-2.27-.93-2.27-2.63s.9-2.71,2.32-2.71c1.31,0,2.01.9,2.01,2.17,0,.29-.04.55-.1.7h-3.28c.04.99.51,1.68,1.36,1.68.56,0,.94-.22,1.11-.83Zm-.08-1.57c.01-.08.01-.14.01-.21,0-.65-.42-1.17-1.1-1.17-.73,0-1.19.5-1.29,1.38h2.38Z" style="fill:#363b68;"/><path d="m139.16,258.17c-.12-.02-.29-.04-.45-.04-.71,0-1.41.56-1.41,1.55v2.57h-.99v-5.08h.84l.12,1.38c.2-.91.84-1.54,1.97-1.48l-.08,1.11Z" style="fill:#363b68;"/><path d="m142.33,259.68c0-1.73.91-2.63,2.31-2.63s2.32.9,2.32,2.63-.91,2.71-2.32,2.71-2.31-.97-2.31-2.71Zm.98.01c0,1.28.45,1.91,1.33,1.91s1.34-.64,1.34-1.91-.46-1.84-1.34-1.84-1.33.59-1.33,1.84Z" style="fill:#363b68;"/><path d="m151.06,258.17c-.12-.02-.29-.04-.45-.04-.71,0-1.41.56-1.41,1.55v2.57h-.99v-5.08h.84l.12,1.38c.2-.91.84-1.54,1.97-1.48l-.08,1.11Z" style="fill:#363b68;"/><path d="m154.94,260.85c.08.58.5.84,1.1.84s1.01-.22,1.01-.68c0-.42-.19-.65-.79-.8l-.75-.18c-.92-.22-1.28-.69-1.28-1.44,0-1.14.95-1.53,1.91-1.53,1.07,0,1.73.39,1.83,1.38l-.97.11c-.03-.51-.34-.74-.92-.74s-.89.25-.89.68c0,.36.14.59.69.71l.7.17c.9.22,1.41.64,1.41,1.53,0,1.09-.86,1.5-1.97,1.5s-1.83-.35-1.97-1.28l.88-.26Z" style="fill:#363b68;"/><path d="m158.84,259.68c0-1.73.91-2.63,2.31-2.63s2.32.9,2.32,2.63-.91,2.71-2.32,2.71-2.31-.97-2.31-2.71Zm.98.01c0,1.28.45,1.91,1.33,1.91s1.34-.64,1.34-1.91-.46-1.84-1.34-1.84-1.33.59-1.33,1.84Z" style="fill:#363b68;"/><path d="m166.44,262.26c-.26.07-.44.09-.62.09-.64,0-1.17-.34-1.17-1.1v-6.34h.99v6.13c0,.32.19.45.45.45.14,0,.24-.02.35-.05v.83Z" style="fill:#363b68;"/><path d="m170.57,261.33c-.24.75-.76,1.06-1.56,1.06-.92,0-1.54-.47-1.54-1.68v-3.53h.99v3.38c0,.75.29,1.1.91,1.1.55,0,1.18-.5,1.18-1.47v-3h.99v5.08h-.85l-.12-.92Z" style="fill:#363b68;"/><path d="m175.88,262.09c-.33.2-.76.3-1.23.3-.91,0-1.46-.48-1.46-1.43v-2.99h-.74v-.79h.74v-1.08l1-.12v1.2h1.51v.79h-1.52v2.79c0,.55.25.78.67.78.33,0,.56-.09.85-.28l.19.83Z" style="fill:#363b68;"/><path d="m177.32,254.89c.38,0,.69.26.69.66,0,.37-.31.66-.69.66-.35,0-.66-.29-.66-.66,0-.4.31-.66.66-.66Zm.51,2.29v5.08h-.99v-5.08h.99Z" style="fill:#363b68;"/><path d="m179.08,259.68c0-1.73.91-2.63,2.31-2.63s2.32.9,2.32,2.63-.91,2.71-2.32,2.71-2.31-.97-2.31-2.71Zm.98.01c0,1.28.45,1.91,1.33,1.91s1.34-.64,1.34-1.91-.46-1.84-1.34-1.84-1.33.59-1.33,1.84Z" style="fill:#363b68;"/><path d="m185.86,258.15c.27-.76.86-1.1,1.63-1.1.84,0,1.54.46,1.54,1.57v3.63h-.99v-3.33c0-.63-.29-1.01-.89-1.01s-1.2.33-1.2,1.43v2.92h-.99v-5.08h.78l.12.98Z" style="fill:#363b68;"/><path d="m193.48,254.89c.38,0,.69.26.69.66,0,.37-.31.66-.69.66-.35,0-.66-.29-.66-.66,0-.4.31-.66.66-.66Zm.51,2.29v5.08h-.99v-5.08h.99Z" style="fill:#363b68;"/><path d="m195.95,260.85c.08.58.5.84,1.1.84s1.01-.22,1.01-.68c0-.42-.19-.65-.79-.8l-.75-.18c-.92-.22-1.28-.69-1.28-1.44,0-1.14.95-1.53,1.91-1.53,1.07,0,1.73.39,1.83,1.38l-.97.11c-.03-.51-.34-.74-.92-.74s-.89.25-.89.68c0,.36.14.59.69.71l.7.17c.9.22,1.41.64,1.41,1.53,0,1.09-.86,1.5-1.97,1.5s-1.83-.35-1.97-1.28l.88-.26Z" style="fill:#363b68;"/><path d="m206.17,261.06c0,.38.18.47.37.47.12,0,.21-.02.29-.05v.77c-.14.05-.32.09-.54.09-.58,0-.96-.24-1.04-.81-.26.64-.86.87-1.51.87-.89,0-1.52-.51-1.52-1.38,0-1.12.87-1.77,2.95-1.67v-.63c0-.63-.37-.87-.91-.87s-.88.29-.92.81l-.95-.14c.08-1.08,1.02-1.46,1.96-1.46.99,0,1.83.4,1.83,1.56v2.44Zm-1-1.07c-1.36-.03-1.96.28-1.96.91,0,.42.28.74.81.74s1.14-.32,1.14-.91v-.74Z" style="fill:#363b68;"/><path d="m209.59,262.26c-.26.07-.44.09-.62.09-.64,0-1.17-.34-1.17-1.1v-6.34h.99v6.13c0,.32.19.45.45.45.14,0,.24-.02.35-.05v.83Z" style="fill:#363b68;"/><path d="m213.59,258.17c-.12-.02-.29-.04-.45-.04-.71,0-1.41.56-1.41,1.55v2.57h-.99v-5.08h.84l.12,1.38c.2-.91.84-1.54,1.97-1.48l-.08,1.11Z" style="fill:#363b68;"/><path d="m217.52,260.78l.87.23c-.21,1.02-1.07,1.38-2.04,1.38-1.35,0-2.27-.93-2.27-2.63s.9-2.71,2.32-2.71c1.31,0,2.01.9,2.01,2.17,0,.29-.04.55-.1.7h-3.28c.04.99.51,1.68,1.36,1.68.56,0,.94-.22,1.11-.83Zm-.08-1.57c.01-.08.01-.14.01-.21,0-.65-.42-1.17-1.1-1.17-.73,0-1.19.5-1.29,1.38h2.38Z" style="fill:#363b68;"/><path d="m223.27,261.06c0,.38.18.47.37.47.12,0,.21-.02.29-.05v.77c-.14.05-.32.09-.54.09-.58,0-.96-.24-1.04-.81-.26.64-.86.87-1.51.87-.89,0-1.52-.51-1.52-1.38,0-1.12.87-1.77,2.95-1.67v-.63c0-.63-.37-.87-.91-.87s-.88.29-.92.81l-.95-.14c.08-1.08,1.02-1.46,1.96-1.46.99,0,1.83.4,1.83,1.56v2.44Zm-1-1.07c-1.36-.03-1.96.28-1.96.91,0,.42.28.74.81.74s1.14-.32,1.14-.91v-.74Z" style="fill:#363b68;"/><path d="m228.27,254.91h1v7.35h-.88l-.11-.88c-.29.77-.89,1.01-1.62,1.01-1.07,0-2.01-.87-2.01-2.58s.83-2.75,2.28-2.75c.65,0,1.2.36,1.34.8v-2.95Zm.01,4.2c0-.9-.68-1.29-1.26-1.29-.75,0-1.36.52-1.36,1.95,0,1.2.53,1.84,1.35,1.84.56,0,1.28-.45,1.28-1.38v-1.12Z" style="fill:#363b68;"/><path d="m232.11,259.97c.31.99.4,1.61.4,1.61h.04s.09-.61.39-1.61l.85-2.79h1.03l-1.87,5.5c-.52,1.5-1.17,1.87-2.07,1.87-.24,0-.52-.04-.74-.12l.09-.85c.22.11.42.15.66.15.54,0,.85-.29,1.14-1.18l-1.88-5.38h1.09l.87,2.79Z" style="fill:#363b68;"/></g><g><path d="m108.49,275.97c-.18,1.02-.99,1.42-1.99,1.42-1.33,0-2.24-.95-2.24-2.64s.91-2.7,2.32-2.7c1.08,0,1.78.57,1.85,1.58l-.9.19c-.09-.64-.43-.96-.99-.96-.87,0-1.32.77-1.32,1.88s.53,1.85,1.36,1.85c.54,0,.9-.25,1.06-.84l.86.21Z" style="fill:#363b68;"/><path d="m109.29,274.69c0-1.73.91-2.63,2.31-2.63s2.32.9,2.32,2.63-.91,2.71-2.32,2.71-2.31-.97-2.31-2.71Zm.98.01c0,1.28.45,1.91,1.33,1.91s1.34-.64,1.34-1.91-.46-1.84-1.34-1.84-1.33.59-1.33,1.84Z" style="fill:#363b68;"/><path d="m116.08,273.16c.27-.76.86-1.1,1.63-1.1.84,0,1.54.46,1.54,1.57v3.63h-.99v-3.33c0-.63-.29-1.01-.89-1.01s-1.2.33-1.2,1.43v2.92h-.99v-5.08h.78l.12.98Z" style="fill:#363b68;"/><path d="m123.53,277.1c-.33.2-.76.3-1.23.3-.91,0-1.46-.48-1.46-1.43v-2.99h-.74v-.79h.74v-1.08l1-.12v1.2h1.51v.79h-1.52v2.79c0,.55.25.78.67.78.33,0,.56-.09.85-.28l.19.83Z" style="fill:#363b68;"/><path d="m128.05,276.06c0,.38.18.47.37.47.12,0,.21-.02.29-.05v.77c-.14.05-.32.09-.54.09-.58,0-.96-.24-1.04-.81-.26.64-.86.87-1.51.87-.89,0-1.52-.51-1.52-1.38,0-1.12.87-1.77,2.95-1.67v-.63c0-.63-.37-.87-.91-.87s-.88.29-.92.81l-.95-.14c.08-1.08,1.02-1.46,1.96-1.46.99,0,1.83.4,1.83,1.56v2.44Zm-1-1.07c-1.36-.03-1.96.28-1.96.91,0,.42.28.74.81.74s1.14-.32,1.14-.91v-.74Z" style="fill:#363b68;"/><path d="m130.24,269.89c.38,0,.69.26.69.66,0,.37-.31.66-.69.66-.35,0-.66-.29-.66-.66,0-.4.31-.66.66-.66Zm.51,2.29v5.08h-.99v-5.08h.99Z" style="fill:#363b68;"/><path d="m133.23,273.16c.27-.76.86-1.1,1.63-1.1.84,0,1.54.46,1.54,1.57v3.63h-.99v-3.33c0-.63-.29-1.01-.89-1.01s-1.2.33-1.2,1.43v2.92h-.99v-5.08h.78l.12.98Z" style="fill:#363b68;"/><path d="m141.03,275.79l.87.23c-.21,1.02-1.07,1.38-2.04,1.38-1.35,0-2.27-.93-2.27-2.63s.9-2.71,2.32-2.71c1.31,0,2.01.9,2.01,2.17,0,.29-.04.55-.1.7h-3.28c.04.99.51,1.68,1.36,1.68.56,0,.94-.22,1.11-.83Zm-.08-1.57c.01-.08.01-.14.01-.21,0-.65-.42-1.17-1.1-1.17-.73,0-1.19.5-1.29,1.38h2.38Z" style="fill:#363b68;"/><path d="m146.47,269.91h1v7.35h-.88l-.11-.88c-.29.77-.89,1.01-1.62,1.01-1.07,0-2.01-.87-2.01-2.58s.83-2.75,2.28-2.75c.65,0,1.2.36,1.34.8v-2.95Zm.01,4.2c0-.9-.68-1.29-1.27-1.29-.75,0-1.36.52-1.36,1.95,0,1.2.53,1.84,1.35,1.84.56,0,1.28-.45,1.28-1.38v-1.12Z" style="fill:#363b68;"/><path d="m151.97,269.89c.38,0,.69.26.69.66,0,.37-.31.66-.69.66-.35,0-.66-.29-.66-.66,0-.4.31-.66.66-.66Zm.51,2.29v5.08h-.99v-5.08h.99Z" style="fill:#363b68;"/><path d="m154.97,273.16c.27-.76.86-1.1,1.63-1.1.84,0,1.54.46,1.54,1.57v3.63h-.99v-3.33c0-.63-.29-1.01-.89-1.01s-1.2.33-1.2,1.43v2.92h-.99v-5.08h.78l.12.98Z" style="fill:#363b68;"/><path d="m164.84,277.1c-.33.2-.76.3-1.23.3-.91,0-1.46-.48-1.46-1.43v-2.99h-.74v-.79h.74v-1.08l1-.12v1.2h1.51v.79h-1.52v2.79c0,.55.25.78.67.78.33,0,.56-.09.85-.28l.19.83Z" style="fill:#363b68;"/><path d="m166.79,273.15c.24-.73.77-1.09,1.54-1.09.84,0,1.54.46,1.54,1.57v3.63h-.99v-3.34c0-.62-.29-1-.89-1s-1.2.32-1.2,1.43v2.92h-.99v-7.35h.99v3.23Z" style="fill:#363b68;"/><path d="m174.5,275.79l.87.23c-.21,1.02-1.07,1.38-2.04,1.38-1.35,0-2.27-.93-2.27-2.63s.9-2.71,2.32-2.71c1.31,0,2.01.9,2.01,2.17,0,.29-.04.55-.1.7h-3.28c.04.99.51,1.68,1.36,1.68.56,0,.94-.22,1.11-.83Zm-.08-1.57c.01-.08.01-.14.01-.21,0-.65-.42-1.17-1.1-1.17-.73,0-1.19.5-1.29,1.38h2.38Z" style="fill:#363b68;"/><path d="m182.71,272.18h.67v7.32h-.99v-3.11c-.29.77-.89,1.01-1.62,1.01-1.07,0-2.01-.87-2.01-2.58s.83-2.75,2.27-2.75c.67,0,1.22.36,1.39.78l.3-.66Zm-.32,1.94c0-.9-.68-1.29-1.26-1.29-.75,0-1.36.52-1.36,1.95,0,1.2.53,1.84,1.35,1.84.56,0,1.28-.45,1.28-1.39v-1.11Z" style="fill:#363b68;"/><path d="m188,276.34c-.24.75-.76,1.06-1.56,1.06-.92,0-1.54-.47-1.54-1.68v-3.53h.99v3.38c0,.75.29,1.1.91,1.1.55,0,1.18-.5,1.18-1.47v-3h.99v5.08h-.85l-.12-.92Z" style="fill:#363b68;"/><path d="m193.65,275.79l.87.23c-.21,1.02-1.07,1.38-2.04,1.38-1.35,0-2.27-.93-2.27-2.63s.9-2.71,2.32-2.71c1.31,0,2.01.9,2.01,2.17,0,.29-.04.55-.1.7h-3.28c.04.99.51,1.68,1.36,1.68.56,0,.94-.22,1.11-.83Zm-.08-1.57c.01-.08.01-.14.01-.21,0-.65-.42-1.17-1.1-1.17-.73,0-1.19.5-1.29,1.38h2.38Z" style="fill:#363b68;"/><path d="m196.19,275.85c.08.58.5.84,1.1.84s1.01-.22,1.01-.68c0-.42-.19-.65-.79-.8l-.75-.18c-.92-.22-1.28-.69-1.28-1.44,0-1.14.95-1.53,1.91-1.53,1.07,0,1.73.39,1.83,1.38l-.97.11c-.03-.51-.34-.74-.92-.74s-.89.25-.89.68c0,.36.14.59.69.71l.7.17c.9.22,1.41.64,1.41,1.53,0,1.09-.86,1.5-1.97,1.5s-1.83-.35-1.97-1.28l.88-.26Z" style="fill:#363b68;"/><path d="m203.17,277.1c-.33.2-.76.3-1.23.3-.91,0-1.46-.48-1.46-1.43v-2.99h-.74v-.79h.74v-1.08l1-.12v1.2h1.51v.79h-1.52v2.79c0,.55.25.78.67.78.33,0,.56-.09.85-.28l.19.83Z" style="fill:#363b68;"/><path d="m204.61,269.89c.38,0,.69.26.69.66,0,.37-.31.66-.69.66-.35,0-.66-.29-.66-.66,0-.4.31-.66.66-.66Zm.51,2.29v5.08h-.99v-5.08h.99Z" style="fill:#363b68;"/><path d="m206.37,274.69c0-1.73.91-2.63,2.31-2.63s2.32.9,2.32,2.63-.91,2.71-2.32,2.71-2.31-.97-2.31-2.71Zm.98.01c0,1.28.45,1.91,1.33,1.91s1.34-.64,1.34-1.91-.46-1.84-1.34-1.84-1.33.59-1.33,1.84Z" style="fill:#363b68;"/><path d="m213.16,273.16c.27-.76.86-1.1,1.63-1.1.84,0,1.54.46,1.54,1.57v3.63h-.99v-3.33c0-.63-.29-1.01-.89-1.01s-1.2.33-1.2,1.43v2.92h-.99v-5.08h.78l.12.98Z" style="fill:#363b68;"/><path d="m218.63,275.83c.42,0,.75.32.75.75s-.33.75-.75.75-.75-.33-.75-.75.33-.75.75-.75Z" style="fill:#363b68;"/></g><g><path d="m11.42,198.51c.12.54.51.74.95.74.35,0,.59-.12.59-.35,0-.25-.2-.35-.6-.45l-.75-.18c-.88-.23-1.31-.74-1.31-1.53,0-1.32,1.06-1.68,2.13-1.68,1.25,0,2,.45,2.07,1.45l-1.52.22c-.06-.37-.26-.47-.63-.47-.26,0-.46.12-.46.33,0,.22.15.33.43.39l.73.14c1.08.22,1.54.83,1.54,1.67,0,1.16-.96,1.61-2.23,1.61s-2.05-.35-2.26-1.32l1.32-.56Z" style="fill:#363b68;"/><path d="m17.2,202.49h-1.63v-7.32h1.41l.21.98c.3-.81.94-1.1,1.66-1.1,1.24,0,1.95.94,1.95,2.54,0,1.71-.8,2.79-2.18,2.79-.77,0-1.29-.37-1.42-.8v2.9Zm-.01-4.36c0,.84.5,1.09.89,1.09.58,0,1.08-.48,1.08-1.49s-.39-1.39-.99-1.39c-.47,0-.98.4-.98,1.17v.62Z" style="fill:#363b68;"/><path d="m24.82,198.5l1.39.5c-.29,1.02-1.22,1.4-2.22,1.4-1.49,0-2.52-.96-2.52-2.58,0-1.76.96-2.75,2.53-2.75,1.47,0,2.19.96,2.19,2.28,0,.21-.02.43-.07.66h-3.08c.02.7.35,1.14.97,1.14.34,0,.65-.12.81-.64Zm-.2-1.36c.01-.06.01-.1.01-.15,0-.42-.22-.73-.69-.73s-.81.39-.86.88h1.54Z" style="fill:#363b68;"/><path d="m31.58,198.86c-.2,1.02-1.09,1.53-2.2,1.53-1.52,0-2.52-.97-2.52-2.65s1-2.68,2.52-2.68c1.24,0,2.05.68,2.12,1.69l-1.36.41c-.07-.52-.29-.83-.76-.83-.61,0-.94.52-.94,1.38,0,.92.34,1.43.95,1.43.35,0,.62-.18.74-.75l1.45.47Z" style="fill:#363b68;"/><path d="m33.22,192.74c.57,0,1,.3,1,.91s-.43.9-1,.9c-.53,0-.97-.31-.97-.9s.44-.91.97-.91Zm.81,2.44v5.08h-1.63v-5.08h1.63Z" style="fill:#363b68;"/><path d="m34.8,196.43v-1.25h.75v-.27c0-1.6,1.25-2.08,2.37-2.08.68,0,1.21.15,1.63.37l-.56,1.31c-.25-.19-.63-.31-.95-.31-.4,0-.86.14-.86.76v.22h3.11v5.08h-1.63v-3.83h-1.49v3.83h-1.63v-3.83h-.75Z" style="fill:#363b68;"/><path d="m46,198.86c-.2,1.02-1.09,1.53-2.2,1.53-1.52,0-2.52-.97-2.52-2.65s1-2.68,2.52-2.68c1.24,0,2.05.68,2.12,1.69l-1.36.41c-.07-.52-.29-.83-.76-.83-.61,0-.94.52-.94,1.38,0,.92.34,1.43.95,1.43.35,0,.62-.18.74-.75l1.45.47Z" style="fill:#363b68;"/></g><g style="clip-path:url(#c);"><path d="m10.33,142.29c2.81-3.89,5.38-7.71,7.87-11.4,12.57-18.65,22.51-33.39,46.54-33.39,12.7,0,26.77,15.95,41.67,32.84,19.15,21.71,40.86,46.31,66.33,46.31s34.13-9.37,42.52-17.65c7.23-7.12,14.06-13.85,29.48-13.85,8.92,0,17.2,4.22,25.97,8.69,17.1,8.72,36.49,18.6,64.67-3.55" style="fill:none; stroke:#e94278;"/></g></svg>