<?xml version="1.0" encoding="UTF-8"?><svg xmlns="http://www.w3.org/2000/svg" viewBox="0 0 375.65 353.19"><g id="d"><rect x="60.13" y="109.1" width="93.56" height="93.56" style="fill:#8e9ace;"/><rect x="117.16" y="158.31" width="11.73" height="11.73" transform="translate(-80.06 135.08) rotate(-45)" style="fill:#fff;"/><circle cx="90.6" cy="135.38" r="9.13" style="fill:#fff;"/><rect x="20.8" y="160.27" width="81.69" height="81.69" style="fill:#b6bde0;"/><rect x="68.75" y="229.18" width="103.51" height="103.51" style="fill:#e3e5f3;"/><path d="m262.53,239.08l3.47,30.19c.13,1.61-1.04,4.05-2.66,4.21l-77.42,44.94c-.1,0-.2.02-.29.02-.7,0-1.38-.25-1.91-.7-.61-.52-.99-1.26-1.04-2.05l-2.6-63.37c-2.98.33-7.69.76-12.51.76-10.58,0-16.66-2.08-18.6-6.37-3.08-6.77-2.31-24.81-1.83-32.29-10.7-.6-22.41-2.51-23.9-7.93-1.08-3.96,2.4-9.48,8.66-18.89,3.68-5.53,7.48-11.25,9.21-15.71,2.7-6.92,1.99-12.72,1.36-17.83-.27-2.27-.54-4.42-.47-6.47.01-.42,1.98-42.57,54.71-56.67,7.56-2.03,15.29-3.05,22.95-3.05,41.09,0,74.75,29.2,78.28,67.92,3.93,43.18-28.81,76.97-35.4,83.3Z" style="fill:#2a5caa;"/><polygon points="240.35 165.2 216.04 165.2 213.05 143.16 243.34 143.16 240.35 165.2" style="fill:#b6bde0;"/><path d="m268.54,96.38c0,8.94-7.31,22.74-12.66,31.65-3.1,5.16-5.55,8.7-5.55,8.7,0,.76-.1,1.77-.28,2.92-.97,5.99-4.3,15.92-8.26,15.92h-27.17c-3.96,0-7.29-9.93-8.26-15.92-.19-1.15-.28-2.16-.28-2.92,0,0-2.44-3.54-5.55-8.7-5.35-8.91-12.65-22.71-12.65-31.65,0-22.27,18.06-40.33,40.33-40.33s40.35,18.06,40.35,40.33Z" style="fill:#fff;"/><polyline points="299.71 26.1 299.71 59.1 313.25 59.1 313.25 80.82 243.34 80.82 228.2 80.82 228.2 94.99" style="fill:none; stroke:#b6bde0; stroke-miterlimit:10; stroke-width:3px;"/><polyline points="350.69 70.22 336.03 70.22 336.03 84.22 328 84.22 328 94.99 246.22 94.99 228.2 94.99 228.2 110.48" style="fill:none; stroke:#b6bde0; stroke-miterlimit:10; stroke-width:3px;"/><polyline points="273.47 160.27 312.66 160.27 312.66 128.46 319.95 128.46 319.95 110.48 243.34 110.48 228.2 110.48 228.2 138.42" style="fill:none; stroke:#b6bde0; stroke-miterlimit:10; stroke-width:3px;"/><rect x="294.12" y="15.68" width="11.73" height="11.73" style="fill:#8e9ace;"/><rect x="262.67" y="154.52" width="11.73" height="11.73" style="fill:#8e9ace;"/><circle cx="350.69" cy="70.22" r="5.87" style="fill:#8e9ace;"/><path d="m255.88,128.03c-3.1,5.16-5.55,8.7-5.55,8.7,0,.76-.1,1.77-.28,2.92h-43.69c-.19-1.15-.28-2.16-.28-2.92,0,0-2.44-3.54-5.55-8.7h55.37Z" style="fill:#fff;"/><path d="m132.24,312.76l-.02-3c2.2-.02,4.5-.14,6.84-.38l.3,2.98c-2.44.25-4.84.38-7.13.4Zm-5.11-.16c-2.46-.18-4.85-.51-7.11-.99l.62-2.94c2.13.45,4.39.76,6.71.93l-.22,2.99Zm-12.09-2.32c-2.34-.77-4.58-1.73-6.66-2.86l1.43-2.64c1.92,1.04,4,1.93,6.17,2.65l-.94,2.85Zm-11.04-5.63c-1.94-1.42-3.77-3.05-5.43-4.83l2.2-2.04c1.53,1.65,3.21,3.14,5,4.45l-1.77,2.42Zm-8.71-8.85c-1.37-1.92-2.62-4-3.71-6.21l2.69-1.33c1.02,2.06,2.19,4.01,3.46,5.8l-2.44,1.74Zm-5.76-10.94c-.83-2.2-1.53-4.51-2.1-6.88l2.92-.7c.54,2.25,1.21,4.45,1.99,6.52l-2.81,1.05Zm-3.08-11.92c-.6-3.95-.63-6.68-.63-7.19l3-.05v.05c0,.29.02,2.91.6,6.73l-2.96.45Z" style="fill:#b6bde0;"/><rect x="81.45" y="247.14" width="11.73" height="11.73" style="fill:#8e9ace;"/><circle cx="153.69" cy="307.17" r="5.87" style="fill:#8e9ace;"/><line x1="30.74" y1="184.47" x2="91.45" y2="184.47" style="fill:#fac9d0; stroke:#fff; stroke-miterlimit:10; stroke-width:4px;"/><line x1="30.74" y1="198.75" x2="63.64" y2="198.75" style="fill:#fac9d0; stroke:#fff; stroke-miterlimit:10; stroke-width:4px;"/><line x1="29.89" y1="213.88" x2="78.48" y2="213.03" style="fill:#fac9d0; stroke:#fff; stroke-miterlimit:10; stroke-width:4px;"/></g><g id="e"><path d="m266.55,98.05c17.48,12.24,29.36,31.27,31.37,53.41,3.93,43.18-28.81,76.97-35.4,83.3l1.92,21.42" style="fill:none; stroke:#32406d; stroke-miterlimit:10;"/><path d="m181.97,295.17l-1.9-47.18c-2.98.33-7.69.76-12.51.76-10.58,0-16.66-2.08-18.6-6.37-3.08-6.77-2.31-24.81-1.83-32.29-10.7-.6-22.41-2.51-23.9-7.93-1.08-3.96,2.4-9.48,8.66-18.89,3.68-5.53,7.48-11.25,9.21-15.71,2.7-6.92,1.99-12.72,1.36-17.83-.27-2.27-.54-4.42-.47-6.47.01-.39,1.72-37.03,44.64-53.43" style="fill:none; stroke:#32406d; stroke-miterlimit:10;"/><polyline points="58.43 156.87 58.43 105.7 151.99 105.7 151.99 116.18" style="fill:none; fill-rule:evenodd; stroke:#32406d; stroke-miterlimit:10;"/><line x1="123.17" y1="199.26" x2="101.11" y2="199.26" style="fill:none; stroke:#32406d; stroke-miterlimit:10;"/><rect x="115.46" y="154.91" width="11.73" height="11.73" transform="translate(-78.15 132.88) rotate(-45)" style="fill:none; stroke:#32406d; stroke-miterlimit:10; stroke-width:3px;"/><circle cx="88.9" cy="131.97" r="9.13" style="fill:none; stroke:#32406d; stroke-miterlimit:10; stroke-width:3px;"/><polyline points="67.05 238.56 19.1 238.56 19.1 156.87 100.79 156.87 100.79 225.78" style="fill:none; fill-rule:evenodd; stroke:#32406d; stroke-miterlimit:10;"/><polyline points="170.56 248.71 170.56 329.29 67.05 329.29 67.05 225.78 146.39 225.78" style="fill:none; fill-rule:evenodd; stroke:#32406d; stroke-miterlimit:10;"/><polyline points="239.96 153.85 238.65 163.5 214.34 163.5 213.03 153.85" style="fill:none; stroke:#32406d; stroke-miterlimit:10;"/><path d="m266.84,94.68c0,8.94-7.31,22.74-12.66,31.65-3.1,5.16-5.55,8.7-5.55,8.7,0,.76-.1,1.77-.28,2.92-.97,5.99-4.3,15.92-8.26,15.92h-27.17c-3.96,0-7.29-9.93-8.26-15.92-.19-1.15-.28-2.16-.28-2.92,0,0-2.44-3.54-5.55-8.7-5.35-8.91-12.65-22.71-12.65-31.65,0-22.27,18.06-40.33,40.33-40.33s40.35,18.06,40.35,40.33Z" style="fill:none; stroke:#32406d; stroke-miterlimit:10;"/><polyline points="298.01 23.55 298.01 55.69 311.55 55.69 311.55 77.42 241.64 77.42 226.5 77.42 226.5 91.59" style="fill:none; stroke:#32406d; stroke-miterlimit:10;"/><polyline points="343.88 66.82 334.33 66.82 334.33 80.82 326.3 80.82 326.3 91.59 244.52 91.59 226.5 91.59 226.5 107.08" style="fill:none; stroke:#32406d; stroke-miterlimit:10;"/><polyline points="272.62 156.87 310.96 156.87 310.96 125.05 318.25 125.05 318.25 107.08 241.64 107.08 226.5 107.08 226.5 126.33" style="fill:none; stroke:#32406d; stroke-miterlimit:10;"/><g><rect x="293.92" y="13.78" width="8.73" height="8.73" style="fill:#fff;"/><path d="m301.15,15.28v5.73h-5.73v-5.73h5.73m3-3h-11.73v11.73h11.73v-11.73h0Z" style="fill:#32406d;"/></g><g><rect x="262.47" y="152.62" width="8.73" height="8.73" style="fill:#fff;"/><path d="m269.7,154.12v5.73h-5.73v-5.73h5.73m3-3h-11.73v11.73h11.73v-11.73h0Z" style="fill:#32406d;"/></g><path d="m254.18,126.33c-3.1,5.16-5.55,8.7-5.55,8.7,0,.76-.1,1.77-.28,2.92h-43.69c-.19-1.15-.28-2.16-.28-2.92,0,0-2.44-3.54-5.55-8.7h55.37Z" style="fill:#32406d; stroke:#32406d; stroke-miterlimit:10;"/><g><circle cx="349.84" cy="67.23" r="4.37" style="fill:#fff;"/><path d="m349.84,64.36c1.58,0,2.87,1.29,2.87,2.87s-1.29,2.87-2.87,2.87-2.87-1.29-2.87-2.87,1.29-2.87,2.87-2.87m0-3c-3.24,0-5.87,2.63-5.87,5.87s2.63,5.87,5.87,5.87,5.87-2.63,5.87-5.87-2.63-5.87-5.87-5.87h0Z" style="fill:#32406d;"/></g><rect x="79.75" y="244.59" width="11.73" height="11.73" style="fill:none; stroke:#32406d; stroke-miterlimit:10; stroke-width:3px;"/><circle cx="151.99" cy="304.62" r="5.87" style="fill:none; stroke:#32406d; stroke-miterlimit:10; stroke-width:3px;"/><path d="m130.54,311.91l-.02-3c2.2-.02,4.5-.14,6.84-.38l.3,2.98c-2.44.25-4.84.38-7.13.4Zm-5.11-.16c-2.46-.18-4.85-.51-7.11-.99l.62-2.94c2.13.45,4.39.76,6.71.93l-.22,2.99Zm-12.09-2.32c-2.34-.77-4.58-1.73-6.66-2.86l1.43-2.64c1.92,1.04,4,1.93,6.17,2.65l-.94,2.85Zm-11.04-5.63c-1.94-1.42-3.77-3.05-5.43-4.83l2.2-2.04c1.53,1.65,3.21,3.14,5,4.45l-1.77,2.42Zm-8.71-8.85c-1.37-1.92-2.62-4-3.71-6.21l2.69-1.33c1.02,2.06,2.19,4.01,3.46,5.8l-2.44,1.74Zm-5.76-10.94c-.83-2.2-1.53-4.51-2.1-6.88l2.92-.7c.54,2.25,1.21,4.45,1.99,6.52l-2.81,1.05Zm-3.08-11.92c-.6-3.95-.63-6.68-.63-7.19l3-.05v.05c0,.29.02,2.91.6,6.73l-2.96.45Z" style="fill:none; stroke:#32406d; stroke-miterlimit:10;"/><line x1="29.89" y1="181.94" x2="90.6" y2="181.94" style="fill:none; stroke:#32406d; stroke-miterlimit:10; stroke-width:3px;"/><line x1="29.89" y1="196.63" x2="62.79" y2="196.63" style="fill:none; stroke:#32406d; stroke-miterlimit:10; stroke-width:3px;"/><line x1="29.89" y1="211.33" x2="77.63" y2="211.33" style="fill:none; stroke:#32406d; stroke-miterlimit:10; stroke-width:3px;"/></g></svg>