<svg width="483" height="483" viewBox="0 0 483 483" fill="none" xmlns="http://www.w3.org/2000/svg">
<path d="M124 120.5L362 359" stroke="#EBECF6"/>
<path d="M120 358.5L358 120.5" stroke="#EBECF6"/>
<rect x="159.078" y="240.827" width="119.239" height="119.239" transform="rotate(-45 159.078 240.827)" fill="#36539B"/>
<path d="M220.374 82.2865L221.6 82.065C221.583 83.3767 222.333 83.9217 223.593 83.9217C224.871 83.9217 225.688 83.3596 225.688 82.1161C225.688 81.077 225.228 80.6171 223.849 80.0891C222.622 79.6121 221.566 79.0841 221.566 77.3977C221.566 75.2003 223.508 74.5019 224.905 74.5019C226.847 74.5019 227.937 75.2003 227.937 77.1422L226.659 77.3466C226.693 76.1712 226.046 75.5239 224.803 75.5239C223.644 75.5239 222.827 76.1542 222.827 77.2103C222.827 78.2664 223.457 78.5219 224.7 79.033C226.165 79.6462 227.034 80.3105 227.034 81.9458C227.034 84.041 225.382 84.9438 223.457 84.9438C221.464 84.9438 220.374 84.1262 220.374 82.2865ZM232.426 83.4618V84.552C231.949 84.8246 231.335 84.9438 230.875 84.9438C229.547 84.9438 228.831 84.2284 229.138 82.559L229.956 77.9087H228.865L229.053 76.8696H230.16L230.45 75.2173L231.761 75.0299L231.438 76.8696H233.499L233.311 77.9087H231.267L230.416 82.6953C230.262 83.53 230.62 83.8536 231.08 83.8536C231.557 83.8536 231.88 83.7684 232.426 83.4618ZM239.303 81.4518L239.542 80.1231C239.746 78.9307 239.252 77.7043 237.992 77.7043C236.424 77.7043 235.266 79.3225 235.266 81.571C235.266 82.8997 235.845 83.8706 237.004 83.8706C238.196 83.8706 239.048 82.9508 239.303 81.4518ZM241.415 76.8696L240.325 83.053C240.257 83.4448 240.274 83.8195 240.768 83.8195C240.904 83.8195 241.058 83.8025 241.262 83.7514L241.092 84.6883C240.853 84.7734 240.564 84.8246 240.274 84.8246C239.422 84.8246 238.98 84.3306 239.048 83.4278C238.571 84.5009 237.634 84.9438 236.646 84.9438C235.13 84.9438 234.006 83.8025 234.006 81.7243C234.006 79.033 235.556 76.6822 237.872 76.6822C238.963 76.6822 239.712 77.1592 239.916 78.1983L240.342 76.8696H241.415ZM248.253 81.5029L248.508 80.1231C248.713 78.9478 248.253 77.7043 246.975 77.7043C245.357 77.7043 244.216 79.3566 244.216 81.5881C244.216 82.9167 244.761 83.8706 245.936 83.8706C247.18 83.8706 247.997 82.9849 248.253 81.5029ZM250.365 76.8696L248.934 84.9949C248.525 87.2604 247.418 88.3336 245.118 88.3336C243.023 88.3336 242.24 87.3115 242.103 86.1532L243.262 85.7614C243.33 86.6642 244.028 87.3797 245.204 87.3797C246.669 87.3797 247.333 86.528 247.622 85.046L247.929 83.4618C247.452 84.535 246.635 84.9268 245.63 84.9268C244.096 84.9268 242.955 83.7855 242.955 81.7073C242.955 79.033 244.539 76.6822 246.873 76.6822C247.963 76.6822 248.662 77.1592 248.866 78.1983L249.292 76.8696H250.365ZM254.589 83.9388C255.765 83.9388 256.242 83.4448 256.531 82.5931L257.707 82.8827C257.128 84.4839 256.003 84.9438 254.47 84.9438C252.579 84.9438 251.472 83.6151 251.472 81.6051C251.472 78.4027 253.414 76.6822 255.305 76.6822C257.315 76.6822 258.098 78.045 258.098 79.4929C258.098 80.038 257.996 80.5831 257.758 81.0941H252.682C252.562 82.4738 253.09 83.9388 254.589 83.9388ZM252.835 80.055H256.77C256.838 79.8676 256.855 79.6632 256.855 79.4588C256.855 78.5219 256.344 77.7043 255.237 77.7043C253.925 77.7043 253.142 78.8115 252.835 80.055ZM265.808 84.7394H264.479L265.689 77.8235L263.202 78.2835L263.406 77.1933L267.273 76.4097L265.808 84.7394Z" fill="#363C65"/>
<path d="M204.991 105.257L207.103 104.32C207.291 105.308 208.023 105.938 208.977 105.938C209.744 105.938 210.306 105.631 210.306 104.95C210.306 104.303 209.948 103.996 208.636 103.587C206.337 102.855 205.383 101.986 205.383 100.266C205.383 98.0002 207.154 97.2507 208.909 97.2507C210.97 97.2507 212.503 97.9491 212.708 99.8569L210.408 100.436C210.323 99.5503 209.658 99.1585 208.96 99.1585C208.313 99.1585 207.802 99.4481 207.802 100.095C207.802 100.794 208.347 101.066 209.522 101.424C211.634 102.088 212.708 102.804 212.708 104.729C212.708 106.909 210.936 107.71 208.807 107.71C206.831 107.71 205.502 107.062 204.991 105.257ZM217.795 105.955C218.408 105.955 218.919 105.717 219.174 104.882L221.116 105.546C220.708 107.147 219.294 107.71 217.744 107.71C215.495 107.71 213.945 106.228 213.945 103.69C213.945 100.981 215.41 99.4481 217.778 99.4481C220.009 99.4481 221.099 100.913 221.099 102.94C221.099 103.281 221.065 103.638 220.997 103.962H216.142C216.194 105.172 216.756 105.955 217.795 105.955ZM216.211 102.702H218.919C218.936 102.599 218.936 102.531 218.936 102.429C218.936 101.697 218.51 101.134 217.693 101.134C216.841 101.134 216.296 101.782 216.211 102.702ZM226.231 105.546L226.112 107.454C225.669 107.573 225.243 107.658 224.801 107.658C223.659 107.658 222.62 107.13 222.62 105.648V96.1264H224.903V104.984C224.903 105.478 225.209 105.666 225.618 105.666C225.823 105.666 226.027 105.631 226.231 105.546ZM230.87 105.955C231.483 105.955 231.994 105.717 232.249 104.882L234.191 105.546C233.783 107.147 232.369 107.71 230.819 107.71C228.57 107.71 227.02 106.228 227.02 103.69C227.02 100.981 228.485 99.4481 230.853 99.4481C233.084 99.4481 234.174 100.913 234.174 102.94C234.174 103.281 234.14 103.638 234.072 103.962H229.217C229.269 105.172 229.831 105.955 230.87 105.955ZM229.286 102.702H231.994C232.011 102.599 232.011 102.531 232.011 102.429C232.011 101.697 231.585 101.134 230.768 101.134C229.916 101.134 229.371 101.782 229.286 102.702ZM240.448 104.746L242.458 105.393C242.168 106.977 240.805 107.71 239.136 107.71C236.853 107.71 235.337 106.228 235.337 103.604C235.337 100.981 236.853 99.4481 239.153 99.4481C241.027 99.4481 242.219 100.453 242.338 102.037L240.414 102.565C240.294 101.731 239.903 101.237 239.136 101.237C238.114 101.237 237.552 102.139 237.552 103.57C237.552 105.069 238.148 105.955 239.17 105.955C239.783 105.955 240.243 105.648 240.448 104.746ZM248.705 105.274L249.096 107.199C248.432 107.539 247.614 107.71 246.678 107.71C245.11 107.71 244.088 106.977 244.088 105.172V101.39H242.947V99.6354H244.105V97.9661L246.388 97.6935V99.6354H248.722V101.39H246.371V104.66C246.371 105.495 246.695 105.768 247.325 105.768C247.819 105.768 248.245 105.597 248.705 105.274ZM258.03 105.035V104.235C256.429 104.184 255.866 104.609 255.866 105.308C255.866 105.768 256.19 106.091 256.735 106.091C257.331 106.091 258.03 105.802 258.03 105.035ZM260.278 102.054V105.12C260.278 105.648 260.5 105.836 260.857 105.836C261.045 105.836 261.198 105.785 261.351 105.717V107.369C261.028 107.573 260.602 107.658 260.057 107.658C259.052 107.658 258.439 107.267 258.183 106.415C257.825 107.386 256.974 107.71 255.901 107.71C254.504 107.71 253.584 106.892 253.584 105.546C253.584 103.792 254.998 102.838 258.03 103.008V102.259C258.03 101.577 257.74 101.168 257.11 101.168C256.48 101.168 256.156 101.594 256.122 102.327L253.856 101.901C253.976 100.232 255.39 99.4481 257.195 99.4481C259.154 99.4481 260.278 100.3 260.278 102.054ZM268.148 99.4651L267.892 101.986C267.603 101.884 267.364 101.85 267.006 101.85C266.104 101.85 264.996 102.293 264.996 103.911V107.505H262.714V99.6354H264.69L264.962 101.799C265.303 100.436 266.07 99.3458 268.148 99.4651ZM272.54 105.955C273.153 105.955 273.664 105.717 273.92 104.882L275.862 105.546C275.453 107.147 274.039 107.71 272.489 107.71C270.24 107.71 268.69 106.228 268.69 103.69C268.69 100.981 270.155 99.4481 272.523 99.4481C274.755 99.4481 275.845 100.913 275.845 102.94C275.845 103.281 275.811 103.638 275.742 103.962H270.888C270.939 105.172 271.501 105.955 272.54 105.955ZM270.956 102.702H273.664C273.681 102.599 273.681 102.531 273.681 102.429C273.681 101.697 273.256 101.134 272.438 101.134C271.586 101.134 271.041 101.782 270.956 102.702ZM281.385 105.035V104.235C279.784 104.184 279.222 104.609 279.222 105.308C279.222 105.768 279.545 106.091 280.091 106.091C280.687 106.091 281.385 105.802 281.385 105.035ZM283.634 102.054V105.12C283.634 105.648 283.855 105.836 284.213 105.836C284.4 105.836 284.554 105.785 284.707 105.717V107.369C284.383 107.573 283.957 107.658 283.412 107.658C282.407 107.658 281.794 107.267 281.538 106.415C281.181 107.386 280.329 107.71 279.256 107.71C277.859 107.71 276.939 106.892 276.939 105.546C276.939 103.792 278.353 102.838 281.385 103.008V102.259C281.385 101.577 281.096 101.168 280.465 101.168C279.835 101.168 279.511 101.594 279.477 102.327L277.212 101.901C277.331 100.232 278.745 99.4481 280.551 99.4481C282.509 99.4481 283.634 100.3 283.634 102.054ZM206.923 129.71C204.623 129.71 203.107 128.211 203.107 125.553C203.107 122.879 204.623 121.448 206.923 121.448C209.206 121.448 210.722 122.879 210.722 125.553C210.722 128.211 209.206 129.71 206.923 129.71ZM206.923 123.271C205.867 123.271 205.356 124.003 205.356 125.553C205.356 127.189 205.85 127.938 206.923 127.938C207.979 127.938 208.473 127.189 208.473 125.553C208.473 124.003 207.962 123.271 206.923 123.271ZM212.624 123.39H211.466V121.635H212.624V121.056C212.624 118.791 214.055 117.99 215.776 117.99C216.542 117.99 217.138 118.109 217.683 118.365L217.36 120.256C216.968 120.034 216.559 119.915 216.014 119.915C215.35 119.915 214.89 120.17 214.89 121.124V121.635H216.9V123.39H214.89V129.505H212.624V123.39ZM223.816 125.196V126.286C223.816 127.631 224.651 128.074 225.315 128.074C226.286 128.074 227.104 127.257 227.104 125.587C227.104 123.952 226.474 123.271 225.469 123.271C224.634 123.271 223.816 123.935 223.816 125.196ZM223.833 128.466V132.963H221.551V121.635H223.493L223.782 123.151C224.259 121.891 225.281 121.448 226.371 121.448C228.296 121.448 229.404 122.879 229.404 125.383C229.404 127.972 228.16 129.71 226.031 129.71C224.821 129.71 224.055 129.13 223.833 128.466ZM234.337 129.71C232.038 129.71 230.522 128.211 230.522 125.553C230.522 122.879 232.038 121.448 234.337 121.448C236.62 121.448 238.136 122.879 238.136 125.553C238.136 128.211 236.62 129.71 234.337 129.71ZM234.337 123.271C233.281 123.271 232.77 124.003 232.77 125.553C232.77 127.189 233.264 127.938 234.337 127.938C235.393 127.938 235.887 127.189 235.887 125.553C235.887 124.003 235.376 123.271 234.337 123.271ZM244.621 127.274L245.012 129.199C244.348 129.539 243.531 129.71 242.594 129.71C241.027 129.71 240.004 128.977 240.004 127.172V123.39H238.863V121.635H240.021V119.966L242.304 119.694V121.635H244.638V123.39H242.287V126.66C242.287 127.495 242.611 127.768 243.241 127.768C243.735 127.768 244.161 127.597 244.621 127.274ZM249.592 127.955C250.205 127.955 250.717 127.717 250.972 126.882L252.914 127.546C252.505 129.147 251.091 129.71 249.541 129.71C247.293 129.71 245.743 128.228 245.743 125.69C245.743 122.981 247.207 121.448 249.575 121.448C251.807 121.448 252.897 122.913 252.897 124.94C252.897 125.281 252.863 125.638 252.795 125.962H247.94C247.991 127.172 248.553 127.955 249.592 127.955ZM248.008 124.702H250.717C250.734 124.599 250.734 124.531 250.734 124.429C250.734 123.697 250.308 123.134 249.49 123.134C248.638 123.134 248.093 123.782 248.008 124.702ZM256.513 121.635L256.785 123.151C257.211 121.976 258.097 121.448 259.307 121.448C260.516 121.448 261.623 122.163 261.623 123.935V129.505H259.341V124.787C259.341 123.918 259.102 123.356 258.284 123.356C257.552 123.356 256.854 123.765 256.854 125.179V129.505H254.571V121.635H256.513ZM268.542 127.274L268.933 129.199C268.269 129.539 267.451 129.71 266.515 129.71C264.947 129.71 263.925 128.977 263.925 127.172V123.39H262.784V121.635H263.942V119.966L266.225 119.694V121.635H268.559V123.39H266.208V126.66C266.208 127.495 266.532 127.768 267.162 127.768C267.656 127.768 268.082 127.597 268.542 127.274ZM270.019 119.234C270.019 118.365 270.632 117.905 271.399 117.905C272.2 117.905 272.813 118.365 272.813 119.234C272.813 120.068 272.2 120.528 271.399 120.528C270.632 120.528 270.019 120.068 270.019 119.234ZM270.258 121.635H272.54V129.505H270.258V121.635ZM278.532 127.035V126.235C276.931 126.184 276.369 126.609 276.369 127.308C276.369 127.768 276.693 128.091 277.238 128.091C277.834 128.091 278.532 127.802 278.532 127.035ZM280.781 124.054V127.12C280.781 127.648 281.002 127.836 281.36 127.836C281.547 127.836 281.701 127.785 281.854 127.717V129.369C281.53 129.573 281.104 129.658 280.559 129.658C279.554 129.658 278.941 129.267 278.686 128.415C278.328 129.386 277.476 129.71 276.403 129.71C275.006 129.71 274.086 128.892 274.086 127.546C274.086 125.792 275.5 124.838 278.532 125.008V124.259C278.532 123.577 278.243 123.168 277.612 123.168C276.982 123.168 276.659 123.594 276.624 124.327L274.359 123.901C274.478 122.232 275.892 121.448 277.698 121.448C279.657 121.448 280.781 122.3 280.781 124.054ZM286.674 127.546L286.555 129.454C286.112 129.573 285.686 129.658 285.243 129.658C284.102 129.658 283.063 129.13 283.063 127.648V118.126H285.346V126.984C285.346 127.478 285.652 127.666 286.061 127.666C286.265 127.666 286.47 127.631 286.674 127.546Z" fill="#363C65"/>
<path d="M371.199 218.547L372.426 218.326C372.409 219.637 373.158 220.182 374.419 220.182C375.696 220.182 376.514 219.62 376.514 218.377C376.514 217.338 376.054 216.878 374.674 216.35C373.448 215.873 372.392 215.345 372.392 213.658C372.392 211.461 374.334 210.762 375.73 210.762C377.672 210.762 378.762 211.461 378.762 213.403L377.485 213.607C377.519 212.432 376.872 211.784 375.628 211.784C374.47 211.784 373.652 212.415 373.652 213.471C373.652 214.527 374.282 214.782 375.526 215.294C376.991 215.907 377.86 216.571 377.86 218.206C377.86 220.302 376.207 221.204 374.282 221.204C372.29 221.204 371.199 220.387 371.199 218.547ZM383.251 219.722V220.813C382.774 221.085 382.161 221.204 381.701 221.204C380.372 221.204 379.657 220.489 379.964 218.82L380.781 214.169H379.691L379.878 213.13H380.986L381.275 211.478L382.587 211.29L382.263 213.13H384.324L384.137 214.169H382.093L381.241 218.956C381.088 219.791 381.446 220.114 381.906 220.114C382.382 220.114 382.706 220.029 383.251 219.722ZM390.129 217.712L390.367 216.384C390.572 215.191 390.078 213.965 388.817 213.965C387.25 213.965 386.092 215.583 386.092 217.832C386.092 219.16 386.671 220.131 387.829 220.131C389.022 220.131 389.873 219.211 390.129 217.712ZM392.241 213.13L391.151 219.314C391.083 219.705 391.1 220.08 391.594 220.08C391.73 220.08 391.883 220.063 392.088 220.012L391.917 220.949C391.679 221.034 391.389 221.085 391.1 221.085C390.248 221.085 389.805 220.591 389.873 219.688C389.396 220.761 388.46 221.204 387.472 221.204C385.956 221.204 384.831 220.063 384.831 217.985C384.831 215.294 386.381 212.943 388.698 212.943C389.788 212.943 390.538 213.42 390.742 214.459L391.168 213.13H392.241ZM399.078 217.763L399.334 216.384C399.538 215.208 399.078 213.965 397.801 213.965C396.183 213.965 395.041 215.617 395.041 217.849C395.041 219.177 395.586 220.131 396.762 220.131C398.005 220.131 398.823 219.245 399.078 217.763ZM401.191 213.13L399.76 221.255C399.351 223.521 398.244 224.594 395.944 224.594C393.849 224.594 393.065 223.572 392.929 222.414L394.087 222.022C394.156 222.925 394.854 223.64 396.029 223.64C397.494 223.64 398.159 222.789 398.448 221.307L398.755 219.722C398.278 220.796 397.46 221.187 396.455 221.187C394.922 221.187 393.781 220.046 393.781 217.968C393.781 215.294 395.365 212.943 397.699 212.943C398.789 212.943 399.487 213.42 399.692 214.459L400.118 213.13H401.191ZM405.415 220.199C406.59 220.199 407.067 219.705 407.357 218.854L408.532 219.143C407.953 220.744 406.829 221.204 405.296 221.204C403.405 221.204 402.298 219.876 402.298 217.866C402.298 214.663 404.24 212.943 406.131 212.943C408.141 212.943 408.924 214.306 408.924 215.753C408.924 216.299 408.822 216.844 408.583 217.355H403.507C403.388 218.734 403.916 220.199 405.415 220.199ZM403.661 216.316H407.595C407.664 216.128 407.681 215.924 407.681 215.719C407.681 214.782 407.17 213.965 406.062 213.965C404.751 213.965 403.967 215.072 403.661 216.316ZM419.632 219.91L419.444 221H413.431L413.602 219.978C416.787 218.445 418.695 217.048 418.695 215.14C418.695 214.237 418.167 213.709 417.23 213.709C416.378 213.709 415.578 214.152 415.578 215.498L414.368 215.242C414.538 213.079 416.259 212.602 417.366 212.602C419.035 212.602 420.058 213.454 420.058 215.106C420.058 217.61 417.128 219.314 415.152 219.842V219.91H419.632Z" fill="#363C65"/>
<path d="M375.407 238.417H379.734V243.766H378.303L377.928 242.641C377.417 243.544 376.395 243.97 375.168 243.97C372.562 243.97 370.688 242.318 370.688 238.792C370.688 235.436 372.528 233.528 375.594 233.528C377.604 233.528 379.018 234.465 379.682 236.066L377.451 237.157C377.127 236.1 376.446 235.572 375.509 235.572C374.436 235.572 373.073 236.305 373.073 238.826C373.073 240.631 373.738 242.079 375.543 242.079C376.889 242.079 377.519 241.449 377.519 240.597V240.257H375.407V238.417ZM385.809 241.296V240.495C384.208 240.444 383.645 240.87 383.645 241.568C383.645 242.028 383.969 242.352 384.514 242.352C385.11 242.352 385.809 242.062 385.809 241.296ZM388.057 238.315V241.381C388.057 241.909 388.279 242.096 388.636 242.096C388.824 242.096 388.977 242.045 389.13 241.977V243.629C388.807 243.834 388.381 243.919 387.836 243.919C386.831 243.919 386.218 243.527 385.962 242.676C385.604 243.647 384.753 243.97 383.68 243.97C382.283 243.97 381.363 243.153 381.363 241.807C381.363 240.052 382.777 239.098 385.809 239.269V238.519C385.809 237.838 385.519 237.429 384.889 237.429C384.259 237.429 383.935 237.855 383.901 238.587L381.635 238.162C381.755 236.492 383.168 235.709 384.974 235.709C386.933 235.709 388.057 236.56 388.057 238.315ZM395.347 241.534L395.739 243.459C395.075 243.8 394.257 243.97 393.32 243.97C391.753 243.97 390.731 243.238 390.731 241.432V237.651H389.59V235.896H390.748V234.227L393.031 233.954V235.896H395.365V237.651H393.014V240.921C393.014 241.756 393.337 242.028 393.968 242.028C394.462 242.028 394.888 241.858 395.347 241.534ZM399.346 232.387V237.395C399.755 236.237 400.59 235.709 401.799 235.709C403.008 235.709 404.116 236.424 404.116 238.196V243.766H401.833V239.047C401.833 238.179 401.595 237.616 400.777 237.616C400.045 237.616 399.346 238.025 399.346 239.422V243.766H397.064V232.387H399.346ZM409.518 242.216C410.131 242.216 410.642 241.977 410.898 241.142L412.84 241.807C412.431 243.408 411.017 243.97 409.467 243.97C407.219 243.97 405.668 242.488 405.668 239.95C405.668 237.242 407.133 235.709 409.501 235.709C411.733 235.709 412.823 237.174 412.823 239.201C412.823 239.541 412.789 239.899 412.721 240.223H407.866C407.917 241.432 408.479 242.216 409.518 242.216ZM407.934 238.962H410.642C410.659 238.86 410.659 238.792 410.659 238.69C410.659 237.957 410.234 237.395 409.416 237.395C408.564 237.395 408.019 238.042 407.934 238.962ZM419.931 235.726L419.675 238.247C419.386 238.144 419.147 238.11 418.789 238.11C417.887 238.11 416.779 238.553 416.779 240.172V243.766H414.497V235.896H416.473L416.745 238.059C417.086 236.697 417.853 235.606 419.931 235.726ZM356.361 255.494C356.361 254.625 356.974 254.166 357.741 254.166C358.541 254.166 359.154 254.625 359.154 255.494C359.154 256.329 358.541 256.789 357.741 256.789C356.974 256.789 356.361 256.329 356.361 255.494ZM356.599 257.896H358.882V265.766H356.599V257.896ZM362.966 257.896L363.239 259.412C363.664 258.237 364.55 257.709 365.76 257.709C366.969 257.709 368.076 258.424 368.076 260.196V265.766H365.794V261.047C365.794 260.179 365.555 259.616 364.738 259.616C364.005 259.616 363.307 260.025 363.307 261.439V265.766H361.024V257.896H362.966ZM369.373 263.943L371.247 263.194C371.418 264.045 372.031 264.369 372.78 264.369C373.411 264.369 373.853 264.148 373.853 263.688C373.853 263.245 373.547 263.04 372.848 262.87L371.69 262.597C370.31 262.24 369.68 261.456 369.68 260.264C369.68 258.271 371.264 257.709 372.882 257.709C374.756 257.709 375.88 258.39 376 259.923L373.87 260.23C373.785 259.599 373.428 259.395 372.78 259.395C372.252 259.395 371.895 259.633 371.895 260.042C371.895 260.434 372.133 260.656 372.661 260.758L373.768 260.996C375.369 261.337 376.119 262.189 376.119 263.534C376.119 265.289 374.671 265.97 372.746 265.97C370.804 265.97 369.68 265.425 369.373 263.943ZM379.991 261.456V262.546C379.991 263.892 380.826 264.335 381.49 264.335C382.461 264.335 383.279 263.517 383.279 261.848C383.279 260.213 382.648 259.531 381.643 259.531C380.809 259.531 379.991 260.196 379.991 261.456ZM380.008 264.727V269.224H377.726V257.896H379.667L379.957 259.412C380.434 258.151 381.456 257.709 382.546 257.709C384.471 257.709 385.578 259.139 385.578 261.643C385.578 264.233 384.335 265.97 382.205 265.97C380.996 265.97 380.23 265.391 380.008 264.727ZM386.969 255.494C386.969 254.625 387.582 254.166 388.349 254.166C389.149 254.166 389.762 254.625 389.762 255.494C389.762 256.329 389.149 256.789 388.349 256.789C387.582 256.789 386.969 256.329 386.969 255.494ZM387.207 257.896H389.49V265.766H387.207V257.896ZM397.066 257.726L396.811 260.247C396.521 260.144 396.283 260.11 395.925 260.11C395.022 260.11 393.915 260.553 393.915 262.172V265.766H391.632V257.896H393.608L393.881 260.059C394.221 258.697 394.988 257.606 397.066 257.726ZM402.136 263.296V262.495C400.535 262.444 399.973 262.87 399.973 263.568C399.973 264.028 400.296 264.352 400.841 264.352C401.438 264.352 402.136 264.062 402.136 263.296ZM404.384 260.315V263.381C404.384 263.909 404.606 264.096 404.964 264.096C405.151 264.096 405.304 264.045 405.458 263.977V265.629C405.134 265.834 404.708 265.919 404.163 265.919C403.158 265.919 402.545 265.527 402.289 264.676C401.932 265.647 401.08 265.97 400.007 265.97C398.61 265.97 397.69 265.153 397.69 263.807C397.69 262.052 399.104 261.098 402.136 261.269V260.519C402.136 259.838 401.846 259.429 401.216 259.429C400.586 259.429 400.262 259.855 400.228 260.587L397.963 260.162C398.082 258.492 399.496 257.709 401.301 257.709C403.26 257.709 404.384 258.56 404.384 260.315ZM411.675 263.534L412.066 265.459C411.402 265.8 410.584 265.97 409.648 265.97C408.08 265.97 407.058 265.238 407.058 263.432V259.651H405.917V257.896H407.075V256.227L409.358 255.954V257.896H411.692V259.651H409.341V262.921C409.341 263.756 409.665 264.028 410.295 264.028C410.789 264.028 411.215 263.858 411.675 263.534ZM413.152 255.494C413.152 254.625 413.765 254.166 414.532 254.166C415.333 254.166 415.946 254.625 415.946 255.494C415.946 256.329 415.333 256.789 414.532 256.789C413.765 256.789 413.152 256.329 413.152 255.494ZM413.391 257.896H415.673V265.766H413.391V257.896ZM421.12 265.97C418.821 265.97 417.305 264.471 417.305 261.814C417.305 259.139 418.821 257.709 421.12 257.709C423.403 257.709 424.919 259.139 424.919 261.814C424.919 264.471 423.403 265.97 421.12 265.97ZM421.12 259.531C420.064 259.531 419.553 260.264 419.553 261.814C419.553 263.449 420.047 264.199 421.12 264.199C422.176 264.199 422.67 263.449 422.67 261.814C422.67 260.264 422.159 259.531 421.12 259.531ZM428.491 257.896L428.763 259.412C429.189 258.237 430.075 257.709 431.284 257.709C432.494 257.709 433.601 258.424 433.601 260.196V265.766H431.318V261.047C431.318 260.179 431.08 259.616 430.262 259.616C429.53 259.616 428.831 260.025 428.831 261.439V265.766H426.549V257.896H428.491Z" fill="#363C65"/>
<path d="M219.735 352.94L220.961 352.718C220.944 354.03 221.694 354.575 222.954 354.575C224.232 354.575 225.049 354.013 225.049 352.769C225.049 351.73 224.589 351.27 223.21 350.742C221.983 350.265 220.927 349.737 220.927 348.051C220.927 345.853 222.869 345.155 224.266 345.155C226.208 345.155 227.298 345.853 227.298 347.795L226.02 348C226.054 346.824 225.407 346.177 224.164 346.177C223.005 346.177 222.188 346.807 222.188 347.863C222.188 348.919 222.818 349.175 224.061 349.686C225.526 350.299 226.395 350.964 226.395 352.599C226.395 354.694 224.743 355.597 222.818 355.597C220.825 355.597 219.735 354.779 219.735 352.94ZM231.787 354.115V355.205C231.31 355.478 230.696 355.597 230.237 355.597C228.908 355.597 228.192 354.881 228.499 353.212L229.317 348.562H228.226L228.414 347.523H229.521L229.811 345.87L231.122 345.683L230.799 347.523H232.86L232.672 348.562H230.628L229.777 353.348C229.623 354.183 229.981 354.507 230.441 354.507C230.918 354.507 231.242 354.421 231.787 354.115ZM238.664 352.105L238.903 350.776C239.107 349.584 238.613 348.357 237.353 348.357C235.786 348.357 234.627 349.976 234.627 352.224C234.627 353.553 235.206 354.524 236.365 354.524C237.557 354.524 238.409 353.604 238.664 352.105ZM240.777 347.523L239.686 353.706C239.618 354.098 239.635 354.473 240.129 354.473C240.265 354.473 240.419 354.456 240.623 354.404L240.453 355.341C240.214 355.426 239.925 355.478 239.635 355.478C238.784 355.478 238.341 354.984 238.409 354.081C237.932 355.154 236.995 355.597 236.007 355.597C234.491 355.597 233.367 354.456 233.367 352.377C233.367 349.686 234.917 347.335 237.233 347.335C238.324 347.335 239.073 347.812 239.278 348.851L239.703 347.523H240.777ZM247.614 352.156L247.869 350.776C248.074 349.601 247.614 348.357 246.336 348.357C244.718 348.357 243.577 350.01 243.577 352.241C243.577 353.57 244.122 354.524 245.297 354.524C246.541 354.524 247.358 353.638 247.614 352.156ZM249.726 347.523L248.295 355.648C247.886 357.913 246.779 358.987 244.48 358.987C242.384 358.987 241.601 357.965 241.465 356.806L242.623 356.414C242.691 357.317 243.389 358.033 244.565 358.033C246.03 358.033 246.694 357.181 246.984 355.699L247.29 354.115C246.813 355.188 245.996 355.58 244.991 355.58C243.458 355.58 242.316 354.439 242.316 352.36C242.316 349.686 243.9 347.335 246.234 347.335C247.324 347.335 248.023 347.812 248.227 348.851L248.653 347.523H249.726ZM253.951 354.592C255.126 354.592 255.603 354.098 255.892 353.246L257.068 353.536C256.489 355.137 255.364 355.597 253.831 355.597C251.941 355.597 250.833 354.268 250.833 352.258C250.833 349.056 252.775 347.335 254.666 347.335C256.676 347.335 257.46 348.698 257.46 350.146C257.46 350.691 257.357 351.236 257.119 351.747H252.043C251.923 353.127 252.452 354.592 253.951 354.592ZM252.196 350.708H256.131C256.199 350.521 256.216 350.316 256.216 350.112C256.216 349.175 255.705 348.357 254.598 348.357C253.286 348.357 252.503 349.465 252.196 350.708ZM265.22 352.19V352.241C267.009 352.394 267.843 353.297 267.843 354.711C267.843 356.823 266.174 357.743 264.334 357.743C262.358 357.743 261.37 356.738 261.37 355.358L262.614 355.103C262.614 356.193 263.312 356.738 264.488 356.738C265.629 356.738 266.515 356.074 266.515 354.813C266.515 353.774 266.021 352.94 263.874 352.718L264.028 351.679C266.361 351.441 267.315 350.725 267.315 349.396C267.315 348.511 266.702 348.051 265.799 348.051C264.76 348.051 264.215 348.664 264.028 349.652L262.818 349.379C263.091 347.983 264.028 346.995 265.902 346.995C267.452 346.995 268.644 347.71 268.644 349.277C268.644 351.168 267.247 352.173 265.22 352.19Z" fill="#363C65"/>
<path d="M186.969 376.199H187.974C189.762 376.199 190.818 375.45 190.818 373.167C190.818 370.782 189.762 370.084 188.11 370.084H186.969V376.199ZM188.195 378.158H184.652V368.125H188.348C191.125 368.125 193.237 369.505 193.237 373.031C193.237 376.744 191.074 378.158 188.195 378.158ZM198.382 376.608C198.995 376.608 199.506 376.37 199.762 375.535L201.703 376.199C201.295 377.801 199.881 378.363 198.331 378.363C196.082 378.363 194.532 376.881 194.532 374.343C194.532 371.634 195.997 370.101 198.365 370.101C200.596 370.101 201.686 371.566 201.686 373.593C201.686 373.934 201.652 374.291 201.584 374.615H196.73C196.781 375.825 197.343 376.608 198.382 376.608ZM196.798 373.355H199.506C199.523 373.252 199.523 373.184 199.523 373.082C199.523 372.35 199.097 371.787 198.28 371.787C197.428 371.787 196.883 372.435 196.798 373.355ZM204.998 378.158L202.238 370.288H204.657L205.73 373.866C206.122 375.16 206.258 376.421 206.258 376.421H206.326C206.326 376.421 206.497 375.143 206.889 373.883L208.03 370.288H210.364L207.502 378.158H204.998ZM214.734 376.608C215.347 376.608 215.858 376.37 216.114 375.535L218.056 376.199C217.647 377.801 216.233 378.363 214.683 378.363C212.434 378.363 210.884 376.881 210.884 374.343C210.884 371.634 212.349 370.101 214.717 370.101C216.948 370.101 218.039 371.566 218.039 373.593C218.039 373.934 218.004 374.291 217.936 374.615H213.082C213.133 375.825 213.695 376.608 214.734 376.608ZM213.15 373.355H215.858C215.875 373.252 215.875 373.184 215.875 373.082C215.875 372.35 215.449 371.787 214.632 371.787C213.78 371.787 213.235 372.435 213.15 373.355ZM223.171 376.199L223.051 378.107C222.608 378.226 222.183 378.312 221.74 378.312C220.598 378.312 219.559 377.783 219.559 376.302V366.779H221.842V375.637C221.842 376.131 222.149 376.319 222.557 376.319C222.762 376.319 222.966 376.284 223.171 376.199ZM227.775 378.363C225.475 378.363 223.959 376.864 223.959 374.206C223.959 371.532 225.475 370.101 227.775 370.101C230.057 370.101 231.573 371.532 231.573 374.206C231.573 376.864 230.057 378.363 227.775 378.363ZM227.775 371.924C226.719 371.924 226.208 372.656 226.208 374.206C226.208 375.842 226.702 376.591 227.775 376.591C228.831 376.591 229.325 375.842 229.325 374.206C229.325 372.656 228.814 371.924 227.775 371.924ZM235.469 373.849V374.939C235.469 376.284 236.304 376.727 236.968 376.727C237.939 376.727 238.757 375.91 238.757 374.24C238.757 372.605 238.126 371.924 237.121 371.924C236.287 371.924 235.469 372.588 235.469 373.849ZM235.486 377.119V381.616H233.204V370.288H235.145L235.435 371.805C235.912 370.544 236.934 370.101 238.024 370.101C239.949 370.101 241.056 371.532 241.056 374.036C241.056 376.625 239.813 378.363 237.683 378.363C236.474 378.363 235.708 377.783 235.486 377.119ZM253.156 371.822C253.582 370.646 254.536 370.101 255.711 370.101C256.989 370.101 257.96 370.817 257.96 372.571V378.158H255.677V373.44C255.677 372.571 255.439 372.009 254.638 372.009C253.94 372.009 253.344 372.452 253.344 373.815V378.158H251.061V373.44C251.061 372.571 250.84 372.009 250.022 372.009C249.307 372.009 248.727 372.452 248.727 373.832V378.158H246.445V370.288H248.387L248.659 371.805C249.085 370.612 249.92 370.101 251.078 370.101C252.083 370.101 252.952 370.51 253.156 371.822ZM264.942 378.158L264.669 376.693C264.397 377.766 263.681 378.363 262.233 378.363C260.837 378.363 259.866 377.647 259.866 375.825V370.288H262.148V375.177C262.148 376.114 262.438 376.642 263.221 376.642C264.005 376.642 264.635 376.029 264.635 374.513V370.288H266.918V378.158H264.942ZM272.526 376.199L272.407 378.107C271.964 378.226 271.538 378.312 271.095 378.312C269.954 378.312 268.915 377.783 268.915 376.302V366.779H271.198V375.637C271.198 376.131 271.504 376.319 271.913 376.319C272.117 376.319 272.322 376.284 272.526 376.199ZM278.647 375.927L279.039 377.852C278.375 378.192 277.557 378.363 276.62 378.363C275.053 378.363 274.031 377.63 274.031 375.825V372.043H272.89V370.288H274.048V368.619L276.331 368.347V370.288H278.664V372.043H276.314V375.314C276.314 376.148 276.637 376.421 277.268 376.421C277.762 376.421 278.187 376.25 278.647 375.927ZM280.125 367.887C280.125 367.018 280.738 366.558 281.505 366.558C282.305 366.558 282.919 367.018 282.919 367.887C282.919 368.721 282.305 369.181 281.505 369.181C280.738 369.181 280.125 368.721 280.125 367.887ZM280.363 370.288H282.646V378.158H280.363V370.288ZM287.054 373.849V374.939C287.054 376.284 287.888 376.727 288.553 376.727C289.524 376.727 290.341 375.91 290.341 374.24C290.341 372.605 289.711 371.924 288.706 371.924C287.871 371.924 287.054 372.588 287.054 373.849ZM287.071 377.119V381.616H284.788V370.288H286.73L287.02 371.805C287.497 370.544 288.519 370.101 289.609 370.101C291.534 370.101 292.641 371.532 292.641 374.036C292.641 376.625 291.398 378.363 289.268 378.363C288.059 378.363 287.292 377.783 287.071 377.119ZM297.728 376.199L297.609 378.107C297.166 378.226 296.74 378.312 296.297 378.312C295.156 378.312 294.117 377.783 294.117 376.302V366.779H296.399V375.637C296.399 376.131 296.706 376.319 297.115 376.319C297.319 376.319 297.524 376.284 297.728 376.199ZM302.366 376.608C302.98 376.608 303.491 376.37 303.746 375.535L305.688 376.199C305.279 377.801 303.865 378.363 302.315 378.363C300.067 378.363 298.517 376.881 298.517 374.343C298.517 371.634 299.982 370.101 302.349 370.101C304.581 370.101 305.671 371.566 305.671 373.593C305.671 373.934 305.637 374.291 305.569 374.615H300.714C300.765 375.825 301.327 376.608 302.366 376.608ZM300.782 373.355H303.491C303.508 373.252 303.508 373.184 303.508 373.082C303.508 372.35 303.082 371.787 302.264 371.787C301.412 371.787 300.867 372.435 300.782 373.355ZM226.461 389.887C226.461 389.018 227.074 388.558 227.841 388.558C228.641 388.558 229.254 389.018 229.254 389.887C229.254 390.721 228.641 391.181 227.841 391.181C227.074 391.181 226.461 390.721 226.461 389.887ZM226.699 392.288H228.982V400.158H226.699V392.288ZM236.2 396.888V395.423C236.2 394.264 235.451 393.787 234.667 393.787C233.764 393.787 232.896 394.435 232.896 396.291C232.896 397.773 233.56 398.608 234.633 398.608C235.417 398.608 236.2 398.029 236.2 396.888ZM236.183 393.328V388.779H238.466V400.158H236.49L236.2 398.796C235.911 399.988 234.923 400.363 233.747 400.363C232.01 400.363 230.613 398.983 230.613 396.394C230.613 393.702 231.874 392.101 234.122 392.101C235.127 392.101 235.979 392.578 236.183 393.328ZM243.945 398.608C244.558 398.608 245.069 398.37 245.324 397.535L247.266 398.199C246.858 399.801 245.444 400.363 243.894 400.363C241.645 400.363 240.095 398.881 240.095 396.343C240.095 393.634 241.56 392.101 243.928 392.101C246.159 392.101 247.249 393.566 247.249 395.593C247.249 395.934 247.215 396.291 247.147 396.615H242.292C242.344 397.825 242.906 398.608 243.945 398.608ZM242.361 395.355H245.069C245.086 395.252 245.086 395.184 245.086 395.082C245.086 394.35 244.66 393.787 243.843 393.787C242.991 393.787 242.446 394.435 242.361 395.355ZM252.79 397.688V396.888C251.189 396.837 250.626 397.262 250.626 397.961C250.626 398.421 250.95 398.744 251.495 398.744C252.091 398.744 252.79 398.455 252.79 397.688ZM255.038 394.707V397.773C255.038 398.302 255.26 398.489 255.617 398.489C255.805 398.489 255.958 398.438 256.111 398.37V400.022C255.788 400.226 255.362 400.312 254.817 400.312C253.812 400.312 253.199 399.92 252.943 399.068C252.585 400.039 251.734 400.363 250.661 400.363C249.264 400.363 248.344 399.545 248.344 398.199C248.344 396.445 249.758 395.491 252.79 395.661V394.912C252.79 394.23 252.5 393.822 251.87 393.822C251.24 393.822 250.916 394.247 250.882 394.98L248.616 394.554C248.736 392.885 250.15 392.101 251.955 392.101C253.914 392.101 255.038 392.953 255.038 394.707ZM256.707 398.336L258.581 397.586C258.751 398.438 259.365 398.761 260.114 398.761C260.744 398.761 261.187 398.54 261.187 398.08C261.187 397.637 260.881 397.433 260.182 397.262L259.024 396.99C257.644 396.632 257.014 395.849 257.014 394.656C257.014 392.663 258.598 392.101 260.216 392.101C262.09 392.101 263.214 392.782 263.334 394.316L261.204 394.622C261.119 393.992 260.761 393.787 260.114 393.787C259.586 393.787 259.228 394.026 259.228 394.435C259.228 394.827 259.467 395.048 259.995 395.15L261.102 395.389C262.703 395.729 263.453 396.581 263.453 397.927C263.453 399.681 262.005 400.363 260.08 400.363C258.138 400.363 257.014 399.818 256.707 398.336Z" fill="#363C65"/>
<path d="M69.3172 218.547L70.5437 218.326C70.5267 219.637 71.2762 220.182 72.5367 220.182C73.8142 220.182 74.6319 219.62 74.6319 218.377C74.6319 217.338 74.172 216.878 72.7922 216.35C71.5657 215.873 70.5096 215.345 70.5096 213.658C70.5096 211.461 72.4515 210.762 73.8483 210.762C75.7902 210.762 76.8804 211.461 76.8804 213.403L75.6028 213.607C75.6369 212.432 74.9896 211.784 73.7461 211.784C72.5878 211.784 71.7702 212.415 71.7702 213.471C71.7702 214.527 72.4004 214.782 73.6439 215.294C75.1088 215.907 75.9776 216.571 75.9776 218.206C75.9776 220.302 74.3253 221.204 72.4004 221.204C70.4074 221.204 69.3172 220.387 69.3172 218.547ZM81.3691 219.722V220.813C80.8922 221.085 80.279 221.204 79.819 221.204C78.4904 221.204 77.7749 220.489 78.0816 218.82L78.8992 214.169H77.809L77.9964 213.13H79.1036L79.3932 211.478L80.7048 211.29L80.3812 213.13H82.4423L82.2549 214.169H80.2108L79.3591 218.956C79.2058 219.791 79.5635 220.114 80.0234 220.114C80.5004 220.114 80.8241 220.029 81.3691 219.722ZM88.2468 217.712L88.4853 216.384C88.6897 215.191 88.1957 213.965 86.9352 213.965C85.368 213.965 84.2097 215.583 84.2097 217.832C84.2097 219.16 84.7889 220.131 85.9472 220.131C87.1396 220.131 87.9913 219.211 88.2468 217.712ZM90.359 213.13L89.2688 219.314C89.2007 219.705 89.2177 220.08 89.7117 220.08C89.848 220.08 90.0013 220.063 90.2057 220.012L90.0354 220.949C89.7969 221.034 89.5073 221.085 89.2177 221.085C88.366 221.085 87.9232 220.591 87.9913 219.688C87.5143 220.761 86.5775 221.204 85.5895 221.204C84.0734 221.204 82.9492 220.063 82.9492 217.985C82.9492 215.294 84.4993 212.943 86.8159 212.943C87.9061 212.943 88.6556 213.42 88.86 214.459L89.2859 213.13H90.359ZM97.1964 217.763L97.4519 216.384C97.6563 215.208 97.1964 213.965 95.9188 213.965C94.3006 213.965 93.1593 215.617 93.1593 217.849C93.1593 219.177 93.7044 220.131 94.8797 220.131C96.1232 220.131 96.9408 219.245 97.1964 217.763ZM99.3086 213.13L97.8777 221.255C97.4689 223.521 96.3617 224.594 94.0621 224.594C91.9669 224.594 91.1833 223.572 91.047 222.414L92.2054 222.022C92.2735 222.925 92.9719 223.64 94.1473 223.64C95.6122 223.64 96.2765 222.789 96.5661 221.307L96.8727 219.722C96.3958 220.796 95.5781 221.187 94.5731 221.187C93.04 221.187 91.8988 220.046 91.8988 217.968C91.8988 215.294 93.4829 212.943 95.8166 212.943C96.9068 212.943 97.6052 213.42 97.8096 214.459L98.2354 213.13H99.3086ZM103.533 220.199C104.708 220.199 105.185 219.705 105.475 218.854L106.65 219.143C106.071 220.744 104.947 221.204 103.414 221.204C101.523 221.204 100.416 219.876 100.416 217.866C100.416 214.663 102.358 212.943 104.248 212.943C106.259 212.943 107.042 214.306 107.042 215.753C107.042 216.299 106.94 216.844 106.701 217.355H101.625C101.506 218.734 102.034 220.199 103.533 220.199ZM101.779 216.316H105.713C105.782 216.128 105.799 215.924 105.799 215.719C105.799 214.782 105.288 213.965 104.18 213.965C102.869 213.965 102.085 215.072 101.779 216.316ZM115.825 223.231L116.387 220.08H111.549L111.703 219.228L117.613 212.807H118.976L117.886 219.041H119.555L119.368 220.08H117.716L117.153 223.231H115.825ZM114.598 219.041H116.557L117.017 216.384C117.239 215.089 117.46 214.34 117.46 214.34H117.392C117.392 214.34 116.932 214.97 115.944 216.094L114.326 217.917C113.644 218.7 113.219 219.024 113.219 219.024V219.092C113.219 219.092 113.508 219.041 114.598 219.041Z" fill="#363C65"/>
<path d="M66.4682 241.756V243.766H59.7398V233.733H66.4682V235.743H62.0564V237.736H65.9402V239.661H62.0564V241.756H66.4682ZM71.8589 241.807L71.7396 243.715C71.2967 243.834 70.8709 243.919 70.428 243.919C69.2867 243.919 68.2476 243.391 68.2476 241.909V232.387H70.5302V241.245C70.5302 241.739 70.8368 241.926 71.2456 241.926C71.45 241.926 71.6545 241.892 71.8589 241.807ZM77.1746 241.296V240.495C75.5734 240.444 75.0112 240.87 75.0112 241.568C75.0112 242.028 75.3349 242.352 75.88 242.352C76.4762 242.352 77.1746 242.062 77.1746 241.296ZM79.4231 238.315V241.381C79.4231 241.909 79.6445 242.096 80.0022 242.096C80.1896 242.096 80.3429 242.045 80.4962 241.977V243.629C80.1726 243.834 79.7467 243.919 79.2016 243.919C78.1966 243.919 77.5834 243.527 77.3279 242.676C76.9702 243.647 76.1185 243.97 75.0453 243.97C73.6485 243.97 72.7287 243.153 72.7287 241.807C72.7287 240.052 74.1425 239.098 77.1746 239.269V238.519C77.1746 237.838 76.885 237.429 76.2547 237.429C75.6245 237.429 75.3008 237.855 75.2667 238.587L73.0012 238.162C73.1204 236.492 74.5343 235.709 76.3399 235.709C78.2988 235.709 79.4231 236.56 79.4231 238.315ZM84.1241 239.388V240.546C84.1241 241.892 84.9588 242.335 85.6231 242.335C86.594 242.335 87.4117 241.517 87.4117 239.848C87.4117 238.213 86.7814 237.531 85.7764 237.531C84.9417 237.531 84.1241 238.196 84.1241 239.388ZM84.0219 242.624L83.4598 243.766H81.8585V232.387H84.1411V237.361C84.567 236.169 85.5549 235.709 86.6792 235.709C88.6041 235.709 89.7113 237.139 89.7113 239.643C89.7113 242.233 88.4848 243.97 86.3556 243.97C85.0099 243.97 84.2604 243.374 84.0219 242.624ZM94.645 243.97C92.3454 243.97 90.8294 242.471 90.8294 239.814C90.8294 237.139 92.3454 235.709 94.645 235.709C96.9276 235.709 98.4436 237.139 98.4436 239.814C98.4436 242.471 96.9276 243.97 94.645 243.97ZM94.645 237.531C93.5889 237.531 93.0779 238.264 93.0779 239.814C93.0779 241.449 93.5719 242.199 94.645 242.199C95.7012 242.199 96.1951 241.449 96.1951 239.814C96.1951 238.264 95.6841 237.531 94.645 237.531ZM105.508 235.726L105.252 238.247C104.963 238.144 104.724 238.11 104.366 238.11C103.464 238.11 102.356 238.553 102.356 240.172V243.766H100.074V235.896H102.05L102.322 238.059C102.663 236.697 103.429 235.606 105.508 235.726ZM110.577 241.296V240.495C108.976 240.444 108.414 240.87 108.414 241.568C108.414 242.028 108.738 242.352 109.283 242.352C109.879 242.352 110.577 242.062 110.577 241.296ZM112.826 238.315V241.381C112.826 241.909 113.047 242.096 113.405 242.096C113.592 242.096 113.746 242.045 113.899 241.977V243.629C113.575 243.834 113.15 243.919 112.604 243.919C111.599 243.919 110.986 243.527 110.731 242.676C110.373 243.647 109.521 243.97 108.448 243.97C107.051 243.97 106.131 243.153 106.131 241.807C106.131 240.052 107.545 239.098 110.577 239.269V238.519C110.577 237.838 110.288 237.429 109.658 237.429C109.027 237.429 108.704 237.855 108.67 238.587L106.404 238.162C106.523 236.492 107.937 235.709 109.743 235.709C111.702 235.709 112.826 236.56 112.826 238.315ZM120.116 241.534L120.508 243.459C119.844 243.8 119.026 243.97 118.089 243.97C116.522 243.97 115.5 243.238 115.5 241.432V237.651H114.359V235.896H115.517V234.227L117.799 233.954V235.896H120.133V237.651H117.782V240.921C117.782 241.756 118.106 242.028 118.736 242.028C119.23 242.028 119.656 241.858 120.116 241.534ZM125.088 242.216C125.701 242.216 126.212 241.977 126.467 241.142L128.409 241.807C128 243.408 126.587 243.97 125.037 243.97C122.788 243.97 121.238 242.488 121.238 239.95C121.238 237.242 122.703 235.709 125.071 235.709C127.302 235.709 128.392 237.174 128.392 239.201C128.392 239.541 128.358 239.899 128.29 240.223H123.435C123.486 241.432 124.049 242.216 125.088 242.216ZM123.503 238.962H126.212C126.229 238.86 126.229 238.792 126.229 238.69C126.229 237.957 125.803 237.395 124.985 237.395C124.134 237.395 123.589 238.042 123.503 238.962ZM72.5418 263.296V262.495C70.9405 262.444 70.3784 262.87 70.3784 263.568C70.3784 264.028 70.7021 264.352 71.2472 264.352C71.8434 264.352 72.5418 264.062 72.5418 263.296ZM74.7903 260.315V263.381C74.7903 263.909 75.0117 264.096 75.3694 264.096C75.5568 264.096 75.7101 264.045 75.8634 263.977V265.629C75.5398 265.834 75.1139 265.919 74.5688 265.919C73.5638 265.919 72.9506 265.527 72.6951 264.676C72.3373 265.647 71.4856 265.97 70.4125 265.97C69.0157 265.97 68.0959 265.153 68.0959 263.807C68.0959 262.052 69.5097 261.098 72.5418 261.269V260.519C72.5418 259.838 72.2522 259.429 71.6219 259.429C70.9917 259.429 70.668 259.855 70.6339 260.587L68.3684 260.162C68.4876 258.492 69.9015 257.709 71.7071 257.709C73.666 257.709 74.7903 258.56 74.7903 260.315ZM79.1676 257.896L79.4402 259.412C79.866 258.237 80.7518 257.709 81.9612 257.709C83.1706 257.709 84.2779 258.424 84.2779 260.196V265.766H81.9953V261.047C81.9953 260.179 81.7568 259.616 80.9392 259.616C80.2067 259.616 79.5083 260.025 79.5083 261.439V265.766H77.2257V257.896H79.1676ZM89.8626 255.494C89.8626 254.625 90.4759 254.166 91.2424 254.166C92.043 254.166 92.6562 254.625 92.6562 255.494C92.6562 256.329 92.043 256.789 91.2424 256.789C90.4759 256.789 89.8626 256.329 89.8626 255.494ZM90.1011 257.896H92.3837V265.766H90.1011V257.896ZM99.6022 262.495V261.03C99.6022 259.872 98.8527 259.395 98.0691 259.395C97.1663 259.395 96.2975 260.042 96.2975 261.899C96.2975 263.381 96.9619 264.216 98.035 264.216C98.8186 264.216 99.6022 263.636 99.6022 262.495ZM99.5851 258.935V254.387H101.868V265.766H99.8917L99.6022 264.403C99.3126 265.595 98.3246 265.97 97.1493 265.97C95.4118 265.97 94.015 264.59 94.015 262.001C94.015 259.31 95.2755 257.709 97.524 257.709C98.529 257.709 99.3807 258.186 99.5851 258.935ZM107.347 264.216C107.96 264.216 108.471 263.977 108.726 263.142L110.668 263.807C110.259 265.408 108.846 265.97 107.295 265.97C105.047 265.97 103.497 264.488 103.497 261.95C103.497 259.242 104.962 257.709 107.33 257.709C109.561 257.709 110.651 259.174 110.651 261.201C110.651 261.541 110.617 261.899 110.549 262.223H105.694C105.745 263.432 106.307 264.216 107.347 264.216ZM105.762 260.962H108.471C108.488 260.86 108.488 260.792 108.488 260.69C108.488 259.957 108.062 259.395 107.244 259.395C106.393 259.395 105.848 260.042 105.762 260.962ZM116.192 263.296V262.495C114.59 262.444 114.028 262.87 114.028 263.568C114.028 264.028 114.352 264.352 114.897 264.352C115.493 264.352 116.192 264.062 116.192 263.296ZM118.44 260.315V263.381C118.44 263.909 118.662 264.096 119.019 264.096C119.207 264.096 119.36 264.045 119.513 263.977V265.629C119.19 265.834 118.764 265.919 118.219 265.919C117.214 265.919 116.6 265.527 116.345 264.676C115.987 265.647 115.136 265.97 114.062 265.97C112.666 265.97 111.746 265.153 111.746 263.807C111.746 262.052 113.16 261.098 116.192 261.269V260.519C116.192 259.838 115.902 259.429 115.272 259.429C114.642 259.429 114.318 259.855 114.284 260.587L112.018 260.162C112.138 258.492 113.551 257.709 115.357 257.709C117.316 257.709 118.44 258.56 118.44 260.315Z" fill="#363C65"/>
<path d="M219.785 211.15L221.011 210.928C220.994 212.24 221.744 212.785 223.004 212.785C224.282 212.785 225.1 212.223 225.1 210.979C225.1 209.94 224.64 209.48 223.26 208.952C222.034 208.475 220.977 207.947 220.977 206.261C220.977 204.063 222.919 203.365 224.316 203.365C226.258 203.365 227.348 204.063 227.348 206.005L226.071 206.21C226.105 205.034 225.457 204.387 224.214 204.387C223.056 204.387 222.238 205.017 222.238 206.073C222.238 207.13 222.868 207.385 224.112 207.896C225.577 208.509 226.445 209.174 226.445 210.809C226.445 212.904 224.793 213.807 222.868 213.807C220.875 213.807 219.785 212.989 219.785 211.15ZM231.837 212.325V213.415C231.36 213.688 230.747 213.807 230.287 213.807C228.958 213.807 228.243 213.091 228.549 211.422L229.367 206.772H228.277L228.464 205.733H229.571L229.861 204.08L231.173 203.893L230.849 205.733H232.91L232.723 206.772H230.679L229.827 211.558C229.674 212.393 230.031 212.717 230.491 212.717C230.968 212.717 231.292 212.632 231.837 212.325ZM238.715 210.315L238.953 208.986C239.157 207.794 238.663 206.567 237.403 206.567C235.836 206.567 234.677 208.186 234.677 210.434C234.677 211.763 235.257 212.734 236.415 212.734C237.607 212.734 238.459 211.814 238.715 210.315ZM240.827 205.733L239.737 211.916C239.668 212.308 239.686 212.683 240.18 212.683C240.316 212.683 240.469 212.666 240.673 212.614L240.503 213.551C240.265 213.637 239.975 213.688 239.686 213.688C238.834 213.688 238.391 213.194 238.459 212.291C237.982 213.364 237.045 213.807 236.057 213.807C234.541 213.807 233.417 212.666 233.417 210.587C233.417 207.896 234.967 205.545 237.284 205.545C238.374 205.545 239.123 206.022 239.328 207.061L239.754 205.733H240.827ZM247.664 210.366L247.92 208.986C248.124 207.811 247.664 206.567 246.387 206.567C244.768 206.567 243.627 208.22 243.627 210.451C243.627 211.78 244.172 212.734 245.347 212.734C246.591 212.734 247.409 211.848 247.664 210.366ZM249.776 205.733L248.345 213.858C247.937 216.124 246.829 217.197 244.53 217.197C242.435 217.197 241.651 216.175 241.515 215.016L242.673 214.625C242.741 215.527 243.44 216.243 244.615 216.243C246.08 216.243 246.744 215.391 247.034 213.909L247.34 212.325C246.864 213.398 246.046 213.79 245.041 213.79C243.508 213.79 242.367 212.649 242.367 210.57C242.367 207.896 243.951 205.545 246.284 205.545C247.375 205.545 248.073 206.022 248.277 207.061L248.703 205.733H249.776ZM254.001 212.802C255.176 212.802 255.653 212.308 255.943 211.456L257.118 211.746C256.539 213.347 255.415 213.807 253.882 213.807C251.991 213.807 250.884 212.478 250.884 210.468C250.884 207.266 252.825 205.545 254.716 205.545C256.726 205.545 257.51 206.908 257.51 208.356C257.51 208.901 257.408 209.446 257.169 209.957H252.093C251.974 211.337 252.502 212.802 254.001 212.802ZM252.246 208.918H256.181C256.249 208.731 256.266 208.526 256.266 208.322C256.266 207.385 255.755 206.567 254.648 206.567C253.336 206.567 252.553 207.675 252.246 208.918ZM263.039 210.877L264.197 205.409H269.154L268.967 206.516H265.168L264.385 210.059C264.691 209.787 265.168 209.599 265.764 209.599C267.417 209.599 268.286 210.86 268.268 212.291C268.251 214.693 266.599 215.953 264.521 215.953C262.63 215.953 261.676 214.965 261.676 213.568L262.92 213.296C262.92 214.454 263.601 214.948 264.691 214.948C265.799 214.948 266.957 214.233 266.957 212.478C266.957 211.32 266.344 210.536 265.219 210.536C264.742 210.536 264.368 210.673 264.078 210.877H263.039Z" fill="white"/>
<path d="M209.292 234.409H210.297C212.085 234.409 213.141 233.66 213.141 231.377C213.141 228.993 212.085 228.294 210.433 228.294H209.292V234.409ZM210.518 236.368H206.975V226.335H210.671C213.448 226.335 215.56 227.715 215.56 231.241C215.56 234.954 213.397 236.368 210.518 236.368ZM220.705 234.818C221.318 234.818 221.829 234.58 222.085 233.745L224.027 234.409C223.618 236.011 222.204 236.573 220.654 236.573C218.405 236.573 216.855 235.091 216.855 232.553C216.855 229.844 218.32 228.311 220.688 228.311C222.919 228.311 224.009 229.776 224.009 231.803C224.009 232.144 223.975 232.502 223.907 232.825H219.053C219.104 234.035 219.666 234.818 220.705 234.818ZM219.121 231.565H221.829C221.846 231.462 221.846 231.394 221.846 231.292C221.846 230.56 221.42 229.998 220.603 229.998C219.751 229.998 219.206 230.645 219.121 231.565ZM225.956 230.253H224.798V228.499H225.956V227.988C225.956 225.586 227.796 224.853 229.431 224.853C230.419 224.853 231.22 225.075 231.867 225.432L231.083 227.272C230.692 226.983 230.13 226.778 229.584 226.778C228.903 226.778 228.222 227.051 228.222 228.056V228.499H232.923V236.368H230.641V230.253H228.222V236.368H225.956V230.253ZM237.008 228.499L237.28 230.015C237.706 228.839 238.592 228.311 239.801 228.311C241.011 228.311 242.118 229.027 242.118 230.798V236.368H239.835V231.65C239.835 230.781 239.597 230.219 238.779 230.219C238.047 230.219 237.348 230.628 237.348 232.042V236.368H235.066V228.499H237.008ZM247.52 234.818C248.134 234.818 248.645 234.58 248.9 233.745L250.842 234.409C250.433 236.011 249.019 236.573 247.469 236.573C245.221 236.573 243.671 235.091 243.671 232.553C243.671 229.844 245.136 228.311 247.503 228.311C249.735 228.311 250.825 229.776 250.825 231.803C250.825 232.144 250.791 232.502 250.723 232.825H245.868C245.919 234.035 246.481 234.818 247.52 234.818ZM245.936 231.565H248.645C248.662 231.462 248.662 231.394 248.662 231.292C248.662 230.56 248.236 229.998 247.418 229.998C246.566 229.998 246.021 230.645 245.936 231.565ZM261.113 234.137L261.505 236.062C260.841 236.402 260.023 236.573 259.086 236.573C257.519 236.573 256.497 235.84 256.497 234.035V230.253H255.356V228.499H256.514V226.829L258.797 226.557V228.499H261.13V230.253H258.78V233.524C258.78 234.358 259.103 234.631 259.733 234.631C260.227 234.631 260.653 234.46 261.113 234.137ZM265.112 224.99V229.998C265.521 228.839 266.355 228.311 267.565 228.311C268.774 228.311 269.881 229.027 269.881 230.798V236.368H267.599V231.65C267.599 230.781 267.36 230.219 266.543 230.219C265.81 230.219 265.112 230.628 265.112 232.025V236.368H262.829V224.99H265.112ZM275.284 234.818C275.897 234.818 276.408 234.58 276.664 233.745L278.606 234.409C278.197 236.011 276.783 236.573 275.233 236.573C272.984 236.573 271.434 235.091 271.434 232.553C271.434 229.844 272.899 228.311 275.267 228.311C277.498 228.311 278.588 229.776 278.588 231.803C278.588 232.144 278.554 232.502 278.486 232.825H273.632C273.683 234.035 274.245 234.818 275.284 234.818ZM273.7 231.565H276.408C276.425 231.462 276.425 231.394 276.425 231.292C276.425 230.56 275.999 229.998 275.182 229.998C274.33 229.998 273.785 230.645 273.7 231.565ZM212.645 256.818C213.258 256.818 213.77 256.58 214.025 255.745L215.967 256.409C215.558 258.011 214.144 258.573 212.594 258.573C210.346 258.573 208.796 257.091 208.796 254.553C208.796 251.844 210.26 250.311 212.628 250.311C214.86 250.311 215.95 251.776 215.95 253.803C215.95 254.144 215.916 254.502 215.848 254.825H210.993C211.044 256.035 211.606 256.818 212.645 256.818ZM211.061 253.565H213.77C213.787 253.462 213.787 253.394 213.787 253.292C213.787 252.56 213.361 251.998 212.543 251.998C211.691 251.998 211.146 252.645 211.061 253.565ZM219.566 250.499L219.838 252.015C220.264 250.839 221.15 250.311 222.36 250.311C223.569 250.311 224.676 251.027 224.676 252.798V258.368H222.394V253.65C222.394 252.781 222.155 252.219 221.337 252.219C220.605 252.219 219.907 252.628 219.907 254.042V258.368H217.624V250.499H219.566ZM228.377 258.368L225.618 250.499H228.037L229.11 254.076C229.501 255.37 229.638 256.631 229.638 256.631H229.706C229.706 256.631 229.876 255.353 230.268 254.093L231.409 250.499H233.743L230.881 258.368H228.377ZM234.619 248.097C234.619 247.228 235.232 246.768 235.999 246.768C236.8 246.768 237.413 247.228 237.413 248.097C237.413 248.931 236.8 249.391 235.999 249.391C235.232 249.391 234.619 248.931 234.619 248.097ZM234.858 250.499H237.14V258.368H234.858V250.499ZM238.516 256.546L240.39 255.796C240.56 256.648 241.173 256.972 241.923 256.972C242.553 256.972 242.996 256.75 242.996 256.29C242.996 255.847 242.689 255.643 241.991 255.473L240.833 255.2C239.453 254.842 238.823 254.059 238.823 252.866C238.823 250.873 240.407 250.311 242.025 250.311C243.899 250.311 245.023 250.993 245.142 252.526L243.013 252.832C242.928 252.202 242.57 251.998 241.923 251.998C241.395 251.998 241.037 252.236 241.037 252.645C241.037 253.037 241.276 253.258 241.804 253.36L242.911 253.599C244.512 253.939 245.262 254.791 245.262 256.137C245.262 257.891 243.814 258.573 241.889 258.573C239.947 258.573 238.823 258.028 238.516 256.546ZM250.751 255.898V255.098C249.15 255.047 248.588 255.473 248.588 256.171C248.588 256.631 248.911 256.954 249.457 256.954C250.053 256.954 250.751 256.665 250.751 255.898ZM253 252.917V255.984C253 256.512 253.221 256.699 253.579 256.699C253.766 256.699 253.919 256.648 254.073 256.58V258.232C253.749 258.436 253.323 258.522 252.778 258.522C251.773 258.522 251.16 258.13 250.904 257.278C250.547 258.249 249.695 258.573 248.622 258.573C247.225 258.573 246.305 257.755 246.305 256.409C246.305 254.655 247.719 253.701 250.751 253.871V253.122C250.751 252.44 250.462 252.032 249.831 252.032C249.201 252.032 248.877 252.457 248.843 253.19L246.578 252.764C246.697 251.095 248.111 250.311 249.916 250.311C251.875 250.311 253 251.163 253 252.917ZM258.45 250.311C259.336 250.311 260.102 250.482 260.682 250.805C261.022 250.464 261.107 250.243 261.278 249.613L263.066 250.209C262.981 250.976 262.283 251.504 261.635 251.691C261.874 252.066 261.993 252.543 261.993 253.088C261.993 254.91 260.392 255.796 258.382 255.796C258.007 255.796 257.615 255.762 257.428 255.694C257.156 255.864 257.053 256.086 257.053 256.341C257.053 256.614 257.275 256.818 257.684 256.818H259.932C261.704 256.818 262.709 257.772 262.709 259.135C262.709 261.383 260.392 261.963 258.144 261.963C256.202 261.963 254.464 261.503 254.464 259.987C254.464 259.067 255.128 258.505 256.542 258.402C255.759 258.351 255.265 257.704 255.265 257.006C255.265 256.392 255.674 255.711 256.593 255.455C255.52 255.03 254.958 254.348 254.958 253.088C254.958 251.265 256.355 250.311 258.45 250.311ZM256.559 259.544C256.559 260.157 257.19 260.446 258.399 260.446C259.983 260.446 260.579 260.157 260.579 259.527C260.579 259.05 260.29 258.862 259.608 258.862H257.667C257.019 258.862 256.559 259.084 256.559 259.544ZM257.258 253.088C257.258 253.786 257.65 254.297 258.45 254.297C259.234 254.297 259.66 253.871 259.66 253.088C259.66 252.253 259.234 251.861 258.45 251.861C257.65 251.878 257.258 252.304 257.258 253.088ZM266.991 256.818C267.605 256.818 268.116 256.58 268.371 255.745L270.313 256.409C269.904 258.011 268.49 258.573 266.94 258.573C264.692 258.573 263.142 257.091 263.142 254.553C263.142 251.844 264.607 250.311 266.974 250.311C269.206 250.311 270.296 251.776 270.296 253.803C270.296 254.144 270.262 254.502 270.194 254.825H265.339C265.39 256.035 265.952 256.818 266.991 256.818ZM265.407 253.565H268.116C268.133 253.462 268.133 253.394 268.133 253.292C268.133 252.56 267.707 251.998 266.889 251.998C266.037 251.998 265.492 252.645 265.407 253.565ZM277.046 255.098V253.633C277.046 252.475 276.297 251.998 275.513 251.998C274.61 251.998 273.742 252.645 273.742 254.502C273.742 255.984 274.406 256.818 275.479 256.818C276.263 256.818 277.046 256.239 277.046 255.098ZM277.029 251.538V246.99H279.312V258.368H277.336L277.046 257.006C276.757 258.198 275.769 258.573 274.593 258.573C272.856 258.573 271.459 257.193 271.459 254.604C271.459 251.912 272.72 250.311 274.968 250.311C275.973 250.311 276.825 250.788 277.029 251.538ZM215.086 277.546L216.96 276.796C217.13 277.648 217.743 277.972 218.493 277.972C219.123 277.972 219.566 277.75 219.566 277.29C219.566 276.847 219.259 276.643 218.561 276.473L217.403 276.2C216.023 275.842 215.392 275.059 215.392 273.866C215.392 271.873 216.977 271.311 218.595 271.311C220.469 271.311 221.593 271.993 221.712 273.526L219.583 273.832C219.498 273.202 219.14 272.998 218.493 272.998C217.965 272.998 217.607 273.236 217.607 273.645C217.607 274.037 217.845 274.258 218.373 274.36L219.481 274.599C221.082 274.939 221.831 275.791 221.831 277.137C221.831 278.891 220.383 279.573 218.459 279.573C216.517 279.573 215.392 279.028 215.086 277.546ZM226.743 279.573C224.443 279.573 222.927 278.074 222.927 275.416C222.927 272.742 224.443 271.311 226.743 271.311C229.025 271.311 230.541 272.742 230.541 275.416C230.541 278.074 229.025 279.573 226.743 279.573ZM226.743 273.134C225.686 273.134 225.175 273.866 225.175 275.416C225.175 277.052 225.669 277.801 226.743 277.801C227.799 277.801 228.293 277.052 228.293 275.416C228.293 273.866 227.782 273.134 226.743 273.134ZM235.629 277.409L235.51 279.317C235.067 279.436 234.641 279.522 234.198 279.522C233.057 279.522 232.018 278.994 232.018 277.512V267.99H234.3V276.847C234.3 277.341 234.607 277.529 235.016 277.529C235.22 277.529 235.425 277.495 235.629 277.409ZM241.935 279.368L241.662 277.903C241.39 278.977 240.674 279.573 239.226 279.573C237.83 279.573 236.859 278.857 236.859 277.035V271.499H239.141V276.387C239.141 277.324 239.431 277.852 240.214 277.852C240.998 277.852 241.628 277.239 241.628 275.723V271.499H243.911V279.368H241.935ZM250.916 277.137L251.308 279.062C250.644 279.402 249.826 279.573 248.889 279.573C247.322 279.573 246.3 278.84 246.3 277.035V273.253H245.159V271.499H246.317V269.829L248.599 269.557V271.499H250.933V273.253H248.582V276.524C248.582 277.358 248.906 277.631 249.536 277.631C250.03 277.631 250.456 277.46 250.916 277.137ZM252.394 269.097C252.394 268.228 253.007 267.768 253.773 267.768C254.574 267.768 255.187 268.228 255.187 269.097C255.187 269.931 254.574 270.391 253.773 270.391C253.007 270.391 252.394 269.931 252.394 269.097ZM252.632 271.499H254.915V279.368H252.632V271.499ZM260.362 279.573C258.062 279.573 256.546 278.074 256.546 275.416C256.546 272.742 258.062 271.311 260.362 271.311C262.644 271.311 264.16 272.742 264.16 275.416C264.16 278.074 262.644 279.573 260.362 279.573ZM260.362 273.134C259.305 273.134 258.794 273.866 258.794 275.416C258.794 277.052 259.288 277.801 260.362 277.801C261.418 277.801 261.912 277.052 261.912 275.416C261.912 273.866 261.401 273.134 260.362 273.134ZM267.732 271.499L268.005 273.015C268.431 271.839 269.316 271.311 270.526 271.311C271.735 271.311 272.842 272.027 272.842 273.798V279.368H270.56V274.65C270.56 273.781 270.321 273.219 269.504 273.219C268.771 273.219 268.073 273.628 268.073 275.042V279.368H265.79V271.499H267.732Z" fill="white"/>
<rect x="2.67665" y="241.5" width="337.747" height="337.747" transform="rotate(-45 2.67665 241.5)" stroke="#EBECF6" stroke-width="3.78536"/>
</svg>
