<svg width="678" height="679" viewBox="0 0 678 679" fill="none" xmlns="http://www.w3.org/2000/svg">
<path d="M175 169.5L509.5 505M169.5 505L503.5 169.5" stroke="#EBECF6" stroke-width="3"/>
<path d="M338.906 222.5L455.32 339.086L338.906 455.5L222.492 339.086L338.906 222.5Z" fill="#36539B"/>
<path d="M309.117 121.732H302.045L302.929 116.74H309.195L309.507 114.972H303.241L304.125 109.954H311.197L311.509 108.186H302.357L299.679 123.5H308.831L309.117 121.732ZM316.825 121.55C315.993 122.018 315.499 122.148 314.771 122.148C314.069 122.148 313.523 121.654 313.757 120.38L315.057 113.074H318.177L318.463 111.488H315.317L315.811 108.68L313.809 108.966L313.367 111.488H311.677L311.391 113.074H313.055L311.807 120.172C311.339 122.72 312.431 123.812 314.459 123.812C315.161 123.812 316.097 123.63 316.825 123.214V121.55ZM326.543 118.482C326.153 120.77 324.853 122.174 323.033 122.174C321.265 122.174 320.381 120.692 320.381 118.664C320.381 115.232 322.149 112.762 324.541 112.762C326.465 112.762 327.219 114.634 326.907 116.454L326.543 118.482ZM329.767 111.488H328.129L327.479 113.516C327.167 111.93 326.023 111.202 324.359 111.202C320.823 111.202 318.457 114.79 318.457 118.898C318.457 122.07 320.173 123.812 322.487 123.812C323.995 123.812 325.425 123.136 326.153 121.498C326.049 122.876 326.725 123.63 328.025 123.63C328.467 123.63 328.909 123.552 329.273 123.422L329.533 121.992C329.221 122.07 328.987 122.096 328.779 122.096C328.025 122.096 327.999 121.524 328.103 120.926L329.767 111.488ZM334.509 116.558C334.899 114.322 336.485 112.814 338.279 112.814C339.917 112.814 340.801 114.114 340.801 116.142C340.801 119.444 339.293 122.174 336.745 122.174C334.717 122.174 333.781 120.354 334.093 118.898L334.509 116.558ZM333.651 121.524C333.911 122.798 335.107 123.812 336.901 123.812C340.567 123.812 342.855 120.432 342.855 116.142C342.855 112.97 341.451 111.202 338.929 111.202C337.187 111.202 335.809 112.06 334.977 113.802L335.185 111.488H333.469L330.427 128.778H332.377L333.651 121.524ZM347.339 116.558C347.729 114.322 349.315 112.814 351.109 112.814C352.747 112.814 353.631 114.114 353.631 116.142C353.631 119.444 352.123 122.174 349.575 122.174C347.547 122.174 346.611 120.354 346.923 118.898L347.339 116.558ZM346.481 121.524C346.741 122.798 347.937 123.812 349.731 123.812C353.397 123.812 355.685 120.432 355.685 116.142C355.685 112.97 354.281 111.202 351.759 111.202C350.017 111.202 348.639 112.06 347.807 113.802L348.015 111.488H346.299L343.257 128.778H345.207L346.481 121.524ZM361.754 122.278C359.466 122.278 358.66 120.042 358.842 117.936H366.59C366.954 117.156 367.11 116.324 367.11 115.492C367.11 113.282 365.914 111.202 362.846 111.202C359.96 111.202 356.996 113.828 356.996 118.716C356.996 121.784 358.686 123.812 361.572 123.812C363.912 123.812 365.628 123.11 366.512 120.666L364.718 120.224C364.276 121.524 363.548 122.278 361.754 122.278ZM359.076 116.35C359.544 114.452 360.74 112.762 362.742 112.762C364.432 112.762 365.212 114.01 365.212 115.44C365.212 115.752 365.186 116.064 365.082 116.35H359.076ZM377.317 123.5L379.553 110.786L373.651 111.982L373.339 113.646L377.135 112.944L375.289 123.5H377.317Z" fill="#363C65"/>
<path d="M276.834 142.625H278.584C280.009 142.625 280.659 143.35 280.659 144.875C280.659 146.25 280.059 146.975 278.584 146.975H276.834V142.625ZM276.834 154.5V149.75H279.009C282.184 149.75 284.034 147.875 284.034 144.75C284.034 141.5 282.459 139.775 278.684 139.775H273.434V154.5H276.834ZM290.471 154.8C293.821 154.8 296.046 152.6 296.046 148.7C296.046 144.775 293.821 142.675 290.471 142.675C287.096 142.675 284.871 144.775 284.871 148.7C284.871 152.6 287.096 154.8 290.471 154.8ZM290.471 145.35C291.996 145.35 292.746 146.425 292.746 148.7C292.746 151.1 292.021 152.2 290.471 152.2C288.896 152.2 288.171 151.1 288.171 148.7C288.171 146.425 288.921 145.35 290.471 145.35ZM305.063 151.225C304.388 151.7 303.763 151.95 303.038 151.95C302.113 151.95 301.638 151.55 301.638 150.325V145.525H305.088V142.95H301.663V140.1L298.313 140.5V142.95H296.613V145.525H298.288V151.075C298.288 153.725 299.788 154.8 302.088 154.8C303.463 154.8 304.663 154.55 305.638 154.05L305.063 151.225ZM311.86 152.225C310.335 152.225 309.51 151.075 309.435 149.3H316.56C316.66 148.825 316.71 148.3 316.71 147.8C316.71 144.825 315.11 142.675 311.835 142.675C308.36 142.675 306.21 144.925 306.21 148.9C306.21 152.625 308.485 154.8 311.785 154.8C314.06 154.8 316.135 153.975 316.735 151.625L313.885 150.65C313.51 151.875 312.76 152.225 311.86 152.225ZM309.535 147.45C309.66 146.1 310.46 145.15 311.71 145.15C312.91 145.15 313.535 145.975 313.535 147.05C313.535 147.2 313.535 147.3 313.51 147.45H309.535ZM321.517 142.95H318.667V154.5H322.017V148.15C322.017 146.075 323.042 145.475 324.117 145.475C325.317 145.475 325.667 146.3 325.667 147.575V154.5H329.017V146.325C329.017 143.725 327.392 142.675 325.617 142.675C323.842 142.675 322.542 143.45 321.917 145.175L321.517 142.95ZM339.721 145.05V142.95H330.871V145.6H333.821C335.121 145.6 335.821 145.475 335.821 145.475V145.575C335.821 145.575 335.146 146.175 334.246 147.4L330.671 152.475V154.5H339.946V151.9H336.421C335.146 151.9 334.421 152.025 334.421 152.025V151.925C334.421 151.925 335.096 151.325 335.996 150.1L339.721 145.05ZM341.365 139.425C341.365 140.65 342.265 141.325 343.39 141.325C344.565 141.325 345.465 140.65 345.465 139.425C345.465 138.15 344.565 137.475 343.39 137.475C342.265 137.475 341.365 138.15 341.365 139.425ZM341.715 142.95V154.5H345.065V142.95H341.715ZM353.359 150.875C353.359 152 352.334 152.425 351.459 152.425C350.659 152.425 350.184 151.95 350.184 151.275C350.184 150.25 351.009 149.625 353.359 149.7V150.875ZM356.659 146.5C356.659 143.925 355.009 142.675 352.134 142.675C349.484 142.675 347.409 143.825 347.234 146.275L350.559 146.9C350.609 145.825 351.084 145.2 352.009 145.2C352.934 145.2 353.359 145.8 353.359 146.8V147.9C348.909 147.65 346.834 149.05 346.834 151.625C346.834 153.6 348.184 154.8 350.234 154.8C351.809 154.8 353.059 154.325 353.584 152.9C353.959 154.15 354.859 154.725 356.334 154.725C357.134 154.725 357.759 154.6 358.234 154.3V151.875C358.009 151.975 357.784 152.05 357.509 152.05C356.984 152.05 356.659 151.775 356.659 151V146.5ZM364.808 151.625C364.508 151.75 364.208 151.8 363.908 151.8C363.308 151.8 362.858 151.525 362.858 150.8V137.8H359.508V151.775C359.508 153.95 361.033 154.725 362.708 154.725C363.358 154.725 363.983 154.6 364.633 154.425L364.808 151.625ZM366.86 145.525V154.5H370.185V145.525H373.135V142.95H370.185V142.2C370.185 140.8 370.86 140.425 371.835 140.425C372.635 140.425 373.235 140.6 373.81 140.925L374.285 138.15C373.485 137.775 372.61 137.6 371.485 137.6C368.96 137.6 366.86 138.775 366.86 142.1V142.95H365.16V145.525H366.86ZM378.843 152.225C377.318 152.225 376.493 151.075 376.418 149.3H383.543C383.643 148.825 383.693 148.3 383.693 147.8C383.693 144.825 382.093 142.675 378.818 142.675C375.343 142.675 373.193 144.925 373.193 148.9C373.193 152.625 375.468 154.8 378.768 154.8C381.043 154.8 383.118 153.975 383.718 151.625L380.868 150.65C380.493 151.875 379.743 152.225 378.843 152.225ZM376.518 147.45C376.643 146.1 377.443 145.15 378.693 145.15C379.893 145.15 380.518 145.975 380.518 147.05C380.518 147.2 380.518 147.3 380.493 147.45H376.518ZM390.725 151.625C390.425 151.75 390.125 151.8 389.825 151.8C389.225 151.8 388.775 151.525 388.775 150.8V137.8H385.425V151.775C385.425 153.95 386.95 154.725 388.625 154.725C389.275 154.725 389.9 154.6 390.55 154.425L390.725 151.625ZM399.583 149.7C399.583 151.375 398.433 152.225 397.283 152.225C395.708 152.225 394.733 151 394.733 148.825C394.733 146.1 396.008 145.15 397.333 145.15C398.483 145.15 399.583 145.85 399.583 147.55V149.7ZM399.558 144.475C399.258 143.375 398.008 142.675 396.533 142.675C393.233 142.675 391.383 145.025 391.383 148.975C391.383 152.775 393.433 154.8 395.983 154.8C397.708 154.8 399.158 154.25 399.583 152.5L400.008 154.5H402.908V137.8H399.558V144.475ZM293.121 181.875C293.121 183 292.096 183.425 291.221 183.425C290.421 183.425 289.946 182.95 289.946 182.275C289.946 181.25 290.771 180.625 293.121 180.7V181.875ZM296.421 177.5C296.421 174.925 294.771 173.675 291.896 173.675C289.246 173.675 287.171 174.825 286.996 177.275L290.321 177.9C290.371 176.825 290.846 176.2 291.771 176.2C292.696 176.2 293.121 176.8 293.121 177.8V178.9C288.671 178.65 286.596 180.05 286.596 182.625C286.596 184.6 287.946 185.8 289.996 185.8C291.571 185.8 292.821 185.325 293.346 183.9C293.721 185.15 294.621 185.725 296.096 185.725C296.896 185.725 297.521 185.6 297.996 185.3V182.875C297.771 182.975 297.546 183.05 297.271 183.05C296.746 183.05 296.421 182.775 296.421 182V177.5ZM306.476 185.5H309.376V173.95H306.026V180.15C306.026 182.375 305.101 183.275 303.951 183.275C302.801 183.275 302.376 182.5 302.376 181.125V173.95H299.026V182.075C299.026 184.75 300.451 185.8 302.501 185.8C304.626 185.8 305.676 184.925 306.076 183.35L306.476 185.5ZM310.908 182.825C311.358 185 313.008 185.8 315.858 185.8C318.683 185.8 320.808 184.8 320.808 182.225C320.808 180.25 319.708 179 317.358 178.5L315.733 178.15C314.958 178 314.608 177.675 314.608 177.1C314.608 176.5 315.133 176.15 315.908 176.15C316.858 176.15 317.383 176.45 317.508 177.375L320.633 176.925C320.458 174.675 318.808 173.675 316.058 173.675C313.683 173.675 311.358 174.5 311.358 177.425C311.358 179.175 312.283 180.325 314.308 180.85L316.008 181.25C317.033 181.5 317.483 181.8 317.483 182.45C317.483 183.125 316.833 183.45 315.908 183.45C314.808 183.45 313.908 182.975 313.658 181.725L310.908 182.825ZM331.665 173.95H328.615L327.44 178.525C326.89 180.85 326.765 183.025 326.765 183.025H326.665C326.665 183.025 326.54 180.875 325.94 178.55L324.74 173.95H321.34L324.515 185.5H328.465L329.465 181.4C329.94 179.5 330.065 177.65 330.065 177.65H330.165C330.165 177.65 330.29 179.525 330.765 181.375L331.89 185.5H335.865L338.865 173.95H335.54L334.465 178.575C333.915 180.9 333.815 183.025 333.815 183.025H333.715C333.715 183.025 333.59 180.85 332.94 178.525L331.665 173.95ZM345.857 181.875C345.857 183 344.832 183.425 343.957 183.425C343.157 183.425 342.682 182.95 342.682 182.275C342.682 181.25 343.507 180.625 345.857 180.7V181.875ZM349.157 177.5C349.157 174.925 347.507 173.675 344.632 173.675C341.982 173.675 339.907 174.825 339.732 177.275L343.057 177.9C343.107 176.825 343.582 176.2 344.507 176.2C345.432 176.2 345.857 176.8 345.857 177.8V178.9C341.407 178.65 339.332 180.05 339.332 182.625C339.332 184.6 340.682 185.8 342.732 185.8C344.307 185.8 345.557 185.325 346.082 183.9C346.457 185.15 347.357 185.725 348.832 185.725C349.632 185.725 350.257 185.6 350.732 185.3V182.875C350.507 182.975 350.282 183.05 350.007 183.05C349.482 183.05 349.157 182.775 349.157 182V177.5ZM340.032 170.6C340.032 171.8 340.882 172.475 341.882 172.475C342.982 172.475 343.782 171.8 343.782 170.6C343.782 169.35 342.982 168.725 341.882 168.725C340.882 168.725 340.032 169.35 340.032 170.6ZM345.482 170.6C345.482 171.825 346.332 172.475 347.332 172.475C348.407 172.475 349.232 171.825 349.232 170.6C349.232 169.35 348.407 168.725 347.332 168.725C346.332 168.725 345.482 169.35 345.482 170.6ZM355.582 168.8H352.232V185.5H355.582V179.125C355.582 177.075 356.607 176.475 357.682 176.475C358.882 176.475 359.232 177.3 359.232 178.575V185.5H362.582V177.325C362.582 174.725 360.957 173.675 359.182 173.675C357.407 173.675 356.182 174.45 355.582 176.15V168.8ZM370.186 182.625C369.886 182.75 369.586 182.8 369.286 182.8C368.686 182.8 368.236 182.525 368.236 181.8V168.8H364.886V182.775C364.886 184.95 366.411 185.725 368.086 185.725C368.736 185.725 369.361 185.6 370.011 185.425L370.186 182.625ZM376.493 183.225C374.968 183.225 374.143 182.075 374.068 180.3H381.193C381.293 179.825 381.343 179.3 381.343 178.8C381.343 175.825 379.743 173.675 376.468 173.675C372.993 173.675 370.843 175.925 370.843 179.9C370.843 183.625 373.118 185.8 376.418 185.8C378.693 185.8 380.768 184.975 381.368 182.625L378.518 181.65C378.143 182.875 377.393 183.225 376.493 183.225ZM374.168 178.45C374.293 177.1 375.093 176.15 376.343 176.15C377.543 176.15 378.168 176.975 378.168 178.05C378.168 178.2 378.168 178.3 378.143 178.45H374.168ZM386.15 173.95H383.3V185.5H386.65V179.15C386.65 177.075 387.675 176.475 388.75 176.475C389.95 176.475 390.3 177.3 390.3 178.575V185.5H393.65V177.325C393.65 174.725 392.025 173.675 390.25 173.675C388.475 173.675 387.175 174.45 386.55 176.175L386.15 173.95Z" fill="#363C65"/>
<path d="M307.373 310.732H300.301L301.185 305.74H307.451L307.763 303.972H301.497L302.381 298.954H309.453L309.765 297.186H300.613L297.935 312.5H307.087L307.373 310.732ZM315.081 310.55C314.249 311.018 313.755 311.148 313.027 311.148C312.325 311.148 311.779 310.654 312.013 309.38L313.313 302.074H316.433L316.719 300.488H313.573L314.067 297.68L312.065 297.966L311.623 300.488H309.933L309.647 302.074H311.311L310.063 309.172C309.595 311.72 310.687 312.812 312.715 312.812C313.417 312.812 314.353 312.63 315.081 312.214V310.55ZM324.799 307.482C324.409 309.77 323.109 311.174 321.289 311.174C319.521 311.174 318.637 309.692 318.637 307.664C318.637 304.232 320.405 301.762 322.797 301.762C324.721 301.762 325.475 303.634 325.163 305.454L324.799 307.482ZM328.023 300.488H326.385L325.735 302.516C325.423 300.93 324.279 300.202 322.615 300.202C319.079 300.202 316.713 303.79 316.713 307.898C316.713 311.07 318.429 312.812 320.743 312.812C322.251 312.812 323.681 312.136 324.409 310.498C324.305 311.876 324.981 312.63 326.281 312.63C326.723 312.63 327.165 312.552 327.529 312.422L327.789 310.992C327.477 311.07 327.243 311.096 327.035 311.096C326.281 311.096 326.255 310.524 326.359 309.926L328.023 300.488ZM332.765 305.558C333.155 303.322 334.741 301.814 336.535 301.814C338.173 301.814 339.057 303.114 339.057 305.142C339.057 308.444 337.549 311.174 335.001 311.174C332.973 311.174 332.037 309.354 332.349 307.898L332.765 305.558ZM331.907 310.524C332.167 311.798 333.363 312.812 335.157 312.812C338.823 312.812 341.111 309.432 341.111 305.142C341.111 301.97 339.707 300.202 337.185 300.202C335.443 300.202 334.065 301.06 333.233 302.802L333.441 300.488H331.725L328.683 317.778H330.633L331.907 310.524ZM345.594 305.558C345.984 303.322 347.57 301.814 349.364 301.814C351.002 301.814 351.886 303.114 351.886 305.142C351.886 308.444 350.378 311.174 347.83 311.174C345.802 311.174 344.866 309.354 345.178 307.898L345.594 305.558ZM344.736 310.524C344.996 311.798 346.192 312.812 347.986 312.812C351.652 312.812 353.94 309.432 353.94 305.142C353.94 301.97 352.536 300.202 350.014 300.202C348.272 300.202 346.894 301.06 346.062 302.802L346.27 300.488H344.554L341.512 317.778H343.462L344.736 310.524ZM360.01 311.278C357.722 311.278 356.916 309.042 357.098 306.936H364.846C365.21 306.156 365.366 305.324 365.366 304.492C365.366 302.282 364.17 300.202 361.102 300.202C358.216 300.202 355.252 302.828 355.252 307.716C355.252 310.784 356.942 312.812 359.828 312.812C362.168 312.812 363.884 312.11 364.768 309.666L362.974 309.224C362.532 310.524 361.804 311.278 360.01 311.278ZM357.332 305.35C357.8 303.452 358.996 301.762 360.998 301.762C362.688 301.762 363.468 303.01 363.468 304.44C363.468 304.752 363.442 305.064 363.338 305.35H357.332ZM372.245 308.34H373.831C374.273 308.028 374.845 307.82 375.573 307.82C377.289 307.82 378.225 309.016 378.225 310.784C378.225 313.462 376.457 314.554 374.767 314.554C373.103 314.554 372.063 313.8 372.063 312.032L370.165 312.448C370.165 314.58 371.621 316.088 374.507 316.088C377.679 316.088 380.201 314.164 380.227 310.498C380.253 308.314 378.927 306.39 376.405 306.39C375.495 306.39 374.767 306.676 374.299 307.092L375.495 301.684H381.293L381.579 299.994H374.013L372.245 308.34Z" fill="white"/>
<path d="M269.532 328.775V343.5H278.682V340.55H272.932V328.775H269.532ZM285.05 343.8C288.4 343.8 290.625 341.6 290.625 337.7C290.625 333.775 288.4 331.675 285.05 331.675C281.675 331.675 279.45 333.775 279.45 337.7C279.45 341.6 281.675 343.8 285.05 343.8ZM285.05 334.35C286.575 334.35 287.325 335.425 287.325 337.7C287.325 340.1 286.6 341.2 285.05 341.2C283.475 341.2 282.75 340.1 282.75 337.7C282.75 335.425 283.5 334.35 285.05 334.35ZM280.375 328.6C280.375 329.8 281.225 330.475 282.225 330.475C283.325 330.475 284.125 329.8 284.125 328.6C284.125 327.35 283.325 326.725 282.225 326.725C281.225 326.725 280.375 327.35 280.375 328.6ZM285.825 328.6C285.825 329.825 286.675 330.475 287.675 330.475C288.75 330.475 289.575 329.825 289.575 328.6C289.575 327.35 288.75 326.725 287.675 326.725C286.675 326.725 285.825 327.35 285.825 328.6ZM291.142 340.825C291.592 343 293.242 343.8 296.092 343.8C298.917 343.8 301.042 342.8 301.042 340.225C301.042 338.25 299.942 337 297.592 336.5L295.967 336.15C295.192 336 294.842 335.675 294.842 335.1C294.842 334.5 295.367 334.15 296.142 334.15C297.092 334.15 297.617 334.45 297.742 335.375L300.867 334.925C300.692 332.675 299.042 331.675 296.292 331.675C293.917 331.675 291.592 332.5 291.592 335.425C291.592 337.175 292.517 338.325 294.542 338.85L296.242 339.25C297.267 339.5 297.717 339.8 297.717 340.45C297.717 341.125 297.067 341.45 296.142 341.45C295.042 341.45 294.142 340.975 293.892 339.725L291.142 340.825ZM309.875 343.5H312.775V331.95H309.425V338.15C309.425 340.375 308.5 341.275 307.35 341.275C306.2 341.275 305.775 340.5 305.775 339.125V331.95H302.425V340.075C302.425 342.75 303.85 343.8 305.9 343.8C308.025 343.8 309.075 342.925 309.475 341.35L309.875 343.5ZM318.031 331.95H315.181V343.5H318.531V337.15C318.531 335.075 319.556 334.475 320.631 334.475C321.831 334.475 322.181 335.3 322.181 336.575V343.5H325.531V335.325C325.531 332.725 323.906 331.675 322.131 331.675C320.356 331.675 319.056 332.45 318.431 334.175L318.031 331.95ZM332.235 331.675C329.16 331.675 327.11 333.075 327.11 335.75C327.11 337.6 327.935 338.6 329.51 339.225C328.16 339.6 327.56 340.6 327.56 341.5C327.56 342.525 328.285 343.475 329.435 343.55C327.36 343.7 326.385 344.525 326.385 345.875C326.385 348.1 328.935 348.775 331.785 348.775C335.085 348.775 338.485 347.925 338.485 344.625C338.485 342.625 337.01 341.225 334.41 341.225H331.11C330.51 341.225 330.185 340.925 330.185 340.525C330.185 340.15 330.335 339.825 330.735 339.575C331.01 339.675 331.585 339.725 332.135 339.725C335.085 339.725 337.435 338.425 337.435 335.75C337.435 334.95 337.26 334.25 336.91 333.7C337.86 333.425 338.885 332.65 339.01 331.525L336.385 330.65C336.135 331.575 336.01 331.9 335.51 332.4C334.66 331.925 333.535 331.675 332.235 331.675ZM329.46 345.225C329.46 344.55 330.135 344.225 331.085 344.225H333.935C334.935 344.225 335.36 344.5 335.36 345.2C335.36 346.125 334.485 346.55 332.16 346.55C330.385 346.55 329.46 346.125 329.46 345.225ZM330.485 335.75C330.485 334.6 331.06 333.975 332.235 333.95C333.385 333.95 334.01 334.525 334.01 335.75C334.01 336.9 333.385 337.525 332.235 337.525C331.06 337.525 330.485 336.775 330.485 335.75ZM338.24 340.825C338.69 343 340.34 343.8 343.19 343.8C346.015 343.8 348.14 342.8 348.14 340.225C348.14 338.25 347.04 337 344.69 336.5L343.065 336.15C342.29 336 341.94 335.675 341.94 335.1C341.94 334.5 342.465 334.15 343.24 334.15C344.19 334.15 344.715 334.45 344.84 335.375L347.965 334.925C347.79 332.675 346.14 331.675 343.39 331.675C341.015 331.675 338.69 332.5 338.69 335.425C338.69 337.175 339.615 338.325 341.64 338.85L343.34 339.25C344.365 339.5 344.815 339.8 344.815 340.45C344.815 341.125 344.165 341.45 343.24 341.45C342.14 341.45 341.24 340.975 340.99 339.725L338.24 340.825ZM355.446 339.875C355.446 341 354.421 341.425 353.546 341.425C352.746 341.425 352.271 340.95 352.271 340.275C352.271 339.25 353.096 338.625 355.446 338.7V339.875ZM358.746 335.5C358.746 332.925 357.096 331.675 354.221 331.675C351.571 331.675 349.496 332.825 349.321 335.275L352.646 335.9C352.696 334.825 353.171 334.2 354.096 334.2C355.021 334.2 355.446 334.8 355.446 335.8V336.9C350.996 336.65 348.921 338.05 348.921 340.625C348.921 342.6 350.271 343.8 352.321 343.8C353.896 343.8 355.146 343.325 355.671 341.9C356.046 343.15 356.946 343.725 358.421 343.725C359.221 343.725 359.846 343.6 360.321 343.3V340.875C360.096 340.975 359.871 341.05 359.596 341.05C359.071 341.05 358.746 340.775 358.746 340V335.5ZM364.421 331.95H361.571V343.5H364.921V337.15C364.921 335.075 365.946 334.475 367.021 334.475C368.221 334.475 368.571 335.3 368.571 336.575V343.5H371.921V335.325C371.921 332.725 370.296 331.675 368.521 331.675C366.746 331.675 365.446 332.45 364.821 334.175L364.421 331.95ZM373.075 340.825C373.525 343 375.175 343.8 378.025 343.8C380.85 343.8 382.975 342.8 382.975 340.225C382.975 338.25 381.875 337 379.525 336.5L377.9 336.15C377.125 336 376.775 335.675 376.775 335.1C376.775 334.5 377.3 334.15 378.075 334.15C379.025 334.15 379.55 334.45 379.675 335.375L382.8 334.925C382.625 332.675 380.975 331.675 378.225 331.675C375.85 331.675 373.525 332.5 373.525 335.425C373.525 337.175 374.45 338.325 376.475 338.85L378.175 339.25C379.2 339.5 379.65 339.8 379.65 340.45C379.65 341.125 379 341.45 378.075 341.45C376.975 341.45 376.075 340.975 375.825 339.725L373.075 340.825ZM390.281 339.875C390.281 341 389.256 341.425 388.381 341.425C387.581 341.425 387.106 340.95 387.106 340.275C387.106 339.25 387.931 338.625 390.281 338.7V339.875ZM393.581 335.5C393.581 332.925 391.931 331.675 389.056 331.675C386.406 331.675 384.331 332.825 384.156 335.275L387.481 335.9C387.531 334.825 388.006 334.2 388.931 334.2C389.856 334.2 390.281 334.8 390.281 335.8V336.9C385.831 336.65 383.756 338.05 383.756 340.625C383.756 342.6 385.106 343.8 387.156 343.8C388.731 343.8 389.981 343.325 390.506 341.9C390.881 343.15 391.781 343.725 393.256 343.725C394.056 343.725 394.681 343.6 395.156 343.3V340.875C394.931 340.975 394.706 341.05 394.431 341.05C393.906 341.05 393.581 340.775 393.581 340V335.5ZM403.531 340.225C402.856 340.7 402.231 340.95 401.506 340.95C400.581 340.95 400.106 340.55 400.106 339.325V334.525H403.556V331.95H400.131V329.1L396.781 329.5V331.95H395.081V334.525H396.756V340.075C396.756 342.725 398.256 343.8 400.556 343.8C401.931 343.8 403.131 343.55 404.106 343.05L403.531 340.225ZM413.474 334.05V331.95H404.624V334.6H407.574C408.874 334.6 409.574 334.475 409.574 334.475V334.575C409.574 334.575 408.899 335.175 407.999 336.4L404.424 341.475V343.5H413.699V340.9H410.174C408.899 340.9 408.174 341.025 408.174 341.025V340.925C408.174 340.925 408.849 340.325 409.749 339.1L413.474 334.05ZM299.485 369.7C299.485 371.375 298.335 372.225 297.185 372.225C295.61 372.225 294.635 371 294.635 368.825C294.635 366.1 295.91 365.15 297.235 365.15C298.385 365.15 299.485 365.85 299.485 367.55V369.7ZM299.46 364.475C299.16 363.375 297.91 362.675 296.435 362.675C293.135 362.675 291.285 365.025 291.285 368.975C291.285 372.775 293.335 374.8 295.885 374.8C297.61 374.8 299.06 374.25 299.485 372.5L299.91 374.5H302.81V357.8H299.46V364.475ZM310.101 372.225C308.576 372.225 307.751 371.075 307.676 369.3H314.801C314.901 368.825 314.951 368.3 314.951 367.8C314.951 364.825 313.351 362.675 310.076 362.675C306.601 362.675 304.451 364.925 304.451 368.9C304.451 372.625 306.726 374.8 310.026 374.8C312.301 374.8 314.376 373.975 314.976 371.625L312.126 370.65C311.751 371.875 311.001 372.225 310.101 372.225ZM307.776 367.45C307.901 366.1 308.701 365.15 309.951 365.15C311.151 365.15 311.776 365.975 311.776 367.05C311.776 367.2 311.776 367.3 311.751 367.45H307.776ZM317.058 365.525V374.5H320.383V365.525H323.933V374.5H327.283V362.95H320.383V362.3C320.383 360.825 321.383 360.425 322.383 360.425C323.183 360.425 324.008 360.725 324.583 361.15L325.733 358.45C324.783 357.925 323.608 357.6 322.158 357.6C319.758 357.6 317.058 358.675 317.058 362.2V362.95H315.358V365.525H317.058ZM332.528 362.95H329.678V374.5H333.028V368.15C333.028 366.075 334.053 365.475 335.128 365.475C336.328 365.475 336.678 366.3 336.678 367.575V374.5H340.028V366.325C340.028 363.725 338.403 362.675 336.628 362.675C334.853 362.675 333.553 363.45 332.928 365.175L332.528 362.95ZM341.956 359.425C341.956 360.65 342.856 361.325 343.981 361.325C345.156 361.325 346.056 360.65 346.056 359.425C346.056 358.15 345.156 357.475 343.981 357.475C342.856 357.475 341.956 358.15 341.956 359.425ZM342.306 362.95V374.5H345.656V362.95H342.306ZM352.951 372.225C351.426 372.225 350.601 371.075 350.526 369.3H357.651C357.751 368.825 357.801 368.3 357.801 367.8C357.801 364.825 356.201 362.675 352.926 362.675C349.451 362.675 347.301 364.925 347.301 368.9C347.301 372.625 349.576 374.8 352.876 374.8C355.151 374.8 357.226 373.975 357.826 371.625L354.976 370.65C354.601 371.875 353.851 372.225 352.951 372.225ZM350.626 367.45C350.751 366.1 351.551 365.15 352.801 365.15C354.001 365.15 354.626 365.975 354.626 367.05C354.626 367.2 354.626 367.3 354.601 367.45H350.626ZM367.483 362.7C364.433 362.525 363.308 364.125 362.808 366.125L362.408 362.95H359.508V374.5H362.858V369.225C362.858 366.85 364.483 366.2 365.808 366.2C366.333 366.2 366.683 366.25 367.108 366.4L367.483 362.7ZM373.179 372.225C371.654 372.225 370.829 371.075 370.754 369.3H377.879C377.979 368.825 378.029 368.3 378.029 367.8C378.029 364.825 376.429 362.675 373.154 362.675C369.679 362.675 367.529 364.925 367.529 368.9C367.529 372.625 369.804 374.8 373.104 374.8C375.379 374.8 377.454 373.975 378.054 371.625L375.204 370.65C374.829 371.875 374.079 372.225 373.179 372.225ZM370.854 367.45C370.979 366.1 371.779 365.15 373.029 365.15C374.229 365.15 374.854 365.975 374.854 367.05C374.854 367.2 374.854 367.3 374.829 367.45H370.854ZM382.586 362.95H379.736V374.5H383.086V368.15C383.086 366.075 384.111 365.475 385.186 365.475C386.386 365.475 386.736 366.3 386.736 367.575V374.5H390.086V366.325C390.086 363.725 388.461 362.675 386.686 362.675C384.911 362.675 383.611 363.45 382.986 365.175L382.586 362.95Z" fill="white"/>
<path d="M505.373 310.732H498.301L499.185 305.74H505.451L505.763 303.972H499.497L500.381 298.954H507.453L507.765 297.186H498.613L495.935 312.5H505.087L505.373 310.732ZM513.081 310.55C512.249 311.018 511.755 311.148 511.027 311.148C510.325 311.148 509.779 310.654 510.013 309.38L511.313 302.074H514.433L514.719 300.488H511.573L512.067 297.68L510.065 297.966L509.623 300.488H507.933L507.647 302.074H509.311L508.063 309.172C507.595 311.72 508.687 312.812 510.715 312.812C511.417 312.812 512.353 312.63 513.081 312.214V310.55ZM522.799 307.482C522.409 309.77 521.109 311.174 519.289 311.174C517.521 311.174 516.637 309.692 516.637 307.664C516.637 304.232 518.405 301.762 520.797 301.762C522.721 301.762 523.475 303.634 523.163 305.454L522.799 307.482ZM526.023 300.488H524.385L523.735 302.516C523.423 300.93 522.279 300.202 520.615 300.202C517.079 300.202 514.713 303.79 514.713 307.898C514.713 311.07 516.429 312.812 518.743 312.812C520.251 312.812 521.681 312.136 522.409 310.498C522.305 311.876 522.981 312.63 524.281 312.63C524.723 312.63 525.165 312.552 525.529 312.422L525.789 310.992C525.477 311.07 525.243 311.096 525.035 311.096C524.281 311.096 524.255 310.524 524.359 309.926L526.023 300.488ZM530.765 305.558C531.155 303.322 532.741 301.814 534.535 301.814C536.173 301.814 537.057 303.114 537.057 305.142C537.057 308.444 535.549 311.174 533.001 311.174C530.973 311.174 530.037 309.354 530.349 307.898L530.765 305.558ZM529.907 310.524C530.167 311.798 531.363 312.812 533.157 312.812C536.823 312.812 539.111 309.432 539.111 305.142C539.111 301.97 537.707 300.202 535.185 300.202C533.443 300.202 532.065 301.06 531.233 302.802L531.441 300.488H529.725L526.683 317.778H528.633L529.907 310.524ZM543.594 305.558C543.984 303.322 545.57 301.814 547.364 301.814C549.002 301.814 549.886 303.114 549.886 305.142C549.886 308.444 548.378 311.174 545.83 311.174C543.802 311.174 542.866 309.354 543.178 307.898L543.594 305.558ZM542.736 310.524C542.996 311.798 544.192 312.812 545.986 312.812C549.652 312.812 551.94 309.432 551.94 305.142C551.94 301.97 550.536 300.202 548.014 300.202C546.272 300.202 544.894 301.06 544.062 302.802L544.27 300.488H542.554L539.512 317.778H541.462L542.736 310.524ZM558.01 311.278C555.722 311.278 554.916 309.042 555.098 306.936H562.846C563.21 306.156 563.366 305.324 563.366 304.492C563.366 302.282 562.17 300.202 559.102 300.202C556.216 300.202 553.252 302.828 553.252 307.716C553.252 310.784 554.942 312.812 557.828 312.812C560.168 312.812 561.884 312.11 562.768 309.666L560.974 309.224C560.532 310.524 559.804 311.278 558.01 311.278ZM555.332 305.35C555.8 303.452 556.996 301.762 558.998 301.762C560.688 301.762 561.468 303.01 561.468 304.44C561.468 304.752 561.442 305.064 561.338 305.35H555.332ZM578.149 310.836H571.311V310.732C574.327 309.926 578.799 307.326 578.799 303.504C578.799 300.982 577.239 299.682 574.691 299.682C573.001 299.682 570.375 300.41 570.115 303.712L571.961 304.102C571.961 302.048 573.183 301.372 574.483 301.372C575.913 301.372 576.719 302.178 576.719 303.556C576.719 306.468 573.807 308.6 568.945 310.94L568.685 312.5H577.863L578.149 310.836Z" fill="#363C65"/>
<path d="M484.527 328.775V343.5H487.927V328.775H484.527ZM493.778 331.95H490.928V343.5H494.278V337.15C494.278 335.075 495.303 334.475 496.378 334.475C497.578 334.475 497.928 335.3 497.928 336.575V343.5H501.278V335.325C501.278 332.725 499.653 331.675 497.878 331.675C496.103 331.675 494.803 332.45 494.178 334.175L493.778 331.95ZM502.681 340.825C503.131 343 504.781 343.8 507.631 343.8C510.456 343.8 512.581 342.8 512.581 340.225C512.581 338.25 511.481 337 509.131 336.5L507.506 336.15C506.731 336 506.381 335.675 506.381 335.1C506.381 334.5 506.906 334.15 507.681 334.15C508.631 334.15 509.156 334.45 509.281 335.375L512.406 334.925C512.231 332.675 510.581 331.675 507.831 331.675C505.456 331.675 503.131 332.5 503.131 335.425C503.131 337.175 504.056 338.325 506.081 338.85L507.781 339.25C508.806 339.5 509.256 339.8 509.256 340.45C509.256 341.125 508.606 341.45 507.681 341.45C506.581 341.45 505.681 340.975 505.431 339.725L502.681 340.825ZM517.764 337.175C517.764 335.325 518.964 334.35 520.189 334.35C521.664 334.35 522.589 335.35 522.589 337.75C522.589 340.2 521.389 341.4 519.964 341.4C518.989 341.4 517.764 340.75 517.764 338.775V337.175ZM517.789 341.975C518.114 342.95 519.239 343.8 521.014 343.8C524.139 343.8 525.964 341.25 525.964 337.45C525.964 333.775 524.339 331.675 521.514 331.675C519.914 331.675 518.414 332.325 517.714 334.175L517.289 331.95H514.439V348.575H517.789V341.975ZM527.505 328.425C527.505 329.65 528.405 330.325 529.53 330.325C530.705 330.325 531.605 329.65 531.605 328.425C531.605 327.15 530.705 326.475 529.53 326.475C528.405 326.475 527.505 327.15 527.505 328.425ZM527.855 331.95V343.5H531.205V331.95H527.855ZM541.824 331.7C538.774 331.525 537.649 333.125 537.149 335.125L536.749 331.95H533.849V343.5H537.199V338.225C537.199 335.85 538.824 335.2 540.149 335.2C540.674 335.2 541.024 335.25 541.449 335.4L541.824 331.7ZM548.765 339.875C548.765 341 547.74 341.425 546.865 341.425C546.065 341.425 545.59 340.95 545.59 340.275C545.59 339.25 546.415 338.625 548.765 338.7V339.875ZM552.065 335.5C552.065 332.925 550.415 331.675 547.54 331.675C544.89 331.675 542.815 332.825 542.64 335.275L545.965 335.9C546.015 334.825 546.49 334.2 547.415 334.2C548.34 334.2 548.765 334.8 548.765 335.8V336.9C544.315 336.65 542.24 338.05 542.24 340.625C542.24 342.6 543.59 343.8 545.64 343.8C547.215 343.8 548.465 343.325 548.99 341.9C549.365 343.15 550.265 343.725 551.74 343.725C552.54 343.725 553.165 343.6 553.64 343.3V340.875C553.415 340.975 553.19 341.05 552.915 341.05C552.39 341.05 552.065 340.775 552.065 340V335.5ZM562.264 340.225C561.589 340.7 560.964 340.95 560.239 340.95C559.314 340.95 558.839 340.55 558.839 339.325V334.525H562.289V331.95H558.864V329.1L555.514 329.5V331.95H553.814V334.525H555.489V340.075C555.489 342.725 556.989 343.8 559.289 343.8C560.664 343.8 561.864 343.55 562.839 343.05L562.264 340.225ZM563.933 328.425C563.933 329.65 564.833 330.325 565.958 330.325C567.133 330.325 568.033 329.65 568.033 328.425C568.033 327.15 567.133 326.475 565.958 326.475C564.833 326.475 563.933 327.15 563.933 328.425ZM564.283 331.95V343.5H567.633V331.95H564.283ZM575.127 343.8C578.477 343.8 580.702 341.6 580.702 337.7C580.702 333.775 578.477 331.675 575.127 331.675C571.752 331.675 569.527 333.775 569.527 337.7C569.527 341.6 571.752 343.8 575.127 343.8ZM575.127 334.35C576.652 334.35 577.402 335.425 577.402 337.7C577.402 340.1 576.677 341.2 575.127 341.2C573.552 341.2 572.827 340.1 572.827 337.7C572.827 335.425 573.577 334.35 575.127 334.35ZM585.445 331.95H582.595V343.5H585.945V337.15C585.945 335.075 586.97 334.475 588.045 334.475C589.245 334.475 589.595 335.3 589.595 336.575V343.5H592.945V335.325C592.945 332.725 591.32 331.675 589.545 331.675C587.77 331.675 586.47 332.45 585.845 334.175L585.445 331.95ZM492.269 371.825C492.719 374 494.369 374.8 497.219 374.8C500.044 374.8 502.169 373.8 502.169 371.225C502.169 369.25 501.069 368 498.719 367.5L497.094 367.15C496.319 367 495.969 366.675 495.969 366.1C495.969 365.5 496.494 365.15 497.269 365.15C498.219 365.15 498.744 365.45 498.869 366.375L501.994 365.925C501.819 363.675 500.169 362.675 497.419 362.675C495.044 362.675 492.719 363.5 492.719 366.425C492.719 368.175 493.644 369.325 495.669 369.85L497.369 370.25C498.394 370.5 498.844 370.8 498.844 371.45C498.844 372.125 498.194 372.45 497.269 372.45C496.169 372.45 495.269 371.975 495.019 370.725L492.269 371.825ZM509.725 370.875C509.725 372 508.7 372.425 507.825 372.425C507.025 372.425 506.55 371.95 506.55 371.275C506.55 370.25 507.375 369.625 509.725 369.7V370.875ZM513.025 366.5C513.025 363.925 511.375 362.675 508.5 362.675C505.85 362.675 503.775 363.825 503.6 366.275L506.925 366.9C506.975 365.825 507.45 365.2 508.375 365.2C509.3 365.2 509.725 365.8 509.725 366.8V367.9C505.275 367.65 503.2 369.05 503.2 371.625C503.2 373.6 504.55 374.8 506.6 374.8C508.175 374.8 509.425 374.325 509.95 372.9C510.325 374.15 511.225 374.725 512.7 374.725C513.5 374.725 514.125 374.6 514.6 374.3V371.875C514.375 371.975 514.15 372.05 513.875 372.05C513.35 372.05 513.025 371.775 513.025 371V366.5ZM525.95 365.2C525.65 363.275 524.375 362.675 522.9 362.675C521.2 362.675 519.975 363.425 519.35 365.175L518.95 362.95H516.1V374.5H519.45V368.15C519.45 366.125 520.3 365.475 521.35 365.475C522.55 365.475 522.875 366.3 522.875 367.575V374.5H526.225V368.125C526.225 366.125 527.1 365.475 528.125 365.475C529.3 365.475 529.65 366.3 529.65 367.575V374.5H533V366.3C533 363.725 531.575 362.675 529.7 362.675C527.975 362.675 526.575 363.475 525.95 365.2ZM545.372 365.2C545.072 363.275 543.797 362.675 542.322 362.675C540.622 362.675 539.397 363.425 538.772 365.175L538.372 362.95H535.522V374.5H538.872V368.15C538.872 366.125 539.722 365.475 540.772 365.475C541.972 365.475 542.297 366.3 542.297 367.575V374.5H545.647V368.125C545.647 366.125 546.522 365.475 547.547 365.475C548.722 365.475 549.072 366.3 549.072 367.575V374.5H552.422V366.3C552.422 363.725 550.997 362.675 549.122 362.675C547.397 362.675 545.997 363.475 545.372 365.2ZM559.844 372.225C558.319 372.225 557.494 371.075 557.419 369.3H564.544C564.644 368.825 564.694 368.3 564.694 367.8C564.694 364.825 563.094 362.675 559.819 362.675C556.344 362.675 554.194 364.925 554.194 368.9C554.194 372.625 556.469 374.8 559.769 374.8C562.044 374.8 564.119 373.975 564.719 371.625L561.869 370.65C561.494 371.875 560.744 372.225 559.844 372.225ZM557.519 367.45C557.644 366.1 558.444 365.15 559.694 365.15C560.894 365.15 561.519 365.975 561.519 367.05C561.519 367.2 561.519 367.3 561.494 367.45H557.519ZM571.726 371.625C571.426 371.75 571.126 371.8 570.826 371.8C570.226 371.8 569.776 371.525 569.776 370.8V357.8H566.426V371.775C566.426 373.95 567.951 374.725 569.626 374.725C570.276 374.725 570.901 374.6 571.551 374.425L571.726 371.625ZM576.227 362.95H573.377V374.5H576.727V368.15C576.727 366.075 577.752 365.475 578.827 365.475C580.027 365.475 580.377 366.3 580.377 367.575V374.5H583.727V366.325C583.727 363.725 582.102 362.675 580.327 362.675C578.552 362.675 577.252 363.45 576.627 365.175L576.227 362.95Z" fill="#363C65"/>
<path d="M109.319 310.732H102.247L103.131 305.74H109.397L109.709 303.972H103.443L104.327 298.954H111.399L111.711 297.186H102.559L99.8813 312.5H109.033L109.319 310.732ZM117.028 310.55C116.196 311.018 115.702 311.148 114.974 311.148C114.272 311.148 113.726 310.654 113.96 309.38L115.26 302.074H118.38L118.666 300.488H115.52L116.014 297.68L114.012 297.966L113.57 300.488H111.88L111.594 302.074H113.258L112.01 309.172C111.542 311.72 112.634 312.812 114.662 312.812C115.364 312.812 116.3 312.63 117.028 312.214V310.55ZM126.745 307.482C126.355 309.77 125.055 311.174 123.235 311.174C121.467 311.174 120.583 309.692 120.583 307.664C120.583 304.232 122.351 301.762 124.743 301.762C126.667 301.762 127.421 303.634 127.109 305.454L126.745 307.482ZM129.969 300.488H128.331L127.681 302.516C127.369 300.93 126.225 300.202 124.561 300.202C121.025 300.202 118.659 303.79 118.659 307.898C118.659 311.07 120.375 312.812 122.689 312.812C124.197 312.812 125.627 312.136 126.355 310.498C126.251 311.876 126.927 312.63 128.227 312.63C128.669 312.63 129.111 312.552 129.475 312.422L129.735 310.992C129.423 311.07 129.189 311.096 128.981 311.096C128.227 311.096 128.201 310.524 128.305 309.926L129.969 300.488ZM134.711 305.558C135.101 303.322 136.687 301.814 138.481 301.814C140.119 301.814 141.003 303.114 141.003 305.142C141.003 308.444 139.495 311.174 136.947 311.174C134.919 311.174 133.983 309.354 134.295 307.898L134.711 305.558ZM133.853 310.524C134.113 311.798 135.309 312.812 137.103 312.812C140.769 312.812 143.057 309.432 143.057 305.142C143.057 301.97 141.653 300.202 139.131 300.202C137.389 300.202 136.011 301.06 135.179 302.802L135.387 300.488H133.671L130.629 317.778H132.579L133.853 310.524ZM147.541 305.558C147.931 303.322 149.517 301.814 151.311 301.814C152.949 301.814 153.833 303.114 153.833 305.142C153.833 308.444 152.325 311.174 149.777 311.174C147.749 311.174 146.813 309.354 147.125 307.898L147.541 305.558ZM146.683 310.524C146.943 311.798 148.139 312.812 149.933 312.812C153.599 312.812 155.887 309.432 155.887 305.142C155.887 301.97 154.483 300.202 151.961 300.202C150.219 300.202 148.841 301.06 148.009 302.802L148.217 300.488H146.501L143.459 317.778H145.409L146.683 310.524ZM161.956 311.278C159.668 311.278 158.862 309.042 159.044 306.936H166.792C167.156 306.156 167.312 305.324 167.312 304.492C167.312 302.282 166.116 300.202 163.048 300.202C160.162 300.202 157.198 302.828 157.198 307.716C157.198 310.784 158.888 312.812 161.774 312.812C164.114 312.812 165.83 312.11 166.714 309.666L164.92 309.224C164.478 310.524 163.75 311.278 161.956 311.278ZM159.278 305.35C159.746 303.452 160.942 301.762 162.944 301.762C164.634 301.762 165.414 303.01 165.414 304.44C165.414 304.752 165.388 305.064 165.284 305.35H159.278ZM179.158 315.906H181.186L182.044 311.096H184.566L184.852 309.51H182.304L183.968 299.994H181.888L172.866 309.796L172.632 311.096H180.016L179.158 315.906ZM177.286 309.51C175.622 309.51 175.18 309.588 175.18 309.588V309.484C175.18 309.484 175.83 308.99 176.87 307.794L179.34 305.012C180.848 303.296 181.55 302.334 181.55 302.334H181.654C181.654 302.334 181.316 303.478 180.978 305.454L180.276 309.51H177.286Z" fill="#363C65"/>
<path d="M109.18 340.55H102.705V337.475H108.405V334.65H102.705V331.725H109.18V328.775H99.3049V343.5H109.18V340.55ZM111.166 328.425C111.166 329.65 112.066 330.325 113.191 330.325C114.366 330.325 115.266 329.65 115.266 328.425C115.266 327.15 114.366 326.475 113.191 326.475C112.066 326.475 111.166 327.15 111.166 328.425ZM111.516 331.95V343.5H114.866V331.95H111.516ZM120.361 331.95H117.511V343.5H120.861V337.15C120.861 335.075 121.886 334.475 122.961 334.475C124.161 334.475 124.511 335.3 124.511 336.575V343.5H127.861V335.325C127.861 332.725 126.236 331.675 124.461 331.675C122.686 331.675 121.386 332.45 120.761 334.175L120.361 331.95ZM135.289 341.225C133.764 341.225 132.939 340.075 132.864 338.3H139.989C140.089 337.825 140.139 337.3 140.139 336.8C140.139 333.825 138.539 331.675 135.264 331.675C131.789 331.675 129.639 333.925 129.639 337.9C129.639 341.625 131.914 343.8 135.214 343.8C137.489 343.8 139.564 342.975 140.164 340.625L137.314 339.65C136.939 340.875 136.189 341.225 135.289 341.225ZM132.964 336.45C133.089 335.1 133.889 334.15 135.139 334.15C136.339 334.15 136.964 334.975 136.964 336.05C136.964 336.2 136.964 336.3 136.939 336.45H132.964ZM147.464 328.775V343.5H150.864V328.775H147.464ZM161.315 338.7C161.315 340.375 160.165 341.225 159.015 341.225C157.44 341.225 156.465 340 156.465 337.825C156.465 335.1 157.74 334.15 159.065 334.15C160.215 334.15 161.315 334.85 161.315 336.55V338.7ZM161.29 333.475C160.99 332.375 159.74 331.675 158.265 331.675C154.965 331.675 153.115 334.025 153.115 337.975C153.115 341.775 155.165 343.8 157.715 343.8C159.44 343.8 160.89 343.25 161.315 341.5L161.74 343.5H164.64V326.8H161.29V333.475ZM172.181 341.225C170.656 341.225 169.831 340.075 169.756 338.3H176.881C176.981 337.825 177.031 337.3 177.031 336.8C177.031 333.825 175.431 331.675 172.156 331.675C168.681 331.675 166.531 333.925 166.531 337.9C166.531 341.625 168.806 343.8 172.106 343.8C174.381 343.8 176.456 342.975 177.056 340.625L174.206 339.65C173.831 340.875 173.081 341.225 172.181 341.225ZM169.856 336.45C169.981 335.1 170.781 334.15 172.031 334.15C173.231 334.15 173.856 334.975 173.856 336.05C173.856 336.2 173.856 336.3 173.831 336.45H169.856ZM183.888 341.225C182.363 341.225 181.538 340.075 181.463 338.3H188.588C188.688 337.825 188.738 337.3 188.738 336.8C188.738 333.825 187.138 331.675 183.863 331.675C180.388 331.675 178.238 333.925 178.238 337.9C178.238 341.625 180.513 343.8 183.813 343.8C186.088 343.8 188.163 342.975 188.763 340.625L185.913 339.65C185.538 340.875 184.788 341.225 183.888 341.225ZM181.563 336.45C181.688 335.1 182.488 334.15 183.738 334.15C184.938 334.15 185.563 334.975 185.563 336.05C185.563 336.2 185.563 336.3 185.538 336.45H181.563ZM89.8095 370.875C89.8095 372 88.7845 372.425 87.9095 372.425C87.1095 372.425 86.6345 371.95 86.6345 371.275C86.6345 370.25 87.4595 369.625 89.8095 369.7V370.875ZM93.1095 366.5C93.1095 363.925 91.4595 362.675 88.5845 362.675C85.9345 362.675 83.8595 363.825 83.6845 366.275L87.0095 366.9C87.0595 365.825 87.5345 365.2 88.4595 365.2C89.3845 365.2 89.8095 365.8 89.8095 366.8V367.9C85.3595 367.65 83.2845 369.05 83.2845 371.625C83.2845 373.6 84.6345 374.8 86.6845 374.8C88.2595 374.8 89.5095 374.325 90.0345 372.9C90.4095 374.15 91.3095 374.725 92.7845 374.725C93.5845 374.725 94.2095 374.6 94.6845 374.3V371.875C94.4595 371.975 94.2345 372.05 93.9595 372.05C93.4345 372.05 93.1095 371.775 93.1095 371V366.5ZM103.165 374.5H106.065V362.95H102.715V369.15C102.715 371.375 101.79 372.275 100.64 372.275C99.4897 372.275 99.0647 371.5 99.0647 370.125V362.95H95.7147V371.075C95.7147 373.75 97.1397 374.8 99.1897 374.8C101.315 374.8 102.365 373.925 102.765 372.35L103.165 374.5ZM107.596 371.825C108.046 374 109.696 374.8 112.546 374.8C115.371 374.8 117.496 373.8 117.496 371.225C117.496 369.25 116.396 368 114.046 367.5L112.421 367.15C111.646 367 111.296 366.675 111.296 366.1C111.296 365.5 111.821 365.15 112.596 365.15C113.546 365.15 114.071 365.45 114.196 366.375L117.321 365.925C117.146 363.675 115.496 362.675 112.746 362.675C110.371 362.675 108.046 363.5 108.046 366.425C108.046 368.175 108.971 369.325 110.996 369.85L112.696 370.25C113.721 370.5 114.171 370.8 114.171 371.45C114.171 372.125 113.521 372.45 112.596 372.45C111.496 372.45 110.596 371.975 110.346 370.725L107.596 371.825ZM125.053 370.875C125.053 372 124.028 372.425 123.153 372.425C122.353 372.425 121.878 371.95 121.878 371.275C121.878 370.25 122.703 369.625 125.053 369.7V370.875ZM128.353 366.5C128.353 363.925 126.703 362.675 123.828 362.675C121.178 362.675 119.103 363.825 118.928 366.275L122.253 366.9C122.303 365.825 122.778 365.2 123.703 365.2C124.628 365.2 125.053 365.8 125.053 366.8V367.9C120.603 367.65 118.528 369.05 118.528 371.625C118.528 373.6 119.878 374.8 121.928 374.8C123.503 374.8 124.753 374.325 125.278 372.9C125.653 374.15 126.553 374.725 128.028 374.725C128.828 374.725 129.453 374.6 129.928 374.3V371.875C129.703 371.975 129.478 372.05 129.203 372.05C128.678 372.05 128.353 371.775 128.353 371V366.5ZM139.402 362.7C136.352 362.525 135.227 364.125 134.727 366.125L134.327 362.95H131.427V374.5H134.777V369.225C134.777 366.85 136.402 366.2 137.727 366.2C138.252 366.2 138.602 366.25 139.027 366.4L139.402 362.7ZM144.091 368.075C144.091 366.325 145.291 365.35 146.516 365.35C147.991 365.35 148.916 366.35 148.916 368.75C148.916 371.2 147.716 372.4 146.291 372.4C145.316 372.4 144.091 371.75 144.091 369.775V368.075ZM143.941 372.825C144.291 373.925 145.391 374.8 147.366 374.8C150.491 374.8 152.291 372.25 152.291 368.45C152.291 364.775 150.666 362.675 147.841 362.675C146.191 362.675 144.741 363.35 144.116 365.1V357.8H140.766V374.5H143.116L143.941 372.825ZM159.082 372.225C157.557 372.225 156.732 371.075 156.657 369.3H163.782C163.882 368.825 163.932 368.3 163.932 367.8C163.932 364.825 162.332 362.675 159.057 362.675C155.582 362.675 153.432 364.925 153.432 368.9C153.432 372.625 155.707 374.8 159.007 374.8C161.282 374.8 163.357 373.975 163.957 371.625L161.107 370.65C160.732 371.875 159.982 372.225 159.082 372.225ZM156.757 367.45C156.882 366.1 157.682 365.15 158.932 365.15C160.132 365.15 160.757 365.975 160.757 367.05C160.757 367.2 160.757 367.3 160.732 367.45H156.757ZM165.539 359.425C165.539 360.65 166.439 361.325 167.564 361.325C168.739 361.325 169.639 360.65 169.639 359.425C169.639 358.15 168.739 357.475 167.564 357.475C166.439 357.475 165.539 358.15 165.539 359.425ZM165.889 362.95V374.5H169.239V362.95H165.889ZM179.008 371.225C178.333 371.7 177.708 371.95 176.983 371.95C176.058 371.95 175.583 371.55 175.583 370.325V365.525H179.033V362.95H175.608V360.1L172.258 360.5V362.95H170.558V365.525H172.233V371.075C172.233 373.725 173.733 374.8 176.033 374.8C177.408 374.8 178.608 374.55 179.583 374.05L179.008 371.225ZM185.805 372.225C184.28 372.225 183.455 371.075 183.38 369.3H190.505C190.605 368.825 190.655 368.3 190.655 367.8C190.655 364.825 189.055 362.675 185.78 362.675C182.305 362.675 180.155 364.925 180.155 368.9C180.155 372.625 182.43 374.8 185.73 374.8C188.005 374.8 190.08 373.975 190.68 371.625L187.83 370.65C187.455 371.875 186.705 372.225 185.805 372.225ZM183.48 367.45C183.605 366.1 184.405 365.15 185.655 365.15C186.855 365.15 187.48 365.975 187.48 367.05C187.48 367.2 187.48 367.3 187.455 367.45H183.48ZM195.462 362.95H192.612V374.5H195.962V368.15C195.962 366.075 196.987 365.475 198.062 365.475C199.262 365.475 199.612 366.3 199.612 367.575V374.5H202.962V366.325C202.962 363.725 201.337 362.675 199.562 362.675C197.787 362.675 196.487 363.45 195.862 365.175L195.462 362.95Z" fill="#363C65"/>
<path d="M307.462 497.732H300.39L301.274 492.74H307.54L307.852 490.972H301.586L302.47 485.954H309.542L309.854 484.186H300.702L298.024 499.5H307.176L307.462 497.732ZM315.17 497.55C314.338 498.018 313.844 498.148 313.116 498.148C312.414 498.148 311.868 497.654 312.102 496.38L313.402 489.074H316.522L316.808 487.488H313.662L314.156 484.68L312.154 484.966L311.712 487.488H310.022L309.736 489.074H311.4L310.152 496.172C309.684 498.72 310.776 499.812 312.804 499.812C313.506 499.812 314.442 499.63 315.17 499.214V497.55ZM324.888 494.482C324.498 496.77 323.198 498.174 321.378 498.174C319.61 498.174 318.726 496.692 318.726 494.664C318.726 491.232 320.494 488.762 322.886 488.762C324.81 488.762 325.564 490.634 325.252 492.454L324.888 494.482ZM328.112 487.488H326.474L325.824 489.516C325.512 487.93 324.368 487.202 322.704 487.202C319.168 487.202 316.802 490.79 316.802 494.898C316.802 498.07 318.518 499.812 320.832 499.812C322.34 499.812 323.77 499.136 324.498 497.498C324.394 498.876 325.07 499.63 326.37 499.63C326.812 499.63 327.254 499.552 327.618 499.422L327.878 497.992C327.566 498.07 327.332 498.096 327.124 498.096C326.37 498.096 326.344 497.524 326.448 496.926L328.112 487.488ZM332.854 492.558C333.244 490.322 334.83 488.814 336.624 488.814C338.262 488.814 339.146 490.114 339.146 492.142C339.146 495.444 337.638 498.174 335.09 498.174C333.062 498.174 332.126 496.354 332.438 494.898L332.854 492.558ZM331.996 497.524C332.256 498.798 333.452 499.812 335.246 499.812C338.912 499.812 341.2 496.432 341.2 492.142C341.2 488.97 339.796 487.202 337.274 487.202C335.532 487.202 334.154 488.06 333.322 489.802L333.53 487.488H331.814L328.772 504.778H330.722L331.996 497.524ZM345.683 492.558C346.073 490.322 347.659 488.814 349.453 488.814C351.091 488.814 351.975 490.114 351.975 492.142C351.975 495.444 350.467 498.174 347.919 498.174C345.891 498.174 344.955 496.354 345.267 494.898L345.683 492.558ZM344.825 497.524C345.085 498.798 346.281 499.812 348.075 499.812C351.741 499.812 354.029 496.432 354.029 492.142C354.029 488.97 352.625 487.202 350.103 487.202C348.361 487.202 346.983 488.06 346.151 489.802L346.359 487.488H344.643L341.601 504.778H343.551L344.825 497.524ZM360.099 498.278C357.811 498.278 357.005 496.042 357.187 493.936H364.935C365.299 493.156 365.455 492.324 365.455 491.492C365.455 489.282 364.259 487.202 361.191 487.202C358.305 487.202 355.341 489.828 355.341 494.716C355.341 497.784 357.031 499.812 359.917 499.812C362.257 499.812 363.973 499.11 364.857 496.666L363.063 496.224C362.621 497.524 361.893 498.278 360.099 498.278ZM357.421 492.35C357.889 490.452 359.085 488.762 361.087 488.762C362.777 488.762 363.557 490.01 363.557 491.44C363.557 491.752 363.531 492.064 363.427 492.35H357.421ZM375.74 494.612C378.834 494.586 380.966 493.052 380.966 490.166C380.966 487.774 379.146 486.682 376.78 486.682C373.92 486.682 372.49 488.19 372.074 490.322L373.92 490.738C374.206 489.23 375.038 488.294 376.624 488.294C378.002 488.294 378.938 488.996 378.938 490.348C378.938 492.376 377.482 493.468 373.92 493.832L373.686 495.418C376.962 495.756 377.716 497.03 377.716 498.616C377.716 500.54 376.364 501.554 374.622 501.554C372.828 501.554 371.762 500.722 371.762 499.058L369.864 499.448C369.864 501.554 371.372 503.088 374.388 503.088C377.196 503.088 379.744 501.684 379.744 498.46C379.744 496.302 378.47 494.924 375.74 494.69V494.612Z" fill="#363C65"/>
<path d="M289.038 515.775H285.413L290.263 530.5H294.363L299.213 515.775H295.663L293.263 523.725C292.638 525.75 292.463 527.625 292.463 527.625H292.363C292.363 527.625 292.163 525.775 291.513 523.7L289.038 515.775ZM300.194 515.425C300.194 516.65 301.094 517.325 302.219 517.325C303.394 517.325 304.294 516.65 304.294 515.425C304.294 514.15 303.394 513.475 302.219 513.475C301.094 513.475 300.194 514.15 300.194 515.425ZM300.544 518.95V530.5H303.894V518.95H300.544ZM311.438 528.225C309.913 528.225 309.088 527.075 309.013 525.3H316.138C316.238 524.825 316.288 524.3 316.288 523.8C316.288 520.825 314.688 518.675 311.413 518.675C307.938 518.675 305.788 520.925 305.788 524.9C305.788 528.625 308.063 530.8 311.363 530.8C313.638 530.8 315.713 529.975 316.313 527.625L313.463 526.65C313.088 527.875 312.338 528.225 311.438 528.225ZM309.113 523.45C309.238 522.1 310.038 521.15 311.288 521.15C312.488 521.15 313.113 521.975 313.113 523.05C313.113 523.2 313.113 523.3 313.088 523.45H309.113ZM323.32 527.625C323.02 527.75 322.72 527.8 322.42 527.8C321.82 527.8 321.37 527.525 321.37 526.8V513.8H318.02V527.775C318.02 529.95 319.545 530.725 321.22 530.725C321.87 530.725 322.495 530.6 323.145 530.425L323.32 527.625ZM329.628 528.225C328.103 528.225 327.278 527.075 327.203 525.3H334.328C334.428 524.825 334.478 524.3 334.478 523.8C334.478 520.825 332.878 518.675 329.603 518.675C326.128 518.675 323.978 520.925 323.978 524.9C323.978 528.625 326.253 530.8 329.553 530.8C331.828 530.8 333.903 529.975 334.503 527.625L331.653 526.65C331.278 527.875 330.528 528.225 329.628 528.225ZM327.303 523.45C327.428 522.1 328.228 521.15 329.478 521.15C330.678 521.15 331.303 521.975 331.303 523.05C331.303 523.2 331.303 523.3 331.278 523.45H327.303ZM341.802 515.775V530.5H345.202V515.775H341.802ZM355.653 525.7C355.653 527.375 354.503 528.225 353.353 528.225C351.778 528.225 350.803 527 350.803 524.825C350.803 522.1 352.078 521.15 353.403 521.15C354.553 521.15 355.653 521.85 355.653 523.55V525.7ZM355.628 520.475C355.328 519.375 354.078 518.675 352.603 518.675C349.303 518.675 347.453 521.025 347.453 524.975C347.453 528.775 349.503 530.8 352.053 530.8C353.778 530.8 355.228 530.25 355.653 528.5L356.078 530.5H358.978V513.8H355.628V520.475ZM366.519 528.225C364.994 528.225 364.169 527.075 364.094 525.3H371.219C371.319 524.825 371.369 524.3 371.369 523.8C371.369 520.825 369.769 518.675 366.494 518.675C363.019 518.675 360.869 520.925 360.869 524.9C360.869 528.625 363.144 530.8 366.444 530.8C368.719 530.8 370.794 529.975 371.394 527.625L368.544 526.65C368.169 527.875 367.419 528.225 366.519 528.225ZM364.194 523.45C364.319 522.1 365.119 521.15 366.369 521.15C367.569 521.15 368.194 521.975 368.194 523.05C368.194 523.2 368.194 523.3 368.169 523.45H364.194ZM378.226 528.225C376.701 528.225 375.876 527.075 375.801 525.3H382.926C383.026 524.825 383.076 524.3 383.076 523.8C383.076 520.825 381.476 518.675 378.201 518.675C374.726 518.675 372.576 520.925 372.576 524.9C372.576 528.625 374.851 530.8 378.151 530.8C380.426 530.8 382.501 529.975 383.101 527.625L380.251 526.65C379.876 527.875 379.126 528.225 378.226 528.225ZM375.901 523.45C376.026 522.1 376.826 521.15 378.076 521.15C379.276 521.15 379.901 521.975 379.901 523.05C379.901 523.2 379.901 523.3 379.876 523.45H375.901ZM387.883 518.95H385.033V530.5H388.383V524.15C388.383 522.075 389.408 521.475 390.483 521.475C391.683 521.475 392.033 522.3 392.033 523.575V530.5H395.383V522.325C395.383 519.725 393.758 518.675 391.983 518.675C390.208 518.675 388.908 519.45 388.283 521.175L387.883 518.95ZM291.449 559.225C289.924 559.225 289.099 558.075 289.024 556.3H296.149C296.249 555.825 296.299 555.3 296.299 554.8C296.299 551.825 294.699 549.675 291.424 549.675C287.949 549.675 285.799 551.925 285.799 555.9C285.799 559.625 288.074 561.8 291.374 561.8C293.649 561.8 295.724 560.975 296.324 558.625L293.474 557.65C293.099 558.875 292.349 559.225 291.449 559.225ZM289.124 554.45C289.249 553.1 290.049 552.15 291.299 552.15C292.499 552.15 293.124 552.975 293.124 554.05C293.124 554.2 293.124 554.3 293.099 554.45H289.124ZM301.106 549.95H298.256V561.5H301.606V555.15C301.606 553.075 302.631 552.475 303.706 552.475C304.906 552.475 305.256 553.3 305.256 554.575V561.5H308.606V553.325C308.606 550.725 306.981 549.675 305.206 549.675C303.431 549.675 302.131 550.45 301.506 552.175L301.106 549.95ZM318.26 558.225C317.585 558.7 316.96 558.95 316.235 558.95C315.31 558.95 314.835 558.55 314.835 557.325V552.525H318.285V549.95H314.86V547.1L311.51 547.5V549.95H309.81V552.525H311.485V558.075C311.485 560.725 312.985 561.8 315.285 561.8C316.66 561.8 317.86 561.55 318.835 561.05L318.26 558.225ZM329.278 549.95H326.228L325.053 554.525C324.503 556.85 324.378 559.025 324.378 559.025H324.278C324.278 559.025 324.153 556.875 323.553 554.55L322.353 549.95H318.953L322.128 561.5H326.078L327.078 557.4C327.553 555.5 327.678 553.65 327.678 553.65H327.778C327.778 553.65 327.903 555.525 328.378 557.375L329.503 561.5H333.478L336.478 549.95H333.153L332.078 554.575C331.528 556.9 331.428 559.025 331.428 559.025H331.328C331.328 559.025 331.203 556.85 330.553 554.525L329.278 549.95ZM337.446 546.425C337.446 547.65 338.346 548.325 339.471 548.325C340.646 548.325 341.546 547.65 341.546 546.425C341.546 545.15 340.646 544.475 339.471 544.475C338.346 544.475 337.446 545.15 337.446 546.425ZM337.796 549.95V561.5H341.146V549.95H337.796ZM350.54 557.45C350.24 558.775 349.565 559.225 348.665 559.225C347.165 559.225 346.29 557.925 346.29 555.725C346.29 553.625 347.115 552.3 348.615 552.3C349.74 552.3 350.315 553.025 350.49 554.25L353.315 553.475C353.14 551.15 351.39 549.675 348.64 549.675C345.265 549.675 343.04 551.925 343.04 555.775C343.04 559.625 345.265 561.8 348.615 561.8C351.065 561.8 353.065 560.725 353.49 558.4L350.54 557.45ZM361.833 555.325L365.833 549.95H361.958L359.008 554.15H358.383V544.8H355.033V561.5H358.383V556.75H359.058L362.308 561.5H366.208L361.833 555.325ZM371.689 559.225C370.164 559.225 369.339 558.075 369.264 556.3H376.389C376.489 555.825 376.539 555.3 376.539 554.8C376.539 551.825 374.939 549.675 371.664 549.675C368.189 549.675 366.039 551.925 366.039 555.9C366.039 559.625 368.314 561.8 371.614 561.8C373.889 561.8 375.964 560.975 376.564 558.625L373.714 557.65C373.339 558.875 372.589 559.225 371.689 559.225ZM369.364 554.45C369.489 553.1 370.289 552.15 371.539 552.15C372.739 552.15 373.364 552.975 373.364 554.05C373.364 554.2 373.364 554.3 373.339 554.45H369.364ZM383.571 558.625C383.271 558.75 382.971 558.8 382.671 558.8C382.071 558.8 381.621 558.525 381.621 557.8V544.8H378.271V558.775C378.271 560.95 379.796 561.725 381.471 561.725C382.121 561.725 382.746 561.6 383.396 561.425L383.571 558.625ZM388.072 549.95H385.222V561.5H388.572V555.15C388.572 553.075 389.597 552.475 390.672 552.475C391.872 552.475 392.222 553.3 392.222 554.575V561.5H395.572V553.325C395.572 550.725 393.947 549.675 392.172 549.675C390.397 549.675 389.097 550.45 388.472 552.175L388.072 549.95Z" fill="#363C65"/>
<path d="M4.24107 339.498L339 4.24578L673.759 339.498L339 674.257L4.24107 339.498Z" stroke="#EBECF6" stroke-width="6"/>
</svg>
