<?xml version="1.0" encoding="UTF-8"?><svg id="f" xmlns="http://www.w3.org/2000/svg" viewBox="0 0 419.53 595.28"><g><rect x="211.25" y="82.13" width="140.62" height="175.95" style="fill:#2a5caa;"/><rect x="237.57" y="72.13" width="87.99" height="22.69" style="fill:#8786a3;"/><path d="m272.43,57.13h18.26c8.36,0,15.15,6.79,15.15,15.15v14.86h-48.55v-14.86c0-8.36,6.79-15.15,15.15-15.15Z" style="fill:#8786a3;"/><rect x="209.19" y="79.81" width="140.62" height="175.95" style="fill:none; stroke:#32406d; stroke-miterlimit:10;"/><path d="m303.84,69.81c-.08-8.3-6.82-15-15.14-15h-18.26c-8.32,0-15.06,6.71-15.14,15h-19.73v22.69h87.99v-22.69h-19.73Z" style="fill:#8e9ace; stroke:#32406d; stroke-miterlimit:10;"/><circle cx="279.57" cy="66.58" r="4.93" style="fill:#fff; stroke:#32406d; stroke-miterlimit:10; stroke-width:3px;"/></g><g><path d="m148.53,104.65v18c0,9.94,8.06,18,18,18h90c9.94,0,18,8.06,18,18h0c0,9.94-8.06,18-18,18h-108c-9.94,0-18,8.06-18,18h0c0,9.94,8.06,18,18,18h108c9.94,0,18,8.06,18,18h0c0,9.94-8.06,18-18,18h-108c-9.94,0-18,8.06-18,18h0c0,9.94,8.06,18,18,18h108c9.94,0,18,8.06,18,18h0c0,9.94-8.06,18-18,18h-108c-9.94,0-18,8.06-18,18h0c0,9.94,8.06,18,18,18h90c9.94,0,18,8.06,18,18v27" style="fill:none; stroke:#e3e5f3; stroke-miterlimit:10; stroke-width:17px;"/><path d="m154.53,101.65v18c0,5.51,4.49,10,10,10h90c14.34,0,26,11.66,26,26s-11.66,26-26,26h-108c-5.51,0-10,4.49-10,10s4.49,10,10,10h108c14.34,0,26,11.66,26,26s-11.66,26-26,26h-108c-5.51,0-10,4.49-10,10s4.49,10,10,10h108c14.34,0,26,11.66,26,26s-11.66,26-26,26h-108c-5.51,0-10,4.49-10,10s4.49,10,10,10h90c14.34,0,26,11.66,26,26v27" style="fill:none; stroke:#32406d; stroke-miterlimit:10;"/><path d="m246.53,398.65v-27c0-5.51-4.49-10-10-10h-90c-14.34,0-26-11.66-26-26s11.66-26,26-26h108c5.51,0,10-4.49,10-10s-4.49-10-10-10h-108c-14.34,0-26-11.66-26-26s11.66-26,26-26h108c5.51,0,10-4.49,10-10s-4.49-10-10-10h-108c-14.34,0-26-11.66-26-26s11.66-26,26-26h108c5.51,0,10-4.49,10-10s-4.49-10-10-10h-90c-14.34,0-26-11.66-26-26v-18" style="fill:none; stroke:#32406d; stroke-miterlimit:10;"/></g><path d="m234.73,496.71h.11c-2.98,4.68-8.18,7.51-13.73,7.48h-76.42c-8.95-.03-16.19-7.28-16.19-16.22.03-2.35.52-4.66,1.51-6.77l19.61-42.43,17.19-37.19c.32-.7.47-1.47.47-2.2v-41.66h31.31v41.66c0,.73.16,1.5.47,2.2l17.15,37.19,19.58,42.43c2.32,5,1.92,10.85-1.06,15.5Z" style="fill:#e3e5f3;"/><path d="m237.73,496.71h.11c-2.98,4.68-8.18,7.51-13.73,7.48h-76.42c-8.95-.03-16.19-7.28-16.19-16.22.03-2.35.52-4.66,1.51-6.77l19.61-42.43h66.59l19.58,42.43c2.32,5,1.92,10.85-1.06,15.5Z" style="fill:#2a5caa;"/><path d="m235.19,493.85h.11c-2.98,4.68-8.18,7.51-13.73,7.48h-76.42c-8.95-.03-16.19-7.28-16.19-16.22.03-2.35.52-4.66,1.51-6.77l19.61-42.43,17.19-37.19c.32-.7.47-1.47.47-2.2v-41.66h31.31v41.66c0,.73.16,1.5.47,2.2l17.15,37.19,19.58,42.43c2.32,5,1.92,10.85-1.06,15.5Z" style="fill:none; stroke:#32406d; stroke-miterlimit:10;"/><path d="m235.19,493.85h.11c-2.98,4.68-8.18,7.51-13.73,7.48h-76.42c-8.95-.03-16.19-7.28-16.19-16.22.03-2.35.52-4.66,1.51-6.77l19.61-42.43h66.59l19.58,42.43c2.32,5,1.92,10.85-1.06,15.5Z" style="fill:none; stroke:#32406d; stroke-miterlimit:10;"/><path d="m315.85,504.61c0,4.66-.55,9.17-1.59,13.5-6.07,25.34-28.88,44.16-56.07,44.16s-50-18.83-56.07-44.16c-1.04-4.33-1.59-8.84-1.59-13.5,0-31.84,25.82-57.66,57.66-57.66s57.66,25.82,57.66,57.66Z" style="fill:#fff;"/><rect x="239.12" y="405.38" width="38.14" height="71.58" style="fill:#fff;"/><path d="m314.26,518.11c-6.07,25.34-28.88,44.16-56.07,44.16s-50-18.83-56.07-44.16h112.14Z" style="fill:#2a5caa;"/><path d="m274.72,447.33v-44.82h-38.14v44.82c-22.47,7.88-38.59,29.26-38.59,54.42,0,4.66.55,9.17,1.59,13.5,6.07,25.34,28.88,44.16,56.07,44.16s50-18.83,56.07-44.16c1.04-4.33,1.59-8.84,1.59-13.5,0-25.16-16.12-46.54-38.59-54.42Z" style="fill:none; stroke:#32406d; stroke-miterlimit:10;"/><line x1="230.07" y1="424.3" x2="281.22" y2="424.3" style="fill:none; stroke:#32406d; stroke-miterlimit:10; stroke-width:3px;"/><path d="m311.71,515.25c-6.07,25.34-28.88,44.16-56.07,44.16s-50-18.83-56.07-44.16h112.14Z" style="fill:none; stroke:#32406d; stroke-miterlimit:10;"/><g><polygon points="155.78 109.72 139.21 109.72 137.17 94.7 157.82 94.7 155.78 109.72" style="fill:#dedce4;"/><path d="m175.01,62.79c0,6.09-4.98,15.51-8.63,21.58-2.11,3.52-3.79,5.93-3.79,5.93,0,.52-.06,1.21-.19,1.99-.66,4.09-2.93,10.86-5.63,10.86h-18.53c-2.7,0-4.97-6.77-5.63-10.86-.13-.79-.19-1.47-.19-1.99,0,0-1.67-2.41-3.79-5.93-3.65-6.08-8.63-15.49-8.63-21.58,0-15.19,12.32-27.51,27.51-27.51s27.51,12.32,27.51,27.51Z" style="fill:#fff;"/><path d="m166.38,84.37c-2.11,3.52-3.79,5.93-3.79,5.93,0,.52-.06,1.21-.19,1.99h-29.8c-.13-.79-.19-1.47-.19-1.99,0,0-1.67-2.41-3.79-5.93h37.76Z" style="fill:#fff;"/><polyline points="155.52 101.99 154.62 108.56 138.05 108.56 137.16 101.98" style="fill:#b6bde0; stroke:#32406d; stroke-miterlimit:10;"/><path d="m172.67,52.68c-.2-.61-.43-1.2-.68-1.79-4.22-10.01-14.13-17.06-25.66-17.06s-21.39,7.01-25.62,16.99c-.34.82-.65,1.65-.93,2.51-.82,2.63-1.26,5.42-1.26,8.31,0,6.04,4.71,15.15,8.67,21.74,1.89,3.14,3.44,5.43,3.74,5.88.01.53.08,1.2.2,1.94.59,3.63,2.81,11.11,5.93,11.11h18.53c3.11,0,5.34-7.49,5.93-11.11.12-.74.19-1.41.2-1.94.3-.44,1.86-2.73,3.75-5.88,3.96-6.59,8.68-15.71,8.68-21.74,0-3.13-.52-6.14-1.48-8.95Zm-7.72,30.39c-2.08,3.47-3.76,5.89-3.78,5.91l-.05.08v.1c0,.52-.07,1.18-.19,1.94-.73,4.45-2.98,10.61-5.34,10.61h-18.53c-2.33,0-4.63-6.27-5.33-10.61-.13-.76-.19-1.43-.19-1.94v-.1l-.05-.08s-1.68-2.44-3.78-5.91c-3.21-5.34-8.58-15.22-8.58-21.43,0-3.05.51-5.98,1.43-8.72.16-.47.33-.93.52-1.39,4.02-10.01,13.83-17.1,25.26-17.1s21.31,7.13,25.3,17.19c.09.22.17.45.26.67,1.07,2.92,1.65,6.06,1.65,9.34,0,5.89-4.67,14.9-8.59,21.43Z" style="fill:#32406d; stroke:#32406d; stroke-miterlimit:10; stroke-width:.5px;"/><path d="m165.22,83.21c-2.11,3.52-3.79,5.93-3.79,5.93,0,.52-.06,1.21-.19,1.99h-29.8c-.13-.79-.19-1.47-.19-1.99,0,0-1.67-2.41-3.79-5.93h37.76Z" style="fill:#2a5caa; stroke:#32406d; stroke-miterlimit:10;"/></g><g><rect x="50.24" y="374.65" width="78.71" height="78.71" style="fill:#b6bde0;"/><path d="m98.53,438.2l-.02-2.28c1.67-.01,3.42-.11,5.2-.29l.23,2.27c-1.86.19-3.68.29-5.42.3Zm-3.89-.12c-1.87-.14-3.69-.39-5.41-.75l.47-2.23c1.62.34,3.34.58,5.11.71l-.17,2.28Zm-9.19-1.76c-1.78-.59-3.48-1.32-5.06-2.17l1.09-2.01c1.46.79,3.04,1.47,4.69,2.01l-.71,2.17Zm-8.4-4.28c-1.48-1.08-2.87-2.32-4.13-3.67l1.67-1.55c1.16,1.25,2.44,2.39,3.8,3.39l-1.35,1.84Zm-6.62-6.73c-1.04-1.46-1.99-3.04-2.82-4.72l2.04-1.01c.78,1.57,1.66,3.05,2.63,4.41l-1.86,1.33Zm-4.38-8.32c-.63-1.67-1.16-3.43-1.59-5.23l2.22-.53c.41,1.71.92,3.38,1.51,4.96l-2.14.8Zm-2.34-9.07c-.46-3.01-.48-5.08-.48-5.46l2.28-.03v.03c0,.22.01,2.22.46,5.12l-2.25.34Z" style="fill:#dedce4;"/><polygon points="127.66 389.49 127.66 450.77 48.95 450.77 48.95 372.06 127.66 372.06 127.66 389.49" style="fill:none; fill-rule:evenodd; stroke:#32406d; stroke-miterlimit:10;"/><rect x="108.61" y="429.36" width="8.92" height="8.92" style="fill:none; stroke:#32406d; stroke-miterlimit:10; stroke-width:3px;"/><path d="m97.23,437.55l-.02-2.28c1.67-.01,3.42-.11,5.2-.29l.23,2.27c-1.86.19-3.68.29-5.42.3Zm-3.89-.12c-1.87-.14-3.69-.39-5.41-.75l.47-2.23c1.62.34,3.34.58,5.11.71l-.17,2.28Zm-9.19-1.76c-1.78-.59-3.48-1.32-5.06-2.17l1.09-2.01c1.46.79,3.04,1.47,4.69,2.01l-.71,2.17Zm-8.4-4.28c-1.48-1.08-2.87-2.32-4.13-3.67l1.67-1.55c1.16,1.25,2.44,2.39,3.8,3.39l-1.35,1.84Zm-6.62-6.73c-1.04-1.46-1.99-3.04-2.82-4.72l2.04-1.01c.78,1.57,1.66,3.05,2.63,4.41l-1.86,1.33Zm-4.38-8.32c-.63-1.67-1.16-3.43-1.59-5.23l2.22-.53c.41,1.71.92,3.38,1.51,4.96l-2.14.8Zm-2.34-9.07c-.46-3.01-.48-5.08-.48-5.46l2.28-.03v.03c0,.22.01,2.22.46,5.12l-2.25.34Z" style="fill:none; stroke:#32406d; stroke-miterlimit:10;"/></g><g><g><rect x="169.33" y="331.69" width="26.72" height="19.18" style="fill:#fff;"/><polygon points="195.91 332.29 169.74 332.29 163.85 327.72 163.85 323.15 200.99 323.15 200.99 327.72 195.91 332.29" style="fill:#e3e5f3;"/><polygon points="195.91 357.6 169.74 357.6 163.85 353.89 163.85 350.19 200.99 350.19 200.99 353.89 195.91 357.6" style="fill:#e3e5f3;"/></g><g><path d="m194.92,332.43v17.18h-24.72v-17.18h24.72m1-1h-26.72v19.18h26.72v-19.18h0Z" style="fill:#32406d;"/><polygon points="195.78 332.02 169.61 332.02 163.71 327.46 163.71 322.89 200.85 322.89 200.85 327.46 195.78 332.02" style="fill:none; stroke:#32406d; stroke-miterlimit:10;"/><polygon points="195.78 357.33 169.61 357.33 163.71 353.63 163.71 349.93 200.85 349.93 200.85 353.63 195.78 357.33" style="fill:none; stroke:#32406d; stroke-miterlimit:10;"/></g></g><g><g><rect x="243.63" y="375.75" width="26.72" height="19.18" style="fill:#fff;"/><polygon points="270.21 401.65 244.04 401.65 238.15 397.95 238.15 394.24 275.28 394.24 275.28 397.95 270.21 401.65" style="fill:#fff;"/></g><g><path d="m267.21,375.49v17.18h-24.72v-17.18h24.72m1-1h-26.72v19.18h26.72v-19.18h0Z" style="fill:#32406d;"/><polygon points="268.08 375.08 241.9 375.08 236.01 370.51 236.01 365.94 273.15 365.94 273.15 370.51 268.08 375.08" style="fill:none; stroke:#32406d; stroke-miterlimit:10;"/><polygon points="268.08 400.39 241.9 400.39 236.01 396.69 236.01 392.98 273.15 392.98 273.15 396.69 268.08 400.39" style="fill:none; stroke:#32406d; stroke-miterlimit:10;"/></g></g><g><path d="m307.83,222.64h24.9v159.9c0,6.87-5.58,12.45-12.45,12.45h0c-6.87,0-12.45-5.58-12.45-12.45v-159.9h0Z" style="fill:#fff;"/><g><path d="m308.23,297.73h24.9v86.98c0,6.87-5.58,12.45-12.45,12.45h0c-6.87,0-12.45-5.58-12.45-12.45v-86.98h0Z" style="fill:#b6bde0;"/><path d="m306.83,222.64h24.9v159.9c0,6.87-5.58,12.45-12.45,12.45h0c-6.87,0-12.45-5.58-12.45-12.45v-159.9h0Z" style="fill:none; stroke:#32406d; stroke-miterlimit:10;"/><polygon points="329.88 223.79 310.9 223.79 306.62 221.11 306.62 218.42 333.56 218.42 333.56 221.11 329.88 223.79" style="fill:#e3e5f3;"/><polygon points="329.07 222.17 310.09 222.17 305.81 219.49 305.81 216.8 332.75 216.8 332.75 219.49 329.07 222.17" style="fill:none; stroke:#32406d; stroke-miterlimit:10;"/></g></g></svg>