<?xml version="1.0" encoding="UTF-8"?><svg xmlns="http://www.w3.org/2000/svg" viewBox="0 0 419.53 595.28"><g id="e"><rect x="158.02" y="393.59" width="93.56" height="93.56" style="fill:#e3e5f3;"/><circle cx="188.49" cy="419.87" r="9.13" style="fill:#fff;"/><rect x="232.9" y="447.45" width="81.69" height="81.69" style="fill:#b6bde0;"/><line x1="242.84" y1="483.99" x2="303.55" y2="483.99" style="fill:#fac9d0; stroke:#fff; stroke-miterlimit:10; stroke-width:4px;"/><line x1="242.84" y1="498.27" x2="275.74" y2="498.27" style="fill:#fac9d0; stroke:#fff; stroke-miterlimit:10; stroke-width:4px;"/><polyline points="156.32 441.36 156.32 390.19 249.88 390.19 249.88 400.67" style="fill:none; fill-rule:evenodd; stroke:#32406d; stroke-miterlimit:10;"/><line x1="221.06" y1="483.75" x2="199" y2="483.75" style="fill:none; stroke:#32406d; stroke-miterlimit:10;"/><rect x="213.35" y="439.4" width="11.73" height="11.73" transform="translate(-250.64 285.43) rotate(-45)" style="fill:none; stroke:#32406d; stroke-miterlimit:10; stroke-width:3px;"/><circle cx="186.79" cy="416.46" r="9.13" style="fill:none; stroke:#32406d; stroke-miterlimit:10; stroke-width:3px;"/><polyline points="279.15 538.09 231.2 538.09 231.2 456.4 312.89 456.4 312.89 525.31" style="fill:none; fill-rule:evenodd; stroke:#32406d; stroke-miterlimit:10;"/><line x1="241.99" y1="481.46" x2="302.7" y2="481.46" style="fill:none; stroke:#32406d; stroke-miterlimit:10; stroke-width:3px;"/><line x1="241.99" y1="496.16" x2="274.89" y2="496.16" style="fill:none; stroke:#32406d; stroke-miterlimit:10; stroke-width:3px;"/></g><g id="f"><polygon points="250.33 179.78 194.85 179.78 167.11 227.83 194.85 275.87 250.33 275.87 278.07 227.83 250.33 179.78" style="fill:#e3e5f3;"/><polygon points="248.42 177.78 192.94 177.78 165.2 225.83 192.94 273.87 248.42 273.87 276.16 225.83 248.42 177.78" style="fill:none; stroke:#32406d; stroke-miterlimit:10;"/><polygon points="250.42 83.81 194.94 83.81 167.2 131.86 194.94 179.9 250.42 179.9 278.16 131.86 250.42 83.81" style="fill:#e3e5f3;"/><polygon points="248.42 81.81 192.94 81.81 165.2 129.86 192.94 177.9 248.42 177.9 276.16 129.86 248.42 81.81" style="fill:none; stroke:#32406d; stroke-miterlimit:10;"/><path d="m259.54,263.63h-74.15c-12.96,1.98-21.21,4.97-21.21,8.34,0,.5.19.99.54,1.48.07.09.14.19.23.28l45.77,54.68.02.02v100.59h23.47v-100.61l45.63-54.52.45-.54c.31-.45.47-.9.47-1.37,0-3.37-8.25-6.36-21.21-8.34Z" style="fill:#2a5caa;"/><path d="m256.73,263.63c-10.07-1.53-23-2.47-37.07-2.47s-27.01.94-37.08,2.47c-12.96,1.98-21.21,4.97-21.21,8.34,0,.5.19.99.54,1.48.07.09.14.19.23.28l45.77,54.68v100.61h23.47v-100.59h0s45.65-54.54,45.65-54.54l.45-.54c.31-.45.47-.9.47-1.37,0-3.37-8.25-6.36-21.21-8.34Z" style="fill:none; stroke:#32406d; stroke-miterlimit:10;"/><path d="m277.94,271.96c0,.47-.16.92-.47,1.37l-.45.54c-.14.16-.28.3-.45.43l-.8.57-.05.03c-6.93,4.53-29.41,7.85-56.05,7.85s-49.16-3.32-56.09-7.85l-.03-.02-.82-.61c-.23-.19-.42-.38-.59-.57-.09-.09-.16-.19-.23-.28-.35-.49-.54-.97-.54-1.48,0-3.37,8.25-6.36,21.21-8.34,10.07-1.53,23-2.47,37.08-2.47s26.99.94,37.07,2.47c12.96,1.98,21.21,4.97,21.21,8.34Z" style="fill:#32406d;"/><g><polygon points="229.09 272.64 214.33 272.64 212.51 259.26 230.9 259.26 229.09 272.64" style="fill:#dedce4;"/><path d="m246.21,230.85c0,5.43-4.44,13.81-7.69,19.22-1.88,3.13-3.37,5.28-3.37,5.28,0,.46-.06,1.07-.17,1.77-.59,3.64-2.61,9.67-5.02,9.67h-16.5c-2.41,0-4.42-6.03-5.02-9.67-.12-.7-.17-1.31-.17-1.77,0,0-1.48-2.15-3.37-5.28-3.25-5.41-7.68-13.79-7.68-19.22,0-13.53,10.97-24.49,24.49-24.49s24.5,10.97,24.5,24.49Z" style="fill:#fff;"/><path d="m238.52,250.07c-1.88,3.13-3.37,5.28-3.37,5.28,0,.46-.06,1.07-.17,1.77h-26.53c-.12-.7-.17-1.31-.17-1.77,0,0-1.48-2.15-3.37-5.28h33.62Z" style="fill:#fff;"/><polyline points="228.85 265.75 228.05 271.61 213.3 271.61 212.5 265.75" style="fill:#b6bde0; stroke:#32406d; stroke-miterlimit:10;"/><path d="m244.13,221.84c-.18-.54-.39-1.07-.61-1.6-3.75-8.92-12.58-15.19-22.85-15.19s-19.05,6.24-22.81,15.13c-.31.73-.58,1.47-.82,2.23-.73,2.34-1.12,4.82-1.12,7.4,0,5.38,4.2,13.49,7.72,19.36,1.68,2.8,3.06,4.84,3.33,5.23.01.47.07,1.07.18,1.73.52,3.23,2.51,9.9,5.28,9.9h16.5c2.77,0,4.75-6.67,5.28-9.9.11-.66.17-1.26.18-1.73.27-.4,1.65-2.43,3.34-5.23,3.52-5.87,7.73-13.99,7.73-19.36,0-2.79-.47-5.47-1.32-7.97Zm-6.87,27.06c-1.85,3.09-3.35,5.24-3.36,5.26l-.05.07v.09c0,.46-.06,1.05-.17,1.73-.65,3.96-2.66,9.45-4.75,9.45h-16.5c-2.07,0-4.12-5.58-4.75-9.45-.11-.67-.17-1.27-.17-1.73v-.09l-.05-.07s-1.5-2.17-3.36-5.26c-2.85-4.75-7.64-13.55-7.64-19.08,0-2.71.45-5.33,1.27-7.76.14-.42.29-.83.46-1.24,3.58-8.91,12.32-15.22,22.49-15.22s18.97,6.35,22.53,15.3c.08.2.16.4.23.6.95,2.6,1.47,5.4,1.47,8.32,0,5.24-4.16,13.27-7.65,19.08Z" style="fill:#32406d; stroke:#32406d; stroke-miterlimit:10; stroke-width:.5px;"/><path d="m237.49,249.04c-1.88,3.13-3.37,5.28-3.37,5.28,0,.46-.06,1.07-.17,1.77h-26.53c-.12-.7-.17-1.31-.17-1.77,0,0-1.48-2.15-3.37-5.28h33.62Z" style="fill:#2a5caa; stroke:#32406d; stroke-miterlimit:10;"/></g><g><polygon points="229.74 196.14 214.98 196.14 213.16 182.76 231.55 182.76 229.74 196.14" style="fill:#dedce4;"/><path d="m246.86,154.35c0,5.43-4.44,13.81-7.69,19.22-1.88,3.13-3.37,5.28-3.37,5.28,0,.46-.06,1.07-.17,1.77-.59,3.64-2.61,9.67-5.02,9.67h-16.5c-2.41,0-4.42-6.03-5.02-9.67-.12-.7-.17-1.31-.17-1.77,0,0-1.48-2.15-3.37-5.28-3.25-5.41-7.68-13.79-7.68-19.22,0-13.53,10.97-24.49,24.49-24.49s24.5,10.97,24.5,24.49Z" style="fill:#fff;"/><path d="m239.17,173.57c-1.88,3.13-3.37,5.28-3.37,5.28,0,.46-.06,1.07-.17,1.77h-26.53c-.12-.7-.17-1.31-.17-1.77,0,0-1.48-2.15-3.37-5.28h33.62Z" style="fill:#fff;"/><polyline points="229.5 189.25 228.7 195.11 213.95 195.11 213.15 189.25" style="fill:#b6bde0; stroke:#32406d; stroke-miterlimit:10;"/><path d="m244.78,145.34c-.18-.54-.39-1.07-.61-1.6-3.75-8.92-12.58-15.19-22.85-15.19s-19.05,6.24-22.81,15.13c-.31.73-.58,1.47-.82,2.23-.73,2.34-1.12,4.82-1.12,7.4,0,5.38,4.2,13.49,7.72,19.36,1.68,2.8,3.06,4.84,3.33,5.23.01.47.07,1.07.18,1.73.52,3.23,2.51,9.9,5.28,9.9h16.5c2.77,0,4.75-6.67,5.28-9.9.11-.66.17-1.26.18-1.73.27-.4,1.65-2.43,3.34-5.23,3.52-5.87,7.73-13.99,7.73-19.36,0-2.79-.47-5.47-1.32-7.97Zm-6.87,27.06c-1.85,3.09-3.35,5.24-3.36,5.26l-.05.07v.09c0,.46-.06,1.05-.17,1.73-.65,3.96-2.66,9.45-4.75,9.45h-16.5c-2.07,0-4.12-5.58-4.75-9.45-.11-.67-.17-1.27-.17-1.73v-.09l-.05-.07s-1.5-2.17-3.36-5.26c-2.85-4.75-7.64-13.55-7.64-19.08,0-2.71.45-5.33,1.27-7.76.14-.42.29-.83.46-1.24,3.58-8.91,12.32-15.22,22.49-15.22s18.97,6.35,22.53,15.3c.08.2.16.4.23.6.95,2.6,1.47,5.4,1.47,8.32,0,5.24-4.16,13.27-7.65,19.08Z" style="fill:#32406d; stroke:#32406d; stroke-miterlimit:10; stroke-width:.5px;"/><path d="m238.14,172.53c-1.88,3.13-3.37,5.28-3.37,5.28,0,.46-.06,1.07-.17,1.77h-26.53c-.12-.7-.17-1.31-.17-1.77,0,0-1.48-2.15-3.37-5.28h33.62Z" style="fill:#2a5caa; stroke:#32406d; stroke-miterlimit:10;"/></g><g><polygon points="228.71 114.39 213.95 114.39 212.13 101.01 230.52 101.01 228.71 114.39" style="fill:#dedce4;"/><path d="m245.82,72.6c0,5.43-4.44,13.81-7.69,19.22-1.88,3.13-3.37,5.28-3.37,5.28,0,.46-.06,1.07-.17,1.77-.59,3.64-2.61,9.67-5.02,9.67h-16.5c-2.41,0-4.42-6.03-5.02-9.67-.12-.7-.17-1.31-.17-1.77,0,0-1.48-2.15-3.37-5.28-3.25-5.41-7.68-13.79-7.68-19.22,0-13.53,10.97-24.49,24.49-24.49s24.5,10.97,24.5,24.49Z" style="fill:#fff;"/><path d="m238.14,91.82c-1.88,3.13-3.37,5.28-3.37,5.28,0,.46-.06,1.07-.17,1.77h-26.53c-.12-.7-.17-1.31-.17-1.77,0,0-1.48-2.15-3.37-5.28h33.62Z" style="fill:#fff;"/><polyline points="228.47 107.5 227.67 113.36 212.91 113.36 212.12 107.5" style="fill:#b6bde0; stroke:#32406d; stroke-miterlimit:10;"/><path d="m243.74,63.6c-.18-.54-.39-1.07-.61-1.6-3.75-8.92-12.58-15.19-22.85-15.19s-19.05,6.24-22.81,15.13c-.31.73-.58,1.47-.82,2.23-.73,2.34-1.12,4.82-1.12,7.4,0,5.38,4.2,13.49,7.72,19.36,1.68,2.8,3.06,4.84,3.33,5.23.01.47.07,1.07.18,1.73.52,3.23,2.51,9.9,5.28,9.9h16.5c2.77,0,4.75-6.67,5.28-9.9.11-.66.17-1.26.18-1.73.27-.4,1.65-2.43,3.34-5.23,3.52-5.87,7.73-13.99,7.73-19.36,0-2.79-.47-5.47-1.32-7.97Zm-6.87,27.06c-1.85,3.09-3.35,5.24-3.36,5.26l-.05.07v.09c0,.46-.06,1.05-.17,1.73-.65,3.96-2.66,9.45-4.75,9.45h-16.5c-2.07,0-4.12-5.58-4.75-9.45-.11-.67-.17-1.27-.17-1.73v-.09l-.05-.07s-1.5-2.17-3.36-5.26c-2.85-4.75-7.64-13.55-7.64-19.08,0-2.71.45-5.33,1.27-7.76.14-.42.29-.83.46-1.24,3.58-8.91,12.32-15.22,22.49-15.22s18.97,6.35,22.53,15.3c.08.2.16.4.23.6.95,2.6,1.47,5.4,1.47,8.32,0,5.24-4.16,13.27-7.65,19.08Z" style="fill:#32406d; stroke:#32406d; stroke-miterlimit:10; stroke-width:.5px;"/><path d="m237.1,90.79c-1.88,3.13-3.37,5.28-3.37,5.28,0,.46-.06,1.07-.17,1.77h-26.53c-.12-.7-.17-1.31-.17-1.77,0,0-1.48-2.15-3.37-5.28h33.62Z" style="fill:#2a5caa; stroke:#32406d; stroke-miterlimit:10;"/></g><g><path d="m338.96,335.79h-1.4c-4.18,0-7.58,3.39-7.58,7.58v-2.06c0-4.19-3.41-7.6-7.58-7.6h-1.4c-4.19,0-7.6,3.41-7.6,7.6v-4.12c0-4.17-3.38-7.58-7.58-7.58h-1.4c-4.17,0-7.58,3.41-7.58,7.58v-24.69c0-2.28-.93-4.34-2.43-5.84-1.5-1.5-3.58-2.43-5.86-2.43-4.56,0-8.26,3.7-8.26,8.26v57.6l-14.98-14.98c-1.62-1.62-3.73-2.43-5.86-2.43s-4.22.81-5.84,2.43c-3.24,3.24-3.24,8.48,0,11.72l26.68,26.68v39.09h53.93v-11.53c6.9-.61,12.31-6.4,12.31-13.45v-64.24c0-4.18-3.39-7.58-7.58-7.58Z" style="fill:#e3e5f3;"/><path d="m336.53,332.63h-1.4c-4.18,0-7.58,3.39-7.58,7.58v-2.06c0-4.19-3.41-7.6-7.58-7.6h-1.4c-4.19,0-7.6,3.41-7.6,7.6v-4.12c0-4.17-3.38-7.58-7.58-7.58h-1.4c-4.17,0-7.58,3.41-7.58,7.58v-24.69c0-2.28-.93-4.34-2.43-5.84-1.5-1.5-3.58-2.43-5.86-2.43-4.56,0-8.26,3.7-8.26,8.26v57.6l-14.98-14.98c-1.62-1.62-3.73-2.43-5.86-2.43s-4.22.81-5.84,2.43c-3.24,3.24-3.24,8.48,0,11.72l26.68,26.68v39.09h53.93v-11.53c6.9-.61,12.31-6.4,12.31-13.45v-64.24c0-4.18-3.39-7.58-7.58-7.58Z" style="fill:none; stroke:#32406d; stroke-miterlimit:10;"/></g><g><polygon points="182.12 380.44 82.93 380.44 82.93 328.01 197.86 328.01 197.86 364.7 182.12 380.44" style="fill:#b6bde0;"/><polygon points="182.12 380.44 182.12 380.44 182.12 364.69 197.86 364.69 197.86 364.7 182.12 380.44" style="fill:#8e9ace;"/><polygon points="180.57 379.35 180.56 379.35 180.56 363.61 196.31 363.61 196.31 363.61 180.57 379.35" style="fill:none; stroke:#32406d; stroke-miterlimit:10;"/><polygon points="180.53 379.39 81.34 379.39 81.34 326.96 196.27 326.96 196.27 363.65 180.53 379.39" style="fill:none; stroke:#32406d; stroke-miterlimit:10;"/></g><g><g><rect x="305.71" y="178.55" width="20.58" height="20.58" style="fill:#fff;"/><polyline points="299.65 189.64 310.08 200.07 332.55 177.61" style="fill:none; fill-rule:evenodd; stroke:#fff; stroke-miterlimit:10; stroke-width:4px;"/><rect x="304.12" y="175.28" width="20.58" height="20.58" style="fill:#fff; stroke:#32406d; stroke-miterlimit:10;"/><g><path d="m297.14,187.99l2.53-2.53,8.46,8.46c.09.09.22.15.35.15s.26-.05.35-.15l20.49-20.49,2.53,2.53-23.38,23.38-11.35-11.35Z" style="fill:#b6bde0;"/><path d="m329.33,174.13l1.82,1.82-22.67,22.67-10.64-10.64,1.82-1.82,8.11,8.11c.19.19.44.29.71.29s.52-.11.71-.29l20.14-20.14m0-1.41l-20.85,20.85-8.81-8.82-3.24,3.24,12.05,12.05,24.08-24.08-3.24-3.24h0Z" style="fill:#32406d;"/></g></g><g><rect x="305.71" y="126.02" width="20.58" height="20.58" style="fill:#fff;"/><polyline points="299.65 137.11 310.08 147.54 332.55 125.08" style="fill:none; fill-rule:evenodd; stroke:#fff; stroke-miterlimit:10; stroke-width:4px;"/><rect x="304.12" y="122.75" width="20.58" height="20.58" style="fill:#fff; stroke:#32406d; stroke-miterlimit:10;"/><g><path d="m297.14,135.46l2.53-2.53,8.46,8.46c.09.09.22.15.35.15s.26-.05.35-.15l20.49-20.49,2.53,2.53-23.38,23.38-11.35-11.35Z" style="fill:#b6bde0;"/><path d="m329.33,121.6l1.82,1.82-22.67,22.67-10.64-10.64,1.82-1.82,8.11,8.11c.19.19.44.29.71.29s.52-.11.71-.29l20.14-20.14m0-1.41l-20.85,20.85-8.81-8.82-3.24,3.24,12.05,12.05,24.08-24.08-3.24-3.24h0Z" style="fill:#32406d;"/></g></g><g><rect x="305.71" y="229.68" width="20.58" height="20.58" style="fill:#fff;"/><polyline points="299.65 240.77 310.08 251.21 332.55 228.74" style="fill:#ebecf7; fill-rule:evenodd; stroke:#fff; stroke-miterlimit:10; stroke-width:4px;"/><rect x="304.12" y="226.41" width="20.58" height="20.58" style="fill:#fff; stroke:#32406d; stroke-miterlimit:10;"/><g><path d="m297.14,239.12l2.53-2.53,8.46,8.46c.1.1.23.15.35.15s.26-.05.35-.15l20.49-20.49,2.53,2.53-23.38,23.38-11.35-11.34Z" style="fill:#b6bde0;"/><path d="m329.33,225.27l1.82,1.82-22.67,22.67-10.64-10.64,1.82-1.82,8.11,8.11c.2.2.45.29.71.29s.51-.1.71-.29l20.14-20.14m0-1.41l-20.85,20.85-8.81-8.81-3.24,3.24,12.05,12.05,24.08-24.08-3.24-3.24h0Z" style="fill:#32406d;"/></g></g><g><rect x="305.71" y="280.73" width="20.58" height="20.58" style="fill:#fff;"/><rect x="304.12" y="277.46" width="20.58" height="20.58" style="fill:#fff; stroke:#32406d; stroke-miterlimit:10;"/></g></g><polygon points="164.18 327.42 160.29 327.42 160.29 348.01 90.29 278.01 87.54 280.76 157.54 350.76 136.96 350.76 136.96 354.65 164.18 354.65 164.18 327.42" style="fill:#fff; stroke:#32406d; stroke-miterlimit:10;"/><g><polygon points="133.48 290.69 46.17 290.69 46.17 238.2 150.06 238.2 150.06 272.41 133.48 290.69" style="fill:#fff;"/><polygon points="135.12 291.95 47.81 291.95 47.81 239.47 151.7 239.47 151.7 273.68 135.12 291.95" style="fill:#e3e5f3;"/><polygon points="135.12 291.95 135.11 291.95 135.11 273.67 151.7 273.67 151.7 273.68 135.12 291.95" style="fill:#b6bde0;"/><polygon points="133.44 290.73 46.13 290.73 46.13 238.25 150.02 238.25 150.02 272.46 133.44 290.73" style="fill:none; stroke:#32406d; stroke-miterlimit:10;"/><polygon points="133.48 290.69 133.47 290.69 133.47 272.41 150.06 272.41 150.06 272.41 133.48 290.69" style="fill:none; stroke:#32406d; stroke-miterlimit:10;"/></g></g></svg>