<?xml version="1.0" encoding="UTF-8"?><svg xmlns="http://www.w3.org/2000/svg" viewBox="0 0 375.65 353.19"><g id="d"><path d="m135.79,277.1h.09c-2.39,3.76-6.57,6.03-11.02,6h-61.31c-7.18-.02-12.99-5.84-12.99-13.01.02-1.88.42-3.73,1.21-5.43l15.73-34.04,13.79-29.83c.25-.56.37-1.18.37-1.76v-33.43h25.12v33.43c0,.58.13,1.2.37,1.76l13.76,29.83,15.71,34.04c1.86,4.01,1.54,8.7-.85,12.44Z" style="fill:#b6bde0;"/><ellipse cx="94.21" cy="47.66" rx="41.84" ry="12.14" style="fill:#8e9ace;"/><ellipse cx="94.21" cy="65.6" rx="41.84" ry="12.14" style="fill:#fff;"/><ellipse cx="94.21" cy="81.33" rx="41.84" ry="12.14" style="fill:#b6bde0;"/><path d="m135.79,277.1h.09c-2.39,3.76-6.57,6.03-11.02,6h-61.31c-7.18-.02-12.99-5.84-12.99-13.01.02-1.88.42-3.73,1.21-5.43l15.73-34.04h53.42l15.71,34.04c1.86,4.01,1.54,8.7-.85,12.44Z" style="fill:#2a5caa;"/><rect x="153.36" y="50.49" width="138.94" height="173.86" style="fill:#b6bde0;"/><g><line x1="199" y1="93.26" x2="276.62" y2="93.26" style="fill:#ebecf7; stroke:#fff; stroke-miterlimit:10; stroke-width:4px;"/><line x1="197.69" y1="90.59" x2="275.32" y2="90.59" style="fill:none; stroke:#32406d; stroke-miterlimit:10; stroke-width:3px;"/></g><g><line x1="199" y1="135.84" x2="243.68" y2="135.84" style="fill:#ebecf7; stroke:#fff; stroke-miterlimit:10; stroke-width:4px;"/><line x1="197.69" y1="133.18" x2="242.38" y2="133.18" style="fill:none; stroke:#32406d; stroke-miterlimit:10; stroke-width:3px;"/></g><g><line x1="199" y1="177.71" x2="260.2" y2="177.71" style="fill:#ebecf7; stroke:#fff; stroke-miterlimit:10; stroke-width:4px;"/><line x1="197.69" y1="175.04" x2="258.9" y2="175.04" style="fill:none; stroke:#32406d; stroke-miterlimit:10; stroke-width:3px;"/></g><g><rect x="166.89" y="85.54" width="16.77" height="16.77" style="fill:#fff;"/><polyline points="161.95 94.58 170.45 103.08 188.75 84.78" style="fill:none; fill-rule:evenodd; stroke:#fff; stroke-miterlimit:10; stroke-width:4px;"/><rect x="165.59" y="82.88" width="16.77" height="16.77" style="fill:#fff; stroke:#32406d; stroke-miterlimit:10;"/><g><path d="m160.04,93.23l1.93-1.93,6.83,6.83c.09.09.22.15.35.15h0c.13,0,.26-.05.35-.15l16.63-16.63,1.93,1.93-18.91,18.91-9.11-9.11Z" style="fill:#2a5caa;"/><path d="m186.13,82.21l1.22,1.22-18.2,18.2-8.4-8.4,1.22-1.22,6.47,6.47c.19.19.44.29.71.29s.52-.11.71-.29l16.27-16.27m0-1.41l-16.98,16.98-7.18-7.18-2.64,2.64,9.82,9.82,19.62-19.62-2.64-2.64h0Z" style="fill:#32406d;"/></g></g><g><rect x="166.89" y="127.2" width="16.77" height="16.77" style="fill:#fff;"/><polyline points="161.95 136.23 170.45 144.73 188.75 126.43" style="fill:#ebecf7; fill-rule:evenodd; stroke:#fff; stroke-miterlimit:10; stroke-width:4px;"/><rect x="165.59" y="124.53" width="16.77" height="16.77" style="fill:#fff; stroke:#32406d; stroke-miterlimit:10;"/><g><path d="m160.04,134.89l1.93-1.93,6.83,6.83c.09.09.22.15.35.15s.26-.05.35-.15l16.63-16.63,1.93,1.93-18.91,18.91-9.11-9.11Z" style="fill:#2a5caa;"/><path d="m186.13,123.86l1.22,1.22-18.2,18.2-8.4-8.4,1.22-1.22,6.47,6.47c.2.2.45.29.71.29s.51-.1.71-.29l16.27-16.27m0-1.41l-16.98,16.98-7.18-7.18-2.64,2.64,9.82,9.82,19.62-19.62-2.64-2.64h0Z" style="fill:#32406d;"/></g></g><g><rect x="166.89" y="168.78" width="16.77" height="16.77" style="fill:#fff;"/><rect x="165.59" y="166.12" width="16.77" height="16.77" style="fill:#fff; stroke:#32406d; stroke-miterlimit:10;"/><line x1="187.08" y1="165.22" x2="162.9" y2="189.4" style="fill:none; stroke:#fff; stroke-linejoin:round; stroke-width:3px;"/><line x1="187.08" y1="189.4" x2="162.9" y2="165.22" style="fill:none; stroke:#fff; stroke-linejoin:round; stroke-width:3px;"/><g><polygon points="174.21 176.45 163.46 187.21 161.5 185.27 172.27 174.5 161.51 163.74 163.45 161.79 174.21 172.56 184.97 161.8 186.93 163.74 176.16 174.5 186.92 185.26 184.98 187.21 174.21 176.45" style="fill:#2a5caa;"/><path d="m163.45,162.5l10.06,10.06.71.71.71-.71,10.05-10.05,1.24,1.23-10.06,10.06-.71.71.71.71,10.05,10.05-1.23,1.24-10.06-10.06-.71-.71-.71.71-10.05,10.05-1.24-1.23,10.06-10.06.71-.71-.71-.71-10.05-10.05,1.23-1.24m0-1.42l-2.64,2.66,10.76,10.76-10.77,10.77,2.66,2.64,10.76-10.76,10.77,10.77,2.64-2.66-10.76-10.76,10.77-10.77-2.66-2.64-10.76,10.76-10.77-10.77h0Z" style="fill:#32406d;"/></g></g><g><polygon points="324.4 125.02 324.49 138.63 314.55 154.11 312.22 150.48 305.26 138.75 305.18 125.14 314.69 108.64 324.4 125.02" style="fill:#fff; fill-rule:evenodd;"/><path d="m313.77,48.98h1.29c4.95,0,8.97,4.02,8.97,8.97v23.91h-19.23v-23.91c0-4.95,4.02-8.97,8.97-8.97Z" transform="translate(-.4 1.97) rotate(-.36)" style="fill:#fff;"/><rect x="305.03" y="65.05" width="19.23" height="73.64" transform="translate(-.63 1.97) rotate(-.36)" style="fill:#2a5caa;"/></g><rect x="179.36" y="40.61" width="86.95" height="22.42" style="fill:#8786a3;"/><path d="m213.81,25.78h18.04c8.26,0,14.97,6.71,14.97,14.97v14.68h-47.98v-14.68c0-8.26,6.71-14.97,14.97-14.97Z" style="fill:#8786a3;"/></g><g id="e"><path d="m133.75,274.81h.09c-2.39,3.76-6.57,6.03-11.02,6h-61.31c-7.18-.02-12.99-5.84-12.99-13.01.02-1.88.42-3.73,1.21-5.43l15.73-34.04,13.79-29.83c.25-.56.37-1.18.37-1.76v-33.43h25.12v33.43c0,.58.13,1.2.37,1.76l13.76,29.83,15.71,34.04c1.86,4.01,1.54,8.7-.85,12.44Z" style="fill:none; stroke:#32406d; stroke-miterlimit:10;"/><ellipse cx="92.17" cy="45.36" rx="41.84" ry="12.14" style="fill:none; stroke:#32406d; stroke-miterlimit:10;"/><ellipse cx="92.17" cy="62.2" rx="41.84" ry="12.14" style="fill:none; stroke:#32406d; stroke-miterlimit:10;"/><ellipse cx="92.17" cy="79.03" rx="41.84" ry="12.14" style="fill:none; stroke:#32406d; stroke-miterlimit:10;"/><path d="m133.75,274.81h.09c-2.39,3.76-6.57,6.03-11.02,6h-61.31c-7.18-.02-12.99-5.84-12.99-13.01.02-1.88.42-3.73,1.21-5.43l15.73-34.04h53.42l15.71,34.04c1.86,4.01,1.54,8.7-.85,12.44Z" style="fill:none; stroke:#32406d; stroke-miterlimit:10;"/><rect x="151.32" y="48.19" width="138.94" height="173.86" style="fill:none; stroke:#32406d; stroke-miterlimit:10;"/><polyline points="323.04 123.74 323.13 137.82 313.62 153.86 310.86 149.2 303.9 137.82 303.82 123.87" style="fill:none; fill-rule:evenodd; stroke:#32406d; stroke-miterlimit:10;"/><path d="m322.67,63.72h0l-.04-7.1c-.03-4.95-4.07-8.94-9.02-8.91h-1.29c-4.95.04-8.94,4.08-8.91,9.03l.04,7.1h0l.46,73.64,19.23-.12-.46-73.64Z" style="fill:none; fill-rule:evenodd; stroke:#32406d; stroke-miterlimit:10;"/><line x1="303.44" y1="63.84" x2="322.67" y2="63.72" style="fill:none; stroke:#32406d; stroke-miterlimit:10; stroke-width:3px;"/><g><polygon points="311.73 149.7 315.45 149.67 313.61 152.87 311.73 149.7" style="fill:#32406d;"/><path d="m314.58,150.18l-.98,1.7-1-1.68h1.98m1.74-1.02l-5.46.03,2.76,4.65,2.7-4.69h0Z" style="fill:#32406d;"/></g><path d="m244.85,38.31c-.08-8.2-6.74-14.83-14.96-14.83h-18.04c-8.22,0-14.88,6.63-14.96,14.83h-19.49v22.42h86.95v-22.42h-19.49Z" style="fill:#8e9ace; stroke:#32406d; stroke-miterlimit:10;"/></g><g id="f"><path d="m198.46,283.44c0,3.73-.44,7.36-1.28,10.83-4.87,20.33-23.17,35.43-44.98,35.43s-40.11-15.1-44.98-35.43c-.84-3.47-1.28-7.1-1.28-10.83,0-25.55,20.71-46.26,46.26-46.26s46.26,20.71,46.26,46.26Z" style="fill:#fff;"/><rect x="136.9" y="203.83" width="30.6" height="57.43" style="fill:#fff;"/><line x1="131.68" y1="203.83" x2="172.72" y2="203.83" style="fill:none; stroke:#8e9ace; stroke-miterlimit:10; stroke-width:3px;"/><path d="m197.19,294.27c-4.87,20.33-23.17,35.43-44.98,35.43s-40.11-15.1-44.98-35.43h89.97Z" style="fill:#2a5caa;"/><path d="m165.46,237.49v-35.96h-30.6v35.96c-18.03,6.32-30.96,23.47-30.96,43.66,0,3.73.44,7.36,1.28,10.83,4.87,20.33,23.17,35.43,44.98,35.43s40.11-15.1,44.98-35.43c.84-3.47,1.28-7.1,1.28-10.83,0-20.18-12.93-37.34-30.96-43.66Z" style="fill:none; stroke:#32406d; stroke-miterlimit:10;"/><line x1="129.64" y1="201.53" x2="170.68" y2="201.53" style="fill:none; stroke:#32406d; stroke-miterlimit:10; stroke-width:3px;"/><path d="m195.14,291.97c-4.87,20.33-23.17,35.43-44.98,35.43s-40.11-15.1-44.98-35.43h89.97Z" style="fill:none; stroke:#32406d; stroke-miterlimit:10;"/><path d="m117.72,108.86h-47.03c-8.22,1.26-13.45,3.15-13.45,5.29,0,.32.12.63.34.94.04.06.09.12.14.18l29.03,34.68h.01v63.81h14.89v-63.82l28.94-34.58.29-.34c.2-.29.3-.57.3-.87,0-2.14-5.23-4.03-13.45-5.29Z" style="fill:#2a5caa;"/><path d="m115.94,108.86c-6.39-.97-14.59-1.56-23.51-1.56s-17.13.59-23.52,1.56c-8.22,1.26-13.45,3.15-13.45,5.29,0,.32.12.63.34.94.04.06.09.12.14.18l29.03,34.68v63.82h14.88v-63.8h0s28.95-34.59,28.95-34.59l.29-.34c.2-.29.3-.57.3-.87,0-2.14-5.23-4.03-13.45-5.29Z" style="fill:none; stroke:#32406d; stroke-miterlimit:10;"/><path d="m129.39,114.15c0,.3-.1.58-.3.87l-.29.34c-.09.1-.18.19-.29.28l-.51.36-.03.02c-4.4,2.88-18.65,4.98-35.55,4.98s-31.18-2.1-35.57-4.98h-.02s-.52-.4-.52-.4c-.14-.12-.26-.24-.37-.36-.06-.06-.1-.12-.14-.18-.22-.31-.34-.62-.34-.94,0-2.14,5.23-4.03,13.45-5.29,6.39-.97,14.59-1.56,23.52-1.56s17.12.59,23.51,1.56c8.22,1.26,13.45,3.15,13.45,5.29Z" style="fill:#32406d;"/><g><circle cx="290.32" cy="223.49" r="40.42" transform="translate(-63.43 128.11) rotate(-22.5)" style="fill:#e3e5f3;"/><path d="m290.32,184.57c21.46,0,38.92,17.46,38.92,38.92s-17.46,38.92-38.92,38.92-38.92-17.46-38.92-38.92,17.46-38.92,38.92-38.92m0-3c-23.15,0-41.92,18.77-41.92,41.92s18.77,41.92,41.92,41.92,41.92-18.77,41.92-41.92-18.77-41.92-41.92-41.92h0Z" style="fill:#32406d;"/></g><g><path d="m271.19,215.92c3.61-7.94,11.62-13.46,20.91-13.46,12.68,0,22.96,10.28,22.96,22.96" style="fill:none; stroke:#fff; stroke-miterlimit:10; stroke-width:3px;"/><path d="m312.96,235.03c-3.64,7.88-11.61,13.35-20.86,13.35-12.68,0-22.96-10.28-22.96-22.96" style="fill:none; stroke:#fff; stroke-miterlimit:10; stroke-width:3px;"/><polyline points="281.35 214.08 271.19 215.92 269.34 205.76" style="fill:none; stroke:#fff; stroke-miterlimit:10; stroke-width:3px;"/><polyline points="302.77 236.68 312.96 235.03 314.62 245.22" style="fill:none; stroke:#fff; stroke-miterlimit:10; stroke-width:3px;"/><g><g><path d="m311.99,222.74c-.27-11.78-9.93-21.29-21.78-21.29-7.3,0-14.09,3.64-18.15,9.74l-.65.98,7.34-1.33.42,2.31-10.82,1.97-1.97-10.82,2.31-.42,1.16,6.38.69-.97c4.53-6.37,11.89-10.18,19.67-10.18,13.14,0,23.86,10.56,24.13,23.63h-2.35Z" style="fill:#2a5caa;"/><path d="m290.2,199.6c12.7,0,23.09,10.06,23.61,22.63h-1.35c-.53-11.83-10.31-21.29-22.26-21.29-7.47,0-14.41,3.72-18.56,9.96l-1.3,1.96,2.31-.42,5.69-1.03.24,1.32-9.84,1.79-1.79-9.84,1.32-.24.86,4.72.42,2.33,1.37-1.93c4.44-6.24,11.64-9.96,19.26-9.96m0-1c-8.05,0-15.51,3.97-20.08,10.39l-1.04-5.7-3.29.6,2.14,11.8,11.8-2.14-.6-3.29-6.68,1.21c3.91-5.87,10.55-9.52,17.73-9.52,11.74,0,21.29,9.55,21.29,21.29h3.35c0-13.58-11.05-24.63-24.63-24.63h0Z" style="fill:#32406d;"/></g><g><path d="m290.21,247.37c-13.14,0-23.86-10.56-24.13-23.63h2.35c.27,11.78,9.94,21.29,21.78,21.29,7.27,0,14.04-3.62,18.11-9.69l.64-.96-7.41,1.21-.38-2.31,10.86-1.77,1.77,10.86-2.31.38-1.03-6.33-.71.97c-4.54,6.26-11.85,10-19.54,10Z" style="fill:#2a5caa;"/><path d="m267.94,224.24c.53,11.83,10.31,21.29,22.26,21.29,7.44,0,14.37-3.71,18.53-9.91l1.28-1.91-2.27.37-5.78.94-.22-1.33,9.87-1.61,1.61,9.87-1.33.22-.76-4.66-.39-2.37-1.41,1.94c-4.45,6.13-11.61,9.79-19.14,9.79-12.7,0-23.09-10.06-23.61-22.63h1.35m.98-1h-3.35c0,13.58,11.05,24.63,24.63,24.63,7.96,0,15.37-3.89,19.95-10.2l.92,5.64,3.3-.54-1.93-11.84-11.84,1.93.54,3.3,6.76-1.1c-3.91,5.84-10.54,9.47-17.7,9.47-11.74,0-21.29-9.55-21.29-21.29h0Z" style="fill:#32406d;"/></g></g></g><circle cx="220.87" cy="35.12" r="4.87" style="fill:#fff; stroke:#32406d; stroke-miterlimit:10; stroke-width:3px;"/></g></svg>