<svg width="483" height="483" viewBox="0 0 483 483" fill="none" xmlns="http://www.w3.org/2000/svg">
<path d="M124 120.5L362 359" stroke="#EBECF6"/>
<path d="M120 358.5L358 120.5" stroke="#EBECF6"/>
<rect x="159.078" y="240.827" width="119.239" height="119.239" transform="rotate(-45 159.078 240.827)" fill="#36539B"/>
<path d="M220.374 82.2865L221.6 82.065C221.583 83.3767 222.333 83.9217 223.593 83.9217C224.871 83.9217 225.688 83.3596 225.688 82.1161C225.688 81.077 225.228 80.6171 223.849 80.0891C222.622 79.6121 221.566 79.0841 221.566 77.3977C221.566 75.2003 223.508 74.5019 224.905 74.5019C226.847 74.5019 227.937 75.2003 227.937 77.1422L226.659 77.3466C226.693 76.1712 226.046 75.5239 224.803 75.5239C223.644 75.5239 222.827 76.1542 222.827 77.2103C222.827 78.2664 223.457 78.5219 224.7 79.033C226.165 79.6462 227.034 80.3105 227.034 81.9458C227.034 84.041 225.382 84.9438 223.457 84.9438C221.464 84.9438 220.374 84.1262 220.374 82.2865ZM232.426 83.4618V84.552C231.949 84.8246 231.335 84.9438 230.875 84.9438C229.547 84.9438 228.831 84.2284 229.138 82.559L229.956 77.9087H228.865L229.053 76.8696H230.16L230.45 75.2173L231.761 75.0299L231.438 76.8696H233.499L233.311 77.9087H231.267L230.416 82.6953C230.262 83.53 230.62 83.8536 231.08 83.8536C231.557 83.8536 231.88 83.7684 232.426 83.4618ZM239.303 81.4518L239.542 80.1231C239.746 78.9307 239.252 77.7043 237.992 77.7043C236.424 77.7043 235.266 79.3225 235.266 81.571C235.266 82.8997 235.845 83.8706 237.004 83.8706C238.196 83.8706 239.048 82.9508 239.303 81.4518ZM241.415 76.8696L240.325 83.053C240.257 83.4448 240.274 83.8195 240.768 83.8195C240.904 83.8195 241.058 83.8025 241.262 83.7514L241.092 84.6883C240.853 84.7734 240.564 84.8246 240.274 84.8246C239.422 84.8246 238.98 84.3306 239.048 83.4278C238.571 84.5009 237.634 84.9438 236.646 84.9438C235.13 84.9438 234.006 83.8025 234.006 81.7243C234.006 79.033 235.556 76.6822 237.872 76.6822C238.963 76.6822 239.712 77.1592 239.916 78.1983L240.342 76.8696H241.415ZM248.253 81.5029L248.508 80.1231C248.713 78.9478 248.253 77.7043 246.975 77.7043C245.357 77.7043 244.216 79.3566 244.216 81.5881C244.216 82.9167 244.761 83.8706 245.936 83.8706C247.18 83.8706 247.997 82.9849 248.253 81.5029ZM250.365 76.8696L248.934 84.9949C248.525 87.2604 247.418 88.3336 245.118 88.3336C243.023 88.3336 242.24 87.3115 242.103 86.1532L243.262 85.7614C243.33 86.6642 244.028 87.3797 245.204 87.3797C246.669 87.3797 247.333 86.528 247.622 85.046L247.929 83.4618C247.452 84.535 246.635 84.9268 245.63 84.9268C244.096 84.9268 242.955 83.7855 242.955 81.7073C242.955 79.033 244.539 76.6822 246.873 76.6822C247.963 76.6822 248.662 77.1592 248.866 78.1983L249.292 76.8696H250.365ZM254.589 83.9388C255.765 83.9388 256.242 83.4448 256.531 82.5931L257.707 82.8827C257.128 84.4839 256.003 84.9438 254.47 84.9438C252.579 84.9438 251.472 83.6151 251.472 81.6051C251.472 78.4027 253.414 76.6822 255.305 76.6822C257.315 76.6822 258.098 78.045 258.098 79.4929C258.098 80.038 257.996 80.5831 257.758 81.0941H252.682C252.562 82.4738 253.09 83.9388 254.589 83.9388ZM252.835 80.055H256.77C256.838 79.8676 256.855 79.6632 256.855 79.4588C256.855 78.5219 256.344 77.7043 255.237 77.7043C253.925 77.7043 253.142 78.8115 252.835 80.055ZM265.808 84.7394H264.479L265.689 77.8235L263.202 78.2835L263.406 77.1933L267.273 76.4097L265.808 84.7394Z" fill="#363C65"/>
<path d="M203.237 99.414V102.378H204.429C205.434 102.378 205.843 101.884 205.843 100.947C205.843 99.908 205.4 99.414 204.429 99.414H203.237ZM203.237 107.505H200.92V97.4721H204.497C207.069 97.4721 208.142 98.6475 208.142 100.862C208.142 102.991 206.882 104.269 204.718 104.269H203.237V107.505ZM215.165 99.4651L214.909 101.986C214.62 101.884 214.381 101.85 214.023 101.85C213.121 101.85 212.013 102.293 212.013 103.911V107.505H209.731V99.6354H211.707L211.979 101.799C212.32 100.436 213.086 99.3458 215.165 99.4651ZM219.557 105.955C220.17 105.955 220.681 105.717 220.937 104.882L222.879 105.546C222.47 107.147 221.056 107.71 219.506 107.71C217.257 107.71 215.707 106.228 215.707 103.69C215.707 100.981 217.172 99.4481 219.54 99.4481C221.771 99.4481 222.862 100.913 222.862 102.94C222.862 103.281 222.828 103.638 222.759 103.962H217.905C217.956 105.172 218.518 105.955 219.557 105.955ZM217.973 102.702H220.681C220.698 102.599 220.698 102.531 220.698 102.429C220.698 101.697 220.272 101.134 219.455 101.134C218.603 101.134 218.058 101.782 217.973 102.702ZM226.801 103.196V104.286C226.801 105.631 227.636 106.074 228.3 106.074C229.271 106.074 230.089 105.257 230.089 103.587C230.089 101.952 229.459 101.271 228.454 101.271C227.619 101.271 226.801 101.935 226.801 103.196ZM226.818 106.466V110.963H224.536V99.6354H226.478L226.767 101.151C227.244 99.8909 228.266 99.4481 229.356 99.4481C231.281 99.4481 232.389 100.879 232.389 103.383C232.389 105.972 231.145 107.71 229.016 107.71C227.806 107.71 227.04 107.13 226.818 106.466ZM237.867 105.035V104.235C236.266 104.184 235.704 104.609 235.704 105.308C235.704 105.768 236.028 106.091 236.573 106.091C237.169 106.091 237.867 105.802 237.867 105.035ZM240.116 102.054V105.12C240.116 105.648 240.337 105.836 240.695 105.836C240.882 105.836 241.036 105.785 241.189 105.717V107.369C240.865 107.573 240.44 107.658 239.894 107.658C238.889 107.658 238.276 107.267 238.021 106.415C237.663 107.386 236.811 107.71 235.738 107.71C234.341 107.71 233.421 106.892 233.421 105.546C233.421 103.792 234.835 102.838 237.867 103.008V102.259C237.867 101.577 237.578 101.168 236.948 101.168C236.317 101.168 235.994 101.594 235.96 102.327L233.694 101.901C233.813 100.232 235.227 99.4481 237.033 99.4481C238.992 99.4481 240.116 100.3 240.116 102.054ZM247.985 99.4651L247.73 101.986C247.44 101.884 247.202 101.85 246.844 101.85C245.941 101.85 244.834 102.293 244.834 103.911V107.505H242.551V99.6354H244.527L244.8 101.799C245.141 100.436 245.907 99.3458 247.985 99.4651ZM252.378 105.955C252.991 105.955 253.502 105.717 253.757 104.882L255.699 105.546C255.29 107.147 253.877 107.71 252.327 107.71C250.078 107.71 248.528 106.228 248.528 103.69C248.528 100.981 249.993 99.4481 252.361 99.4481C254.592 99.4481 255.682 100.913 255.682 102.94C255.682 103.281 255.648 103.638 255.58 103.962H250.725C250.776 105.172 251.339 105.955 252.378 105.955ZM250.793 102.702H253.502C253.519 102.599 253.519 102.531 253.519 102.429C253.519 101.697 253.093 101.134 252.275 101.134C251.424 101.134 250.879 101.782 250.793 102.702ZM265.971 105.274L266.362 107.199C265.698 107.539 264.88 107.71 263.944 107.71C262.376 107.71 261.354 106.977 261.354 105.172V101.39H260.213V99.6354H261.371V97.9661L263.654 97.6935V99.6354H265.988V101.39H263.637V104.66C263.637 105.495 263.961 105.768 264.591 105.768C265.085 105.768 265.511 105.597 265.971 105.274ZM270.942 105.955C271.555 105.955 272.066 105.717 272.322 104.882L274.264 105.546C273.855 107.147 272.441 107.71 270.891 107.71C268.643 107.71 267.092 106.228 267.092 103.69C267.092 100.981 268.557 99.4481 270.925 99.4481C273.157 99.4481 274.247 100.913 274.247 102.94C274.247 103.281 274.213 103.638 274.145 103.962H269.29C269.341 105.172 269.903 105.955 270.942 105.955ZM269.358 102.702H272.066C272.083 102.599 272.083 102.531 272.083 102.429C272.083 101.697 271.658 101.134 270.84 101.134C269.988 101.134 269.443 101.782 269.358 102.702ZM275.154 105.683L277.028 104.933C277.198 105.785 277.812 106.108 278.561 106.108C279.191 106.108 279.634 105.887 279.634 105.427C279.634 104.984 279.328 104.78 278.629 104.609L277.471 104.337C276.091 103.979 275.461 103.196 275.461 102.003C275.461 100.01 277.045 99.4481 278.663 99.4481C280.537 99.4481 281.661 100.129 281.781 101.662L279.651 101.969C279.566 101.339 279.209 101.134 278.561 101.134C278.033 101.134 277.675 101.373 277.675 101.782C277.675 102.174 277.914 102.395 278.442 102.497L279.549 102.736C281.15 103.076 281.9 103.928 281.9 105.274C281.9 107.028 280.452 107.71 278.527 107.71C276.585 107.71 275.461 107.165 275.154 105.683ZM288.361 105.274L288.753 107.199C288.089 107.539 287.271 107.71 286.334 107.71C284.767 107.71 283.745 106.977 283.745 105.172V101.39H282.604V99.6354H283.762V97.9661L286.045 97.6935V99.6354H288.378V101.39H286.027V104.66C286.027 105.495 286.351 105.768 286.981 105.768C287.475 105.768 287.901 105.597 288.361 105.274Z" fill="#363C65"/>
<path d="M371.199 218.547L372.426 218.326C372.409 219.637 373.158 220.182 374.419 220.182C375.696 220.182 376.514 219.62 376.514 218.377C376.514 217.338 376.054 216.878 374.674 216.35C373.448 215.873 372.392 215.345 372.392 213.658C372.392 211.461 374.334 210.762 375.73 210.762C377.672 210.762 378.762 211.461 378.762 213.403L377.485 213.607C377.519 212.432 376.872 211.784 375.628 211.784C374.47 211.784 373.652 212.415 373.652 213.471C373.652 214.527 374.282 214.782 375.526 215.294C376.991 215.907 377.86 216.571 377.86 218.206C377.86 220.302 376.207 221.204 374.282 221.204C372.29 221.204 371.199 220.387 371.199 218.547ZM383.251 219.722V220.813C382.774 221.085 382.161 221.204 381.701 221.204C380.372 221.204 379.657 220.489 379.964 218.82L380.781 214.169H379.691L379.878 213.13H380.986L381.275 211.478L382.587 211.29L382.263 213.13H384.324L384.137 214.169H382.093L381.241 218.956C381.088 219.791 381.446 220.114 381.906 220.114C382.382 220.114 382.706 220.029 383.251 219.722ZM390.129 217.712L390.367 216.384C390.572 215.191 390.078 213.965 388.817 213.965C387.25 213.965 386.092 215.583 386.092 217.832C386.092 219.16 386.671 220.131 387.829 220.131C389.022 220.131 389.873 219.211 390.129 217.712ZM392.241 213.13L391.151 219.314C391.083 219.705 391.1 220.08 391.594 220.08C391.73 220.08 391.883 220.063 392.088 220.012L391.917 220.949C391.679 221.034 391.389 221.085 391.1 221.085C390.248 221.085 389.805 220.591 389.873 219.688C389.396 220.761 388.46 221.204 387.472 221.204C385.956 221.204 384.831 220.063 384.831 217.985C384.831 215.294 386.381 212.943 388.698 212.943C389.788 212.943 390.538 213.42 390.742 214.459L391.168 213.13H392.241ZM399.078 217.763L399.334 216.384C399.538 215.208 399.078 213.965 397.801 213.965C396.183 213.965 395.041 215.617 395.041 217.849C395.041 219.177 395.586 220.131 396.762 220.131C398.005 220.131 398.823 219.245 399.078 217.763ZM401.191 213.13L399.76 221.255C399.351 223.521 398.244 224.594 395.944 224.594C393.849 224.594 393.065 223.572 392.929 222.414L394.087 222.022C394.156 222.925 394.854 223.64 396.029 223.64C397.494 223.64 398.159 222.789 398.448 221.307L398.755 219.722C398.278 220.796 397.46 221.187 396.455 221.187C394.922 221.187 393.781 220.046 393.781 217.968C393.781 215.294 395.365 212.943 397.699 212.943C398.789 212.943 399.487 213.42 399.692 214.459L400.118 213.13H401.191ZM405.415 220.199C406.59 220.199 407.067 219.705 407.357 218.854L408.532 219.143C407.953 220.744 406.829 221.204 405.296 221.204C403.405 221.204 402.298 219.876 402.298 217.866C402.298 214.663 404.24 212.943 406.131 212.943C408.141 212.943 408.924 214.306 408.924 215.753C408.924 216.299 408.822 216.844 408.583 217.355H403.507C403.388 218.734 403.916 220.199 405.415 220.199ZM403.661 216.316H407.595C407.664 216.128 407.681 215.924 407.681 215.719C407.681 214.782 407.17 213.965 406.062 213.965C404.751 213.965 403.967 215.072 403.661 216.316ZM419.632 219.91L419.444 221H413.431L413.602 219.978C416.787 218.445 418.695 217.048 418.695 215.14C418.695 214.237 418.167 213.709 417.23 213.709C416.378 213.709 415.578 214.152 415.578 215.498L414.368 215.242C414.538 213.079 416.259 212.602 417.366 212.602C419.035 212.602 420.058 213.454 420.058 215.106C420.058 217.61 417.128 219.314 415.152 219.842V219.91H419.632Z" fill="#363C65"/>
<path d="M379.136 240.495L381.095 241.671C380.193 243.221 379.017 243.97 376.786 243.97C374.06 243.97 372.187 242.079 372.187 238.741C372.187 235.402 374.026 233.528 377.092 233.528C379.154 233.528 380.448 234.465 381.181 236.066L378.949 237.157C378.643 236.169 378.097 235.572 377.007 235.572C375.491 235.572 374.571 236.782 374.571 238.792C374.571 240.768 375.389 241.926 377.041 241.926C377.961 241.926 378.694 241.466 379.136 240.495ZM387.976 235.726L387.721 238.247C387.431 238.144 387.193 238.11 386.835 238.11C385.932 238.11 384.825 238.553 384.825 240.172V243.766H382.542V235.896H384.518L384.791 238.059C385.131 236.697 385.898 235.606 387.976 235.726ZM392.369 242.216C392.982 242.216 393.493 241.977 393.748 241.142L395.69 241.807C395.281 243.408 393.868 243.97 392.317 243.97C390.069 243.97 388.519 242.488 388.519 239.95C388.519 237.242 389.984 235.709 392.352 235.709C394.583 235.709 395.673 237.174 395.673 239.201C395.673 239.541 395.639 239.899 395.571 240.223H390.716C390.767 241.432 391.329 242.216 392.369 242.216ZM390.784 238.962H393.493C393.51 238.86 393.51 238.792 393.51 238.69C393.51 237.957 393.084 237.395 392.266 237.395C391.415 237.395 390.87 238.042 390.784 238.962ZM401.214 241.296V240.495C399.612 240.444 399.05 240.87 399.05 241.568C399.05 242.028 399.374 242.352 399.919 242.352C400.515 242.352 401.214 242.062 401.214 241.296ZM403.462 238.315V241.381C403.462 241.909 403.684 242.096 404.041 242.096C404.229 242.096 404.382 242.045 404.535 241.977V243.629C404.212 243.834 403.786 243.919 403.241 243.919C402.236 243.919 401.622 243.527 401.367 242.676C401.009 243.647 400.158 243.97 399.084 243.97C397.688 243.97 396.768 243.153 396.768 241.807C396.768 240.052 398.182 239.098 401.214 239.269V238.519C401.214 237.838 400.924 237.429 400.294 237.429C399.664 237.429 399.34 237.855 399.306 238.587L397.04 238.162C397.16 236.492 398.573 235.709 400.379 235.709C402.338 235.709 403.462 236.56 403.462 238.315ZM410.752 241.534L411.144 243.459C410.48 243.8 409.662 243.97 408.725 243.97C407.158 243.97 406.136 243.238 406.136 241.432V237.651H404.995V235.896H406.153V234.227L408.436 233.954V235.896H410.769V237.651H408.419V240.921C408.419 241.756 408.742 242.028 409.373 242.028C409.867 242.028 410.292 241.858 410.752 241.534ZM415.724 242.216C416.337 242.216 416.848 241.977 417.104 241.142L419.046 241.807C418.637 243.408 417.223 243.97 415.673 243.97C413.424 243.97 411.874 242.488 411.874 239.95C411.874 237.242 413.339 235.709 415.707 235.709C417.938 235.709 419.029 237.174 419.029 239.201C419.029 239.541 418.994 239.899 418.926 240.223H414.072C414.123 241.432 414.685 242.216 415.724 242.216ZM414.14 238.962H416.848C416.865 238.86 416.865 238.792 416.865 238.69C416.865 237.957 416.439 237.395 415.622 237.395C414.77 237.395 414.225 238.042 414.14 238.962ZM358.832 261.456V262.546C358.832 263.892 359.667 264.335 360.331 264.335C361.302 264.335 362.12 263.517 362.12 261.848C362.12 260.213 361.49 259.531 360.485 259.531C359.65 259.531 358.832 260.196 358.832 261.456ZM358.849 264.727V269.224H356.567V257.896H358.509L358.798 259.412C359.275 258.151 360.297 257.709 361.388 257.709C363.312 257.709 364.42 259.139 364.42 261.643C364.42 264.233 363.176 265.97 361.047 265.97C359.837 265.97 359.071 265.391 358.849 264.727ZM371.483 257.726L371.227 260.247C370.938 260.144 370.699 260.11 370.341 260.11C369.439 260.11 368.331 260.553 368.331 262.172V265.766H366.049V257.896H368.025L368.297 260.059C368.638 258.697 369.404 257.606 371.483 257.726ZM375.841 265.97C373.541 265.97 372.025 264.471 372.025 261.814C372.025 259.139 373.541 257.709 375.841 257.709C378.124 257.709 379.64 259.139 379.64 261.814C379.64 264.471 378.124 265.97 375.841 265.97ZM375.841 259.531C374.785 259.531 374.274 260.264 374.274 261.814C374.274 263.449 374.768 264.199 375.841 264.199C376.897 264.199 377.391 263.449 377.391 261.814C377.391 260.264 376.88 259.531 375.841 259.531ZM386.124 263.534L386.516 265.459C385.852 265.8 385.034 265.97 384.097 265.97C382.53 265.97 381.508 265.238 381.508 263.432V259.651H380.367V257.896H381.525V256.227L383.808 255.954V257.896H386.141V259.651H383.791V262.921C383.791 263.756 384.114 264.028 384.745 264.028C385.239 264.028 385.664 263.858 386.124 263.534ZM391.062 265.97C388.762 265.97 387.246 264.471 387.246 261.814C387.246 259.139 388.762 257.709 391.062 257.709C393.344 257.709 394.861 259.139 394.861 261.814C394.861 264.471 393.344 265.97 391.062 265.97ZM391.062 259.531C390.006 259.531 389.495 260.264 389.495 261.814C389.495 263.449 389.989 264.199 391.062 264.199C392.118 264.199 392.612 263.449 392.612 261.814C392.612 260.264 392.101 259.531 391.062 259.531ZM401.345 263.534L401.737 265.459C401.073 265.8 400.255 265.97 399.318 265.97C397.751 265.97 396.729 265.238 396.729 263.432V259.651H395.588V257.896H396.746V256.227L399.029 255.954V257.896H401.362V259.651H399.012V262.921C399.012 263.756 399.335 264.028 399.966 264.028C400.46 264.028 400.885 263.858 401.345 263.534ZM404.509 257.896L405.531 261.473C405.974 263.023 406.076 264.011 406.076 264.011H406.145C406.145 264.011 406.247 263.006 406.707 261.49L407.797 257.896H410.199L407.081 266.464C406.196 268.9 405.105 269.309 403.487 269.309C403.027 269.309 402.499 269.224 402.073 269.121L402.414 267.111C402.704 267.282 403.061 267.384 403.453 267.384C404.169 267.384 404.611 267.077 404.935 266.209L402.022 257.896H404.509ZM413.578 261.456V262.546C413.578 263.892 414.412 264.335 415.077 264.335C416.048 264.335 416.865 263.517 416.865 261.848C416.865 260.213 416.235 259.531 415.23 259.531C414.395 259.531 413.578 260.196 413.578 261.456ZM413.595 264.727V269.224H411.312V257.896H413.254L413.544 259.412C414.021 258.151 415.043 257.709 416.133 257.709C418.058 257.709 419.165 259.139 419.165 261.643C419.165 264.233 417.921 265.97 415.792 265.97C414.583 265.97 413.816 265.391 413.595 264.727ZM424.133 264.216C424.746 264.216 425.257 263.977 425.513 263.142L427.454 263.807C427.046 265.408 425.632 265.97 424.082 265.97C421.833 265.97 420.283 264.488 420.283 261.95C420.283 259.242 421.748 257.709 424.116 257.709C426.347 257.709 427.437 259.174 427.437 261.201C427.437 261.541 427.403 261.899 427.335 262.223H422.481C422.532 263.432 423.094 264.216 424.133 264.216ZM422.549 260.962H425.257C425.274 260.86 425.274 260.792 425.274 260.69C425.274 259.957 424.848 259.395 424.031 259.395C423.179 259.395 422.634 260.042 422.549 260.962ZM428.345 263.943L430.219 263.194C430.389 264.045 431.002 264.369 431.752 264.369C432.382 264.369 432.825 264.148 432.825 263.688C432.825 263.245 432.518 263.04 431.82 262.87L430.662 262.597C429.282 262.24 428.652 261.456 428.652 260.264C428.652 258.271 430.236 257.709 431.854 257.709C433.728 257.709 434.852 258.39 434.971 259.923L432.842 260.23C432.757 259.599 432.399 259.395 431.752 259.395C431.224 259.395 430.866 259.633 430.866 260.042C430.866 260.434 431.105 260.656 431.633 260.758L432.74 260.996C434.341 261.337 435.091 262.189 435.091 263.534C435.091 265.289 433.643 265.97 431.718 265.97C429.776 265.97 428.652 265.425 428.345 263.943Z" fill="#363C65"/>
<path d="M219.735 352.94L220.961 352.718C220.944 354.03 221.694 354.575 222.954 354.575C224.232 354.575 225.049 354.013 225.049 352.769C225.049 351.73 224.589 351.27 223.21 350.742C221.983 350.265 220.927 349.737 220.927 348.051C220.927 345.853 222.869 345.155 224.266 345.155C226.208 345.155 227.298 345.853 227.298 347.795L226.02 348C226.054 346.824 225.407 346.177 224.164 346.177C223.005 346.177 222.188 346.807 222.188 347.863C222.188 348.919 222.818 349.175 224.061 349.686C225.526 350.299 226.395 350.964 226.395 352.599C226.395 354.694 224.743 355.597 222.818 355.597C220.825 355.597 219.735 354.779 219.735 352.94ZM231.787 354.115V355.205C231.31 355.478 230.696 355.597 230.237 355.597C228.908 355.597 228.192 354.881 228.499 353.212L229.317 348.562H228.226L228.414 347.523H229.521L229.811 345.87L231.122 345.683L230.799 347.523H232.86L232.672 348.562H230.628L229.777 353.348C229.623 354.183 229.981 354.507 230.441 354.507C230.918 354.507 231.242 354.421 231.787 354.115ZM238.664 352.105L238.903 350.776C239.107 349.584 238.613 348.357 237.353 348.357C235.786 348.357 234.627 349.976 234.627 352.224C234.627 353.553 235.206 354.524 236.365 354.524C237.557 354.524 238.409 353.604 238.664 352.105ZM240.777 347.523L239.686 353.706C239.618 354.098 239.635 354.473 240.129 354.473C240.265 354.473 240.419 354.456 240.623 354.404L240.453 355.341C240.214 355.426 239.925 355.478 239.635 355.478C238.784 355.478 238.341 354.984 238.409 354.081C237.932 355.154 236.995 355.597 236.007 355.597C234.491 355.597 233.367 354.456 233.367 352.377C233.367 349.686 234.917 347.335 237.233 347.335C238.324 347.335 239.073 347.812 239.278 348.851L239.703 347.523H240.777ZM247.614 352.156L247.869 350.776C248.074 349.601 247.614 348.357 246.336 348.357C244.718 348.357 243.577 350.01 243.577 352.241C243.577 353.57 244.122 354.524 245.297 354.524C246.541 354.524 247.358 353.638 247.614 352.156ZM249.726 347.523L248.295 355.648C247.886 357.913 246.779 358.987 244.48 358.987C242.384 358.987 241.601 357.965 241.465 356.806L242.623 356.414C242.691 357.317 243.389 358.033 244.565 358.033C246.03 358.033 246.694 357.181 246.984 355.699L247.29 354.115C246.813 355.188 245.996 355.58 244.991 355.58C243.458 355.58 242.316 354.439 242.316 352.36C242.316 349.686 243.9 347.335 246.234 347.335C247.324 347.335 248.023 347.812 248.227 348.851L248.653 347.523H249.726ZM253.951 354.592C255.126 354.592 255.603 354.098 255.892 353.246L257.068 353.536C256.489 355.137 255.364 355.597 253.831 355.597C251.941 355.597 250.833 354.268 250.833 352.258C250.833 349.056 252.775 347.335 254.666 347.335C256.676 347.335 257.46 348.698 257.46 350.146C257.46 350.691 257.357 351.236 257.119 351.747H252.043C251.923 353.127 252.452 354.592 253.951 354.592ZM252.196 350.708H256.131C256.199 350.521 256.216 350.316 256.216 350.112C256.216 349.175 255.705 348.357 254.598 348.357C253.286 348.357 252.503 349.465 252.196 350.708ZM265.22 352.19V352.241C267.009 352.394 267.843 353.297 267.843 354.711C267.843 356.823 266.174 357.743 264.334 357.743C262.358 357.743 261.37 356.738 261.37 355.358L262.614 355.103C262.614 356.193 263.312 356.738 264.488 356.738C265.629 356.738 266.515 356.074 266.515 354.813C266.515 353.774 266.021 352.94 263.874 352.718L264.028 351.679C266.361 351.441 267.315 350.725 267.315 349.396C267.315 348.511 266.702 348.051 265.799 348.051C264.76 348.051 264.215 348.664 264.028 349.652L262.818 349.379C263.091 347.983 264.028 346.995 265.902 346.995C267.452 346.995 268.644 347.71 268.644 349.277C268.644 351.168 267.247 352.173 265.22 352.19Z" fill="#363C65"/>
<path d="M223.943 378.158H221.371C221.064 377.92 220.945 377.545 220.843 377.119L220.468 375.62C220.264 374.768 219.872 374.615 219.105 374.615H218.117V378.158H215.801V368.125H219.753C222.001 368.125 223.398 368.943 223.398 371.191C223.398 372.741 222.495 373.576 221.201 373.712V373.746C222.12 373.9 222.614 374.291 222.87 375.211L223.381 377.085C223.483 377.477 223.619 377.818 223.943 378.158ZM218.117 370.084V372.707H219.599C220.519 372.707 221.03 372.35 221.03 371.396C221.03 370.544 220.553 370.084 219.599 370.084H218.117ZM230.233 378.158L229.961 376.693C229.688 377.766 228.973 378.363 227.525 378.363C226.128 378.363 225.157 377.647 225.157 375.825V370.288H227.44V375.177C227.44 376.114 227.729 376.642 228.513 376.642C229.296 376.642 229.927 376.029 229.927 374.513V370.288H232.209V378.158H230.233ZM236.302 370.288L236.574 371.805C237 370.629 237.886 370.101 239.095 370.101C240.305 370.101 241.412 370.817 241.412 372.588V378.158H239.129V373.44C239.129 372.571 238.891 372.009 238.073 372.009C237.341 372.009 236.642 372.418 236.642 373.832V378.158H234.36V370.288H236.302ZM252.09 375.927L252.482 377.852C251.817 378.192 251 378.363 250.063 378.363C248.496 378.363 247.474 377.63 247.474 375.825V372.043H246.332V370.288H247.491V368.619L249.773 368.347V370.288H252.107V372.043H249.756V375.314C249.756 376.148 250.08 376.421 250.71 376.421C251.204 376.421 251.63 376.25 252.09 375.927ZM257.061 376.608C257.675 376.608 258.186 376.37 258.441 375.535L260.383 376.199C259.974 377.801 258.56 378.363 257.01 378.363C254.762 378.363 253.212 376.881 253.212 374.343C253.212 371.634 254.677 370.101 257.044 370.101C259.276 370.101 260.366 371.566 260.366 373.593C260.366 373.934 260.332 374.291 260.264 374.615H255.409C255.46 375.825 256.022 376.608 257.061 376.608ZM255.477 373.355H258.186C258.203 373.252 258.203 373.184 258.203 373.082C258.203 372.35 257.777 371.787 256.959 371.787C256.107 371.787 255.562 372.435 255.477 373.355ZM261.274 376.336L263.147 375.586C263.318 376.438 263.931 376.761 264.68 376.761C265.311 376.761 265.754 376.54 265.754 376.08C265.754 375.637 265.447 375.433 264.749 375.262L263.59 374.99C262.21 374.632 261.58 373.849 261.58 372.656C261.58 370.663 263.164 370.101 264.783 370.101C266.656 370.101 267.781 370.782 267.9 372.316L265.771 372.622C265.685 371.992 265.328 371.787 264.68 371.787C264.152 371.787 263.795 372.026 263.795 372.435C263.795 372.827 264.033 373.048 264.561 373.15L265.668 373.389C267.27 373.729 268.019 374.581 268.019 375.927C268.019 377.681 266.571 378.363 264.646 378.363C262.704 378.363 261.58 377.818 261.274 376.336ZM274.48 375.927L274.872 377.852C274.208 378.192 273.39 378.363 272.453 378.363C270.886 378.363 269.864 377.63 269.864 375.825V372.043H268.723V370.288H269.881V368.619L272.164 368.347V370.288H274.497V372.043H272.147V375.314C272.147 376.148 272.47 376.421 273.101 376.421C273.595 376.421 274.02 376.25 274.48 375.927Z" fill="#363C65"/>
<path d="M69.3172 218.547L70.5437 218.326C70.5267 219.637 71.2762 220.182 72.5367 220.182C73.8142 220.182 74.6319 219.62 74.6319 218.377C74.6319 217.338 74.172 216.878 72.7922 216.35C71.5657 215.873 70.5096 215.345 70.5096 213.658C70.5096 211.461 72.4515 210.762 73.8483 210.762C75.7902 210.762 76.8804 211.461 76.8804 213.403L75.6028 213.607C75.6369 212.432 74.9896 211.784 73.7461 211.784C72.5878 211.784 71.7702 212.415 71.7702 213.471C71.7702 214.527 72.4004 214.782 73.6439 215.294C75.1088 215.907 75.9776 216.571 75.9776 218.206C75.9776 220.302 74.3253 221.204 72.4004 221.204C70.4074 221.204 69.3172 220.387 69.3172 218.547ZM81.3691 219.722V220.813C80.8922 221.085 80.279 221.204 79.819 221.204C78.4904 221.204 77.7749 220.489 78.0816 218.82L78.8992 214.169H77.809L77.9964 213.13H79.1036L79.3932 211.478L80.7048 211.29L80.3812 213.13H82.4423L82.2549 214.169H80.2108L79.3591 218.956C79.2058 219.791 79.5635 220.114 80.0234 220.114C80.5004 220.114 80.8241 220.029 81.3691 219.722ZM88.2468 217.712L88.4853 216.384C88.6897 215.191 88.1957 213.965 86.9352 213.965C85.368 213.965 84.2097 215.583 84.2097 217.832C84.2097 219.16 84.7889 220.131 85.9472 220.131C87.1396 220.131 87.9913 219.211 88.2468 217.712ZM90.359 213.13L89.2688 219.314C89.2007 219.705 89.2177 220.08 89.7117 220.08C89.848 220.08 90.0013 220.063 90.2057 220.012L90.0354 220.949C89.7969 221.034 89.5073 221.085 89.2177 221.085C88.366 221.085 87.9232 220.591 87.9913 219.688C87.5143 220.761 86.5775 221.204 85.5895 221.204C84.0734 221.204 82.9492 220.063 82.9492 217.985C82.9492 215.294 84.4993 212.943 86.8159 212.943C87.9061 212.943 88.6556 213.42 88.86 214.459L89.2859 213.13H90.359ZM97.1964 217.763L97.4519 216.384C97.6563 215.208 97.1964 213.965 95.9188 213.965C94.3006 213.965 93.1593 215.617 93.1593 217.849C93.1593 219.177 93.7044 220.131 94.8797 220.131C96.1232 220.131 96.9408 219.245 97.1964 217.763ZM99.3086 213.13L97.8777 221.255C97.4689 223.521 96.3617 224.594 94.0621 224.594C91.9669 224.594 91.1833 223.572 91.047 222.414L92.2054 222.022C92.2735 222.925 92.9719 223.64 94.1473 223.64C95.6122 223.64 96.2765 222.789 96.5661 221.307L96.8727 219.722C96.3958 220.796 95.5781 221.187 94.5731 221.187C93.04 221.187 91.8988 220.046 91.8988 217.968C91.8988 215.294 93.4829 212.943 95.8166 212.943C96.9068 212.943 97.6052 213.42 97.8096 214.459L98.2354 213.13H99.3086ZM103.533 220.199C104.708 220.199 105.185 219.705 105.475 218.854L106.65 219.143C106.071 220.744 104.947 221.204 103.414 221.204C101.523 221.204 100.416 219.876 100.416 217.866C100.416 214.663 102.358 212.943 104.248 212.943C106.259 212.943 107.042 214.306 107.042 215.753C107.042 216.299 106.94 216.844 106.701 217.355H101.625C101.506 218.734 102.034 220.199 103.533 220.199ZM101.779 216.316H105.713C105.782 216.128 105.799 215.924 105.799 215.719C105.799 214.782 105.288 213.965 104.18 213.965C102.869 213.965 102.085 215.072 101.779 216.316ZM115.825 223.231L116.387 220.08H111.549L111.703 219.228L117.613 212.807H118.976L117.886 219.041H119.555L119.368 220.08H117.716L117.153 223.231H115.825ZM114.598 219.041H116.557L117.017 216.384C117.239 215.089 117.46 214.34 117.46 214.34H117.392C117.392 214.34 116.932 214.97 115.944 216.094L114.326 217.917C113.644 218.7 113.219 219.024 113.219 219.024V219.092C113.219 219.092 113.508 219.041 114.598 219.041Z" fill="#363C65"/>
<path d="M58.7241 233.733H61.0407V241.756H64.9586V243.766H58.7241V233.733ZM69.8423 242.216C70.4555 242.216 70.9665 241.977 71.2221 241.142L73.1639 241.807C72.7551 243.408 71.3413 243.97 69.7912 243.97C67.5427 243.97 65.9926 242.488 65.9926 239.95C65.9926 237.242 67.4575 235.709 69.8253 235.709C72.0567 235.709 73.1469 237.174 73.1469 239.201C73.1469 239.541 73.1128 239.899 73.0447 240.223H68.19C68.2411 241.432 68.8032 242.216 69.8423 242.216ZM68.2581 238.962H70.9665C70.9836 238.86 70.9836 238.792 70.9836 238.69C70.9836 237.957 70.5577 237.395 69.7401 237.395C68.8884 237.395 68.3433 238.042 68.2581 238.962ZM78.6874 241.296V240.495C77.0862 240.444 76.5241 240.87 76.5241 241.568C76.5241 242.028 76.8477 242.352 77.3928 242.352C77.989 242.352 78.6874 242.062 78.6874 241.296ZM80.9359 238.315V241.381C80.9359 241.909 81.1573 242.096 81.515 242.096C81.7024 242.096 81.8557 242.045 82.009 241.977V243.629C81.6854 243.834 81.2595 243.919 80.7144 243.919C79.7094 243.919 79.0962 243.527 78.8407 242.676C78.483 243.647 77.6313 243.97 76.5581 243.97C75.1613 243.97 74.2415 243.153 74.2415 241.807C74.2415 240.052 75.6553 239.098 78.6874 239.269V238.519C78.6874 237.838 78.3978 237.429 77.7675 237.429C77.1373 237.429 76.8136 237.855 76.7796 238.587L74.514 238.162C74.6333 236.492 76.0471 235.709 77.8527 235.709C79.8116 235.709 80.9359 236.56 80.9359 238.315ZM88.8052 235.726L88.5497 238.247C88.2602 238.144 88.0217 238.11 87.664 238.11C86.7612 238.11 85.6539 238.553 85.6539 240.172V243.766H83.3714V235.896H85.3473L85.6199 238.059C85.9606 236.697 86.7271 235.606 88.8052 235.726ZM92.0171 235.896L92.2897 237.412C92.7155 236.237 93.6013 235.709 94.8107 235.709C96.0201 235.709 97.1273 236.424 97.1273 238.196V243.766H94.8448V239.047C94.8448 238.179 94.6063 237.616 93.7887 237.616C93.0562 237.616 92.3578 238.025 92.3578 239.439V243.766H90.0752V235.896H92.0171ZM106.8 241.296V240.495C105.199 240.444 104.637 240.87 104.637 241.568C104.637 242.028 104.961 242.352 105.506 242.352C106.102 242.352 106.8 242.062 106.8 241.296ZM109.049 238.315V241.381C109.049 241.909 109.27 242.096 109.628 242.096C109.815 242.096 109.969 242.045 110.122 241.977V243.629C109.798 243.834 109.372 243.919 108.827 243.919C107.822 243.919 107.209 243.527 106.954 242.676C106.596 243.647 105.744 243.97 104.671 243.97C103.274 243.97 102.354 243.153 102.354 241.807C102.354 240.052 103.768 239.098 106.8 239.269V238.519C106.8 237.838 106.511 237.429 105.88 237.429C105.25 237.429 104.927 237.855 104.892 238.587L102.627 238.162C102.746 236.492 104.16 235.709 105.966 235.709C107.925 235.709 109.049 236.56 109.049 238.315ZM113.426 235.896L113.699 237.412C114.125 236.237 115.01 235.709 116.22 235.709C117.429 235.709 118.536 236.424 118.536 238.196V243.766H116.254V239.047C116.254 238.179 116.015 237.616 115.198 237.616C114.465 237.616 113.767 238.025 113.767 239.439V243.766H111.484V235.896H113.426ZM125.676 240.495V239.03C125.676 237.872 124.927 237.395 124.143 237.395C123.24 237.395 122.372 238.042 122.372 239.899C122.372 241.381 123.036 242.216 124.109 242.216C124.893 242.216 125.676 241.636 125.676 240.495ZM125.659 236.935V232.387H127.942V243.766H125.966L125.676 242.403C125.387 243.595 124.399 243.97 123.223 243.97C121.486 243.97 120.089 242.59 120.089 240.001C120.089 237.31 121.35 235.709 123.598 235.709C124.603 235.709 125.455 236.186 125.659 236.935ZM76.8326 263.296V262.495C75.2314 262.444 74.6693 262.87 74.6693 263.568C74.6693 264.028 74.9929 264.352 75.538 264.352C76.1342 264.352 76.8326 264.062 76.8326 263.296ZM79.0811 260.315V263.381C79.0811 263.909 79.3025 264.096 79.6603 264.096C79.8476 264.096 80.0009 264.045 80.1542 263.977V265.629C79.8306 265.834 79.4047 265.919 78.8597 265.919C77.8546 265.919 77.2414 265.527 76.9859 264.676C76.6282 265.647 75.7765 265.97 74.7033 265.97C73.3065 265.97 72.3867 265.153 72.3867 263.807C72.3867 262.052 73.8005 261.098 76.8326 261.269V260.519C76.8326 259.838 76.543 259.429 75.9128 259.429C75.2825 259.429 74.9588 259.855 74.9248 260.587L72.6592 260.162C72.7785 258.492 74.1923 257.709 75.9979 257.709C77.9568 257.709 79.0811 258.56 79.0811 260.315ZM86.5927 262.495V261.03C86.5927 259.872 85.8432 259.395 85.0597 259.395C84.1569 259.395 83.2881 260.042 83.2881 261.899C83.2881 263.381 83.9525 264.216 85.0256 264.216C85.8092 264.216 86.5927 263.636 86.5927 262.495ZM86.5757 258.935V254.387H88.8583V265.766H86.8823L86.5927 264.403C86.3032 265.595 85.3152 265.97 84.1398 265.97C82.4024 265.97 81.0056 264.59 81.0056 262.001C81.0056 259.31 82.2661 257.709 84.5146 257.709C85.5196 257.709 86.3713 258.186 86.5757 258.935ZM94.8482 263.296V262.495C93.247 262.444 92.6848 262.87 92.6848 263.568C92.6848 264.028 93.0085 264.352 93.5536 264.352C94.1498 264.352 94.8482 264.062 94.8482 263.296ZM97.0967 260.315V263.381C97.0967 263.909 97.3181 264.096 97.6758 264.096C97.8632 264.096 98.0165 264.045 98.1698 263.977V265.629C97.8462 265.834 97.4203 265.919 96.8752 265.919C95.8702 265.919 95.257 265.527 95.0015 264.676C94.6438 265.647 93.7921 265.97 92.7189 265.97C91.3221 265.97 90.4023 265.153 90.4023 263.807C90.4023 262.052 91.8161 261.098 94.8482 261.269V260.519C94.8482 259.838 94.5586 259.429 93.9283 259.429C93.2981 259.429 92.9744 259.855 92.9403 260.587L90.6748 260.162C90.794 258.492 92.2079 257.709 94.0135 257.709C95.9724 257.709 97.0967 258.56 97.0967 260.315ZM101.798 261.456V262.546C101.798 263.892 102.632 264.335 103.297 264.335C104.268 264.335 105.085 263.517 105.085 261.848C105.085 260.213 104.455 259.531 103.45 259.531C102.615 259.531 101.798 260.196 101.798 261.456ZM101.815 264.727V269.224H99.5321V257.896H101.474L101.764 259.412C102.241 258.151 103.263 257.709 104.353 257.709C106.278 257.709 107.385 259.139 107.385 261.643C107.385 264.233 106.141 265.97 104.012 265.97C102.803 265.97 102.036 265.391 101.815 264.727ZM113.869 263.534L114.261 265.459C113.596 265.8 112.779 265.97 111.842 265.97C110.275 265.97 109.252 265.238 109.252 263.432V259.651H108.111V257.896H109.27V256.227L111.552 255.954V257.896H113.886V259.651H111.535V262.921C111.535 263.756 111.859 264.028 112.489 264.028C112.983 264.028 113.409 263.858 113.869 263.534Z" fill="#363C65"/>
<path d="M219.785 211.15L221.011 210.928C220.994 212.24 221.744 212.785 223.004 212.785C224.282 212.785 225.1 212.223 225.1 210.979C225.1 209.94 224.64 209.48 223.26 208.952C222.034 208.475 220.977 207.947 220.977 206.261C220.977 204.063 222.919 203.365 224.316 203.365C226.258 203.365 227.348 204.063 227.348 206.005L226.071 206.21C226.105 205.034 225.457 204.387 224.214 204.387C223.056 204.387 222.238 205.017 222.238 206.073C222.238 207.13 222.868 207.385 224.112 207.896C225.577 208.509 226.445 209.174 226.445 210.809C226.445 212.904 224.793 213.807 222.868 213.807C220.875 213.807 219.785 212.989 219.785 211.15ZM231.837 212.325V213.415C231.36 213.688 230.747 213.807 230.287 213.807C228.958 213.807 228.243 213.091 228.549 211.422L229.367 206.772H228.277L228.464 205.733H229.571L229.861 204.08L231.173 203.893L230.849 205.733H232.91L232.723 206.772H230.679L229.827 211.558C229.674 212.393 230.031 212.717 230.491 212.717C230.968 212.717 231.292 212.632 231.837 212.325ZM238.715 210.315L238.953 208.986C239.157 207.794 238.663 206.567 237.403 206.567C235.836 206.567 234.677 208.186 234.677 210.434C234.677 211.763 235.257 212.734 236.415 212.734C237.607 212.734 238.459 211.814 238.715 210.315ZM240.827 205.733L239.737 211.916C239.668 212.308 239.686 212.683 240.18 212.683C240.316 212.683 240.469 212.666 240.673 212.614L240.503 213.551C240.265 213.637 239.975 213.688 239.686 213.688C238.834 213.688 238.391 213.194 238.459 212.291C237.982 213.364 237.045 213.807 236.057 213.807C234.541 213.807 233.417 212.666 233.417 210.587C233.417 207.896 234.967 205.545 237.284 205.545C238.374 205.545 239.123 206.022 239.328 207.061L239.754 205.733H240.827ZM247.664 210.366L247.92 208.986C248.124 207.811 247.664 206.567 246.387 206.567C244.768 206.567 243.627 208.22 243.627 210.451C243.627 211.78 244.172 212.734 245.347 212.734C246.591 212.734 247.409 211.848 247.664 210.366ZM249.776 205.733L248.345 213.858C247.937 216.124 246.829 217.197 244.53 217.197C242.435 217.197 241.651 216.175 241.515 215.016L242.673 214.625C242.741 215.527 243.44 216.243 244.615 216.243C246.08 216.243 246.744 215.391 247.034 213.909L247.34 212.325C246.864 213.398 246.046 213.79 245.041 213.79C243.508 213.79 242.367 212.649 242.367 210.57C242.367 207.896 243.951 205.545 246.284 205.545C247.375 205.545 248.073 206.022 248.277 207.061L248.703 205.733H249.776ZM254.001 212.802C255.176 212.802 255.653 212.308 255.943 211.456L257.118 211.746C256.539 213.347 255.415 213.807 253.882 213.807C251.991 213.807 250.884 212.478 250.884 210.468C250.884 207.266 252.825 205.545 254.716 205.545C256.726 205.545 257.51 206.908 257.51 208.356C257.51 208.901 257.408 209.446 257.169 209.957H252.093C251.974 211.337 252.502 212.802 254.001 212.802ZM252.246 208.918H256.181C256.249 208.731 256.266 208.526 256.266 208.322C256.266 207.385 255.755 206.567 254.648 206.567C253.336 206.567 252.553 207.675 252.246 208.918ZM263.039 210.877L264.197 205.409H269.154L268.967 206.516H265.168L264.385 210.059C264.691 209.787 265.168 209.599 265.764 209.599C267.417 209.599 268.286 210.86 268.268 212.291C268.251 214.693 266.599 215.953 264.521 215.953C262.63 215.953 261.676 214.965 261.676 213.568L262.92 213.296C262.92 214.454 263.601 214.948 264.691 214.948C265.799 214.948 266.957 214.233 266.957 212.478C266.957 211.32 266.344 210.536 265.219 210.536C264.742 210.536 264.368 210.673 264.078 210.877H263.039Z" fill="white"/>
<path d="M217.412 226.335L219.099 231.735C219.541 233.149 219.678 234.409 219.678 234.409H219.746C219.746 234.409 219.865 233.132 220.291 231.752L221.926 226.335H224.345L221.04 236.368H218.247L214.942 226.335H217.412ZM229.06 233.898V233.098C227.459 233.047 226.897 233.473 226.897 234.171C226.897 234.631 227.22 234.954 227.766 234.954C228.362 234.954 229.06 234.665 229.06 233.898ZM231.309 230.917V233.984C231.309 234.512 231.53 234.699 231.888 234.699C232.075 234.699 232.229 234.648 232.382 234.58V236.232C232.058 236.436 231.632 236.522 231.087 236.522C230.082 236.522 229.469 236.13 229.213 235.278C228.856 236.249 228.004 236.573 226.931 236.573C225.534 236.573 224.614 235.755 224.614 234.409C224.614 232.655 226.028 231.701 229.06 231.871V231.122C229.06 230.44 228.771 230.032 228.14 230.032C227.51 230.032 227.186 230.457 227.152 231.19L224.887 230.764C225.006 229.095 226.42 228.311 228.226 228.311C230.184 228.311 231.309 229.163 231.309 230.917ZM237.202 234.409L237.083 236.317C236.64 236.436 236.214 236.522 235.771 236.522C234.63 236.522 233.591 235.994 233.591 234.512V224.99H235.873V233.847C235.873 234.341 236.18 234.529 236.589 234.529C236.793 234.529 236.998 234.495 237.202 234.409ZM238.43 226.097C238.43 225.228 239.043 224.768 239.809 224.768C240.61 224.768 241.223 225.228 241.223 226.097C241.223 226.931 240.61 227.391 239.809 227.391C239.043 227.391 238.43 226.931 238.43 226.097ZM238.668 228.499H240.951V236.368H238.668V228.499ZM248.169 233.098V231.633C248.169 230.475 247.42 229.998 246.636 229.998C245.733 229.998 244.865 230.645 244.865 232.502C244.865 233.984 245.529 234.818 246.602 234.818C247.386 234.818 248.169 234.239 248.169 233.098ZM248.152 229.538V224.99H250.435V236.368H248.459L248.169 235.006C247.88 236.198 246.892 236.573 245.716 236.573C243.979 236.573 242.582 235.193 242.582 232.604C242.582 229.912 243.842 228.311 246.091 228.311C247.096 228.311 247.948 228.788 248.152 229.538ZM256.425 233.898V233.098C254.823 233.047 254.261 233.473 254.261 234.171C254.261 234.631 254.585 234.954 255.13 234.954C255.726 234.954 256.425 234.665 256.425 233.898ZM258.673 230.917V233.984C258.673 234.512 258.894 234.699 259.252 234.699C259.44 234.699 259.593 234.648 259.746 234.58V236.232C259.423 236.436 258.997 236.522 258.452 236.522C257.447 236.522 256.833 236.13 256.578 235.278C256.22 236.249 255.368 236.573 254.295 236.573C252.898 236.573 251.979 235.755 251.979 234.409C251.979 232.655 253.392 231.701 256.425 231.871V231.122C256.425 230.44 256.135 230.032 255.505 230.032C254.874 230.032 254.551 230.457 254.517 231.19L252.251 230.764C252.37 229.095 253.784 228.311 255.59 228.311C257.549 228.311 258.673 229.163 258.673 230.917ZM265.963 234.137L266.355 236.062C265.691 236.402 264.873 236.573 263.936 236.573C262.369 236.573 261.347 235.84 261.347 234.035V230.253H260.206V228.499H261.364V226.829L263.647 226.557V228.499H265.98V230.253H263.63V233.524C263.63 234.358 263.953 234.631 264.583 234.631C265.077 234.631 265.503 234.46 265.963 234.137ZM270.935 234.818C271.548 234.818 272.059 234.58 272.315 233.745L274.256 234.409C273.848 236.011 272.434 236.573 270.884 236.573C268.635 236.573 267.085 235.091 267.085 232.553C267.085 229.844 268.55 228.311 270.918 228.311C273.149 228.311 274.239 229.776 274.239 231.803C274.239 232.144 274.205 232.502 274.137 232.825H269.283C269.334 234.035 269.896 234.818 270.935 234.818ZM269.351 231.565H272.059C272.076 231.462 272.076 231.394 272.076 231.292C272.076 230.56 271.65 229.998 270.833 229.998C269.981 229.998 269.436 230.645 269.351 231.565ZM207.467 256.137L207.859 258.062C207.194 258.402 206.377 258.573 205.44 258.573C203.873 258.573 202.85 257.84 202.85 256.035V252.253H201.709V250.499H202.868V248.829L205.15 248.557V250.499H207.484V252.253H205.133V255.524C205.133 256.358 205.457 256.631 206.087 256.631C206.581 256.631 207.007 256.46 207.467 256.137ZM211.465 246.99V251.998C211.874 250.839 212.709 250.311 213.918 250.311C215.128 250.311 216.235 251.027 216.235 252.798V258.368H213.952V253.65C213.952 252.781 213.714 252.219 212.896 252.219C212.164 252.219 211.465 252.628 211.465 254.025V258.368H209.183V246.99H211.465ZM221.637 256.818C222.251 256.818 222.762 256.58 223.017 255.745L224.959 256.409C224.55 258.011 223.136 258.573 221.586 258.573C219.338 258.573 217.788 257.091 217.788 254.553C217.788 251.844 219.253 250.311 221.62 250.311C223.852 250.311 224.942 251.776 224.942 253.803C224.942 254.144 224.908 254.502 224.84 254.825H219.985C220.036 256.035 220.598 256.818 221.637 256.818ZM220.053 253.565H222.762C222.779 253.462 222.779 253.394 222.779 253.292C222.779 252.56 222.353 251.998 221.535 251.998C220.683 251.998 220.138 252.645 220.053 253.565ZM232.641 253.991V255.149C232.641 256.495 233.476 256.937 234.14 256.937C235.111 256.937 235.929 256.12 235.929 254.45C235.929 252.815 235.298 252.134 234.293 252.134C233.459 252.134 232.641 252.798 232.641 253.991ZM232.539 257.227L231.977 258.368H230.376V246.99H232.658V251.963C233.084 250.771 234.072 250.311 235.196 250.311C237.121 250.311 238.228 251.742 238.228 254.246C238.228 256.835 237.002 258.573 234.873 258.573C233.527 258.573 232.777 257.977 232.539 257.227ZM243.196 256.818C243.809 256.818 244.32 256.58 244.576 255.745L246.518 256.409C246.109 258.011 244.695 258.573 243.145 258.573C240.897 258.573 239.346 257.091 239.346 254.553C239.346 251.844 240.811 250.311 243.179 250.311C245.411 250.311 246.501 251.776 246.501 253.803C246.501 254.144 246.467 254.502 246.399 254.825H241.544C241.595 256.035 242.157 256.818 243.196 256.818ZM241.612 253.565H244.32C244.337 253.462 244.337 253.394 244.337 253.292C244.337 252.56 243.912 251.998 243.094 251.998C242.242 251.998 241.697 252.645 241.612 253.565ZM250.117 250.499L250.389 252.015C250.815 250.839 251.701 250.311 252.91 250.311C254.12 250.311 255.227 251.027 255.227 252.798V258.368H252.944V253.65C252.944 252.781 252.706 252.219 251.888 252.219C251.156 252.219 250.457 252.628 250.457 254.042V258.368H248.175V250.499H250.117ZM260.63 256.818C261.243 256.818 261.754 256.58 262.009 255.745L263.951 256.409C263.542 258.011 262.129 258.573 260.578 258.573C258.33 258.573 256.78 257.091 256.78 254.553C256.78 251.844 258.245 250.311 260.612 250.311C262.844 250.311 263.934 251.776 263.934 253.803C263.934 254.144 263.9 254.502 263.832 254.825H258.977C259.028 256.035 259.59 256.818 260.63 256.818ZM259.045 253.565H261.754C261.771 253.462 261.771 253.394 261.771 253.292C261.771 252.56 261.345 251.998 260.527 251.998C259.676 251.998 259.131 252.645 259.045 253.565ZM265.881 252.253H264.722V250.499H265.881V249.988C265.881 247.586 267.72 246.853 269.356 246.853C270.344 246.853 271.144 247.075 271.792 247.432L271.008 249.272C270.616 248.983 270.054 248.778 269.509 248.778C268.828 248.778 268.146 249.051 268.146 250.056V250.499H272.848V258.368H270.565V252.253H268.146V258.368H265.881V252.253ZM279.845 256.137L280.237 258.062C279.572 258.402 278.755 258.573 277.818 258.573C276.251 258.573 275.229 257.84 275.229 256.035V252.253H274.088V250.499H275.246V248.829L277.528 248.557V250.499H279.862V252.253H277.511V255.524C277.511 256.358 277.835 256.631 278.465 256.631C278.959 256.631 279.385 256.46 279.845 256.137ZM280.795 256.546L282.668 255.796C282.839 256.648 283.452 256.972 284.201 256.972C284.832 256.972 285.275 256.75 285.275 256.29C285.275 255.847 284.968 255.643 284.27 255.473L283.111 255.2C281.731 254.842 281.101 254.059 281.101 252.866C281.101 250.873 282.685 250.311 284.304 250.311C286.177 250.311 287.302 250.993 287.421 252.526L285.292 252.832C285.206 252.202 284.849 251.998 284.201 251.998C283.673 251.998 283.316 252.236 283.316 252.645C283.316 253.037 283.554 253.258 284.082 253.36L285.189 253.599C286.791 253.939 287.54 254.791 287.54 256.137C287.54 257.891 286.092 258.573 284.167 258.573C282.225 258.573 281.101 258.028 280.795 256.546Z" fill="white"/>
<rect x="2.67665" y="241.5" width="337.747" height="337.747" transform="rotate(-45 2.67665 241.5)" stroke="#EBECF6" stroke-width="3.78536"/>
</svg>
