<svg width="678" height="679" viewBox="0 0 678 679" fill="none" xmlns="http://www.w3.org/2000/svg">
<path d="M175 169.5L509.5 505M169.5 505L503.5 169.5" stroke="#EBECF6" stroke-width="3"/>
<path d="M338.906 222.5L455.32 339.086L338.906 455.5L222.492 339.086L338.906 222.5Z" fill="#36539B"/>
<path d="M309.117 121.732H302.045L302.929 116.74H309.195L309.507 114.972H303.241L304.125 109.954H311.197L311.509 108.186H302.357L299.679 123.5H308.831L309.117 121.732ZM316.825 121.55C315.993 122.018 315.499 122.148 314.771 122.148C314.069 122.148 313.523 121.654 313.757 120.38L315.057 113.074H318.177L318.463 111.488H315.317L315.811 108.68L313.809 108.966L313.367 111.488H311.677L311.391 113.074H313.055L311.807 120.172C311.339 122.72 312.431 123.812 314.459 123.812C315.161 123.812 316.097 123.63 316.825 123.214V121.55ZM326.543 118.482C326.153 120.77 324.853 122.174 323.033 122.174C321.265 122.174 320.381 120.692 320.381 118.664C320.381 115.232 322.149 112.762 324.541 112.762C326.465 112.762 327.219 114.634 326.907 116.454L326.543 118.482ZM329.767 111.488H328.129L327.479 113.516C327.167 111.93 326.023 111.202 324.359 111.202C320.823 111.202 318.457 114.79 318.457 118.898C318.457 122.07 320.173 123.812 322.487 123.812C323.995 123.812 325.425 123.136 326.153 121.498C326.049 122.876 326.725 123.63 328.025 123.63C328.467 123.63 328.909 123.552 329.273 123.422L329.533 121.992C329.221 122.07 328.987 122.096 328.779 122.096C328.025 122.096 327.999 121.524 328.103 120.926L329.767 111.488ZM334.509 116.558C334.899 114.322 336.485 112.814 338.279 112.814C339.917 112.814 340.801 114.114 340.801 116.142C340.801 119.444 339.293 122.174 336.745 122.174C334.717 122.174 333.781 120.354 334.093 118.898L334.509 116.558ZM333.651 121.524C333.911 122.798 335.107 123.812 336.901 123.812C340.567 123.812 342.855 120.432 342.855 116.142C342.855 112.97 341.451 111.202 338.929 111.202C337.187 111.202 335.809 112.06 334.977 113.802L335.185 111.488H333.469L330.427 128.778H332.377L333.651 121.524ZM347.339 116.558C347.729 114.322 349.315 112.814 351.109 112.814C352.747 112.814 353.631 114.114 353.631 116.142C353.631 119.444 352.123 122.174 349.575 122.174C347.547 122.174 346.611 120.354 346.923 118.898L347.339 116.558ZM346.481 121.524C346.741 122.798 347.937 123.812 349.731 123.812C353.397 123.812 355.685 120.432 355.685 116.142C355.685 112.97 354.281 111.202 351.759 111.202C350.017 111.202 348.639 112.06 347.807 113.802L348.015 111.488H346.299L343.257 128.778H345.207L346.481 121.524ZM361.754 122.278C359.466 122.278 358.66 120.042 358.842 117.936H366.59C366.954 117.156 367.11 116.324 367.11 115.492C367.11 113.282 365.914 111.202 362.846 111.202C359.96 111.202 356.996 113.828 356.996 118.716C356.996 121.784 358.686 123.812 361.572 123.812C363.912 123.812 365.628 123.11 366.512 120.666L364.718 120.224C364.276 121.524 363.548 122.278 361.754 122.278ZM359.076 116.35C359.544 114.452 360.74 112.762 362.742 112.762C364.432 112.762 365.212 114.01 365.212 115.44C365.212 115.752 365.186 116.064 365.082 116.35H359.076ZM377.317 123.5L379.553 110.786L373.651 111.982L373.339 113.646L377.135 112.944L375.289 123.5H377.317Z" fill="#363C65"/>
<path d="M326.927 154.5V142.725H331.027V139.775H319.552V142.725H323.577V154.5H326.927ZM336.19 152.225C334.665 152.225 333.84 151.075 333.765 149.3H340.89C340.99 148.825 341.04 148.3 341.04 147.8C341.04 144.825 339.44 142.675 336.165 142.675C332.69 142.675 330.54 144.925 330.54 148.9C330.54 152.625 332.815 154.8 336.115 154.8C338.39 154.8 340.465 153.975 341.065 151.625L338.215 150.65C337.84 151.875 337.09 152.225 336.19 152.225ZM333.865 147.45C333.99 146.1 334.79 145.15 336.04 145.15C337.24 145.15 337.865 145.975 337.865 147.05C337.865 147.2 337.865 147.3 337.84 147.45H333.865ZM341.872 151.825C342.322 154 343.972 154.8 346.822 154.8C349.647 154.8 351.772 153.8 351.772 151.225C351.772 149.25 350.672 148 348.322 147.5L346.697 147.15C345.922 147 345.572 146.675 345.572 146.1C345.572 145.5 346.097 145.15 346.872 145.15C347.822 145.15 348.347 145.45 348.472 146.375L351.597 145.925C351.422 143.675 349.772 142.675 347.022 142.675C344.647 142.675 342.322 143.5 342.322 146.425C342.322 148.175 343.247 149.325 345.272 149.85L346.972 150.25C347.997 150.5 348.447 150.8 348.447 151.45C348.447 152.125 347.797 152.45 346.872 152.45C345.772 152.45 344.872 151.975 344.622 150.725L341.872 151.825ZM360.755 151.225C360.08 151.7 359.455 151.95 358.73 151.95C357.805 151.95 357.33 151.55 357.33 150.325V145.525H360.78V142.95H357.355V140.1L354.005 140.5V142.95H352.305V145.525H353.98V151.075C353.98 153.725 355.48 154.8 357.78 154.8C359.155 154.8 360.355 154.55 361.33 154.05L360.755 151.225ZM285.088 185.5H288.763L292.963 173.95H289.538L287.863 179.225C287.288 181.075 287.038 182.95 287.038 182.95H286.938C286.938 182.95 286.738 181.1 286.163 179.2L284.588 173.95H281.038L285.088 185.5ZM298.827 185.8C302.177 185.8 304.402 183.6 304.402 179.7C304.402 175.775 302.177 173.675 298.827 173.675C295.452 173.675 293.227 175.775 293.227 179.7C293.227 183.6 295.452 185.8 298.827 185.8ZM298.827 176.35C300.352 176.35 301.102 177.425 301.102 179.7C301.102 182.1 300.377 183.2 298.827 183.2C297.252 183.2 296.527 182.1 296.527 179.7C296.527 177.425 297.277 176.35 298.827 176.35ZM314.27 173.7C311.22 173.525 310.095 175.125 309.595 177.125L309.195 173.95H306.295V185.5H309.645V180.225C309.645 177.85 311.27 177.2 312.595 177.2C313.12 177.2 313.47 177.25 313.895 177.4L314.27 173.7ZM318.959 179.075C318.959 177.325 320.159 176.35 321.384 176.35C322.859 176.35 323.784 177.35 323.784 179.75C323.784 182.2 322.584 183.4 321.159 183.4C320.184 183.4 318.959 182.75 318.959 180.775V179.075ZM318.809 183.825C319.159 184.925 320.259 185.8 322.234 185.8C325.359 185.8 327.159 183.25 327.159 179.45C327.159 175.775 325.534 173.675 322.709 173.675C321.059 173.675 319.609 174.35 318.984 176.1V168.8H315.634V185.5H317.984L318.809 183.825ZM333.95 183.225C332.425 183.225 331.6 182.075 331.525 180.3H338.65C338.75 179.825 338.8 179.3 338.8 178.8C338.8 175.825 337.2 173.675 333.925 173.675C330.45 173.675 328.3 175.925 328.3 179.9C328.3 183.625 330.575 185.8 333.875 185.8C336.15 185.8 338.225 184.975 338.825 182.625L335.975 181.65C335.6 182.875 334.85 183.225 333.95 183.225ZM331.625 178.45C331.75 177.1 332.55 176.15 333.8 176.15C335 176.15 335.625 176.975 335.625 178.05C335.625 178.2 335.625 178.3 335.6 178.45H331.625ZM348.732 173.7C345.682 173.525 344.557 175.125 344.057 177.125L343.657 173.95H340.757V185.5H344.107V180.225C344.107 177.85 345.732 177.2 347.057 177.2C347.582 177.2 347.932 177.25 348.357 177.4L348.732 173.7ZM354.678 183.225C353.153 183.225 352.328 182.075 352.253 180.3H359.378C359.478 179.825 359.528 179.3 359.528 178.8C359.528 175.825 357.928 173.675 354.653 173.675C351.178 173.675 349.028 175.925 349.028 179.9C349.028 183.625 351.303 185.8 354.603 185.8C356.878 185.8 358.953 184.975 359.553 182.625L356.703 181.65C356.328 182.875 355.578 183.225 354.678 183.225ZM352.353 178.45C352.478 177.1 353.278 176.15 354.528 176.15C355.728 176.15 356.353 176.975 356.353 178.05C356.353 178.2 356.353 178.3 356.328 178.45H352.353ZM361.135 170.425C361.135 171.65 362.035 172.325 363.16 172.325C364.335 172.325 365.235 171.65 365.235 170.425C365.235 169.15 364.335 168.475 363.16 168.475C362.035 168.475 361.135 169.15 361.135 170.425ZM361.485 173.95V185.5H364.835V173.95H361.485ZM374.604 182.225C373.929 182.7 373.304 182.95 372.579 182.95C371.654 182.95 371.179 182.55 371.179 181.325V176.525H374.629V173.95H371.204V171.1L367.854 171.5V173.95H366.154V176.525H367.829V182.075C367.829 184.725 369.329 185.8 371.629 185.8C373.004 185.8 374.204 185.55 375.179 185.05L374.604 182.225ZM381.401 183.225C379.876 183.225 379.051 182.075 378.976 180.3H386.101C386.201 179.825 386.251 179.3 386.251 178.8C386.251 175.825 384.651 173.675 381.376 173.675C377.901 173.675 375.751 175.925 375.751 179.9C375.751 183.625 378.026 185.8 381.326 185.8C383.601 185.8 385.676 184.975 386.276 182.625L383.426 181.65C383.051 182.875 382.301 183.225 381.401 183.225ZM379.076 178.45C379.201 177.1 380.001 176.15 381.251 176.15C382.451 176.15 383.076 176.975 383.076 178.05C383.076 178.2 383.076 178.3 383.051 178.45H379.076ZM391.058 173.95H388.208V185.5H391.558V179.15C391.558 177.075 392.583 176.475 393.658 176.475C394.858 176.475 395.208 177.3 395.208 178.575V185.5H398.558V177.325C398.558 174.725 396.933 173.675 395.158 173.675C393.383 173.675 392.083 174.45 391.458 176.175L391.058 173.95Z" fill="#363C65"/>
<path d="M307.373 310.732H300.301L301.185 305.74H307.451L307.763 303.972H301.497L302.381 298.954H309.453L309.765 297.186H300.613L297.935 312.5H307.087L307.373 310.732ZM315.081 310.55C314.249 311.018 313.755 311.148 313.027 311.148C312.325 311.148 311.779 310.654 312.013 309.38L313.313 302.074H316.433L316.719 300.488H313.573L314.067 297.68L312.065 297.966L311.623 300.488H309.933L309.647 302.074H311.311L310.063 309.172C309.595 311.72 310.687 312.812 312.715 312.812C313.417 312.812 314.353 312.63 315.081 312.214V310.55ZM324.799 307.482C324.409 309.77 323.109 311.174 321.289 311.174C319.521 311.174 318.637 309.692 318.637 307.664C318.637 304.232 320.405 301.762 322.797 301.762C324.721 301.762 325.475 303.634 325.163 305.454L324.799 307.482ZM328.023 300.488H326.385L325.735 302.516C325.423 300.93 324.279 300.202 322.615 300.202C319.079 300.202 316.713 303.79 316.713 307.898C316.713 311.07 318.429 312.812 320.743 312.812C322.251 312.812 323.681 312.136 324.409 310.498C324.305 311.876 324.981 312.63 326.281 312.63C326.723 312.63 327.165 312.552 327.529 312.422L327.789 310.992C327.477 311.07 327.243 311.096 327.035 311.096C326.281 311.096 326.255 310.524 326.359 309.926L328.023 300.488ZM332.765 305.558C333.155 303.322 334.741 301.814 336.535 301.814C338.173 301.814 339.057 303.114 339.057 305.142C339.057 308.444 337.549 311.174 335.001 311.174C332.973 311.174 332.037 309.354 332.349 307.898L332.765 305.558ZM331.907 310.524C332.167 311.798 333.363 312.812 335.157 312.812C338.823 312.812 341.111 309.432 341.111 305.142C341.111 301.97 339.707 300.202 337.185 300.202C335.443 300.202 334.065 301.06 333.233 302.802L333.441 300.488H331.725L328.683 317.778H330.633L331.907 310.524ZM345.594 305.558C345.984 303.322 347.57 301.814 349.364 301.814C351.002 301.814 351.886 303.114 351.886 305.142C351.886 308.444 350.378 311.174 347.83 311.174C345.802 311.174 344.866 309.354 345.178 307.898L345.594 305.558ZM344.736 310.524C344.996 311.798 346.192 312.812 347.986 312.812C351.652 312.812 353.94 309.432 353.94 305.142C353.94 301.97 352.536 300.202 350.014 300.202C348.272 300.202 346.894 301.06 346.062 302.802L346.27 300.488H344.554L341.512 317.778H343.462L344.736 310.524ZM360.01 311.278C357.722 311.278 356.916 309.042 357.098 306.936H364.846C365.21 306.156 365.366 305.324 365.366 304.492C365.366 302.282 364.17 300.202 361.102 300.202C358.216 300.202 355.252 302.828 355.252 307.716C355.252 310.784 356.942 312.812 359.828 312.812C362.168 312.812 363.884 312.11 364.768 309.666L362.974 309.224C362.532 310.524 361.804 311.278 360.01 311.278ZM357.332 305.35C357.8 303.452 358.996 301.762 360.998 301.762C362.688 301.762 363.468 303.01 363.468 304.44C363.468 304.752 363.442 305.064 363.338 305.35H357.332ZM372.245 308.34H373.831C374.273 308.028 374.845 307.82 375.573 307.82C377.289 307.82 378.225 309.016 378.225 310.784C378.225 313.462 376.457 314.554 374.767 314.554C373.103 314.554 372.063 313.8 372.063 312.032L370.165 312.448C370.165 314.58 371.621 316.088 374.507 316.088C377.679 316.088 380.201 314.164 380.227 310.498C380.253 308.314 378.927 306.39 376.405 306.39C375.495 306.39 374.767 306.676 374.299 307.092L375.495 301.684H381.293L381.579 299.994H374.013L372.245 308.34Z" fill="white"/>
<path d="M309.585 328.775H306.385V343.5H309.785V337.65C309.785 335.525 309.635 334.325 309.635 334.325H309.735C309.735 334.325 310.185 335.25 311.135 336.5L316.335 343.5H319.435V328.775H316.035V334.75C316.035 336.625 316.11 337.875 316.11 337.875H316.01C316.01 337.875 315.61 337.025 314.785 335.9L309.585 328.775ZM329.404 343.5H332.304V331.95H328.954V338.15C328.954 340.375 328.029 341.275 326.879 341.275C325.729 341.275 325.304 340.5 325.304 339.125V331.95H321.954V340.075C321.954 342.75 323.379 343.8 325.429 343.8C327.554 343.8 328.604 342.925 329.004 341.35L329.404 343.5ZM341.836 340.225C341.161 340.7 340.536 340.95 339.811 340.95C338.886 340.95 338.411 340.55 338.411 339.325V334.525H341.861V331.95H338.436V329.1L335.086 329.5V331.95H333.386V334.525H335.061V340.075C335.061 342.725 336.561 343.8 338.861 343.8C340.236 343.8 341.436 343.55 342.411 343.05L341.836 340.225ZM351.779 334.05V331.95H342.929V334.6H345.879C347.179 334.6 347.879 334.475 347.879 334.475V334.575C347.879 334.575 347.204 335.175 346.304 336.4L342.729 341.475V343.5H352.004V340.9H348.479C347.204 340.9 346.479 341.025 346.479 341.025V340.925C346.479 340.925 347.154 340.325 348.054 339.1L351.779 334.05ZM358.179 341.225C356.654 341.225 355.829 340.075 355.754 338.3H362.879C362.979 337.825 363.029 337.3 363.029 336.8C363.029 333.825 361.429 331.675 358.154 331.675C354.679 331.675 352.529 333.925 352.529 337.9C352.529 341.625 354.804 343.8 358.104 343.8C360.379 343.8 362.454 342.975 363.054 340.625L360.204 339.65C359.829 340.875 359.079 341.225 358.179 341.225ZM355.854 336.45C355.979 335.1 356.779 334.15 358.029 334.15C359.229 334.15 359.854 334.975 359.854 336.05C359.854 336.2 359.854 336.3 359.829 336.45H355.854ZM367.586 331.95H364.736V343.5H368.086V337.15C368.086 335.075 369.111 334.475 370.186 334.475C371.386 334.475 371.736 335.3 371.736 336.575V343.5H375.086V335.325C375.086 332.725 373.461 331.675 371.686 331.675C369.911 331.675 368.611 332.45 367.986 334.175L367.586 331.95ZM295.07 374.5H298.745L302.945 362.95H299.52L297.845 368.225C297.27 370.075 297.02 371.95 297.02 371.95H296.92C296.92 371.95 296.72 370.1 296.145 368.2L294.57 362.95H291.02L295.07 374.5ZM309.286 370.875C309.286 372 308.261 372.425 307.386 372.425C306.586 372.425 306.111 371.95 306.111 371.275C306.111 370.25 306.936 369.625 309.286 369.7V370.875ZM312.586 366.5C312.586 363.925 310.936 362.675 308.061 362.675C305.411 362.675 303.336 363.825 303.161 366.275L306.486 366.9C306.536 365.825 307.011 365.2 307.936 365.2C308.861 365.2 309.286 365.8 309.286 366.8V367.9C304.836 367.65 302.761 369.05 302.761 371.625C302.761 373.6 304.111 374.8 306.161 374.8C307.736 374.8 308.986 374.325 309.511 372.9C309.886 374.15 310.786 374.725 312.261 374.725C313.061 374.725 313.686 374.6 314.161 374.3V371.875C313.936 371.975 313.711 372.05 313.436 372.05C312.911 372.05 312.586 371.775 312.586 371V366.5ZM320.485 371.625C320.185 371.75 319.885 371.8 319.585 371.8C318.985 371.8 318.535 371.525 318.535 370.8V357.8H315.185V371.775C315.185 373.95 316.71 374.725 318.385 374.725C319.035 374.725 319.66 374.6 320.31 374.425L320.485 371.625ZM321.537 359.425C321.537 360.65 322.437 361.325 323.562 361.325C324.737 361.325 325.637 360.65 325.637 359.425C325.637 358.15 324.737 357.475 323.562 357.475C322.437 357.475 321.537 358.15 321.537 359.425ZM321.887 362.95V374.5H325.237V362.95H321.887ZM335.081 369.7C335.081 371.375 333.931 372.225 332.781 372.225C331.206 372.225 330.231 371 330.231 368.825C330.231 366.1 331.506 365.15 332.831 365.15C333.981 365.15 335.081 365.85 335.081 367.55V369.7ZM335.056 364.475C334.756 363.375 333.506 362.675 332.031 362.675C328.731 362.675 326.881 365.025 326.881 368.975C326.881 372.775 328.931 374.8 331.481 374.8C333.206 374.8 334.656 374.25 335.081 372.5L335.506 374.5H338.406V357.8H335.056V364.475ZM340.447 359.425C340.447 360.65 341.347 361.325 342.472 361.325C343.647 361.325 344.547 360.65 344.547 359.425C344.547 358.15 343.647 357.475 342.472 357.475C341.347 357.475 340.447 358.15 340.447 359.425ZM340.797 362.95V374.5H344.147V362.95H340.797ZM351.441 372.225C349.916 372.225 349.091 371.075 349.016 369.3H356.141C356.241 368.825 356.291 368.3 356.291 367.8C356.291 364.825 354.691 362.675 351.416 362.675C347.941 362.675 345.791 364.925 345.791 368.9C345.791 372.625 348.066 374.8 351.366 374.8C353.641 374.8 355.716 373.975 356.316 371.625L353.466 370.65C353.091 371.875 352.341 372.225 351.441 372.225ZM349.116 367.45C349.241 366.1 350.041 365.15 351.291 365.15C352.491 365.15 353.116 365.975 353.116 367.05C353.116 367.2 353.116 367.3 353.091 367.45H349.116ZM365.973 362.7C362.923 362.525 361.798 364.125 361.298 366.125L360.898 362.95H357.998V374.5H361.348V369.225C361.348 366.85 362.973 366.2 364.298 366.2C364.823 366.2 365.173 366.25 365.598 366.4L365.973 362.7ZM371.669 372.225C370.144 372.225 369.319 371.075 369.244 369.3H376.369C376.469 368.825 376.519 368.3 376.519 367.8C376.519 364.825 374.919 362.675 371.644 362.675C368.169 362.675 366.019 364.925 366.019 368.9C366.019 372.625 368.294 374.8 371.594 374.8C373.869 374.8 375.944 373.975 376.544 371.625L373.694 370.65C373.319 371.875 372.569 372.225 371.669 372.225ZM369.344 367.45C369.469 366.1 370.269 365.15 371.519 365.15C372.719 365.15 373.344 365.975 373.344 367.05C373.344 367.2 373.344 367.3 373.319 367.45H369.344ZM381.076 362.95H378.226V374.5H381.576V368.15C381.576 366.075 382.601 365.475 383.676 365.475C384.876 365.475 385.226 366.3 385.226 367.575V374.5H388.576V366.325C388.576 363.725 386.951 362.675 385.176 362.675C383.401 362.675 382.101 363.45 381.476 365.175L381.076 362.95Z" fill="white"/>
<path d="M505.373 310.732H498.301L499.185 305.74H505.451L505.763 303.972H499.497L500.381 298.954H507.453L507.765 297.186H498.613L495.935 312.5H505.087L505.373 310.732ZM513.081 310.55C512.249 311.018 511.755 311.148 511.027 311.148C510.325 311.148 509.779 310.654 510.013 309.38L511.313 302.074H514.433L514.719 300.488H511.573L512.067 297.68L510.065 297.966L509.623 300.488H507.933L507.647 302.074H509.311L508.063 309.172C507.595 311.72 508.687 312.812 510.715 312.812C511.417 312.812 512.353 312.63 513.081 312.214V310.55ZM522.799 307.482C522.409 309.77 521.109 311.174 519.289 311.174C517.521 311.174 516.637 309.692 516.637 307.664C516.637 304.232 518.405 301.762 520.797 301.762C522.721 301.762 523.475 303.634 523.163 305.454L522.799 307.482ZM526.023 300.488H524.385L523.735 302.516C523.423 300.93 522.279 300.202 520.615 300.202C517.079 300.202 514.713 303.79 514.713 307.898C514.713 311.07 516.429 312.812 518.743 312.812C520.251 312.812 521.681 312.136 522.409 310.498C522.305 311.876 522.981 312.63 524.281 312.63C524.723 312.63 525.165 312.552 525.529 312.422L525.789 310.992C525.477 311.07 525.243 311.096 525.035 311.096C524.281 311.096 524.255 310.524 524.359 309.926L526.023 300.488ZM530.765 305.558C531.155 303.322 532.741 301.814 534.535 301.814C536.173 301.814 537.057 303.114 537.057 305.142C537.057 308.444 535.549 311.174 533.001 311.174C530.973 311.174 530.037 309.354 530.349 307.898L530.765 305.558ZM529.907 310.524C530.167 311.798 531.363 312.812 533.157 312.812C536.823 312.812 539.111 309.432 539.111 305.142C539.111 301.97 537.707 300.202 535.185 300.202C533.443 300.202 532.065 301.06 531.233 302.802L531.441 300.488H529.725L526.683 317.778H528.633L529.907 310.524ZM543.594 305.558C543.984 303.322 545.57 301.814 547.364 301.814C549.002 301.814 549.886 303.114 549.886 305.142C549.886 308.444 548.378 311.174 545.83 311.174C543.802 311.174 542.866 309.354 543.178 307.898L543.594 305.558ZM542.736 310.524C542.996 311.798 544.192 312.812 545.986 312.812C549.652 312.812 551.94 309.432 551.94 305.142C551.94 301.97 550.536 300.202 548.014 300.202C546.272 300.202 544.894 301.06 544.062 302.802L544.27 300.488H542.554L539.512 317.778H541.462L542.736 310.524ZM558.01 311.278C555.722 311.278 554.916 309.042 555.098 306.936H562.846C563.21 306.156 563.366 305.324 563.366 304.492C563.366 302.282 562.17 300.202 559.102 300.202C556.216 300.202 553.252 302.828 553.252 307.716C553.252 310.784 554.942 312.812 557.828 312.812C560.168 312.812 561.884 312.11 562.768 309.666L560.974 309.224C560.532 310.524 559.804 311.278 558.01 311.278ZM555.332 305.35C555.8 303.452 556.996 301.762 558.998 301.762C560.688 301.762 561.468 303.01 561.468 304.44C561.468 304.752 561.442 305.064 561.338 305.35H555.332ZM578.149 310.836H571.311V310.732C574.327 309.926 578.799 307.326 578.799 303.504C578.799 300.982 577.239 299.682 574.691 299.682C573.001 299.682 570.375 300.41 570.115 303.712L571.961 304.102C571.961 302.048 573.183 301.372 574.483 301.372C575.913 301.372 576.719 302.178 576.719 303.556C576.719 306.468 573.807 308.6 568.945 310.94L568.685 312.5H577.863L578.149 310.836Z" fill="#363C65"/>
<path d="M486.968 331.625H488.718C490.143 331.625 490.793 332.35 490.793 333.875C490.793 335.25 490.193 335.975 488.718 335.975H486.968V331.625ZM486.968 343.5V338.75H489.143C492.318 338.75 494.168 336.875 494.168 333.75C494.168 330.5 492.593 328.775 488.818 328.775H483.568V343.5H486.968ZM503.974 331.7C500.924 331.525 499.799 333.125 499.299 335.125L498.899 331.95H495.999V343.5H499.349V338.225C499.349 335.85 500.974 335.2 502.299 335.2C502.824 335.2 503.174 335.25 503.599 335.4L503.974 331.7ZM509.871 343.8C513.221 343.8 515.446 341.6 515.446 337.7C515.446 333.775 513.221 331.675 509.871 331.675C506.496 331.675 504.271 333.775 504.271 337.7C504.271 341.6 506.496 343.8 509.871 343.8ZM509.871 334.35C511.396 334.35 512.146 335.425 512.146 337.7C512.146 340.1 511.421 341.2 509.871 341.2C508.296 341.2 507.571 340.1 507.571 337.7C507.571 335.425 508.321 334.35 509.871 334.35ZM524.463 340.225C523.788 340.7 523.163 340.95 522.438 340.95C521.513 340.95 521.038 340.55 521.038 339.325V334.525H524.488V331.95H521.063V329.1L517.713 329.5V331.95H516.013V334.525H517.688V340.075C517.688 342.725 519.188 343.8 521.488 343.8C522.863 343.8 524.063 343.55 525.038 343.05L524.463 340.225ZM531.21 343.8C534.56 343.8 536.785 341.6 536.785 337.7C536.785 333.775 534.56 331.675 531.21 331.675C527.835 331.675 525.61 333.775 525.61 337.7C525.61 341.6 527.835 343.8 531.21 343.8ZM531.21 334.35C532.735 334.35 533.485 335.425 533.485 337.7C533.485 340.1 532.76 341.2 531.21 341.2C529.635 341.2 528.91 340.1 528.91 337.7C528.91 335.425 529.66 334.35 531.21 334.35ZM545.802 340.225C545.127 340.7 544.502 340.95 543.777 340.95C542.852 340.95 542.377 340.55 542.377 339.325V334.525H545.827V331.95H542.402V329.1L539.052 329.5V331.95H537.352V334.525H539.027V340.075C539.027 342.725 540.527 343.8 542.827 343.8C544.202 343.8 545.402 343.55 546.377 343.05L545.802 340.225ZM549.946 331.95H546.296L550.571 344.15C550.096 345.425 549.446 345.875 548.396 345.875C547.821 345.875 547.296 345.725 546.871 345.475L546.371 348.425C546.996 348.575 547.771 348.7 548.446 348.7C550.821 348.7 552.421 348.1 553.721 344.525L558.296 331.95H554.771L553.171 337.225C552.496 339.45 552.346 340.925 552.346 340.925H552.246C552.246 340.925 552.096 339.475 551.446 337.2L549.946 331.95ZM562.755 337.175C562.755 335.325 563.955 334.35 565.18 334.35C566.655 334.35 567.58 335.35 567.58 337.75C567.58 340.2 566.38 341.4 564.955 341.4C563.98 341.4 562.755 340.75 562.755 338.775V337.175ZM562.78 341.975C563.105 342.95 564.23 343.8 566.005 343.8C569.13 343.8 570.955 341.25 570.955 337.45C570.955 333.775 569.33 331.675 566.505 331.675C564.905 331.675 563.405 332.325 562.705 334.175L562.28 331.95H559.43V348.575H562.78V341.975ZM577.746 341.225C576.221 341.225 575.396 340.075 575.321 338.3H582.446C582.546 337.825 582.596 337.3 582.596 336.8C582.596 333.825 580.996 331.675 577.721 331.675C574.246 331.675 572.096 333.925 572.096 337.9C572.096 341.625 574.371 343.8 577.671 343.8C579.946 343.8 582.021 342.975 582.621 340.625L579.771 339.65C579.396 340.875 578.646 341.225 577.746 341.225ZM575.421 336.45C575.546 335.1 576.346 334.15 577.596 334.15C578.796 334.15 579.421 334.975 579.421 336.05C579.421 336.2 579.421 336.3 579.396 336.45H575.421ZM587.403 331.95H584.553V343.5H587.903V337.15C587.903 335.075 588.928 334.475 590.003 334.475C591.203 334.475 591.553 335.3 591.553 336.575V343.5H594.903V335.325C594.903 332.725 593.278 331.675 591.503 331.675C589.728 331.675 588.428 332.45 587.803 334.175L587.403 331.95ZM500.307 372.225C498.782 372.225 497.957 371.075 497.882 369.3H505.007C505.107 368.825 505.157 368.3 505.157 367.8C505.157 364.825 503.557 362.675 500.282 362.675C496.807 362.675 494.657 364.925 494.657 368.9C494.657 372.625 496.932 374.8 500.232 374.8C502.507 374.8 504.582 373.975 505.182 371.625L502.332 370.65C501.957 371.875 501.207 372.225 500.307 372.225ZM497.982 367.45C498.107 366.1 498.907 365.15 500.157 365.15C501.357 365.15 501.982 365.975 501.982 367.05C501.982 367.2 501.982 367.3 501.957 367.45H497.982ZM515.089 362.7C512.039 362.525 510.914 364.125 510.414 366.125L510.014 362.95H507.114V374.5H510.464V369.225C510.464 366.85 512.089 366.2 513.414 366.2C513.939 366.2 514.289 366.25 514.714 366.4L515.089 362.7ZM514.962 371.825C515.412 374 517.062 374.8 519.912 374.8C522.737 374.8 524.862 373.8 524.862 371.225C524.862 369.25 523.762 368 521.412 367.5L519.787 367.15C519.012 367 518.662 366.675 518.662 366.1C518.662 365.5 519.187 365.15 519.962 365.15C520.912 365.15 521.437 365.45 521.562 366.375L524.687 365.925C524.512 363.675 522.862 362.675 520.112 362.675C517.737 362.675 515.412 363.5 515.412 366.425C515.412 368.175 516.337 369.325 518.362 369.85L520.062 370.25C521.087 370.5 521.537 370.8 521.537 371.45C521.537 372.125 520.887 372.45 519.962 372.45C518.862 372.45 517.962 371.975 517.712 370.725L514.962 371.825ZM533.845 371.225C533.17 371.7 532.545 371.95 531.82 371.95C530.895 371.95 530.42 371.55 530.42 370.325V365.525H533.87V362.95H530.445V360.1L527.095 360.5V362.95H525.395V365.525H527.07V371.075C527.07 373.725 528.57 374.8 530.87 374.8C532.245 374.8 533.445 374.55 534.42 374.05L533.845 371.225ZM540.641 372.225C539.116 372.225 538.291 371.075 538.216 369.3H545.341C545.441 368.825 545.491 368.3 545.491 367.8C545.491 364.825 543.891 362.675 540.616 362.675C537.141 362.675 534.991 364.925 534.991 368.9C534.991 372.625 537.266 374.8 540.566 374.8C542.841 374.8 544.916 373.975 545.516 371.625L542.666 370.65C542.291 371.875 541.541 372.225 540.641 372.225ZM538.316 367.45C538.441 366.1 539.241 365.15 540.491 365.15C541.691 365.15 542.316 365.975 542.316 367.05C542.316 367.2 542.316 367.3 542.291 367.45H538.316ZM552.523 371.625C552.223 371.75 551.923 371.8 551.623 371.8C551.023 371.8 550.573 371.525 550.573 370.8V357.8H547.223V371.775C547.223 373.95 548.748 374.725 550.423 374.725C551.073 374.725 551.698 374.6 552.348 374.425L552.523 371.625ZM559.25 371.625C558.95 371.75 558.65 371.8 558.35 371.8C557.75 371.8 557.3 371.525 557.3 370.8V357.8H553.95V371.775C553.95 373.95 555.475 374.725 557.15 374.725C557.8 374.725 558.425 374.6 559.075 374.425L559.25 371.625ZM565.557 372.225C564.032 372.225 563.207 371.075 563.132 369.3H570.257C570.357 368.825 570.407 368.3 570.407 367.8C570.407 364.825 568.807 362.675 565.532 362.675C562.057 362.675 559.907 364.925 559.907 368.9C559.907 372.625 562.182 374.8 565.482 374.8C567.757 374.8 569.832 373.975 570.432 371.625L567.582 370.65C567.207 371.875 566.457 372.225 565.557 372.225ZM563.232 367.45C563.357 366.1 564.157 365.15 565.407 365.15C566.607 365.15 567.232 365.975 567.232 367.05C567.232 367.2 567.232 367.3 567.207 367.45H563.232ZM575.214 362.95H572.364V374.5H575.714V368.15C575.714 366.075 576.739 365.475 577.814 365.475C579.014 365.475 579.364 366.3 579.364 367.575V374.5H582.714V366.325C582.714 363.725 581.089 362.675 579.314 362.675C577.539 362.675 576.239 363.45 575.614 365.175L575.214 362.95Z" fill="#363C65"/>
<path d="M109.319 310.732H102.247L103.131 305.74H109.397L109.709 303.972H103.443L104.327 298.954H111.399L111.711 297.186H102.559L99.8813 312.5H109.033L109.319 310.732ZM117.028 310.55C116.196 311.018 115.702 311.148 114.974 311.148C114.272 311.148 113.726 310.654 113.96 309.38L115.26 302.074H118.38L118.666 300.488H115.52L116.014 297.68L114.012 297.966L113.57 300.488H111.88L111.594 302.074H113.258L112.01 309.172C111.542 311.72 112.634 312.812 114.662 312.812C115.364 312.812 116.3 312.63 117.028 312.214V310.55ZM126.745 307.482C126.355 309.77 125.055 311.174 123.235 311.174C121.467 311.174 120.583 309.692 120.583 307.664C120.583 304.232 122.351 301.762 124.743 301.762C126.667 301.762 127.421 303.634 127.109 305.454L126.745 307.482ZM129.969 300.488H128.331L127.681 302.516C127.369 300.93 126.225 300.202 124.561 300.202C121.025 300.202 118.659 303.79 118.659 307.898C118.659 311.07 120.375 312.812 122.689 312.812C124.197 312.812 125.627 312.136 126.355 310.498C126.251 311.876 126.927 312.63 128.227 312.63C128.669 312.63 129.111 312.552 129.475 312.422L129.735 310.992C129.423 311.07 129.189 311.096 128.981 311.096C128.227 311.096 128.201 310.524 128.305 309.926L129.969 300.488ZM134.711 305.558C135.101 303.322 136.687 301.814 138.481 301.814C140.119 301.814 141.003 303.114 141.003 305.142C141.003 308.444 139.495 311.174 136.947 311.174C134.919 311.174 133.983 309.354 134.295 307.898L134.711 305.558ZM133.853 310.524C134.113 311.798 135.309 312.812 137.103 312.812C140.769 312.812 143.057 309.432 143.057 305.142C143.057 301.97 141.653 300.202 139.131 300.202C137.389 300.202 136.011 301.06 135.179 302.802L135.387 300.488H133.671L130.629 317.778H132.579L133.853 310.524ZM147.541 305.558C147.931 303.322 149.517 301.814 151.311 301.814C152.949 301.814 153.833 303.114 153.833 305.142C153.833 308.444 152.325 311.174 149.777 311.174C147.749 311.174 146.813 309.354 147.125 307.898L147.541 305.558ZM146.683 310.524C146.943 311.798 148.139 312.812 149.933 312.812C153.599 312.812 155.887 309.432 155.887 305.142C155.887 301.97 154.483 300.202 151.961 300.202C150.219 300.202 148.841 301.06 148.009 302.802L148.217 300.488H146.501L143.459 317.778H145.409L146.683 310.524ZM161.956 311.278C159.668 311.278 158.862 309.042 159.044 306.936H166.792C167.156 306.156 167.312 305.324 167.312 304.492C167.312 302.282 166.116 300.202 163.048 300.202C160.162 300.202 157.198 302.828 157.198 307.716C157.198 310.784 158.888 312.812 161.774 312.812C164.114 312.812 165.83 312.11 166.714 309.666L164.92 309.224C164.478 310.524 163.75 311.278 161.956 311.278ZM159.278 305.35C159.746 303.452 160.942 301.762 162.944 301.762C164.634 301.762 165.414 303.01 165.414 304.44C165.414 304.752 165.388 305.064 165.284 305.35H159.278ZM179.158 315.906H181.186L182.044 311.096H184.566L184.852 309.51H182.304L183.968 299.994H181.888L172.866 309.796L172.632 311.096H180.016L179.158 315.906ZM177.286 309.51C175.622 309.51 175.18 309.588 175.18 309.588V309.484C175.18 309.484 175.83 308.99 176.87 307.794L179.34 305.012C180.848 303.296 181.55 302.334 181.55 302.334H181.654C181.654 302.334 181.316 303.478 180.978 305.454L180.276 309.51H177.286Z" fill="#363C65"/>
<path d="M88.739 328.775V343.5H97.889V340.55H92.139V328.775H88.739ZM104.557 341.225C103.032 341.225 102.207 340.075 102.132 338.3H109.257C109.357 337.825 109.407 337.3 109.407 336.8C109.407 333.825 107.807 331.675 104.532 331.675C101.057 331.675 98.9065 333.925 98.9065 337.9C98.9065 341.625 101.182 343.8 104.482 343.8C106.757 343.8 108.832 342.975 109.432 340.625L106.582 339.65C106.207 340.875 105.457 341.225 104.557 341.225ZM102.232 336.45C102.357 335.1 103.157 334.15 104.407 334.15C105.607 334.15 106.232 334.975 106.232 336.05C106.232 336.2 106.232 336.3 106.207 336.45H102.232ZM119.339 331.7C116.289 331.525 115.164 333.125 114.664 335.125L114.264 331.95H111.364V343.5H114.714V338.225C114.714 335.85 116.339 335.2 117.664 335.2C118.189 335.2 118.539 335.25 118.964 335.4L119.339 331.7ZM123.552 331.95H120.702V343.5H124.052V337.15C124.052 335.075 125.077 334.475 126.152 334.475C127.352 334.475 127.702 335.3 127.702 336.575V343.5H131.052V335.325C131.052 332.725 129.427 331.675 127.652 331.675C125.877 331.675 124.577 332.45 123.952 334.175L123.552 331.95ZM138.481 341.225C136.956 341.225 136.131 340.075 136.056 338.3H143.181C143.281 337.825 143.331 337.3 143.331 336.8C143.331 333.825 141.731 331.675 138.456 331.675C134.981 331.675 132.831 333.925 132.831 337.9C132.831 341.625 135.106 343.8 138.406 343.8C140.681 343.8 142.756 342.975 143.356 340.625L140.506 339.65C140.131 340.875 139.381 341.225 138.481 341.225ZM136.156 336.45C136.281 335.1 137.081 334.15 138.331 334.15C139.531 334.15 140.156 334.975 140.156 336.05C140.156 336.2 140.156 336.3 140.131 336.45H136.156ZM148.138 331.95H145.288V343.5H148.638V337.15C148.638 335.075 149.663 334.475 150.738 334.475C151.938 334.475 152.288 335.3 152.288 336.575V343.5H155.638V335.325C155.638 332.725 154.013 331.675 152.238 331.675C150.463 331.675 149.163 332.45 148.538 334.175L148.138 331.95ZM170.41 343.5H173.31V331.95H169.96V338.15C169.96 340.375 169.035 341.275 167.885 341.275C166.735 341.275 166.31 340.5 166.31 339.125V331.95H162.96V340.075C162.96 342.75 164.385 343.8 166.435 343.8C168.56 343.8 169.61 342.925 170.01 341.35L170.41 343.5ZM178.816 331.95H175.966V343.5H179.316V337.15C179.316 335.075 180.341 334.475 181.416 334.475C182.616 334.475 182.966 335.3 182.966 336.575V343.5H186.316V335.325C186.316 332.725 184.691 331.675 182.916 331.675C181.141 331.675 179.841 332.45 179.216 334.175L178.816 331.95ZM196.295 338.7C196.295 340.375 195.145 341.225 193.995 341.225C192.42 341.225 191.445 340 191.445 337.825C191.445 335.1 192.72 334.15 194.045 334.15C195.195 334.15 196.295 334.85 196.295 336.55V338.7ZM196.27 333.475C195.97 332.375 194.72 331.675 193.245 331.675C189.945 331.675 188.095 334.025 188.095 337.975C188.095 341.775 190.145 343.8 192.695 343.8C194.42 343.8 195.87 343.25 196.295 341.5L196.72 343.5H199.62V326.8H196.27V333.475ZM102.877 370.875C102.877 372 101.852 372.425 100.977 372.425C100.177 372.425 99.7023 371.95 99.7023 371.275C99.7023 370.25 100.527 369.625 102.877 369.7V370.875ZM106.177 366.5C106.177 363.925 104.527 362.675 101.652 362.675C99.0023 362.675 96.9273 363.825 96.7523 366.275L100.077 366.9C100.127 365.825 100.602 365.2 101.527 365.2C102.452 365.2 102.877 365.8 102.877 366.8V367.9C98.4273 367.65 96.3523 369.05 96.3523 371.625C96.3523 373.6 97.7023 374.8 99.7523 374.8C101.327 374.8 102.577 374.325 103.102 372.9C103.477 374.15 104.377 374.725 105.852 374.725C106.652 374.725 107.277 374.6 107.752 374.3V371.875C107.527 371.975 107.302 372.05 107.027 372.05C106.502 372.05 106.177 371.775 106.177 371V366.5ZM112.102 362.95H109.252V374.5H112.602V368.15C112.602 366.075 113.627 365.475 114.702 365.475C115.902 365.475 116.252 366.3 116.252 367.575V374.5H119.602V366.325C119.602 363.725 117.977 362.675 116.202 362.675C114.427 362.675 113.127 363.45 112.502 365.175L112.102 362.95ZM125.456 368.175C125.456 366.325 126.656 365.35 127.881 365.35C129.356 365.35 130.281 366.35 130.281 368.75C130.281 371.2 129.081 372.4 127.656 372.4C126.681 372.4 125.456 371.75 125.456 369.775V368.175ZM125.481 372.975C125.806 373.95 126.931 374.8 128.706 374.8C131.831 374.8 133.656 372.25 133.656 368.45C133.656 364.775 132.031 362.675 129.206 362.675C127.606 362.675 126.106 363.325 125.406 365.175L124.981 362.95H122.131V379.575H125.481V372.975ZM141.197 370.875C141.197 372 140.172 372.425 139.297 372.425C138.497 372.425 138.022 371.95 138.022 371.275C138.022 370.25 138.847 369.625 141.197 369.7V370.875ZM144.497 366.5C144.497 363.925 142.847 362.675 139.972 362.675C137.322 362.675 135.247 363.825 135.072 366.275L138.397 366.9C138.447 365.825 138.922 365.2 139.847 365.2C140.772 365.2 141.197 365.8 141.197 366.8V367.9C136.747 367.65 134.672 369.05 134.672 371.625C134.672 373.6 136.022 374.8 138.072 374.8C139.647 374.8 140.897 374.325 141.422 372.9C141.797 374.15 142.697 374.725 144.172 374.725C144.972 374.725 145.597 374.6 146.072 374.3V371.875C145.847 371.975 145.622 372.05 145.347 372.05C144.822 372.05 144.497 371.775 144.497 371V366.5ZM146.446 371.825C146.896 374 148.546 374.8 151.396 374.8C154.221 374.8 156.346 373.8 156.346 371.225C156.346 369.25 155.246 368 152.896 367.5L151.271 367.15C150.496 367 150.146 366.675 150.146 366.1C150.146 365.5 150.671 365.15 151.446 365.15C152.396 365.15 152.921 365.45 153.046 366.375L156.171 365.925C155.996 363.675 154.346 362.675 151.596 362.675C149.221 362.675 146.896 363.5 146.896 366.425C146.896 368.175 147.821 369.325 149.846 369.85L151.546 370.25C152.571 370.5 153.021 370.8 153.021 371.45C153.021 372.125 152.371 372.45 151.446 372.45C150.346 372.45 149.446 371.975 149.196 370.725L146.446 371.825ZM157.079 371.825C157.529 374 159.179 374.8 162.029 374.8C164.854 374.8 166.979 373.8 166.979 371.225C166.979 369.25 165.879 368 163.529 367.5L161.904 367.15C161.129 367 160.779 366.675 160.779 366.1C160.779 365.5 161.304 365.15 162.079 365.15C163.029 365.15 163.554 365.45 163.679 366.375L166.804 365.925C166.629 363.675 164.979 362.675 162.229 362.675C159.854 362.675 157.529 363.5 157.529 366.425C157.529 368.175 158.454 369.325 160.479 369.85L162.179 370.25C163.204 370.5 163.654 370.8 163.654 371.45C163.654 372.125 163.004 372.45 162.079 372.45C160.979 372.45 160.079 371.975 159.829 370.725L157.079 371.825ZM173.737 372.225C172.212 372.225 171.387 371.075 171.312 369.3H178.437C178.537 368.825 178.587 368.3 178.587 367.8C178.587 364.825 176.987 362.675 173.712 362.675C170.237 362.675 168.087 364.925 168.087 368.9C168.087 372.625 170.362 374.8 173.662 374.8C175.937 374.8 178.012 373.975 178.612 371.625L175.762 370.65C175.387 371.875 174.637 372.225 173.737 372.225ZM171.412 367.45C171.537 366.1 172.337 365.15 173.587 365.15C174.787 365.15 175.412 365.975 175.412 367.05C175.412 367.2 175.412 367.3 175.387 367.45H171.412ZM183.394 362.95H180.544V374.5H183.894V368.15C183.894 366.075 184.919 365.475 185.994 365.475C187.194 365.475 187.544 366.3 187.544 367.575V374.5H190.894V366.325C190.894 363.725 189.269 362.675 187.494 362.675C185.719 362.675 184.419 363.45 183.794 365.175L183.394 362.95Z" fill="#363C65"/>
<path d="M307.462 497.732H300.39L301.274 492.74H307.54L307.852 490.972H301.586L302.47 485.954H309.542L309.854 484.186H300.702L298.024 499.5H307.176L307.462 497.732ZM315.17 497.55C314.338 498.018 313.844 498.148 313.116 498.148C312.414 498.148 311.868 497.654 312.102 496.38L313.402 489.074H316.522L316.808 487.488H313.662L314.156 484.68L312.154 484.966L311.712 487.488H310.022L309.736 489.074H311.4L310.152 496.172C309.684 498.72 310.776 499.812 312.804 499.812C313.506 499.812 314.442 499.63 315.17 499.214V497.55ZM324.888 494.482C324.498 496.77 323.198 498.174 321.378 498.174C319.61 498.174 318.726 496.692 318.726 494.664C318.726 491.232 320.494 488.762 322.886 488.762C324.81 488.762 325.564 490.634 325.252 492.454L324.888 494.482ZM328.112 487.488H326.474L325.824 489.516C325.512 487.93 324.368 487.202 322.704 487.202C319.168 487.202 316.802 490.79 316.802 494.898C316.802 498.07 318.518 499.812 320.832 499.812C322.34 499.812 323.77 499.136 324.498 497.498C324.394 498.876 325.07 499.63 326.37 499.63C326.812 499.63 327.254 499.552 327.618 499.422L327.878 497.992C327.566 498.07 327.332 498.096 327.124 498.096C326.37 498.096 326.344 497.524 326.448 496.926L328.112 487.488ZM332.854 492.558C333.244 490.322 334.83 488.814 336.624 488.814C338.262 488.814 339.146 490.114 339.146 492.142C339.146 495.444 337.638 498.174 335.09 498.174C333.062 498.174 332.126 496.354 332.438 494.898L332.854 492.558ZM331.996 497.524C332.256 498.798 333.452 499.812 335.246 499.812C338.912 499.812 341.2 496.432 341.2 492.142C341.2 488.97 339.796 487.202 337.274 487.202C335.532 487.202 334.154 488.06 333.322 489.802L333.53 487.488H331.814L328.772 504.778H330.722L331.996 497.524ZM345.683 492.558C346.073 490.322 347.659 488.814 349.453 488.814C351.091 488.814 351.975 490.114 351.975 492.142C351.975 495.444 350.467 498.174 347.919 498.174C345.891 498.174 344.955 496.354 345.267 494.898L345.683 492.558ZM344.825 497.524C345.085 498.798 346.281 499.812 348.075 499.812C351.741 499.812 354.029 496.432 354.029 492.142C354.029 488.97 352.625 487.202 350.103 487.202C348.361 487.202 346.983 488.06 346.151 489.802L346.359 487.488H344.643L341.601 504.778H343.551L344.825 497.524ZM360.099 498.278C357.811 498.278 357.005 496.042 357.187 493.936H364.935C365.299 493.156 365.455 492.324 365.455 491.492C365.455 489.282 364.259 487.202 361.191 487.202C358.305 487.202 355.341 489.828 355.341 494.716C355.341 497.784 357.031 499.812 359.917 499.812C362.257 499.812 363.973 499.11 364.857 496.666L363.063 496.224C362.621 497.524 361.893 498.278 360.099 498.278ZM357.421 492.35C357.889 490.452 359.085 488.762 361.087 488.762C362.777 488.762 363.557 490.01 363.557 491.44C363.557 491.752 363.531 492.064 363.427 492.35H357.421ZM375.74 494.612C378.834 494.586 380.966 493.052 380.966 490.166C380.966 487.774 379.146 486.682 376.78 486.682C373.92 486.682 372.49 488.19 372.074 490.322L373.92 490.738C374.206 489.23 375.038 488.294 376.624 488.294C378.002 488.294 378.938 488.996 378.938 490.348C378.938 492.376 377.482 493.468 373.92 493.832L373.686 495.418C376.962 495.756 377.716 497.03 377.716 498.616C377.716 500.54 376.364 501.554 374.622 501.554C372.828 501.554 371.762 500.722 371.762 499.058L369.864 499.448C369.864 501.554 371.372 503.088 374.388 503.088C377.196 503.088 379.744 501.684 379.744 498.46C379.744 496.302 378.47 494.924 375.74 494.69V494.612Z" fill="#363C65"/>
<path d="M283.473 530.5H287.123L281.748 515.775H277.548L272.223 530.5H275.773L276.823 527.425H282.398L283.473 530.5ZM278.348 522.925C279.173 520.55 279.548 518.75 279.548 518.75H279.648C279.648 518.75 279.948 520.525 280.798 522.95L281.398 524.6H277.773L278.348 522.925ZM295.434 530.5H298.334V518.95H294.984V525.15C294.984 527.375 294.059 528.275 292.909 528.275C291.759 528.275 291.334 527.5 291.334 526.125V518.95H287.984V527.075C287.984 529.75 289.409 530.8 291.459 530.8C293.584 530.8 294.634 529.925 295.034 528.35L295.434 530.5ZM299.865 527.825C300.315 530 301.965 530.8 304.815 530.8C307.64 530.8 309.765 529.8 309.765 527.225C309.765 525.25 308.665 524 306.315 523.5L304.69 523.15C303.915 523 303.565 522.675 303.565 522.1C303.565 521.5 304.09 521.15 304.865 521.15C305.815 521.15 306.34 521.45 306.465 522.375L309.59 521.925C309.415 519.675 307.765 518.675 305.015 518.675C302.64 518.675 300.315 519.5 300.315 522.425C300.315 524.175 301.24 525.325 303.265 525.85L304.965 526.25C305.99 526.5 306.44 526.8 306.44 527.45C306.44 528.125 305.79 528.45 304.865 528.45C303.765 528.45 302.865 527.975 302.615 526.725L299.865 527.825ZM314.948 524.175C314.948 522.325 316.148 521.35 317.373 521.35C318.848 521.35 319.773 522.35 319.773 524.75C319.773 527.2 318.573 528.4 317.148 528.4C316.173 528.4 314.948 527.75 314.948 525.775V524.175ZM314.973 528.975C315.298 529.95 316.423 530.8 318.198 530.8C321.323 530.8 323.148 528.25 323.148 524.45C323.148 520.775 321.523 518.675 318.698 518.675C317.098 518.675 315.598 519.325 314.898 521.175L314.473 518.95H311.623V535.575H314.973V528.975ZM333.014 518.7C329.964 518.525 328.839 520.125 328.339 522.125L327.939 518.95H325.039V530.5H328.389V525.225C328.389 522.85 330.014 522.2 331.339 522.2C331.864 522.2 332.214 522.25 332.639 522.4L333.014 518.7ZM338.91 530.8C342.26 530.8 344.485 528.6 344.485 524.7C344.485 520.775 342.26 518.675 338.91 518.675C335.535 518.675 333.31 520.775 333.31 524.7C333.31 528.6 335.535 530.8 338.91 530.8ZM338.91 521.35C340.435 521.35 341.185 522.425 341.185 524.7C341.185 527.1 340.46 528.2 338.91 528.2C337.335 528.2 336.61 527.1 336.61 524.7C336.61 522.425 337.36 521.35 338.91 521.35ZM349.703 524.075C349.703 522.325 350.903 521.35 352.128 521.35C353.603 521.35 354.528 522.35 354.528 524.75C354.528 527.2 353.328 528.4 351.903 528.4C350.928 528.4 349.703 527.75 349.703 525.775V524.075ZM349.553 528.825C349.903 529.925 351.003 530.8 352.978 530.8C356.103 530.8 357.903 528.25 357.903 524.45C357.903 520.775 356.278 518.675 353.453 518.675C351.803 518.675 350.353 519.35 349.728 521.1V513.8H346.378V530.5H348.728L349.553 528.825ZM359.444 515.425C359.444 516.65 360.344 517.325 361.469 517.325C362.644 517.325 363.544 516.65 363.544 515.425C363.544 514.15 362.644 513.475 361.469 513.475C360.344 513.475 359.444 514.15 359.444 515.425ZM359.794 518.95V530.5H363.144V518.95H359.794ZM370.688 528.225C369.163 528.225 368.338 527.075 368.263 525.3H375.388C375.488 524.825 375.538 524.3 375.538 523.8C375.538 520.825 373.938 518.675 370.663 518.675C367.188 518.675 365.038 520.925 365.038 524.9C365.038 528.625 367.313 530.8 370.613 530.8C372.888 530.8 374.963 529.975 375.563 527.625L372.713 526.65C372.338 527.875 371.588 528.225 370.688 528.225ZM368.363 523.45C368.488 522.1 369.288 521.15 370.538 521.15C371.738 521.15 372.363 521.975 372.363 523.05C372.363 523.2 372.363 523.3 372.338 523.45H368.363ZM385.47 518.7C382.42 518.525 381.295 520.125 380.795 522.125L380.395 518.95H377.495V530.5H380.845V525.225C380.845 522.85 382.47 522.2 383.795 522.2C384.32 522.2 384.67 522.25 385.095 522.4L385.47 518.7ZM391.416 528.225C389.891 528.225 389.066 527.075 388.991 525.3H396.116C396.216 524.825 396.266 524.3 396.266 523.8C396.266 520.825 394.666 518.675 391.391 518.675C387.916 518.675 385.766 520.925 385.766 524.9C385.766 528.625 388.041 530.8 391.341 530.8C393.616 530.8 395.691 529.975 396.291 527.625L393.441 526.65C393.066 527.875 392.316 528.225 391.416 528.225ZM389.091 523.45C389.216 522.1 390.016 521.15 391.266 521.15C392.466 521.15 393.091 521.975 393.091 523.05C393.091 523.2 393.091 523.3 393.066 523.45H389.091ZM401.073 518.95H398.223V530.5H401.573V524.15C401.573 522.075 402.598 521.475 403.673 521.475C404.873 521.475 405.223 522.3 405.223 523.575V530.5H408.573V522.325C408.573 519.725 406.948 518.675 405.173 518.675C403.398 518.675 402.098 519.45 401.473 521.175L401.073 518.95ZM315.099 558.625C314.799 558.75 314.499 558.8 314.199 558.8C313.599 558.8 313.149 558.525 313.149 557.8V544.8H309.799V558.775C309.799 560.95 311.324 561.725 312.999 561.725C313.649 561.725 314.274 561.6 314.924 561.425L315.099 558.625ZM322.4 557.875C322.4 559 321.375 559.425 320.5 559.425C319.7 559.425 319.225 558.95 319.225 558.275C319.225 557.25 320.05 556.625 322.4 556.7V557.875ZM325.7 553.5C325.7 550.925 324.05 549.675 321.175 549.675C318.525 549.675 316.45 550.825 316.275 553.275L319.6 553.9C319.65 552.825 320.125 552.2 321.05 552.2C321.975 552.2 322.4 552.8 322.4 553.8V554.9C317.95 554.65 315.875 556.05 315.875 558.625C315.875 560.6 317.225 561.8 319.275 561.8C320.85 561.8 322.1 561.325 322.625 559.9C323 561.15 323.9 561.725 325.375 561.725C326.175 561.725 326.8 561.6 327.275 561.3V558.875C327.05 558.975 326.825 559.05 326.55 559.05C326.025 559.05 325.7 558.775 325.7 558V553.5ZM327.65 558.825C328.1 561 329.75 561.8 332.6 561.8C335.425 561.8 337.55 560.8 337.55 558.225C337.55 556.25 336.45 555 334.1 554.5L332.475 554.15C331.7 554 331.35 553.675 331.35 553.1C331.35 552.5 331.875 552.15 332.65 552.15C333.6 552.15 334.125 552.45 334.25 553.375L337.375 552.925C337.2 550.675 335.55 549.675 332.8 549.675C330.425 549.675 328.1 550.5 328.1 553.425C328.1 555.175 329.025 556.325 331.05 556.85L332.75 557.25C333.775 557.5 334.225 557.8 334.225 558.45C334.225 559.125 333.575 559.45 332.65 559.45C331.55 559.45 330.65 558.975 330.4 557.725L327.65 558.825ZM338.283 558.825C338.733 561 340.383 561.8 343.233 561.8C346.058 561.8 348.183 560.8 348.183 558.225C348.183 556.25 347.083 555 344.733 554.5L343.108 554.15C342.333 554 341.983 553.675 341.983 553.1C341.983 552.5 342.508 552.15 343.283 552.15C344.233 552.15 344.758 552.45 344.883 553.375L348.008 552.925C347.833 550.675 346.183 549.675 343.433 549.675C341.058 549.675 338.733 550.5 338.733 553.425C338.733 555.175 339.658 556.325 341.683 556.85L343.383 557.25C344.408 557.5 344.858 557.8 344.858 558.45C344.858 559.125 344.208 559.45 343.283 559.45C342.183 559.45 341.283 558.975 341.033 557.725L338.283 558.825ZM354.94 559.225C353.415 559.225 352.59 558.075 352.515 556.3H359.64C359.74 555.825 359.79 555.3 359.79 554.8C359.79 551.825 358.19 549.675 354.915 549.675C351.44 549.675 349.29 551.925 349.29 555.9C349.29 559.625 351.565 561.8 354.865 561.8C357.14 561.8 359.215 560.975 359.815 558.625L356.965 557.65C356.59 558.875 355.84 559.225 354.94 559.225ZM352.615 554.45C352.74 553.1 353.54 552.15 354.79 552.15C355.99 552.15 356.615 552.975 356.615 554.05C356.615 554.2 356.615 554.3 356.59 554.45H352.615ZM364.597 549.95H361.747V561.5H365.097V555.15C365.097 553.075 366.122 552.475 367.197 552.475C368.397 552.475 368.747 553.3 368.747 554.575V561.5H372.097V553.325C372.097 550.725 370.472 549.675 368.697 549.675C366.922 549.675 365.622 550.45 364.997 552.175L364.597 549.95Z" fill="#363C65"/>
<path d="M4.24107 339.498L339 4.24578L673.759 339.498L339 674.257L4.24107 339.498Z" stroke="#EBECF6" stroke-width="6"/>
</svg>
