<svg width="455" height="455" viewBox="0 0 455 455" fill="none" xmlns="http://www.w3.org/2000/svg">
<path d="M192.249 60.6V60.672C193.491 60.762 194.247 61.428 194.247 62.652C194.247 65.046 192.537 66 190.215 66H186.795L188.649 55.398H191.763C193.815 55.398 194.643 56.244 194.643 57.774C194.643 59.502 193.527 60.474 192.249 60.6ZM189.261 60.114H190.899C192.231 60.114 193.185 59.52 193.185 57.99C193.185 56.982 192.627 56.568 191.421 56.568H189.891L189.261 60.114ZM189.063 61.266L188.433 64.83H190.377C191.727 64.83 192.843 64.362 192.843 62.778C192.843 61.896 192.411 61.266 190.989 61.266H189.063ZM199.303 53.976L197.503 64.218C197.431 64.632 197.449 65.028 197.971 65.028C198.115 65.028 198.277 65.01 198.493 64.956L198.313 65.946C198.061 66.036 197.755 66.09 197.449 66.09C196.297 66.09 195.937 65.388 196.135 64.29L197.935 53.976H199.303ZM202.961 57.684L201.809 64.218C201.737 64.632 201.755 65.028 202.277 65.028C202.421 65.028 202.583 65.01 202.799 64.956L202.619 65.946C202.367 66.036 202.061 66.09 201.755 66.09C200.603 66.09 200.243 65.388 200.441 64.29L201.593 57.684H202.961ZM201.737 54.984C201.737 54.426 202.169 53.994 202.691 53.994C203.231 53.994 203.681 54.426 203.681 54.984C203.681 55.506 203.231 55.956 202.691 55.956C202.169 55.956 201.737 55.506 201.737 54.984ZM209.93 63.462L211.19 63.75C210.56 65.442 209.444 66.216 207.698 66.216C205.862 66.216 204.584 64.956 204.584 62.706C204.584 60.096 206.024 57.486 208.778 57.486C210.614 57.486 211.424 58.458 211.424 60.096L210.146 60.312C210.128 59.286 209.75 58.62 208.616 58.62C206.852 58.62 205.916 60.69 205.916 62.508C205.916 64.254 206.654 65.154 207.878 65.154C209.012 65.154 209.588 64.47 209.93 63.462ZM216.724 65.208L215.086 61.896H214.6L213.88 66H212.512L214.618 53.976H216.004L214.78 60.906H215.176L218.254 57.684H219.928L216.274 61.32L217.732 64.38C218.074 65.082 218.434 65.1 219.226 64.92L219.028 65.946C218.704 66.054 218.38 66.09 218.074 66.09C217.498 66.09 217.048 65.874 216.724 65.208ZM222.565 61.194L222.277 62.814C222.061 63.822 222.709 65.082 224.113 65.082C225.877 65.082 226.921 63.192 226.921 60.906C226.921 59.502 226.309 58.602 225.175 58.602C223.933 58.602 222.835 59.646 222.565 61.194ZM221.971 64.632L221.089 69.654H219.739L221.845 57.684H223.033L222.889 59.286C223.465 58.08 224.419 57.486 225.625 57.486C227.371 57.486 228.343 58.71 228.343 60.906C228.343 63.876 226.759 66.216 224.221 66.216C222.979 66.216 222.151 65.514 221.971 64.632ZM234.759 64.434C234.255 65.712 233.391 66.216 232.149 66.216C230.403 66.216 229.719 65.064 230.061 63.084L230.997 57.684H232.365L231.375 63.336C231.177 64.506 231.591 65.19 232.563 65.19C233.607 65.19 234.723 64.308 234.993 62.742L235.875 57.684H237.243L236.091 64.218C236.019 64.632 236.037 65.028 236.559 65.028C236.703 65.028 236.865 65.01 237.081 64.956L236.901 65.946C236.649 66.036 236.343 66.09 236.037 66.09C234.921 66.09 234.615 65.478 234.759 64.434ZM246.116 60.276L245.432 64.218C245.36 64.632 245.378 65.028 245.9 65.028C246.044 65.028 246.206 65.01 246.422 64.956L246.242 65.946C245.99 66.036 245.684 66.09 245.378 66.09C244.226 66.09 243.866 65.388 244.064 64.29L244.784 60.258C244.964 59.268 244.658 58.638 243.65 58.638C242.732 58.638 241.4 59.286 241.022 61.446L240.23 66H238.862L240.32 57.684H241.508L241.382 59.376C241.976 58.152 242.84 57.486 244.064 57.486C245.342 57.486 246.188 58.152 246.188 59.448C246.188 59.646 246.188 59.862 246.116 60.276ZM252.161 65.208L250.523 61.896H250.037L249.317 66H247.949L250.055 53.976H251.441L250.217 60.906H250.613L253.691 57.684H255.365L251.711 61.32L253.169 64.38C253.511 65.082 253.871 65.1 254.663 64.92L254.465 65.946C254.141 66.054 253.817 66.09 253.511 66.09C252.935 66.09 252.485 65.874 252.161 65.208ZM259.569 64.65V65.802C259.065 66.09 258.417 66.216 257.931 66.216C256.527 66.216 255.771 65.46 256.095 63.696L256.959 58.782H255.807L256.005 57.684H257.175L257.481 55.938L258.867 55.74L258.525 57.684H260.703L260.505 58.782H258.345L257.445 63.84C257.283 64.722 257.661 65.064 258.147 65.064C258.651 65.064 258.993 64.974 259.569 64.65ZM268.126 66H266.722L268 58.692L265.372 59.178L265.588 58.026L269.674 57.198L268.126 66Z" fill="#363C65"/>
<path d="M204.558 81.108L200.562 86.58C199.914 87.462 199.428 87.894 199.428 87.894V87.966C199.428 87.966 199.95 87.876 200.868 87.876H204.72V90H196.494V88.236L200.364 82.818C201.012 81.936 201.498 81.504 201.498 81.504V81.432C201.498 81.432 200.994 81.522 200.058 81.522H196.62V79.398H204.558V81.108ZM211.467 90L211.179 88.452C210.891 89.586 210.135 90.216 208.605 90.216C207.129 90.216 206.103 89.46 206.103 87.534V81.684H208.515V86.85C208.515 87.84 208.821 88.398 209.649 88.398C210.477 88.398 211.143 87.75 211.143 86.148V81.684H213.555V90H211.467ZM220.723 85.554L223.873 90H221.065L218.725 86.58H218.239V90H215.827V77.976H218.239V84.708H218.689L220.813 81.684H223.603L220.723 85.554ZM230.275 90L229.987 88.452C229.699 89.586 228.943 90.216 227.413 90.216C225.937 90.216 224.911 89.46 224.911 87.534V81.684H227.323V86.85C227.323 87.84 227.629 88.398 228.457 88.398C229.285 88.398 229.951 87.75 229.951 86.148V81.684H232.363V90H230.275ZM236.688 81.684L236.976 83.286C237.426 82.044 238.362 81.486 239.64 81.486C240.918 81.486 242.088 82.242 242.088 84.114V90H239.676V85.014C239.676 84.096 239.424 83.502 238.56 83.502C237.786 83.502 237.048 83.934 237.048 85.428V90H234.636V81.684H236.688ZM244.557 83.538H243.333V81.684H244.557V81.072C244.557 78.678 246.069 77.832 247.887 77.832C248.697 77.832 249.327 77.958 249.903 78.228L249.561 80.226C249.147 79.992 248.715 79.866 248.139 79.866C247.437 79.866 246.951 80.136 246.951 81.144V81.684H249.075V83.538H246.951V90H244.557V83.538ZM255.358 87.642L255.772 89.676C255.07 90.036 254.206 90.216 253.216 90.216C251.56 90.216 250.48 89.442 250.48 87.534V83.538H249.274V81.684H250.498V79.92L252.91 79.632V81.684H255.376V83.538H252.892V86.994C252.892 87.876 253.234 88.164 253.9 88.164C254.422 88.164 254.872 87.984 255.358 87.642ZM192.768 111.362C193.416 111.362 193.956 111.11 194.226 110.228L196.278 110.93C195.846 112.622 194.352 113.216 192.714 113.216C190.338 113.216 188.7 111.65 188.7 108.968C188.7 106.106 190.248 104.486 192.75 104.486C195.108 104.486 196.26 106.034 196.26 108.176C196.26 108.536 196.224 108.914 196.152 109.256H191.022C191.076 110.534 191.67 111.362 192.768 111.362ZM191.094 107.924H193.956C193.974 107.816 193.974 107.744 193.974 107.636C193.974 106.862 193.524 106.268 192.66 106.268C191.76 106.268 191.184 106.952 191.094 107.924ZM200.082 104.684L200.37 106.286C200.82 105.044 201.756 104.486 203.034 104.486C204.312 104.486 205.482 105.242 205.482 107.114V113H203.07V108.014C203.07 107.096 202.818 106.502 201.954 106.502C201.18 106.502 200.442 106.934 200.442 108.428V113H198.03V104.684H200.082ZM212.792 110.642L213.206 112.676C212.504 113.036 211.64 113.216 210.65 113.216C208.994 113.216 207.914 112.442 207.914 110.534V106.538H206.708V104.684H207.932V102.92L210.344 102.632V104.684H212.81V106.538H210.326V109.994C210.326 110.876 210.668 111.164 211.334 111.164C211.856 111.164 212.306 110.984 212.792 110.642ZM219.882 109.544V107.996C219.882 106.772 219.09 106.268 218.262 106.268C217.308 106.268 216.39 106.952 216.39 108.914C216.39 110.48 217.092 111.362 218.226 111.362C219.054 111.362 219.882 110.75 219.882 109.544ZM219.864 105.782V100.976H222.276V113H220.188L219.882 111.56C219.576 112.82 218.532 113.216 217.29 113.216C215.454 113.216 213.978 111.758 213.978 109.022C213.978 106.178 215.31 104.486 217.686 104.486C218.748 104.486 219.648 104.99 219.864 105.782ZM228.065 111.362C228.713 111.362 229.253 111.11 229.523 110.228L231.575 110.93C231.143 112.622 229.649 113.216 228.011 113.216C225.635 113.216 223.997 111.65 223.997 108.968C223.997 106.106 225.545 104.486 228.047 104.486C230.405 104.486 231.557 106.034 231.557 108.176C231.557 108.536 231.521 108.914 231.449 109.256H226.319C226.373 110.534 226.967 111.362 228.065 111.362ZM226.391 107.924H229.253C229.271 107.816 229.271 107.744 229.271 107.636C229.271 106.862 228.821 106.268 227.957 106.268C227.057 106.268 226.481 106.952 226.391 107.924ZM238.186 110.084L240.31 110.768C240.004 112.442 238.564 113.216 236.8 113.216C234.388 113.216 232.786 111.65 232.786 108.878C232.786 106.106 234.388 104.486 236.818 104.486C238.798 104.486 240.058 105.548 240.184 107.222L238.15 107.78C238.024 106.898 237.61 106.376 236.8 106.376C235.72 106.376 235.126 107.33 235.126 108.842C235.126 110.426 235.756 111.362 236.836 111.362C237.484 111.362 237.97 111.038 238.186 110.084ZM246.677 108.554L249.827 113H247.019L244.679 109.58H244.193V113H241.781V100.976H244.193V107.708H244.643L246.767 104.684H249.557L246.677 108.554ZM254.134 111.362C254.782 111.362 255.322 111.11 255.592 110.228L257.644 110.93C257.212 112.622 255.718 113.216 254.08 113.216C251.704 113.216 250.066 111.65 250.066 108.968C250.066 106.106 251.614 104.486 254.116 104.486C256.474 104.486 257.626 106.034 257.626 108.176C257.626 108.536 257.59 108.914 257.518 109.256H252.388C252.442 110.534 253.036 111.362 254.134 111.362ZM252.46 107.924H255.322C255.34 107.816 255.34 107.744 255.34 107.636C255.34 106.862 254.89 106.268 254.026 106.268C253.126 106.268 252.55 106.952 252.46 107.924ZM261.447 104.684L261.735 106.286C262.185 105.044 263.121 104.486 264.399 104.486C265.677 104.486 266.847 105.242 266.847 107.114V113H264.435V108.014C264.435 107.096 264.183 106.502 263.319 106.502C262.545 106.502 261.807 106.934 261.807 108.428V113H259.395V104.684H261.447Z" fill="#363C65"/>
<path d="M341.388 203.6V203.672C342.63 203.762 343.386 204.428 343.386 205.652C343.386 208.046 341.676 209 339.354 209H335.934L337.788 198.398H340.902C342.954 198.398 343.782 199.244 343.782 200.774C343.782 202.502 342.666 203.474 341.388 203.6ZM338.4 203.114H340.038C341.37 203.114 342.324 202.52 342.324 200.99C342.324 199.982 341.766 199.568 340.56 199.568H339.03L338.4 203.114ZM338.202 204.266L337.572 207.83H339.516C340.866 207.83 341.982 207.362 341.982 205.778C341.982 204.896 341.55 204.266 340.128 204.266H338.202ZM348.441 196.976L346.641 207.218C346.569 207.632 346.587 208.028 347.109 208.028C347.253 208.028 347.415 208.01 347.631 207.956L347.451 208.946C347.199 209.036 346.893 209.09 346.587 209.09C345.435 209.09 345.075 208.388 345.273 207.29L347.073 196.976H348.441ZM352.1 200.684L350.948 207.218C350.876 207.632 350.894 208.028 351.416 208.028C351.56 208.028 351.722 208.01 351.938 207.956L351.758 208.946C351.506 209.036 351.2 209.09 350.894 209.09C349.742 209.09 349.382 208.388 349.58 207.29L350.732 200.684H352.1ZM350.876 197.984C350.876 197.426 351.308 196.994 351.83 196.994C352.37 196.994 352.82 197.426 352.82 197.984C352.82 198.506 352.37 198.956 351.83 198.956C351.308 198.956 350.876 198.506 350.876 197.984ZM359.069 206.462L360.329 206.75C359.699 208.442 358.583 209.216 356.837 209.216C355.001 209.216 353.723 207.956 353.723 205.706C353.723 203.096 355.163 200.486 357.917 200.486C359.753 200.486 360.563 201.458 360.563 203.096L359.285 203.312C359.267 202.286 358.889 201.62 357.755 201.62C355.991 201.62 355.055 203.69 355.055 205.508C355.055 207.254 355.793 208.154 357.017 208.154C358.151 208.154 358.727 207.47 359.069 206.462ZM365.863 208.208L364.225 204.896H363.739L363.019 209H361.651L363.757 196.976H365.143L363.919 203.906H364.315L367.393 200.684H369.067L365.413 204.32L366.871 207.38C367.213 208.082 367.573 208.1 368.365 207.92L368.167 208.946C367.843 209.054 367.519 209.09 367.213 209.09C366.637 209.09 366.187 208.874 365.863 208.208ZM371.704 204.194L371.416 205.814C371.2 206.822 371.848 208.082 373.252 208.082C375.016 208.082 376.06 206.192 376.06 203.906C376.06 202.502 375.448 201.602 374.314 201.602C373.072 201.602 371.974 202.646 371.704 204.194ZM371.11 207.632L370.228 212.654H368.878L370.984 200.684H372.172L372.028 202.286C372.604 201.08 373.558 200.486 374.764 200.486C376.51 200.486 377.482 201.71 377.482 203.906C377.482 206.876 375.898 209.216 373.36 209.216C372.118 209.216 371.29 208.514 371.11 207.632ZM383.898 207.434C383.394 208.712 382.53 209.216 381.288 209.216C379.542 209.216 378.858 208.064 379.2 206.084L380.136 200.684H381.504L380.514 206.336C380.316 207.506 380.73 208.19 381.702 208.19C382.746 208.19 383.862 207.308 384.132 205.742L385.014 200.684H386.382L385.23 207.218C385.158 207.632 385.176 208.028 385.698 208.028C385.842 208.028 386.004 208.01 386.22 207.956L386.04 208.946C385.788 209.036 385.482 209.09 385.176 209.09C384.06 209.09 383.754 208.478 383.898 207.434ZM395.254 203.276L394.57 207.218C394.498 207.632 394.516 208.028 395.038 208.028C395.182 208.028 395.344 208.01 395.56 207.956L395.38 208.946C395.128 209.036 394.822 209.09 394.516 209.09C393.364 209.09 393.004 208.388 393.202 207.29L393.922 203.258C394.102 202.268 393.796 201.638 392.788 201.638C391.87 201.638 390.538 202.286 390.16 204.446L389.368 209H388L389.458 200.684H390.646L390.52 202.376C391.114 201.152 391.978 200.486 393.202 200.486C394.48 200.486 395.326 201.152 395.326 202.448C395.326 202.646 395.326 202.862 395.254 203.276ZM401.3 208.208L399.662 204.896H399.176L398.456 209H397.088L399.194 196.976H400.58L399.356 203.906H399.752L402.83 200.684H404.504L400.85 204.32L402.308 207.38C402.65 208.082 403.01 208.1 403.802 207.92L403.604 208.946C403.28 209.054 402.956 209.09 402.65 209.09C402.074 209.09 401.624 208.874 401.3 208.208ZM408.708 207.65V208.802C408.204 209.09 407.556 209.216 407.07 209.216C405.666 209.216 404.91 208.46 405.234 206.696L406.098 201.782H404.946L405.144 200.684H406.314L406.62 198.938L408.006 198.74L407.664 200.684H409.842L409.644 201.782H407.484L406.584 206.84C406.422 207.722 406.8 208.064 407.286 208.064C407.79 208.064 408.132 207.974 408.708 207.65ZM420.432 207.848L420.234 209H413.88L414.06 207.92C417.426 206.3 419.442 204.824 419.442 202.808C419.442 201.854 418.884 201.296 417.894 201.296C416.994 201.296 416.148 201.764 416.148 203.186L414.87 202.916C415.05 200.63 416.868 200.126 418.038 200.126C419.802 200.126 420.882 201.026 420.882 202.772C420.882 205.418 417.786 207.218 415.698 207.776V207.848H420.432Z" fill="#363C65"/>
<path d="M334.386 222.398H336.834V230.876H340.974V233H334.386V222.398ZM346.135 231.362C346.783 231.362 347.323 231.11 347.593 230.228L349.645 230.93C349.213 232.622 347.719 233.216 346.081 233.216C343.705 233.216 342.067 231.65 342.067 228.968C342.067 226.106 343.615 224.486 346.117 224.486C348.475 224.486 349.627 226.034 349.627 228.176C349.627 228.536 349.591 228.914 349.519 229.256H344.389C344.443 230.534 345.037 231.362 346.135 231.362ZM344.461 227.924H347.323C347.341 227.816 347.341 227.744 347.341 227.636C347.341 226.862 346.891 226.268 346.027 226.268C345.127 226.268 344.551 226.952 344.461 227.924ZM351.144 222.146C351.144 221.228 351.792 220.742 352.602 220.742C353.448 220.742 354.096 221.228 354.096 222.146C354.096 223.028 353.448 223.514 352.602 223.514C351.792 223.514 351.144 223.028 351.144 222.146ZM351.396 224.684H353.808V233H351.396V224.684ZM361.202 230.642L361.616 232.676C360.914 233.036 360.05 233.216 359.06 233.216C357.404 233.216 356.324 232.442 356.324 230.534V226.538H355.118V224.684H356.342V222.92L358.754 222.632V224.684H361.22V226.538H358.736V229.994C358.736 230.876 359.078 231.164 359.744 231.164C360.266 231.164 360.716 230.984 361.202 230.642ZM365.409 228.446V229.598C365.409 231.02 366.291 231.488 366.993 231.488C368.019 231.488 368.883 230.624 368.883 228.86C368.883 227.132 368.217 226.412 367.155 226.412C366.273 226.412 365.409 227.114 365.409 228.446ZM365.427 231.902V236.654H363.015V224.684H365.067L365.373 226.286C365.877 224.954 366.957 224.486 368.109 224.486C370.143 224.486 371.313 225.998 371.313 228.644C371.313 231.38 369.999 233.216 367.749 233.216C366.471 233.216 365.661 232.604 365.427 231.902ZM376.688 230.93L376.562 232.946C376.094 233.072 375.644 233.162 375.176 233.162C373.97 233.162 372.872 232.604 372.872 231.038V220.976H375.284V230.336C375.284 230.858 375.608 231.056 376.04 231.056C376.256 231.056 376.472 231.02 376.688 230.93ZM382.306 230.39V229.544C380.614 229.49 380.02 229.94 380.02 230.678C380.02 231.164 380.362 231.506 380.938 231.506C381.568 231.506 382.306 231.2 382.306 230.39ZM384.682 227.24V230.48C384.682 231.038 384.916 231.236 385.294 231.236C385.492 231.236 385.654 231.182 385.816 231.11V232.856C385.474 233.072 385.024 233.162 384.448 233.162C383.386 233.162 382.738 232.748 382.468 231.848C382.09 232.874 381.19 233.216 380.056 233.216C378.58 233.216 377.608 232.352 377.608 230.93C377.608 229.076 379.102 228.068 382.306 228.248V227.456C382.306 226.736 382 226.304 381.334 226.304C380.668 226.304 380.326 226.754 380.29 227.528L377.896 227.078C378.022 225.314 379.516 224.486 381.424 224.486C383.494 224.486 384.682 225.386 384.682 227.24ZM389.307 224.684L389.595 226.286C390.045 225.044 390.981 224.486 392.259 224.486C393.537 224.486 394.707 225.242 394.707 227.114V233H392.295V228.014C392.295 227.096 392.043 226.502 391.179 226.502C390.405 226.502 389.667 226.934 389.667 228.428V233H387.255V224.684H389.307ZM401.784 228.554L404.934 233H402.126L399.786 229.58H399.3V233H396.888V220.976H399.3V227.708H399.75L401.874 224.684H404.664L401.784 228.554ZM409.24 231.362C409.888 231.362 410.428 231.11 410.698 230.228L412.75 230.93C412.318 232.622 410.824 233.216 409.186 233.216C406.81 233.216 405.172 231.65 405.172 228.968C405.172 226.106 406.72 224.486 409.222 224.486C411.58 224.486 412.732 226.034 412.732 228.176C412.732 228.536 412.696 228.914 412.624 229.256H407.494C407.548 230.534 408.142 231.362 409.24 231.362ZM407.566 227.924H410.428C410.446 227.816 410.446 227.744 410.446 227.636C410.446 226.862 409.996 226.268 409.132 226.268C408.232 226.268 407.656 226.952 407.566 227.924ZM416.553 224.684L416.841 226.286C417.291 225.044 418.227 224.486 419.505 224.486C420.783 224.486 421.953 225.242 421.953 227.114V233H419.541V228.014C419.541 227.096 419.289 226.502 418.425 226.502C417.651 226.502 416.913 226.934 416.913 228.428V233H414.501V224.684H416.553ZM345.949 252.544V250.996C345.949 249.772 345.157 249.268 344.329 249.268C343.375 249.268 342.457 249.952 342.457 251.914C342.457 253.48 343.159 254.362 344.293 254.362C345.121 254.362 345.949 253.75 345.949 252.544ZM345.931 248.782V243.976H348.343V256H346.255L345.949 254.56C345.643 255.82 344.599 256.216 343.357 256.216C341.521 256.216 340.045 254.758 340.045 252.022C340.045 249.178 341.377 247.486 343.753 247.486C344.815 247.486 345.715 247.99 345.931 248.782ZM354.133 254.362C354.781 254.362 355.321 254.11 355.591 253.228L357.643 253.93C357.211 255.622 355.717 256.216 354.079 256.216C351.703 256.216 350.065 254.65 350.065 251.968C350.065 249.106 351.613 247.486 354.115 247.486C356.473 247.486 357.625 249.034 357.625 251.176C357.625 251.536 357.589 251.914 357.517 252.256H352.387C352.441 253.534 353.035 254.362 354.133 254.362ZM352.459 250.924H355.321C355.339 250.816 355.339 250.744 355.339 250.636C355.339 249.862 354.889 249.268 354.025 249.268C353.125 249.268 352.549 249.952 352.459 250.924ZM359.682 249.538H358.458V247.684H359.682V247.144C359.682 244.606 361.626 243.832 363.354 243.832C364.398 243.832 365.244 244.066 365.928 244.444L365.1 246.388C364.686 246.082 364.092 245.866 363.516 245.866C362.796 245.866 362.076 246.154 362.076 247.216V247.684H367.044V256H364.632V249.538H362.076V256H359.682V249.538ZM371.36 247.684L371.648 249.286C372.098 248.044 373.034 247.486 374.312 247.486C375.59 247.486 376.76 248.242 376.76 250.114V256H374.348V251.014C374.348 250.096 374.096 249.502 373.232 249.502C372.458 249.502 371.72 249.934 371.72 251.428V256H369.308V247.684H371.36ZM378.689 245.146C378.689 244.228 379.337 243.742 380.147 243.742C380.993 243.742 381.641 244.228 381.641 245.146C381.641 246.028 380.993 246.514 380.147 246.514C379.337 246.514 378.689 246.028 378.689 245.146ZM378.941 247.684H381.353V256H378.941V247.684ZM387.144 254.362C387.792 254.362 388.332 254.11 388.602 253.228L390.654 253.93C390.222 255.622 388.728 256.216 387.09 256.216C384.714 256.216 383.076 254.65 383.076 251.968C383.076 249.106 384.624 247.486 387.126 247.486C389.484 247.486 390.636 249.034 390.636 251.176C390.636 251.536 390.6 251.914 390.528 252.256H385.398C385.452 253.534 386.046 254.362 387.144 254.362ZM385.47 250.924H388.332C388.35 250.816 388.35 250.744 388.35 250.636C388.35 249.862 387.9 249.268 387.036 249.268C386.136 249.268 385.56 249.952 385.47 250.924ZM398.147 247.504L397.877 250.168C397.571 250.06 397.319 250.024 396.941 250.024C395.987 250.024 394.817 250.492 394.817 252.202V256H392.405V247.684H394.493L394.781 249.97C395.141 248.53 395.951 247.378 398.147 247.504ZM402.789 254.362C403.437 254.362 403.977 254.11 404.247 253.228L406.299 253.93C405.867 255.622 404.373 256.216 402.735 256.216C400.359 256.216 398.721 254.65 398.721 251.968C398.721 249.106 400.269 247.486 402.771 247.486C405.129 247.486 406.281 249.034 406.281 251.176C406.281 251.536 406.245 251.914 406.173 252.256H401.043C401.097 253.534 401.691 254.362 402.789 254.362ZM401.115 250.924H403.977C403.995 250.816 403.995 250.744 403.995 250.636C403.995 249.862 403.545 249.268 402.681 249.268C401.781 249.268 401.205 249.952 401.115 250.924ZM410.102 247.684L410.39 249.286C410.84 248.044 411.776 247.486 413.054 247.486C414.332 247.486 415.502 248.242 415.502 250.114V256H413.09V251.014C413.09 250.096 412.838 249.502 411.974 249.502C411.2 249.502 410.462 249.934 410.462 251.428V256H408.05V247.684H410.102Z" fill="#363C65"/>
<path d="M191.449 346.6V346.672C192.691 346.762 193.447 347.428 193.447 348.652C193.447 351.046 191.737 352 189.415 352H185.995L187.849 341.398H190.963C193.015 341.398 193.843 342.244 193.843 343.774C193.843 345.502 192.727 346.474 191.449 346.6ZM188.461 346.114H190.099C191.431 346.114 192.385 345.52 192.385 343.99C192.385 342.982 191.827 342.568 190.621 342.568H189.091L188.461 346.114ZM188.263 347.266L187.633 350.83H189.577C190.927 350.83 192.043 350.362 192.043 348.778C192.043 347.896 191.611 347.266 190.189 347.266H188.263ZM198.503 339.976L196.703 350.218C196.631 350.632 196.649 351.028 197.171 351.028C197.315 351.028 197.477 351.01 197.693 350.956L197.513 351.946C197.261 352.036 196.955 352.09 196.649 352.09C195.497 352.09 195.137 351.388 195.335 350.29L197.135 339.976H198.503ZM202.162 343.684L201.01 350.218C200.938 350.632 200.956 351.028 201.478 351.028C201.622 351.028 201.784 351.01 202 350.956L201.82 351.946C201.568 352.036 201.262 352.09 200.956 352.09C199.804 352.09 199.444 351.388 199.642 350.29L200.794 343.684H202.162ZM200.938 340.984C200.938 340.426 201.37 339.994 201.892 339.994C202.432 339.994 202.882 340.426 202.882 340.984C202.882 341.506 202.432 341.956 201.892 341.956C201.37 341.956 200.938 341.506 200.938 340.984ZM209.13 349.462L210.39 349.75C209.76 351.442 208.644 352.216 206.898 352.216C205.062 352.216 203.784 350.956 203.784 348.706C203.784 346.096 205.224 343.486 207.978 343.486C209.814 343.486 210.624 344.458 210.624 346.096L209.346 346.312C209.328 345.286 208.95 344.62 207.816 344.62C206.052 344.62 205.116 346.69 205.116 348.508C205.116 350.254 205.854 351.154 207.078 351.154C208.212 351.154 208.788 350.47 209.13 349.462ZM215.924 351.208L214.286 347.896H213.8L213.08 352H211.712L213.818 339.976H215.204L213.98 346.906H214.376L217.454 343.684H219.128L215.474 347.32L216.932 350.38C217.274 351.082 217.634 351.1 218.426 350.92L218.228 351.946C217.904 352.054 217.58 352.09 217.274 352.09C216.698 352.09 216.248 351.874 215.924 351.208ZM221.766 347.194L221.478 348.814C221.262 349.822 221.91 351.082 223.314 351.082C225.078 351.082 226.122 349.192 226.122 346.906C226.122 345.502 225.51 344.602 224.376 344.602C223.134 344.602 222.036 345.646 221.766 347.194ZM221.172 350.632L220.29 355.654H218.94L221.046 343.684H222.234L222.09 345.286C222.666 344.08 223.62 343.486 224.826 343.486C226.572 343.486 227.544 344.71 227.544 346.906C227.544 349.876 225.96 352.216 223.422 352.216C222.18 352.216 221.352 351.514 221.172 350.632ZM233.959 350.434C233.455 351.712 232.591 352.216 231.349 352.216C229.603 352.216 228.919 351.064 229.261 349.084L230.197 343.684H231.565L230.575 349.336C230.377 350.506 230.791 351.19 231.763 351.19C232.807 351.19 233.923 350.308 234.193 348.742L235.075 343.684H236.443L235.291 350.218C235.219 350.632 235.237 351.028 235.759 351.028C235.903 351.028 236.065 351.01 236.281 350.956L236.101 351.946C235.849 352.036 235.543 352.09 235.237 352.09C234.121 352.09 233.815 351.478 233.959 350.434ZM245.316 346.276L244.632 350.218C244.56 350.632 244.578 351.028 245.1 351.028C245.244 351.028 245.406 351.01 245.622 350.956L245.442 351.946C245.19 352.036 244.884 352.09 244.578 352.09C243.426 352.09 243.066 351.388 243.264 350.29L243.984 346.258C244.164 345.268 243.858 344.638 242.85 344.638C241.932 344.638 240.6 345.286 240.222 347.446L239.43 352H238.062L239.52 343.684H240.708L240.582 345.376C241.176 344.152 242.04 343.486 243.264 343.486C244.542 343.486 245.388 344.152 245.388 345.448C245.388 345.646 245.388 345.862 245.316 346.276ZM251.362 351.208L249.724 347.896H249.238L248.518 352H247.15L249.256 339.976H250.642L249.418 346.906H249.814L252.892 343.684H254.566L250.912 347.32L252.37 350.38C252.712 351.082 253.072 351.1 253.864 350.92L253.666 351.946C253.342 352.054 253.018 352.09 252.712 352.09C252.136 352.09 251.686 351.874 251.362 351.208ZM258.769 350.65V351.802C258.265 352.09 257.617 352.216 257.131 352.216C255.727 352.216 254.971 351.46 255.295 349.696L256.159 344.782H255.007L255.205 343.684H256.375L256.681 341.938L258.067 341.74L257.725 343.684H259.903L259.705 344.782H257.545L256.645 349.84C256.483 350.722 256.861 351.064 257.347 351.064C257.851 351.064 258.193 350.974 258.769 350.65ZM267.38 348.616V348.67C269.27 348.832 270.152 349.786 270.152 351.28C270.152 353.512 268.388 354.484 266.444 354.484C264.356 354.484 263.312 353.422 263.312 351.964L264.626 351.694C264.626 352.846 265.364 353.422 266.606 353.422C267.812 353.422 268.748 352.72 268.748 351.388C268.748 350.29 268.226 349.408 265.958 349.174L266.12 348.076C268.586 347.824 269.594 347.068 269.594 345.664C269.594 344.728 268.946 344.242 267.992 344.242C266.894 344.242 266.318 344.89 266.12 345.934L264.842 345.646C265.13 344.17 266.12 343.126 268.1 343.126C269.738 343.126 270.998 343.882 270.998 345.538C270.998 347.536 269.522 348.598 267.38 348.616Z" fill="#363C65"/>
<path d="M192.412 370.528V370.6C193.942 370.798 194.752 371.77 194.752 373.102C194.752 374.848 193.6 376 191.008 376H186.67V365.398H191.026C193.168 365.398 194.32 366.388 194.32 368.062C194.32 369.412 193.564 370.24 192.412 370.528ZM189.118 369.826H190.522C191.35 369.826 191.89 369.502 191.89 368.656C191.89 367.774 191.368 367.468 190.468 367.468H189.118V369.826ZM189.118 371.608V373.93H190.846C191.764 373.93 192.286 373.642 192.286 372.742C192.286 372.004 191.8 371.608 190.846 371.608H189.118ZM200.159 374.362C200.807 374.362 201.347 374.11 201.617 373.228L203.669 373.93C203.237 375.622 201.743 376.216 200.105 376.216C197.729 376.216 196.091 374.65 196.091 371.968C196.091 369.106 197.639 367.486 200.141 367.486C202.499 367.486 203.651 369.034 203.651 371.176C203.651 371.536 203.615 371.914 203.543 372.256H198.413C198.467 373.534 199.061 374.362 200.159 374.362ZM198.485 370.924H201.347C201.365 370.816 201.365 370.744 201.365 370.636C201.365 369.862 200.915 369.268 200.051 369.268C199.151 369.268 198.575 369.952 198.485 370.924ZM210.55 373.642L210.964 375.676C210.262 376.036 209.398 376.216 208.408 376.216C206.752 376.216 205.672 375.442 205.672 373.534V369.538H204.466V367.684H205.69V365.92L208.102 365.632V367.684H210.568V369.538H208.084V372.994C208.084 373.876 208.426 374.164 209.092 374.164C209.614 374.164 210.064 373.984 210.55 373.642ZM215.804 374.362C216.452 374.362 216.992 374.11 217.262 373.228L219.314 373.93C218.882 375.622 217.388 376.216 215.75 376.216C213.374 376.216 211.736 374.65 211.736 371.968C211.736 369.106 213.284 367.486 215.786 367.486C218.144 367.486 219.296 369.034 219.296 371.176C219.296 371.536 219.26 371.914 219.188 372.256H214.058C214.112 373.534 214.706 374.362 215.804 374.362ZM214.13 370.924H216.992C217.01 370.816 217.01 370.744 217.01 370.636C217.01 369.862 216.56 369.268 215.696 369.268C214.796 369.268 214.22 369.952 214.13 370.924ZM220.813 365.146C220.813 364.228 221.461 363.742 222.271 363.742C223.117 363.742 223.765 364.228 223.765 365.146C223.765 366.028 223.117 366.514 222.271 366.514C221.461 366.514 220.813 366.028 220.813 365.146ZM221.065 367.684H223.477V376H221.065V367.684ZM229.394 373.93L229.268 375.946C228.8 376.072 228.35 376.162 227.882 376.162C226.676 376.162 225.578 375.604 225.578 374.038V363.976H227.99V373.336C227.99 373.858 228.314 374.056 228.746 374.056C228.962 374.056 229.178 374.02 229.394 373.93ZM230.692 365.146C230.692 364.228 231.34 363.742 232.15 363.742C232.996 363.742 233.644 364.228 233.644 365.146C233.644 366.028 232.996 366.514 232.15 366.514C231.34 366.514 230.692 366.028 230.692 365.146ZM230.944 367.684H233.356V376H230.944V367.684ZM238.805 367.486C239.741 367.486 240.551 367.666 241.163 368.008C241.523 367.648 241.613 367.414 241.793 366.748L243.683 367.378C243.593 368.188 242.855 368.746 242.171 368.944C242.423 369.34 242.549 369.844 242.549 370.42C242.549 372.346 240.857 373.282 238.733 373.282C238.337 373.282 237.923 373.246 237.725 373.174C237.437 373.354 237.329 373.588 237.329 373.858C237.329 374.146 237.563 374.362 237.995 374.362H240.371C242.243 374.362 243.305 375.37 243.305 376.81C243.305 379.186 240.857 379.798 238.481 379.798C236.429 379.798 234.593 379.312 234.593 377.71C234.593 376.738 235.295 376.144 236.789 376.036C235.961 375.982 235.439 375.298 235.439 374.56C235.439 373.912 235.871 373.192 236.843 372.922C235.709 372.472 235.115 371.752 235.115 370.42C235.115 368.494 236.591 367.486 238.805 367.486ZM236.807 377.242C236.807 377.89 237.473 378.196 238.751 378.196C240.425 378.196 241.055 377.89 241.055 377.224C241.055 376.72 240.749 376.522 240.029 376.522H237.977C237.293 376.522 236.807 376.756 236.807 377.242ZM237.545 370.42C237.545 371.158 237.959 371.698 238.805 371.698C239.633 371.698 240.083 371.248 240.083 370.42C240.083 369.538 239.633 369.124 238.805 369.124C237.959 369.142 237.545 369.592 237.545 370.42ZM249.821 376L249.533 374.452C249.245 375.586 248.489 376.216 246.959 376.216C245.483 376.216 244.457 375.46 244.457 373.534V367.684H246.869V372.85C246.869 373.84 247.175 374.398 248.003 374.398C248.831 374.398 249.497 373.75 249.497 372.148V367.684H251.909V376H249.821ZM256.234 367.684L256.522 369.286C256.972 368.044 257.908 367.486 259.186 367.486C260.464 367.486 261.634 368.242 261.634 370.114V376H259.222V371.014C259.222 370.096 258.97 369.502 258.106 369.502C257.332 369.502 256.594 369.934 256.594 371.428V376H254.182V367.684H256.234ZM267.001 367.486C267.937 367.486 268.747 367.666 269.359 368.008C269.719 367.648 269.809 367.414 269.989 366.748L271.879 367.378C271.789 368.188 271.051 368.746 270.367 368.944C270.619 369.34 270.745 369.844 270.745 370.42C270.745 372.346 269.053 373.282 266.929 373.282C266.533 373.282 266.119 373.246 265.921 373.174C265.633 373.354 265.525 373.588 265.525 373.858C265.525 374.146 265.759 374.362 266.191 374.362H268.567C270.439 374.362 271.501 375.37 271.501 376.81C271.501 379.186 269.053 379.798 266.677 379.798C264.625 379.798 262.789 379.312 262.789 377.71C262.789 376.738 263.491 376.144 264.985 376.036C264.157 375.982 263.635 375.298 263.635 374.56C263.635 373.912 264.067 373.192 265.039 372.922C263.905 372.472 263.311 371.752 263.311 370.42C263.311 368.494 264.787 367.486 267.001 367.486ZM265.003 377.242C265.003 377.89 265.669 378.196 266.947 378.196C268.621 378.196 269.251 377.89 269.251 377.224C269.251 376.72 268.945 376.522 268.225 376.522H266.173C265.489 376.522 265.003 376.756 265.003 377.242ZM265.741 370.42C265.741 371.158 266.155 371.698 267.001 371.698C267.829 371.698 268.279 371.248 268.279 370.42C268.279 369.538 267.829 369.124 267.001 369.124C266.155 369.142 265.741 369.592 265.741 370.42ZM193.116 394.554L196.266 399H193.458L191.118 395.58H190.632V399H188.22V386.976H190.632V393.708H191.082L193.206 390.684H195.996L193.116 394.554ZM202.668 399L202.38 397.452C202.092 398.586 201.336 399.216 199.806 399.216C198.33 399.216 197.304 398.46 197.304 396.534V390.684H199.716V395.85C199.716 396.84 200.022 397.398 200.85 397.398C201.678 397.398 202.344 396.75 202.344 395.148V390.684H204.756V399H202.668ZM210.683 396.93L210.557 398.946C210.089 399.072 209.639 399.162 209.171 399.162C207.965 399.162 206.867 398.604 206.867 397.038V386.976H209.279V396.336C209.279 396.858 209.603 397.056 210.035 397.056C210.251 397.056 210.467 397.02 210.683 396.93ZM217.151 396.642L217.565 398.676C216.863 399.036 215.999 399.216 215.009 399.216C213.353 399.216 212.273 398.442 212.273 396.534V392.538H211.067V390.684H212.291V388.92L214.703 388.632V390.684H217.169V392.538H214.685V395.994C214.685 396.876 215.027 397.164 215.693 397.164C216.215 397.164 216.665 396.984 217.151 396.642ZM218.712 388.146C218.712 387.228 219.36 386.742 220.17 386.742C221.016 386.742 221.664 387.228 221.664 388.146C221.664 389.028 221.016 389.514 220.17 389.514C219.36 389.514 218.712 389.028 218.712 388.146ZM218.964 390.684H221.376V399H218.964V390.684ZM225.458 399L222.542 390.684H225.098L226.232 394.464C226.646 395.832 226.79 397.164 226.79 397.164H226.862C226.862 397.164 227.042 395.814 227.456 394.482L228.662 390.684H231.128L228.104 399H225.458ZM232.054 388.146C232.054 387.228 232.702 386.742 233.512 386.742C234.358 386.742 235.006 387.228 235.006 388.146C235.006 389.028 234.358 389.514 233.512 389.514C232.702 389.514 232.054 389.028 232.054 388.146ZM232.306 390.684H234.718V399H232.306V390.684ZM240.51 397.362C241.158 397.362 241.698 397.11 241.968 396.228L244.02 396.93C243.588 398.622 242.094 399.216 240.456 399.216C238.08 399.216 236.442 397.65 236.442 394.968C236.442 392.106 237.99 390.486 240.492 390.486C242.85 390.486 244.002 392.034 244.002 394.176C244.002 394.536 243.966 394.914 243.894 395.256H238.764C238.818 396.534 239.412 397.362 240.51 397.362ZM238.836 393.924H241.698C241.716 393.816 241.716 393.744 241.716 393.636C241.716 392.862 241.266 392.268 240.402 392.268C239.502 392.268 238.926 392.952 238.836 393.924ZM251.513 390.504L251.243 393.168C250.937 393.06 250.685 393.024 250.307 393.024C249.353 393.024 248.183 393.492 248.183 395.202V399H245.771V390.684H247.859L248.147 392.97C248.507 391.53 249.317 390.378 251.513 390.504ZM256.154 397.362C256.802 397.362 257.342 397.11 257.612 396.228L259.664 396.93C259.232 398.622 257.738 399.216 256.1 399.216C253.724 399.216 252.086 397.65 252.086 394.968C252.086 392.106 253.634 390.486 256.136 390.486C258.494 390.486 259.646 392.034 259.646 394.176C259.646 394.536 259.61 394.914 259.538 395.256H254.408C254.462 396.534 255.056 397.362 256.154 397.362ZM254.48 393.924H257.342C257.36 393.816 257.36 393.744 257.36 393.636C257.36 392.862 256.91 392.268 256.046 392.268C255.146 392.268 254.57 392.952 254.48 393.924ZM263.467 390.684L263.755 392.286C264.205 391.044 265.141 390.486 266.419 390.486C267.697 390.486 268.867 391.242 268.867 393.114V399H266.455V394.014C266.455 393.096 266.203 392.502 265.339 392.502C264.565 392.502 263.827 392.934 263.827 394.428V399H261.415V390.684H263.467Z" fill="#363C65"/>
<path d="M41.6584 203.6V203.672C42.9004 203.762 43.6564 204.428 43.6564 205.652C43.6564 208.046 41.9464 209 39.6244 209H36.2044L38.0584 198.398H41.1724C43.2244 198.398 44.0524 199.244 44.0524 200.774C44.0524 202.502 42.9364 203.474 41.6584 203.6ZM38.6704 203.114H40.3084C41.6404 203.114 42.5944 202.52 42.5944 200.99C42.5944 199.982 42.0364 199.568 40.8304 199.568H39.3004L38.6704 203.114ZM38.4724 204.266L37.8424 207.83H39.7864C41.1364 207.83 42.2524 207.362 42.2524 205.778C42.2524 204.896 41.8204 204.266 40.3984 204.266H38.4724ZM48.7118 196.976L46.9118 207.218C46.8398 207.632 46.8578 208.028 47.3798 208.028C47.5238 208.028 47.6858 208.01 47.9018 207.956L47.7218 208.946C47.4698 209.036 47.1638 209.09 46.8578 209.09C45.7058 209.09 45.3458 208.388 45.5438 207.29L47.3438 196.976H48.7118ZM52.3705 200.684L51.2185 207.218C51.1465 207.632 51.1645 208.028 51.6865 208.028C51.8305 208.028 51.9925 208.01 52.2085 207.956L52.0285 208.946C51.7765 209.036 51.4705 209.09 51.1645 209.09C50.0125 209.09 49.6525 208.388 49.8505 207.29L51.0025 200.684H52.3705ZM51.1465 197.984C51.1465 197.426 51.5785 196.994 52.1005 196.994C52.6405 196.994 53.0905 197.426 53.0905 197.984C53.0905 198.506 52.6405 198.956 52.1005 198.956C51.5785 198.956 51.1465 198.506 51.1465 197.984ZM59.3394 206.462L60.5994 206.75C59.9694 208.442 58.8534 209.216 57.1074 209.216C55.2714 209.216 53.9934 207.956 53.9934 205.706C53.9934 203.096 55.4334 200.486 58.1874 200.486C60.0234 200.486 60.8334 201.458 60.8334 203.096L59.5554 203.312C59.5374 202.286 59.1594 201.62 58.0254 201.62C56.2614 201.62 55.3254 203.69 55.3254 205.508C55.3254 207.254 56.0634 208.154 57.2874 208.154C58.4214 208.154 58.9974 207.47 59.3394 206.462ZM66.1332 208.208L64.4952 204.896H64.0092L63.2892 209H61.9212L64.0272 196.976H65.4132L64.1892 203.906H64.5852L67.6632 200.684H69.3372L65.6832 204.32L67.1412 207.38C67.4832 208.082 67.8432 208.1 68.6352 207.92L68.4372 208.946C68.1132 209.054 67.7892 209.09 67.4832 209.09C66.9072 209.09 66.4572 208.874 66.1332 208.208ZM71.9746 204.194L71.6866 205.814C71.4706 206.822 72.1186 208.082 73.5226 208.082C75.2866 208.082 76.3306 206.192 76.3306 203.906C76.3306 202.502 75.7186 201.602 74.5846 201.602C73.3426 201.602 72.2446 202.646 71.9746 204.194ZM71.3806 207.632L70.4986 212.654H69.1486L71.2546 200.684H72.4426L72.2986 202.286C72.8746 201.08 73.8286 200.486 75.0346 200.486C76.7806 200.486 77.7526 201.71 77.7526 203.906C77.7526 206.876 76.1686 209.216 73.6306 209.216C72.3886 209.216 71.5606 208.514 71.3806 207.632ZM84.1685 207.434C83.6645 208.712 82.8005 209.216 81.5585 209.216C79.8125 209.216 79.1285 208.064 79.4705 206.084L80.4065 200.684H81.7745L80.7845 206.336C80.5865 207.506 81.0005 208.19 81.9725 208.19C83.0165 208.19 84.1325 207.308 84.4025 205.742L85.2845 200.684H86.6525L85.5005 207.218C85.4285 207.632 85.4465 208.028 85.9685 208.028C86.1125 208.028 86.2745 208.01 86.4905 207.956L86.3105 208.946C86.0585 209.036 85.7525 209.09 85.4465 209.09C84.3305 209.09 84.0245 208.478 84.1685 207.434ZM95.5248 203.276L94.8408 207.218C94.7688 207.632 94.7868 208.028 95.3088 208.028C95.4528 208.028 95.6148 208.01 95.8308 207.956L95.6508 208.946C95.3988 209.036 95.0928 209.09 94.7868 209.09C93.6348 209.09 93.2748 208.388 93.4728 207.29L94.1928 203.258C94.3728 202.268 94.0668 201.638 93.0588 201.638C92.1408 201.638 90.8088 202.286 90.4308 204.446L89.6388 209H88.2708L89.7288 200.684H90.9168L90.7908 202.376C91.3848 201.152 92.2488 200.486 93.4728 200.486C94.7508 200.486 95.5968 201.152 95.5968 202.448C95.5968 202.646 95.5968 202.862 95.5248 203.276ZM101.571 208.208L99.9327 204.896H99.4467L98.7267 209H97.3587L99.4647 196.976H100.851L99.6267 203.906H100.023L103.101 200.684H104.775L101.121 204.32L102.579 207.38C102.921 208.082 103.281 208.1 104.073 207.92L103.875 208.946C103.551 209.054 103.227 209.09 102.921 209.09C102.345 209.09 101.895 208.874 101.571 208.208ZM108.978 207.65V208.802C108.474 209.09 107.826 209.216 107.34 209.216C105.936 209.216 105.18 208.46 105.504 206.696L106.368 201.782H105.216L105.414 200.684H106.584L106.89 198.938L108.276 198.74L107.934 200.684H110.112L109.914 201.782H107.754L106.854 206.84C106.692 207.722 107.07 208.064 107.556 208.064C108.06 208.064 108.402 207.974 108.978 207.65ZM118.669 211.358L119.263 208.028H114.151L114.313 207.128L120.559 200.342H121.999L120.847 206.93H122.611L122.413 208.028H120.667L120.073 211.358H118.669ZM117.373 206.93H119.443L119.929 204.122C120.163 202.754 120.397 201.962 120.397 201.962H120.325C120.325 201.962 119.839 202.628 118.795 203.816L117.085 205.742C116.365 206.57 115.915 206.912 115.915 206.912V206.984C115.915 206.984 116.221 206.93 117.373 206.93Z" fill="#363C65"/>
<path d="M32.1328 222.398L33.9148 228.104C34.3828 229.598 34.5268 230.93 34.5268 230.93H34.5988C34.5988 230.93 34.7248 229.58 35.1748 228.122L36.9028 222.398H39.4588L35.9668 233H33.0148L29.5228 222.398H32.1328ZM43.7255 231.362C44.3735 231.362 44.9135 231.11 45.1835 230.228L47.2355 230.93C46.8035 232.622 45.3095 233.216 43.6715 233.216C41.2955 233.216 39.6575 231.65 39.6575 228.968C39.6575 226.106 41.2055 224.486 43.7075 224.486C46.0655 224.486 47.2175 226.034 47.2175 228.176C47.2175 228.536 47.1815 228.914 47.1095 229.256H41.9795C42.0335 230.534 42.6275 231.362 43.7255 231.362ZM42.0515 227.924H44.9135C44.9315 227.816 44.9315 227.744 44.9315 227.636C44.9315 226.862 44.4815 226.268 43.6175 226.268C42.7175 226.268 42.1415 226.952 42.0515 227.924ZM54.7285 224.504L54.4585 227.168C54.1525 227.06 53.9005 227.024 53.5225 227.024C52.5685 227.024 51.3985 227.492 51.3985 229.202V233H48.9865V224.684H51.0745L51.3625 226.97C51.7225 225.53 52.5325 224.378 54.7285 224.504ZM60.0858 230.39V229.544C58.3938 229.49 57.7998 229.94 57.7998 230.678C57.7998 231.164 58.1418 231.506 58.7178 231.506C59.3478 231.506 60.0858 231.2 60.0858 230.39ZM62.4618 227.24V230.48C62.4618 231.038 62.6958 231.236 63.0738 231.236C63.2718 231.236 63.4338 231.182 63.5958 231.11V232.856C63.2538 233.072 62.8038 233.162 62.2278 233.162C61.1658 233.162 60.5178 232.748 60.2478 231.848C59.8698 232.874 58.9698 233.216 57.8358 233.216C56.3598 233.216 55.3878 232.352 55.3878 230.93C55.3878 229.076 56.8818 228.068 60.0858 228.248V227.456C60.0858 226.736 59.7798 226.304 59.1138 226.304C58.4478 226.304 58.1058 226.754 58.0698 227.528L55.6758 227.078C55.8018 225.314 57.2958 224.486 59.2038 224.486C61.2738 224.486 62.4618 225.386 62.4618 227.24ZM55.8918 222.272C55.8918 221.372 56.5038 220.922 57.2238 220.922C58.0158 220.922 58.5918 221.372 58.5918 222.272C58.5918 223.136 58.0158 223.622 57.2238 223.622C56.5038 223.622 55.8918 223.136 55.8918 222.272ZM59.8158 222.272C59.8158 221.372 60.4278 220.922 61.1478 220.922C61.9218 220.922 62.5158 221.372 62.5158 222.272C62.5158 223.154 61.9218 223.622 61.1478 223.622C60.4278 223.622 59.8158 223.154 59.8158 222.272ZM67.0874 224.684L67.3754 226.286C67.8254 225.044 68.7614 224.486 70.0394 224.486C71.3174 224.486 72.4874 225.242 72.4874 227.114V233H70.0754V228.014C70.0754 227.096 69.8234 226.502 68.9594 226.502C68.1854 226.502 67.4474 226.934 67.4474 228.428V233H65.0354V224.684H67.0874ZM80.0322 229.544V227.996C80.0322 226.772 79.2402 226.268 78.4122 226.268C77.4582 226.268 76.5402 226.952 76.5402 228.914C76.5402 230.48 77.2422 231.362 78.3762 231.362C79.2042 231.362 80.0322 230.75 80.0322 229.544ZM80.0142 225.782V220.976H82.4262V233H80.3382L80.0322 231.56C79.7262 232.82 78.6822 233.216 77.4402 233.216C75.6042 233.216 74.1282 231.758 74.1282 229.022C74.1282 226.178 75.4602 224.486 77.8362 224.486C78.8982 224.486 79.7982 224.99 80.0142 225.782ZM88.2157 231.362C88.8637 231.362 89.4037 231.11 89.6737 230.228L91.7257 230.93C91.2937 232.622 89.7997 233.216 88.1617 233.216C85.7857 233.216 84.1477 231.65 84.1477 228.968C84.1477 226.106 85.6957 224.486 88.1977 224.486C90.5557 224.486 91.7077 226.034 91.7077 228.176C91.7077 228.536 91.6717 228.914 91.5997 229.256H86.4697C86.5237 230.534 87.1177 231.362 88.2157 231.362ZM86.5417 227.924H89.4037C89.4217 227.816 89.4217 227.744 89.4217 227.636C89.4217 226.862 88.9717 226.268 88.1077 226.268C87.2077 226.268 86.6317 226.952 86.5417 227.924ZM99.2188 224.504L98.9488 227.168C98.6428 227.06 98.3908 227.024 98.0128 227.024C97.0588 227.024 95.8888 227.492 95.8888 229.202V233H93.4768V224.684H95.5648L95.8528 226.97C96.2128 225.53 97.0228 224.378 99.2188 224.504ZM105.763 233L105.475 231.452C105.187 232.586 104.431 233.216 102.901 233.216C101.425 233.216 100.399 232.46 100.399 230.534V224.684H102.811V229.85C102.811 230.84 103.117 231.398 103.945 231.398C104.773 231.398 105.439 230.75 105.439 229.148V224.684H107.851V233H105.763ZM112.175 224.684L112.463 226.286C112.913 225.044 113.849 224.486 115.127 224.486C116.405 224.486 117.575 225.242 117.575 227.114V233H115.163V228.014C115.163 227.096 114.911 226.502 114.047 226.502C113.273 226.502 112.535 226.934 112.535 228.428V233H110.123V224.684H112.175ZM122.942 224.486C123.878 224.486 124.688 224.666 125.3 225.008C125.66 224.648 125.75 224.414 125.93 223.748L127.82 224.378C127.73 225.188 126.992 225.746 126.308 225.944C126.56 226.34 126.686 226.844 126.686 227.42C126.686 229.346 124.994 230.282 122.87 230.282C122.474 230.282 122.06 230.246 121.862 230.174C121.574 230.354 121.466 230.588 121.466 230.858C121.466 231.146 121.7 231.362 122.132 231.362H124.508C126.38 231.362 127.442 232.37 127.442 233.81C127.442 236.186 124.994 236.798 122.618 236.798C120.566 236.798 118.73 236.312 118.73 234.71C118.73 233.738 119.432 233.144 120.926 233.036C120.098 232.982 119.576 232.298 119.576 231.56C119.576 230.912 120.008 230.192 120.98 229.922C119.846 229.472 119.252 228.752 119.252 227.42C119.252 225.494 120.728 224.486 122.942 224.486ZM120.944 234.242C120.944 234.89 121.61 235.196 122.888 235.196C124.562 235.196 125.192 234.89 125.192 234.224C125.192 233.72 124.886 233.522 124.166 233.522H122.114C121.43 233.522 120.944 233.756 120.944 234.242ZM121.682 227.42C121.682 228.158 122.096 228.698 122.942 228.698C123.77 228.698 124.22 228.248 124.22 227.42C124.22 226.538 123.77 226.124 122.942 226.124C122.096 226.142 121.682 226.592 121.682 227.42ZM24.6538 247.684L24.9418 249.286C25.3918 248.044 26.3278 247.486 27.6058 247.486C28.8838 247.486 30.0538 248.242 30.0538 250.114V256H27.6418V251.014C27.6418 250.096 27.3898 249.502 26.5258 249.502C25.7518 249.502 25.0138 249.934 25.0138 251.428V256H22.6018V247.684H24.6538ZM36.3026 253.39V252.544C34.6106 252.49 34.0166 252.94 34.0166 253.678C34.0166 254.164 34.3586 254.506 34.9346 254.506C35.5646 254.506 36.3026 254.2 36.3026 253.39ZM38.6786 250.24V253.48C38.6786 254.038 38.9126 254.236 39.2906 254.236C39.4886 254.236 39.6506 254.182 39.8126 254.11V255.856C39.4706 256.072 39.0206 256.162 38.4446 256.162C37.3826 256.162 36.7346 255.748 36.4646 254.848C36.0866 255.874 35.1866 256.216 34.0526 256.216C32.5766 256.216 31.6046 255.352 31.6046 253.93C31.6046 252.076 33.0986 251.068 36.3026 251.248V250.456C36.3026 249.736 35.9966 249.304 35.3306 249.304C34.6646 249.304 34.3226 249.754 34.2866 250.528L31.8926 250.078C32.0186 248.314 33.5126 247.486 35.4206 247.486C37.4906 247.486 38.6786 248.386 38.6786 250.24ZM46.1122 253.084L48.2362 253.768C47.9302 255.442 46.4902 256.216 44.7262 256.216C42.3142 256.216 40.7122 254.65 40.7122 251.878C40.7122 249.106 42.3142 247.486 44.7442 247.486C46.7242 247.486 47.9842 248.548 48.1102 250.222L46.0762 250.78C45.9502 249.898 45.5362 249.376 44.7262 249.376C43.6462 249.376 43.0522 250.33 43.0522 251.842C43.0522 253.426 43.6822 254.362 44.7622 254.362C45.4102 254.362 45.8962 254.038 46.1122 253.084ZM52.1192 243.976V249.268C52.5512 248.044 53.4332 247.486 54.7112 247.486C55.9892 247.486 57.1592 248.242 57.1592 250.114V256H54.7472V251.014C54.7472 250.096 54.4952 249.502 53.6312 249.502C52.8572 249.502 52.1192 249.934 52.1192 251.41V256H49.7072V243.976H52.1192ZM61.0702 256L58.1542 247.684H60.7102L61.8442 251.464C62.2582 252.832 62.4022 254.164 62.4022 254.164H62.4742C62.4742 254.164 62.6542 252.814 63.0682 251.482L64.2742 247.684H66.7402L63.7162 256H61.0702ZM71.3223 256.216C68.8923 256.216 67.2903 254.632 67.2903 251.824C67.2903 248.998 68.8923 247.486 71.3223 247.486C73.7343 247.486 75.3363 248.998 75.3363 251.824C75.3363 254.632 73.7343 256.216 71.3223 256.216ZM71.3223 249.412C70.2063 249.412 69.6663 250.186 69.6663 251.824C69.6663 253.552 70.1883 254.344 71.3223 254.344C72.4383 254.344 72.9603 253.552 72.9603 251.824C72.9603 250.186 72.4203 249.412 71.3223 249.412ZM80.7128 253.93L80.5868 255.946C80.1188 256.072 79.6688 256.162 79.2008 256.162C77.9948 256.162 76.8968 255.604 76.8968 254.038V243.976H79.3088V253.336C79.3088 253.858 79.6328 254.056 80.0648 254.056C80.2808 254.056 80.4968 254.02 80.7128 253.93ZM85.9159 253.93L85.7899 255.946C85.3219 256.072 84.8719 256.162 84.4039 256.162C83.1979 256.162 82.0999 255.604 82.0999 254.038V243.976H84.5119V253.336C84.5119 253.858 84.8359 254.056 85.2679 254.056C85.4839 254.056 85.6999 254.02 85.9159 253.93ZM93.3511 249.196L90.6691 252.832C90.0211 253.714 89.5351 254.146 89.5351 254.146V254.218C89.5351 254.218 90.0571 254.128 90.9751 254.128H93.5131V256H86.8351V254.542L89.4091 250.888C90.0571 250.006 90.5431 249.574 90.5431 249.574V249.502C90.5431 249.502 90.0391 249.592 89.1031 249.592H86.9791V247.684H93.3511V249.196ZM94.8947 245.146C94.8947 244.228 95.5427 243.742 96.3527 243.742C97.1987 243.742 97.8467 244.228 97.8467 245.146C97.8467 246.028 97.1987 246.514 96.3527 246.514C95.5427 246.514 94.8947 246.028 94.8947 245.146ZM95.1467 247.684H97.5587V256H95.1467V247.684ZM103.35 254.362C103.998 254.362 104.538 254.11 104.808 253.228L106.86 253.93C106.428 255.622 104.934 256.216 103.296 256.216C100.92 256.216 99.2825 254.65 99.2825 251.968C99.2825 249.106 100.83 247.486 103.332 247.486C105.69 247.486 106.842 249.034 106.842 251.176C106.842 251.536 106.806 251.914 106.734 252.256H101.604C101.658 253.534 102.252 254.362 103.35 254.362ZM101.676 250.924H104.538C104.556 250.816 104.556 250.744 104.556 250.636C104.556 249.862 104.106 249.268 103.242 249.268C102.342 249.268 101.766 249.952 101.676 250.924ZM111.024 243.976V249.268C111.456 248.044 112.338 247.486 113.616 247.486C114.894 247.486 116.064 248.242 116.064 250.114V256H113.652V251.014C113.652 250.096 113.4 249.502 112.536 249.502C111.762 249.502 111.024 249.934 111.024 251.41V256H108.612V243.976H111.024ZM121.772 254.362C122.42 254.362 122.96 254.11 123.23 253.228L125.282 253.93C124.85 255.622 123.356 256.216 121.718 256.216C119.342 256.216 117.704 254.65 117.704 251.968C117.704 249.106 119.252 247.486 121.754 247.486C124.112 247.486 125.264 249.034 125.264 251.176C125.264 251.536 125.228 251.914 125.156 252.256H120.026C120.08 253.534 120.674 254.362 121.772 254.362ZM120.098 250.924H122.96C122.978 250.816 122.978 250.744 122.978 250.636C122.978 249.862 122.528 249.268 121.664 249.268C120.764 249.268 120.188 249.952 120.098 250.924ZM129.085 247.684L129.373 249.286C129.823 248.044 130.759 247.486 132.037 247.486C133.315 247.486 134.485 248.242 134.485 250.114V256H132.073V251.014C132.073 250.096 131.821 249.502 130.957 249.502C130.183 249.502 129.445 249.934 129.445 251.428V256H127.033V247.684H129.085Z" fill="#363C65"/>
<path d="M68 68.5L386.5 387" stroke="#E7E6ED"/>
<path d="M66.5 387L385 67" stroke="#E7E6ED"/>
<circle cx="227" cy="228" r="84" fill="#363C65"/>
<path d="M201.36 217.408L202.656 217.174C202.638 218.56 203.43 219.136 204.762 219.136C206.112 219.136 206.976 218.542 206.976 217.228C206.976 216.13 206.49 215.644 205.032 215.086C203.736 214.582 202.62 214.024 202.62 212.242C202.62 209.92 204.672 209.182 206.148 209.182C208.2 209.182 209.352 209.92 209.352 211.972L208.002 212.188C208.038 210.946 207.354 210.262 206.04 210.262C204.816 210.262 203.952 210.928 203.952 212.044C203.952 213.16 204.618 213.43 205.932 213.97C207.48 214.618 208.398 215.32 208.398 217.048C208.398 219.262 206.652 220.216 204.618 220.216C202.512 220.216 201.36 219.352 201.36 217.408ZM214.095 218.65V219.802C213.591 220.09 212.943 220.216 212.457 220.216C211.053 220.216 210.297 219.46 210.621 217.696L211.485 212.782H210.333L210.531 211.684H211.701L212.007 209.938L213.393 209.74L213.051 211.684H215.229L215.031 212.782H212.871L211.971 217.84C211.809 218.722 212.187 219.064 212.673 219.064C213.177 219.064 213.519 218.974 214.095 218.65ZM221.363 216.526L221.615 215.122C221.831 213.862 221.309 212.566 219.977 212.566C218.321 212.566 217.097 214.276 217.097 216.652C217.097 218.056 217.709 219.082 218.933 219.082C220.193 219.082 221.093 218.11 221.363 216.526ZM223.595 211.684L222.443 218.218C222.371 218.632 222.389 219.028 222.911 219.028C223.055 219.028 223.217 219.01 223.433 218.956L223.253 219.946C223.001 220.036 222.695 220.09 222.389 220.09C221.489 220.09 221.021 219.568 221.093 218.614C220.589 219.748 219.599 220.216 218.555 220.216C216.953 220.216 215.765 219.01 215.765 216.814C215.765 213.97 217.403 211.486 219.851 211.486C221.003 211.486 221.795 211.99 222.011 213.088L222.461 211.684H223.595ZM230.82 216.58L231.09 215.122C231.306 213.88 230.82 212.566 229.47 212.566C227.76 212.566 226.554 214.312 226.554 216.67C226.554 218.074 227.13 219.082 228.372 219.082C229.686 219.082 230.55 218.146 230.82 216.58ZM233.052 211.684L231.54 220.27C231.108 222.664 229.938 223.798 227.508 223.798C225.294 223.798 224.466 222.718 224.322 221.494L225.546 221.08C225.618 222.034 226.356 222.79 227.598 222.79C229.146 222.79 229.848 221.89 230.154 220.324L230.478 218.65C229.974 219.784 229.11 220.198 228.048 220.198C226.428 220.198 225.222 218.992 225.222 216.796C225.222 213.97 226.896 211.486 229.362 211.486C230.514 211.486 231.252 211.99 231.468 213.088L231.918 211.684H233.052ZM237.516 219.154C238.758 219.154 239.262 218.632 239.568 217.732L240.81 218.038C240.198 219.73 239.01 220.216 237.39 220.216C235.392 220.216 234.222 218.812 234.222 216.688C234.222 213.304 236.274 211.486 238.272 211.486C240.396 211.486 241.224 212.926 241.224 214.456C241.224 215.032 241.116 215.608 240.864 216.148H235.5C235.374 217.606 235.932 219.154 237.516 219.154ZM235.662 215.05H239.82C239.892 214.852 239.91 214.636 239.91 214.42C239.91 213.43 239.37 212.566 238.2 212.566C236.814 212.566 235.986 213.736 235.662 215.05ZM247.067 217.12L248.291 211.342H253.529L253.331 212.512H249.317L248.489 216.256C248.813 215.968 249.317 215.77 249.947 215.77C251.693 215.77 252.611 217.102 252.593 218.614C252.575 221.152 250.829 222.484 248.633 222.484C246.635 222.484 245.627 221.44 245.627 219.964L246.941 219.676C246.941 220.9 247.661 221.422 248.813 221.422C249.983 221.422 251.207 220.666 251.207 218.812C251.207 217.588 250.559 216.76 249.371 216.76C248.867 216.76 248.471 216.904 248.165 217.12H247.067Z" fill="white"/>
<path d="M161.54 241.624L163.772 240.634C163.97 241.678 164.744 242.344 165.752 242.344C166.562 242.344 167.156 242.02 167.156 241.3C167.156 240.616 166.778 240.292 165.392 239.86C162.962 239.086 161.954 238.168 161.954 236.35C161.954 233.956 163.826 233.164 165.68 233.164C167.858 233.164 169.478 233.902 169.694 235.918L167.264 236.53C167.174 235.594 166.472 235.18 165.734 235.18C165.05 235.18 164.51 235.486 164.51 236.17C164.51 236.908 165.086 237.196 166.328 237.574C168.56 238.276 169.694 239.032 169.694 241.066C169.694 243.37 167.822 244.216 165.572 244.216C163.484 244.216 162.08 243.532 161.54 241.624ZM176.671 241.642L177.085 243.676C176.383 244.036 175.519 244.216 174.529 244.216C172.873 244.216 171.793 243.442 171.793 241.534V237.538H170.587V235.684H171.811V233.92L174.223 233.632V235.684H176.689V237.538H174.205V240.994C174.205 241.876 174.547 242.164 175.213 242.164C175.735 242.164 176.185 241.984 176.671 241.642ZM182.553 241.39V240.544C180.861 240.49 180.267 240.94 180.267 241.678C180.267 242.164 180.609 242.506 181.185 242.506C181.815 242.506 182.553 242.2 182.553 241.39ZM184.929 238.24V241.48C184.929 242.038 185.163 242.236 185.541 242.236C185.739 242.236 185.901 242.182 186.063 242.11V243.856C185.721 244.072 185.271 244.162 184.695 244.162C183.633 244.162 182.985 243.748 182.715 242.848C182.337 243.874 181.437 244.216 180.303 244.216C178.827 244.216 177.855 243.352 177.855 241.93C177.855 240.076 179.349 239.068 182.553 239.248V238.456C182.553 237.736 182.247 237.304 181.581 237.304C180.915 237.304 180.573 237.754 180.537 238.528L178.143 238.078C178.269 236.314 179.763 235.486 181.671 235.486C183.741 235.486 184.929 236.386 184.929 238.24ZM193.244 235.504L192.974 238.168C192.668 238.06 192.416 238.024 192.038 238.024C191.084 238.024 189.914 238.492 189.914 240.202V244H187.502V235.684H189.59L189.878 237.97C190.238 236.53 191.048 235.378 193.244 235.504ZM199.716 241.642L200.13 243.676C199.428 244.036 198.564 244.216 197.574 244.216C195.918 244.216 194.838 243.442 194.838 241.534V237.538H193.632V235.684H194.856V233.92L197.268 233.632V235.684H199.734V237.538H197.25V240.994C197.25 241.876 197.592 242.164 198.258 242.164C198.78 242.164 199.23 241.984 199.716 241.642ZM210.632 241.642L211.046 243.676C210.344 244.036 209.48 244.216 208.49 244.216C206.834 244.216 205.754 243.442 205.754 241.534V237.538H204.548V235.684H205.772V233.92L208.184 233.632V235.684H210.65V237.538H208.166V240.994C208.166 241.876 208.508 242.164 209.174 242.164C209.696 242.164 210.146 241.984 210.632 241.642ZM214.858 231.976V237.268C215.29 236.044 216.172 235.486 217.45 235.486C218.728 235.486 219.898 236.242 219.898 238.114V244H217.486V239.014C217.486 238.096 217.234 237.502 216.37 237.502C215.596 237.502 214.858 237.934 214.858 239.41V244H212.446V231.976H214.858ZM225.606 242.362C226.254 242.362 226.794 242.11 227.064 241.228L229.116 241.93C228.684 243.622 227.19 244.216 225.552 244.216C223.176 244.216 221.538 242.65 221.538 239.968C221.538 237.106 223.086 235.486 225.588 235.486C227.946 235.486 229.098 237.034 229.098 239.176C229.098 239.536 229.062 239.914 228.99 240.256H223.86C223.914 241.534 224.508 242.362 225.606 242.362ZM223.932 238.924H226.794C226.812 238.816 226.812 238.744 226.812 238.636C226.812 237.862 226.362 237.268 225.498 237.268C224.598 237.268 224.022 237.952 223.932 238.924ZM236.658 244L233.742 235.684H236.298L237.432 239.464C237.846 240.832 237.99 242.164 237.99 242.164H238.062C238.062 242.164 238.242 240.814 238.656 239.482L239.862 235.684H242.328L239.304 244H236.658ZM246.946 242.362C247.594 242.362 248.134 242.11 248.404 241.228L250.456 241.93C250.024 243.622 248.53 244.216 246.892 244.216C244.516 244.216 242.878 242.65 242.878 239.968C242.878 237.106 244.426 235.486 246.928 235.486C249.286 235.486 250.438 237.034 250.438 239.176C250.438 239.536 250.402 239.914 250.33 240.256H245.2C245.254 241.534 245.848 242.362 246.946 242.362ZM245.272 238.924H248.134C248.152 238.816 248.152 238.744 248.152 238.636C248.152 237.862 247.702 237.268 246.838 237.268C245.938 237.268 245.362 237.952 245.272 238.924ZM254.259 235.684L254.547 237.286C254.997 236.044 255.933 235.486 257.211 235.486C258.489 235.486 259.659 236.242 259.659 238.114V244H257.247V239.014C257.247 238.096 256.995 237.502 256.131 237.502C255.357 237.502 254.619 237.934 254.619 239.428V244H252.207V235.684H254.259ZM266.97 241.642L267.384 243.676C266.682 244.036 265.818 244.216 264.828 244.216C263.172 244.216 262.092 243.442 262.092 241.534V237.538H260.886V235.684H262.11V233.92L264.522 233.632V235.684H266.988V237.538H264.504V240.994C264.504 241.876 264.846 242.164 265.512 242.164C266.034 242.164 266.484 241.984 266.97 241.642ZM273.985 244L273.697 242.452C273.409 243.586 272.653 244.216 271.123 244.216C269.647 244.216 268.621 243.46 268.621 241.534V235.684H271.033V240.85C271.033 241.84 271.339 242.398 272.167 242.398C272.995 242.398 273.661 241.75 273.661 240.148V235.684H276.073V244H273.985ZM284.088 235.504L283.818 238.168C283.512 238.06 283.26 238.024 282.882 238.024C281.928 238.024 280.758 238.492 280.758 240.202V244H278.346V235.684H280.434L280.722 237.97C281.082 236.53 281.892 235.378 284.088 235.504ZM288.729 242.362C289.377 242.362 289.917 242.11 290.187 241.228L292.239 241.93C291.807 243.622 290.313 244.216 288.675 244.216C286.299 244.216 284.661 242.65 284.661 239.968C284.661 237.106 286.209 235.486 288.711 235.486C291.069 235.486 292.221 237.034 292.221 239.176C292.221 239.536 292.185 239.914 292.113 240.256H286.983C287.037 241.534 287.631 242.362 288.729 242.362ZM287.055 238.924H289.917C289.935 238.816 289.935 238.744 289.935 238.636C289.935 237.862 289.485 237.268 288.621 237.268C287.721 237.268 287.145 237.952 287.055 238.924Z" fill="white"/>
<circle cx="227.5" cy="227.5" r="225.5" stroke="#E7E6ED" stroke-width="4"/>
</svg>
