<?xml version="1.0" encoding="UTF-8"?><svg id="g" xmlns="http://www.w3.org/2000/svg" viewBox="0 0 665.36 595.28"><g><path d="m531.14,536.01c11.77,0,21.32,9.54,21.32,21.32s-9.54,21.32-21.32,21.32" style="fill:none; stroke:#aeadc1; stroke-dasharray:0 6; stroke-miterlimit:10;"/><path d="m368.66,536.01c-11.77,0-21.32-9.54-21.32-21.32s9.54-21.32,21.32-21.32" style="fill:none; stroke:#aeadc1; stroke-dasharray:0 6; stroke-miterlimit:10;"/><path d="m573.07,406.52c23.98,0,43.43,19.44,43.43,43.43s-19.44,43.43-43.43,43.43" style="fill:none; stroke:#aeadc1; stroke-dasharray:0 6; stroke-miterlimit:10;"/><line x1="531.14" y1="578.65" x2="428.85" y2="578.65" style="fill:none; stroke:#aeadc1; stroke-dasharray:0 6; stroke-miterlimit:10;"/><line x1="531.14" y1="536.01" x2="368.66" y2="536.01" style="fill:none; stroke:#aeadc1; stroke-dasharray:0 6; stroke-miterlimit:10;"/><line x1="573.07" y1="406.52" x2="400.89" y2="406.52" style="fill:none; stroke:#aeadc1; stroke-dasharray:0 6; stroke-miterlimit:10;"/><line x1="573.07" y1="493.38" x2="368.66" y2="493.38" style="fill:none; stroke:#aeadc1; stroke-dasharray:0 6; stroke-miterlimit:10;"/></g><circle cx="205.81" cy="232.14" r="153.75" transform="translate(-103.87 213.52) rotate(-45)" style="fill:none; stroke:#aeadc1; stroke-dasharray:0 0 5.96 5.96; stroke-miterlimit:10;"/><rect x="116.75" y="179.94" width="467.24" height="296.52" style="fill:#e3e5f3;"/><rect x="111.55" y="176.76" width="467.24" height="296.52" style="fill:none; stroke:#32406d; stroke-miterlimit:10;"/><g><path d="m130.05,459.43c66.68-32.34,146.59-32.6,213.48-.78.74.35,1.63-.13,1.63-.89V163.76s0,0,0,0c-69.61-22.26-145.5-22.26-215.11,0h0s0,295.67,0,295.67Z" style="fill:#fff; stroke:#32406d; stroke-miterlimit:10;"/><path d="m560.27,459.43c-66.7-32.35-146.65-32.6-213.56-.74-.71.34-1.55-.12-1.55-.85V163.76s0,0,0,0c69.61-22.26,145.5-22.26,215.11,0h0s0,295.67,0,295.67Z" style="fill:#fff; stroke:#32406d; stroke-miterlimit:10;"/></g><g><g><path d="m136.17,441.65c64.78-31.42,142.42-31.67,207.41-.76.72.34,1.58-.13,1.58-.87V154.39s0,0,0,0c-67.63-21.63-141.36-21.63-208.99,0h0s0,287.27,0,287.27Z" style="fill:none; stroke:#32406d; stroke-miterlimit:10;"/><path d="m554.16,441.65c-64.81-31.43-142.48-31.67-207.49-.72-.69.33-1.51-.12-1.51-.82V154.39s0,0,0,0c67.63-21.63,141.36-21.63,208.99,0h0s0,287.27,0,287.27Z" style="fill:none; stroke:#32406d; stroke-miterlimit:10;"/></g><g><path d="m136.17,441.65c64.78-31.42,142.42-31.67,207.41-.76.72.34,1.58-.13,1.58-.87V154.39s0,0,0,0c-67.63-21.63-141.36-21.63-208.99,0h0s0,287.27,0,287.27Z" style="fill:#dedce4; stroke:#32406d; stroke-miterlimit:10;"/><path d="m554.16,441.65c-64.81-31.43-142.48-31.67-207.49-.72-.69.33-1.51-.12-1.51-.82V154.39s0,0,0,0c67.63-21.63,141.36-21.63,208.99,0h0s0,287.27,0,287.27Z" style="fill:#dedce4; stroke:#32406d; stroke-miterlimit:10;"/></g></g><g><path d="m142.3,426.3c62.88-30.5,138.24-30.74,201.33-.74.7.33,1.54-.12,1.54-.84V147.46s0,0,0,0c-65.65-20.99-137.21-20.99-202.86,0h0s0,278.84,0,278.84Z" style="fill:#fff; stroke:#32406d; stroke-miterlimit:10;"/><path d="m548.03,426.3c-62.91-30.51-138.3-30.74-201.4-.7-.67.32-1.46-.12-1.46-.8V147.46s0,0,0,0c65.65-20.99,137.21-20.99,202.86,0h0s0,278.84,0,278.84Z" style="fill:#fff; stroke:#32406d; stroke-miterlimit:10;"/></g><g><path d="m599.82,256.3h0s5.27-7.91,5.27-7.91c3.68-5.52,2.19-12.98-3.33-16.66l-1.44-.96c-5.52-3.68-12.98-2.19-16.66,3.33l-5.27,7.91h0l-54.72,82.07,21.42,14.28,54.72-82.07Z" style="fill:#fff; fill-rule:evenodd;"/><g><polygon points="555.77 325.63 545.66 340.8 523.03 350.53 523.16 344.74 524.23 326.52 534.35 311.35 557.28 300.17 555.77 325.63" style="fill:#fff; fill-rule:evenodd;"/><path d="m588.52,229.99h1.73c6.63,0,12.01,5.38,12.01,12.01v32.02h-25.75v-32.02c0-6.63,5.38-12.01,12.01-12.01Z" transform="translate(238.81 -284.63) rotate(33.69)" style="fill:#fff;"/><rect x="512.99" y="279.75" width="98.63" height="25.75" transform="translate(6.9 598.14) rotate(-56.31)" style="fill:#8786a3;"/></g><polyline points="555.22 323.19 544.76 338.88 522.18 349.54 522.61 342.31 523.43 324.46 533.8 308.91" style="fill:none; fill-rule:evenodd; stroke:#32406d; stroke-miterlimit:10;"/><path d="m599.82,256.3h0s5.27-7.91,5.27-7.91c3.68-5.52,2.19-12.98-3.33-16.66l-1.44-.96c-5.52-3.68-12.98-2.19-16.66,3.33l-5.27,7.91h0l-54.72,82.07,21.42,14.28,54.72-82.07Z" style="fill:none; fill-rule:evenodd; stroke:#32406d; stroke-miterlimit:10;"/><line x1="578.4" y1="242.01" x2="599.82" y2="256.3" style="fill:none; stroke:#32406d; stroke-miterlimit:10; stroke-width:3px;"/><g><polygon points="523.05 343.21 527.69 346.3 522.73 348.72 523.05 343.21" style="fill:#32406d;"/><path d="m523.5,344.11l3.19,2.12-3.41,1.66.22-3.79m-.9-1.8l-.43,7.24,6.51-3.18-6.09-4.06h0Z" style="fill:#32406d;"/></g></g><g><g><rect x="371.67" y="459.54" width="19.04" height="19.04" style="fill:#fff;"/><polyline points="366.06 469.8 375.71 479.45 396.49 458.67" style="fill:none; fill-rule:evenodd; stroke:#fff; stroke-miterlimit:10; stroke-width:4px;"/><rect x="370.19" y="456.51" width="19.04" height="19.04" style="fill:#fff; stroke:#32406d; stroke-miterlimit:10;"/><g><path d="m363.79,468.27l2.29-2.29,7.8,7.8c.09.09.22.15.35.15s.26-.05.35-.15l18.93-18.93,2.29,2.29-21.57,21.57-10.44-10.44Z" style="fill:#ef4d7f;"/><path d="m393.51,455.56l1.58,1.58-20.86,20.86-9.73-9.73,1.58-1.58,7.44,7.45c.19.19.44.29.71.29s.52-.11.71-.29l18.57-18.57m0-1.41l-19.28,19.28-8.15-8.15-2.99,2.99,11.15,11.15,22.27-22.27-2.99-2.99h0Z" style="fill:#32406d;"/></g></g><g><rect x="371.67" y="506.83" width="19.04" height="19.04" style="fill:#fff;"/><polyline points="366.06 517.09 375.71 526.74 396.49 505.96" style="fill:#ebecf7; fill-rule:evenodd; stroke:#fff; stroke-miterlimit:10; stroke-width:4px;"/><rect x="370.19" y="503.81" width="19.04" height="19.04" style="fill:#fff; stroke:#32406d; stroke-miterlimit:10;"/><g><path d="m363.79,515.56l2.29-2.29,7.8,7.8c.09.09.22.15.35.15s.26-.05.35-.15l18.93-18.93,2.29,2.29-21.57,21.57-10.44-10.44Z" style="fill:#ef4d7f;"/><path d="m393.51,502.85l1.58,1.58-20.86,20.86-9.73-9.73,1.58-1.58,7.44,7.44c.2.2.45.29.71.29s.51-.1.71-.29l18.57-18.57m0-1.41l-19.28,19.28-8.15-8.15-2.99,2.99,11.15,11.15,22.27-22.27-2.99-2.99h0Z" style="fill:#32406d;"/></g></g><g><rect x="371.67" y="554.04" width="19.04" height="19.04" style="fill:#fff;"/><rect x="370.19" y="551.02" width="19.04" height="19.04" style="fill:#fff; stroke:#32406d; stroke-miterlimit:10;"/></g></g><g><polygon points="220.95 384.8 91.2 384.8 91.2 312.83 245.95 312.83 245.95 359.8 220.95 384.8" style="fill:#fff;"/><polygon points="223.48 386.47 93.74 386.47 93.74 314.5 248.48 314.5 248.48 361.47 223.48 386.47" style="fill:#dedce4;"/><polygon points="223.48 386.47 223.47 386.47 223.47 361.47 248.48 361.47 248.48 361.47 223.48 386.47" style="fill:#aeadc1;"/><polygon points="221 384.75 221 384.75 221 359.74 246.01 359.74 246.01 359.75 221 384.75" style="fill:none; stroke:#32406d; stroke-miterlimit:10;"/><polygon points="220.95 384.8 91.2 384.8 91.2 312.83 245.95 312.83 245.95 359.8 220.95 384.8" style="fill:none; stroke:#32406d; stroke-miterlimit:10;"/></g><g><polygon points="254.91 194.12 156.7 194.12 156.7 95.92 254.91 95.92 254.91 178.76 254.91 194.12" style="fill:#fff; fill-rule:evenodd;"/><rect x="158.75" y="100.01" width="98.2" height="98.2" style="fill:#dedce4;"/><polygon points="254.91 194.12 156.7 194.12 156.7 95.92 254.91 95.92 254.91 178.76 254.91 194.12" style="fill:none; fill-rule:evenodd; stroke:#32406d; stroke-miterlimit:10;"/></g><g><path d="m167.15,110.52c.44.87.53,1.3.53,1.3h.05s.08-.43.49-1.3l1.13-2.43h1.26l-2.34,4.76v2.9h-1.2v-2.9l-2.5-4.76h1.37l1.2,2.43Z" style="fill:#32406d;"/><path d="m170.76,112.71c0-2.04,1.08-3.11,2.73-3.11s2.74,1.07,2.74,3.11-1.08,3.2-2.74,3.2-2.73-1.14-2.73-3.2Zm1.16.01c0,1.51.53,2.26,1.57,2.26s1.59-.75,1.59-2.26-.55-2.17-1.59-2.17-1.57.7-1.57,2.17Z" style="fill:#32406d;"/><path d="m181.31,114.66c-.29.88-.9,1.25-1.85,1.25-1.09,0-1.82-.56-1.82-1.99v-4.17h1.17v3.99c0,.88.34,1.3,1.08,1.3.65,0,1.39-.58,1.39-1.74v-3.55h1.17v6.01h-1l-.14-1.09Z" style="fill:#32406d;"/><path d="m187.69,110.93c-.14-.03-.34-.05-.53-.05-.85,0-1.66.66-1.66,1.83v3.04h-1.17v-6.01h.99l.14,1.62c.23-1.08.99-1.82,2.33-1.76l-.09,1.31Z" style="fill:#32406d;"/><path d="m166.56,133.99h-1.17v-8.64h.96l.14,1.16c.35-.97,1.24-1.3,1.99-1.3,1.47,0,2.37,1.07,2.37,3,0,1.83-.94,3.3-2.6,3.3-.92,0-1.48-.43-1.69-.95v3.43Zm0-4.97c0,1.16.78,1.6,1.46,1.6.9,0,1.64-.73,1.64-2.31,0-1.44-.58-2.15-1.51-2.15-.86,0-1.59.64-1.59,1.75v1.11Z" style="fill:#32406d;"/><path d="m176,129.61l1.03.27c-.25,1.21-1.26,1.62-2.41,1.62-1.6,0-2.68-1.11-2.68-3.11s1.07-3.2,2.74-3.2c1.55,0,2.38,1.07,2.38,2.56,0,.34-.05.65-.12.83h-3.87c.05,1.17.6,1.99,1.61,1.99.66,0,1.11-.26,1.31-.98Zm-.09-1.86c.01-.09.01-.17.01-.25,0-.77-.49-1.38-1.3-1.38-.86,0-1.4.58-1.52,1.62h2.81Z" style="fill:#32406d;"/><path d="m181.92,126.53c-.14-.03-.34-.05-.53-.05-.85,0-1.66.66-1.66,1.83v3.04h-1.17v-6.01h.99l.14,1.62c.23-1.08.99-1.82,2.33-1.75l-.09,1.31Z" style="fill:#32406d;"/><path d="m183.44,129.69c.09.69.58.99,1.3.99s1.2-.26,1.2-.81c0-.49-.22-.77-.94-.95l-.88-.21c-1.09-.26-1.51-.82-1.51-1.7,0-1.35,1.12-1.81,2.26-1.81,1.26,0,2.04.46,2.16,1.62l-1.14.13c-.04-.6-.4-.87-1.09-.87s-1.05.3-1.05.81c0,.43.17.7.82.84l.83.2c1.07.26,1.66.75,1.66,1.81,0,1.29-1.01,1.77-2.33,1.77s-2.16-.42-2.33-1.51l1.04-.31Z" style="fill:#32406d;"/><path d="m188.04,128.31c0-2.04,1.08-3.11,2.73-3.11s2.74,1.07,2.74,3.11-1.08,3.2-2.74,3.2-2.73-1.14-2.73-3.2Zm1.16.01c0,1.51.53,2.26,1.57,2.26s1.59-.75,1.59-2.26-.55-2.17-1.59-2.17-1.57.7-1.57,2.17Z" style="fill:#32406d;"/><path d="m196.06,126.5c.33-.9,1.01-1.3,1.92-1.3.99,0,1.82.55,1.82,1.86v4.29h-1.17v-3.94c0-.74-.34-1.2-1.05-1.2s-1.42.39-1.42,1.69v3.45h-1.17v-6.01h.92l.14,1.16Z" style="fill:#32406d;"/><path d="m205.82,129.93c0,.46.21.56.44.56.14,0,.25-.03.34-.06v.91c-.17.06-.38.1-.64.1-.69,0-1.13-.29-1.24-.96-.31.75-1.01,1.03-1.78,1.03-1.05,0-1.79-.6-1.79-1.62,0-1.33,1.03-2.09,3.48-1.98v-.74c0-.74-.44-1.03-1.08-1.03s-1.04.34-1.09.96l-1.12-.17c.09-1.27,1.21-1.73,2.31-1.73,1.17,0,2.16.47,2.16,1.85v2.89Zm-1.18-1.26c-1.61-.04-2.31.32-2.31,1.08,0,.49.32.87.96.87s1.35-.38,1.35-1.08v-.87Z" style="fill:#32406d;"/><path d="m209.87,131.35c-.31.08-.52.1-.73.1-.75,0-1.38-.4-1.38-1.3v-7.49h1.17v7.24c0,.38.22.53.53.53.17,0,.29-.03.42-.06v.97Z" style="fill:#32406d;"/><path d="m166.56,140.94v6.1c0,1.98-1.08,2.61-2.86,2.55v-.99c1.17.1,1.69-.34,1.69-1.51v-6.15h1.17Zm-.58-2.7c.44,0,.81.31.81.78,0,.44-.36.78-.81.78s-.78-.34-.78-.78c0-.47.35-.78.78-.78Z" style="fill:#32406d;"/><path d="m168.05,143.91c0-2.04,1.08-3.11,2.73-3.11s2.74,1.07,2.74,3.11-1.08,3.2-2.74,3.2-2.73-1.14-2.73-3.2Zm1.16.01c0,1.51.53,2.26,1.57,2.26s1.59-.75,1.59-2.26-.55-2.17-1.59-2.17-1.57.7-1.57,2.17Z" style="fill:#32406d;"/><path d="m178.59,145.86c-.29.88-.9,1.25-1.85,1.25-1.09,0-1.82-.56-1.82-1.99v-4.17h1.17v3.99c0,.88.34,1.3,1.08,1.3.65,0,1.39-.58,1.39-1.74v-3.55h1.17v6.01h-1l-.14-1.09Z" style="fill:#32406d;"/><path d="m184.97,142.13c-.14-.03-.34-.05-.53-.05-.85,0-1.66.66-1.66,1.83v3.04h-1.17v-6.01h.99l.14,1.62c.23-1.08.99-1.82,2.33-1.75l-.09,1.31Z" style="fill:#32406d;"/><path d="m187.3,142.1c.33-.9,1.01-1.3,1.92-1.3.99,0,1.82.55,1.82,1.86v4.29h-1.17v-3.94c0-.74-.34-1.2-1.05-1.2s-1.42.39-1.42,1.69v3.45h-1.17v-6.01h.92l.14,1.16Z" style="fill:#32406d;"/><path d="m196.52,145.21l1.03.27c-.25,1.21-1.26,1.62-2.4,1.62-1.6,0-2.68-1.11-2.68-3.11s1.07-3.2,2.74-3.2c1.55,0,2.38,1.07,2.38,2.56,0,.34-.05.65-.12.83h-3.87c.05,1.17.6,1.99,1.61,1.99.66,0,1.11-.26,1.31-.98Zm-.09-1.86c.01-.09.01-.17.01-.25,0-.77-.49-1.38-1.3-1.38-.86,0-1.4.58-1.52,1.62h2.81Z" style="fill:#32406d;"/><path d="m200.48,144.25c.36,1.17.47,1.9.47,1.9h.05s.1-.72.46-1.9l1-3.3h1.22l-2.21,6.5c-.61,1.77-1.38,2.21-2.44,2.21-.29,0-.61-.05-.87-.14l.1-1c.26.13.49.18.78.18.64,0,1-.34,1.35-1.39l-2.22-6.36h1.29l1.03,3.3Z" style="fill:#32406d;"/></g><g><path d="m112.12,351.29c0-2.56,1.35-3.99,3.46-3.99s3.45,1.43,3.45,3.99-1.34,3.98-3.45,3.98-3.46-1.43-3.46-3.98Zm1.26,0c0,1.83.75,2.94,2.2,2.94s2.18-1.11,2.18-2.94-.75-2.94-2.18-2.94-2.2,1.12-2.2,2.94Z" style="fill:#32406d;"/><path d="m119.7,349.11h1.27l1.04,3.3c.35,1.13.47,1.91.47,1.91h.05s.09-.77.44-1.91l1-3.3h1.24l-2.05,6.01h-1.37l-2.09-6.01Z" style="fill:#32406d;"/><path d="m129.85,353.37l1.03.27c-.25,1.21-1.26,1.62-2.4,1.62-1.6,0-2.68-1.11-2.68-3.11s1.07-3.2,2.74-3.2c1.55,0,2.38,1.07,2.38,2.56,0,.34-.05.65-.12.83h-3.87c.05,1.17.6,1.99,1.61,1.99.66,0,1.11-.26,1.31-.98Zm-.09-1.86c.01-.09.01-.17.01-.25,0-.77-.49-1.38-1.3-1.38-.86,0-1.4.58-1.52,1.62h2.81Z" style="fill:#32406d;"/><path d="m135.76,350.29c-.14-.03-.34-.05-.53-.05-.85,0-1.66.66-1.66,1.83v3.04h-1.17v-6.01h.99l.14,1.62c.23-1.08.99-1.82,2.33-1.75l-.09,1.31Z" style="fill:#32406d;"/><path d="m136.19,349.11h1.27l1.04,3.3c.35,1.13.47,1.91.47,1.91h.05s.09-.77.44-1.91l1-3.3h1.24l-2.05,6.01h-1.37l-2.09-6.01Z" style="fill:#32406d;"/><path d="m143.32,346.4c.46,0,.82.31.82.78,0,.44-.36.78-.82.78-.42,0-.78-.34-.78-.78,0-.47.36-.78.78-.78Zm.6,2.7v6.01h-1.17v-6.01h1.17Z" style="fill:#32406d;"/><path d="m149.45,353.37l1.03.27c-.25,1.21-1.26,1.62-2.4,1.62-1.6,0-2.68-1.11-2.68-3.11s1.07-3.2,2.74-3.2c1.55,0,2.38,1.07,2.38,2.56,0,.34-.05.65-.12.83h-3.87c.05,1.17.6,1.99,1.61,1.99.66,0,1.11-.26,1.31-.98Zm-.09-1.86c.01-.09.01-.17.01-.25,0-.77-.49-1.38-1.3-1.38-.86,0-1.4.58-1.52,1.62h2.81Z" style="fill:#32406d;"/><path d="m156.89,352.23c.34,1.21.4,2.04.4,2.04h.05s.04-.82.34-2.04l.81-3.12h1.18l-1.64,6.01h-1.4l-.79-2.85c-.33-1.14-.39-1.9-.39-1.9h-.05s-.06.74-.36,1.9l-.75,2.85h-1.4l-1.68-6.01h1.21l.82,3.12c.33,1.21.4,2.04.4,2.04h.05s.04-.86.36-2.05l.83-3.11h1.17l.84,3.12Z" style="fill:#32406d;"/><path d="m168.68,355.11h-1.44l-2.09-2.69h-.36v2.69h-1.17v-8.68h1.17v5.08h.3l1.99-2.4h1.42l-2.42,2.79,2.61,3.21Z" style="fill:#32406d;"/><path d="m170.76,350.26c.33-.9,1.01-1.3,1.92-1.3.99,0,1.82.55,1.82,1.86v4.29h-1.17v-3.94c0-.74-.34-1.2-1.05-1.2s-1.42.39-1.42,1.69v3.45h-1.17v-6.01h.92l.14,1.16Z" style="fill:#32406d;"/><path d="m175.92,352.07c0-2.04,1.08-3.11,2.73-3.11s2.74,1.07,2.74,3.11-1.08,3.2-2.74,3.2-2.73-1.14-2.73-3.2Zm1.16.01c0,1.51.53,2.26,1.57,2.26s1.59-.75,1.59-2.26-.55-2.17-1.59-2.17-1.57.7-1.57,2.17Z" style="fill:#32406d;"/><path d="m187.76,352.23c.34,1.21.4,2.04.4,2.04h.05s.04-.82.34-2.04l.81-3.12h1.18l-1.64,6.01h-1.4l-.79-2.85c-.33-1.14-.39-1.9-.39-1.9h-.05s-.06.74-.36,1.9l-.75,2.85h-1.4l-1.68-6.01h1.21l.82,3.12c.33,1.21.4,2.04.4,2.04h.05s.04-.86.36-2.05l.83-3.11h1.17l.84,3.12Z" style="fill:#32406d;"/><path d="m193.64,355.11c-.31.08-.52.1-.73.1-.75,0-1.38-.4-1.38-1.3v-7.49h1.17v7.24c0,.38.22.53.53.53.17,0,.29-.03.42-.06v.97Z" style="fill:#32406d;"/><path d="m198.54,353.37l1.03.27c-.25,1.21-1.26,1.62-2.4,1.62-1.6,0-2.68-1.11-2.68-3.11s1.07-3.2,2.74-3.2c1.55,0,2.38,1.07,2.38,2.56,0,.34-.05.65-.12.83h-3.87c.05,1.17.6,1.99,1.61,1.99.66,0,1.11-.26,1.31-.98Zm-.09-1.86c.01-.09.01-.17.01-.25,0-.77-.49-1.38-1.3-1.38-.86,0-1.4.58-1.52,1.62h2.81Z" style="fill:#32406d;"/><path d="m204.98,346.43h1.18v8.68h-1.04l-.13-1.04c-.34.91-1.05,1.2-1.91,1.2-1.26,0-2.38-1.03-2.38-3.06s.98-3.25,2.69-3.25c.77,0,1.42.43,1.59.95v-3.48Zm.01,4.97c0-1.07-.81-1.52-1.5-1.52-.88,0-1.61.61-1.61,2.3,0,1.42.62,2.17,1.6,2.17.66,0,1.51-.53,1.51-1.62v-1.33Z" style="fill:#32406d;"/><path d="m211.81,349.45c.29-.16.38-.47.46-.91l1.01.35c-.09.57-.51.96-1,1.08.18.31.27.69.27,1.13,0,1.39-1.12,2.08-2.47,2.08-.3,0-.61-.04-.78-.1-.3.16-.4.36-.4.62,0,.34.22.49.64.49h1.47c1.37,0,2.09.6,2.09,1.68,0,1.57-1.69,1.99-3.26,1.99-1.33,0-2.63-.34-2.63-1.57,0-.78.56-1.3,1.55-1.38-.55-.07-.83-.46-.83-.94s.25-.88.88-1.05c-.73-.33-1.17-.94-1.17-1.82,0-1.35.99-2.13,2.43-2.13.71,0,1.3.16,1.74.48Zm-1.86,7.58c1.22,0,2.01-.23,2.01-.99,0-.46-.25-.79-1.01-.79h-1.3c-.86,0-1.34.29-1.34.91s.69.87,1.64.87Zm.12-4.68c.79,0,1.31-.42,1.31-1.26s-.52-1.27-1.31-1.26c-.79,0-1.26.46-1.26,1.26,0,.75.46,1.26,1.26,1.26Z" style="fill:#32406d;"/><path d="m217.74,353.37l1.03.27c-.25,1.21-1.26,1.62-2.41,1.62-1.6,0-2.68-1.11-2.68-3.11s1.07-3.2,2.74-3.2c1.55,0,2.38,1.07,2.38,2.56,0,.34-.05.65-.12.83h-3.87c.05,1.17.6,1.99,1.61,1.99.66,0,1.11-.26,1.31-.98Zm-.09-1.86c.01-.09.01-.17.01-.25,0-.77-.49-1.38-1.3-1.38-.86,0-1.4.58-1.52,1.62h2.81Z" style="fill:#32406d;"/></g><g><path d="m445.25,363.75v3.95h-.95l-.16-.99c-.31.75-1.22,1.14-2.11,1.14-1.96,0-3.33-1.37-3.33-3.95s1.44-4.02,3.58-4.02c1.46,0,2.39.61,2.87,1.85l-1.12.55c-.31-.92-.99-1.37-1.82-1.37-1.34,0-2.26,1.05-2.26,2.99,0,1.73.7,2.96,2.2,2.96,1.03,0,1.91-.48,1.91-1.51v-.57h-1.86v-1.04h3.04Z" style="fill:#32406d;"/><path d="m450.37,362.88c-.14-.03-.34-.05-.53-.05-.85,0-1.66.66-1.66,1.83v3.04h-1.17v-6.01h.99l.14,1.62c.23-1.08.99-1.82,2.33-1.75l-.09,1.31Z" style="fill:#32406d;"/><path d="m455.68,366.29c0,.46.21.56.44.56.14,0,.25-.03.34-.06v.91c-.17.06-.38.1-.64.1-.69,0-1.13-.29-1.23-.96-.31.75-1.01,1.03-1.78,1.03-1.05,0-1.79-.6-1.79-1.62,0-1.33,1.03-2.09,3.48-1.98v-.74c0-.74-.44-1.03-1.08-1.03s-1.04.34-1.09.96l-1.12-.17c.09-1.27,1.21-1.73,2.31-1.73,1.17,0,2.16.47,2.16,1.85v2.89Zm-1.18-1.26c-1.61-.04-2.31.32-2.31,1.08,0,.49.33.87.96.87s1.35-.38,1.35-1.08v-.87Z" style="fill:#32406d;"/><path d="m458.87,370.34h-1.17v-8.64h.96l.14,1.16c.35-.97,1.24-1.3,1.99-1.3,1.47,0,2.37,1.07,2.37,3,0,1.83-.94,3.3-2.6,3.3-.92,0-1.48-.43-1.69-.95v3.43Zm0-4.97c0,1.16.78,1.6,1.46,1.6.9,0,1.64-.73,1.64-2.31,0-1.44-.58-2.15-1.51-2.15-.86,0-1.59.64-1.59,1.75v1.11Z" style="fill:#32406d;"/><path d="m465.81,362.84c.29-.86.91-1.29,1.82-1.29.99,0,1.82.55,1.82,1.86v4.29h-1.17v-3.95c0-.73-.34-1.18-1.05-1.18s-1.42.38-1.42,1.69v3.45h-1.17v-8.68h1.17v3.82Z" style="fill:#32406d;"/><path d="m471.83,359c.46,0,.82.31.82.78,0,.44-.36.78-.82.78-.42,0-.78-.34-.78-.78,0-.47.36-.78.78-.78Zm.6,2.7v6.01h-1.17v-6.01h1.17Z" style="fill:#32406d;"/><path d="m478.91,366.18c-.21,1.21-1.17,1.68-2.35,1.68-1.57,0-2.65-1.12-2.65-3.12s1.08-3.19,2.74-3.19c1.27,0,2.11.68,2.18,1.87l-1.07.22c-.1-.75-.51-1.13-1.17-1.13-1.03,0-1.56.91-1.56,2.22s.62,2.18,1.61,2.18c.64,0,1.07-.3,1.25-.99l1.01.25Z" style="fill:#32406d;"/><path d="m480.71,366.04c.09.69.58.99,1.3.99s1.2-.26,1.2-.81c0-.49-.22-.77-.94-.95l-.88-.21c-1.09-.26-1.51-.82-1.51-1.7,0-1.35,1.12-1.81,2.26-1.81,1.26,0,2.04.46,2.16,1.62l-1.14.13c-.04-.6-.4-.87-1.09-.87s-1.05.3-1.05.81c0,.43.17.7.82.84l.83.2c1.07.26,1.66.75,1.66,1.81,0,1.29-1.01,1.77-2.33,1.77s-2.16-.42-2.33-1.51l1.04-.31Z" style="fill:#32406d;"/></g><g><path d="m260.89,59.34c-16.95-.03-30.71,13.68-30.75,30.63,0,.04,0,.08,0,.12,0,16.94,30.75,48.74,30.75,48.74,0,0,30.63-31.81,30.63-48.74.03-16.95-13.68-30.71-30.63-30.75h0Z" style="fill:#fff;"/><path d="m263.67,61.33c-16.95-.03-30.71,13.68-30.75,30.63,0,.04,0,.08,0,.12,0,16.94,30.75,48.74,30.75,48.74,0,0,30.63-31.81,30.63-48.74.03-16.95-13.68-30.71-30.63-30.75h0Zm0,39.77c-4.99,0-9.03-4.04-9.03-9.03s4.04-9.03,9.03-9.03,9.03,4.04,9.03,9.03h0c0,4.99-4.04,9.03-9.03,9.03Z" style="fill:#8786a3;"/><path d="m228.08,229.63l-.15-3.06c4.16-.21,8.63-.47,13.11-1.01l.37,3.04c-4.59.56-9.31.83-13.32,1.03Zm26.56-3.68l-.88-2.93c3.99-1.2,7.49-2.73,10.68-4.66.32-.2.65-.4.96-.6l1.67,2.56c-.35.23-.7.45-1.05.66-3.41,2.06-7.14,3.69-11.38,4.97Zm20.42-17.28l-3.05-.17c0-.14.01-.27.01-.41,0-.9-.17-1.75-.49-2.52-.85-1.99-2.76-3.49-4.69-4.81-.51-.35-1.02-.69-1.54-1.02l1.66-2.57c.54.35,1.07.7,1.6,1.06,2.32,1.58,4.63,3.42,5.78,6.14.49,1.15.74,2.4.74,3.72,0,.19,0,.38-.02.57Zm-21.16-15.53c-3.34-1.89-6.89-4-10.23-6.57-.35-.27-.71-.55-1.06-.84l1.95-2.36c.32.26.64.52.97.77,3.2,2.46,6.64,4.5,9.88,6.34l-1.51,2.66Zm-19.2-18.99c-.15-.73-.24-1.47-.26-2.2,0-.15,0-.31,0-.46,0-3.57,1.45-7.22,4.32-10.85l2.4,1.9c-2.43,3.08-3.67,6.09-3.67,8.95,0,.12,0,.24,0,.35.02.56.09,1.13.2,1.7l-3,.61Zm15.94-20.15l-1.73-2.52c3.76-2.58,7.82-4.69,12.08-6.26l1.06,2.87c-4.02,1.48-7.85,3.47-11.4,5.91Z" style="fill:#ef4d7f;"/><path d="m260.89,59.34c-16.95-.03-30.71,13.68-30.75,30.63,0,.04,0,.08,0,.12,0,16.94,30.75,48.74,30.75,48.74,0,0,30.63-31.81,30.63-48.74.03-16.95-13.68-30.71-30.63-30.75h0Z" style="fill:none; stroke:#32406d; stroke-miterlimit:10;"/><path d="m227.04,228.5l-.15-3.06c4.16-.21,8.63-.47,13.11-1.01l.37,3.04c-4.59.56-9.31.83-13.32,1.03Zm26.56-3.68l-.88-2.93c3.99-1.2,7.49-2.72,10.68-4.66.32-.2.65-.4.96-.6l1.67,2.56c-.35.23-.7.45-1.05.66-3.41,2.06-7.13,3.69-11.38,4.97Zm20.42-17.28l-3.05-.17c0-.14.01-.27.01-.41,0-.9-.17-1.75-.49-2.52-.85-1.99-2.76-3.49-4.69-4.81-.51-.35-1.02-.69-1.54-1.02l1.66-2.57c.54.35,1.08.7,1.61,1.06,2.32,1.58,4.63,3.42,5.78,6.13.49,1.15.74,2.4.74,3.72,0,.19,0,.38-.02.57Zm-21.16-15.53c-3.34-1.9-6.89-4-10.23-6.57-.35-.27-.71-.55-1.06-.84l1.95-2.36c.32.26.64.52.97.77,3.19,2.46,6.64,4.5,9.88,6.34l-1.51,2.66Zm-19.2-18.99c-.15-.73-.24-1.47-.26-2.2,0-.15,0-.31,0-.46,0-3.57,1.45-7.22,4.32-10.85l2.4,1.9c-2.43,3.08-3.67,6.09-3.67,8.95,0,.12,0,.24,0,.35.02.56.09,1.13.2,1.7l-3,.61Zm15.94-20.15l-1.73-2.52c3.76-2.58,7.82-4.69,12.08-6.26l1.06,2.87c-4.02,1.48-7.85,3.47-11.4,5.91Z" style="fill:none; stroke:#32406d; stroke-miterlimit:10;"/><path d="m260.89,99.11c-4.99,0-9.03-3.93-9.03-8.78s4.04-8.78,9.03-8.78,9.03,3.93,9.03,8.78h0c0,4.85-4.04,8.78-9.03,8.78Z" style="fill:none; stroke:#32406d; stroke-miterlimit:10;"/></g><g><polygon points="129.79 330.69 117.65 330.69 116.16 319.69 131.28 319.69 129.79 330.69" style="fill:#ef4d7f;"/><path d="m143.87,296.33c0,4.46-3.65,11.35-6.32,15.8-1.55,2.58-2.77,4.34-2.77,4.34,0,.38-.05.88-.14,1.46-.49,2.99-2.15,7.95-4.12,7.95h-13.57c-1.98,0-3.64-4.96-4.12-7.95-.09-.57-.14-1.08-.14-1.46,0,0-1.22-1.77-2.77-4.34-2.67-4.45-6.32-11.34-6.32-15.8,0-11.12,9.02-20.14,20.14-20.14s20.15,9.02,20.15,20.14Z" style="fill:#fff;"/><path d="m137.55,312.13c-1.55,2.58-2.77,4.34-2.77,4.34,0,.38-.05.88-.14,1.46h-21.82c-.09-.57-.14-1.08-.14-1.46,0,0-1.22-1.77-2.77-4.34h27.65Z" style="fill:#fff;"/><polyline points="129.6 325.03 128.94 329.84 116.8 329.84 116.15 325.03" style="fill:none; stroke:#32406d; stroke-miterlimit:10;"/><path d="m143.02,295.48c0,4.46-3.65,11.35-6.32,15.8-1.55,2.58-2.77,4.34-2.77,4.34,0,.38-.05.88-.14,1.46-.49,2.99-2.15,7.95-4.12,7.95h-13.57c-1.98,0-3.64-4.96-4.12-7.95-.09-.57-.14-1.08-.14-1.46,0,0-1.22-1.77-2.77-4.34-2.67-4.45-6.32-11.34-6.32-15.8,0-11.12,9.02-20.14,20.14-20.14s20.15,9.02,20.15,20.14Z" style="fill:none; stroke:#32406d; stroke-miterlimit:10;"/><path d="m136.7,311.28c-1.55,2.58-2.77,4.34-2.77,4.34,0,.38-.05.88-.14,1.46h-21.82c-.09-.57-.14-1.08-.14-1.46,0,0-1.22-1.77-2.77-4.34h27.65Z" style="fill:#32406d; stroke:#32406d; stroke-miterlimit:10;"/></g><g><g><path d="m448.48,103.32v73.73c0,5.78,4.68,10.46,10.46,10.46h0c5.78,0,10.46-4.68,10.46-10.46v-45.24" style="fill:#fff;"/><path d="m511.25,127.94v28.11c0,5.78,4.68,10.46,10.46,10.46h0c5.78,0,10.46-4.68,10.46-10.46v-45.24s0-35.54,0-35.54c0-8.34-2.43-16.51-7-23.49l-1.87-2.85c-2.57-3.94-3.94-8.54-3.94-13.24V12.32s-76.22,0-76.22,0v40.82c0,6.13-1.72,12.14-4.95,17.34l-19.9,44.62c-3.88,5.08-2.69,12.38,2.6,15.97h0c4.88,3.31,11.5,2.24,15.08-2.44l15.04-30.75s33.73-6.67,34.77-30.83" style="fill:#fff;"/><path d="m490.33,131.81v48.67c0,5.78,4.68,10.46,10.46,10.46h0c5.78,0,10.46-4.68,10.46-10.46v-45.24" style="fill:#fff;"/><path d="m469.4,130.1v62.37c0,5.78,4.68,10.46,10.46,10.46h0c5.78,0,10.46-4.68,10.46-10.46v-62.37" style="fill:#fff;"/></g><path d="m423.38,134.14c4.88,3.31,11.5,2.24,15.08-2.44l12.5-25.57v73.99c0,5.78,4.68,10.46,10.46,10.46s10.46-4.68,10.46-10.46v15.41c0,5.78,4.68,10.46,10.46,10.46s10.46-4.68,10.46-10.46v-11.99c0,5.78,4.68,10.46,10.46,10.46s10.46-4.68,10.46-10.46v-24.43c0,5.78,4.68,10.46,10.46,10.46s10.46-4.68,10.46-10.46v-80.78c0-8.34-2.43-16.51-7-23.49l-1.87-2.85c-2.57-3.94-3.94-8.54-3.94-13.24V15.4h-76.22v40.82c0,6.13-1.72,12.14-4.95,17.34l-19.9,44.62c-3.88,5.08-2.69,12.38,2.6,15.97Z" style="fill:#aeadc1;"/><g><path d="m448.48,103.32v73.73c0,5.78,4.68,10.46,10.46,10.46h0c5.78,0,10.46-4.68,10.46-10.46v-45.24" style="fill:none; stroke:#32406d; stroke-miterlimit:10;"/><path d="m511.25,127.94v28.11c0,5.78,4.68,10.46,10.46,10.46h0c5.78,0,10.46-4.68,10.46-10.46v-45.24s0-35.54,0-35.54c0-8.34-2.43-16.51-7-23.49l-1.87-2.85c-2.57-3.94-3.94-8.54-3.94-13.24V12.32s-76.22,0-76.22,0v40.82c0,6.13-1.72,12.14-4.95,17.34l-19.9,44.62c-3.88,5.08-2.69,12.38,2.6,15.97h0c4.88,3.31,11.5,2.24,15.08-2.44l15.04-30.75s33.73-6.67,34.77-30.83" style="fill:none; stroke:#32406d; stroke-miterlimit:10;"/><path d="m490.33,131.81v48.67c0,5.78,4.68,10.46,10.46,10.46h0c5.78,0,10.46-4.68,10.46-10.46v-45.24" style="fill:none; stroke:#32406d; stroke-miterlimit:10;"/><path d="m469.4,130.1v62.37c0,5.78,4.68,10.46,10.46,10.46h0c5.78,0,10.46-4.68,10.46-10.46v-62.37" style="fill:none; stroke:#32406d; stroke-miterlimit:10;"/></g></g><g><path d="m240.98,418.7h-2.02c-6.06,0-10.97,4.91-10.97,10.97v-2.98c0-6.07-4.94-11.01-10.97-11.01h-2.02c-6.07,0-11.01,4.93-11.01,11.01v-5.96c0-6.04-4.9-10.97-10.97-10.97h-2.02c-6.04,0-10.97,4.93-10.97,10.97v-35.75c0-3.3-1.35-6.28-3.51-8.45-2.17-2.17-5.18-3.51-8.49-3.51-6.6,0-11.96,5.36-11.96,11.96v83.4l-21.69-21.69c-2.34-2.34-5.4-3.51-8.48-3.51s-6.11,1.17-8.45,3.51c-4.69,4.69-4.69,12.28,0,16.97l38.63,38.63v56.59h78.08v-16.7c9.99-.89,17.82-9.26,17.82-19.48v-93.01c0-6.06-4.91-10.97-10.97-10.97Z" style="fill:#fff;"/><path d="m244.51,423.29h-2.02c-6.06,0-10.97,4.91-10.97,10.97v-2.98c0-6.07-4.94-11.01-10.97-11.01h-2.02c-6.07,0-11.01,4.93-11.01,11.01v-5.96c0-6.04-4.9-10.97-10.97-10.97h-2.02c-6.04,0-10.97,4.93-10.97,10.97v-35.75c0-3.3-1.35-6.28-3.51-8.45-2.17-2.17-5.18-3.51-8.49-3.51-6.6,0-11.96,5.36-11.96,11.96v83.4l-21.69-21.69c-2.34-2.34-5.4-3.51-8.48-3.51s-6.11,1.17-8.45,3.51c-4.69,4.69-4.69,12.28,0,16.97l38.63,38.63v56.59h78.08v-16.7c9.99-.89,17.82-9.26,17.82-19.48v-93.01c0-6.06-4.91-10.97-10.97-10.97Z" style="fill:#aeadc1;"/><path d="m240.98,418.7h-2.02c-6.06,0-10.97,4.91-10.97,10.97v-2.98c0-6.07-4.94-11.01-10.97-11.01h-2.02c-6.07,0-11.01,4.93-11.01,11.01v-5.96c0-6.04-4.9-10.97-10.97-10.97h-2.02c-6.04,0-10.97,4.93-10.97,10.97v-35.75c0-3.3-1.35-6.28-3.51-8.45-2.17-2.17-5.18-3.51-8.49-3.51-6.6,0-11.96,5.36-11.96,11.96v83.4l-21.69-21.69c-2.34-2.34-5.4-3.51-8.48-3.51s-6.11,1.17-8.45,3.51c-4.69,4.69-4.69,12.28,0,16.97l38.63,38.63v56.59h78.08v-16.7c9.99-.89,17.82-9.26,17.82-19.48v-93.01c0-6.06-4.91-10.97-10.97-10.97Z" style="fill:none; stroke:#32406d; stroke-miterlimit:10;"/></g><path d="m409.24,351.29c13.05,0,13.05-34.67,26.1-34.67s13.05,34.67,26.1,34.67,13.05-34.67,26.11-34.67,13.05,34.67,26.11,34.67" style="fill:none; stroke:#ef4d7f; stroke-miterlimit:10;"/><g><polygon points="478.71 260.89 367.37 260.89 367.37 149.56 478.71 149.56 478.71 243.48 478.71 260.89" style="fill:#fff; fill-rule:evenodd;"/><rect x="369.69" y="154.19" width="111.34" height="111.34" style="fill:#dedce4;"/><polygon points="478.71 260.89 367.37 260.89 367.37 149.56 478.71 149.56 478.71 243.48 478.71 260.89" style="fill:none; fill-rule:evenodd; stroke:#32406d; stroke-miterlimit:10;"/><g><line x1="423.04" y1="160.58" x2="423.04" y2="227.84" style="fill:none; stroke:#ef4d7f; stroke-miterlimit:10;"/><polygon points="420.04 161.46 423.04 156.28 426.03 161.46 420.04 161.46" style="fill:#ef4d7f;"/><polygon points="420.04 226.96 423.04 232.14 426.03 226.96 420.04 226.96" style="fill:#ef4d7f;"/></g><g><line x1="456.66" y1="194.21" x2="389.41" y2="194.21" style="fill:none; stroke:#ef4d7f; stroke-miterlimit:10;"/><polygon points="455.79 191.22 460.97 194.21 455.79 197.2 455.79 191.22" style="fill:#ef4d7f;"/><polygon points="390.28 191.22 385.1 194.21 390.28 197.2 390.28 191.22" style="fill:#ef4d7f;"/></g></g><g><path d="m404.56,249.67l-1.44-2.65c-.44-.83-.57-1.31-.57-1.31h-.05s.07.47.07,1.38v4.46h-1.2v-7.66h1.39l1.82,3.54c.3.58.39.94.39.94h.05s.08-.35.39-.94l1.81-3.54h1.34v7.66h-1.21v-4.46c0-.91.08-1.38.08-1.38h-.05s-.13.48-.58,1.31l-1.43,2.65h-.79Z" style="fill:#32406d;"/><path d="m414.23,249.8l1.03.27c-.25,1.21-1.26,1.62-2.4,1.62-1.6,0-2.68-1.11-2.68-3.11s1.07-3.2,2.74-3.2c1.55,0,2.38,1.07,2.38,2.56,0,.34-.05.65-.12.83h-3.87c.05,1.17.6,1.99,1.61,1.99.66,0,1.11-.26,1.31-.98Zm-.09-1.86c.01-.09.01-.17.01-.25,0-.77-.49-1.38-1.3-1.38-.86,0-1.4.58-1.52,1.62h2.81Z" style="fill:#32406d;"/><path d="m420.03,251.35c-.39.23-.9.35-1.46.35-1.08,0-1.73-.57-1.73-1.69v-3.54h-.87v-.94h.87v-1.27l1.18-.14v1.42h1.78v.94h-1.79v3.3c0,.65.3.92.79.92.39,0,.66-.1,1-.33l.22.97Z" style="fill:#32406d;"/><path d="m422.33,246.68c.29-.86.91-1.29,1.82-1.29.99,0,1.82.55,1.82,1.86v4.29h-1.17v-3.95c0-.73-.34-1.18-1.05-1.18s-1.42.38-1.42,1.69v3.45h-1.17v-8.68h1.17v3.82Z" style="fill:#32406d;"/><path d="m427.39,248.5c0-2.04,1.08-3.11,2.73-3.11s2.74,1.07,2.74,3.11-1.08,3.2-2.74,3.2-2.73-1.14-2.73-3.2Zm1.16.01c0,1.51.53,2.26,1.57,2.26s1.59-.75,1.59-2.26-.55-2.17-1.59-2.17-1.57.7-1.57,2.17Z" style="fill:#32406d;"/><path d="m438.23,242.86h1.18v8.68h-1.04l-.13-1.04c-.34.91-1.05,1.2-1.91,1.2-1.26,0-2.38-1.03-2.38-3.06s.98-3.25,2.69-3.25c.77,0,1.42.43,1.59.95v-3.48Zm.01,4.97c0-1.07-.81-1.52-1.5-1.52-.88,0-1.61.61-1.61,2.3,0,1.42.62,2.17,1.6,2.17.66,0,1.51-.53,1.51-1.63v-1.33Z" style="fill:#32406d;"/><path d="m441.74,249.88c.09.69.59.99,1.3.99s1.2-.26,1.2-.81c0-.49-.22-.77-.94-.95l-.88-.21c-1.09-.26-1.51-.82-1.51-1.7,0-1.35,1.12-1.81,2.26-1.81,1.26,0,2.04.46,2.16,1.62l-1.14.13c-.04-.6-.4-.87-1.09-.87s-1.05.3-1.05.81c0,.43.17.7.82.84l.83.2c1.07.26,1.66.75,1.66,1.81,0,1.29-1.01,1.77-2.33,1.77s-2.16-.42-2.33-1.51l1.04-.31Z" style="fill:#32406d;"/></g><g><polygon points="522.39 456.96 522.39 519.3 475.74 519.3 448.1 541.49 448.1 519.3 405.96 519.3 405.96 456.96 522.39 456.96" style="fill:#fff; fill-rule:evenodd;"/><polygon points="525.61 459.57 525.61 521.91 478.96 521.91 451.32 544.1 451.32 521.91 409.18 521.91 409.18 459.57 525.61 459.57" style="fill:#dedce4; fill-rule:evenodd;"/><polygon points="522.39 456.96 522.39 519.3 475.74 519.3 448.1 541.49 448.1 519.3 405.96 519.3 405.96 456.96 522.39 456.96" style="fill:none; fill-rule:evenodd; stroke:#32406d; stroke-miterlimit:10;"/></g><polyline points="156.7 253.52 240.13 253.52 328.6 253.52" style="fill:none; stroke:#32406d; stroke-miterlimit:10; stroke-width:3px;"/><polyline points="156.7 274.11 223.48 274.11 294.29 274.11" style="fill:none; stroke:#32406d; stroke-miterlimit:10; stroke-width:3px;"/><polyline points="156.7 294.71 232.99 294.71 313.89 294.71" style="fill:none; stroke:#32406d; stroke-miterlimit:10; stroke-width:3px;"/><g><path d="m437.77,487.08c-.95,1.45-2.1,2.14-4.15,2.14-2.68,0-4.52-1.91-4.52-5.34s1.94-5.39,4.82-5.39c1.87,0,3.17.82,3.87,2.49l-1.51.74c-.42-1.23-1.3-1.84-2.45-1.84-1.93,0-3.05,1.54-3.05,4.01s1,3.91,2.96,3.91c1.26,0,2.08-.47,2.79-1.61l1.24.91Z" style="fill:#32406d;"/><path d="m438.92,484.91c0-2.75,1.45-4.19,3.68-4.19s3.7,1.44,3.7,4.19-1.45,4.31-3.7,4.31-3.68-1.54-3.68-4.31Zm1.56.02c0,2.03.72,3.05,2.12,3.05s2.14-1.02,2.14-3.05-.74-2.93-2.14-2.93-2.12.95-2.12,2.93Z" style="fill:#32406d;"/><path d="m449.73,482.47c.44-1.21,1.37-1.75,2.59-1.75,1.33,0,2.45.74,2.45,2.5v5.78h-1.58v-5.31c0-1-.46-1.61-1.42-1.61s-1.91.53-1.91,2.28v4.64h-1.58v-8.09h1.24l.19,1.56Z" style="fill:#32406d;"/><path d="m463.42,486.96c-.28,1.63-1.58,2.26-3.17,2.26-2.12,0-3.57-1.51-3.57-4.2s1.45-4.29,3.7-4.29c1.72,0,2.84.91,2.94,2.52l-1.44.3c-.14-1.02-.68-1.52-1.58-1.52-1.38,0-2.1,1.23-2.1,3s.84,2.94,2.17,2.94c.86,0,1.44-.4,1.68-1.33l1.37.33Z" style="fill:#32406d;"/><path d="m470.17,486.66l1.38.37c-.33,1.63-1.7,2.19-3.24,2.19-2.15,0-3.61-1.49-3.61-4.19s1.44-4.31,3.7-4.31c2.08,0,3.21,1.44,3.21,3.45,0,.46-.07.88-.16,1.12h-5.22c.07,1.58.81,2.68,2.17,2.68.89,0,1.49-.35,1.77-1.31Zm-.12-2.5c.02-.12.02-.23.02-.33,0-1.03-.67-1.86-1.75-1.86-1.16,0-1.89.79-2.05,2.19h3.78Z" style="fill:#32406d;"/><path d="m475.17,492.56h-1.58v-11.65h1.3l.19,1.56c.47-1.31,1.66-1.75,2.68-1.75,1.98,0,3.19,1.44,3.19,4.05,0,2.47-1.26,4.45-3.5,4.45-1.24,0-2-.58-2.28-1.28v4.62Zm0-6.69c0,1.56,1.05,2.16,1.96,2.16,1.21,0,2.21-.98,2.21-3.12,0-1.94-.79-2.89-2.03-2.89-1.16,0-2.14.86-2.14,2.36v1.49Z" style="fill:#32406d;"/><path d="m487.33,488.75c-.53.32-1.21.47-1.96.47-1.45,0-2.33-.77-2.33-2.28v-4.76h-1.17v-1.26h1.17v-1.72l1.59-.19v1.91h2.4v1.26h-2.42v4.45c0,.88.4,1.24,1.07,1.24.53,0,.89-.14,1.35-.44l.3,1.31Z" style="fill:#32406d;"/><path d="m489.46,486.77c.12.93.79,1.33,1.75,1.33s1.61-.35,1.61-1.09c0-.67-.3-1.03-1.26-1.28l-1.19-.28c-1.47-.35-2.03-1.1-2.03-2.29,0-1.82,1.51-2.43,3.05-2.43,1.7,0,2.75.61,2.91,2.19l-1.54.17c-.05-.81-.54-1.17-1.47-1.17s-1.42.4-1.42,1.09c0,.58.23.95,1.1,1.14l1.12.26c1.44.35,2.24,1.02,2.24,2.44,0,1.73-1.37,2.38-3.14,2.38s-2.91-.56-3.14-2.03l1.4-.42Z" style="fill:#32406d;"/></g><g><polygon points="290.35 316.84 290.35 320.56 310.06 320.56 243.03 387.6 245.66 390.23 312.7 323.19 312.7 342.91 316.42 342.91 316.42 316.84 290.35 316.84" style="fill:#dedce4;"/><polygon points="288.66 314.5 288.66 318.22 308.37 318.22 241.34 385.25 243.97 387.89 311.01 320.85 311.01 340.56 314.73 340.56 314.73 314.5 288.66 314.5" style="fill:#fff; stroke:#32406d; stroke-miterlimit:10;"/></g></svg>