<svg xmlns="http://www.w3.org/2000/svg" width="629" height="567" viewBox="0 0 629 567"><g fill="none" fill-rule="evenodd" transform="translate(.372 .32)"><g stroke="#AEADC1" stroke-dasharray="0" transform="translate(358.968 393.7)"><path d="M183.8 129.99C195.57 129.99 205.12 139.53 205.12 151.31 205.12 163.09 195.58 172.63 183.8 172.63M21.32 129.99C9.55 129.99 0 120.45 0 108.67 0 96.89 9.54 87.35 21.32 87.35M225.73.5C249.71.5 269.16 19.94 269.16 43.93 269.16 67.92 249.72 87.36 225.73 87.36"/><line x1="183.8" x2="81.51" y1="172.63" y2="172.63"/><line x1="183.8" x2="21.32" y1="129.99" y2="129.99"/><line x1="225.73" x2="53.55" y1=".5" y2=".5"/><line x1="225.73" x2="21.32" y1="87.36" y2="87.36"/></g><g transform="translate(0 2.383)"><path stroke="#AEADC1" stroke-dasharray="0" d="M217.435335,371.185335 C302.349115,371.185335 371.185335,302.349115 371.185335,217.435335 C371.185335,132.521555 302.349115,63.6853352 217.435335,63.6853352 C132.521555,63.6853352 63.6853352,132.521555 63.6853352,217.435335 C63.6853352,302.349115 132.521555,371.185335 217.435335,371.185335 Z" transform="rotate(-45 217.435 217.435)"/><rect width="467.24" height="296.52" x="128.378" y="165.237" fill="#E3E5F3" fill-rule="nonzero"/><rect width="467.24" height="296.52" x="123.178" y="162.057" stroke="#32406D"/><path fill="#FFF" fill-rule="nonzero" stroke="#32406D" d="M0 312.365C66.68 280.025 146.59 279.765 213.48 311.585 214.22 311.935 215.11 311.455 215.11 310.695L215.11 16.695C215.11 16.695 215.11 16.695 215.11 16.695 145.5-5.565 69.61-5.565 0 16.695L0 16.695C0 16.695 0 312.365 0 312.365L0 312.365ZM430.22 312.365C363.52 280.015 283.57 279.765 216.66 311.625 215.95 311.965 215.11 311.505 215.11 310.775L215.11 16.695C215.11 16.695 215.11 16.695 215.11 16.695 284.72-5.565 360.61-5.565 430.22 16.695L430.22 16.695C430.22 16.695 430.22 312.365 430.22 312.365Z" transform="translate(141.678 132.362)"/><g stroke="#32406D" transform="translate(147.798 123.465)"><path d="M0 303.4825C64.78 272.0625 142.42 271.8125 207.41 302.7225 208.13 303.0625 208.99 302.5925 208.99 301.8525L208.99 16.2225C208.99 16.2225 208.99 16.2225 208.99 16.2225 141.36-5.4075 67.63-5.4075 0 16.2225L0 16.2225C0 16.2225 0 303.4925 0 303.4925L0 303.4825ZM417.99 303.4825C353.18 272.0525 275.51 271.8125 210.5 302.7625 209.81 303.0925 208.99 302.6425 208.99 301.9425L208.99 16.2225C208.99 16.2225 208.99 16.2225 208.99 16.2225 276.62-5.4075 350.35-5.4075 417.98 16.2225L417.98 16.2225C417.98 16.2225 417.98 303.4925 417.98 303.4925L417.99 303.4825Z"/><path fill="#DEDCE4" fill-rule="nonzero" d="M0 303.4825C64.78 272.0625 142.42 271.8125 207.41 302.7225 208.13 303.0625 208.99 302.5925 208.99 301.8525L208.99 16.2225C208.99 16.2225 208.99 16.2225 208.99 16.2225 141.36-5.4075 67.63-5.4075 0 16.2225L0 16.2225C0 16.2225 0 303.4925 0 303.4925L0 303.4825ZM417.99 303.4825C353.18 272.0525 275.51 271.8125 210.5 302.7625 209.81 303.0925 208.99 302.6425 208.99 301.9425L208.99 16.2225C208.99 16.2225 208.99 16.2225 208.99 16.2225 276.62-5.4075 350.35-5.4075 417.98 16.2225L417.98 16.2225C417.98 16.2225 417.98 303.4925 417.98 303.4925L417.99 303.4825Z"/></g><path fill="#FFF" fill-rule="nonzero" stroke="#32406D" d="M2.84217094e-14 294.5825C62.88 264.0825 138.24 263.8425 201.33 293.8425 202.03 294.1725 202.87 293.7225 202.87 293.0025L202.87 15.7425C202.87 15.7425 202.87 15.7425 202.87 15.7425 137.22-5.2475 65.66-5.2475.01 15.7425L.01 15.7425C.01 15.7425.01 294.5825.01 294.5825L2.84217094e-14 294.5825ZM405.73 294.5825C342.82 264.0725 267.43 263.8425 204.33 293.8825 203.66 294.2025 202.87 293.7625 202.87 293.0825L202.87 15.7425C202.87 15.7425 202.87 15.7425 202.87 15.7425 268.52-5.2475 340.08-5.2475 405.73 15.7425L405.73 15.7425C405.73 15.7425 405.73 294.5825 405.73 294.5825Z" transform="translate(153.928 117.015)"/></g><g transform="translate(102.828)"><g transform="translate(430.97 214.203)"><path fill="#FFF" d="M77.65,29.7769577 L77.65,29.7769577 C77.65,29.7769577 82.92,21.8669577 82.92,21.8669577 C86.6,16.3469577 85.11,8.88695766 79.59,5.20695766 L78.15,4.24695766 C72.63,0.566957659 65.17,2.05695766 61.49,7.57695766 L56.22,15.4869577 L56.22,15.4869577 L1.5,97.5569577 L22.92,111.836958 L77.64,29.7669577 L77.65,29.7769577 Z"/><g transform="translate(.86)"><polygon fill="#FFF" points="32.74 99.107 22.63 114.277 0 124.007 .13 118.217 1.2 99.997 11.32 84.827 34.25 73.647"/><path fill="#FFF" fill-rule="nonzero" d="M65.5263722,3.44435402 L67.2563722,3.44435402 C73.8863722,3.44435402 79.2663722,8.82435402 79.2663722,15.454354 L79.2663722,47.474354 L53.5163722,47.474354 L53.5163722,15.454354 C53.5163722,8.82435402 58.8963722,3.44435402 65.5263722,3.44435402 L65.5263722,3.44435402 Z" transform="rotate(33.69 66.391 25.46)"/><rect width="98.63" height="25.75" x="-10.056" y="53.194" fill="#8786A3" fill-rule="nonzero" transform="rotate(-56.31 39.26 66.07)"/></g><polyline stroke="#32406D" points="33.05 96.667 22.59 112.357 .01 123.017 .44 115.787 1.26 97.937 11.63 82.387"/><path stroke="#32406D" d="M77.65,29.7769577 L77.65,29.7769577 C77.65,29.7769577 82.92,21.8669577 82.92,21.8669577 C86.6,16.3469577 85.11,8.88695766 79.59,5.20695766 L78.15,4.24695766 C72.63,0.566957659 65.17,2.05695766 61.49,7.57695766 L56.22,15.4869577 L56.22,15.4869577 L1.5,97.5569577 L22.92,111.836958 L77.64,29.7669577 L77.65,29.7769577 Z"/><line x1="56.23" x2="77.65" y1="15.487" y2="29.777" stroke="#32406D" stroke-width="3"/><g fill="#32406D" fill-rule="nonzero" transform="translate(0 115.777)"><polygon points=".88 .9 5.52 4 .56 6.42"/><path d="M1.33,1.81 L4.52,3.93 L1.11,5.59 L1.33,1.8 M0.43,0 L0,7.24 L6.51,4.06 L0.42,0 L0.42,0 L0.43,0 Z"/></g></g><g transform="translate(271.89 441.84)"><rect width="19.04" height="19.04" x="8.58" y="5.38" fill="#FFF" fill-rule="nonzero"/><polyline stroke="#FFF" stroke-width="4" points="2.97 15.64 12.62 25.29 33.4 4.51"/><rect width="19.04" height="19.04" x="7.1" y="2.35" fill="#FFF" fill-rule="nonzero" stroke="#32406D"/><g fill-rule="nonzero"><path fill="#EF4D7F" d="M0.7,14.11 L2.99,11.82 L10.79,19.62 C10.88,19.71 11.01,19.77 11.14,19.77 L11.14,19.77 C11.27,19.77 11.4,19.72 11.49,19.62 L30.42,0.7 L32.71,2.99 L11.14,24.56 L0.7,14.12 L0.7,14.11 Z"/><path fill="#32406D" d="M30.42,1.4 L32,2.98 L11.14,23.84 L1.41,14.11 L2.99,12.53 L10.43,19.98 C10.62,20.17 10.87,20.27 11.14,20.27 C11.41,20.27 11.66,20.16 11.85,19.98 L30.42,1.41 M30.42,0 L11.14,19.28 L2.99,11.13 L0,14.12 L11.15,25.27 L33.42,3 L30.43,0.01 L30.43,0.01 L30.42,0 Z"/></g><g transform="translate(0 47.28)"><rect width="19.04" height="19.04" x="8.58" y="5.39" fill="#FFF" fill-rule="nonzero"/><polyline fill="#EBECF7" stroke="#FFF" stroke-width="4" points="2.97 15.65 12.62 25.3 33.4 4.52"/><rect width="19.04" height="19.04" x="7.1" y="2.37" fill="#FFF" fill-rule="nonzero" stroke="#32406D"/><g fill-rule="nonzero"><path fill="#EF4D7F" d="M0.7,14.12 L2.99,11.83 L10.79,19.63 C10.88,19.72 11.01,19.78 11.14,19.78 C11.27,19.78 11.4,19.73 11.49,19.63 L30.42,0.7 L32.71,2.99 L11.14,24.56 L0.7,14.12 L0.7,14.12 Z"/><path fill="#32406D" d="M30.42,1.41 L32,2.99 L11.14,23.85 L1.41,14.12 L2.99,12.54 L10.43,19.98 C10.63,20.18 10.88,20.27 11.14,20.27 C11.4,20.27 11.65,20.17 11.85,19.98 L30.42,1.41 M30.42,0 L11.14,19.28 L2.99,11.13 L0,14.12 L11.15,25.27 L33.42,3 L30.43,0.01 L30.43,0.01 L30.42,0 Z"/></g></g><g fill="#FFF" fill-rule="nonzero" transform="translate(7.1 96.86)"><rect width="19.04" height="19.04" x="1.48" y="3.02"/><rect width="19.04" height="19.04" stroke="#32406D"/></g></g><g transform="translate(0 300.51)"><polygon fill="#FFF" fill-rule="nonzero" points="129.75 71.97 0 71.97 0 0 154.75 0 154.75 46.97"/><polygon fill="#DEDCE4" fill-rule="nonzero" points="132.28 73.64 2.54 73.64 2.54 1.67 157.28 1.67 157.28 48.64"/><polygon fill="#AEADC1" fill-rule="nonzero" points="132.28 73.64 132.27 73.64 132.27 48.64 157.28 48.64 157.28 48.64"/><polygon stroke="#32406D" points="129.8 71.92 129.8 71.92 129.8 46.91 154.81 46.91 154.81 46.92"/><polygon stroke="#32406D" points="129.75 71.97 0 71.97 0 0 154.75 0 154.75 46.97"/></g><g transform="translate(65.5 83.6)"><polygon fill="#FFF" points="98.21 98.2 0 98.2 0 0 98.21 0 98.21 82.84"/><rect width="98.2" height="98.2" x="2.05" y="4.09" fill="#DEDCE4" fill-rule="nonzero"/><polygon stroke="#32406D" points="98.21 98.2 0 98.2 0 0 98.21 0 98.21 82.84"/></g><path fill="#32406D" fill-rule="nonzero" d="M.15 8.71.15 1.05 2.53 1.05C4.68 1.05 6.22 2.1 6.22 4.79 6.22 7.62 4.53 8.7 2.49 8.7L.15 8.7.15 8.71ZM2.37 7.71C3.88 7.71 4.96 6.9 4.96 4.85 4.96 2.8 3.84 2.06 2.49 2.06L1.35 2.06 1.35 7.72 2.38 7.72 2.37 7.71ZM11.5 6.97 12.53 7.24C12.28 8.45 11.27 8.86 10.12 8.86 8.52 8.86 7.44 7.75 7.44 5.75 7.44 3.75 8.51 2.55 10.18 2.55 11.73 2.55 12.56 3.62 12.56 5.11 12.56 5.45 12.51 5.76 12.44 5.94L8.57 5.94C8.62 7.11 9.17 7.93 10.18 7.93 10.84 7.93 11.29 7.67 11.49 6.95L11.5 6.97ZM11.41 5.11C11.42 5.02 11.42 4.94 11.42 4.86 11.42 4.09 10.93 3.48 10.12 3.48 9.26 3.48 8.72 4.06 8.6 5.1L11.41 5.1 11.41 5.11ZM14.61-1.42108547e-14C15.07-1.42108547e-14 15.43.31 15.43.78 15.43 1.22 15.07 1.56 14.61 1.56 14.19 1.56 13.83 1.22 13.83.78 13.83.31 14.19-1.42108547e-14 14.61-1.42108547e-14ZM15.21 2.7 15.21 8.71 14.04 8.71 14.04 2.7 15.21 2.7ZM18.15 3.86C18.48 2.96 19.16 2.56 20.07 2.56 21.06 2.56 21.89 3.11 21.89 4.42L21.89 8.71 20.72 8.71 20.72 4.77C20.72 4.03 20.38 3.57 19.67 3.57 18.96 3.57 18.25 3.96 18.25 5.26L18.25 8.71 17.08 8.71 17.08 2.7 18 2.7 18.14 3.86 18.15 3.86ZM27.37 6.97 28.4 7.24C28.15 8.45 27.14 8.86 25.99 8.86 24.39 8.86 23.31 7.75 23.31 5.75 23.31 3.75 24.38 2.55 26.05 2.55 27.6 2.55 28.43 3.62 28.43 5.11 28.43 5.45 28.38 5.76 28.31 5.94L24.44 5.94C24.49 7.11 25.04 7.93 26.05 7.93 26.71 7.93 27.16 7.67 27.36 6.95L27.37 6.97ZM27.28 5.11C27.29 5.02 27.29 4.94 27.29 4.86 27.29 4.09 26.8 3.48 25.99 3.48 25.13 3.48 24.59 4.06 24.47 5.1L27.28 5.1 27.28 5.11ZM1.17 26.95 2.84217094e-14 26.95 2.84217094e-14 18.31.96 18.31 1.1 19.47C1.45 18.5 2.34 18.17 3.09 18.17 4.56 18.17 5.46 19.24 5.46 21.17 5.46 23 4.52 24.47 2.86 24.47 1.94 24.47 1.38 24.04 1.17 23.52L1.17 26.95 1.17 26.95ZM1.17 21.98C1.17 23.14 1.95 23.58 2.63 23.58 3.53 23.58 4.27 22.85 4.27 21.27 4.27 19.83 3.69 19.12 2.76 19.12 1.9 19.12 1.17 19.76 1.17 20.87L1.17 21.98ZM10.61 22.57 11.64 22.84C11.39 24.05 10.38 24.46 9.23 24.46 7.63 24.46 6.55 23.35 6.55 21.35 6.55 19.35 7.62 18.15 9.29 18.15 10.84 18.15 11.67 19.22 11.67 20.71 11.67 21.05 11.62 21.36 11.55 21.54L7.68 21.54C7.73 22.71 8.28 23.53 9.29 23.53 9.95 23.53 10.4 23.27 10.6 22.55L10.61 22.57ZM10.52 20.71C10.53 20.62 10.53 20.54 10.53 20.46 10.53 19.69 10.04 19.08 9.23 19.08 8.37 19.08 7.83 19.66 7.71 20.7L10.52 20.7 10.52 20.71ZM16.53 19.49C16.39 19.46 16.19 19.44 16 19.44 15.15 19.44 14.34 20.1 14.34 21.27L14.34 24.31 13.17 24.31 13.17 18.3 14.16 18.3 14.3 19.92C14.53 18.84 15.29 18.1 16.63 18.17L16.54 19.48 16.53 19.49ZM18.05 22.65C18.14 23.34 18.63 23.64 19.35 23.64 20.07 23.64 20.55 23.38 20.55 22.83 20.55 22.34 20.33 22.06 19.61 21.88L18.73 21.67C17.64 21.41 17.22 20.85 17.22 19.97 17.22 18.62 18.34 18.16 19.48 18.16 20.74 18.16 21.52 18.62 21.64 19.78L20.5 19.91C20.46 19.31 20.1 19.04 19.41 19.04 18.72 19.04 18.36 19.34 18.36 19.85 18.36 20.28 18.53 20.55 19.18 20.69L20.01 20.89C21.08 21.15 21.67 21.64 21.67 22.7 21.67 23.99 20.66 24.47 19.34 24.47 18.02 24.47 17.18 24.05 17.01 22.96L18.05 22.65 18.05 22.65ZM22.65 21.27C22.65 19.23 23.73 18.16 25.38 18.16 27.03 18.16 28.12 19.23 28.12 21.27 28.12 23.31 27.04 24.47 25.38 24.47 23.72 24.47 22.65 23.33 22.65 21.27ZM24.09 15.8C24.52 15.8 24.87 16.13 24.87 16.58 24.87 17.03 24.52 17.35 24.09 17.35 23.66 17.35 23.32 17.02 23.32 16.58 23.32 16.14 23.67 15.8 24.09 15.8ZM23.8 21.29C23.8 22.8 24.33 23.55 25.37 23.55 26.41 23.55 26.96 22.8 26.96 21.29 26.96 19.78 26.41 19.12 25.37 19.12 24.33 19.12 23.8 19.82 23.8 21.29ZM26.63 15.82C27.07 15.82 27.41 16.14 27.41 16.6 27.41 17.03 27.07 17.37 26.63 17.37 26.21 17.37 25.86 17.03 25.86 16.6 25.86 16.14 26.21 15.82 26.63 15.82ZM30.67 19.46C31 18.56 31.68 18.16 32.59 18.16 33.58 18.16 34.41 18.71 34.41 20.02L34.41 24.31 33.24 24.31 33.24 20.37C33.24 19.63 32.9 19.17 32.19 19.17 31.48 19.17 30.77 19.56 30.77 20.86L30.77 24.31 29.6 24.31 29.6 18.3 30.52 18.3 30.66 19.46 30.67 19.46ZM38.25 24.31C37.94 24.39 37.73 24.41 37.52 24.41 36.77 24.41 36.14 24.01 36.14 23.11L36.14 15.62 37.31 15.62 37.31 22.86C37.31 23.24 37.53 23.39 37.84 23.39 38.01 23.39 38.13 23.36 38.26 23.33L38.26 24.3 38.25 24.31ZM40.19 15.6C40.65 15.6 41.01 15.91 41.01 16.38 41.01 16.82 40.65 17.16 40.19 17.16 39.77 17.16 39.41 16.82 39.41 16.38 39.41 15.91 39.77 15.6 40.19 15.6ZM40.79 18.3 40.79 24.31 39.62 24.31 39.62 18.3 40.79 18.3 40.79 18.3ZM47.27 22.79C47.06 24 46.1 24.47 44.92 24.47 43.35 24.47 42.27 23.35 42.27 21.35 42.27 19.35 43.35 18.16 45.01 18.16 46.28 18.16 47.12 18.84 47.19 20.03L46.12 20.25C46.02 19.5 45.61 19.12 44.95 19.12 43.92 19.12 43.39 20.03 43.39 21.34 43.39 22.65 44.01 23.52 45 23.52 45.64 23.52 46.07 23.22 46.25 22.53L47.26 22.78 47.27 22.79ZM49.78 19.45C50.07 18.59 50.69 18.16 51.6 18.16 52.59 18.16 53.42 18.71 53.42 20.02L53.42 24.31 52.25 24.31 52.25 20.36C52.25 19.63 51.91 19.18 51.2 19.18 50.49 19.18 49.78 19.56 49.78 20.87L49.78 24.32 48.61 24.32 48.61 15.64 49.78 15.64 49.78 19.46 49.78 19.45ZM58.89 22.57 59.92 22.84C59.67 24.05 58.66 24.46 57.51 24.46 55.91 24.46 54.83 23.35 54.83 21.35 54.83 19.35 55.9 18.15 57.57 18.15 59.12 18.15 59.95 19.22 59.95 20.71 59.95 21.05 59.9 21.36 59.83 21.54L55.96 21.54C56.01 22.71 56.56 23.53 57.57 23.53 58.23 23.53 58.68 23.27 58.88 22.55L58.89 22.57ZM58.8 20.71C58.81 20.62 58.81 20.54 58.81 20.46 58.81 19.69 58.32 19.08 57.51 19.08 56.65 19.08 56.11 19.66 55.99 20.7L58.8 20.7 58.8 20.71ZM4.45 39.91C4.27 39.7 4.18 39.49 4.11 39.2L3.8 37.87C3.58 36.97 3.12 36.8 2.37 36.8L1.34 36.8 1.34 39.91.14 39.91.14 32.25 2.79 32.25C4.54 32.25 5.4 32.99 5.4 34.43 5.4 35.64 4.59 36.28 3.63 36.33L3.63 36.37C4.36 36.46 4.75 36.77 4.96 37.59L5.35 39.1C5.44 39.41 5.56 39.67 5.75 39.91L4.44 39.91 4.45 39.91ZM1.34 35.8 2.74 35.8C3.7 35.8 4.16 35.4 4.16 34.53 4.16 33.74 3.71 33.26 2.76 33.26L1.34 33.26 1.34 35.81 1.34 35.8ZM10.76 38.17 11.79 38.44C11.54 39.65 10.53 40.06 9.38 40.06 7.78 40.06 6.7 38.95 6.7 36.95 6.7 34.95 7.77 33.75 9.44 33.75 10.99 33.75 11.82 34.82 11.82 36.31 11.82 36.65 11.77 36.96 11.7 37.14L7.83 37.14C7.88 38.31 8.43 39.13 9.44 39.13 10.1 39.13 10.55 38.87 10.75 38.15L10.76 38.17ZM10.67 36.31C10.68 36.22 10.68 36.14 10.68 36.06 10.68 35.29 10.19 34.68 9.38 34.68 8.52 34.68 7.98 35.26 7.86 36.3L10.67 36.3 10.67 36.31ZM13.87 31.2C14.33 31.2 14.69 31.51 14.69 31.98 14.69 32.42 14.33 32.76 13.87 32.76 13.45 32.76 13.09 32.42 13.09 31.98 13.09 31.51 13.45 31.2 13.87 31.2ZM14.47 33.9 14.47 39.91 13.3 39.91 13.3 33.9 14.47 33.9ZM16.8 38.25C16.89 38.94 17.38 39.24 18.1 39.24 18.82 39.24 19.3 38.98 19.3 38.43 19.3 37.94 19.08 37.66 18.36 37.48L17.48 37.27C16.39 37.01 15.97 36.45 15.97 35.57 15.97 34.22 17.09 33.76 18.23 33.76 19.49 33.76 20.27 34.22 20.39 35.38L19.25 35.51C19.21 34.91 18.85 34.64 18.16 34.64 17.47 34.64 17.11 34.94 17.11 35.45 17.11 35.88 17.28 36.15 17.93 36.29L18.76 36.49C19.83 36.75 20.42 37.24 20.42 38.3 20.42 39.59 19.41 40.07 18.09 40.07 16.77 40.07 15.93 39.65 15.76 38.56L16.8 38.25 16.8 38.25ZM25.46 38.17 26.49 38.44C26.24 39.65 25.23 40.06 24.08 40.06 22.48 40.06 21.4 38.95 21.4 36.95 21.4 34.95 22.47 33.75 24.14 33.75 25.69 33.75 26.52 34.82 26.52 36.31 26.52 36.65 26.47 36.96 26.4 37.14L22.53 37.14C22.58 38.31 23.13 39.13 24.14 39.13 24.8 39.13 25.25 38.87 25.45 38.15L25.46 38.17ZM25.37 36.31C25.38 36.22 25.38 36.14 25.38 36.06 25.38 35.29 24.89 34.68 24.08 34.68 23.22 34.68 22.68 35.26 22.56 36.3L25.37 36.3 25.37 36.31Z" transform="translate(74.19 94.72)"/><g fill="#32406D" fill-rule="nonzero" transform="translate(21.18 332.75)"><path d="M5.9 2.39 5.9 7.54C5.9 9.53 4.44 10.21 2.95 10.21 1.46 10.21-1.42108547e-14 9.53-1.42108547e-14 7.54L-1.42108547e-14 2.39 1.2 2.39 1.2 7.23C1.2 8.61 1.84 9.22 2.95 9.22 4.06 9.22 4.69 8.61 4.69 7.26L4.69 2.4 5.9 2.4 5.9 2.39ZM1.65 5.68434189e-14C2.08 5.68434189e-14 2.43.33 2.43.78 2.43 1.23 2.08 1.55 1.65 1.55 1.22 1.55.88 1.22.88.78.88.34 1.23 5.68434189e-14 1.65 5.68434189e-14ZM4.2.01C4.64.01 4.98.34 4.98.79 4.98 1.22 4.64 1.56 4.2 1.56 3.78 1.56 3.43 1.22 3.43.79 3.43.34 3.78.01 4.2.01ZM8.43 10.04 7.66 10.04 7.66 1.36 8.83 1.36 8.83 5.18C9.13 4.28 9.92 3.89 10.75 3.89 12.22 3.89 13.12 4.96 13.12 6.89 13.12 8.72 12.17 10.19 10.55 10.19 9.51 10.19 8.95 9.72 8.74 9.16L8.43 10.03 8.43 10.04ZM8.83 7.71C8.83 8.87 9.61 9.31 10.29 9.31 11.19 9.31 11.93 8.58 11.93 7 11.93 5.56 11.35 4.85 10.42 4.85 9.56 4.85 8.83 5.49 8.83 6.59L8.83 7.71 8.83 7.71ZM18.28 8.3 19.31 8.57C19.06 9.78 18.05 10.19 16.9 10.19 15.3 10.19 14.22 9.08 14.22 7.08 14.22 5.08 15.29 3.88 16.96 3.88 18.51 3.88 19.34 4.95 19.34 6.44 19.34 6.78 19.29 7.09 19.22 7.27L15.35 7.27C15.4 8.44 15.95 9.26 16.96 9.26 17.62 9.26 18.07 9 18.27 8.28L18.28 8.3ZM18.19 6.44C18.2 6.35 18.2 6.27 18.2 6.19 18.2 5.42 17.71 4.81 16.9 4.81 16.04 4.81 15.5 5.39 15.38 6.43L18.19 6.43 18.19 6.44ZM24.19 5.22C24.05 5.19 23.85 5.17 23.66 5.17 22.81 5.17 22 5.83 22 7L22 10.04 20.83 10.04 20.83 4.03 21.82 4.03 21.96 5.65C22.19 4.57 22.95 3.83 24.29 3.9L24.2 5.21 24.19 5.22ZM26.22 10.04 25.45 10.04 25.45 1.36 26.62 1.36 26.62 5.18C26.92 4.28 27.71 3.89 28.54 3.89 30.01 3.89 30.91 4.96 30.91 6.89 30.91 8.72 29.96 10.19 28.34 10.19 27.3 10.19 26.74 9.72 26.53 9.16L26.22 10.03 26.22 10.04ZM26.62 7.71C26.62 8.87 27.4 9.31 28.08 9.31 28.98 9.31 29.72 8.58 29.72 7 29.72 5.56 29.14 4.85 28.21 4.85 27.35 4.85 26.62 5.49 26.62 6.59L26.62 7.71 26.62 7.71ZM34.42 10.04C34.11 10.12 33.9 10.14 33.69 10.14 32.94 10.14 32.31 9.74 32.31 8.84L32.31 1.35 33.48 1.35 33.48 8.59C33.48 8.97 33.7 9.12 34.01 9.12 34.18 9.12 34.3 9.09 34.43 9.06L34.43 10.03 34.42 10.04ZM36.36 1.33C36.82 1.33 37.18 1.64 37.18 2.11 37.18 2.55 36.82 2.89 36.36 2.89 35.94 2.89 35.58 2.55 35.58 2.11 35.58 1.64 35.94 1.33 36.36 1.33ZM36.96 4.03 36.96 10.04 35.79 10.04 35.79 4.03 36.96 4.03ZM43.44 8.52C43.23 9.73 42.27 10.2 41.09 10.2 39.52 10.2 38.44 9.08 38.44 7.08 38.44 5.08 39.52 3.89 41.18 3.89 42.45 3.89 43.29 4.57 43.36 5.76L42.29 5.98C42.19 5.23 41.78 4.85 41.12 4.85 40.09 4.85 39.56 5.76 39.56 7.07 39.56 8.38 40.18 9.25 41.17 9.25 41.81 9.25 42.24 8.95 42.42 8.26L43.43 8.51 43.44 8.52Z"/><polygon points="49.85 10.04 48.41 10.04 46.32 7.35 45.96 7.35 45.96 10.04 44.79 10.04 44.79 1.36 45.96 1.36 45.96 6.44 46.26 6.44 48.25 4.04 49.67 4.04 47.25 6.83 49.86 10.04"/><path d="M51.26 8.38C51.35 9.07 51.85 9.37 52.56 9.37 53.27 9.37 53.76 9.11 53.76 8.56 53.76 8.07 53.54 7.79 52.82 7.61L51.94 7.4C50.85 7.14 50.43 6.58 50.43 5.7 50.43 4.35 51.55 3.89 52.69 3.89 53.95 3.89 54.73 4.35 54.85 5.51L53.71 5.64C53.67 5.04 53.31 4.77 52.62 4.77 51.93 4.77 51.57 5.07 51.57 5.58 51.57 6.01 51.74 6.28 52.39 6.42L53.22 6.62C54.29 6.88 54.88 7.37 54.88 8.43 54.88 9.72 53.87 10.2 52.55 10.2 51.23 10.2 50.39 9.78 50.22 8.69L51.26 8.38 51.26 8.38ZM61.14 7.16C61.48 8.37 61.54 9.2 61.54 9.2L61.59 9.2C61.59 9.2 61.63 8.38 61.93 7.16L62.74 4.04 63.92 4.04 62.28 10.05 60.88 10.05 60.09 7.2C59.76 6.06 59.7 5.3 59.7 5.3L59.65 5.3C59.65 5.3 59.58 6.04 59.29 7.2L58.54 10.05 57.14 10.05 55.46 4.04 56.67 4.04 57.49 7.16C57.82 8.37 57.89 9.2 57.89 9.2L57.94 9.2C57.94 9.2 57.98 8.34 58.3 7.15L59.13 4.04 60.3 4.04 61.14 7.16 61.14 7.16ZM65.56 1.33C66.02 1.33 66.38 1.64 66.38 2.11 66.38 2.55 66.02 2.89 65.56 2.89 65.14 2.89 64.78 2.55 64.78 2.11 64.78 1.64 65.14 1.33 65.56 1.33ZM66.16 4.03 66.16 10.04 64.99 10.04 64.99 4.03 66.16 4.03ZM68.48 8.38C68.57 9.07 69.06 9.37 69.78 9.37 70.5 9.37 70.98 9.11 70.98 8.56 70.98 8.07 70.76 7.79 70.04 7.61L69.16 7.4C68.07 7.14 67.65 6.58 67.65 5.7 67.65 4.35 68.77 3.89 69.91 3.89 71.17 3.89 71.95 4.35 72.07 5.51L70.93 5.64C70.89 5.04 70.53 4.77 69.84 4.77 69.15 4.77 68.79 5.07 68.79 5.58 68.79 6.01 68.96 6.28 69.61 6.42L70.44 6.62C71.51 6.88 72.1 7.37 72.1 8.43 72.1 9.72 71.09 10.2 69.77 10.2 68.45 10.2 67.61 9.78 67.44 8.69L68.48 8.38 68.48 8.38ZM73.93 8.38C74.02 9.07 74.51 9.37 75.23 9.37 75.95 9.37 76.43 9.11 76.43 8.56 76.43 8.07 76.21 7.79 75.49 7.61L74.61 7.4C73.52 7.14 73.1 6.58 73.1 5.7 73.1 4.35 74.22 3.89 75.36 3.89 76.62 3.89 77.4 4.35 77.52 5.51L76.38 5.64C76.34 5.04 75.98 4.77 75.29 4.77 74.6 4.77 74.24 5.07 74.24 5.58 74.24 6.01 74.41 6.28 75.06 6.42L75.89 6.62C76.96 6.88 77.55 7.37 77.55 8.43 77.55 9.72 76.54 10.2 75.22 10.2 73.9 10.2 73.06 9.78 72.89 8.69L73.93 8.38 73.93 8.38ZM82.59 8.3 83.62 8.57C83.37 9.78 82.36 10.19 81.21 10.19 79.61 10.19 78.53 9.08 78.53 7.08 78.53 5.08 79.6 3.88 81.27 3.88 82.82 3.88 83.65 4.95 83.65 6.44 83.65 6.78 83.6 7.09 83.53 7.27L79.66 7.27C79.71 8.44 80.26 9.26 81.27 9.26 81.93 9.26 82.38 9 82.58 8.28L82.59 8.3ZM82.5 6.44C82.51 6.35 82.51 6.27 82.51 6.19 82.51 5.42 82.02 4.81 81.21 4.81 80.35 4.81 79.81 5.39 79.69 6.43L82.5 6.43 82.5 6.44ZM86.2 5.19C86.53 4.29 87.21 3.89 88.12 3.89 89.11 3.89 89.94 4.44 89.94 5.75L89.94 10.04 88.77 10.04 88.77 6.1C88.77 5.36 88.43 4.9 87.72 4.9 87.01 4.9 86.3 5.29 86.3 6.59L86.3 10.04 85.13 10.04 85.13 4.03 86.05 4.03 86.19 5.19 86.2 5.19Z"/></g><g fill="#32406D" fill-rule="nonzero" transform="translate(348.96 346.62)"><path d="M6.55 4.81 6.55 8.76 5.6 8.76 5.44 7.77C5.13 8.52 4.22 8.91 3.33 8.91 1.37 8.91 0 7.54 0 4.96 0 2.38 1.44.94 3.58.94 5.04.94 5.97 1.55 6.45 2.79L5.33 3.34C5.02 2.42 4.34 1.97 3.51 1.97 2.17 1.97 1.25 3.02 1.25 4.96 1.25 6.69 1.95 7.92 3.45 7.92 4.48 7.92 5.36 7.44 5.36 6.41L5.36 5.84 3.5 5.84 3.5 4.8 6.54 4.8 6.55 4.81ZM11.67 3.94C11.53 3.91 11.33 3.89 11.14 3.89 10.29 3.89 9.48 4.55 9.48 5.72L9.48 8.76 8.31 8.76 8.31 2.75 9.3 2.75 9.44 4.37C9.67 3.29 10.43 2.55 11.77 2.62L11.68 3.93 11.67 3.94ZM16.99 7.35C16.99 7.81 17.2 7.91 17.43 7.91 17.57 7.91 17.68 7.88 17.77 7.85L17.77 8.76C17.6 8.82 17.39 8.86 17.13 8.86 16.44 8.86 16 8.57 15.89 7.9 15.58 8.65 14.88 8.93 14.11 8.93 13.06 8.93 12.32 8.33 12.32 7.31 12.32 5.98 13.35 5.22 15.8 5.33L15.8 4.59C15.8 3.85 15.36 3.56 14.72 3.56 14.08 3.56 13.68 3.9 13.63 4.52L12.51 4.35C12.6 3.08 13.72 2.62 14.82 2.62 15.99 2.62 16.98 3.09 16.98 4.47L16.98 7.36 16.99 7.35ZM15.81 6.09C14.2 6.05 13.5 6.41 13.5 7.17 13.5 7.66 13.82 8.04 14.46 8.04 15.1 8.04 15.81 7.66 15.81 6.96L15.81 6.09ZM18.25 3.7 18.25 2.76 19.12 2.76 19.12 2.18C19.12.5 20.33-5.68434189e-14 21.37-5.68434189e-14 21.94-5.68434189e-14 22.53.12 23.01.43L22.59 1.39C22.29 1.17 21.9.99 21.39.99 20.74.99 20.3 1.29 20.3 2.23L20.3 2.78 23.58 2.78 23.58 8.79 22.41 8.79 22.41 3.72 20.3 3.72 20.3 8.79 19.12 8.79 19.12 3.72 18.25 3.72 18.25 3.7Z"/><polygon points="30.52 8.77 29.08 8.77 26.99 6.08 26.63 6.08 26.63 8.77 25.46 8.77 25.46 .09 26.63 .09 26.63 5.17 26.93 5.17 28.92 2.77 30.34 2.77 27.92 5.56 30.53 8.77"/><path d="M34.91 7.02 35.94 7.29C35.69 8.5 34.68 8.91 33.54 8.91 31.94 8.91 30.86 7.8 30.86 5.8 30.86 3.8 31.93 2.6 33.6 2.6 35.15 2.6 35.98 3.67 35.98 5.16 35.98 5.5 35.93 5.81 35.86 5.99L31.99 5.99C32.04 7.16 32.59 7.98 33.6 7.98 34.26 7.98 34.71 7.72 34.91 7L34.91 7.02ZM34.82 5.16C34.83 5.07 34.83 4.99 34.83 4.91 34.83 4.14 34.34 3.53 33.53 3.53 32.67 3.53 32.13 4.11 32.01 5.15L34.82 5.15 34.82 5.16ZM38.53 3.92C38.86 3.02 39.54 2.62 40.45 2.62 41.44 2.62 42.27 3.17 42.27 4.48L42.27 8.77 41.1 8.77 41.1 4.83C41.1 4.09 40.76 3.63 40.05 3.63 39.34 3.63 38.63 4.02 38.63 5.32L38.63 8.77 37.46 8.77 37.46 2.76 38.38 2.76 38.52 3.92 38.53 3.92Z"/></g><g transform="translate(135.69 47.02)"><path fill="#FFF" fill-rule="nonzero" d="M34,0 C17.05,-0.0299508597 3.29,13.6800491 3.25,30.6300491 C3.25,30.6700491 3.25,30.7100491 3.25,30.7500491 C3.25,47.6900491 34,79.4900491 34,79.4900491 C34,79.4900491 64.6300491,47.6800491 64.6300491,30.7500491 C64.66,13.8000491 50.95,0.0400491403 34,0 L34,0 Z"/><path fill="#8786A3" fill-rule="nonzero" d="M36.78,1.99 C19.83,1.96004914 6.07,15.6700491 6.03,32.6200491 C6.03,32.6600491 6.03,32.7000491 6.03,32.7400491 C6.03,49.6800491 36.78,81.4800491 36.78,81.4800491 C36.78,81.4800491 67.4100491,49.6700491 67.4100491,32.7400491 C67.44,15.7900491 53.73,2.03004914 36.78,1.99 L36.78,1.99 L36.78,1.99 Z M36.78,41.7600491 C31.79,41.7600491 27.75,37.7200491 27.75,32.7300491 C27.75,27.7400491 31.79,23.7000491 36.78,23.7000491 C41.77,23.7000491 45.81,27.7400491 45.81,32.7300491 L45.81,32.7300491 C45.81,37.7200491 41.77,41.7600491 36.78,41.7600491 Z"/><path fill="#EF4D7F" fill-rule="nonzero" d="M1.19,170.290049 L1.04,167.230049 C5.2,167.020049 9.67,166.760049 14.15,166.220049 L14.52,169.260049 C9.93,169.820049 5.21,170.090049 1.2,170.290049 L1.19,170.290049 Z M27.75,166.610049 L26.87,163.680049 C30.86,162.480049 34.36,160.950049 37.55,159.020049 C37.87,158.820049 38.2,158.620049 38.51,158.420049 L40.18,160.980049 C39.83,161.210049 39.48,161.430049 39.13,161.640049 C35.72,163.700049 31.99,165.330049 27.75,166.610049 L27.75,166.610049 Z M48.17,149.330049 L45.12,149.160049 C45.12,149.020049 45.13,148.890049 45.13,148.750049 C45.13,147.850049 44.96,147.000049 44.64,146.230049 C43.79,144.240049 41.88,142.740049 39.95,141.420049 C39.44,141.070049 38.93,140.730049 38.41,140.400049 L40.07,137.830049 C40.61,138.180049 41.14,138.530049 41.67,138.890049 C43.99,140.470049 46.3,142.310049 47.45,145.030049 C47.94,146.180049 48.19,147.430049 48.19,148.750049 C48.19,148.940049 48.19,149.130049 48.17,149.320049 L48.17,149.330049 Z M27.01,133.800049 C23.67,131.910049 20.12,129.800049 16.78,127.230049 C16.43,126.960049 16.07,126.680049 15.72,126.390049 L17.67,124.030049 C17.99,124.290049 18.31,124.550049 18.64,124.800049 C21.84,127.260049 25.28,129.300049 28.52,131.140049 L27.01,133.800049 Z M7.81,114.810049 C7.66,114.080049 7.57,113.340049 7.55,112.610049 C7.55,112.460049 7.55,112.300049 7.55,112.150049 C7.55,108.580049 9,104.930049 11.87,101.300049 L14.27,103.200049 C11.84,106.280049 10.6,109.290049 10.6,112.150049 C10.6,112.270049 10.6,112.390049 10.6,112.500049 C10.62,113.060049 10.69,113.630049 10.8,114.200049 L7.8,114.810049 L7.81,114.810049 Z M23.75,94.6600491 L22.02,92.1400491 C25.78,89.5600491 29.84,87.4500491 34.1,85.8800491 L35.16,88.7500491 C31.14,90.2300491 27.31,92.2200491 23.76,94.6600491 L23.75,94.6600491 Z"/><path stroke="#32406D" d="M34 0C17.05-.0299508597 3.29 13.6800491 3.25 30.6300491 3.25 30.6700491 3.25 30.7100491 3.25 30.7500491 3.25 47.6900491 34 79.4900491 34 79.4900491 34 79.4900491 64.6300491 47.6800491 64.6300491 30.7500491 64.66 13.8000491 50.95.0400491403 34 0L34 0ZM.15 169.160049 2.84217094e-14 166.100049C4.16 165.890049 8.63 165.630049 13.11 165.090049L13.48 168.130049C8.89 168.690049 4.17 168.960049.16 169.160049L.15 169.160049ZM26.71 165.480049 25.83 162.550049C29.82 161.350049 33.32 159.830049 36.51 157.890049 36.83 157.690049 37.16 157.490049 37.47 157.290049L39.14 159.850049C38.79 160.080049 38.44 160.300049 38.09 160.510049 34.68 162.570049 30.96 164.200049 26.71 165.480049L26.71 165.480049ZM47.13 148.200049 44.08 148.030049C44.08 147.890049 44.09 147.760049 44.09 147.620049 44.09 146.720049 43.92 145.870049 43.6 145.100049 42.75 143.110049 40.84 141.610049 38.91 140.290049 38.4 139.940049 37.89 139.600049 37.37 139.270049L39.03 136.700049C39.57 137.050049 40.11 137.400049 40.64 137.760049 42.96 139.340049 45.27 141.180049 46.42 143.890049 46.91 145.040049 47.16 146.290049 47.16 147.610049 47.16 147.800049 47.16 147.990049 47.14 148.180049L47.13 148.200049ZM25.97 132.670049C22.63 130.770049 19.08 128.670049 15.74 126.100049 15.39 125.830049 15.03 125.550049 14.68 125.260049L16.63 122.900049C16.95 123.160049 17.27 123.420049 17.6 123.670049 20.79 126.130049 24.24 128.170049 27.48 130.010049L25.97 132.670049ZM6.77 113.680049C6.62 112.950049 6.53 112.210049 6.51 111.480049 6.51 111.330049 6.51 111.170049 6.51 111.020049 6.51 107.450049 7.96 103.800049 10.83 100.170049L13.23 102.070049C10.8 105.150049 9.56 108.160049 9.56 111.020049 9.56 111.140049 9.56 111.260049 9.56 111.370049 9.58 111.930049 9.65 112.500049 9.76 113.070049L6.76 113.680049 6.77 113.680049ZM22.71 93.5300491 20.98 91.0100491C24.74 88.4300491 28.8 86.3200491 33.06 84.7500491L34.12 87.6200491C30.1 89.1000491 26.27 91.0900491 22.72 93.5300491L22.71 93.5300491Z"/><path stroke="#32406D" d="M34,39.7700491 C29.01,39.7700491 24.97,35.8400491 24.97,30.9900491 C24.97,26.1400491 29.01,22.2100491 34,22.2100491 C38.99,22.2100491 43.03,26.1400491 43.03,30.9900491 L43.03,30.9900491 C43.03,35.8400491 38.99,39.7700491 34,39.7700491 Z"/></g><g transform="translate(11.55 263.02)"><polygon fill="#EF4D7F" fill-rule="nonzero" points="27.04 55.35 14.9 55.35 13.41 44.35 28.53 44.35"/><path fill="#FFF" fill-rule="nonzero" d="M41.12,20.99 C41.12,25.45 37.47,32.34 34.8,36.79 C33.25,39.37 32.03,41.13 32.03,41.13 C32.03,41.51 31.98,42.01 31.89,42.59 C31.4,45.58 29.74,50.54 27.77,50.54 L14.2,50.54 C12.22,50.54 10.56,45.58 10.08,42.59 C9.99,42.02 9.94,41.51 9.94,41.13 C9.94,41.13 8.72,39.36 7.17,36.79 C4.5,32.34 0.85,25.45 0.85,20.99 C0.85,9.87 9.87,0.85 20.99,0.85 C32.11,0.85 41.14,9.87 41.14,20.99 L41.12,20.99 Z"/><path fill="#FFF" fill-rule="nonzero" d="M34.8,36.79 C33.25,39.37 32.03,41.13 32.03,41.13 C32.03,41.51 31.98,42.01 31.89,42.59 L10.07,42.59 C9.98,42.02 9.93,41.51 9.93,41.13 C9.93,41.13 8.71,39.36 7.16,36.79 L34.81,36.79 L34.8,36.79 Z"/><polyline stroke="#32406D" points="26.85 49.69 26.19 54.5 14.05 54.5 13.4 49.69"/><path stroke="#32406D" d="M40.27,20.14 C40.27,24.6 36.62,31.49 33.95,35.94 C32.4,38.52 31.18,40.28 31.18,40.28 C31.18,40.66 31.13,41.16 31.04,41.74 C30.55,44.73 28.89,49.69 26.92,49.69 L13.35,49.69 C11.37,49.69 9.71,44.73 9.23,41.74 C9.14,41.17 9.09,40.66 9.09,40.28 C9.09,40.28 7.87,38.51 6.32,35.94 C3.65,31.49 0,24.6 0,20.14 C0,9.02 9.02,0 20.14,0 C31.26,0 40.29,9.02 40.29,20.14 L40.27,20.14 Z"/><path fill="#32406D" fill-rule="nonzero" stroke="#32406D" d="M33.95,35.94 C32.4,38.52 31.18,40.28 31.18,40.28 C31.18,40.66 31.13,41.16 31.04,41.74 L9.22,41.74 C9.13,41.17 9.08,40.66 9.08,40.28 C9.08,40.28 7.86,38.51 6.31,35.94 L33.96,35.94 L33.95,35.94 Z"/></g><g transform="translate(324.805)"><g fill="#FFF" fill-rule="nonzero"><path d="M32.4745493,91 L32.4745493,164.73 C32.4745493,170.51 37.1545493,175.19 42.9345493,175.19 L42.9345493,175.19 C48.7145493,175.19 53.3945493,170.51 53.3945493,164.73 L53.3945493,119.49"/><path d="M95.2445493,115.62 L95.2445493,143.73 C95.2445493,149.51 99.9245493,154.19 105.704549,154.19 L105.704549,154.19 C111.484549,154.19 116.164549,149.51 116.164549,143.73 L116.164549,98.49 C116.164549,98.49 116.164549,62.95 116.164549,62.95 C116.164549,54.61 113.734549,46.44 109.164549,39.46 L107.294549,36.61 C104.724549,32.67 103.354549,28.07 103.354549,23.37 L103.354549,-7.10542736e-15 C103.354549,-7.10542736e-15 27.1345493,-7.10542736e-15 27.1345493,-7.10542736e-15 L27.1345493,40.82 C27.1345493,46.95 25.4145493,52.96 22.1845493,58.16 L2.28454929,102.78 C-1.59545071,107.86 -0.405450707,115.16 4.88454929,118.75 L4.88454929,118.75 C9.76454929,122.06 16.3845493,120.99 19.9645493,116.31 L35.0045493,85.56 C35.0045493,85.56 68.7345493,78.89 69.7745493,54.73"/><path d="M74.3245493 119.49 74.3245493 168.16C74.3245493 173.94 79.0045493 178.62 84.7845493 178.62L84.7845493 178.62C90.5645493 178.62 95.2445493 173.94 95.2445493 168.16L95.2445493 122.92M53.3945493 117.78 53.3945493 180.15C53.3945493 185.93 58.0745493 190.61 63.8545493 190.61L63.8545493 190.61C69.6345493 190.61 74.3145493 185.93 74.3145493 180.15L74.3145493 117.78"/></g><path fill="#AEADC1" fill-rule="nonzero" d="M7.37454929,121.82 C12.2545493,125.13 18.8745493,124.06 22.4545493,119.38 L34.9545493,93.81 L34.9545493,167.8 C34.9545493,173.58 39.6345493,178.26 45.4145493,178.26 C51.1945493,178.26 55.8745493,173.58 55.8745493,167.8 L55.8745493,183.21 C55.8745493,188.99 60.5545493,193.67 66.3345493,193.67 C72.1145493,193.67 76.7945493,188.99 76.7945493,183.21 L76.7945493,171.22 C76.7945493,177 81.4745493,181.68 87.2545493,181.68 C93.0345493,181.68 97.7145493,177 97.7145493,171.22 L97.7145493,146.79 C97.7145493,152.57 102.394549,157.25 108.174549,157.25 C113.954549,157.25 118.634549,152.57 118.634549,146.79 L118.634549,66.01 C118.634549,57.67 116.204549,49.5 111.634549,42.52 L109.764549,39.67 C107.194549,35.73 105.824549,31.13 105.824549,26.43 L105.824549,3.08 L29.6045493,3.08 L29.6045493,43.9 C29.6045493,50.03 27.8845493,56.04 24.6545493,61.24 L4.75454929,105.86 C0.874549293,110.94 2.06454929,118.24 7.35454929,121.83 L7.37454929,121.82 Z"/><g stroke="#32406D"><path d="M32.4745493,91 L32.4745493,164.73 C32.4745493,170.51 37.1545493,175.19 42.9345493,175.19 L42.9345493,175.19 C48.7145493,175.19 53.3945493,170.51 53.3945493,164.73 L53.3945493,119.49"/><path d="M95.2445493,115.62 L95.2445493,143.73 C95.2445493,149.51 99.9245493,154.19 105.704549,154.19 L105.704549,154.19 C111.484549,154.19 116.164549,149.51 116.164549,143.73 L116.164549,98.49 C116.164549,98.49 116.164549,62.95 116.164549,62.95 C116.164549,54.61 113.734549,46.44 109.164549,39.46 L107.294549,36.61 C104.724549,32.67 103.354549,28.07 103.354549,23.37 L103.354549,-7.10542736e-15 C103.354549,-7.10542736e-15 27.1345493,-7.10542736e-15 27.1345493,-7.10542736e-15 L27.1345493,40.82 C27.1345493,46.95 25.4145493,52.96 22.1845493,58.16 L2.28454929,102.78 C-1.59545071,107.86 -0.405450707,115.16 4.88454929,118.75 L4.88454929,118.75 C9.76454929,122.06 16.3845493,120.99 19.9645493,116.31 L35.0045493,85.56 C35.0045493,85.56 68.7345493,78.89 69.7745493,54.73"/><path d="M74.3245493 119.49 74.3245493 168.16C74.3245493 173.94 79.0045493 178.62 84.7845493 178.62L84.7845493 178.62C90.5645493 178.62 95.2445493 173.94 95.2445493 168.16L95.2445493 122.92M53.3945493 117.78 53.3945493 180.15C53.3945493 185.93 58.0745493 190.61 63.8545493 190.61L63.8545493 190.61C69.6345493 190.61 74.3145493 185.93 74.3145493 180.15L74.3145493 117.78"/></g></g><g transform="translate(22.733 360.7)"><path fill="#FFF" fill-rule="nonzero" d="M127.0475,45.68 L125.0275,45.68 C118.9675,45.68 114.0575,50.59 114.0575,56.65 L114.0575,53.67 C114.0575,47.6 109.1175,42.66 103.0875,42.66 L101.0675,42.66 C94.9975,42.66 90.0575,47.59 90.0575,53.67 L90.0575,47.71 C90.0575,41.67 85.1575,36.74 79.0875,36.74 L77.0675,36.74 C71.0275,36.74 66.0975,41.67 66.0975,47.71 L66.0975,11.96 C66.0975,8.66 64.7475,5.68 62.5875,3.51 C60.4175,1.34 57.4075,-5.68434189e-14 54.0975,-5.68434189e-14 C47.4975,-5.68434189e-14 42.1375,5.36 42.1375,11.96 L42.1375,95.36 L20.4475,73.67 C18.1075,71.33 15.0475,70.16 11.9675,70.16 C8.8875,70.16 5.8575,71.33 3.5175,73.67 C-1.1725,78.36 -1.1725,85.95 3.5175,90.64 L42.1475,129.27 L42.1475,185.86 L120.2275,185.86 L120.2275,169.16 C130.2175,168.27 138.0475,159.9 138.0475,149.68 L138.0475,56.67 C138.0475,50.61 133.1375,45.7 127.0775,45.7 L127.0475,45.68 Z"/><path fill="#AEADC1" fill-rule="nonzero" d="M130.5775,50.27 L128.5575,50.27 C122.4975,50.27 117.5875,55.18 117.5875,61.24 L117.5875,58.26 C117.5875,52.19 112.6475,47.25 106.6175,47.25 L104.5975,47.25 C98.5275,47.25 93.5875,52.18 93.5875,58.26 L93.5875,52.3 C93.5875,46.26 88.6875,41.33 82.6175,41.33 L80.5975,41.33 C74.5575,41.33 69.6275,46.26 69.6275,52.3 L69.6275,16.55 C69.6275,13.25 68.2775,10.27 66.1175,8.1 C63.9475,5.93 60.9375,4.59 57.6275,4.59 C51.0275,4.59 45.6675,9.95 45.6675,16.55 L45.6675,99.95 L23.9775,78.26 C21.6375,75.92 18.5775,74.75 15.4975,74.75 C12.4175,74.75 9.3875,75.92 7.0475,78.26 C2.3575,82.95 2.3575,90.54 7.0475,95.23 L45.6775,133.86 L45.6775,190.45 L123.7575,190.45 L123.7575,173.75 C133.7475,172.86 141.5775,164.49 141.5775,154.27 L141.5775,61.26 C141.5775,55.2 136.6675,50.29 130.6075,50.29 L130.5775,50.27 Z"/><path stroke="#32406D" d="M127.0475,45.68 L125.0275,45.68 C118.9675,45.68 114.0575,50.59 114.0575,56.65 L114.0575,53.67 C114.0575,47.6 109.1175,42.66 103.0875,42.66 L101.0675,42.66 C94.9975,42.66 90.0575,47.59 90.0575,53.67 L90.0575,47.71 C90.0575,41.67 85.1575,36.74 79.0875,36.74 L77.0675,36.74 C71.0275,36.74 66.0975,41.67 66.0975,47.71 L66.0975,11.96 C66.0975,8.66 64.7475,5.68 62.5875,3.51 C60.4175,1.34 57.4075,-5.68434189e-14 54.0975,-5.68434189e-14 C47.4975,-5.68434189e-14 42.1375,5.36 42.1375,11.96 L42.1375,95.36 L20.4475,73.67 C18.1075,71.33 15.0475,70.16 11.9675,70.16 C8.8875,70.16 5.8575,71.33 3.5175,73.67 C-1.1725,78.36 -1.1725,85.95 3.5175,90.64 L42.1475,129.27 L42.1475,185.86 L120.2275,185.86 L120.2275,169.16 C130.2175,168.27 138.0475,159.9 138.0475,149.68 L138.0475,56.67 C138.0475,50.61 133.1375,45.7 127.0775,45.7 L127.0475,45.68 Z"/></g><path stroke="#EF4D7F" d="M318.04,338.97 C331.09,338.97 331.09,304.3 344.14,304.3 C357.19,304.3 357.19,338.97 370.24,338.97 C383.29,338.97 383.29,304.3 396.35,304.3 C409.41,304.3 409.4,338.97 422.46,338.97"/><g transform="translate(276.17 137.24)"><polygon fill="#FFF" points="111.34 111.33 0 111.33 0 0 111.34 0 111.34 93.92"/><rect width="111.34" height="111.34" x="2.32" y="4.63" fill="#DEDCE4" fill-rule="nonzero"/><polygon stroke="#32406D" points="111.34 111.33 0 111.33 0 0 111.34 0 111.34 93.92"/><g transform="translate(52.67 6.72)"><line x1="3" x2="3" y1="4.3" y2="71.56" stroke="#EF4D7F"/><polygon fill="#EF4D7F" fill-rule="nonzero" points="0 5.18 3 0 5.99 5.18"/><polygon fill="#EF4D7F" fill-rule="nonzero" points="0 70.68 3 75.86 5.99 70.68"/></g><g transform="translate(17.73 41.66)"><line x1="71.56" x2="4.31" y1="2.99" y2="2.99" stroke="#EF4D7F"/><polygon fill="#EF4D7F" fill-rule="nonzero" points="70.69 0 75.87 2.99 70.69 5.98"/><polygon fill="#EF4D7F" fill-rule="nonzero" points="5.18 0 0 2.99 5.18 5.98"/></g></g><path fill="#32406D" fill-rule="nonzero" d="M3.19 6.81 1.75 4.16C1.31 3.33 1.18 2.85 1.18 2.85L1.13 2.85C1.13 2.85 1.2 3.32 1.2 4.23L1.2 8.69 5.68434189e-14 8.69 5.68434189e-14 1.03 1.39 1.03 3.21 4.57C3.51 5.15 3.6 5.51 3.6 5.51L3.65 5.51C3.65 5.51 3.73 5.16 4.04 4.57L5.85 1.03 7.19 1.03 7.19 8.69 5.98 8.69 5.98 4.23C5.98 3.32 6.06 2.85 6.06 2.85L6.01 2.85C6.01 2.85 5.88 3.33 5.43 4.16L4 6.81 3.21 6.81 3.19 6.81ZM12.86 6.94 13.89 7.21C13.64 8.42 12.63 8.83 11.48 8.83 9.88 8.83 8.8 7.72 8.8 5.72 8.8 3.72 9.87 2.52 11.54 2.52 13.09 2.52 13.92 3.59 13.92 5.08 13.92 5.42 13.87 5.73 13.8 5.91L9.93 5.91C9.98 7.08 10.53 7.9 11.54 7.9 12.2 7.9 12.65 7.64 12.85 6.92L12.86 6.94ZM12.77 5.08C12.78 4.99 12.78 4.91 12.78 4.83 12.78 4.06 12.29 3.45 11.48 3.45 10.62 3.45 10.08 4.03 9.96 5.07L12.77 5.07 12.77 5.08ZM18.66 8.49C18.27 8.72 17.76 8.84 17.2 8.84 16.12 8.84 15.47 8.27 15.47 7.15L15.47 3.61 14.6 3.61 14.6 2.67 15.47 2.67 15.47 1.4 16.65 1.26 16.65 2.68 18.43 2.68 18.43 3.62 16.64 3.62 16.64 6.92C16.64 7.57 16.94 7.84 17.43 7.84 17.82 7.84 18.09 7.74 18.43 7.51L18.65 8.48 18.66 8.49ZM20.96 3.82C21.25 2.96 21.87 2.53 22.78 2.53 23.77 2.53 24.6 3.08 24.6 4.39L24.6 8.68 23.43 8.68 23.43 4.73C23.43 4 23.09 3.55 22.38 3.55 21.67 3.55 20.96 3.93 20.96 5.24L20.96 8.69 19.79 8.69 19.79.01 20.96.01 20.96 3.83 20.96 3.82ZM26.01 5.64C26.01 3.6 27.09 2.53 28.74 2.53 30.39 2.53 31.48 3.6 31.48 5.64 31.48 7.68 30.4 8.84 28.74 8.84 27.08 8.84 26.01 7.7 26.01 5.64ZM27.17 5.65C27.17 7.16 27.7 7.91 28.74 7.91 29.78 7.91 30.33 7.16 30.33 5.65 30.33 4.14 29.78 3.48 28.74 3.48 27.7 3.48 27.17 4.18 27.17 5.65ZM36.85 0 38.03 0 38.03 8.68 36.99 8.68 36.86 7.64C36.52 8.55 35.81 8.84 34.95 8.84 33.69 8.84 32.57 7.81 32.57 5.78 32.57 3.75 33.55 2.53 35.26 2.53 36.03 2.53 36.68 2.96 36.85 3.48L36.85 0 36.85 0ZM36.86 4.97C36.86 3.9 36.05 3.45 35.36 3.45 34.48 3.45 33.75 4.06 33.75 5.75 33.75 7.17 34.37 7.92 35.35 7.92 36.01 7.92 36.86 7.39 36.86 6.29L36.86 4.96 36.86 4.97ZM43.58 6.94 44.61 7.21C44.36 8.42 43.35 8.83 42.2 8.83 40.6 8.83 39.52 7.72 39.52 5.72 39.52 3.72 40.59 2.52 42.26 2.52 43.81 2.52 44.64 3.59 44.64 5.08 44.64 5.42 44.59 5.73 44.52 5.91L40.65 5.91C40.7 7.08 41.25 7.9 42.26 7.9 42.92 7.9 43.37 7.64 43.57 6.92L43.58 6.94ZM43.49 5.08C43.5 4.99 43.5 4.91 43.5 4.83 43.5 4.06 43.01 3.45 42.2 3.45 41.34 3.45 40.8 4.03 40.68 5.07L43.49 5.07 43.49 5.08ZM47.19 3.84C47.52 2.94 48.2 2.54 49.11 2.54 50.1 2.54 50.93 3.09 50.93 4.4L50.93 8.69 49.76 8.69 49.76 4.75C49.76 4.01 49.42 3.55 48.71 3.55 48 3.55 47.29 3.94 47.29 5.24L47.29 8.69 46.12 8.69 46.12 2.68 47.04 2.68 47.18 3.84 47.19 3.84Z" transform="translate(306.48 230.54)"/><g transform="translate(314.76 444.64)"><polygon fill="#FFF" points="116.43 0 116.43 62.34 69.78 62.34 42.14 84.53 42.14 62.34 0 62.34 0 0"/><polygon fill="#DEDCE4" points="119.65 2.61 119.65 64.95 73 64.95 45.36 87.14 45.36 64.95 3.22 64.95 3.22 2.61"/><polygon stroke="#32406D" points="116.43 0 116.43 62.34 69.78 62.34 42.14 84.53 42.14 62.34 0 62.34 0 0"/></g><polyline stroke="#32406D" stroke-width="3" points="65.5 241.2 148.93 241.2 237.4 241.2"/><polyline stroke="#32406D" stroke-width="3" points="65.5 261.79 132.28 261.79 203.09 261.79"/><polyline stroke="#32406D" stroke-width="3" points="65.5 282.39 141.79 282.39 222.69 282.39"/><g fill="#32406D" fill-rule="nonzero" transform="translate(339.17 466.37)"><polygon points="5.66 10.32 2.42 5.78 1.61 5.78 1.61 10.32 0 10.32 0 0 1.61 0 1.61 4.38 2.47 4.38 5.48 0 7.37 0 3.78 5.01 7.63 10.32 5.65 10.32"/><path d="M8.31 6.22C8.31 3.47 9.76 2.03 11.99 2.03 14.22 2.03 15.69 3.47 15.69 6.22 15.69 8.97 14.24 10.53 11.99 10.53 9.74 10.53 8.31 8.99 8.31 6.22ZM9.87 6.24C9.87 8.27 10.59 9.29 11.99 9.29 13.39 9.29 14.13 8.27 14.13 6.24 14.13 4.21 13.39 3.31 11.99 3.31 10.59 3.31 9.87 4.26 9.87 6.24ZM19.12 3.78C19.56 2.57 20.49 2.03 21.71 2.03 23.04 2.03 24.16 2.77 24.16 4.53L24.16 10.31 22.58 10.31 22.58 5C22.58 4 22.12 3.39 21.16 3.39 20.2 3.39 19.25 3.92 19.25 5.67L19.25 10.31 17.67 10.31 17.67 2.22 18.91 2.22 19.1 3.78 19.12 3.78ZM28.59 7.72C28 8.58 27.59 9 27.59 9L27.59 9.07C27.59 9.07 28.03 9.02 29.1 9.02L31.85 9.02 31.85 10.32 25.72 10.32 25.72 9.43 28.82 4.86C29.4 4 29.82 3.58 29.82 3.58L29.82 3.51C29.82 3.51 29.36 3.56 28.31 3.56L25.89 3.56 25.89 2.23 31.67 2.23 31.67 3.28 28.59 7.73 28.59 7.72ZM38.26 7.97 39.64 8.34C39.31 9.97 37.94 10.53 36.4 10.53 34.25 10.53 32.79 9.04 32.79 6.34 32.79 3.64 34.23 2.03 36.49 2.03 38.57 2.03 39.7 3.47 39.7 5.48 39.7 5.94 39.63 6.36 39.54 6.6L34.32 6.6C34.39 8.18 35.13 9.28 36.49 9.28 37.38 9.28 37.98 8.93 38.26 7.97L38.26 7.97ZM38.14 5.47C38.16 5.35 38.16 5.24 38.16 5.14 38.16 4.11 37.49 3.28 36.41 3.28 35.25 3.28 34.52 4.07 34.36 5.47L38.14 5.47 38.14 5.47ZM43.27 13.87 41.69 13.87 41.69 2.22 42.99 2.22 43.18 3.78C43.65 2.47 44.84 2.03 45.86 2.03 47.84 2.03 49.05 3.47 49.05 6.08 49.05 8.55 47.79 10.53 45.55 10.53 44.31 10.53 43.55 9.95 43.27 9.25L43.27 13.87 43.27 13.87ZM43.27 7.18C43.27 8.74 44.32 9.34 45.23 9.34 46.44 9.34 47.44 8.36 47.44 6.22 47.44 4.28 46.65 3.33 45.41 3.33 44.25 3.33 43.27 4.19 43.27 5.69L43.27 7.18 43.27 7.18ZM55.43 10.05C54.9 10.37 54.22 10.52 53.47 10.52 52.02 10.52 51.14 9.75 51.14 8.24L51.14 3.48 49.97 3.48 49.97 2.22 51.14 2.22 51.14.5 52.73.31 52.73 2.22 55.13 2.22 55.13 3.48 52.71 3.48 52.71 7.93C52.71 8.81 53.11 9.17 53.78 9.17 54.31 9.17 54.67 9.03 55.13 8.73L55.43 10.04 55.43 10.05ZM61.8 7.97 63.18 8.34C62.85 9.97 61.48 10.53 59.94 10.53 57.78 10.53 56.33 9.04 56.33 6.34 56.33 3.64 57.77 2.03 60.03 2.03 62.11 2.03 63.24 3.47 63.24 5.48 63.24 5.94 63.17 6.36 63.08 6.6L57.86 6.6C57.93 8.18 58.67 9.28 60.03 9.28 60.92 9.28 61.52 8.93 61.8 7.97L61.8 7.97ZM61.68 5.47C61.7 5.35 61.7 5.24 61.7 5.14 61.7 4.11 61.03 3.28 59.95 3.28 58.79 3.28 58.06 4.07 57.9 5.47L61.68 5.47 61.68 5.47Z"/></g><g fill-rule="nonzero" transform="translate(150.14 302.18)"><polygon fill="#DEDCE4" points="49.01 2.34 49.01 6.06 68.72 6.06 1.69 73.1 4.32 75.73 71.36 8.69 71.36 28.41 75.08 28.41 75.08 2.34"/><polygon fill="#FFF" stroke="#32406D" points="47.32 0 47.32 3.72 67.03 3.72 0 70.75 2.63 73.39 69.67 6.35 69.67 26.06 73.39 26.06 73.39 0"/></g></g></g></svg>