<svg xmlns="http://www.w3.org/2000/svg" width="94" height="20" viewBox="0 0 94 20"><g fill="currentColor" fill-rule="evenodd" transform="translate(0 -.002)"><path d="M15.660522,8.34077847 L14.3378113,9.0381769 C14.1964732,8.74081581 14.0204673,8.53146294 13.8124604,8.41278519 C13.6031201,8.29277399 13.4031134,8.23410185 13.2137738,8.23410185 C12.3204107,8.23410185 11.8737291,8.82349019 11.8737291,10.0022669 C11.8737291,10.5383169 11.9870662,10.9650234 12.2124071,11.2877202 C12.4390813,11.6090835 12.7724257,11.7690984 13.2137738,11.7690984 C13.7964599,11.7690984 14.2071402,11.4837385 14.4444815,10.9130185 L15.6951898,11.5384103 C15.4218474,12.0264558 15.0525018,12.4104916 14.5884863,12.6891843 C14.1244708,12.9692105 13.6191206,13.1092235 13.0711024,13.1092235 C12.1657389,13.1092235 11.4430481,12.8358647 10.9016967,12.2878135 C10.359012,11.7397624 10.0883363,10.978358 10.0883363,10.0022669 C10.0883363,9.05017802 10.3643455,8.29410745 10.9190306,7.73405518 C11.4723824,7.17400291 12.1710724,6.89397677 13.0177673,6.89397677 C14.2551418,6.89397677 15.1365046,7.37668849 15.660522,8.34077847 M9.89232974,8.34077847 L8.55228508,9.0381769 C8.40961365,8.74081581 8.23360779,8.53146294 8.02560085,8.41278519 C7.81759392,8.29277399 7.62425414,8.23410185 7.44558152,8.23410185 C6.55221841,8.23410185 6.10687023,8.82349019 6.10687023,10.0022669 C6.10687023,10.5383169 6.21887396,10.9650234 6.44421481,11.2877202 C6.67088903,11.6090835 7.00423347,11.7690984 7.44558152,11.7690984 C8.02826761,11.7690984 8.44028134,11.4837385 8.67762259,10.9130185 L9.90966366,11.5384103 C9.64832161,12.0264558 9.28430948,12.4104916 8.82029401,12.6891843 C8.35627854,12.9692105 7.84426148,13.1092235 7.28424281,13.1092235 C6.39221307,13.1092235 5.6708557,12.8358647 5.12417081,12.2878135 C4.57615254,11.7397624 4.30281009,10.978358 4.30281009,10.0022669 C4.30281009,9.05017802 4.57881929,8.29410745 5.13217107,7.73405518 C5.68685623,7.17400291 6.38554618,6.89397677 7.2309077,6.89397677 C8.46961565,6.89397677 9.35631188,7.37668849 9.89232974,8.34077847 M10.0176673,1.80416839 C7.73225774,1.80416839 5.80952698,2.60157615 4.24947498,4.19772512 C3.46278209,4.99513288 2.85876196,5.89121651 2.4360812,6.88464257 C2.01340045,7.87940208 1.80272676,8.9181657 1.80272676,10.0009334 C1.80272676,11.0730335 2.01340045,12.1064633 2.4360812,13.0998893 C2.85876196,14.0946488 3.46278209,14.9813983 4.24947498,15.7614711 C5.03483449,16.5415439 5.92153072,17.1362661 6.91089703,17.5469711 C7.89892996,17.957676 8.9349645,18.1630285 10.0176673,18.1630285 C11.0883696,18.1630285 12.1270709,17.9563426 13.1337711,17.5389703 C14.1404713,17.121598 15.0471682,16.5202086 15.8578619,15.7348019 C17.4165806,14.2106597 18.1966066,12.2998146 18.1966066,10.0022669 C18.1966066,8.89416346 17.9939331,7.84739909 17.5885863,6.85797341 C17.1845728,5.86988119 16.5952198,4.98979905 15.8218607,4.21506007 C14.2138071,2.60824344 12.279076,1.80416839 10.0176673,1.80416839 M9.98166606,0 C12.7790926,0 15.1605054,0.976091102 17.1245708,2.92960676 C18.0646022,3.8696945 18.7792926,4.94446148 19.2673089,6.15257424 C19.7553252,7.360687 20.0006667,8.64347339 20.0006667,10.0009334 C20.0006667,11.3703946 19.7579919,12.653181 19.2766426,13.8492926 C18.7952932,15.0454042 18.0832694,16.1028363 17.1432381,17.0189218 C16.1672056,17.9843452 15.060502,18.7217474 13.8204607,19.2337952 C12.5830861,19.7458429 11.3030434,20.0018668 9.98299943,20.0018668 C8.66028868,20.0018668 7.39624654,19.7498433 6.1868729,19.2431294 C4.97883263,18.7377489 3.89612987,18.0043471 2.93743125,17.0469244 C1.97873262,16.0881682 1.24937498,15.0080674 0.749358312,13.8052885 C0.249341645,12.6025096 0,11.3343912 0,10.0009334 C0,8.67947675 0.2520084,7.40869148 0.758691956,6.1885776 C1.26404213,4.96846372 2.00006667,3.87502834 2.96276543,2.91093835 C4.86816227,0.970757271 7.20824027,0 9.98166606,0"/><path d="M8.60672404,4.94706243 C8.60672404,4.00698723 9.07072714,3.5362829 10.0000667,3.5362829 C10.9294062,3.5362829 11.3920759,4.00565379 11.3920759,4.94706243 C11.3920759,5.87513668 10.9294062,6.3391738 10.0000667,6.3391738 C9.07206048,6.3391738 8.60672404,5.87513668 8.60672404,4.94706243 M12.697418,7.51926821 L12.697418,11.6075953 L11.5547437,11.6075953 L11.5547437,16.4653172 L8.44672298,16.4653172 L8.44672298,11.6075953 L7.30404869,11.6075953 L7.30404869,7.51926821 C7.30404869,7.33925381 7.36671578,7.18724165 7.4907166,7.06323173 C7.61605077,6.93788836 7.76805179,6.87521668 7.94671964,6.87521668 L12.054747,6.87521668 C12.2200815,6.87521668 12.3694158,6.93788836 12.5000833,7.06323173 C12.6307509,7.18724165 12.697418,7.33925381 12.697418,7.51926821 M10.0174001,1.80414433 C7.74405163,1.80414433 5.82137214,2.60154146 4.24936166,4.19766915 C2.61868412,5.86313572 1.80401203,7.79929061 1.80401203,10.0008001 C1.80401203,12.2156439 2.61335076,14.1317972 4.23202821,15.7505934 C5.85070567,17.370723 7.77871852,18.1801211 10.0160668,18.1801211 C12.2427483,18.1801211 14.1840946,17.3640558 15.8387723,15.7332587 C17.4107827,14.2211377 18.1961213,12.3103182 18.1961213,9.99946662 C18.1961213,7.72728485 17.3987827,5.7924634 15.8041054,4.19633571 C14.2080947,2.60154146 12.2800819,1.80414433 10.0174001,1.80414433 M9.98273322,0 C12.7907519,0 15.1601011,0.964077126 17.0894473,2.89356482 C19.0294602,4.83372003 20.0001333,7.20324293 20.0001333,10.0008001 C20.0001333,12.8103582 19.0467936,15.1505454 17.1414476,17.0186948 C15.1187675,19.0068539 12.7320849,20.0016001 9.98273322,20.0016001 C7.27871519,20.0016001 4.93469956,19.0188548 2.94668631,17.0546977 C0.982673218,15.0905406 0,12.7396858 0,10.0008001 C0,7.26324773 0.982673218,4.89372483 2.94668631,2.89356482 C4.87469916,0.964077126 7.22004813,0 9.98273322,0" transform="translate(25)"/><path d="M12.4543297,9.70198013 L12.603675,9.70198013 L12.603675,8.51390093 L9.7687815,8.51390093 L8.61802278,8.00453364 C8.71669734,7.7805187 8.83404006,7.58183879 8.97138438,7.42582839 C9.49009254,6.78845256 10.2261514,6.52176812 11.0302158,6.52176812 C11.7662746,6.52176812 12.4529962,6.73778252 12.8890311,6.92179479 L13.3570686,5.01366758 C12.7543537,4.74698313 11.8662826,4.51230082 10.846201,4.51230082 C9.27274182,4.51230082 7.93263461,5.14834322 6.97789156,6.21908127 C6.7658746,6.46443096 6.58319332,6.73911594 6.41651332,7.02980199 L3.12825026,5.57370491 C3.44560898,5.09633976 3.82030562,4.63764251 4.25500707,4.1989466 C5.82446596,2.59883992 7.74328613,1.79878659 10.012801,1.79878659 C12.2823159,1.79878659 14.2104702,2.59883992 15.7959303,4.1989466 C17.3960584,5.7830522 18.1974558,7.71518101 18.1974558,10.0006667 C18.1974558,10.7527168 18.1121156,11.4620975 17.9441022,12.1314754 L12.4543297,9.70198013 Z M15.8439342,15.7263818 C14.191802,17.3584906 12.2476465,18.174545 10.012801,18.174545 C7.77662213,18.174545 5.84846788,17.3664911 4.22967171,15.7490499 C2.61087554,14.1316088 1.80147745,12.215481 1.80147745,9.99933329 C1.80147745,9.06193746 1.94948929,8.17521168 2.24151265,7.34048937 L4.89239139,8.51390093 L4.70170947,8.51390093 L4.70170947,9.70198013 L5.6391178,9.70198013 C5.6391178,9.86999133 5.62178308,10.0380025 5.62178308,10.2046803 L5.62178308,10.4900327 L4.70170947,10.4900327 L4.70170947,11.6781119 L5.78846308,11.6781119 C5.94047524,12.5661711 6.27516868,13.2862191 6.7258714,13.8555904 C7.66461317,15.0943396 9.17140038,15.7637176 10.8115316,15.7637176 C11.8836174,15.7637176 12.8530282,15.4450297 13.4224071,15.1276752 L13.0210417,13.2688846 C12.670347,13.4528969 11.8822839,13.7035802 11.112889,13.7035802 C10.2768221,13.7035802 9.49009254,13.4528969 8.95404966,12.85019 C8.7020295,12.5661711 8.51801477,12.1808121 8.40200549,11.6781119 L12.0409633,11.6781119 L17.2133771,13.9675978 C16.8546817,14.6023068 16.4013121,15.1890126 15.8439342,15.7263818 L15.8439342,15.7263818 Z M17.0960343,2.89885992 C15.1612129,0.966731115 12.7903566,0 9.98746566,0 C7.21657733,0 4.87238979,0.965397693 2.95356962,2.89885992 C0.984078726,4.89899327 0,7.26581772 0,10.0006667 C0,12.7328489 0.984078726,15.0836722 2.95356962,17.05047 C4.92172707,19.0186012 7.26724805,20.0013334 9.98746566,20.0013334 C12.7410193,20.0013334 15.1278769,19.0079339 17.1467051,17.025135 C19.049524,15.1423428 20.0016001,12.79952 20.0016001,10.0006667 C20.0016001,7.20048003 19.0335227,4.83232215 17.0960343,2.89885992 L17.0960343,2.89885992 Z" transform="translate(49)"/><path d="M5.55377764,8.59024963 C5.74445956,7.3634521 6.23783236,6.4140175 7.03656293,5.74194581 C7.83396005,5.06987412 8.80337094,4.73383828 9.94612902,4.73383828 C11.5182548,4.73383828 12.7690215,5.23922552 13.6970958,6.25 C14.62517,7.26344143 15.0892071,8.56091316 15.0892071,10.1437487 C15.0892071,11.6799125 14.6078353,12.9560486 13.6437582,13.974824 C12.6783476,14.9922658 11.4289143,15.5016535 9.89279142,15.5016535 C8.7620343,15.5016535 7.78595621,15.1629507 6.96455716,14.4828782 C6.14315812,13.8041391 5.64845188,12.8413697 5.48177188,11.5905697 L8.00064005,11.5905697 C8.06064485,12.8053659 8.79136998,13.4120973 10.1968157,13.4120973 C10.8982052,13.4120973 11.4649172,13.1080649 11.8942849,12.5013335 C12.3223191,11.8946021 12.537003,11.0838489 12.537003,10.0730745 C12.537003,9.01296138 12.3409873,8.20620866 11.9476225,7.6528163 C11.5542577,7.09942394 10.9902126,6.82206102 10.2514868,6.82206102 C8.91671334,6.82206102 8.16732005,7.41145722 8.00064005,8.59024963 L8.73269862,8.59024963 L6.75120676,10.5717943 L4.76838147,8.59024963 L5.55377764,8.59024963 Z M10.0181348,1.80419245 C7.74461957,1.80419245 5.82179908,2.60827822 4.24967331,4.21511628 C2.61887618,5.87129294 1.80281089,7.79949861 1.80281089,10.0010668 C1.80281089,12.227971 2.61220898,14.1441754 4.23100515,15.7523469 C5.85113476,17.3725197 7.77928901,18.1806059 10.0181348,18.1806059 C12.2436462,18.1806059 14.1851348,17.3658524 15.8399339,15.7350117 C17.4120596,14.2108492 18.1974558,12.2999787 18.1974558,10.0010668 C18.1974558,7.71548965 17.3987252,5.78728398 15.803931,4.21511628 C14.2211377,2.60694474 12.29165,1.80419245 10.0181348,1.80419245 L10.0181348,1.80419245 Z M9.9821319,0 C12.779689,0 15.1492119,0.970770215 17.0907006,2.91231065 C19.0308558,4.84051632 20.0016001,7.20343503 20.0016001,10.0010668 C20.0016001,12.800032 19.0481905,15.1442821 17.1440382,17.0378174 C15.1318772,19.0140282 12.7450196,20.0021336 9.9821319,20.0021336 C7.27924901,20.0021336 4.93506147,19.0206955 2.94690242,17.0551525 C0.981411846,15.090943 0,12.7400256 0,10.0024003 C0,7.27544271 0.981411846,4.912524 2.94690242,2.91231065 C4.88705763,0.970770215 7.23257861,0 9.9821319,0 L9.9821319,0 Z" transform="translate(74)"/></g></svg>