<svg xmlns="http://www.w3.org/2000/svg" width="872" height="175" viewBox="0 0 872 175"><g fill="none"><path fill="#2F2FA2" d="M273.878618 99.7743212C268.258397 109.4728 261.076012 114.269406 246.9194 114.269406 230.058737 114.269406 218.4 102.588727 218.4 82.1490285 218.4 61.7093296 229.537355 50.3424658 248.792807 50.3424658 261.908638 50.3424658 269.923648 56.2870794 274.4 66.1941066L259.202605 73.5985568C257.537355 67.8624913 254.93441 64.2138929 248.376494 64.2138929 239.737015 64.2138929 234.43002 71.0959798 234.43002 82.5661246 234.43002 93.8297076 239.217615 100.397979 248.792807 100.397979 253.685472 100.397979 258.058737 97.5835732 260.243387 91.9527748L273.878618 99.7743212ZM282.238876 113.47032 297.451814 113.47032 297.451814 65.4333996 282.238876 65.4333996 282.238876 113.47032ZM289.846324 42.3515982C295.190722 42.3515982 299.2 45.1595936 299.2 50.9835107 299.2 56.5975213 295.190722 59.5084897 289.846324 59.5084897 284.913033 59.5084897 280.8 56.5975213 280.8 50.9835107 280.8 45.1595936 284.913033 42.3515982 289.846324 42.3515982L289.846324 42.3515982ZM344 111.030374C339.631462 113.226868 334.43318 114.269406 328.195241 114.269406 318.42049 114.269406 311.766689 109.77694 311.766689 98.078223L311.766689 76.664398 304.8 76.664398 304.8 64.7527963 311.869664 64.7527963 311.869664 54.5164189 327.25856 52.739726 327.25856 64.7527963 341.504824 64.7527963 341.504824 76.664398 327.155585 76.664398 327.155585 94.5248372C327.155585 99.5405626 329.131922 101.10835 332.874686 101.10835 335.888699 101.10835 338.593786 99.9583739 341.399869 97.9747649L344 111.030374ZM368.953618 85.2968043C371.562766 94.7436503 372.085789 101.040215 372.085789 101.040215L372.503411 101.040215C372.503411 101.040215 373.024445 94.6377081 375.844393 85.2968043L382.110724 64.7260274 398.4 64.7260274 378.873153 117.623168C373.235246 132.840865 366.447881 135.045662 356.005324 135.045662 353.081964 135.045662 349.635582 134.519949 346.921034 133.892291L349.323359 120.03785C351.097262 121.191221 353.396176 121.820877 355.693101 121.820877 359.869328 121.820877 362.583876 120.245737 364.254367 115.944084L346.4 64.7260274 363.315711 64.7260274 368.953618 85.2968043Z"/><polygon fill="#2F2FA2" points="421.968 51.941 421.968 99.889 444.8 99.889 444.8 113.47 406.4 113.47 406.4 51.941"/><path fill="#2F2FA2" d="M473.521424 88.9209202 487.242692 88.9209202 485.566934 84.2215377C481.900215 73.9831708 480.643396 66.2516718 480.643396 66.2516718L480.224457 66.2516718C480.224457 66.2516718 478.654431 74.0866288 475.197182 84.1160901L473.521424 88.9209202ZM491.851027 101.978519 469.120564 101.978519 465.24637 113.47032 448.8 113.47032 471.111524 51.9406393 490.281001 51.9406393 512.8 113.47032 495.936685 113.47032 491.851027 101.978519ZM537.308865 100.203815 547.151837 100.203815C551.76118 100.203815 554.483705 98.9503815 554.483705 94.2490093 554.483705 90.3832598 551.76118 88.5031089 547.151837 88.5031089L537.308865 88.5031089 537.308865 100.203815ZM545.163298 77.2202137C549.455512 77.2202137 552.18003 75.654416 552.18003 71.3708552 552.18003 66.7749307 549.561221 65.2071435 544.848163 65.2071435L537.308865 65.2071435 537.308865 77.2202137 545.163298 77.2202137ZM556.787379 82.1304915C566.002076 83.4893731 570.4 89.4441792 570.4 96.7578668 570.4 106.785339 563.594687 113.47032 548.514097 113.47032L521.6 113.47032 521.6 51.9406393 548.723521 51.9406393C561.185303 51.9406393 567.783186 57.7919873 567.783186 67.4016477 567.783186 75.0276991 563.488977 79.9359873 556.787379 81.7126802L556.787379 82.1304915ZM631.901465 77.2202137C636.160898 77.2202137 639.900018 75.654416 639.900018 70.5352326 639.900018 66.6694831 637.717875 65.2071435 633.66815 65.2071435L626.603388 65.2071435 624.526099 77.2202137 631.901465 77.2202137ZM620.474396 100.203815 630.239634 100.203815C635.120275 100.203815 638.548791 98.3216749 638.548791 93.5168447 638.548791 90.3832598 636.88696 88.5031089 632.316923 88.5031089L622.551685 88.5031089 620.474396 100.203815ZM641.769579 82.0270335C650.701923 83.385915 653.922711 89.0263678 653.922711 94.9791844 653.922711 107.515514 644.054597 113.47032 629.096136 113.47032L602.4 113.47032 613.101008 51.9406393 638.445916 51.9406393C651.014506 51.9406393 656 57.6865397 656 65.7304024 656 75.0257095 649.560403 80.5646938 641.874433 81.6072326L641.769579 82.0270335ZM693.51795 83.5459719C693.623361 82.9232396 693.726782 82.1957302 693.726782 81.3634436 693.726782 77.9394047 692.577212 75.2408983 688.505983 75.2408983 684.327355 75.2408983 681.823361 79.082069 680.673791 83.5459719L693.51795 83.5459719ZM692.473791 96.4177486 707.302848 99.9465647C704.482623 109.702703 697.8 114.269406 684.223934 114.269406 670.335614 114.269406 662.4 106.17191 662.4 93.4049107 662.4 74.4105886 675.138749 63.9269406 689.132479 63.9269406 703.126209 63.9269406 709.6 72.3348145 709.6 81.3634436 709.6 85.2065912 708.868094 88.9410078 707.51168 91.6414911L679.003135 91.6414911C677.750143 97.9735908 680.359548 102.437494 685.476926 102.437494 689.027069 102.437494 691.429631 100.982475 692.473791 96.4177486L692.473791 96.4177486ZM752.341238 82.687571C745.443736 79.0224358 736.036061 80.0713265 734.260427 90.2252266L730.183635 113.47032 714.4 113.47032 722.866112 65.0977138 736.663107 65.0977138 736.350579 78.396292C739.692832 68.447783 747.740913 62.1664033 756 64.3658833L752.341238 82.687571ZM773.706457 97.342227C773.284611 99.6407095 773.495534 101.624768 776.659379 101.624768 777.607528 101.624768 778.557686 101.417805 779.823224 101.10338L777.292148 112.910217C774.656615 113.746029 771.595219 114.269406 768.959686 114.269406 759.361686 114.269406 755.565073 109.463488 757.148 100.162097L767.272302 43.9497717 783.2 43.9497717 773.706457 97.342227ZM804.179359 41.5525114C809.562019 41.5525114 813.6 44.3714144 813.6 50.2159663 813.6 55.8517843 809.562019 58.7760482 804.179359 58.7760482 799.208779 58.7760482 795.070243 55.8517843 795.070243 50.2159663 795.070243 44.3714144 799.208779 41.5525114 804.179359 41.5525114L804.179359 41.5525114ZM804.59341 96.5608778C804.179359 98.8569518 804.386385 100.838931 807.493737 100.838931 808.424366 100.838931 809.356966 100.632185 810.599118 100.31809L808.112842 112.112555C805.52601 112.947491 802.523156 113.47032 799.936325 113.47032 790.513713 113.47032 786.789228 108.669438 788.340932 99.3777928L794.447195 64.7239732 810.080569 64.7239732 804.59341 96.5608778ZM865.904769 96.6795004C865.484408 98.959467 865.694589 100.927542 868.847294 100.927542 869.792105 100.927542 870.738918 100.722246 872 100.410355L869.477835 112.12208C866.851582 112.951158 863.800964 113.47032 861.17471 113.47032 851.610502 113.47032 847.827255 108.703117 849.404608 99.4766543L852.030862 84.5512622C852.767494 80.1985987 851.926773 76.6750139 847.092624 76.6750139 843.307376 76.6750139 840.15467 79.993303 838.787497 87.5576598L834.267618 112.951158 818.4 112.951158 826.913306 65.065937 840.785211 65.065937 840.995392 74.8095866C844.044008 67.762417 848.351705 63.9269406 856.44465 63.9269406 864.117235 63.9269406 868.951384 68.7987655 868.951384 76.1578266 868.951384 77.8140102 868.847294 78.9549805 868.637114 80.1985987L865.904769 96.6795004Z"/><polygon fill="#F64C72" points="95.187 123.059 66.4 106.693 66.948 33.541 125.711 0 153.6 15.912 153.486 89.531"/><polygon fill="#393A61" points="69.6 24.613 60.326 29.963 60.084 62.498 27.166 81.49 26.728 140.639 0 125.281 .543 51.985 58.791 18.379"/><polygon fill="#2F2FA2" points="60.475 70.32 60.173 110.995 95.341 131.154 120 116.854 119.964 141.471 62.147 175 33.6 158.633 34.143 85.477"/></g></svg>