<svg xmlns="http://www.w3.org/2000/svg" width="126" height="38" viewBox="0 0 126 38"><g fill="none"><path fill="#000" d="M22.3932449,26.1091877 L22.3932449,32.2316911 L25.2810615,32.2316911 L25.2557298,33.0665779 L21.5066345,33.0665779 L21.5066345,26.1091877 L22.3932449,26.1091877 Z M8.03015682,26.1091877 L8.03015682,33.0665779 L12.0072376,33.0665779 L12.0325694,32.2316911 L8.91676719,32.2316911 L8.91676719,29.828229 L11.4752714,29.828229 L11.4752714,29.069241 L8.91676719,29.069241 L8.91676719,26.9440746 L11.9059107,26.9440746 L11.880579,26.1091877 L8.03015682,26.1091877 Z M17.8082027,28.1078562 C17.8082027,27.1970706 17.4535585,26.8934754 16.668275,26.8934754 L15.4523522,26.8934754 L15.4523522,29.3475366 L16.6429433,29.3475366 C17.4535585,29.3475366 17.8082027,29.0439414 17.8082027,28.1078562 Z M17.4788902,29.9041278 L19.1507841,33.0412783 L18.1121834,33.0412783 L16.6936068,30.0559254 L15.4523522,30.0559254 L15.4523522,33.0412783 L14.5657419,33.0412783 L14.5657419,26.1091877 L16.6429433,26.1091877 C18.0361882,26.1091877 18.694813,26.7163782 18.694813,28.0825566 C18.7201448,29.1704394 18.2895054,29.7523302 17.4788902,29.9041278 Z M3.26779252,32.2822903 C4.02774427,32.2822903 4.45838359,31.9786951 4.45838359,31.0173103 C4.45838359,30.1571238 4.07840772,29.8029294 3.2424608,29.8029294 L1.77322075,29.8029294 L1.77322075,32.2822903 L3.26779252,32.2822903 Z M1.74788902,29.0945406 L3.16646562,29.0945406 C3.90108565,29.0945406 4.20506634,28.7403462 4.20506634,27.9813582 C4.20506634,27.171771 3.87575392,26.8934754 3.11580217,26.8934754 L1.7225573,26.8934754 L1.7225573,29.0945406 L1.74788902,29.0945406 Z M4.1544029,29.3728362 C4.88902292,29.5499334 5.31966224,30.081225 5.31966224,31.0679095 C5.31966224,32.3328895 4.73703257,33.0412783 3.2424608,33.0412783 L0.886610374,33.0412783 L0.886610374,26.1091877 L3.16646562,26.1091877 C4.43305187,26.1091877 5.09167672,26.665779 5.09167672,27.8295606 C5.09167672,28.689747 4.71170084,29.1704394 4.1544029,29.3728362 L4.1544029,29.3728362 Z M27.6369119,33.0412783 L28.5235223,33.0412783 L28.5235223,26.1091877 L28.0675513,26.1091877 L27.6115802,26.1091877 L27.6115802,33.0412783 L27.6369119,33.0412783 Z M35.5657419,26.1091877 L35.5657419,30.6378162 L35.5910736,31.3715047 L35.5657419,31.3715047 L35.185766,30.713715 L32.424608,26.1091877 L31.6139928,26.1091877 L31.6139928,33.0665779 L32.3992762,33.0665779 L32.3992762,28.3861518 L32.3992762,27.6271638 L32.424608,27.6271638 L32.8045838,28.2849534 L35.7177322,33.0665779 L36.3510253,33.0665779 L36.3510253,26.1091877 L35.5657419,26.1091877 Z M48.6622437,18.9747004 C48.4595899,19.0252996 48.2569361,19.0505992 48.0036188,19.0505992 C46.9396864,19.0505992 46.5597105,18.5952064 46.5597105,16.7989348 C46.5597105,15.0279627 46.9396864,14.5472703 48.1809409,14.5472703 C48.7129071,14.5472703 49.2702051,14.6484687 49.7008444,14.8255659 L49.8528347,13.5352863 C49.371532,13.3328895 48.7129071,13.2316911 48.1049457,13.2316911 C45.9517491,13.2316911 45.039807,14.3448735 45.039807,16.849534 C45.039807,19.2782956 45.8504222,20.4420772 48.0542823,20.4420772 C48.7635706,20.4420772 49.4981906,20.2902796 49.9794934,20.0625832 L49.9794934,16.5206391 L48.6622437,16.5206391 L48.6622437,18.9747004 Z M14.8950543,13.3328895 L14.1604343,13.3328895 L13.4258142,13.3328895 L13.4258142,20.2902796 L14.920386,20.2902796 L14.920386,13.3328895 L14.8950543,13.3328895 Z M8.20747889,20.2902796 L9.67671894,20.2902796 L9.67671894,14.6990679 L11.3739445,14.6990679 L11.3486128,13.3328895 L6.56091677,13.3328895 L6.53558504,14.6990679 L8.23281062,14.6990679 L8.23281062,20.2902796 L8.20747889,20.2902796 Z M2.5331725,19.1011984 C1.89987937,19.1011984 1.34258142,18.9241012 0.810615199,18.6458056 L0.607961399,19.9360852 C1.13992762,20.2396804 1.8238842,20.4167776 2.55850422,20.4167776 C4.053076,20.4167776 4.93968637,19.6071904 4.93968637,18.241012 C4.93968637,15.9640479 2.05186972,16.3688415 2.05186972,15.2556591 C2.05186972,14.8761651 2.27985525,14.5725699 3.06513872,14.5725699 C3.5464415,14.5725699 4.02774427,14.6737683 4.55971049,14.8508655 L4.73703257,13.5858855 C4.25572979,13.3581891 3.62243667,13.2316911 2.98914355,13.2316911 C1.39324487,13.2316911 0.658624849,14.1424767 0.658624849,15.3062583 C0.658624849,17.5832224 3.5464415,17.1784288 3.5464415,18.3169108 C3.52110977,18.8229028 3.21712907,19.1011984 2.5331725,19.1011984 Z M41.4173703,16.7989348 L41.4427021,17.5326232 L41.4173703,17.5326232 L38.8335344,13.3075899 L37.5922799,13.3075899 L37.5922799,20.2902796 L38.8841978,20.2902796 L38.8841978,16.6218375 L38.8841978,15.8628495 L38.9095296,15.8628495 L39.2895054,16.5206391 L41.6706876,20.2902796 L42.7092883,20.2902796 L42.7092883,13.3328895 L41.4173703,13.3328895 L41.4173703,16.7989348 L41.4173703,16.7989348 Z M21.278649,16.2423435 L18.9987937,16.2423435 L18.9987937,14.6990679 L21.7092883,14.6990679 L21.6839566,13.3328895 L17.5295537,13.3328895 L17.5295537,20.2902796 L18.9987937,20.2902796 L18.9987937,17.5326232 L21.2533172,17.5326232 L21.278649,16.2423435 Z M35.0844391,17.9121172 L35.0844391,13.3328895 L33.6405308,13.3328895 L33.6405308,17.9121172 C33.6405308,18.7217044 33.3365501,19.0505992 32.5512666,19.0505992 C31.7659831,19.0505992 31.4366707,18.6964048 31.4366707,17.9121172 L31.4366707,13.3328895 L29.9674306,13.3328895 L29.9674306,17.9121172 C29.9674306,19.5818908 30.854041,20.391478 32.5259349,20.391478 C34.1978287,20.391478 35.0844391,19.5818908 35.0844391,17.9121172 Z M28.092883,13.3328895 L23.305187,13.3328895 L23.2798552,14.6990679 L24.9770808,14.6990679 L24.9770808,20.2902796 L26.4463209,20.2902796 L26.4463209,14.6990679 L28.1435464,14.6990679 L28.092883,13.3328895 Z M32.60193,7.13448735 L32.60193,0.177097204 L31.3100121,0.177097204 L31.3100121,3.64314248 L31.3353438,4.37683089 L31.3100121,4.37683089 L28.7515078,0.177097204 L27.5102533,0.177097204 L27.5102533,7.13448735 L28.8021713,7.13448735 L28.8021713,3.46604527 L28.8021713,2.70705726 L28.827503,2.70705726 L29.2074789,3.36484687 L31.588661,7.13448735 C31.5633293,7.13448735 32.60193,7.13448735 32.60193,7.13448735 Z M1.67189385,7.13448735 L3.1411339,7.13448735 L3.1411339,1.54327563 L4.83835947,1.54327563 L4.81302774,0.177097204 L0.025331725,0.177097204 L0,1.54327563 L1.69722557,1.54327563 L1.69722557,7.13448735 L1.67189385,7.13448735 Z M68.9276236,5.81890812 L68.9276236,4.17443409 L71.2328106,4.17443409 L71.2328106,2.96005326 L68.9276236,2.96005326 L68.9276236,1.49267643 L71.6634499,1.49267643 L71.6381182,0.151797603 L67.4837153,0.151797603 L67.4837153,7.13448735 L71.7647768,7.13448735 L71.7901086,5.81890812 L68.9276236,5.81890812 L68.9276236,5.81890812 Z M46.8383595,5.76830892 L44.2798552,5.76830892 L44.2798552,0.177097204 L42.8106152,0.177097204 L42.8106152,7.13448735 L46.8130277,7.13448735 L46.8383595,5.76830892 Z M21.278649,4.25033289 L23.4318456,4.25033289 L23.4318456,7.13448735 L24.9010856,7.13448735 L24.9010856,0.177097204 L23.4318456,0.177097204 L23.4318456,2.88415446 L21.278649,2.88415446 L21.278649,0.177097204 L19.8094089,0.177097204 L19.8094089,7.13448735 L21.278649,7.13448735 L21.278649,4.25033289 Z M11.2219542,5.81890812 L8.35946924,5.81890812 L8.35946924,4.17443409 L10.6646562,4.17443409 L10.6646562,2.96005326 L8.35946924,2.96005326 L8.35946924,1.49267643 L11.0952955,1.49267643 L11.0699638,0.151797603 L6.91556092,0.151797603 L6.91556092,7.13448735 L11.1966224,7.13448735 L11.2219542,5.81890812 Z M38.9348613,3.64314248 C38.9348613,1.79627164 38.6308806,1.41677763 37.668275,1.41677763 C36.7310012,1.41677763 36.4016888,1.82157124 36.4016888,3.64314248 C36.4016888,5.49001332 36.7310012,5.89480692 37.668275,5.89480692 C38.6308806,5.89480692 38.9348613,5.49001332 38.9348613,3.64314248 Z M37.668275,7.23568575 C35.7177322,7.23568575 34.8817853,6.19840213 34.8817853,3.64314248 C34.8817853,1.06258322 35.6924005,0.0505992011 37.668275,0.0505992011 C39.6441496,0.0505992011 40.4547648,1.06258322 40.4547648,3.64314248 C40.4800965,6.27430093 39.6441496,7.23568575 37.668275,7.23568575 Z M63.3546441,7.13448735 L64.8492159,7.13448735 L64.8492159,0.177097204 L64.0892642,0.177097204 L63.3546441,0.177097204 L63.3546441,7.13448735 Z M16.0603136,7.23568575 C16.6176116,7.23568575 17.2002413,7.10918775 17.6308806,6.88149134 L17.4788902,5.64181092 C17.1242461,5.79360852 16.7442702,5.89480692 16.2882992,5.89480692 C15.1483715,5.89480692 14.7430639,5.38881491 14.7430639,3.56724368 C14.7430639,1.87217044 15.1230398,1.36617843 16.2629674,1.36617843 C16.7189385,1.36617843 17.1495778,1.46737683 17.4788902,1.56857523 L17.6308806,0.278295606 C17.2762364,0.126498003 16.668275,0 16.1616405,0 C14.1351025,0 13.2231604,1.16378162 13.2231604,3.54194407 C13.2231604,6.12250333 14.1351025,7.23568575 16.0603136,7.23568575 Z M52.411339,3.64314248 C52.411339,1.79627164 52.1073583,1.41677763 51.1447527,1.41677763 C50.2074789,1.41677763 49.8781665,1.82157124 49.8781665,3.64314248 C49.8781665,5.49001332 50.2074789,5.89480692 51.1447527,5.89480692 C52.1073583,5.89480692 52.411339,5.49001332 52.411339,3.64314248 Z M53.9565742,3.64314248 C53.9565742,6.27430093 53.145959,7.23568575 51.1700844,7.23568575 C49.2195416,7.23568575 48.3835947,6.19840213 48.3835947,3.64314248 C48.3835947,1.06258322 49.1942099,0.0505992011 51.1700844,0.0505992011 C53.145959,0.0505992011 53.9565742,1.08788282 53.9565742,3.64314248 Z M59.5548854,5.81890812 C59.3522316,5.86950732 59.1242461,5.89480692 58.8962606,5.89480692 C57.8323281,5.89480692 57.4523522,5.43941411 57.4523522,3.64314248 C57.4523522,1.87217044 57.8323281,1.39147803 59.0735826,1.39147803 C59.6055489,1.39147803 60.1628468,1.49267643 60.5934861,1.66977364 L60.7454765,0.379494008 C60.2895054,0.177097204 59.6055489,0.0505992011 58.9975875,0.0505992011 C56.8443908,0.0505992011 55.9324487,1.16378162 55.9324487,3.66844208 C55.9324487,6.09720373 56.7683957,7.26098535 58.946924,7.26098535 C59.6562123,7.26098535 60.4161641,7.10918775 60.8721351,6.88149134 L60.8721351,3.36484687 L59.5548854,3.36484687 L59.5548854,5.81890812 L59.5548854,5.81890812 Z" transform="translate(54.21)"/><g transform="translate(0 3.238)"><polygon fill="#E60032" points="3.977 34.762 0 22.846 .177 22.719 13.4 24.92 13.299 25.021"/><polygon fill="#6ECDF5" points="9.221 3.593 47.168 20.29 42.785 29.904 0 22.846"/><polygon fill="#64B9E6" points="0 22.846 37.314 0 42.785 29.904"/><polygon fill="#2D91D2" points="0 22.846 22.165 9.285 40.48 17.33 42.785 29.904"/><polygon fill="#375AA5" points="0 22.846 37.314 0 13.299 25.021"/><polygon fill="#1E3791" points="0 22.846 22.165 9.285 26.573 11.208 13.299 25.021"/></g></g></svg>