<svg xmlns="http://www.w3.org/2000/svg" width="106.699" height="32.92" viewBox="0 0 106.699 32.92"><g fill="none" fill-rule="evenodd"><path fill="#270089" fill-rule="nonzero" d="M35.51 22.79 35.51 31.31C35.51 31.86 35.49 32.06 35.35 32.35 35.17 32.68 34.78 32.92 34.31 32.92 33.84 32.92 33.45 32.69 33.28 32.35 33.13 32.06 33.12 31.86 33.12 31.31L33.12 22.79 31.31 22.79C30.81 22.79 30.61 22.77 30.38 22.65 30.08 22.5 29.87 22.14 29.87 21.73 29.87 21.32 30.07 20.96 30.38 20.81 30.61 20.69 30.81 20.67 31.31 20.67L37.32 20.67C37.82 20.67 38.02 20.69 38.25 20.81 38.55 20.96 38.76 21.32 38.76 21.73 38.76 22.14 38.55 22.5 38.25 22.65 38.02 22.77 37.82 22.79 37.32 22.79L35.51 22.79 35.51 22.79ZM52.99 23.84C53.98 23.84 54.79 24.2 55.35 24.97 56.1 24.18 56.91 23.84 58.02 23.84 58.91 23.84 59.71 24.13 60.21 24.63 60.93 25.35 61.19 26.19 61.19 27.16L61.19 31.4C61.19 31.94 61.16 32.15 61.04 32.39 60.88 32.71 60.53 32.92 60.07 32.92 59.61 32.92 59.27 32.71 59.1 32.39 58.98 32.15 58.96 31.94 58.96 31.4L58.96 27.46C58.96 26.25 58.19 25.85 57.49 25.85 56.79 25.85 56 26.25 56 27.41L56 31.4C56 31.94 55.97 32.15 55.85 32.39 55.69 32.71 55.34 32.92 54.88 32.92 54.42 32.92 54.08 32.71 53.91 32.39 53.79 32.15 53.76 31.94 53.76 31.4L53.76 27.46C53.76 26.25 52.99 25.85 52.29 25.85 51.59 25.85 50.8 26.25 50.8 27.46L50.8 31.4C50.8 31.94 50.78 32.15 50.66 32.39 50.5 32.71 50.15 32.92 49.69 32.92 49.23 32.92 48.89 32.71 48.72 32.39 48.6 32.15 48.57 31.94 48.57 31.4L48.57 25.39C48.57 24.82 48.6 24.65 48.73 24.39 48.89 24.08 49.27 23.88 49.69 23.88 49.99 23.88 50.23 23.98 50.4 24.14 50.58 24.3 50.66 24.49 50.73 24.79 51.3 24.17 52.14 23.85 52.96 23.85M76.04 23.84C76.73 23.84 77.18 23.99 77.58 24.25 77.91 24.47 78.15 24.8 78.15 25.18 78.15 25.5 78.01 25.8 77.82 25.99 77.62 26.19 77.35 26.3 77.08 26.3 76.86 26.3 76.62 26.22 76.32 26.07 76.05 25.93 75.77 25.84 75.47 25.84 74.73 25.84 73.99 26.35 73.99 27.48L73.99 31.4C73.99 31.94 73.96 32.15 73.84 32.39 73.68 32.71 73.33 32.92 72.87 32.92 72.41 32.92 72.07 32.71 71.9 32.39 71.78 32.15 71.75 31.94 71.75 31.4L71.75 25.39C71.75 24.82 71.78 24.65 71.91 24.39 72.07 24.08 72.45 23.88 72.87 23.88 73.17 23.88 73.41 23.98 73.58 24.14 73.76 24.3 73.86 24.49 73.91 24.82 74.34 24.31 75.15 23.85 76.03 23.85M83.86 23.84C84.55 23.84 85 23.99 85.4 24.25 85.73 24.47 85.97 24.8 85.97 25.18 85.97 25.5 85.83 25.8 85.64 25.99 85.44 26.19 85.17 26.3 84.9 26.3 84.68 26.3 84.44 26.22 84.14 26.07 83.88 25.93 83.59 25.84 83.29 25.84 82.55 25.84 81.81 26.35 81.81 27.48L81.81 31.4C81.81 31.94 81.78 32.15 81.66 32.39 81.5 32.71 81.15 32.92 80.69 32.92 80.23 32.92 79.89 32.71 79.72 32.39 79.6 32.15 79.58 31.94 79.58 31.4L79.58 25.39C79.58 24.82 79.61 24.65 79.74 24.39 79.9 24.08 80.28 23.88 80.7 23.88 81 23.88 81.24 23.98 81.41 24.14 81.59 24.3 81.69 24.49 81.74 24.82 82.17 24.31 82.98 23.85 83.86 23.85M99.26 31.7C99.1 32.23 98.96 32.48 98.77 32.64 98.55 32.82 98.28 32.92 97.97 32.92 97.66 32.92 97.39 32.82 97.17 32.64 96.97 32.48 96.83 32.23 96.67 31.7L94.85 25.57C94.71 25.09 94.68 24.89 94.74 24.64 94.84 24.21 95.28 23.88 95.77 23.88 96.06 23.88 96.31 23.99 96.48 24.16 96.66 24.35 96.73 24.52 96.87 25L98.13 29.44 99.52 25.02C99.67 24.54 99.79 24.3 99.99 24.13 100.18 23.96 100.41 23.88 100.71 23.88 101.01 23.88 101.24 23.96 101.43 24.13 101.63 24.3 101.75 24.54 101.9 25.02L103.29 29.44 104.55 25C104.69 24.52 104.75 24.35 104.93 24.16 105.1 23.99 105.35 23.88 105.64 23.88 106.13 23.88 106.56 24.21 106.67 24.64 106.73 24.9 106.7 25.09 106.56 25.57L104.75 31.7C104.6 32.23 104.45 32.48 104.25 32.64 104.03 32.82 103.77 32.92 103.45 32.92 103.13 32.92 102.87 32.82 102.65 32.64 102.45 32.48 102.32 32.23 102.15 31.7L100.72 27.21 99.29 31.7 99.26 31.7Z"/><path fill="#E7004C" fill-rule="nonzero" d="M42.78 29.03C43.53 29.03 44.13 28.41 44.13 27.64 44.13 26.87 43.53 26.25 42.78 26.25 42.03 26.25 41.43 26.87 41.43 27.64 41.43 28.41 42.03 29.03 42.78 29.03M42.78 24.49C44.52 24.49 45.94 25.9 45.94 27.65 45.94 29.4 44.53 30.81 42.78 30.81 41.03 30.81 39.62 29.4 39.62 27.65 39.62 25.9 41.03 24.49 42.78 24.49M90.34 30.91C91.09 30.91 91.69 30.29 91.69 29.52 91.69 28.75 91.09 28.13 90.34 28.13 89.59 28.13 88.99 28.75 88.99 29.52 88.99 30.29 89.59 30.91 90.34 30.91M90.34 26.37C92.08 26.37 93.5 27.78 93.5 29.53 93.5 31.28 92.09 32.69 90.34 32.69 88.59 32.69 87.18 31.28 87.18 29.53 87.18 27.78 88.59 26.37 90.34 26.37M66.56 24.31C67.31 24.31 67.91 23.69 67.91 22.92 67.91 22.15 67.31 21.53 66.56 21.53 65.81 21.53 65.21 22.15 65.21 22.92 65.21 23.69 65.81 24.31 66.56 24.31M66.56 19.77C68.31 19.77 69.72 21.18 69.72 22.93 69.72 24.68 68.31 26.09 66.56 26.09 64.81 26.09 63.4 24.68 63.4 22.93 63.4 21.18 64.81 19.77 66.56 19.77M66.56 8.69C67.31 8.69 67.91 8.07 67.91 7.3 67.91 6.53 67.31 5.91 66.56 5.91 65.81 5.91 65.21 6.53 65.21 7.3 65.21 8.07 65.81 8.69 66.56 8.69M66.56 4.15C68.31 4.15 69.72 5.56 69.72 7.31 69.72 9.06 68.31 10.47 66.56 10.47 64.81 10.47 63.4 9.06 63.4 7.31 63.4 5.56 64.81 4.15 66.56 4.15"/><path fill="#270089" fill-rule="nonzero" d="M1.32 1.4 1.32 6.25 4.45 6.25C5.97 6.25 7.01 5.43 7.01 3.82 7.01 2.21 5.97 1.41 4.45 1.41L1.32 1.41 1.32 1.4ZM.18.42C.36.24.59.24.8.24L4.56.24C6.78.24 8.34 1.64 8.34 3.82 8.34 6 6.78 7.41 4.56 7.41L1.32 7.41 1.32 11.6C1.32 11.94 1.3 12.05 1.2 12.22 1.1 12.38.9 12.49.66 12.49.42 12.49.22 12.38.12 12.22.02 12.06 0 11.95 0 11.6L0 1.04C0 .83 0 .6.18.42M19.12 10.12C19.12 10.89 19.47 11.34 20.23 11.34 20.51 11.34 20.67 11.37 20.78 11.44 20.93 11.53 21.01 11.68 21.01 11.88 21.01 12.08 20.92 12.22 20.78 12.32 20.67 12.39 20.51 12.42 20.23 12.42L20.01 12.42C18.58 12.42 17.87 11.41 17.87 10.16L17.87 1.01C17.87.71 17.89.59 17.98.44 18.08.29 18.26.18 18.49.18 18.72.18 18.91.29 19 .44 19.09.59 19.11.71 19.11 1.01L19.11 10.12 19.12 10.12ZM24.25 11.65C24.25 11.95 24.23 12.07 24.14 12.22 24.05 12.37 23.86 12.49 23.63 12.49 23.4 12.49 23.21 12.38 23.12 12.22 23.02 12.07 23.01 11.95 23.01 11.65L23.01 4.77C23.01 4.47 23.03 4.35 23.12 4.2 23.21 4.05 23.4 3.94 23.63 3.94 23.86 3.94 24.05 4.05 24.14 4.2 24.23 4.35 24.25 4.47 24.25 4.77L24.25 11.65 24.25 11.65ZM23.63 0C24.1 0 24.48.38 24.48.85 24.48 1.32 24.1 1.7 23.63 1.7 23.16 1.7 22.78 1.32 22.78.85 22.78.38 23.16 0 23.63 0M28.9 10.12C28.9 10.89 29.25 11.34 30.01 11.34 30.29 11.34 30.46 11.37 30.57 11.44 30.72 11.53 30.8 11.68 30.8 11.88 30.8 12.08 30.71 12.22 30.57 12.32 30.46 12.39 30.3 12.42 30.01 12.42L29.79 12.42C28.36 12.42 27.65 11.41 27.65 10.16L27.65 4.96 27.06 4.96C26.83 4.96 26.71 4.94 26.61 4.87 26.47 4.78 26.41 4.65 26.41 4.48 26.41 4.31 26.47 4.17 26.61 4.09 26.71 4.02 26.83 4 27.06 4L27.65 4 27.65 2.2C27.65 1.9 27.67 1.78 27.76 1.63 27.85 1.48 28.04 1.36 28.27 1.36 28.5 1.36 28.69 1.47 28.78 1.63 28.87 1.78 28.89 1.9 28.89 2.2L28.89 4 30.13 4C30.36 4 30.48 4.02 30.58 4.09 30.73 4.18 30.79 4.31 30.79 4.48 30.79 4.65 30.73 4.79 30.58 4.87 30.48 4.94 30.36 4.96 30.13 4.96L28.89 4.96 28.89 10.12 28.9 10.12ZM34.44 11.65C34.44 11.95 34.42 12.07 34.33 12.22 34.24 12.37 34.05 12.49 33.82 12.49 33.59 12.49 33.4 12.38 33.31 12.22 33.22 12.07 33.2 11.95 33.2 11.65L33.2 4.77C33.2 4.47 33.22 4.35 33.31 4.2 33.4 4.05 33.59 3.94 33.82 3.94 34.05 3.94 34.24 4.05 34.33 4.2 34.42 4.35 34.44 4.47 34.44 4.77L34.44 11.65 34.44 11.65ZM33.82 0C34.29 0 34.67.38 34.67.85 34.67 1.32 34.29 1.7 33.82 1.7 33.35 1.7 32.97 1.32 32.97.85 32.97.38 33.35 0 33.82 0M40.83 3.9C41.69 3.9 42.28 4.11 42.88 4.59 43.28 4.91 43.48 5.08 43.48 5.39 43.48 5.54 43.41 5.68 43.3 5.79 43.2 5.88 43.06 5.94 42.92 5.94 42.73 5.94 42.6 5.84 42.32 5.62 41.76 5.16 41.39 5.01 40.83 5.01 40.01 5.01 39.35 5.32 38.91 5.94 38.52 6.5 38.36 7.14 38.36 8.21 38.36 9.28 38.51 9.91 38.91 10.47 39.35 11.09 40.01 11.41 40.83 11.41 41.39 11.41 41.79 11.26 42.32 10.8 42.52 10.62 42.73 10.47 42.92 10.47 43.07 10.47 43.2 10.53 43.3 10.62 43.41 10.73 43.48 10.88 43.48 11.02 43.48 11.33 43.24 11.55 42.88 11.82 42.31 12.27 41.68 12.5 40.83 12.5 38.68 12.5 37.11 11.06 37.11 8.19 37.11 5.32 38.68 3.88 40.83 3.88M45.05 11.14C45.05 10.99 45.12 10.83 45.25 10.71 45.34 10.62 45.47 10.58 45.61 10.58 45.76 10.58 45.95 10.66 46.18 10.82 46.79 11.26 47.46 11.45 48.4 11.45 49.83 11.45 50.64 10.96 50.64 9.97 50.64 9.22 50.19 8.83 49.24 8.75L47.86 8.62C46.22 8.47 45.34 7.75 45.34 6.36 45.34 4.83 46.63 3.89 48.44 3.89 49.38 3.89 50.13 4.09 50.79 4.42 51.01 4.53 51.13 4.63 51.21 4.73 51.29 4.84 51.3 4.93 51.3 5.05 51.3 5.15 51.24 5.29 51.16 5.38 51.05 5.5 50.92 5.56 50.77 5.56 50.63 5.56 50.5 5.51 50.3 5.4 49.74 5.11 49.14 4.95 48.42 4.95 47.22 4.95 46.54 5.45 46.54 6.33 46.54 7.09 47.01 7.45 48.02 7.55L49.37 7.68C50.85 7.82 51.85 8.37 51.85 9.96 51.85 11.55 50.46 12.53 48.42 12.53 47.13 12.53 46.24 12.26 45.48 11.73 45.24 11.57 45.07 11.38 45.07 11.15M61.93 4C62.16 4 62.28 4.02 62.38 4.09 62.52 4.18 62.58 4.31 62.58 4.48 62.58 4.65 62.52 4.79 62.38 4.87 62.28 4.94 62.16 4.95 61.93 4.95L60.69 4.95 60.69 11.64C60.69 11.94 60.67 12.06 60.58 12.21 60.49 12.36 60.3 12.48 60.07 12.48 59.84 12.48 59.65 12.37 59.56 12.21 59.47 12.06 59.45 11.94 59.45 11.64L59.45 4.96 58.86 4.96C58.63 4.96 58.51 4.94 58.41 4.88 58.26 4.79 58.2 4.66 58.2 4.49 58.2 4.32 58.26 4.18 58.41 4.1 58.51 4.03 58.63 4.01 58.86 4.01L59.45 4.01 59.45 2.47C59.45 1.22 60.16.21 61.59.21L61.81.21C62.09.21 62.25.24 62.37.31 62.51.4 62.6.55 62.6.75 62.6.95 62.51 1.09 62.37 1.19 62.26 1.26 62.1 1.29 61.81 1.29 61.05 1.29 60.7 1.74 60.7 2.51L60.7 4.01 61.94 4.01 61.93 4ZM73.09 5.01C73.56 4.33 74.47 3.9 75.39 3.9 75.99 3.9 76.45 4.02 76.91 4.3 77.17 4.46 77.38 4.66 77.38 4.93 77.38 5.09 77.3 5.26 77.2 5.37 77.09 5.48 76.94 5.55 76.77 5.55 76.62 5.55 76.49 5.49 76.18 5.31 75.86 5.12 75.51 5.01 75.13 5.01 73.88 5.01 73.09 5.96 73.09 7.28L73.09 11.65C73.09 11.95 73.07 12.07 72.98 12.22 72.88 12.37 72.7 12.49 72.47 12.49 72.24 12.49 72.05 12.38 71.96 12.22 71.87 12.07 71.85 11.95 71.85 11.65L71.85 4.77C71.85 4.47 71.87 4.35 71.96 4.2 72.05 4.05 72.24 3.94 72.47 3.94 72.7 3.94 72.89 4.05 72.98 4.2 73.07 4.35 73.09 4.47 73.09 4.77L73.09 5.02 73.09 5.01Z"/><path fill="#E7004C" fill-rule="nonzero" d="M12,10.48 C12.75,10.48 13.35,9.86 13.35,9.09 C13.35,8.32 12.75,7.7 12,7.7 C11.25,7.7 10.65,8.32 10.65,9.09 C10.65,9.86 11.25,10.48 12,10.48 M12,5.94 C13.74,5.94 15.16,7.35 15.16,9.1 C15.16,10.85 13.75,12.26 12,12.26 C10.25,12.26 8.84,10.85 8.84,9.1 C8.84,7.35 10.25,5.94 12,5.94"/></g></svg>