<svg xmlns="http://www.w3.org/2000/svg" width="600" height="519" viewBox="0 0 600 519"><g fill="none" fill-rule="evenodd"><g transform="translate(102 102)"><polygon points="392 392 0 392 0 0 392 0 392 330.693"/><rect width="392" height="392" x="5" y="7" fill="#F4F4FA" fill-rule="nonzero"/><polygon stroke="#32406D" points="392 392 0 392 0 0 392 0 392 330.693"/><g transform="translate(190 9)"><line x1="6" x2="6" y1="8.67" y2="360.33" stroke="#32406D"/><polygon fill="#32406D" fill-rule="nonzero" points="0 10.42 6 0 12 10.42"/><polygon fill="#32406D" fill-rule="nonzero" points="0 358.559 6 369 12 358.559"/></g><g transform="translate(4 188)"><line x1="376.339" x2="8.661" y1="5.99" y2="5.99" stroke="#32406D"/><polygon fill="#32406D" fill-rule="nonzero" points="374.566 0 385 5.99 374.566 12"/><polygon fill="#32406D" fill-rule="nonzero" points="10.434 0 0 5.99 10.434 12"/></g></g><g transform="translate(329 5)"><path d="M70.1258755,0 C34.7802437,-0.067129048 6.0671651,28.5633954 6,63.9522704 C6,64.0363295 6,64.1203885 6,64.2044476 C6,99.5765107 70.1258755,166 70.1258755,166 C70.1258755,166 134,99.5765107 134,64.2044476 C134.067047,28.8155727 105.471507,0.0673654886 70.1258755,0 L70.1258755,0 L70.1258755,0 Z"/><path fill="#ACACDA" fill-rule="nonzero" d="M76.1258166,5.00011781 C40.7802172,4.93298881 12.067165,33.563493 12,68.9523428 C12,69.0364018 12,69.1204608 12,69.2045199 C12,104.576558 76.1258166,171 76.1258166,171 C76.1258166,171 139.999882,104.576558 139.999882,69.2045199 C140.066929,33.81567 111.471416,5.06748325 76.1258166,5.00011781 L76.1258166,5.00011781 Z M76.1258166,88.0673652 C65.7320275,88.0673652 57.2860244,79.6278391 57.2860244,69.2045199 C57.2860244,58.7812007 65.7152362,50.3416745 76.1258166,50.3416745 C86.5363969,50.3416745 94.9656087,58.7812007 94.9656087,69.2045199 L94.9656087,69.2045199 C94.9656087,79.6110272 86.5363969,88.0673652 76.1258166,88.0673652 Z"/><path fill="#F64C72" fill-rule="nonzero" d="M2.31785592,356 L2,349.63815 C10.649027,349.218503 19.9170365,348.664568 29.2352339,347.523128 L30.0047798,353.851407 C20.4691021,355.009633 10.649027,355.580353 2.31785592,356 L2.31785592,356 Z M57.5244111,348.328851 L55.6841926,342.218789 C63.9819051,339.717692 71.2424036,336.528374 77.8671902,332.516547 C78.5363605,332.113686 79.2055309,331.694039 79.8747013,331.257606 L83.3543872,336.595517 C82.635029,337.065522 81.8989416,337.518741 81.1628542,337.97196 C74.0696483,342.269146 66.3407306,345.659895 57.5244111,348.328851 Z M99.9665415,312.289557 L93.6261523,311.937053 C93.6261523,311.651693 93.6428815,311.366333 93.6428815,311.097759 C93.6428815,309.21774 93.2915671,307.438436 92.6223967,305.843777 C90.8658245,301.697663 86.9009901,298.575489 82.8692386,295.822604 C81.8152953,295.100811 80.7446227,294.395804 79.6739502,293.690796 L83.1201775,288.336099 C84.2410379,289.057892 85.345169,289.796471 86.4493001,290.551836 C91.2673267,293.858655 96.0686241,297.685837 98.4776374,303.34268 C99.4981222,305.726276 100,308.344874 100,311.097759 C100,311.50062 100,311.886695 99.9665415,312.289557 L99.9665415,312.289557 Z M56.0020485,279.909585 C49.0594059,275.964902 41.6818027,271.567 34.7391601,266.195517 C34.0030727,265.624797 33.2669853,265.037291 32.5476272,264.449785 L36.5961079,259.531521 C37.2652783,260.085455 37.9344486,260.622604 38.6203482,261.142966 C45.2618641,266.262661 52.4052578,270.526276 59.1471492,274.353457 L56.0020485,279.909585 L56.0020485,279.909585 Z M16.1027654,240.311683 C15.8016388,238.784168 15.6176169,237.239866 15.5674292,235.712351 C15.5674292,235.393419 15.5674292,235.074487 15.5674292,234.755556 C15.5674292,227.319409 18.5954251,219.698617 24.5510413,212.128183 L29.5363605,216.089652 C24.4841243,222.50186 21.9245476,228.779781 21.9245476,234.755556 C21.9245476,235.007344 21.9245476,235.242346 21.9245476,235.494134 C21.9580061,236.669146 22.1085695,237.860944 22.3427791,239.035956 L16.1194947,240.311683 L16.1027654,240.311683 Z M49.2266985,198.296614 L45.6299078,193.042632 C53.4424718,187.654363 61.8907477,183.273247 70.7237965,180 L72.9153295,185.975775 C64.5674292,189.064378 56.6043018,193.210491 49.2266985,198.296614 Z"/><path stroke="#32406D" d="M70.1258755,0 C34.7802437,-0.067129048 6.0671651,28.5633954 6,63.9522704 C6,64.0363295 6,64.1203885 6,64.2044476 C6,99.5765107 70.1258755,166 70.1258755,166 C70.1258755,166 134,99.5765107 134,64.2044476 C134.067047,28.8155727 105.471507,0.0673654886 70.1258755,0 L70.1258755,0 L70.1258755,0 Z"/><path stroke="#393A60" d="M0.317855924,353 L0,346.63815 C8.64902697,346.218503 17.9170365,345.664568 27.2352339,344.523128 L28.0047798,350.851407 C18.4691021,352.009633 8.64902697,352.580353 0.317855924,353 L0.317855924,353 Z M55.5244111,345.328851 L53.6841926,339.218789 C61.9819051,336.717692 69.2424036,333.54516 75.8671902,329.516547 C76.5363605,329.113686 77.2055309,328.694039 77.8747013,328.257606 L81.3543872,333.595517 C80.635029,334.065522 79.8989416,334.535527 79.1628542,334.97196 C72.0696483,339.269146 64.3407306,342.659895 55.5244111,345.328851 Z M97.9665415,309.289557 L91.6261523,308.937053 C91.6261523,308.651693 91.6428815,308.366333 91.6428815,308.097759 C91.6428815,306.21774 91.2915671,304.438436 90.6223967,302.843777 C88.8658245,298.697663 84.9009901,295.575489 80.8692386,292.822604 C79.8152953,292.100811 78.7446227,291.395804 77.6739502,290.690796 L81.1201775,285.336099 C82.2410379,286.057892 83.3618983,286.796471 84.4660294,287.551836 C89.284056,290.841869 94.0853534,294.685837 96.4776374,300.34268 C97.4981222,302.726276 98,305.344874 98,308.097759 C98,308.50062 98,308.886695 97.9665415,309.289557 L97.9665415,309.289557 Z M54.0020485,276.909585 C47.0594059,272.948116 39.6818027,268.567 32.7391601,263.195517 C32.0030727,262.624797 31.2669853,262.037291 30.5476272,261.449785 L34.5961079,256.531521 C35.2652783,257.085455 35.9344486,257.622604 36.6203482,258.142966 C43.2618641,263.262661 50.4052578,267.526276 57.1471492,271.353457 L54.0020485,276.909585 L54.0020485,276.909585 Z M14.1027654,237.311683 C13.8016388,235.784168 13.6176169,234.239866 13.5674292,232.712351 C13.5674292,232.393419 13.5674292,232.074487 13.5674292,231.755556 C13.5674292,224.319409 16.5954251,216.698617 22.5510413,209.128183 L27.5363605,213.089652 C22.4841243,219.50186 19.9245476,225.779781 19.9245476,231.755556 C19.9245476,232.007344 19.9245476,232.242346 19.9245476,232.494134 C19.9580061,233.669146 20.1085695,234.860944 20.3427791,236.035956 L14.1194947,237.311683 L14.1027654,237.311683 Z M47.2266985,195.296614 L43.6299078,190.042632 C51.4424718,184.654363 59.8907477,180.273247 68.7237965,177 L70.9153295,182.975775 C62.5674292,186.064378 54.6043018,190.210491 47.2266985,195.296614 Z"/><path stroke="#32406D" d="M70,84 C59.5178253,84 51,75.7174312 51,65.5 C51,55.2825688 59.5008913,47 70,47 C80.4991087,47 89,55.2825688 89,65.5 L89,65.5 C89,75.7174312 80.4991087,84 70,84 Z"/></g></g></svg>