<svg xmlns="http://www.w3.org/2000/svg" width="12" height="16" viewBox="0 0 12 16"><path fill="#FFF" fill-rule="evenodd" d="M8.57661703,6 C9.45039475,6 10.0580951,6.13919419 11.1445681,6.52049087 L11.6690607,6.70734324 C12.5165641,7.00534555 12.9240522,7.09892939 13.4533124,7.09892939 L13.9929423,7.09423897 C14.4161282,7.08654803 14.7736465,7.06971754 15.0699707,7.04611804 L15.346581,7.02037678 C15.4754416,7.00653612 15.5542024,6.99512921 15.5882525,6.98926511 L17,6.65001878 L17,14.5558782 L16.6753748,14.8484863 C16.494353,15.0116542 16.1968165,15.1904484 15.7698987,15.3443731 C15.1589229,15.5646597 14.3907088,15.6905591 13.4533124,15.6905591 C12.5795347,15.6905591 11.9718344,15.551365 10.8853614,15.1700683 L10.3608688,14.9832159 C9.5133654,14.6852136 9.10587725,14.5916298 8.57661703,14.5916298 C7.99669389,14.5916298 7.3314511,14.6529945 7,14.7508223 L7.00003845,21.2501344 C6.29466756,20.9746694 5.62470357,20.6284954 4.9988603,20.2203261 L5,14.006813 L5.02992518,14.0062001 L5.02992946,7.134681 L5.35455469,6.84207284 C5.53557642,6.6789049 5.83311298,6.50011078 6.2600308,6.34618604 C6.87100657,6.12589942 7.63922066,6 8.57661703,6 Z" transform="translate(-5 -6)"/></svg>