<svg xmlns="http://www.w3.org/2000/svg" width="23.616" height="23.44" viewBox="0 0 23.616 23.44"><g fill="none" fill-rule="evenodd"><g transform="translate(1 1)"><path stroke="#FAA5B8" stroke-linejoin="round" stroke-width="2" d="M23.6156893,11.7202263 C23.6156893,18.193322 18.3280099,23.4404526 11.8086964,23.4404526 C5.2859759,23.4404526 0,18.193322 0,11.7202263 C0,5.24713061 5.2859759,0 11.8086964,0 C18.3280099,0 23.6156893,5.24713061 23.6156893,11.7202263 Z"/><polygon fill="#FAA5B8" points="10.999 11 12.999 11 12.999 4 10.999 4"/><polygon fill="#FAA5B8" points="12.999 18.005 10.999 18.005 10.999 16.005 12.999 16.005"/></g><g stroke="#393A60" stroke-width="2"><path d="M13.9990082,16.005188 L13.9990082,20.005188 L9.99900818,20.005188 L9.99900818,16.005188 L13.9990082,16.005188 Z"/><path d="M23.6156893,11.7202263 C23.6156893,18.193322 18.3297134,23.4404526 11.8086964,23.4404526 C5.2859759,23.4404526 0,18.193322 0,11.7202263 C0,5.24713061 5.2859759,0 11.8086964,0 C18.3297134,0 23.6156893,5.24713061 23.6156893,11.7202263 Z"/><path d="M13.9990082,4.00003052 L13.9990082,13.0000305 L9.99900818,13.0000305 L9.99900818,4.00003052 L13.9990082,4.00003052 Z"/></g></g></svg>