<svg xmlns="http://www.w3.org/2000/svg" width="24" height="20" viewBox="0 0 24 20"><path fill="none" stroke="currentColor" stroke-linecap="round" stroke-linejoin="round" stroke-width="2" d="M22,0.0102625429 C21.042385,0.68573995 19.9821079,1.20237179 18.86,1.54026254 C17.6263595,0.121800337 15.63837,-0.375623146 13.8820815,0.294715977 C12.125793,0.965055099 10.9748003,2.66056341 11,4.54026254 L11,5.54026254 C7.43066483,5.63281494 4.05202531,3.93223305 2,1.01026254 C2,1.01026254 -2,10.0102625 7,14.0102625 C4.94052756,15.4082289 2.48715691,16.1091919 -6.66133815e-16,16.0102625 C9,21.0102625 20,16.0102625 20,4.51026254 C19.9990791,4.23171618 19.9722975,3.95385694 19.92,3.68026254 C20.9406031,2.67375562 21.6608274,1.40297533 22,0.0102625429 Z" transform="translate(1 1)"/></svg>